<?xml version="1.0" standalone="no"?>
<!DOCTYPE svg PUBLIC "-//W3C//DTD SVG 1.1//EN" "http://www.w3.org/Graphics/SVG/1.1/DTD/svg11.dtd" >
<svg xmlns="http://www.w3.org/2000/svg" xmlns:xlink="http://www.w3.org/1999/xlink" version="1.1">
<metadata>
Created by FontForge 20201107 at Wed Dec 10 15:19:02 2014
 By Jimmy Wärting
Copyright (c) 2014 ParaType, Inc., ParaType Ltd. All rights reserved.
</metadata>
<defs>
<font id="Stem-BoldItalic" horiz-adv-x="537" >
  <font-face 
    font-family="Stem-BoldItalic"
    font-weight="400"
    font-style="italic"
    font-stretch="normal"
    units-per-em="1000"
    panose-1="2 11 7 3 2 2 3 9 2 4"
    ascent="779"
    descent="-221"
    x-height="520"
    cap-height="700"
    bbox="-408 -296.001 1384 994"
    underline-thickness="50"
    underline-position="-100"
    slope="-11"
    unicode-range="U+0020-FEFF"
  />
<missing-glyph horiz-adv-x="236" 
 />
    <glyph glyph-name="uniF350.var.accented" unicode="&#xf350;`" horiz-adv-x="622" 
d="M-30 0l370 559h110l152 -559h-149l-25 85h-231l-59 -85h-168zM359 332l-87 -122h125zM582 759l-148 -148l-91 82l140 160z" />
    <glyph glyph-name="uniF355.var.accented" unicode="&#xf355;`" horiz-adv-x="554" 
d="M28 0l109 560h453l-27 -140h-303l-14 -69h282l-26 -135h-282l-15 -76h310l-27 -140h-460zM540 759l-148 -148l-91 82l140 160z" />
    <glyph glyph-name="uniF358.var.accented" unicode="&#xf358;`" horiz-adv-x="644" 
d="M150 0h-122l109 560h150l-58 -297l322 297h124l-109 -560h-150l57 294zM607 759l-148 -148l-91 82l140 160z" />
    <glyph glyph-name="uniF35E.var.accented" unicode="&#xf35e;`" horiz-adv-x="664" 
d="M50 235c0 96 32.168 175.832 96.501 239.499s148.166 95.5 251.499 95.5c84 0 150.833 -22.833 200.5 -68.5s74.5 -104.167 74.5 -175.5c0 -95.333 -31.167 -175.166 -93.5 -239.499s-146.5 -96.5 -252.5 -96.5c-81.333 0 -147.833 22.333 -199.5 67s-77.5 104 -77.5 178
zM205.001 254.999c0 -34.667 11.833 -63.333 35.5 -86s55.5 -34 95.5 -34c57.333 0 102 16.667 134 50s48 73 48 119c0 33.333 -11.5 61.833 -34.5 85.5s-55.167 35.5 -96.5 35.5c-55.333 0 -99.5 -16.833 -132.5 -50.5s-49.5 -73.5 -49.5 -119.5zM623.001 759l-148 -148
l-91 82l140 160z" />
    <glyph glyph-name="uniF363.var.accented" unicode="&#xf363;`" horiz-adv-x="630" 
d="M132 34l81 111c8.66699 -6 16.667 -9 24 -9c17.333 0 32.666 14.333 45.999 43l-199 381h172l122 -238l165 238h172l-297 -427c-61.333 -88.667 -123.666 -133 -186.999 -133c-41.333 -0 -74.333 11.333 -99 34zM593 759l-148 -148l-91 82l140 160z" />
    <glyph glyph-name="uniF36B.var.accented" unicode="&#xf36b;`" horiz-adv-x="777" 
d="M548 0l109 560h151l-109 -560h-151zM300 245h-73.999l-21 -105h77c41.333 0 70.166 4.16699 86.499 12.5s24.5 23.833 24.5 46.5c0 17.333 -7.5 29.333 -22.5 36s-38.5 10 -70.5 10zM287.001 560l-34 -173.999h99c64.667 0 113.5 -14.333 146.5 -43
s49.5 -70.334 49.5 -125.001c0 -76.667 -23.5 -132.167 -70.5 -166.5s-119.167 -51.5 -216.5 -51.5h-233l109 560h150zM672.001 759.001l-148 -148l-91 82l140 160z" />
    <glyph glyph-name="uniF36D.var.accented" unicode="&#xf36d;`" horiz-adv-x="604" 
d="M225 216l26.999 139.999h206c-19.333 49.333 -65 74 -137 74c-66.667 0 -124 -22.667 -172 -68l-83 105c67.333 68.667 157.333 103 270 103c90.667 0 160 -22.5 208 -67.5s72 -104.833 72 -179.5c0 -99.333 -30.833 -179.666 -92.5 -240.999s-147.5 -92 -257.5 -92
c-122 0 -210.333 41.333 -265 124l105 90c22 -26 46.333 -44.833 73 -56.5s60.334 -17.5 101.001 -17.5s75 8.16699 103 24.5s48.333 36.833 61 61.5h-219zM550.999 758.999l-148 -148l-91 82l140 160z" />
    <glyph glyph-name="uniF36E.var.accented" unicode="&#xf36e;`" horiz-adv-x="878" 
d="M28 0l109.001 560.001h150l-41 -212h49c8.66699 28 21.5 54.667 38.5 80s38.667 48.833 65 70.5s59 39 98 52s81.5 19.5 127.5 19.5c85.333 0 151 -21.833 197 -65.5s69 -101.167 69 -172.5c0 -98 -30.5 -179.5 -91.5 -244.5s-146.833 -97.5 -257.5 -97.5
c-72 0 -133.333 19.167 -184 57.5s-77.334 96.166 -80.001 173.499h-56l-43 -221h-150zM431.001 252.001c0 -37.333 11.667 -67.001 35 -89.001s54.666 -33 93.999 -33c49.333 0 91 17 125 51s51 77 51 129c0 36.667 -11.167 65.834 -33.5 87.501s-52.166 32.5 -89.499 32.5
c-49.333 0 -92 -16.833 -128 -50.5s-54 -76.167 -54 -127.5zM740.001 759l-148 -148l-91 82l140 160z" />
    <glyph glyph-name="uniF36F.var.accented" unicode="&#xf36f;`" horiz-adv-x="601" 
d="M373 0l34 174.001h-71l-177 -174h-193l208 202c-60.667 28.667 -91 79 -91 151c0 67.333 25.5 118.666 76.5 153.999s119.5 53 205.5 53h267l-109 -560h-150zM322 314.001h112l21 106h-126c-58 0 -87 -19.333 -87 -58c0 -34.667 26.667 -50.667 80 -48zM588 759.001
l-148 -148l-91 82l140 160z" />
    <glyph glyph-name="uniF371.var.accented" unicode="&#xf371;`" horiz-adv-x="564" 
d="M165 700c0 20 7.66699 36.666 23 49.999s33.666 20 54.999 20c20 0 38.167 -6.66699 54.5 -20s24.5 -30 24.5 -50c0 -21.333 -8 -38.666 -24 -51.999s-34.333 -20 -55 -20c-21.333 0 -39.666 6.5 -54.999 19.5s-23 30.5 -23 52.5zM471 699.999
c0 20 8.00098 36.667 24.001 50s35 20 57 20c21.333 0 39.833 -6.66699 55.5 -20s23.5 -30 23.5 -50c0 -22 -7.66699 -39.5 -23 -52.5s-34 -19.5 -56 -19.5c-22.667 0 -41.834 6.5 -57.501 19.5s-23.5 30.5 -23.5 52.5zM506.001 785.999l-117 -161l-67 31l60 178z
M28.001 -0.000976562l109 560h453l-27 -140h-303l-14 -69h282l-26 -135h-282l-15 -76h310l-27 -140h-460z" />
    <glyph glyph-name="afii10017.var.accented" unicode="&#x410;`" horiz-adv-x="721" 
d="M-29 0l443 700h115l171 -700h-155l-32 130h-288l-82 -130h-172zM433 465l-128 -204h177zM682 838l-245 -102l-43 107l234 131z" />
    <glyph glyph-name="afii10022.var.accented" unicode="&#x415;`" horiz-adv-x="649" 
d="M40 0l136 700h535l-28 -145h-380l-25 -130h355l-28 -140h-355l-27 -140h389l-28 -145h-544zM662 838l-245 -102l-43 107l234 131z" />
    <glyph glyph-name="afii10026.var.accented" unicode="&#x418;`" horiz-adv-x="753" 
d="M167 0h-127l136 700h155l-80 -411l419 411h129l-136 -700h-155l80 409zM702 838l-245 -102l-43 107l234 131z" />
    <glyph glyph-name="afii10032.var.accented" unicode="&#x41e;`" horiz-adv-x="781" 
d="M66 298c0 36 5.66895 73.002 17.002 111.002s28.666 75.167 51.999 111.5s51.166 68.666 83.499 96.999s71.5 51.166 117.5 68.499s95.333 26 148 26c96.667 0 173.667 -28.5 231 -85.5s86 -131.5 86 -223.5c0 -120.667 -40 -220 -120 -298s-178.667 -117 -296 -117
c-95.333 0 -172.333 29.167 -231 87.5s-88 132.5 -88 222.5zM227.002 311.002c0 -52.667 16.332 -94.666 48.999 -125.999s74.667 -47 126 -47c67.333 0 123.833 24.667 169.5 74s68.5 108 68.5 176c0 49.333 -15.5 90.666 -46.5 123.999s-73.167 50 -126.5 50
c-67.333 0 -124.166 -24.5 -170.499 -73.5s-69.5 -108.167 -69.5 -177.5zM697.001 838.003l-245 -102l-43 107l234 131z" />
    <glyph glyph-name="afii10037.var.accented" unicode="&#x423;`" horiz-adv-x="728" 
d="M661 700h178.001l-361 -536c-34 -51.333 -67.833 -91.5 -101.5 -120.5s-74.167 -43.5 -121.5 -43.5c-62 -0 -106 26.333 -132 79l96 89c7.33301 -15.333 20.666 -23 39.999 -23c28 0 51.667 19 71 57l-219 498h176l145 -348zM702.001 838l-245 -102l-43 107l234 131z" />
    <glyph glyph-name="afii10045.var.accented" unicode="&#x42b;`" horiz-adv-x="900" 
d="M655 0l136 700h155l-136 -700h-155zM359 323h-101l-35 -178h99c107.333 0 161 33.667 161 101c0 51.333 -41.333 77 -124 77zM331 700l-45 -231.999h104c84 0 147.333 -17.333 190 -52s64 -83.334 64 -146.001c0 -180 -118 -270 -354 -270h-250l136 700h155zM762 838.001
l-245 -102l-43 107l234 131z" />
    <glyph glyph-name="afii10047.var.accented" unicode="&#x42d;`" horiz-adv-x="707" 
d="M238 285l28 145h303c-7.33301 39.333 -26 71.333 -56 96s-71.667 37 -125 37c-80.667 0 -153 -29 -217 -87l-83 100c82.667 88 186 132 310 132c109.333 0 192 -28.167 248 -84.5s84 -128.5 84 -216.5c0 -122 -37.667 -221.667 -113 -299s-175 -116 -299 -116
c-151.333 0 -254.666 52 -309.999 156l115 84c41.333 -63.333 105.666 -95 192.999 -95c124 0 202.667 49.333 236 148h-314zM632 838l-245 -102l-43 107l234 131z" />
    <glyph glyph-name="afii10048.var.accented" unicode="&#x42e;`" horiz-adv-x="1014" 
d="M40 0l135.999 700.001h155l-54 -278h62c30 92 78.833 162.667 146.5 212s148.167 74 241.5 74c67.333 0 124.833 -15.167 172.5 -45.5s82.167 -68 103.5 -113s32 -94.167 32 -147.5c0 -52 -9.16699 -102.333 -27.5 -151s-44.166 -92.334 -77.499 -131.001
s-76.166 -69.667 -128.499 -93s-109.5 -35 -171.5 -35c-92.667 0 -167.334 28.167 -224.001 84.5s-85 127.5 -85 213.5h-70l-56 -290h-155zM480.999 307.001c0 -51.333 15.3311 -92.499 45.998 -123.499s69.334 -46.5 116.001 -46.5c69.333 0 125 25 167 75s63 109 63 177
c0 51.333 -15.167 93.166 -45.5 125.499s-70.833 48.5 -121.5 48.5c-59.333 0 -111.666 -24.333 -156.999 -73s-68 -109.667 -68 -183zM901.997 838.002l-245 -102l-43 107l234 131z" />
    <glyph glyph-name="afii10049.var.accented" unicode="&#x42f;`" horiz-adv-x="701" 
d="M456 0l45 231h-114l-225 -231h-187l255 262c-80 36 -120 96.333 -120 181c0 82 30.333 145.333 91 190s138.667 67 234 67h312l-136 -700h-155zM376 376h152.999l35 179h-147c-97.333 0 -146 -31 -146 -93c0 -28 9.33301 -49.333 28 -64s44.334 -22 77.001 -22z
M691.999 838l-245 -102l-43 107l234 131z" />
    <glyph glyph-name="afii10023.var.accented" unicode="&#x401;`" horiz-adv-x="649" 
d="M40 0l136 700h535l-28 -145h-380l-25 -130h355l-28 -140h-355l-27 -140h389l-28 -145h-544zM549 829c0 22 7.83301 40.667 23.5 56s34.834 23 57.501 23s42.167 -7.66699 58.5 -23s24.5 -34 24.5 -56c0 -21.333 -8.16699 -39.333 -24.5 -54s-35.833 -22 -58.5 -22
s-41.834 7.33301 -57.501 22s-23.5 32.667 -23.5 54zM230 829c0 22 7.66699 40.667 23 56s34.333 23 57 23c23.333 0 43.166 -7.66699 59.499 -23s24.5 -34 24.5 -56c0 -21.333 -8.16699 -39.333 -24.5 -54s-36.166 -22 -59.499 -22c-22.667 0 -41.667 7.33301 -57 22
s-23 32.667 -23 54zM580 917l-106 -142l-72 26l50 170z" />
    <glyph glyph-name="afii10065.var.accented" unicode="&#x430;`" horiz-adv-x="576" 
d="M374 0l10.001 47.001c-28 -34.667 -74.667 -52 -140 -52c-60.667 0 -109 19.667 -145 59s-54 90.333 -54 153c0 101.333 26.5 180.666 79.5 237.999s121.5 86 205.5 86c63.333 0 106.666 -14 129.999 -42l7 31h133l-97 -520h-129zM289.001 125.001
c22 0 43.3311 5.83203 63.998 17.499s36.667 26.834 48 45.501l32 161c-19.333 34.667 -51.666 52 -96.999 52c-42.667 0 -77.667 -15.5 -105 -46.5s-41 -72.167 -41 -123.5c0 -33.333 9.33301 -59.333 28 -78s42.334 -28 71.001 -28zM578.999 742l-149 -149l-94 79l141 162
z" />
    <glyph glyph-name="afii10070.var.accented" unicode="&#x435;`" 
d="M442 177l78.998 -84.001c-32 -38 -68.167 -64.5 -108.5 -79.5s-86.166 -22.5 -137.499 -22.5c-67.333 0 -122.5 20.833 -165.5 62.5s-64.5 95.834 -64.5 162.501c0 92 29.667 167.833 89 227.5s133.666 89.5 222.999 89.5c62.667 0 111 -13 145 -39s51 -64.667 51 -116
c0 -59.333 -27.167 -105.833 -81.5 -139.5s-121.166 -50.5 -200.499 -50.5c-25.333 0 -51 2 -77 6c12.667 -48.667 48.334 -73 107.001 -73c54.667 0 101.667 18.667 141 56zM350.998 402.999c-31.333 0 -60 -8.16699 -86 -24.5s-45.333 -38.5 -58 -66.5
c9.33301 -0.666992 23 -1 41 -1c48.667 0 87.5 4.83301 116.5 14.5s43.5 22.167 43.5 37.5c0 26.667 -19 40 -57 40zM574.998 741.999l-149 -149l-94 79l141 162z" />
    <glyph glyph-name="afii10074.var.accented" unicode="&#x438;`" horiz-adv-x="550" 
d="M574 520l-96.999 -520h-138l10 44c-30.667 -34.667 -73.334 -52 -128.001 -52c-55.333 0 -98 13.333 -128 40s-45 63.334 -45 110.001c0 25.333 3 53.333 9 84l60 294h138l-58 -283c-2.66699 -12.667 -4 -26 -4 -40c0.666992 -24.667 6 -43.334 16 -56.001s27 -19 51 -19
c50.667 0 88.667 23 114 69l62 329h138zM556.001 742l-149 -149l-94 79l141 162z" />
    <glyph glyph-name="afii10080.var.accented" unicode="&#x43e;`" horiz-adv-x="587" 
d="M45 211c0 91.333 30.168 167.499 90.501 228.499s134.166 91.5 221.499 91.5c72 0 129 -20.5 171 -61.5s63 -93.167 63 -156.5c0 -93.333 -28.833 -170.166 -86.5 -230.499s-132.167 -90.5 -223.5 -90.5c-74.667 0 -132.667 20.5 -174 61.5s-62 93.5 -62 157.5z
M190.001 236.999c0 -36.667 9.5 -65.001 28.5 -85.001s46.833 -30 83.5 -30c36 0 69 16.333 99 49s45 74.334 45 125.001c0 30 -9 55 -27 75s-43.667 30 -77 30c-38.667 0 -73.667 -15.5 -105 -46.5s-47 -70.167 -47 -117.5zM588.001 741.998l-149 -149l-94 79l141 162z" />
    <glyph glyph-name="afii10085.var.accented" unicode="&#x443;`" horiz-adv-x="526" 
d="M4 -185l73.9961 119c6.66699 -5.33301 13.334 -8 20.001 -8c9.33301 0 20.333 6 33 18s24.667 28.333 36 49l30 56l-148 471h150l89 -319l172 319h151l-283 -496c-49.333 -86 -91.666 -146.333 -126.999 -181s-73.666 -52 -114.999 -52c-35.333 0 -62.666 8 -81.999 24z
M544.996 742l-149 -149l-94 79l141 162z" />
    <glyph glyph-name="afii10093.var.accented" unicode="&#x44b;`" horiz-adv-x="684" 
d="M24 0l96 520h138l-28 -143h63c65.333 0 113 -12 143 -36s45 -62 45 -114c0 -69.333 -23 -124.5 -69 -165.5s-110.667 -61.5 -194 -61.5h-194zM262 247h-55l-22 -117h55c30 0 53.5 6.33301 70.5 19s25.5 30 25.5 52c0 16 -5.33301 27.667 -16 35s-30 11 -58 11zM475 0
l96 520h137l-96 -520h-137zM637 742l-149 -149l-94 79l141 162z" />
    <glyph glyph-name="afii10095.var.accented" unicode="&#x44d;`" horiz-adv-x="542" 
d="M180 207l23.001 117h203c-2.66699 25.333 -15.167 44.5 -37.5 57.5s-50.166 19.5 -83.499 19.5c-22.667 0 -47 -5.33301 -73 -16s-49 -28 -69 -52l-87 81c68 78 152 117 252 117c77.333 0 136.333 -20.5 177 -61.5s61 -93.5 61 -157.5c0 -98 -29.667 -175.833 -89 -233.5
s-137.333 -86.5 -234 -86.5c-46.667 0 -90.334 10 -131.001 30s-70.334 50.667 -89.001 92l106 68c25.333 -40 69.333 -60 132 -60c34.667 0 65.5 7.83301 92.5 23.5s44.5 36.167 52.5 61.5h-206zM536.001 742l-149 -149l-94 79l141 162z" />
    <glyph glyph-name="afii10096.var.accented" unicode="&#x44e;`" horiz-adv-x="776" 
d="M24 0l96 520.001h138l-35 -190h58c22 62 58.167 111 108.5 147s105.833 54 166.5 54c73.333 0 129 -19.333 167 -58s57 -89 57 -151c0 -106.667 -28.833 -188.334 -86.5 -245.001s-127.167 -85 -208.5 -85c-70 0 -125.167 19 -165.5 57s-60.833 89 -61.5 153h-59
l-37 -202h-138zM400 223.001c0 -29.333 8.83301 -53.5 26.5 -72.5s42.167 -28.5 73.5 -28.5c36.667 0 68.334 16 95.001 48s40 73.333 40 124c0 71.333 -31.333 107 -94 107c-36.667 0 -69.334 -16.833 -98.001 -50.5s-43 -76.167 -43 -127.5zM755 742.001l-149 -149l-94 79
l141 162z" />
    <glyph glyph-name="afii10097.var.accented" unicode="&#x44f;`" horiz-adv-x="516" 
d="M331 520l209 0.00292969l-96 -520h-137l30 162h-54l-136 -162h-163l159 182c-24.667 11.333 -43.167 28.666 -55.5 51.999s-18.5 48.666 -18.5 75.999c0 61.333 21 111.666 63 150.999s108.333 59 199 59zM215 331.003c0 -29.333 19.668 -44 59.001 -44h85l20 103h-80
c-26.667 0 -47.334 -5.33301 -62.001 -16s-22 -25 -22 -43zM577.001 742.003l-149 -149l-94 79l141 162z" />
    <glyph glyph-name="afii10071.var.accented" unicode="&#x451;`" 
d="M442 177l78.999 -83.999c-32 -38 -68.167 -64.5 -108.5 -79.5s-86.166 -22.5 -137.499 -22.5c-67.333 0 -122.5 20.833 -165.5 62.5s-64.5 95.834 -64.5 162.501c0 92 29.667 167.833 89 227.5s133.666 89.5 222.999 89.5c62.667 0 111 -13 145 -39s51 -64.667 51 -116
c0 -46.667 -17.5 -85.834 -52.5 -117.501s-79.667 -52.834 -134 -63.501s-111.833 -11.667 -172.5 -3c12.667 -48.667 48.334 -73 107.001 -73c54.667 0 101.667 18.667 141 56zM527.999 745.001l-120 -158l-60 30l63 177zM187.999 659.001c0 20 7.16699 37.167 21.5 51.5
s32.166 21.5 53.499 21.5s39.5 -7.16699 54.5 -21.5s22.5 -31.5 22.5 -51.5s-7.5 -36.833 -22.5 -50.5s-33.167 -20.5 -54.5 -20.5s-39.166 6.66699 -53.499 20s-21.5 30.333 -21.5 51zM496.999 659.001c0 20 7.16699 37.167 21.5 51.5s32.166 21.5 53.499 21.5
s39.5 -7.16699 54.5 -21.5s22.5 -31.5 22.5 -51.5s-7.5 -36.833 -22.5 -50.5s-33.167 -20.5 -54.5 -20.5s-39.166 6.66699 -53.499 20s-21.5 30.333 -21.5 51zM350.999 403.001c-31.333 0 -60 -8.16699 -86 -24.5s-45.333 -38.5 -58 -66.5c60 -3.33301 108.5 0 145.5 10
s55.5 23.667 55.5 41c0 26.667 -19 40 -57 40z" />
    <glyph glyph-name="fi" unicode="fi" horiz-adv-x="530" 
d="M41 385l24.9971 135h69l2 10c12.667 70.667 38.834 123 78.501 157s85.834 51 138.501 51c26.667 0 45.334 -3.66699 56.001 -11l-51 -130c-6 4 -13 6 -21 6c-34.667 0 -56 -24.333 -64 -73l-2 -10h105l-26 -135h-104l-70 -385h-138l70 385h-68zM313.997 0l96 520h138
l-96 -520h-138zM424.997 659c0 20 7.16699 37.167 21.5 51.5s32.166 21.5 53.499 21.5s39.5 -7.16699 54.5 -21.5s22.5 -31.5 22.5 -51.5s-7.5 -36.833 -22.5 -50.5s-33.167 -20.5 -54.5 -20.5s-39.166 6.66699 -53.499 20s-21.5 30.333 -21.5 51z" />
    <glyph glyph-name="fl" unicode="fl" horiz-adv-x="516" 
d="M331 0l109.001 583.999c-14 16 -30 24 -48 24c-18.667 0 -34.834 -7.16699 -48.501 -21.5s-22.834 -33.166 -27.501 -56.499l-2 -10h69l-26 -132h-68l-67 -388h-138l68 388h-72l26 132h72l1 10c6 60.667 29 110.5 69 149.5s91.667 58.5 155 58.5
c46.667 0 83.334 -10.667 110.001 -32l92 32l-138 -738h-136z" />
    <glyph glyph-name=".notdef" horiz-adv-x="236" 
 />
    <glyph glyph-name="space" unicode=" " horiz-adv-x="236" 
 />
    <glyph glyph-name="exclam" unicode="!" horiz-adv-x="309" 
d="M93 197l98 503h151l-98 -503h-151zM55 75c0 19.333 8.16699 36.668 24.5 52.001s36.833 23 61.5 23c22.667 0 42.167 -7.83301 58.5 -23.5s24.5 -32.834 24.5 -51.501c0 -20.667 -8 -38.667 -24 -54s-35.667 -23 -59 -23c-25.333 0 -46 7.66699 -62 23s-24 33.333 -24 54
z" />
    <glyph glyph-name="quotedbl" unicode="&#x22;" horiz-adv-x="460" 
d="M310 432l52 268h149l-52 -268h-149zM119 432l52 268h149l-52 -268h-149z" />
    <glyph glyph-name="numbersign" unicode="#" horiz-adv-x="717" 
d="M325 21l60.001 161h-78l-75 -203l-133 42l60 161h-68v126h115l32 84h-147v126h193l76 203l132 -42l-60 -161h78l74 203l133 -41l-61 -162h72v-126h-118c-2.66699 -7.33301 -13.334 -35.333 -32.001 -84h150v-126h-196l-74 -203zM385.001 392l-32 -84h79l30 84h-77z" />
    <glyph glyph-name="dollar" unicode="$" horiz-adv-x="605" 
d="M511 779l-13.998 -73.9971c65.333 -16 119.333 -52 162 -108l-102 -97c-52.667 47.333 -108.334 71 -167.001 71c-76 0 -114 -21 -114 -63c0 -15.333 8 -29 24 -41s36 -21.5 60 -28.5s50 -16.333 78 -28s54 -24.5 78 -38.5s44 -34.5 60 -61.5s24 -58.5 24 -94.5
c0 -64 -23 -116.333 -69 -157s-104 -65 -174 -73l-14 -74h-149l15 85c-88 24.667 -149.333 76.334 -184 155.001l114 89c19.333 -34 44.666 -61.167 75.999 -81.5s66.333 -30.5 105 -30.5c40.667 0 70.667 7 90 21s29 31.333 29 52c0 21.333 -11.167 39.166 -33.5 53.499
s-49.333 26.666 -81 36.999s-63.334 22.166 -95.001 35.499s-58.667 33.666 -81 60.999s-33.5 61 -33.5 101c0 62 21.833 112.667 65.5 152s99.834 63 168.501 71l13 66h149z" />
    <glyph glyph-name="percent" unicode="%" horiz-adv-x="937" 
d="M172 42l512 693l111 -81l-506 -680zM45 517c0 54.667 19.333 99.334 58 134.001s86.667 52 144 52c58 0 106.167 -17.333 144.5 -52s57.5 -79.334 57.5 -134.001c0 -54 -19.167 -98.333 -57.5 -133s-86.5 -52 -144.5 -52c-57.333 0 -105.333 17.5 -144 52.5
s-58 79.167 -58 132.5zM191 517c0 -18.667 5.5 -33.667 16.5 -45s24.167 -17 39.5 -17c16 0 29.333 5.66699 40 17s16 26.333 16 45s-5.5 33.667 -16.5 45s-24.167 17 -39.5 17s-28.5 -5.66699 -39.5 -17s-16.5 -26.333 -16.5 -45zM518 182
c0 54.667 19.167 99.167 57.5 133.5s86.5 51.5 144.5 51.5s106.167 -17.167 144.5 -51.5s57.5 -78.833 57.5 -133.5c0 -54 -19.333 -98.5 -58 -133.5s-86.667 -52.5 -144 -52.5c-58 0 -106.167 17.5 -144.5 52.5s-57.5 79.5 -57.5 133.5zM664 182
c0 -18.667 5.5 -33.667 16.5 -45s24.167 -17 39.5 -17s28.5 5.66699 39.5 17s16.5 26.333 16.5 45s-5.5 33.667 -16.5 45s-24.167 17 -39.5 17s-28.5 -5.66699 -39.5 -17s-16.5 -26.333 -16.5 -45z" />
    <glyph glyph-name="ampersand" unicode="&#x26;" horiz-adv-x="773" 
d="M759 0l-179.999 0.000976562c-20.667 19.333 -41.334 41 -62.001 65c-28 -21.333 -62.667 -39 -104 -53s-81.666 -21 -120.999 -21c-81.333 0 -144.5 16.167 -189.5 48.5s-67.5 81.166 -67.5 146.499c0 29.333 5.83301 56.166 17.5 80.499s29.5 46.333 53.5 66
s47.667 36.334 71 50.001s53 28.834 89 45.501c-23.333 34.667 -35 73 -35 115c0 44.667 18.833 83.5 56.5 116.5s90.167 49.5 157.5 49.5c56.667 0 98.5 -11.5 125.5 -34.5s40.5 -54.833 40.5 -95.5c0 -72.667 -49.333 -136 -148 -190c23.333 -38 49.666 -77 78.999 -117
c54 51.333 91 127.333 111 228h142c-23.333 -152 -81.333 -269 -174 -351c36 -44.667 82 -94.334 138 -149.001zM302.001 131.001c50 0 93 14.999 129 44.999c-39.333 52.667 -73 101.667 -101 147c-51.333 -27.333 -83.333 -46.666 -96 -57.999
c-18.667 -17.333 -28 -37.333 -28 -60c0 -27.333 10 -46.5 30 -57.5s42 -16.5 66 -16.5zM386.001 543c0 -15.333 4.66699 -29.667 14 -43c29.333 16 44 35 44 57c0 14.667 -7 22 -21 22c-24.667 0 -37 -12 -37 -36z" />
    <glyph glyph-name="quotesingle" unicode="'" horiz-adv-x="269" 
d="M119 432l52 268h149l-52 -268h-149z" />
    <glyph glyph-name="parenleft" unicode="(" horiz-adv-x="371" 
d="M301 -122l-111 -78c-44 45.333 -79 101.666 -105 168.999s-39 136.333 -39 207c0 208.667 107.333 394.667 322 558l92 -87c-175.333 -139.333 -263 -288.333 -263 -447c0 -119.333 34.667 -226.666 104 -321.999z" />
    <glyph glyph-name="parenright" unicode=")" horiz-adv-x="369" 
d="M122 656l111 78.002c44 -45.333 79 -101.666 105 -168.999s39 -136.333 39 -207c0 -208.667 -107.333 -394.667 -322 -558l-92 88c84 73.333 148.833 145.666 194.5 216.999s68.5 147.666 68.5 228.999c0 119.333 -34.667 226.666 -104 321.999z" />
    <glyph glyph-name="asterisk" unicode="*" horiz-adv-x="499" 
d="M396 700l-4 -109l108 39l41 -135l-109 -30l71 -89l-121 -87l-60 87l-60 -89l-122 87l71 91l-109 31l41 135l111 -39l-3 108h145z" />
    <glyph glyph-name="plus" unicode="+" horiz-adv-x="605" 
d="M95 294v130h174v173h135v-173h176v-130h-176v-175h-135v175h-174z" />
    <glyph glyph-name="comma" unicode="," horiz-adv-x="264" 
d="M70 -5c-13.333 5.33301 -24.333 14.499 -33 27.499s-13 27.833 -13 44.5c0 28.667 9.5 51.834 28.5 69.501s42.833 26.5 71.5 26.5c59.333 0 89 -34 89 -102c0 -52.667 -20 -99 -60 -139s-89 -63.667 -147 -71l-23 87c46.667 9.33301 75.667 28.333 87 57z" />
    <glyph glyph-name="hyphen" unicode="-" horiz-adv-x="424" 
d="M78 217v130h304v-130h-304z" />
    <glyph glyph-name="period" unicode="." horiz-adv-x="286" 
d="M42 81c0 22 8.83301 41.6689 26.5 59.002s40.167 26 67.5 26c25.333 0 47 -8.83301 65 -26.5s27 -37.167 27 -58.5c0 -22.667 -9 -42.834 -27 -60.501s-39.667 -26.5 -65 -26.5c-27.333 0 -49.833 8.66699 -67.5 26s-26.5 37.666 -26.5 60.999z" />
    <glyph glyph-name="slash" unicode="/" horiz-adv-x="377" 
d="M-7 -150l324 871l133 -42l-326 -879z" />
    <glyph glyph-name="zero" unicode="0" horiz-adv-x="679" 
d="M63 267c0 60 8.00195 116.331 24.002 168.998s39.167 99.334 69.5 140.001s69.666 72.667 117.999 96s103.166 35 164.499 35c86.667 0 152.167 -25.167 196.5 -75.5s66.5 -117.166 66.5 -200.499c0 -55.333 -7.5 -108.5 -22.5 -159.5s-37 -97.5 -66 -139.5
s-67.833 -75.667 -116.5 -101s-104 -38 -166 -38c-88.667 0 -155.5 25.167 -200.5 75.5s-67.5 116.5 -67.5 198.5zM223.002 291.998c0 -43.333 10.166 -79 30.499 -107s52.833 -42 97.5 -42c63.333 0 111 25 143 75s48 115 48 195c0 96 -42.333 144 -127 144
c-55.333 0 -101.166 -24.333 -137.499 -73s-54.5 -112.667 -54.5 -192z" />
    <glyph glyph-name="one" unicode="1" horiz-adv-x="398" 
d="M89 585l252 115h98l-136 -700h-150l99 505l-132 -55z" />
    <glyph glyph-name="two" unicode="2" horiz-adv-x="594" 
d="M216 445l-125.001 50.999c24 64.667 61.5 116 112.5 154s115.5 57 193.5 57c80.667 0 140.834 -18.667 180.501 -56s59.5 -88.666 59.5 -153.999c0 -64 -22.5 -122 -67.5 -174s-108.833 -101.333 -191.5 -148l-53 -30h249l-28 -145h-541l22 113l94 58
c17.333 10.667 41 25.167 71 43.5s52.833 32.333 68.5 42s35.334 22.167 59.001 37.5s41.834 27.833 54.501 37.5s26.667 21.5 42 35.5s26.666 26.5 33.999 37.5s13.666 23.333 18.999 37s8 27.167 8 40.5c0 24 -9.5 42.5 -28.5 55.5s-42.167 19.5 -69.5 19.5
c-38.667 0 -70.5 -9.33301 -95.5 -28s-47.5 -46.667 -67.5 -84z" />
    <glyph glyph-name="three" unicode="3" horiz-adv-x="621" 
d="M218 472l-118.001 60c58.667 118 160.667 177 306 177c78.667 0 138.667 -14.5 180 -43.5s62 -71.167 62 -126.5c0 -36 -10.667 -68.833 -32 -98.5s-52.333 -52.167 -93 -67.5c59.333 -20.667 89 -67 89 -139c0 -72.667 -29 -131.167 -87 -175.5s-131 -66.5 -219 -66.5
c-70 0 -130.5 14.167 -181.5 42.5s-82.833 76.166 -95.5 143.499l140 58c4 -29.333 18.333 -53.166 43 -71.499s57 -27.5 97 -27.5c95.333 0 143 30.333 143 91c0 40 -34.333 60 -103 60h-102l27 140h82c40.667 0 72.834 6.83301 96.501 20.5s35.5 32.5 35.5 56.5
c0 39.333 -32 59 -96 59c-81.333 0 -139.333 -30.667 -174 -92z" />
    <glyph glyph-name="four" unicode="4" horiz-adv-x="643" 
d="M351 0l24 122h-371l19 100l490 478h124l-86 -443h107l-26 -135h-107l-24 -122h-150zM241 257h160l36 182z" />
    <glyph glyph-name="five" unicode="5" horiz-adv-x="629" 
d="M106 346l105.999 353.999h468l-28 -145h-336l-34 -108c12 5.33301 30.667 10 56 14s46 6 62 6c77.333 0 135.833 -17.833 175.5 -53.5s59.5 -86.5 59.5 -152.5c0 -82.667 -30.5 -148.167 -91.5 -196.5s-136.833 -72.5 -227.5 -72.5c-70 0 -131 16.333 -183 49
s-82.333 78.334 -91 137.001l138 55c6.66699 -27.333 23.667 -49.333 51 -66s61.666 -25 102.999 -25c44.667 0 79.334 9.5 104.001 28.5s37 44.5 37 76.5c0 53.333 -39 80 -117 80c-34 0 -62.167 -3.33301 -84.5 -10s-47.166 -17.667 -74.499 -33z" />
    <glyph glyph-name="six" unicode="6" horiz-adv-x="648" 
d="M60 258c0 136.667 36.833 245.999 110.5 327.999s168.5 123 284.5 123c103.333 0 181 -36 233 -108l-101 -102c-40.667 43.333 -88.334 65 -143.001 65c-54 0 -100.167 -15.667 -138.5 -47s-62.5 -72.666 -72.5 -123.999c22.667 24.667 52 45.5 88 62.5s75 25.5 117 25.5
c70.667 0 124.834 -18.5 162.501 -55.5s56.5 -85.5 56.5 -145.5c0 -83.333 -29.167 -152.333 -87.5 -207s-135.833 -82 -232.5 -82c-83.333 0 -150.333 23.5 -201 70.5s-76 112.5 -76 196.5zM230 249.999c-4.66699 -32 4.50098 -59 27.501 -81s56.167 -33 99.5 -33
c38 0 70.833 11 98.5 33s41.5 51 41.5 87c0 56.667 -35 85 -105 85c-36 0 -69.333 -9.66699 -100 -29s-51.334 -40 -62.001 -62z" />
    <glyph glyph-name="seven" unicode="7" horiz-adv-x="570" 
d="M93 555l28 145h550l-19 -97l-420 -603h-175l388 555h-352z" />
    <glyph glyph-name="eight" unicode="8" horiz-adv-x="668" 
d="M378 424h28c34.667 0 64.667 7.16699 90 21.5s38 33.5 38 57.5c0 43.333 -38.667 65 -116 65c-91.333 0 -137 -26.333 -137 -79c0 -19.333 8.5 -35 25.5 -47s40.833 -18 71.5 -18zM379 294h-23c-48.667 0 -85.834 -8.66699 -111.501 -26s-38.5 -39 -38.5 -65
c0 -47.333 45 -71 135 -71c48.667 0 87.834 8.16699 117.501 24.5s44.5 38.833 44.5 67.5c0 22 -10.833 39.167 -32.5 51.5s-52.167 18.5 -91.5 18.5zM328 -8c-86 0 -154.668 16 -206.001 48s-77 80.667 -77 146c0 42 12.167 78.833 36.5 110.5s56.166 55.5 95.499 71.5
c-37.333 30 -56 68.333 -56 115c0 72 29.333 127.5 88 166.5s132.334 58.5 221.001 58.5c176 0 264 -61.667 264 -185c0 -34 -9.66699 -64.833 -29 -92.5s-46.666 -48.834 -81.999 -63.501c53.333 -29.333 80 -74.666 80 -135.999c0 -52.667 -16 -97.5 -48 -134.5
s-72.667 -63.667 -122 -80s-104.333 -24.5 -165 -24.5z" />
    <glyph glyph-name="nine" unicode="9" horiz-adv-x="668" 
d="M694 443c0 -136 -34.833 -245.332 -104.5 -327.999s-167.5 -124 -293.5 -124c-56 0 -106.667 10.167 -152 30.5s-79.333 47.166 -102 80.499l99 101c49.333 -44.667 103.333 -67 162 -67c60 0 108.333 15 145 45s58.667 65.333 66 106
c-46.667 -45.333 -107.667 -68 -183 -68c-78 0 -139.5 18.833 -184.5 56.5s-67.5 90.167 -67.5 157.5c0 76 31.5 141 94.5 195s143.833 81 242.5 81c88 0 156.333 -23 205 -69s73 -111.667 73 -197zM523 430.001c6.66699 37.333 -0.666992 68.999 -22 94.999
s-55.333 39 -102 39c-46 0 -84.167 -10.667 -114.5 -32s-45.5 -50.666 -45.5 -87.999c0 -27.333 11 -48.333 33 -63s50.333 -22 85 -22c38.667 0 73.5 7 104.5 21s51.5 30.667 61.5 50z" />
    <glyph glyph-name="colon" unicode=":" horiz-adv-x="289" 
d="M120 445c0 19.333 8.16699 36.5 24.5 51.5s36.833 22.5 61.5 22.5c22.667 0 42.167 -7.66699 58.5 -23s24.5 -32.333 24.5 -51c0 -20.667 -8 -38.667 -24 -54s-35.667 -23 -59 -23c-25.333 0 -46 7.5 -62 22.5s-24 33.167 -24 54.5zM47 75
c0 19.333 8.16699 36.668 24.5 52.001s36.833 23 61.5 23c22.667 0 42.167 -7.83301 58.5 -23.5s24.5 -32.834 24.5 -51.501c0 -20.667 -8 -38.667 -24 -54s-35.667 -23 -59 -23c-25.333 0 -46 7.66699 -62 23s-24 33.333 -24 54z" />
    <glyph glyph-name="semicolon" unicode=";" horiz-adv-x="288" 
d="M88 -5c-12 5.33301 -22 14.168 -30 26.501s-12 25.5 -12 39.5c0 25.333 8.5 45.833 25.5 61.5s37.833 23.5 62.5 23.5c26.667 0 47 -8 61 -24s21 -37.333 21 -64c0 -53.333 -18.167 -97.833 -54.5 -133.5s-82.833 -56.834 -139.5 -63.501l-17 85c17.333 2 34 7 50 15
s27 19.333 33 34zM116 445.002c0 19.333 8.16699 36.5 24.5 51.5s36.833 22.5 61.5 22.5c22.667 0 42.167 -7.66699 58.5 -23s24.5 -32.333 24.5 -51c0 -20.667 -8 -38.667 -24 -54s-35.667 -23 -59 -23c-25.333 0 -46 7.5 -62 22.5s-24 33.167 -24 54.5z" />
    <glyph glyph-name="less" unicode="&#x3c;" horiz-adv-x="540" 
d="M530 35l-470 296v61l470 292v-156l-269 -168l269 -168v-157z" />
    <glyph glyph-name="equal" unicode="=" horiz-adv-x="575" 
d="M103 391v126h455v-126h-455zM103 200v126h455v-126h-455z" />
    <glyph glyph-name="greater" unicode="&#x3e;" horiz-adv-x="540" 
d="M572 331l-470 -296v157l271 168l-271 168v156l470 -292v-61z" />
    <glyph glyph-name="question" unicode="?" horiz-adv-x="625" 
d="M506 497c0 17.333 -9.00293 31.834 -27.0029 43.501s-44 17.5 -78 17.5c-76.667 0 -131.667 -31 -165 -93l-131 49c24.667 60 63.834 107.333 117.501 142s118.834 52 195.501 52c78.667 0 140.834 -16.167 186.501 -48.5s68.5 -77.166 68.5 -134.499
c0 -36.667 -7 -68.667 -21 -96s-31.5 -48 -52.5 -62s-44 -27 -69 -39s-48.333 -21.5 -70 -28.5s-40.334 -16.333 -56.001 -28s-24.5 -24.834 -26.5 -39.501c-0.666992 -5.33301 -1.16699 -11.5 -1.5 -18.5s-0.833008 -12.5 -1.5 -16.5l-141 -2c-0.666992 4 -1 12.667 -1 26
c0 37.333 9.33301 68.833 28 94.5s41.5 45 68.5 58s53.833 24.667 80.5 35s49.334 22.666 68.001 36.999s28 31.5 28 51.5zM193.997 75.001c0 19.333 8.16699 36.668 24.5 52.001s36.833 23 61.5 23c22.667 0 42.167 -7.83301 58.5 -23.5s24.5 -32.834 24.5 -51.501
c0 -20.667 -8 -38.667 -24 -54s-35.667 -23 -59 -23c-25.333 0 -46 7.66699 -62 23s-24 33.333 -24 54z" />
    <glyph glyph-name="at" unicode="@" horiz-adv-x="948" 
d="M529 0l4.00098 24.001c-32 -21.333 -69.333 -32 -112 -32c-55.333 0 -100.166 18.167 -134.499 54.5s-51.5 83.833 -51.5 142.5c0 80.667 29.667 150.834 89 210.501s134.666 89.5 225.999 89.5c86.667 0 155.334 -22 206.001 -66l-56 -287
c34.667 6.66699 60.667 28 78 64s26 80.667 26 134c0 65.333 -21.833 115.333 -65.5 150s-102.834 52 -177.501 52c-98.667 0 -184.334 -33.167 -257.001 -99.5s-109 -148.833 -109 -247.5c0 -81.333 22.333 -142.333 67 -183s106 -61 184 -61c52.667 0 102 7.66699 148 23
l-15 -131c-49.333 -14.667 -98.333 -22 -147 -22c-122.667 0 -216.667 33.167 -282 99.5s-98 154.5 -98 264.5c0 64 12.833 125.667 38.5 185s61 111.166 106 155.499s100 79.833 165 106.5s134.833 40 209.5 40c118.667 0 211 -28.333 277 -85s99 -136.334 99 -239.001
c0 -100 -26.833 -182 -80.5 -246s-128.167 -96 -223.5 -96h-114zM461.001 122.001c42.667 0 76.333 17.001 101 51.001l33 169c-12.667 11.333 -33 17 -61 17c-39.333 0 -73.5 -14.5 -102.5 -43.5s-43.5 -64.5 -43.5 -106.5c0 -26.667 6.83301 -47.834 20.5 -63.501
s31.167 -23.5 52.5 -23.5z" />
    <glyph glyph-name="A" unicode="A" horiz-adv-x="721" 
d="M-29 0l443 700h115l171 -700h-155l-32 130h-288l-82 -130h-172zM433 465l-128 -204h177z" />
    <glyph glyph-name="B" unicode="B" horiz-adv-x="678" 
d="M40 0l135.999 700h313c75.333 0 129.5 -14.167 162.5 -42.5s49.5 -71.833 49.5 -130.5c0 -34.667 -9.66699 -65.667 -29 -93s-43.666 -48.333 -72.999 -63c43.333 -24.667 65 -68.667 65 -132c0 -159.333 -106.333 -239 -319 -239h-305zM392.999 287h-142l-28 -142h134
c50 0 86.833 6.83301 110.5 20.5s35.5 35.5 35.5 65.5c0 21.333 -9.33301 36 -28 44s-46 12 -82 12zM444.999 555h-142l-25 -128h155c34.667 0 61.167 6.5 79.5 19.5s27.5 31.5 27.5 55.5c0 18 -7.16699 31.333 -21.5 40s-38.833 13 -73.5 13z" />
    <glyph glyph-name="C" unicode="C" horiz-adv-x="706" 
d="M621 226l91.998 -97c-30.667 -44.667 -71.667 -79.334 -123 -104.001s-110.666 -37 -177.999 -37c-36 0 -70.5 3.66699 -103.5 11s-64.333 19.333 -94 36s-55.5 37.334 -77.5 62.001s-39.5 55.167 -52.5 91.5s-19.5 76.833 -19.5 121.5
c0 113.333 39.333 208.666 118 285.999s180 116 304 116c124.667 0 214.334 -45.333 269.001 -136l-112 -89c-40 50 -95.667 75 -167 75c-74 0 -134.333 -23.167 -181 -69.5s-70 -103.166 -70 -170.499c0 -54 17.667 -98.167 53 -132.5s82 -51.5 140 -51.5
c84.667 0 152 29.333 202 88z" />
    <glyph glyph-name="D" unicode="D" horiz-adv-x="720" 
d="M40 0l136 700h222c120 0 207.5 -25.667 262.5 -77s82.5 -120.333 82.5 -207c0 -137.333 -43.833 -241 -131.5 -311s-209.167 -105 -364.5 -105h-207zM368 555h-65l-80 -410h65c96 0 169.167 21.667 219.5 65s75.5 107 75.5 191c0 55.333 -18 94.833 -54 118.5
s-89.667 35.5 -161 35.5z" />
    <glyph glyph-name="E" unicode="E" horiz-adv-x="649" 
d="M40 0l136 700h535l-28 -145h-380l-25 -130h355l-28 -140h-355l-27 -140h389l-28 -145h-544z" />
    <glyph glyph-name="F" unicode="F" horiz-adv-x="620" 
d="M40 0l136 700h530l-28 -145h-375l-30 -153h350l-28 -145h-350l-50 -257h-155z" />
    <glyph glyph-name="G" unicode="G" horiz-adv-x="731" 
d="M389 252l27.002 139.999h326l-54 -299c-39.333 -35.333 -84.5 -61.666 -135.5 -78.999s-101.5 -26 -151.5 -26c-104.667 0 -186.834 28.833 -246.501 86.5s-89.5 132.5 -89.5 224.5c0 117.333 39.667 215.5 119 294.5s181.666 118.5 306.999 118.5
c122.667 0 210.334 -44.667 263.001 -134l-116 -88c-36 48 -88 72 -156 72c-74 0 -135.167 -22.667 -183.5 -68s-72.5 -102.333 -72.5 -171c0 -54 17.167 -98.333 51.5 -133s79.166 -52 134.499 -52c56.667 0 103 13.333 139 40l15 74h-177z" />
    <glyph glyph-name="H" unicode="H" horiz-adv-x="751" 
d="M506 0l54 280h-311l-54 -280h-155l136 700h155l-53 -275h311l53 275h155l-136 -700h-155z" />
    <glyph glyph-name="I" unicode="I" horiz-adv-x="295" 
d="M45 0l136 700h155l-136 -700h-155z" />
    <glyph glyph-name="J" unicode="J" horiz-adv-x="486" 
d="M537 700l-93 -480.999c-30.667 -154 -113.667 -231 -249 -231c-104 0 -171.667 45.333 -203 136l117 78c13.333 -24.667 27 -42.334 41 -53.001s31 -16 51 -16c25.333 0 45.333 9.5 60 28.5s26 48.167 34 87.5l88 451h154z" />
    <glyph glyph-name="K" unicode="K" horiz-adv-x="701" 
d="M40 0l136 700h155l-54 -277l309 277h216l-356 -323l240 -377h-185l-181 283l-82 -67l-43 -216h-155z" />
    <glyph glyph-name="L" unicode="L" horiz-adv-x="618" 
d="M40 0l136 700h155l-108 -555h378l-28 -145h-533z" />
    <glyph glyph-name="M" unicode="M" horiz-adv-x="851" 
d="M40 0l136 700h132l159 -332l274 332h156l-136 -700h-155l82 420l-237 -279h-41l-133 282l-82 -423h-155z" />
    <glyph glyph-name="N" unicode="N" horiz-adv-x="740" 
d="M650 0h-120l-255 430l-84 -430h-151l136 700h119l257 -430l83 430h151z" />
    <glyph glyph-name="O" unicode="O" horiz-adv-x="781" 
d="M66 298c0 36 5.66895 73.002 17.002 111.002s28.666 75.167 51.999 111.5s51.166 68.666 83.499 96.999s71.5 51.166 117.5 68.499s95.333 26 148 26c96.667 0 173.667 -28.5 231 -85.5s86 -131.5 86 -223.5c0 -120.667 -40 -220 -120 -298s-178.667 -117 -296 -117
c-95.333 0 -172.333 29.167 -231 87.5s-88 132.5 -88 222.5zM227.002 311.002c0 -52.667 16.332 -94.666 48.999 -125.999s74.667 -47 126 -47c67.333 0 123.833 24.667 169.5 74s68.5 108 68.5 176c0 49.333 -15.5 90.666 -46.5 123.999s-73.167 50 -126.5 50
c-67.333 0 -124.166 -24.5 -170.499 -73.5s-69.5 -108.167 -69.5 -177.5z" />
    <glyph glyph-name="P" unicode="P" horiz-adv-x="677" 
d="M195 0h-155l136 700h290c170.667 0 256 -70.333 256 -211c0 -87.333 -32.5 -154 -97.5 -200s-148.833 -69 -251.5 -69h-135zM442 555h-139.001l-37 -190h133c54.667 0 95.334 10 122.001 30s40 47.667 40 83c0 51.333 -39.667 77 -119 77z" />
    <glyph glyph-name="Q" unicode="Q" horiz-adv-x="781" 
d="M65 295c0 71.333 17.001 138.663 51.001 201.996s83.5 115 148.5 155s138.167 60 219.5 60c54 0 101.833 -8.66699 143.5 -26s75 -40.666 100 -69.999s43.667 -61.666 56 -96.999s18.5 -72.666 18.5 -111.999c0 -123.333 -45.333 -224.666 -136 -303.999l46 -74l-125 -87
l-49 79c-50.667 -22 -103 -33 -157 -33c-39.333 0 -77.333 6.5 -114 19.5s-70.334 31.667 -101.001 56s-55.167 56.5 -73.5 96.5s-27.5 85 -27.5 135zM229.001 307.997c0 -52 15 -93.333 45 -124s69.667 -46 119 -46c33.333 0 58.666 3.33301 75.999 10l-43 64l114 83
l44 -68c36 43.333 54 98.333 54 165c0 46 -13.333 85.833 -40 119.5s-67.667 50.5 -123 50.5c-40.667 0 -77.167 -7.83301 -109.5 -23.5s-58.166 -36.167 -77.499 -61.5s-34 -52.5 -44 -81.5s-15 -58.167 -15 -87.5z" />
    <glyph glyph-name="R" unicode="R" horiz-adv-x="689" 
d="M195 0l-155 -0.000976562l136 700h283c162.667 0 244 -65.333 244 -196c0 -58 -17 -107.167 -51 -147.5s-77.667 -70.166 -131 -89.499l143 -267h-180l-125 239h-118zM428 554.999l-125.002 0.000976562l-33 -171h131c42.667 0 76.834 9 102.501 27s38.5 42 38.5 72
c0 25.333 -8.66699 43.666 -26 54.999s-46.666 17 -87.999 17z" />
    <glyph glyph-name="S" unicode="S" horiz-adv-x="619" 
d="M439 202c0 21.333 -11.166 39.1709 -33.499 53.5039s-49.333 26.666 -81 36.999s-63.334 22.166 -95.001 35.499s-58.667 33.666 -81 60.999s-33.5 61 -33.5 101c0 69.333 27.167 124.333 81.5 165s121.833 61 202.5 61c112.667 0 199.334 -39.667 260.001 -119l-102 -97
c-52.667 47.333 -108.334 71 -167.001 71c-76 0 -114 -21 -114 -63c0 -15.333 8 -29 24 -41s36 -21.5 60 -28.5s50 -16.333 78 -28s54 -24.5 78 -38.5s44 -34.5 60 -61.5s24 -58.5 24 -94.5c0 -70.667 -28 -127 -84 -169s-123.667 -63 -203 -63
c-72 0 -132.667 15.667 -182 47s-84.666 71.666 -105.999 120.999l114 89c19.333 -34 44.666 -61.167 75.999 -81.5s66.333 -30.5 105 -30.5c40.667 0 70.667 7 90 21s29 31.333 29 52z" />
    <glyph glyph-name="T" unicode="T" horiz-adv-x="604" 
d="M83 555l28 145h604l-28 -145h-225l-108 -555h-155l108 555h-224z" />
    <glyph glyph-name="U" unicode="U" horiz-adv-x="720" 
d="M776 700l-78 -399.999c-19.333 -96 -57.833 -171.167 -115.5 -225.5s-133.167 -81.5 -226.5 -81.5c-82 0 -148.167 20.667 -198.5 62s-75.5 100.666 -75.5 177.999c0 24.667 2.33301 49 7 73l77 394h155l-73 -376c-4 -21.333 -6 -40.333 -6 -57
c0 -86 42.667 -129 128 -129c94 0 153 60.667 177 182l74 380h155z" />
    <glyph glyph-name="V" unicode="V" horiz-adv-x="730" 
d="M851 700l-449 -700h-108l-193 700h162l123 -458l286 458h179z" />
    <glyph glyph-name="W" unicode="W" horiz-adv-x="971" 
d="M1083 700l-345 -700h-125l-67 424l-233 -424h-120l-82 700h153l47 -421l228 421h116l62 -419l203 419h163z" />
    <glyph glyph-name="X" unicode="X" horiz-adv-x="707" 
d="M812 700l-326 -357l184 -343h-177l-115 221l-200 -221h-203l328 362l-181 338h177l112 -217l198 217h203z" />
    <glyph glyph-name="Y" unicode="Y" horiz-adv-x="700" 
d="M821 700l-371 -449l-49 -251h-155l49 251l-194 449h174l120 -276l229 276h197z" />
    <glyph glyph-name="Z" unicode="Z" horiz-adv-x="635" 
d="M110 555l28 145h579l-20 -103l-449 -452h370l-28 -145h-605l20 103l444 452h-339z" />
    <glyph glyph-name="bracketleft" unicode="[" horiz-adv-x="374" 
d="M26 -175l172 884h304l-28 -145h-149l-116 -594h149l-28 -145h-304z" />
    <glyph glyph-name="backslash" unicode="\" horiz-adv-x="377" 
d="M144 721l325 -871l-132 -50l-325 879z" />
    <glyph glyph-name="bracketright" unicode="]" horiz-adv-x="374" 
d="M452 709l-172 -884h-304l28 145h149l116 594h-149l28 145h304z" />
    <glyph glyph-name="asciicircum" unicode="^" horiz-adv-x="533" 
d="M90 394l212 313h90l211 -313h-169l-87 134l-89 -134h-168z" />
    <glyph glyph-name="underscore" unicode="_" horiz-adv-x="355" 
d="M-23 -175v130h355v-130h-355z" />
    <glyph glyph-name="grave" unicode="`" horiz-adv-x="364" 
d="M425 587l-147 160l114 86l119 -177z" />
    <glyph glyph-name="a" unicode="a" horiz-adv-x="576" 
d="M374 0l10.001 47.001c-28 -34.667 -74.667 -52 -140 -52c-60.667 0 -109 19.667 -145 59s-54 90.333 -54 153c0 101.333 26.5 180.666 79.5 237.999s121.5 86 205.5 86c63.333 0 106.666 -14 129.999 -42l7 31h133l-97 -520h-129zM289.001 125.001
c22 0 43.3311 5.83203 63.998 17.499s36.667 26.834 48 45.501l32 161c-19.333 34.667 -51.666 52 -96.999 52c-42.667 0 -77.667 -15.5 -105 -46.5s-41 -72.167 -41 -123.5c0 -33.333 9.33301 -59.333 28 -78s42.334 -28 71.001 -28z" />
    <glyph glyph-name="b" unicode="b" horiz-adv-x="582" 
d="M38 66l123.998 663.999h138l-44 -240c38.667 27.333 85.334 41 140.001 41c56 0 101.667 -18 137 -54s53 -83 53 -141c0 -59.333 -9 -111.666 -27 -156.999s-42.667 -81.333 -74 -108s-66.166 -46.5 -104.499 -59.5s-79.5 -19.5 -123.5 -19.5
c-42.667 0 -84 6.5 -124 19.5s-71.667 31.167 -95 54.5zM349.998 400.999c-50 0 -90.668 -20.667 -122.001 -62l-36 -189c20 -18.667 50 -28 90 -28c42.667 0 79.834 16.167 111.501 48.5s47.5 75.166 47.5 128.499c0 30.667 -8.33301 55.334 -25 74.001s-38.667 28 -66 28z
" />
    <glyph glyph-name="c" unicode="c" horiz-adv-x="531" 
d="M437 188l92.0029 -81.999c-30.667 -42.667 -66 -72.334 -106 -89.001s-88.333 -25 -145 -25c-67.333 0 -123 20.667 -167 62s-66 95.333 -66 162c0 92 29.333 167.5 88 226.5s131.667 88.5 219 88.5c59.333 0 106.666 -13 141.999 -39s57.666 -58 66.999 -96l-106 -65
c-24 46.667 -60.333 70 -109 70c-43.333 0 -80.166 -15.5 -110.499 -46.5s-45.5 -71.167 -45.5 -120.5c0 -35.333 11.167 -62.833 33.5 -82.5s49.166 -29.5 80.499 -29.5c59.333 0 103.666 22 132.999 66z" />
    <glyph glyph-name="d" unicode="d" horiz-adv-x="579" 
d="M378 0l10.001 47c-28 -34.667 -74 -52 -138 -52c-62.667 0 -112.5 19.167 -149.5 57.5s-55.5 88.5 -55.5 150.5c0 66.667 15.167 125.5 45.5 176.5s68.666 89 114.999 114s95.5 37.5 147.5 37.5c52.667 0 89.667 -8.33301 111 -25l41 224h137l-135 -730h-129z
M298.001 125c45.333 0 81 20.999 107 62.999l33 177c-16 24 -44.333 36 -85 36c-48 0 -87.167 -16.167 -117.5 -48.5s-45.5 -74.166 -45.5 -125.499c0 -68 36 -102 108 -102z" />
    <glyph glyph-name="e" unicode="e" 
d="M442 177l78.998 -84.001c-32 -38 -68.167 -64.5 -108.5 -79.5s-86.166 -22.5 -137.499 -22.5c-67.333 0 -122.5 20.833 -165.5 62.5s-64.5 95.834 -64.5 162.501c0 92 29.667 167.833 89 227.5s133.666 89.5 222.999 89.5c62.667 0 111 -13 145 -39s51 -64.667 51 -116
c0 -59.333 -27.167 -105.833 -81.5 -139.5s-121.166 -50.5 -200.499 -50.5c-25.333 0 -51 2 -77 6c12.667 -48.667 48.334 -73 107.001 -73c54.667 0 101.667 18.667 141 56zM350.998 402.999c-31.333 0 -60 -8.16699 -86 -24.5s-45.333 -38.5 -58 -66.5
c9.33301 -0.666992 23 -1 41 -1c48.667 0 87.5 4.83301 116.5 14.5s43.5 22.167 43.5 37.5c0 26.667 -19 40 -57 40z" />
    <glyph glyph-name="f" unicode="f" horiz-adv-x="328" 
d="M45 390l23.9971 130h69l2 10c12.667 70.667 38.834 123 78.501 157s85.834 51 138.501 51c28 0 52.833 -5 74.5 -15s37.167 -24 46.5 -42l-82 -89c-7.33301 10.667 -21.666 16 -42.999 16c-19.333 0 -35.833 -7 -49.5 -21s-22.5 -33 -26.5 -57l-2 -10h124l-25 -130h-123
l-66 -390h-138l66 390h-68z" />
    <glyph glyph-name="g" unicode="g" horiz-adv-x="574" 
d="M598 520l-88 -474.998c-16 -84.667 -48.167 -148.167 -96.5 -190.5s-110.166 -63.5 -185.499 -63.5c-55.333 0 -99.833 12.333 -133.5 37s-53.834 55.667 -60.501 93l116 59c18.667 -39.333 49 -59 91 -59c71.333 0 113.333 31.667 126 95l5 23
c-26 -31.333 -68 -47 -126 -47c-62 0 -111 20.667 -147 62s-54 93.666 -54 156.999c0 95.333 28.5 172.166 85.5 230.499s124.167 87.5 201.5 87.5c36 0 62.5 -3 79.5 -9s31.5 -15.333 43.5 -28l5 28h138zM295 122.002c20.667 0 40.668 6.33203 60.001 18.999
s33.666 27.334 42.999 44.001l32 166c-12.667 32 -40.667 48 -84 48c-44 0 -81 -16.167 -111 -48.5s-45 -71.5 -45 -117.5c0 -74 35 -111 105 -111z" />
    <glyph glyph-name="h" unicode="h" horiz-adv-x="555" 
d="M24 0l134.001 730h138l-44 -243c35.333 28.667 77.666 43 126.999 43c117.333 0 176 -52.667 176 -158c0 -27.333 -2.66699 -54.333 -8 -81l-57 -291h-138l56 284c2.66699 13.333 4 26.333 4 39c0.666992 26.667 -5.33301 46.167 -18 58.5s-32.667 18.5 -60 18.5
c-41.333 0 -78.333 -22.333 -111 -67l-62 -333h-137z" />
    <glyph glyph-name="i" unicode="i" horiz-adv-x="250" 
d="M34 0l96 520h138l-96 -520h-138zM145 659c0 20 7.16699 37.167 21.5 51.5s32.166 21.5 53.499 21.5s39.5 -7.16699 54.5 -21.5s22.5 -31.5 22.5 -51.5s-7.5 -36.833 -22.5 -50.5s-33.167 -20.5 -54.5 -20.5s-39.166 6.66699 -53.499 20s-21.5 30.333 -21.5 51z" />
    <glyph glyph-name="j" unicode="j" horiz-adv-x="250" 
d="M267 520l-94.999 -518c-26.667 -140.667 -97.334 -211 -212.001 -211c-88 0 -140 40 -156 120l129 49c6.66699 -22.667 19.667 -34 39 -34c32 0 52.667 26.333 62 79l95 515h138zM143.001 659c0 20 7.16699 37.167 21.5 51.5s32.166 21.5 53.499 21.5
s39.5 -7.16699 54.5 -21.5s22.5 -31.5 22.5 -51.5s-7.5 -36.833 -22.5 -50.5s-33.167 -20.5 -54.5 -20.5s-39.166 6.66699 -53.499 20s-21.5 30.333 -21.5 51z" />
    <glyph glyph-name="k" unicode="k" horiz-adv-x="510" 
d="M24 0l134 730h138l-71 -386l188 176h188l-259 -236l158 -284h-168l-106 208l-31 -24l-34 -184h-137z" />
    <glyph glyph-name="l" unicode="l" horiz-adv-x="237" 
d="M28 0l135 730h138l-135 -730h-138z" />
    <glyph glyph-name="m" unicode="m" horiz-adv-x="792" 
d="M792 346l-67.999 -346h-138l60 305c2.66699 16 4 27.333 4 34c1.33301 40.667 -15.334 61 -50.001 61c-37.333 0 -68.666 -21 -93.999 -63l-63 -337h-138l63 329c3.33301 20 1 36.833 -7 50.5s-21 20.5 -39 20.5c-42 0 -75 -21.333 -99 -64l-61 -336h-138l96 520h138
l-7 -35c30.667 30 73 45 127 45c51.333 0 90.333 -18.667 117 -56c23.333 20.667 46.166 35.167 68.499 43.5s51.166 12.5 86.499 12.5c45.333 0 80.833 -11.5 106.5 -34.5s38.834 -56.167 39.501 -99.5c0 -17.333 -1.33301 -34 -4 -50z" />
    <glyph glyph-name="n" unicode="n" horiz-adv-x="557" 
d="M24 0l97.001 520h138l-5 -33c35.333 28.667 77.666 43 126.999 43c117.333 0 176 -52.667 176 -158c0 -27.333 -2.66699 -54.333 -8 -81l-58 -291h-138l57 284c2.66699 13.333 4 26.333 4 39c0.666992 26.667 -5.33301 46.167 -18 58.5s-32.667 18.5 -60 18.5
c-18.667 0 -38.167 -5.33301 -58.5 -16s-37.833 -26 -52.5 -46l-64 -338h-137z" />
    <glyph glyph-name="o" unicode="o" horiz-adv-x="587" 
d="M45 211c0 91.333 30.168 167.499 90.501 228.499s134.166 91.5 221.499 91.5c72 0 129 -20.5 171 -61.5s63 -93.167 63 -156.5c0 -93.333 -28.833 -170.166 -86.5 -230.499s-132.167 -90.5 -223.5 -90.5c-74.667 0 -132.667 20.5 -174 61.5s-62 93.5 -62 157.5z
M190.001 236.999c0 -36.667 9.5 -65.001 28.5 -85.001s46.833 -30 83.5 -30c36 0 69 16.333 99 49s45 74.334 45 125.001c0 30 -9 55 -27 75s-43.667 30 -77 30c-38.667 0 -73.667 -15.5 -105 -46.5s-47 -70.167 -47 -117.5z" />
    <glyph glyph-name="p" unicode="p" horiz-adv-x="573" 
d="M-14 -200l132 720h136l-5 -27c30.667 25.333 69.667 38 117 38c70.667 0 123.5 -20.167 158.5 -60.5s52.5 -90.5 52.5 -150.5c0 -98 -27.333 -177.167 -82 -237.5s-128 -90.5 -220 -90.5c-58.667 0 -96.667 8.66699 -114 26l-40 -218h-135zM332 401
c-44.667 0 -80.667 -19.333 -108 -58l-37 -178c16 -28.667 49 -43 99 -43c41.333 0 76 15.667 104 47s42 73.333 42 126c0 31.333 -8.66699 56.833 -26 76.5s-42 29.5 -74 29.5z" />
    <glyph glyph-name="q" unicode="q" horiz-adv-x="570" 
d="M323 -200l41.999 225c-28.667 -22 -65 -33 -109 -33c-70 0 -122.667 19.167 -158 57.5s-53 86.833 -53 145.5c0 103.333 30.667 184.5 92 243.5s132.333 88.5 213 88.5c50.667 0 84.334 -9.33301 101.001 -28l5 21h138l-133 -720h-138zM294.999 122
c16.667 0 34.3311 5 52.998 15s33.334 22.667 44.001 38l35 185c-19.333 24.667 -46.666 37 -81.999 37c-39.333 0 -74.833 -15.833 -106.5 -47.5s-47.5 -71.167 -47.5 -118.5c0 -72.667 34.667 -109 104 -109z" />
    <glyph glyph-name="r" unicode="r" horiz-adv-x="349" 
d="M24 0l95.999 519.999h138l-4 -21c6.66699 8 18 15.167 34 21.5s32 9.5 48 9.5c24.667 0 43.334 -3.66699 56.001 -11s23.334 -18.666 32.001 -33.999l-93 -102c-8.66699 11.333 -21.334 17 -38.001 17c-28 0 -51 -19.667 -69 -59l-62 -341h-138z" />
    <glyph glyph-name="s" unicode="s" horiz-adv-x="439" 
d="M284 155c0 10.667 -7.16406 20.333 -21.4971 29s-31.666 17 -51.999 25s-40.666 17.5 -60.999 28.5s-37.666 27.167 -51.999 48.5s-21.5 47 -21.5 77c0 52 19.167 93.333 57.5 124s84.166 46 137.499 46c97.333 0 164.666 -30 201.999 -90l-87 -90
c-28 36.667 -65 55 -111 55c-36 0 -54 -12.667 -54 -38c0 -9.33301 7.16699 -17.833 21.5 -25.5s31.666 -15.5 51.999 -23.5s40.666 -17.667 60.999 -29s37.666 -28 51.999 -50s21.5 -48 21.5 -78c0 -60 -20.167 -104.333 -60.5 -133s-89.166 -43 -146.499 -43
c-52.667 0 -99.334 12.667 -140.001 38s-68 56.333 -82 93l109 77c9.33301 -22 24.666 -40.5 45.999 -55.5s46.333 -22.5 75 -22.5c18 0 31.5 3.5 40.5 10.5s13.5 15.833 13.5 26.5z" />
    <glyph glyph-name="t" unicode="t" horiz-adv-x="386" 
d="M47 390l23 129.999h81l24 101h134l-22 -101h147l-24 -130h-151l-36 -174c-3.33301 -18 -5 -34 -5 -48c-1.33301 -29.333 11 -44 37 -44c16.667 0 38.667 12 66 36l71 -84c-42 -54.667 -104 -82 -186 -82c-37.333 0 -68.833 10.333 -94.5 31s-38.5 49.334 -38.5 86.001
c0 20 2 40.667 6 62l44 217h-76z" />
    <glyph glyph-name="u" unicode="u" horiz-adv-x="550" 
d="M574 520l-96.999 -520h-138l10 44c-30.667 -34.667 -73.334 -52 -128.001 -52c-55.333 0 -98 13.333 -128 40s-45 63.334 -45 110.001c0 25.333 3 53.333 9 84l60 294h138l-58 -283c-2.66699 -12.667 -4 -26 -4 -40c0.666992 -24.667 6 -43.334 16 -56.001s27 -19 51 -19
c50.667 0 88.667 23 114 69l62 329h138z" />
    <glyph glyph-name="v" unicode="v" horiz-adv-x="507" 
d="M591 520l-313 -520h-104l-132 520h140l78 -310l179 310h152z" />
    <glyph glyph-name="w" unicode="w" horiz-adv-x="710" 
d="M793 520l-254 -520h-108l-47 286l-153 -286h-109l-67 520h135l36 -283l147 283h103l48 -283l131 283h138z" />
    <glyph glyph-name="x" unicode="x" 
d="M619 520l-240 -254l147 -266h-153l-87 165l-149 -165h-170l248 274l-139 246h156l80 -150l135 150h172z" />
    <glyph glyph-name="y" unicode="y" horiz-adv-x="526" 
d="M4 -185l73.9961 119c6.66699 -5.33301 13.334 -8 20.001 -8c9.33301 0 20.333 6 33 18s24.667 28.333 36 49l30 56l-148 471h150l89 -319l172 319h151l-283 -496c-49.333 -86 -91.666 -146.333 -126.999 -181s-73.666 -52 -114.999 -52c-35.333 0 -62.666 8 -81.999 24z
" />
    <glyph glyph-name="z" unicode="z" horiz-adv-x="480" 
d="M77 390l24 130h429v-80l-310 -310h242l-25 -130h-437v88l306 302h-229z" />
    <glyph glyph-name="braceleft" unicode="{" horiz-adv-x="362" 
d="M85 -21l28.002 144c6 32 3.66699 53.167 -7 63.5s-29.667 15.5 -57 15.5l25 128c31.333 0 53 4 65 12s20.667 25.333 26 52l30 151c12 60.667 33.833 103.167 65.5 127.5s79.167 36.5 142.5 36.5h87l-25 -128h-58c-22.667 0 -38.834 -4.83301 -48.501 -14.5
s-17.167 -27.834 -22.5 -54.501l-32 -164c-10 -47.333 -33 -79.666 -69 -96.999c30.667 -14.667 40.667 -48.667 30 -102l-25 -134c-4.66699 -23.333 -4.16699 -39.5 1.5 -48.5s19.5 -13.5 41.5 -13.5h60l-25 -128h-105c-52.667 0 -89.834 12.333 -111.501 37
s-27.167 63.667 -16.5 117z" />
    <glyph glyph-name="bar" unicode="|" horiz-adv-x="315" 
d="M148 0v700h155v-700h-155z" />
    <glyph glyph-name="braceright" unicode="}" horiz-adv-x="362" 
d="M381 555l-28.002 -144c-6 -32 -3.66699 -53.167 7 -63.5s29.667 -15.5 57 -15.5l-25 -128c-31.333 0 -53 -4 -65 -12s-20.667 -25.333 -26 -52l-30 -151c-12 -60.667 -33.833 -103.167 -65.5 -127.5s-79.167 -36.5 -142.5 -36.5h-87l25 128h58
c22.667 0 38.834 4.83301 48.501 14.5s17.167 27.834 22.5 54.501l31 160c10 47.333 33 79.666 69 96.999c-30.667 14.667 -40.667 48.667 -30 102l26 138c4.66699 23.333 4.16699 39.5 -1.5 48.5s-19.5 13.5 -41.5 13.5h-60l25 128h105
c52.667 0 89.834 -12.333 111.501 -37s27.167 -63.667 16.5 -117z" />
    <glyph glyph-name="asciitilde" unicode="~" horiz-adv-x="561" 
d="M154 258l-75.001 100c38.667 37.333 68.334 62 89.001 74c27.333 14.667 56.333 22 87 22c29.333 0 64.5 -10.667 105.5 -32s70.5 -32 88.5 -32c41.333 0 77 21.333 107 64l64 -102c-22 -26.667 -47.667 -48 -77 -64s-57.333 -24 -84 -24c-36 0 -74.167 10.667 -114.5 32
s-69.833 32 -88.5 32c-33.333 0 -67.333 -23.333 -102 -70z" />
    <glyph glyph-name="uni00A0" unicode="&#xa0;" horiz-adv-x="236" 
 />
    <glyph glyph-name="exclamdown" unicode="&#xa1;" horiz-adv-x="309" 
d="M304 322l-98 -503h-151l98 503h151zM342 444c0 -19.333 -8.16699 -36.666 -24.5 -51.999s-36.833 -23 -61.5 -23c-23.333 0 -43 7.16699 -59 21.5s-24 32.166 -24 53.499c0 20.667 8 38.667 24 54s35.667 23 59 23c25.333 0 46 -7.66699 62 -23s24 -33.333 24 -54z" />
    <glyph glyph-name="cent" unicode="&#xa2;" horiz-adv-x="545" 
d="M449 191l90.9971 -80.001c-45.333 -64.667 -106.666 -101.667 -183.999 -111l-39 -200h-155l39 201c-49.333 14.667 -87.666 40.5 -114.999 77.5s-41 83.833 -41 140.5c0 82 24 150.833 72 206.5s109.667 89.5 185 101.5l35 173h155l-35 -176
c33.333 -7.33301 61.833 -22.333 85.5 -45s39.167 -48.667 46.5 -78l-107 -64c-17.333 31.333 -40.666 51.333 -69.999 60l-51 -265c34 8.66699 63.333 28.334 88 59.001zM189.997 239.999c0 -52.667 19 -87.667 57 -105l50 258c-30 -8.66699 -55.333 -27.167 -76 -55.5
s-31 -60.833 -31 -97.5z" />
    <glyph glyph-name="sterling" unicode="&#xa3;" horiz-adv-x="598" 
d="M79 248l23.999 124h50c-8.66699 34.667 -13 66.334 -13 95.001c0 66 22.5 122.5 67.5 169.5s110.167 70.5 195.5 70.5c94 0 169.667 -32.667 227 -98l-96 -106c-44 39.333 -90.333 59 -139 59c-32 0 -56.333 -9 -73 -27s-25 -41.667 -25 -71
c0 -30.667 5 -61.334 15 -92.001h166l-24 -124h-142l-2 -12c-4.66699 -29.333 -17 -54 -37 -74c15.333 -0.666992 39 -6.66699 71 -18s56.333 -17 73 -17c42 0 77.667 19 107 57l60 -104c-49.333 -53.333 -107.666 -80 -174.999 -80c-36 0 -76.833 7 -122.5 21
s-80.167 21 -103.5 21c-44 0 -87.667 -17.667 -131 -53l-50 112c36 31.333 76.333 53 121 65c19.333 20.667 31.333 43 36 67l3 15h-83z" />
    <glyph glyph-name="currency" unicode="&#xa4;" horiz-adv-x="650" 
d="M125 347c0 45.333 10.332 86.333 30.999 123l-83 84l94 94l87 -85c38.667 18 78.334 27 119.001 27c45.333 0 85 -9 119 -27l91 89l95 -94l-89 -89c22 -42 33 -82.667 33 -122c0 -40.667 -11 -80.667 -33 -120l85 -86l-94 -95l-87 87c-34 -18.667 -74 -28 -120 -28
s-86.333 9.33301 -121 28l-91 -91l-93 94l89 91c-21.333 38.667 -32 78.667 -32 120zM269.999 347c0 -30 10 -55.168 30 -75.501s44.333 -30.5 73 -30.5c29.333 0 54 10 74 30s30 45.333 30 76c0 32 -10.167 58 -30.5 78s-44.833 30 -73.5 30
c-29.333 0 -53.833 -10.167 -73.5 -30.5s-29.5 -46.166 -29.5 -77.499z" />
    <glyph glyph-name="yen" unicode="&#xa5;" horiz-adv-x="700" 
d="M155 301l25 126h60l-139 273h180l125 -242l212 242h203l-248 -273h62l-25 -126h-151l-12 -65h151l-25 -126h-151l-21 -110h-155l21 110h-149l25 126h149l12 65h-149z" />
    <glyph glyph-name="brokenbar" unicode="&#xa6;" horiz-adv-x="315" 
d="M303 385h-155v315h155v-315zM148 315h155v-315h-155v315z" />
    <glyph glyph-name="section" unicode="&#xa7;" horiz-adv-x="498" 
d="M52 241c0 42.667 11.667 81.168 35 115.501s55 59.833 95 76.5c-21.333 24 -32 54.667 -32 92c0 52 20.167 94.167 60.5 126.5s88.166 48.5 143.499 48.5c72.667 0 129.334 -33 170.001 -99l-107 -85c-14.667 26 -36 39 -64 39c-13.333 0 -25 -4.16699 -35 -12.5
s-15 -18.5 -15 -30.5c0 -22 12 -38.333 36 -49c51.333 -5.33301 90.666 -23.333 117.999 -54s41 -71.334 41 -122.001c0 -44 -11.5 -83.333 -34.5 -118s-55.167 -61 -96.5 -79c20.667 -26 31 -54.333 31 -85c0 -49.333 -18.5 -91.666 -55.5 -126.999s-85.5 -53 -145.5 -53
c-79.333 0 -137.666 32.667 -174.999 98l107 102c7.33301 -16.667 17.833 -30 31.5 -40s28.834 -15 45.501 -15c13.333 0 24.333 4.16699 33 12.5s13 18.833 13 31.5c0 9.33301 -3.83301 18.333 -11.5 27s-17.834 15 -30.501 19c-51.333 9.33301 -90.5 28.166 -117.5 56.499
s-40.5 69.833 -40.5 124.5zM202 249.001c0 -18.667 5.83203 -34.001 17.499 -46.001s27.167 -18 46.5 -18c22.667 0 42 8.33301 58 25s24 38.667 24 66c0 18 -5.66699 33 -17 45s-26.666 18 -45.999 18c-25.333 0 -45.5 -9.16699 -60.5 -27.5s-22.5 -39.166 -22.5 -62.499z
" />
    <glyph glyph-name="dieresis" unicode="&#xa8;" horiz-adv-x="455" 
d="M364 659c0 20 7.16699 37.167 21.5 51.5s32.166 21.5 53.499 21.5s39.5 -7.16699 54.5 -21.5s22.5 -31.5 22.5 -51.5s-7.5 -36.833 -22.5 -50.5s-33.167 -20.5 -54.5 -20.5s-39.166 6.66699 -53.499 20s-21.5 30.333 -21.5 51zM168 659c0 20 7.16699 37.167 21.5 51.5
s32.166 21.5 53.499 21.5s39.5 -7.16699 54.5 -21.5s22.5 -31.5 22.5 -51.5s-7.5 -36.833 -22.5 -50.5s-33.167 -20.5 -54.5 -20.5s-39.166 6.66699 -53.499 20s-21.5 30.333 -21.5 51z" />
    <glyph glyph-name="copyright" unicode="&#xa9;" horiz-adv-x="941" 
d="M69 237c0 118 41.167 217.833 123.5 299.5s184.5 122.5 306.5 122.5c124.667 0 227.667 -39.167 309 -117.5s122 -179.833 122 -304.5c0 -122 -41 -222.833 -123 -302.5s-184.667 -119.5 -308 -119.5c-125.333 0 -228.333 38.333 -309 115s-121 179 -121 307zM202 237
c0 -88 28.3311 -159.333 84.998 -214s127.334 -82 212.001 -82c87.333 0 158.833 27.333 214.5 82s83.5 126 83.5 214c0 90.667 -27.167 162.667 -81.5 216s-126.5 80 -216.5 80c-83.333 0 -153.666 -28 -210.999 -84s-86 -126.667 -86 -212zM632.998 185l79.999 -88
c-20 -30 -49.333 -55 -88 -75s-76.667 -30 -114 -30c-82 0 -146 22.5 -192 67.5s-69 105.5 -69 181.5c0 70 23.833 128.833 71.5 176.5s106.834 71.5 177.501 71.5c93.333 0 161.333 -33.333 204 -100l-94 -82c-27.333 32.667 -59.666 49 -96.999 49
c-32 0 -59.333 -10.167 -82 -30.5s-34 -48.5 -34 -84.5s11.667 -64.333 35 -85s52.333 -31 87 -31c45.333 0 83.666 20 114.999 60z" />
    <glyph glyph-name="ordfeminine" unicode="&#xaa;" horiz-adv-x="464" 
d="M211 529l-28 96.001c46 22.667 103 34.667 171 36c58 0.666992 99.667 -11.833 125 -37.5s33.333 -62.167 24 -109.5l-42 -215h-129l5 27c-22.667 -20.667 -54.667 -31 -96 -31c-37.333 0 -66.5 8.66699 -87.5 26s-31.5 41 -31.5 71c0 43.333 16.833 75.666 50.5 96.999
s74.5 32 122.5 32c30.667 0 56.667 -2.33301 78 -7c2.66699 12 1 21.167 -5 27.5s-19.667 9.5 -41 9.5c-35.333 0 -74 -7.33301 -116 -22zM298 400.001c25.333 0 44.001 5.33301 56.001 16l3 16c-14.667 6 -31.334 9 -50.001 9c-33.333 0 -50 -7.33301 -50 -22
c0 -12.667 13.667 -19 41 -19z" />
    <glyph glyph-name="guillemotleft" unicode="&#xab;" horiz-adv-x="585" 
d="M459 38l-165 224l1 7l222 212l86 -92l-135 -127l98 -140zM215 38l-165 224l1 7l222 212l86 -92l-135 -127l98 -140z" />
    <glyph glyph-name="logicalnot" unicode="&#xac;" horiz-adv-x="524" 
d="M64 296v126h484v-241h-122v115h-362z" />
    <glyph glyph-name="uni00AD" unicode="&#xad;" horiz-adv-x="424" 
d="M115 217v130h304v-130h-304z" />
    <glyph glyph-name="registered" unicode="&#xae;" horiz-adv-x="576" 
d="M99 479c0 68.667 25.167 127.167 75.5 175.5s111.5 72.5 183.5 72.5c70.667 0 131.167 -24.167 181.5 -72.5s75.5 -106.833 75.5 -175.5c0 -70 -25.167 -129.333 -75.5 -178s-110.833 -73 -181.5 -73c-72 0 -133.167 24.333 -183.5 73s-75.5 108 -75.5 178zM144 478
c0 -58.667 20.668 -107.5 62.001 -146.5s91.666 -58.5 150.999 -58.5c57.333 0 107.166 21 149.499 63s63.5 89.333 63.5 142c0 56.667 -21.5 104.834 -64.5 144.501s-92.5 59.5 -148.5 59.5c-59.333 0 -109.666 -20.333 -150.999 -61s-62 -88.334 -62 -143.001z
M331.001 332l-106 0.000976562v295h124c50.667 0 87 -9.5 109 -28.5s33 -43.833 33 -74.5c0 -40.667 -14.667 -69.334 -44 -86.001l55 -106h-118l-29 65h-24v-65zM376.001 513.001c0 10.667 -7 16 -21 16h-24v-32h24c14 0 21 5.33301 21 16z" />
    <glyph glyph-name="macron" unicode="&#xaf;" horiz-adv-x="454" 
d="M289 610v120h294v-120h-294z" />
    <glyph glyph-name="degree" unicode="&#xb0;" horiz-adv-x="417" 
d="M114 542c0 48 17.333 88.333 52 121s76.667 49 126 49c50 0 92.333 -16.167 127 -48.5s52 -72.5 52 -120.5c0 -47.333 -17.5 -87.5 -52.5 -120.5s-77.167 -49.5 -126.5 -49.5s-91.333 16.333 -126 49s-52 72.667 -52 120zM254 542c0 -11.333 3.66699 -19.833 11 -25.5
s16.333 -8.5 27 -8.5s19.834 2.83301 27.501 8.5s11.5 14.167 11.5 25.5s-3.83301 20 -11.5 26s-16.834 9 -27.501 9s-19.667 -2.83301 -27 -8.5s-11 -14.5 -11 -26.5z" />
    <glyph glyph-name="plusminus" unicode="&#xb1;" horiz-adv-x="535" 
d="M99 365v125h164v175h125v-175h166v-125h-166v-94h-125v94h-164zM99 122v125h455v-125h-455z" />
    <glyph glyph-name="twosuperior" unicode="&#xb2;" horiz-adv-x="425" 
d="M231 549l-88 66.999c46.667 72 116.667 108 210 108c47.333 0 83.833 -10.667 109.5 -32s38.5 -50.333 38.5 -87c0 -61.333 -40.667 -114.666 -122 -159.999l-44 -25h141l-23 -120h-351l20 101l86 45c100.667 52.667 151 95.667 151 129c0 19.333 -12.333 29 -37 29
c-36.667 0 -67 -18.333 -91 -55z" />
    <glyph glyph-name="threesuperior" unicode="&#xb3;" horiz-adv-x="432" 
d="M222 557l-81.999 75.002c19.333 28 46 50.5 80 67.5s73.667 25.5 119 25.5c50.667 0 91 -8.33301 121 -25s45 -42.334 45 -77.001c0 -47.333 -26 -81 -78 -101c34 -14 51 -39.667 51 -77c0 -44.667 -19 -80.834 -57 -108.501s-85 -41.5 -141 -41.5
c-92 0 -152.333 37.333 -181 112l102 54c13.333 -30.667 42.666 -46 87.999 -46c35.333 0 53 8.66699 53 26c0 12.667 -16.667 19 -50 19h-36l17 100h33c37.333 0 56 9 56 27c0 12 -14.333 18 -43 18c-38.667 0 -71 -16 -97 -48z" />
    <glyph glyph-name="acute" unicode="&#xb4;" horiz-adv-x="454" 
d="M574 742l-149 -149l-94 79l141 162z" />
    <glyph glyph-name="mu" unicode="&#xb5;" horiz-adv-x="577" 
d="M633 520l-100.999 -520h-145l5 27c-36 -23.333 -76 -35 -120 -35c-34.667 0 -61.334 6.33301 -80.001 19l-41 -210h-145l140 719h145l-55 -283c-8 -39.333 -6.5 -67.5 4.5 -84.5s32.5 -25.5 64.5 -25.5c44 0 82 13.333 114 40l69 353h145z" />
    <glyph glyph-name="mu" unicode="&#x3bc;" horiz-adv-x="577" 
d="M633 520l-100.999 -520h-145l5 27c-36 -23.333 -76 -35 -120 -35c-34.667 0 -61.334 6.33301 -80.001 19l-41 -210h-145l140 719h145l-55 -283c-8 -39.333 -6.5 -67.5 4.5 -84.5s32.5 -25.5 64.5 -25.5c44 0 82 13.333 114 40l69 353h145z" />
    <glyph glyph-name="paragraph" unicode="&#xb6;" horiz-adv-x="451" 
d="M80 465c0 72.667 20.999 130 62.999 172s99 63 171 63h175v-128h-82v-555c0 -64.667 -13.833 -114 -41.5 -148s-73.5 -51 -137.5 -51c-27.333 0 -54.666 5.66699 -81.999 17s-50 27.333 -68 48l65 112c27.333 -21.333 54.333 -32 81 -32c23.333 0 35 18.333 35 55v217
c-54 10 -97.333 35.167 -130 75.5s-49 91.833 -49 154.5z" />
    <glyph glyph-name="periodcentered" unicode="&#xb7;" horiz-adv-x="236" 
d="M53 303c0 19.333 8.16699 36.5 24.5 51.5s36.833 22.5 61.5 22.5c22.667 0 42.167 -7.66699 58.5 -23s24.5 -32.333 24.5 -51c0 -20.667 -8 -38.667 -24 -54s-35.667 -23 -59 -23c-25.333 0 -46 7.5 -62 22.5s-24 33.167 -24 54.5z" />
    <glyph glyph-name="cedilla" unicode="&#xb8;" horiz-adv-x="468" 
d="M153 -161l57 69c16 -18.667 41.333 -28 76 -28c21.333 0 32 5 32 15s-14 15 -42 15h-6l17 90h75l-3 -26c59.333 -5.33301 89 -30.333 89 -75c0 -36 -15.5 -63.167 -46.5 -81.5s-70.833 -27.5 -119.5 -27.5c-56.667 0 -99.667 16.333 -129 49z" />
    <glyph glyph-name="onesuperior" unicode="&#xb9;" horiz-adv-x="330" 
d="M137 653l174 67h99l-82 -420h-135l52 262l-80 -31z" />
    <glyph glyph-name="ordmasculine" unicode="&#xba;" horiz-adv-x="463" 
d="M129 459c0 56 19.832 103.666 59.499 142.999s91.5 59 155.5 59c60 0 104.333 -14.667 133 -44s43 -69.666 43 -120.999c0 -52 -20.167 -98.5 -60.5 -139.5s-92.166 -61.5 -155.499 -61.5c-54 0 -96.667 14.333 -128 43s-47 69 -47 121zM265.999 469.999
c0 -16 4.66797 -28.334 14.001 -37.001s21.666 -13 36.999 -13c20 0 35.833 6 47.5 18s17.5 27.667 17.5 47c0 34 -16.333 51 -49 51c-20 0 -36.167 -6.16699 -48.5 -18.5s-18.5 -28.166 -18.5 -47.499z" />
    <glyph glyph-name="guillemotright" unicode="&#xbb;" horiz-adv-x="578" 
d="M167 480l165 -224l-1 -7l-222 -212l-86 92l135 127l-98 140zM411 480l165 -224l-1 -7l-222 -212l-86 92l135 127l-98 140z" />
    <glyph glyph-name="onequarter" unicode="&#xbc;" horiz-adv-x="899" 
d="M186 59l551 671l107 -86l-549 -675zM147 653l174 67h99l-82 -420h-135l52 262l-80 -31zM686 0l12 64h-226l18 94l295 262h107l-47 -241h68l-22 -115h-68l-12 -64h-125zM650 179h70l14 73z" />
    <glyph glyph-name="onehalf" unicode="&#xbd;" horiz-adv-x="965" 
d="M186 59l551 671l107 -86l-549 -675zM147 653l174 67h99l-82 -420h-135l52 262l-80 -31zM703 249l-88 66.999c46.667 72 116.667 108 210 108c47.333 0 83.833 -10.667 109.5 -32s38.5 -50.333 38.5 -87c0 -61.333 -40.667 -114.666 -122 -159.999l-44 -25h141l-23 -120
h-351l20 101l86 45c100.667 52.667 151 95.667 151 129c0 19.333 -12.333 29 -37 29c-36.667 0 -67 -18.333 -91 -55z" />
    <glyph glyph-name="threequarters" unicode="&#xbe;" horiz-adv-x="939" 
d="M226 59l551 671l107 -86l-549 -675zM726 0l12 64h-226l18 94l295 262h107l-47 -241h68l-22 -115h-68l-12 -64h-125zM690 179h70l14 73zM222 557l-81.999 75.002c19.333 28 46 50.5 80 67.5s73.667 25.5 119 25.5c50.667 0 91 -8.33301 121 -25s45 -42.334 45 -77.001
c0 -47.333 -26 -81 -78 -101c34 -14 51 -39.667 51 -77c0 -44.667 -19 -80.834 -57 -108.501s-85 -41.5 -141 -41.5c-92 0 -152.333 37.333 -181 112l102 54c13.333 -30.667 42.666 -46 87.999 -46c35.333 0 53 8.66699 53 26c0 12.667 -16.667 19 -50 19h-36l17 100h33
c37.333 0 56 9 56 27c0 12 -14.333 18 -43 18c-38.667 0 -71 -16 -97 -48z" />
    <glyph glyph-name="questiondown" unicode="&#xbf;" horiz-adv-x="625" 
d="M220 21c0 -17.333 9.00293 -31.834 27.0029 -43.501s44 -17.5 78 -17.5c76.667 0 131.667 31 165 93l131 -49c-24.667 -60 -63.834 -107.333 -117.501 -142s-118.834 -52 -195.501 -52c-78.667 0 -140.834 16.167 -186.501 48.5s-68.5 77.166 -68.5 134.499
c0 36.667 7 68.667 21 96s31.5 48 52.5 62s44 27 69 39s48.333 21.5 70 28.5s40.334 16.333 56.001 28s24.5 24.834 26.5 39.501c0.666992 5.33301 1.16699 11.5 1.5 18.5s0.833008 12.5 1.5 16.5l141 2c0.666992 -4 1 -12.667 1 -26c0 -37.333 -9.33301 -68.833 -28 -94.5
s-41.5 -45 -68.5 -58s-53.833 -24.667 -80.5 -35s-49.334 -22.666 -68.001 -36.999s-28 -31.5 -28 -51.5zM532.003 442.999c0 -19.333 -8.16699 -36.668 -24.5 -52.001s-36.833 -23 -61.5 -23c-22.667 0 -42.167 7.83301 -58.5 23.5s-24.5 32.834 -24.5 51.501
c0 20.667 8 38.667 24 54s35.667 23 59 23c25.333 0 46 -7.66699 62 -23s24 -33.333 24 -54z" />
    <glyph glyph-name="Agrave" unicode="&#xc0;" horiz-adv-x="721" 
d="M-29 0l443 700h115l171 -700h-155l-32 130h-288l-82 -130h-172zM433 465l-128 -204h177zM521 726l-235 122l74 126l222 -152z" />
    <glyph glyph-name="Aacute" unicode="&#xc1;" horiz-adv-x="721" 
d="M-29 0l443 700h115l171 -700h-155l-32 130h-288l-82 -130h-172zM433 465l-128 -204h177zM682 838l-245 -102l-43 107l234 131z" />
    <glyph glyph-name="Acircumflex" unicode="&#xc2;" horiz-adv-x="721" 
d="M-29 0l443 700h115l171 -700h-155l-32 130h-288l-82 -130h-172zM433 465l-128 -204h177zM500 945l168 -123l-68 -79l-113 76l-143 -76l-40 89l192 113h4z" />
    <glyph glyph-name="Atilde" unicode="&#xc3;" horiz-adv-x="721" 
d="M-29 0l443 700h115l171 -700h-155l-32 130h-288l-82 -130h-172zM433 465l-128 -204h177zM331 769l-33 98c41.333 37.333 82 56 122 56c22.667 0 47 -5 73 -15s47.667 -15 65 -15c34.667 0 66.334 10.333 95.001 31l21 -98c-36.667 -42 -78 -63 -124 -63
c-20 0 -44.5 5 -73.5 15s-52.833 15 -71.5 15c-24.667 0 -49.334 -8 -74.001 -24z" />
    <glyph glyph-name="Adieresis" unicode="&#xc4;" horiz-adv-x="721" 
d="M-29 0l443 700h115l171 -700h-155l-32 130h-288l-82 -130h-172zM433 465l-128 -204h177zM521 829c0 22 7.83301 40.667 23.5 56s34.834 23 57.501 23s42.167 -7.66699 58.5 -23s24.5 -34 24.5 -56c0 -21.333 -8.16699 -39.333 -24.5 -54s-35.833 -22 -58.5 -22
s-41.834 7.33301 -57.501 22s-23.5 32.667 -23.5 54zM272 829c0 22 7.66699 40.667 23 56s34.333 23 57 23c23.333 0 43.166 -7.66699 59.499 -23s24.5 -34 24.5 -56c0 -21.333 -8.16699 -39.333 -24.5 -54s-36.166 -22 -59.499 -22c-22.667 0 -41.667 7.33301 -57 22
s-23 32.667 -23 54z" />
    <glyph glyph-name="Aring" unicode="&#xc5;" horiz-adv-x="721" 
d="M-29 0l443 700h115l171 -700h-155l-32 130h-288l-82 -130h-172zM433 465l-128 -204h177zM332 838c0 40 15.832 71.5 47.499 94.5s73.167 34.5 124.5 34.5c98.667 0 148 -35 148 -105c0 -41.333 -16.167 -74 -48.5 -98s-74.166 -36 -125.499 -36
c-97.333 0 -146 36.667 -146 110zM442.999 841c0 -22 13.667 -32.999 41 -32.999c16.667 0 30.167 4.16699 40.5 12.5s15.5 20.166 15.5 35.499c0 8 -3.5 15.167 -10.5 21.5s-17.5 9.5 -31.5 9.5c-36.667 0 -55 -15.333 -55 -46z" />
    <glyph glyph-name="AE" unicode="&#xc6;" horiz-adv-x="1154" 
d="M545 0l25 130h-272l-127 -130h-196l663 700h578l-28 -145h-380l-25 -130h355l-28 -140h-355l-27 -140h389l-28 -145h-544zM418 261h178l46 237z" />
    <glyph glyph-name="Ccedilla" unicode="&#xc7;" horiz-adv-x="696" 
d="M227 -152l61.001 60c19.333 -18.667 44.333 -28 75 -28c21.333 0 32 5 32 15s-14 15 -42 15h-6l16 81c-86 8 -157.167 38.667 -213.5 92s-84.5 129 -84.5 227c0 113.333 39.333 208.666 118 285.999s180 116 304 116c124.667 0 214.334 -45.333 269.001 -136l-112 -89
c-40 50 -95.667 75 -167 75c-74 0 -134.333 -23.167 -181 -69.5s-70 -103.166 -70 -170.499c0 -54 17.667 -98.167 53 -132.5s82 -51.5 140 -51.5c84.667 0 152 29.333 202 88l92 -97c-58.667 -86 -150.334 -132.667 -275.001 -140l-2 -15c66 -5.33301 99 -32 99 -80
c0 -32.667 -14 -58.167 -42 -76.5s-67 -27.5 -117 -27.5c-66.667 0 -116.334 19.333 -149.001 58z" />
    <glyph glyph-name="Egrave" unicode="&#xc8;" horiz-adv-x="649" 
d="M40 0l136 700h535l-28 -145h-380l-25 -130h355l-28 -140h-355l-27 -140h389l-28 -145h-544zM528 726l-235 122l74 126l222 -152z" />
    <glyph glyph-name="Eacute" unicode="&#xc9;" horiz-adv-x="649" 
d="M40 0l136 700h535l-28 -145h-380l-25 -130h355l-28 -140h-355l-27 -140h389l-28 -145h-544zM662 838l-245 -102l-43 107l234 131z" />
    <glyph glyph-name="Ecircumflex" unicode="&#xca;" horiz-adv-x="649" 
d="M40 0l136 700h535l-28 -145h-380l-25 -130h355l-28 -140h-355l-27 -140h389l-28 -145h-544zM489 945l168 -123l-68 -79l-113 76l-143 -76l-40 89l192 113h4z" />
    <glyph glyph-name="Edieresis" unicode="&#xcb;" horiz-adv-x="649" 
d="M40 0l136 700h535l-28 -145h-380l-25 -130h355l-28 -140h-355l-27 -140h389l-28 -145h-544zM504 829c0 22 7.83301 40.667 23.5 56s34.834 23 57.501 23s42.167 -7.66699 58.5 -23s24.5 -34 24.5 -56c0 -21.333 -8.16699 -39.333 -24.5 -54s-35.833 -22 -58.5 -22
s-41.834 7.33301 -57.501 22s-23.5 32.667 -23.5 54zM255 829c0 22 7.66699 40.667 23 56s34.333 23 57 23c23.333 0 43.166 -7.66699 59.499 -23s24.5 -34 24.5 -56c0 -21.333 -8.16699 -39.333 -24.5 -54s-36.166 -22 -59.499 -22c-22.667 0 -41.667 7.33301 -57 22
s-23 32.667 -23 54z" />
    <glyph glyph-name="Igrave" unicode="&#xcc;" horiz-adv-x="295" 
d="M45 0l136 700h155l-136 -700h-155zM310 726l-235 122l74 126l222 -152z" />
    <glyph glyph-name="Iacute" unicode="&#xcd;" horiz-adv-x="295" 
d="M45 0l136 700h155l-136 -700h-155zM474 838l-245 -102l-43 107l234 131z" />
    <glyph glyph-name="Icircumflex" unicode="&#xce;" horiz-adv-x="295" 
d="M45 0l136 700h155l-136 -700h-155zM290 945l168 -123l-68 -79l-113 76l-143 -76l-40 89l192 113h4z" />
    <glyph glyph-name="Idieresis" unicode="&#xcf;" horiz-adv-x="295" 
d="M45 0l136 700h155l-136 -700h-155zM313 829c0 22 7.83301 40.667 23.5 56s34.834 23 57.501 23s42.167 -7.66699 58.5 -23s24.5 -34 24.5 -56c0 -21.333 -8.16699 -39.333 -24.5 -54s-35.833 -22 -58.5 -22s-41.834 7.33301 -57.501 22s-23.5 32.667 -23.5 54zM64 829
c0 22 7.66699 40.667 23 56s34.333 23 57 23c23.333 0 43.166 -7.66699 59.499 -23s24.5 -34 24.5 -56c0 -21.333 -8.16699 -39.333 -24.5 -54s-36.166 -22 -59.499 -22c-22.667 0 -41.667 7.33301 -57 22s-23 32.667 -23 54z" />
    <glyph glyph-name="Eth" unicode="&#xd0;" horiz-adv-x="786" 
d="M50 285l25 129.001h111l56 286h222c120 0 207.167 -25.833 261.5 -77.5s81.5 -121.167 81.5 -208.5c0 -128.667 -41.667 -229.834 -125 -303.501s-206.333 -110.5 -369 -110.5h-207l55 285h-111zM433 555.001h-65.001l-27 -141h158l-25 -129h-158l-27 -140h65
c100.667 0 174.334 23.5 221.001 70.5s70 108.833 70 185.5c0 54.667 -16.667 94 -50 118s-87.333 36 -162 36z" />
    <glyph glyph-name="Ntilde" unicode="&#xd1;" horiz-adv-x="740" 
d="M650 0h-120l-255 430l-84 -430h-151l136 700h119l257 -430l83 430h151zM352 769l-33 98c41.333 37.333 82 56 122 56c22.667 0 47 -5 73 -15s47.667 -15 65 -15c34.667 0 66.334 10.333 95.001 31l21 -98c-36.667 -42 -78 -63 -124 -63c-20 0 -44.5 5 -73.5 15
s-52.833 15 -71.5 15c-24.667 0 -49.334 -8 -74.001 -24z" />
    <glyph glyph-name="Ograve" unicode="&#xd2;" horiz-adv-x="781" 
d="M66 298c0 36 5.66895 73.002 17.002 111.002s28.666 75.167 51.999 111.5s51.166 68.666 83.499 96.999s71.5 51.166 117.5 68.499s95.333 26 148 26c96.667 0 173.667 -28.5 231 -85.5s86 -131.5 86 -223.5c0 -120.667 -40 -220 -120 -298s-178.667 -117 -296 -117
c-95.333 0 -172.333 29.167 -231 87.5s-88 132.5 -88 222.5zM227.002 311.002c0 -52.667 16.332 -94.666 48.999 -125.999s74.667 -47 126 -47c67.333 0 123.833 24.667 169.5 74s68.5 108 68.5 176c0 49.333 -15.5 90.666 -46.5 123.999s-73.167 50 -126.5 50
c-67.333 0 -124.166 -24.5 -170.499 -73.5s-69.5 -108.167 -69.5 -177.5zM565.001 726.003l-235 122l74 126l222 -152z" />
    <glyph glyph-name="Oacute" unicode="&#xd3;" horiz-adv-x="781" 
d="M66 298c0 36 5.66895 73.002 17.002 111.002s28.666 75.167 51.999 111.5s51.166 68.666 83.499 96.999s71.5 51.166 117.5 68.499s95.333 26 148 26c96.667 0 173.667 -28.5 231 -85.5s86 -131.5 86 -223.5c0 -120.667 -40 -220 -120 -298s-178.667 -117 -296 -117
c-95.333 0 -172.333 29.167 -231 87.5s-88 132.5 -88 222.5zM227.002 311.002c0 -52.667 16.332 -94.666 48.999 -125.999s74.667 -47 126 -47c67.333 0 123.833 24.667 169.5 74s68.5 108 68.5 176c0 49.333 -15.5 90.666 -46.5 123.999s-73.167 50 -126.5 50
c-67.333 0 -124.166 -24.5 -170.499 -73.5s-69.5 -108.167 -69.5 -177.5zM719.001 838.003l-245 -102l-43 107l234 131z" />
    <glyph glyph-name="Ocircumflex" unicode="&#xd4;" horiz-adv-x="781" 
d="M66 298c0 36 5.66895 73.002 17.002 111.002s28.666 75.167 51.999 111.5s51.166 68.666 83.499 96.999s71.5 51.166 117.5 68.499s95.333 26 148 26c96.667 0 173.667 -28.5 231 -85.5s86 -131.5 86 -223.5c0 -120.667 -40 -220 -120 -298s-178.667 -117 -296 -117
c-95.333 0 -172.333 29.167 -231 87.5s-88 132.5 -88 222.5zM227.002 311.002c0 -52.667 16.332 -94.666 48.999 -125.999s74.667 -47 126 -47c67.333 0 123.833 24.667 169.5 74s68.5 108 68.5 176c0 49.333 -15.5 90.666 -46.5 123.999s-73.167 50 -126.5 50
c-67.333 0 -124.166 -24.5 -170.499 -73.5s-69.5 -108.167 -69.5 -177.5zM532.001 945.003l168 -123l-68 -79l-113 76l-143 -76l-40 89l192 113h4z" />
    <glyph glyph-name="Otilde" unicode="&#xd5;" horiz-adv-x="781" 
d="M66 298c0 36 5.66895 73.002 17.002 111.002s28.666 75.167 51.999 111.5s51.166 68.666 83.499 96.999s71.5 51.166 117.5 68.499s95.333 26 148 26c96.667 0 173.667 -28.5 231 -85.5s86 -131.5 86 -223.5c0 -120.667 -40 -220 -120 -298s-178.667 -117 -296 -117
c-95.333 0 -172.333 29.167 -231 87.5s-88 132.5 -88 222.5zM227.002 311.002c0 -52.667 16.332 -94.666 48.999 -125.999s74.667 -47 126 -47c67.333 0 123.833 24.667 169.5 74s68.5 108 68.5 176c0 49.333 -15.5 90.666 -46.5 123.999s-73.167 50 -126.5 50
c-67.333 0 -124.166 -24.5 -170.499 -73.5s-69.5 -108.167 -69.5 -177.5zM374.001 769.003l-33 98c41.333 37.333 82 56 122 56c22.667 0 47 -5 73 -15s47.667 -15 65 -15c34.667 0 66.334 10.333 95.001 31l21 -98c-36.667 -42 -78 -63 -124 -63c-20 0 -44.5 5 -73.5 15
s-52.833 15 -71.5 15c-24.667 0 -49.334 -8 -74.001 -24z" />
    <glyph glyph-name="Odieresis" unicode="&#xd6;" horiz-adv-x="781" 
d="M66 298c0 36 5.66895 73.002 17.002 111.002s28.666 75.167 51.999 111.5s51.166 68.666 83.499 96.999s71.5 51.166 117.5 68.499s95.333 26 148 26c96.667 0 173.667 -28.5 231 -85.5s86 -131.5 86 -223.5c0 -120.667 -40 -220 -120 -298s-178.667 -117 -296 -117
c-95.333 0 -172.333 29.167 -231 87.5s-88 132.5 -88 222.5zM227.002 311.002c0 -52.667 16.332 -94.666 48.999 -125.999s74.667 -47 126 -47c67.333 0 123.833 24.667 169.5 74s68.5 108 68.5 176c0 49.333 -15.5 90.666 -46.5 123.999s-73.167 50 -126.5 50
c-67.333 0 -124.166 -24.5 -170.499 -73.5s-69.5 -108.167 -69.5 -177.5zM568.001 829.003c0 22 7.83301 40.667 23.5 56s34.834 23 57.501 23s42.167 -7.66699 58.5 -23s24.5 -34 24.5 -56c0 -21.333 -8.16699 -39.333 -24.5 -54s-35.833 -22 -58.5 -22
s-41.834 7.33301 -57.501 22s-23.5 32.667 -23.5 54zM319.001 829.003c0 22 7.66699 40.667 23 56s34.333 23 57 23c23.333 0 43.166 -7.66699 59.499 -23s24.5 -34 24.5 -56c0 -21.333 -8.16699 -39.333 -24.5 -54s-36.166 -22 -59.499 -22
c-22.667 0 -41.667 7.33301 -57 22s-23 32.667 -23 54z" />
    <glyph glyph-name="multiply" unicode="&#xd7;" horiz-adv-x="605" 
d="M126 482l92 92l123 -124l124 124l92 -92l-124 -124l124 -123l-92 -92l-124 124l-123 -124l-92 92l124 123z" />
    <glyph glyph-name="Oslash" unicode="&#xd8;" horiz-adv-x="781" 
d="M45 58l62.998 61.998c-28.667 46.667 -43 103.334 -43 170.001c0 56.667 12.167 110.834 36.5 162.501s56.5 96.167 96.5 133.5s86.833 67 140.5 89s108.5 33 164.5 33c60.667 0 114.667 -13.333 162 -40l61 61l91 -86l-61 -60c30 -45.333 45 -103 45 -173
c0 -57.333 -12.333 -112 -37 -164s-57 -96.5 -97 -133.5s-86.667 -66.333 -140 -88s-107.666 -32.5 -162.999 -32.5c-61.333 0 -115.666 13.333 -162.999 40l-64 -64zM636.998 385.998c0 29.333 -3.33301 52.667 -10 70l-303 -302c21.333 -8 44.333 -12 69 -12
c66 0 123.167 22.833 171.5 68.5s72.5 104.167 72.5 175.5zM228.998 309.999c0 -28 2.66699 -49 8 -63l303 299c-21.333 8 -43.333 12 -66 12c-64 0 -120.833 -23.167 -170.5 -69.5s-74.5 -105.833 -74.5 -178.5z" />
    <glyph glyph-name="Ugrave" unicode="&#xd9;" horiz-adv-x="720" 
d="M776 700l-78 -399.999c-19.333 -96 -57.833 -171.167 -115.5 -225.5s-133.167 -81.5 -226.5 -81.5c-82 0 -148.167 20.667 -198.5 62s-75.5 100.666 -75.5 177.999c0 24.667 2.33301 49 7 73l77 394h155l-73 -376c-4 -21.333 -6 -40.333 -6 -57
c0 -86 42.667 -129 128 -129c94 0 153 60.667 177 182l74 380h155zM535 726.001l-235 122l74 126l222 -152z" />
    <glyph glyph-name="Uacute" unicode="&#xda;" horiz-adv-x="720" 
d="M776 700l-78 -399.999c-19.333 -96 -57.833 -171.167 -115.5 -225.5s-133.167 -81.5 -226.5 -81.5c-82 0 -148.167 20.667 -198.5 62s-75.5 100.666 -75.5 177.999c0 24.667 2.33301 49 7 73l77 394h155l-73 -376c-4 -21.333 -6 -40.333 -6 -57
c0 -86 42.667 -129 128 -129c94 0 153 60.667 177 182l74 380h155zM689 838.001l-245 -102l-43 107l234 131z" />
    <glyph glyph-name="Ucircumflex" unicode="&#xdb;" horiz-adv-x="720" 
d="M776 700l-78 -399.999c-19.333 -96 -57.833 -171.167 -115.5 -225.5s-133.167 -81.5 -226.5 -81.5c-82 0 -148.167 20.667 -198.5 62s-75.5 100.666 -75.5 177.999c0 24.667 2.33301 49 7 73l77 394h155l-73 -376c-4 -21.333 -6 -40.333 -6 -57
c0 -86 42.667 -129 128 -129c94 0 153 60.667 177 182l74 380h155zM502 945.001l168 -123l-68 -79l-113 76l-143 -76l-40 89l192 113h4z" />
    <glyph glyph-name="Udieresis" unicode="&#xdc;" horiz-adv-x="720" 
d="M776 700l-78 -399.999c-19.333 -96 -57.833 -171.167 -115.5 -225.5s-133.167 -81.5 -226.5 -81.5c-82 0 -148.167 20.667 -198.5 62s-75.5 100.666 -75.5 177.999c0 24.667 2.33301 49 7 73l77 394h155l-73 -376c-4 -21.333 -6 -40.333 -6 -57
c0 -86 42.667 -129 128 -129c94 0 153 60.667 177 182l74 380h155zM530 829.001c0 22 7.83301 40.667 23.5 56s34.834 23 57.501 23s42.167 -7.66699 58.5 -23s24.5 -34 24.5 -56c0 -21.333 -8.16699 -39.333 -24.5 -54s-35.833 -22 -58.5 -22s-41.834 7.33301 -57.501 22
s-23.5 32.667 -23.5 54zM281 829.001c0 22 7.66699 40.667 23 56s34.333 23 57 23c23.333 0 43.166 -7.66699 59.499 -23s24.5 -34 24.5 -56c0 -21.333 -8.16699 -39.333 -24.5 -54s-36.166 -22 -59.499 -22c-22.667 0 -41.667 7.33301 -57 22s-23 32.667 -23 54z" />
    <glyph glyph-name="Yacute" unicode="&#xdd;" horiz-adv-x="700" 
d="M821 700l-371 -449l-49 -251h-155l49 251l-194 449h174l120 -276l229 276h197zM684 838l-245 -102l-43 107l234 131z" />
    <glyph glyph-name="Thorn" unicode="&#xde;" horiz-adv-x="662" 
d="M195 0l-155 0.000976562l136 700h155l-19 -100h115c170.667 0 256 -71 256 -213c0 -80.667 -29.667 -145.334 -89 -194.001s-146.333 -73 -261 -73h-115zM408 455.001h-125l-36 -190h119c53.333 0 93 9.66699 119 29s39 45.333 39 78c0 55.333 -38.667 83 -116 83z" />
    <glyph glyph-name="germandbls" unicode="&#xdf;" horiz-adv-x="567" 
d="M407 738c74 0 127.498 -16.665 160.498 -49.998s49.5 -77.666 49.5 -132.999c0 -34 -8.83301 -67 -26.5 -99s-44.834 -56.333 -81.501 -73c54 -22.667 81 -68.334 81 -137.001c0 -34.667 -4.83301 -66.834 -14.5 -96.501s-24.167 -56.834 -43.5 -81.501
s-45.833 -44 -79.5 -58s-72.5 -21 -116.5 -21s-79.667 9 -107 27l53 123c19.333 -10 39 -15 59 -15c30.667 0 55 9.83301 73 29.5s27 45.167 27 76.5c0 46 -27.667 69 -83 69h-49l26 135h14c40 0 69.5 8.83301 88.5 26.5s28.5 41.5 28.5 71.5
c0 22.667 -6.66699 40.167 -20 52.5s-30.666 18.5 -51.999 18.5c-28.667 0 -52.667 -11.833 -72 -35.5s-35 -67.167 -47 -130.5l-85 -437h-145l85 436c6 32 12.833 60.833 20.5 86.5s18.834 52.5 33.501 80.5s31.5 51.333 50.5 70s43.333 34.167 73 46.5
s62.834 18.5 99.501 18.5z" />
    <glyph glyph-name="agrave" unicode="&#xe0;" horiz-adv-x="576" 
d="M374 0l10.001 47.001c-28 -34.667 -74.667 -52 -140 -52c-60.667 0 -109 19.667 -145 59s-54 90.333 -54 153c0 101.333 26.5 180.666 79.5 237.999s121.5 86 205.5 86c63.333 0 106.666 -14 129.999 -42l7 31h133l-97 -520h-129zM289.001 125.001
c22 0 43.3311 5.83203 63.998 17.499s36.667 26.834 48 45.501l32 161c-19.333 34.667 -51.666 52 -96.999 52c-42.667 0 -77.667 -15.5 -105 -46.5s-41 -72.167 -41 -123.5c0 -33.333 9.33301 -59.333 28 -78s42.334 -28 71.001 -28zM379.999 585l-128 176l123 72l98 -189z
" />
    <glyph glyph-name="aacute" unicode="&#xe1;" horiz-adv-x="576" 
d="M374 0l10.001 47.001c-28 -34.667 -74.667 -52 -140 -52c-60.667 0 -109 19.667 -145 59s-54 90.333 -54 153c0 101.333 26.5 180.666 79.5 237.999s121.5 86 205.5 86c63.333 0 106.666 -14 129.999 -42l7 31h133l-97 -520h-129zM289.001 125.001
c22 0 43.3311 5.83203 63.998 17.499s36.667 26.834 48 45.501l32 161c-19.333 34.667 -51.666 52 -96.999 52c-42.667 0 -77.667 -15.5 -105 -46.5s-41 -72.167 -41 -123.5c0 -33.333 9.33301 -59.333 28 -78s42.334 -28 71.001 -28zM544.999 739l-148 -149l-92 81l141 162
z" />
    <glyph glyph-name="acircumflex" unicode="&#xe2;" horiz-adv-x="576" 
d="M374 0l10.001 47.001c-28 -34.667 -74.667 -52 -140 -52c-60.667 0 -109 19.667 -145 59s-54 90.333 -54 153c0 101.333 26.5 180.666 79.5 237.999s121.5 86 205.5 86c63.333 0 106.666 -14 129.999 -42l7 31h133l-97 -520h-129zM289.001 125.001
c22 0 43.3311 5.83203 63.998 17.499s36.667 26.834 48 45.501l32 161c-19.333 34.667 -51.666 52 -96.999 52c-42.667 0 -77.667 -15.5 -105 -46.5s-41 -72.167 -41 -123.5c0 -33.333 9.33301 -59.333 28 -78s42.334 -28 71.001 -28zM414.999 796l147 -143l-81 -81l-82 81
l-116 -79l-59 90l187 132h4z" />
    <glyph glyph-name="atilde" unicode="&#xe3;" horiz-adv-x="576" 
d="M374 0l10.001 47.001c-28 -34.667 -74.667 -52 -140 -52c-60.667 0 -109 19.667 -145 59s-54 90.333 -54 153c0 101.333 26.5 180.666 79.5 237.999s121.5 86 205.5 86c63.333 0 106.666 -14 129.999 -42l7 31h133l-97 -520h-129zM289.001 125.001
c22 0 43.3311 5.83203 63.998 17.499s36.667 26.834 48 45.501l32 161c-19.333 34.667 -51.666 52 -96.999 52c-42.667 0 -77.667 -15.5 -105 -46.5s-41 -72.167 -41 -123.5c0 -33.333 9.33301 -59.333 28 -78s42.334 -28 71.001 -28zM267.999 599l-55.999 67.001
c16 21.333 35.833 39.666 59.5 54.999s47.5 23 71.5 23c18 0 39.5 -6.5 64.5 -19.5s43.833 -19.5 56.5 -19.5c23.333 0 45.666 9 66.999 27l45 -75c-41.333 -48 -82 -72 -122 -72c-18.667 0 -40.667 6.5 -66 19.5s-45.333 19.5 -60 19.5c-18 0 -38 -8.33301 -60 -25z" />
    <glyph glyph-name="adieresis" unicode="&#xe4;" horiz-adv-x="576" 
d="M374 0l10.001 47.001c-28 -34.667 -74.667 -52 -140 -52c-60.667 0 -109 19.667 -145 59s-54 90.333 -54 153c0 101.333 26.5 180.666 79.5 237.999s121.5 86 205.5 86c63.333 0 106.666 -14 129.999 -42l7 31h133l-97 -520h-129zM289.001 125.001
c22 0 43.3311 5.83203 63.998 17.499s36.667 26.834 48 45.501l32 161c-19.333 34.667 -51.666 52 -96.999 52c-42.667 0 -77.667 -15.5 -105 -46.5s-41 -72.167 -41 -123.5c0 -33.333 9.33301 -59.333 28 -78s42.334 -28 71.001 -28zM403.999 659
c0 20 7.16699 37.167 21.5 51.5s32.166 21.5 53.499 21.5s39.5 -7.16699 54.5 -21.5s22.5 -31.5 22.5 -51.5s-7.5 -36.833 -22.5 -50.5s-33.167 -20.5 -54.5 -20.5s-39.166 6.66699 -53.499 20s-21.5 30.333 -21.5 51zM207.999 659c0 20 7.16699 37.167 21.5 51.5
s32.166 21.5 53.499 21.5s39.5 -7.16699 54.5 -21.5s22.5 -31.5 22.5 -51.5s-7.5 -36.833 -22.5 -50.5s-33.167 -20.5 -54.5 -20.5s-39.166 6.66699 -53.499 20s-21.5 30.333 -21.5 51z" />
    <glyph glyph-name="aring" unicode="&#xe5;" horiz-adv-x="576" 
d="M374 0l10.001 47.001c-28 -34.667 -74.667 -52 -140 -52c-60.667 0 -109 19.667 -145 59s-54 90.333 -54 153c0 101.333 26.5 180.666 79.5 237.999s121.5 86 205.5 86c63.333 0 106.666 -14 129.999 -42l7 31h133l-97 -520h-129zM289.001 125.001
c22 0 43.3311 5.83203 63.998 17.499s36.667 26.834 48 45.501l32 161c-19.333 34.667 -51.666 52 -96.999 52c-42.667 0 -77.667 -15.5 -105 -46.5s-41 -72.167 -41 -123.5c0 -33.333 9.33301 -59.333 28 -78s42.334 -28 71.001 -28zM260.999 688
c0 38 14.668 71.166 44.001 99.499s66.666 42.5 111.999 42.5c39.333 0 70 -10.5 92 -31.5s33 -48.167 33 -81.5c0 -38 -14.5 -71.333 -43.5 -100s-66.167 -43 -111.5 -43c-40 0 -71 10.333 -93 31s-33 48.334 -33 83.001zM358 693.999c0 -23.333 13 -35.001 39 -35.001
c14 0 25.667 5 35 15s14 22.667 14 38c0 22 -13 33 -39 33c-14 0 -25.667 -4.66699 -35 -14s-14 -21.666 -14 -36.999z" />
    <glyph glyph-name="ae" unicode="&#xe6;" horiz-adv-x="829" 
d="M717 179l82.0029 -78.0029c-49.333 -72.667 -129.666 -109 -240.999 -109c-78.667 0 -138 27.333 -178 82c-56 -53.333 -123.667 -80 -203 -80c-59.333 0 -102.5 13.333 -129.5 40s-40.5 62.334 -40.5 107.001c0 60.667 25.5 108.167 76.5 142.5s111.5 51.5 181.5 51.5
c36.667 0 66 -4.33301 88 -13c2.66699 12.667 3 24.334 1 35.001c-4.66699 26 -27.334 39 -68.001 39c-26.667 0 -50.334 -3.5 -71.001 -10.5s-45.667 -20.167 -75 -39.5l-62 101c62.667 56 145.334 84 248.001 84c63.333 0 109.666 -19.333 138.999 -58
c53.333 38.667 111.666 58 174.999 58c62.667 0 111 -12.667 145 -38s51 -63.666 51 -114.999c0 -46.667 -16.667 -85.667 -50 -117s-76.333 -52.5 -129 -63.5s-109.334 -12.167 -170.001 -3.5c12.667 -44.667 45 -67 97 -67c58.667 0 103 17.333 133 52zM210.003 118.997
c22.667 0 44.666 5.66699 65.999 17s38 25.333 50 42l4 24c-18.667 8.66699 -42.667 13 -72 13s-54.166 -5.33301 -74.499 -16s-30.833 -25 -31.5 -43c-0.666992 -14 3.5 -23.667 12.5 -29s24.167 -8 45.5 -8zM634.002 395.997c-27.333 0 -53.168 -7.33203 -77.501 -21.999
s-43.166 -35.334 -56.499 -62.001c58.667 -3.33301 105.167 0 139.5 10s51.5 23.667 51.5 41c0 22 -19 33 -57 33z" />
    <glyph glyph-name="ccedilla" unicode="&#xe7;" horiz-adv-x="531" 
d="M105 -161l57.0029 69c16 -18.667 41.333 -28 76 -28c21.333 0 32 5 32 15s-14 15 -42 15h-6l16 85c-57.333 7.33301 -103.833 31 -139.5 71s-53.5 90 -53.5 150c0 92 29.333 167.5 88 226.5s131.667 88.5 219 88.5c59.333 0 106.666 -13 141.999 -39
s57.666 -58 66.999 -96l-106 -65c-24 46.667 -60.333 70 -109 70c-43.333 0 -80.166 -15.5 -110.499 -46.5s-45.5 -71.167 -45.5 -120.5c0 -35.333 11.167 -62.833 33.5 -82.5s49.166 -29.5 80.499 -29.5c59.333 0 103.666 22 132.999 66l92 -82
c-27.333 -38 -58.333 -65.5 -93 -82.5s-75.667 -27.167 -123 -30.5l-2 -19c59.333 -5.33301 89 -30.333 89 -75c0 -36 -15.5 -63.167 -46.5 -81.5s-70.833 -27.5 -119.5 -27.5c-56.667 0 -99.667 16.333 -129 49z" />
    <glyph glyph-name="egrave" unicode="&#xe8;" 
d="M442 177l78.998 -84.001c-32 -38 -68.167 -64.5 -108.5 -79.5s-86.166 -22.5 -137.499 -22.5c-67.333 0 -122.5 20.833 -165.5 62.5s-64.5 95.834 -64.5 162.501c0 92 29.667 167.833 89 227.5s133.666 89.5 222.999 89.5c62.667 0 111 -13 145 -39s51 -64.667 51 -116
c0 -59.333 -27.167 -105.833 -81.5 -139.5s-121.166 -50.5 -200.499 -50.5c-25.333 0 -51 2 -77 6c12.667 -48.667 48.334 -73 107.001 -73c54.667 0 101.667 18.667 141 56zM350.998 402.999c-31.333 0 -60 -8.16699 -86 -24.5s-45.333 -38.5 -58 -66.5
c9.33301 -0.666992 23 -1 41 -1c48.667 0 87.5 4.83301 116.5 14.5s43.5 22.167 43.5 37.5c0 26.667 -19 40 -57 40zM390.998 584.999l-128 176l123 72l98 -189z" />
    <glyph glyph-name="eacute" unicode="&#xe9;" 
d="M442 177l78.998 -84.001c-32 -38 -68.167 -64.5 -108.5 -79.5s-86.166 -22.5 -137.499 -22.5c-67.333 0 -122.5 20.833 -165.5 62.5s-64.5 95.834 -64.5 162.501c0 92 29.667 167.833 89 227.5s133.666 89.5 222.999 89.5c62.667 0 111 -13 145 -39s51 -64.667 51 -116
c0 -59.333 -27.167 -105.833 -81.5 -139.5s-121.166 -50.5 -200.499 -50.5c-25.333 0 -51 2 -77 6c12.667 -48.667 48.334 -73 107.001 -73c54.667 0 101.667 18.667 141 56zM350.998 402.999c-31.333 0 -60 -8.16699 -86 -24.5s-45.333 -38.5 -58 -66.5
c9.33301 -0.666992 23 -1 41 -1c48.667 0 87.5 4.83301 116.5 14.5s43.5 22.167 43.5 37.5c0 26.667 -19 40 -57 40zM557.998 738.999l-148 -149l-92 81l141 162z" />
    <glyph glyph-name="ecircumflex" unicode="&#xea;" 
d="M442 177l78.998 -84.001c-32 -38 -68.167 -64.5 -108.5 -79.5s-86.166 -22.5 -137.499 -22.5c-67.333 0 -122.5 20.833 -165.5 62.5s-64.5 95.834 -64.5 162.501c0 92 29.667 167.833 89 227.5s133.666 89.5 222.999 89.5c62.667 0 111 -13 145 -39s51 -64.667 51 -116
c0 -59.333 -27.167 -105.833 -81.5 -139.5s-121.166 -50.5 -200.499 -50.5c-25.333 0 -51 2 -77 6c12.667 -48.667 48.334 -73 107.001 -73c54.667 0 101.667 18.667 141 56zM350.998 402.999c-31.333 0 -60 -8.16699 -86 -24.5s-45.333 -38.5 -58 -66.5
c9.33301 -0.666992 23 -1 41 -1c48.667 0 87.5 4.83301 116.5 14.5s43.5 22.167 43.5 37.5c0 26.667 -19 40 -57 40zM416.998 795.999l147 -143l-81 -81l-82 81l-116 -79l-59 90l187 132h4z" />
    <glyph glyph-name="edieresis" unicode="&#xeb;" 
d="M442 177l78.998 -84.001c-32 -38 -68.167 -64.5 -108.5 -79.5s-86.166 -22.5 -137.499 -22.5c-67.333 0 -122.5 20.833 -165.5 62.5s-64.5 95.834 -64.5 162.501c0 92 29.667 167.833 89 227.5s133.666 89.5 222.999 89.5c62.667 0 111 -13 145 -39s51 -64.667 51 -116
c0 -59.333 -27.167 -105.833 -81.5 -139.5s-121.166 -50.5 -200.499 -50.5c-25.333 0 -51 2 -77 6c12.667 -48.667 48.334 -73 107.001 -73c54.667 0 101.667 18.667 141 56zM350.998 402.999c-31.333 0 -60 -8.16699 -86 -24.5s-45.333 -38.5 -58 -66.5
c9.33301 -0.666992 23 -1 41 -1c48.667 0 87.5 4.83301 116.5 14.5s43.5 22.167 43.5 37.5c0 26.667 -19 40 -57 40zM385.998 658.999c0 20 7.16699 37.167 21.5 51.5s32.166 21.5 53.499 21.5s39.5 -7.16699 54.5 -21.5s22.5 -31.5 22.5 -51.5s-7.5 -36.833 -22.5 -50.5
s-33.167 -20.5 -54.5 -20.5s-39.166 6.66699 -53.499 20s-21.5 30.333 -21.5 51zM189.998 658.999c0 20 7.16699 37.167 21.5 51.5s32.166 21.5 53.499 21.5s39.5 -7.16699 54.5 -21.5s22.5 -31.5 22.5 -51.5s-7.5 -36.833 -22.5 -50.5s-33.167 -20.5 -54.5 -20.5
s-39.166 6.66699 -53.499 20s-21.5 30.333 -21.5 51z" />
    <glyph glyph-name="igrave" unicode="&#xec;" horiz-adv-x="250" 
d="M34 0l96 520h138l-96 -520h-138zM214 585l-128 176l123 72l98 -189z" />
    <glyph glyph-name="iacute" unicode="&#xed;" horiz-adv-x="250" 
d="M34 0l96 520h138l-96 -520h-138zM406 739l-148 -149l-92 81l141 162z" />
    <glyph glyph-name="icircumflex" unicode="&#xee;" horiz-adv-x="250" 
d="M34 0l96 520h138l-96 -520h-138zM244 796l147 -143l-81 -81l-82 81l-116 -79l-59 90l187 132h4z" />
    <glyph glyph-name="idieresis" unicode="&#xef;" horiz-adv-x="250" 
d="M34 0l97 520h137l-96 -520h-138zM239 659c0 20 7.16699 37.167 21.5 51.5s32.166 21.5 53.499 21.5s39.5 -7.16699 54.5 -21.5s22.5 -31.5 22.5 -51.5s-7.5 -36.833 -22.5 -50.5s-33.167 -20.5 -54.5 -20.5s-39.166 6.66699 -53.499 20s-21.5 30.333 -21.5 51zM59 659
c0 20 7.16699 37.167 21.5 51.5s32.166 21.5 53.499 21.5s39.5 -7.16699 54.5 -21.5s22.5 -31.5 22.5 -51.5s-7.5 -36.833 -22.5 -50.5s-33.167 -20.5 -54.5 -20.5s-39.166 6.66699 -53.499 20s-21.5 30.333 -21.5 51z" />
    <glyph glyph-name="eth" unicode="&#xf0;" horiz-adv-x="583" 
d="M369 780l87 -38.999l-26 -42c107.333 -56.667 161 -152 161 -286c0 -69.333 -9 -131.333 -27 -186s-42.5 -98.834 -73.5 -132.501s-65.833 -59.167 -104.5 -76.5s-79.667 -26 -123 -26c-72.667 0 -129.5 20.833 -170.5 62.5s-61.5 93.167 -61.5 154.5
c0 50 9.16699 95.333 27.5 136s42.833 73.5 73.5 98.5s64.667 44.167 102 57.5s76.333 20 117 20c38 0 69.667 -8.66699 95 -26c-13.333 42 -41 74 -83 96l-32 -53l-88 39l27 44c-10.667 2 -29.667 4.33301 -57 7l55 120c23.333 -3.33301 47.333 -8.33301 72 -15z
M176 232.001c0 -34 9.49805 -60 28.498 -78s43.5 -27 73.5 -27c48.667 0 88.834 20.167 120.501 60.5s47.5 85.5 47.5 135.5v9v13.5v10.5c-8.66699 12.667 -22.167 22.5 -40.5 29.5s-36.833 10.5 -55.5 10.5c-47.333 0 -88.166 -15.667 -122.499 -47
s-51.5 -70.333 -51.5 -117z" />
    <glyph glyph-name="ntilde" unicode="&#xf1;" horiz-adv-x="557" 
d="M24 0l97.001 520h138l-5 -33c35.333 28.667 77.666 43 126.999 43c117.333 0 176 -52.667 176 -158c0 -27.333 -2.66699 -54.333 -8 -81l-58 -291h-138l57 284c2.66699 13.333 4 26.333 4 39c0.666992 26.667 -5.33301 46.167 -18 58.5s-32.667 18.5 -60 18.5
c-18.667 0 -38.167 -5.33301 -58.5 -16s-37.833 -26 -52.5 -46l-64 -338h-137zM256.001 599l-55.999 67.001c16 21.333 35.833 39.666 59.5 54.999s47.5 23 71.5 23c18 0 39.5 -6.5 64.5 -19.5s43.833 -19.5 56.5 -19.5c23.333 0 45.666 9 66.999 27l45 -75
c-41.333 -48 -82 -72 -122 -72c-18.667 0 -40.667 6.5 -66 19.5s-45.333 19.5 -60 19.5c-18 0 -38 -8.33301 -60 -25z" />
    <glyph glyph-name="ograve" unicode="&#xf2;" horiz-adv-x="587" 
d="M45 211c0 91.333 30.168 167.499 90.501 228.499s134.166 91.5 221.499 91.5c72 0 129 -20.5 171 -61.5s63 -93.167 63 -156.5c0 -93.333 -28.833 -170.166 -86.5 -230.499s-132.167 -90.5 -223.5 -90.5c-74.667 0 -132.667 20.5 -174 61.5s-62 93.5 -62 157.5z
M190.001 236.999c0 -36.667 9.5 -65.001 28.5 -85.001s46.833 -30 83.5 -30c36 0 69 16.333 99 49s45 74.334 45 125.001c0 30 -9 55 -27 75s-43.667 30 -77 30c-38.667 0 -73.667 -15.5 -105 -46.5s-47 -70.167 -47 -117.5zM404.001 584.998l-128 176l123 72l98 -189z" />
    <glyph glyph-name="oacute" unicode="&#xf3;" horiz-adv-x="587" 
d="M45 211c0 91.333 30.168 167.499 90.501 228.499s134.166 91.5 221.499 91.5c72 0 129 -20.5 171 -61.5s63 -93.167 63 -156.5c0 -93.333 -28.833 -170.166 -86.5 -230.499s-132.167 -90.5 -223.5 -90.5c-74.667 0 -132.667 20.5 -174 61.5s-62 93.5 -62 157.5z
M190.001 236.999c0 -36.667 9.5 -65.001 28.5 -85.001s46.833 -30 83.5 -30c36 0 69 16.333 99 49s45 74.334 45 125.001c0 30 -9 55 -27 75s-43.667 30 -77 30c-38.667 0 -73.667 -15.5 -105 -46.5s-47 -70.167 -47 -117.5zM579.001 738.998l-148 -149l-92 81l141 162z" />
    <glyph glyph-name="ocircumflex" unicode="&#xf4;" horiz-adv-x="587" 
d="M45 211c0 91.333 30.168 167.499 90.501 228.499s134.166 91.5 221.499 91.5c72 0 129 -20.5 171 -61.5s63 -93.167 63 -156.5c0 -93.333 -28.833 -170.166 -86.5 -230.499s-132.167 -90.5 -223.5 -90.5c-74.667 0 -132.667 20.5 -174 61.5s-62 93.5 -62 157.5z
M190.001 236.999c0 -36.667 9.5 -65.001 28.5 -85.001s46.833 -30 83.5 -30c36 0 69 16.333 99 49s45 74.334 45 125.001c0 30 -9 55 -27 75s-43.667 30 -77 30c-38.667 0 -73.667 -15.5 -105 -46.5s-47 -70.167 -47 -117.5zM409.001 795.998l147 -143l-81 -81l-82 81
l-116 -79l-59 90l187 132h4z" />
    <glyph glyph-name="otilde" unicode="&#xf5;" horiz-adv-x="587" 
d="M45 211c0 91.333 30.168 167.499 90.501 228.499s134.166 91.5 221.499 91.5c72 0 129 -20.5 171 -61.5s63 -93.167 63 -156.5c0 -93.333 -28.833 -170.166 -86.5 -230.499s-132.167 -90.5 -223.5 -90.5c-74.667 0 -132.667 20.5 -174 61.5s-62 93.5 -62 157.5z
M190.001 236.999c0 -36.667 9.5 -65.001 28.5 -85.001s46.833 -30 83.5 -30c36 0 69 16.333 99 49s45 74.334 45 125.001c0 30 -9 55 -27 75s-43.667 30 -77 30c-38.667 0 -73.667 -15.5 -105 -46.5s-47 -70.167 -47 -117.5zM271.001 598.998l-55.999 67.001
c16 21.333 35.833 39.666 59.5 54.999s47.5 23 71.5 23c18 0 39.5 -6.5 64.5 -19.5s43.833 -19.5 56.5 -19.5c23.333 0 45.666 9 66.999 27l45 -75c-41.333 -48 -82 -72 -122 -72c-18 0 -40 6.5 -66 19.5s-46 19.5 -60 19.5c-18 0 -38 -8.33301 -60 -25z" />
    <glyph glyph-name="odieresis" unicode="&#xf6;" horiz-adv-x="587" 
d="M45 211c0 91.333 30.168 167.499 90.501 228.499s134.166 91.5 221.499 91.5c72 0 129 -20.5 171 -61.5s63 -93.167 63 -156.5c0 -93.333 -28.833 -170.166 -86.5 -230.499s-132.167 -90.5 -223.5 -90.5c-74.667 0 -132.667 20.5 -174 61.5s-62 93.5 -62 157.5z
M190.001 236.999c0 -36.667 9.5 -65.001 28.5 -85.001s46.833 -30 83.5 -30c36 0 69 16.333 99 49s45 74.334 45 125.001c0 30 -9 55 -27 75s-43.667 30 -77 30c-38.667 0 -73.667 -15.5 -105 -46.5s-47 -70.167 -47 -117.5zM404.001 658.998c0 20 7.16699 37.167 21.5 51.5
s32.166 21.5 53.499 21.5s39.5 -7.16699 54.5 -21.5s22.5 -31.5 22.5 -51.5s-7.5 -36.833 -22.5 -50.5s-33.167 -20.5 -54.5 -20.5s-39.166 6.66699 -53.499 20s-21.5 30.333 -21.5 51zM208.001 658.998c0 20 7.16699 37.167 21.5 51.5s32.166 21.5 53.499 21.5
s39.5 -7.16699 54.5 -21.5s22.5 -31.5 22.5 -51.5s-7.5 -36.833 -22.5 -50.5s-33.167 -20.5 -54.5 -20.5s-39.166 6.66699 -53.499 20s-21.5 30.333 -21.5 51z" />
    <glyph glyph-name="divide" unicode="&#xf7;" horiz-adv-x="555" 
d="M241 543c0 18 7.66504 34.5 22.998 49.5s35 22.5 59 22.5c22.667 0 41.834 -7.5 57.501 -22.5s23.5 -31.5 23.5 -49.5c0 -19.333 -7.66699 -36.333 -23 -51s-34.666 -22 -57.999 -22c-24.667 0 -44.5 7.16699 -59.5 21.5s-22.5 31.5 -22.5 51.5zM240.998 175
c0 19.333 7.5 36.168 22.5 50.501s34.833 21.5 59.5 21.5c23.333 0 42.666 -7.33301 57.999 -22s23 -31.334 23 -50.001c0 -20 -7.66699 -37.333 -23 -52s-34.666 -22 -57.999 -22c-24.667 0 -44.5 7.16699 -59.5 21.5s-22.5 31.833 -22.5 52.5zM74.998 296.002v126h495
v-126h-495z" />
    <glyph glyph-name="oslash" unicode="&#xf8;" horiz-adv-x="604" 
d="M65 215c0 53.333 11.998 103.668 35.998 151.001s60.833 86.666 110.5 117.999s106.834 47 171.501 47c54.667 0 98 -9 130 -27l60 59l91 -86l-56 -55c21.333 -31.333 32 -69.666 32 -114.999c0 -88 -28.167 -162.5 -84.5 -223.5s-135.833 -91.5 -238.5 -91.5
c-41.333 0 -82.666 8.33301 -123.999 25l-65 -67l-91 90l58 60c-20 35.333 -30 73.666 -30 114.999zM208.998 230.002c0 -2 0.166992 -5.16895 0.5 -9.50195s0.5 -7.16602 0.5 -8.49902l191 182c-9.33301 4.66699 -22 7 -38 7c-42.667 0 -79 -16.167 -109 -48.5
s-45 -73.166 -45 -122.499zM495.998 293c0 2 -0.167969 5.33301 -0.500977 10s-0.5 7.66699 -0.5 9l-186 -184c10.667 -4 22.334 -6 35.001 -6c47.333 0 84.5 17.5 111.5 52.5s40.5 74.5 40.5 118.5z" />
    <glyph glyph-name="ugrave" unicode="&#xf9;" horiz-adv-x="550" 
d="M574 520l-96.999 -520h-138l10 44c-30.667 -34.667 -73.334 -52 -128.001 -52c-55.333 0 -98 13.333 -128 40s-45 63.334 -45 110.001c0 25.333 3 53.333 9 84l60 294h138l-58 -283c-2.66699 -12.667 -4 -26 -4 -40c0.666992 -24.667 6 -43.334 16 -56.001s27 -19 51 -19
c50.667 0 88.667 23 114 69l62 329h138zM391.001 585l-128 176l123 72l98 -189z" />
    <glyph glyph-name="uacute" unicode="&#xfa;" horiz-adv-x="550" 
d="M574 520l-96.999 -520h-138l10 44c-30.667 -34.667 -73.334 -52 -128.001 -52c-55.333 0 -98 13.333 -128 40s-45 63.334 -45 110.001c0 25.333 3 53.333 9 84l60 294h138l-58 -283c-2.66699 -12.667 -4 -26 -4 -40c0.666992 -24.667 6 -43.334 16 -56.001s27 -19 51 -19
c50.667 0 88.667 23 114 69l62 329h138zM544.001 739l-148 -149l-92 81l141 162z" />
    <glyph glyph-name="ucircumflex" unicode="&#xfb;" horiz-adv-x="550" 
d="M574 520l-96.999 -520h-138l10 44c-30.667 -34.667 -73.334 -52 -128.001 -52c-55.333 0 -98 13.333 -128 40s-45 63.334 -45 110.001c0 25.333 3 53.333 9 84l60 294h138l-58 -283c-2.66699 -12.667 -4 -26 -4 -40c0.666992 -24.667 6 -43.334 16 -56.001s27 -19 51 -19
c50.667 0 88.667 23 114 69l62 329h138zM388.001 796l147 -143l-81 -81l-82 81l-116 -79l-59 90l187 132h4z" />
    <glyph glyph-name="udieresis" unicode="&#xfc;" horiz-adv-x="550" 
d="M574 520l-96.999 -520h-138l10 44c-30.667 -34.667 -73.334 -52 -128.001 -52c-55.333 0 -98 13.333 -128 40s-45 63.334 -45 110.001c0 25.333 3 53.333 9 84l60 294h138l-58 -283c-2.66699 -12.667 -4 -26 -4 -40c0.666992 -24.667 6 -43.334 16 -56.001s27 -19 51 -19
c50.667 0 88.667 23 114 69l62 329h138zM384.001 659c0 20 7.16699 37.167 21.5 51.5s32.166 21.5 53.499 21.5s39.5 -7.16699 54.5 -21.5s22.5 -31.5 22.5 -51.5s-7.5 -36.833 -22.5 -50.5s-33.167 -20.5 -54.5 -20.5s-39.166 6.66699 -53.499 20s-21.5 30.333 -21.5 51z
M188.001 659c0 20 7.16699 37.167 21.5 51.5s32.166 21.5 53.499 21.5s39.5 -7.16699 54.5 -21.5s22.5 -31.5 22.5 -51.5s-7.5 -36.833 -22.5 -50.5s-33.167 -20.5 -54.5 -20.5s-39.166 6.66699 -53.499 20s-21.5 30.333 -21.5 51z" />
    <glyph glyph-name="yacute" unicode="&#xfd;" horiz-adv-x="526" 
d="M4 -185l73.9961 119c6.66699 -5.33301 13.334 -8 20.001 -8c9.33301 0 20.333 6 33 18s24.667 28.333 36 49l30 56l-148 471h150l89 -319l172 319h151l-283 -496c-49.333 -86 -91.666 -146.333 -126.999 -181s-73.666 -52 -114.999 -52c-35.333 0 -62.666 8 -81.999 24z
M549.996 739l-148 -149l-92 81l141 162z" />
    <glyph glyph-name="thorn" unicode="&#xfe;" horiz-adv-x="556" 
d="M-18 -200l171 930.001h136l-44 -237c30.667 25.333 69.667 38 117 38c66 0 116 -18 150 -54s51 -82.667 51 -140c0 -104.667 -28.833 -188.334 -86.5 -251.001s-126.167 -94 -205.5 -94c-52.667 0 -90.667 8.66699 -114 26l-40 -218h-135zM322 396.001
c-44 0 -79.333 -19.667 -106 -59l-31 -166c6 -12.667 16 -23.167 30 -31.5s30.333 -12.5 49 -12.5c41.333 0 77.333 15 108 45s46 71.333 46 124c0 66.667 -32 100 -96 100z" />
    <glyph glyph-name="ydieresis" unicode="&#xff;" horiz-adv-x="526" 
d="M4 -185l73.9961 119c6.66699 -5.33301 13.334 -8 20.001 -8c9.33301 0 20.333 6 33 18s24.667 28.333 36 49l30 56l-148 471h150l89 -319l172 319h151l-283 -496c-49.333 -86 -91.666 -146.333 -126.999 -181s-73.666 -52 -114.999 -52c-35.333 0 -62.666 8 -81.999 24z
M366.996 659c0 20 7.16699 37.167 21.5 51.5s32.166 21.5 53.499 21.5s39.5 -7.16699 54.5 -21.5s22.5 -31.5 22.5 -51.5s-7.5 -36.833 -22.5 -50.5s-33.167 -20.5 -54.5 -20.5s-39.166 6.66699 -53.499 20s-21.5 30.333 -21.5 51zM170.996 659
c0 20 7.16699 37.167 21.5 51.5s32.166 21.5 53.499 21.5s39.5 -7.16699 54.5 -21.5s22.5 -31.5 22.5 -51.5s-7.5 -36.833 -22.5 -50.5s-33.167 -20.5 -54.5 -20.5s-39.166 6.66699 -53.499 20s-21.5 30.333 -21.5 51z" />
    <glyph glyph-name="Amacron" unicode="&#x100;" horiz-adv-x="721" 
d="M-29 0l443 700h115l171 -700h-155l-32 130h-288l-82 -130h-172zM433 465l-128 -204h177zM332 770v120h314v-120h-314z" />
    <glyph glyph-name="amacron" unicode="&#x101;" horiz-adv-x="576" 
d="M374 0l10.001 47.001c-28 -34.667 -74.667 -52 -140 -52c-60.667 0 -109 19.667 -145 59s-54 90.333 -54 153c0 101.333 26.5 180.666 79.5 237.999s121.5 86 205.5 86c63.333 0 106.666 -14 129.999 -42l7 31h133l-97 -520h-129zM289.001 125.001
c22 0 43.3311 5.83203 63.998 17.499s36.667 26.834 48 45.501l32 161c-19.333 34.667 -51.666 52 -96.999 52c-42.667 0 -77.667 -15.5 -105 -46.5s-41 -72.167 -41 -123.5c0 -33.333 9.33301 -59.333 28 -78s42.334 -28 71.001 -28zM242.999 610v120h294v-120h-294z" />
    <glyph glyph-name="Abreve" unicode="&#x102;" horiz-adv-x="721" 
d="M-29 0l443 700h115l171 -700h-155l-32 130h-288l-82 -130h-172zM433 465l-128 -204h177zM284 867l76.001 73.001c31.333 -40 75 -60 131 -60c57.333 0 108 20 152 60l44 -86c-24.667 -30.667 -55.834 -55.667 -93.501 -75s-76.834 -29 -117.501 -29
c-41.333 0 -78.666 10.667 -111.999 32s-60 49.666 -80 84.999z" />
    <glyph glyph-name="abreve" unicode="&#x103;" horiz-adv-x="576" 
d="M374 0l10.001 47.001c-28 -34.667 -74.667 -52 -140 -52c-60.667 0 -109 19.667 -145 59s-54 90.333 -54 153c0 101.333 26.5 180.666 79.5 237.999s121.5 86 205.5 86c63.333 0 106.666 -14 129.999 -42l7 31h133l-97 -520h-129zM289.001 125.001
c22 0 43.3311 5.83203 63.998 17.499s36.667 26.834 48 45.501l32 161c-19.333 34.667 -51.666 52 -96.999 52c-42.667 0 -77.667 -15.5 -105 -46.5s-41 -72.167 -41 -123.5c0 -33.333 9.33301 -59.333 28 -78s42.334 -28 71.001 -28zM229.999 711l77.002 71
c24 -34.667 55.333 -52 94 -52c22.667 0 45 5 67 15s39.667 21.667 53 35l41 -78c-16 -19.333 -30.167 -34.5 -42.5 -45.5s-30 -21.5 -53 -31.5s-48.5 -15 -76.5 -15c-36.667 0 -69.834 10.167 -99.501 30.5s-49.834 43.833 -60.501 70.5z" />
    <glyph glyph-name="Aogonek" unicode="&#x104;" horiz-adv-x="721" 
d="M643 -70l27 -90.001c-10.667 -10.667 -28.167 -20 -52.5 -28s-49.5 -12 -75.5 -12c-38 0 -68.833 6.83301 -92.5 20.5s-35.5 33.834 -35.5 60.501c0 57.333 43.333 98.333 130 123l-31 126h-288l-82 -130h-172l443 700h115l171 -700h-15c-29.333 0 -55 -6.33301 -77 -19
s-33 -26 -33 -40s8.66699 -21 26 -21c12 0 26 3.33301 42 10zM433 464.999l-128 -204h177z" />
    <glyph glyph-name="aogonek" unicode="&#x105;" horiz-adv-x="576" 
d="M461 -70l27 -90c-10.667 -10.667 -28.167 -20 -52.5 -28s-49.5 -12 -75.5 -12c-38 0 -68.833 7 -92.5 21s-35.5 35.333 -35.5 64c0 62.667 48 104.334 144 125.001l8 37c-28 -34.667 -74.667 -52 -140 -52c-60.667 0 -109 19.667 -145 59s-54 90.333 -54 153
c0 101.333 26.5 180.666 79.5 237.999s121.5 86 205.5 86c63.333 0 106.666 -14 129.999 -42l7 31h133l-93 -497h1l-5 -23c-29.333 0 -56.666 -5.33301 -81.999 -16s-38 -23.667 -38 -39c0 -8.66699 3.5 -15 10.5 -19s14.5 -6 22.5 -6c14.667 0 29.667 3.33301 45 10z
M289 125c22 0 43.3311 5.83203 63.998 17.499s36.667 26.834 48 45.501l32 161c-19.333 34.667 -51.666 52 -96.999 52c-42.667 0 -77.667 -15.5 -105 -46.5s-41 -72.167 -41 -123.5c0 -33.333 9.33301 -59.333 28 -78s42.334 -28 71.001 -28z" />
    <glyph glyph-name="Cacute" unicode="&#x106;" horiz-adv-x="706" 
d="M621 226l91.998 -97c-30.667 -44.667 -71.667 -79.334 -123 -104.001s-110.666 -37 -177.999 -37c-36 0 -70.5 3.66699 -103.5 11s-64.333 19.333 -94 36s-55.5 37.334 -77.5 62.001s-39.5 55.167 -52.5 91.5s-19.5 76.833 -19.5 121.5
c0 113.333 39.333 208.666 118 285.999s180 116 304 116c124.667 0 214.334 -45.333 269.001 -136l-112 -89c-40 50 -95.667 75 -167 75c-74 0 -134.333 -23.167 -181 -69.5s-70 -103.166 -70 -170.499c0 -54 17.667 -98.167 53 -132.5s82 -51.5 140 -51.5
c84.667 0 152 29.333 202 88zM693.998 838l-245 -102l-43 107l234 131z" />
    <glyph glyph-name="cacute" unicode="&#x107;" horiz-adv-x="531" 
d="M437 188l92.0029 -81.999c-30.667 -42.667 -66 -72.334 -106 -89.001s-88.333 -25 -145 -25c-67.333 0 -123 20.667 -167 62s-66 95.333 -66 162c0 92 29.333 167.5 88 226.5s131.667 88.5 219 88.5c59.333 0 106.666 -13 141.999 -39s57.666 -58 66.999 -96l-106 -65
c-24 46.667 -60.333 70 -109 70c-43.333 0 -80.166 -15.5 -110.499 -46.5s-45.5 -71.167 -45.5 -120.5c0 -35.333 11.167 -62.833 33.5 -82.5s49.166 -29.5 80.499 -29.5c59.333 0 103.666 22 132.999 66zM580.003 739.001l-148 -149l-92 81l141 162z" />
    <glyph glyph-name="Ccircumflex" unicode="&#x108;" horiz-adv-x="706" 
d="M621 226l91.998 -97c-30.667 -44.667 -71.667 -79.334 -123 -104.001s-110.666 -37 -177.999 -37c-36 0 -70.5 3.66699 -103.5 11s-64.333 19.333 -94 36s-55.5 37.334 -77.5 62.001s-39.5 55.167 -52.5 91.5s-19.5 76.833 -19.5 121.5
c0 113.333 39.333 208.666 118 285.999s180 116 304 116c124.667 0 214.334 -45.333 269.001 -136l-112 -89c-40 50 -95.667 75 -167 75c-74 0 -134.333 -23.167 -181 -69.5s-70 -103.166 -70 -170.499c0 -54 17.667 -98.167 53 -132.5s82 -51.5 140 -51.5
c84.667 0 152 29.333 202 88zM509.998 945l168 -123l-68 -79l-113 76l-143 -76l-40 89l192 113h4z" />
    <glyph glyph-name="ccircumflex" unicode="&#x109;" horiz-adv-x="531" 
d="M437 188l92.0029 -81.999c-30.667 -42.667 -66 -72.334 -106 -89.001s-88.333 -25 -145 -25c-67.333 0 -123 20.667 -167 62s-66 95.333 -66 162c0 92 29.333 167.5 88 226.5s131.667 88.5 219 88.5c59.333 0 106.666 -13 141.999 -39s57.666 -58 66.999 -96l-106 -65
c-24 46.667 -60.333 70 -109 70c-43.333 0 -80.166 -15.5 -110.499 -46.5s-45.5 -71.167 -45.5 -120.5c0 -35.333 11.167 -62.833 33.5 -82.5s49.166 -29.5 80.499 -29.5c59.333 0 103.666 22 132.999 66zM395.003 796.001l147 -143l-81 -81l-82 81l-116 -79l-59 90l187 132
h4z" />
    <glyph glyph-name="Cdotaccent" unicode="&#x10a;" horiz-adv-x="706" 
d="M621 226l91.998 -97c-30.667 -44.667 -71.667 -79.334 -123 -104.001s-110.666 -37 -177.999 -37c-36 0 -70.5 3.66699 -103.5 11s-64.333 19.333 -94 36s-55.5 37.334 -77.5 62.001s-39.5 55.167 -52.5 91.5s-19.5 76.833 -19.5 121.5
c0 113.333 39.333 208.666 118 285.999s180 116 304 116c124.667 0 214.334 -45.333 269.001 -136l-112 -89c-40 50 -95.667 75 -167 75c-74 0 -134.333 -23.167 -181 -69.5s-70 -103.166 -70 -170.499c0 -54 17.667 -98.167 53 -132.5s82 -51.5 140 -51.5
c84.667 0 152 29.333 202 88zM433.998 829c0 22 7.66699 40.667 23 56s34.333 23 57 23c23.333 0 43.166 -7.66699 59.499 -23s24.5 -34 24.5 -56c0 -21.333 -8.16699 -39.333 -24.5 -54s-36.166 -22 -59.499 -22c-22.667 0 -41.667 7.33301 -57 22s-23 32.667 -23 54z" />
    <glyph glyph-name="cdotaccent" unicode="&#x10b;" horiz-adv-x="531" 
d="M437 188l92.0029 -81.999c-30.667 -42.667 -66 -72.334 -106 -89.001s-88.333 -25 -145 -25c-67.333 0 -123 20.667 -167 62s-66 95.333 -66 162c0 92 29.333 167.5 88 226.5s131.667 88.5 219 88.5c59.333 0 106.666 -13 141.999 -39s57.666 -58 66.999 -96l-106 -65
c-24 46.667 -60.333 70 -109 70c-43.333 0 -80.166 -15.5 -110.499 -46.5s-45.5 -71.167 -45.5 -120.5c0 -35.333 11.167 -62.833 33.5 -82.5s49.166 -29.5 80.499 -29.5c59.333 0 103.666 22 132.999 66zM309.003 659.001c0 20 7.16699 37.167 21.5 51.5
s32.166 21.5 53.499 21.5s39.5 -7.16699 54.5 -21.5s22.5 -31.5 22.5 -51.5s-7.5 -36.833 -22.5 -50.5s-33.167 -20.5 -54.5 -20.5s-39.166 6.66699 -53.499 20s-21.5 30.333 -21.5 51z" />
    <glyph glyph-name="Ccaron" unicode="&#x10c;" horiz-adv-x="706" 
d="M621 226l91.998 -97c-30.667 -44.667 -71.667 -79.334 -123 -104.001s-110.666 -37 -177.999 -37c-36 0 -70.5 3.66699 -103.5 11s-64.333 19.333 -94 36s-55.5 37.334 -77.5 62.001s-39.5 55.167 -52.5 91.5s-19.5 76.833 -19.5 121.5
c0 113.333 39.333 208.666 118 285.999s180 116 304 116c124.667 0 214.334 -45.333 269.001 -136l-112 -89c-40 50 -95.667 75 -167 75c-74 0 -134.333 -23.167 -181 -69.5s-70 -103.166 -70 -170.499c0 -54 17.667 -98.167 53 -132.5s82 -51.5 140 -51.5
c84.667 0 152 29.333 202 88zM480.998 743l-168 123l68 79l113 -76l143 76l40 -89l-192 -113h-4z" />
    <glyph glyph-name="ccaron" unicode="&#x10d;" horiz-adv-x="531" 
d="M437 188l92.0029 -81.999c-30.667 -42.667 -66 -72.334 -106 -89.001s-88.333 -25 -145 -25c-67.333 0 -123 20.667 -167 62s-66 95.333 -66 162c0 92 29.333 167.5 88 226.5s131.667 88.5 219 88.5c59.333 0 106.666 -13 141.999 -39s57.666 -58 66.999 -96l-106 -65
c-24 46.667 -60.333 70 -109 70c-43.333 0 -80.166 -15.5 -110.499 -46.5s-45.5 -71.167 -45.5 -120.5c0 -35.333 11.167 -62.833 33.5 -82.5s49.166 -29.5 80.499 -29.5c59.333 0 103.666 22 132.999 66zM374.003 598.001l-147 143l81 81l82 -81l116 79l59 -90l-187 -132
h-4z" />
    <glyph glyph-name="Dcaron" unicode="&#x10e;" horiz-adv-x="720" 
d="M40 0l136 700h222c120 0 207.5 -25.667 262.5 -77s82.5 -120.333 82.5 -207c0 -137.333 -43.833 -241 -131.5 -311s-209.167 -105 -364.5 -105h-207zM368 555h-65l-80 -410h65c96 0 169.167 21.667 219.5 65s75.5 107 75.5 191c0 55.333 -18 94.833 -54 118.5
s-89.667 35.5 -161 35.5zM424 743l-168 123l68 79l113 -76l143 76l40 -89l-192 -113h-4z" />
    <glyph glyph-name="dcaron" unicode="&#x10f;" horiz-adv-x="579" 
d="M378 0l10.001 47c-28 -34.667 -74 -52 -138 -52c-62.667 0 -112.5 19.167 -149.5 57.5s-55.5 88.5 -55.5 150.5c0 66.667 15.167 125.5 45.5 176.5s68.666 89 114.999 114s95.5 37.5 147.5 37.5c52.667 0 89.667 -8.33301 111 -25l41 224h137l-135 -730h-129z
M298.001 125c45.333 0 81 20.999 107 62.999l33 177c-16 24 -44.333 36 -85 36c-48 0 -87.167 -16.167 -117.5 -48.5s-45.5 -74.166 -45.5 -125.499c0 -68 36 -102 108 -102zM725.001 730.999l149 0.000976562c3.33301 -8.66699 5 -26 5 -52
c0 -78.667 -53 -146.334 -159 -203.001l-58 60c49.333 40.667 74 84.667 74 132c0 28.667 -3.66699 49.667 -11 63z" />
    <glyph glyph-name="Dcroat" unicode="&#x110;" horiz-adv-x="786" 
d="M50 285l25 129.001h111l56 286h222c120 0 207.167 -25.833 261.5 -77.5s81.5 -121.167 81.5 -208.5c0 -128.667 -41.667 -229.834 -125 -303.501s-206.333 -110.5 -369 -110.5h-207l55 285h-111zM433 555.001h-65.001l-27 -141h158l-25 -129h-158l-27 -140h65
c100.667 0 174.334 23.5 221.001 70.5s70 108.833 70 185.5c0 54.667 -16.667 94 -50 118s-87.333 36 -162 36z" />
    <glyph glyph-name="dcroat" unicode="&#x111;" horiz-adv-x="566" 
d="M514 680l10.001 50h137l-8 -50h45l-25 -130h-45l-102 -550h-129l10 47c-28 -34.667 -74 -52 -138 -52c-62.667 0 -112.5 19.167 -149.5 57.5s-55.5 88.5 -55.5 150.5c0 66.667 15.167 125.5 45.5 176.5s68.666 89 114.999 114s95.5 37.5 147.5 37.5
c52.667 0 89.667 -8.33301 111 -25l6 44h-114l25 130h114zM317.001 125c45.333 0 81 20.999 107 62.999l33 177c-16 24 -44.333 36 -85 36c-48 0 -87.167 -16.167 -117.5 -48.5s-45.5 -74.166 -45.5 -125.499c0 -68 36 -102 108 -102z" />
    <glyph glyph-name="Emacron" unicode="&#x112;" horiz-adv-x="649" 
d="M40 0l136 700h535l-28 -145h-380l-25 -130h355l-28 -140h-355l-27 -140h389l-28 -145h-544zM305 770v120h314v-120h-314z" />
    <glyph glyph-name="emacron" unicode="&#x113;" 
d="M442 177l78.998 -84.001c-32 -38 -68.167 -64.5 -108.5 -79.5s-86.166 -22.5 -137.499 -22.5c-67.333 0 -122.5 20.833 -165.5 62.5s-64.5 95.834 -64.5 162.501c0 92 29.667 167.833 89 227.5s133.666 89.5 222.999 89.5c62.667 0 111 -13 145 -39s51 -64.667 51 -116
c0 -59.333 -27.167 -105.833 -81.5 -139.5s-121.166 -50.5 -200.499 -50.5c-25.333 0 -51 2 -77 6c12.667 -48.667 48.334 -73 107.001 -73c54.667 0 101.667 18.667 141 56zM350.998 402.999c-31.333 0 -60 -8.16699 -86 -24.5s-45.333 -38.5 -58 -66.5
c9.33301 -0.666992 23 -1 41 -1c48.667 0 87.5 4.83301 116.5 14.5s43.5 22.167 43.5 37.5c0 26.667 -19 40 -57 40zM240.998 609.999v120h294v-120h-294z" />
    <glyph glyph-name="Edotaccent" unicode="&#x116;" horiz-adv-x="649" 
d="M40 0l136 700h535l-28 -145h-380l-25 -130h355l-28 -140h-355l-27 -140h389l-28 -145h-544zM384 829c0 22 7.66699 40.667 23 56s34.333 23 57 23c23.333 0 43.166 -7.66699 59.499 -23s24.5 -34 24.5 -56c0 -21.333 -8.16699 -39.333 -24.5 -54s-36.166 -22 -59.499 -22
c-22.667 0 -41.667 7.33301 -57 22s-23 32.667 -23 54z" />
    <glyph glyph-name="edotaccent" unicode="&#x117;" 
d="M442 177l78.998 -84.001c-32 -38 -68.167 -64.5 -108.5 -79.5s-86.166 -22.5 -137.499 -22.5c-67.333 0 -122.5 20.833 -165.5 62.5s-64.5 95.834 -64.5 162.501c0 92 29.667 167.833 89 227.5s133.666 89.5 222.999 89.5c62.667 0 111 -13 145 -39s51 -64.667 51 -116
c0 -59.333 -27.167 -105.833 -81.5 -139.5s-121.166 -50.5 -200.499 -50.5c-25.333 0 -51 2 -77 6c12.667 -48.667 48.334 -73 107.001 -73c54.667 0 101.667 18.667 141 56zM350.998 402.999c-31.333 0 -60 -8.16699 -86 -24.5s-45.333 -38.5 -58 -66.5
c9.33301 -0.666992 23 -1 41 -1c48.667 0 87.5 4.83301 116.5 14.5s43.5 22.167 43.5 37.5c0 26.667 -19 40 -57 40zM320.998 658.999c0 20 7.16699 37.167 21.5 51.5s32.166 21.5 53.499 21.5s39.5 -7.16699 54.5 -21.5s22.5 -31.5 22.5 -51.5s-7.5 -36.833 -22.5 -50.5
s-33.167 -20.5 -54.5 -20.5s-39.166 6.66699 -53.499 20s-21.5 30.333 -21.5 51z" />
    <glyph glyph-name="Eogonek" unicode="&#x118;" horiz-adv-x="649" 
d="M40 0l136 699.997h535l-28 -145h-380l-25 -130h355l-28 -140h-355l-27 -140h389l-28 -145h-14c-27.333 -1.33301 -51 -8.16602 -71 -20.499s-30 -25.166 -30 -38.499c0 -14 8.66699 -21 26 -21c12 0 26 3.33301 42 10l27 -90c-10.667 -10.667 -28.167 -20 -52.5 -28
s-49.5 -12 -75.5 -12c-38 0 -68.833 6.83301 -92.5 20.5s-35.5 33.834 -35.5 60.501c0 53.333 38.667 93 116 119h-384z" />
    <glyph glyph-name="eogonek" unicode="&#x119;" 
d="M450 32c-6 -4 -16.667 -10.667 -32 -20s-27 -16.666 -35 -21.999s-15.667 -12.333 -23 -21s-11 -16.667 -11 -24c0 -8.66699 3.5 -15 10.5 -19s14.5 -6 22.5 -6c14.667 0 29.667 3.33301 45 10l27 -90c-10.667 -10.667 -28.167 -20 -52.5 -28s-49.5 -12 -75.5 -12
c-38 0 -68.833 7 -92.5 21s-35.5 35.333 -35.5 64c0 43.333 35.333 79 106 107c-7.33301 -0.666992 -17 -1 -29 -1c-67.333 0 -122.5 20.833 -165.5 62.5s-64.5 95.834 -64.5 162.501c0 92 29.667 167.833 89 227.5s133.666 89.5 222.999 89.5c62.667 0 111 -13 145 -39
s51 -64.667 51 -116c0 -46.667 -17.5 -85.834 -52.5 -117.501s-79.667 -52.834 -134 -63.501s-111.833 -11.667 -172.5 -3c12.667 -48.667 48.334 -73 107.001 -73c54.667 0 101.667 18.667 141 56l79 -84c-18 -20.667 -41.667 -41 -71 -61zM351 403
c-31.333 0 -60 -8.16699 -86 -24.5s-45.333 -38.5 -58 -66.5c60 -3.33301 108.5 0 145.5 10s55.5 23.667 55.5 41c0 26.667 -19 40 -57 40z" />
    <glyph glyph-name="Ecaron" unicode="&#x11a;" horiz-adv-x="649" 
d="M40 0l136 700h535l-28 -145h-380l-25 -130h355l-28 -140h-355l-27 -140h389l-28 -145h-544zM454 743l-168 123l68 79l113 -76l143 76l40 -89l-192 -113h-4z" />
    <glyph glyph-name="ecaron" unicode="&#x11b;" 
d="M442 177l78.998 -84.001c-32 -38 -68.167 -64.5 -108.5 -79.5s-86.166 -22.5 -137.499 -22.5c-67.333 0 -122.5 20.833 -165.5 62.5s-64.5 95.834 -64.5 162.501c0 92 29.667 167.833 89 227.5s133.666 89.5 222.999 89.5c62.667 0 111 -13 145 -39s51 -64.667 51 -116
c0 -59.333 -27.167 -105.833 -81.5 -139.5s-121.166 -50.5 -200.499 -50.5c-25.333 0 -51 2 -77 6c12.667 -48.667 48.334 -73 107.001 -73c54.667 0 101.667 18.667 141 56zM350.998 402.999c-31.333 0 -60 -8.16699 -86 -24.5s-45.333 -38.5 -58 -66.5
c9.33301 -0.666992 23 -1 41 -1c48.667 0 87.5 4.83301 116.5 14.5s43.5 22.167 43.5 37.5c0 26.667 -19 40 -57 40zM371.998 597.999l-147 143l81 81l82 -81l116 79l59 -90l-187 -132h-4z" />
    <glyph glyph-name="Gcircumflex" unicode="&#x11c;" horiz-adv-x="731" 
d="M389 252l27.002 139.999h326l-54 -299c-39.333 -35.333 -84.5 -61.666 -135.5 -78.999s-101.5 -26 -151.5 -26c-104.667 0 -186.834 28.833 -246.501 86.5s-89.5 132.5 -89.5 224.5c0 117.333 39.667 215.5 119 294.5s181.666 118.5 306.999 118.5
c122.667 0 210.334 -44.667 263.001 -134l-116 -88c-36 48 -88 72 -156 72c-74 0 -135.167 -22.667 -183.5 -68s-72.5 -102.333 -72.5 -171c0 -54 17.167 -98.333 51.5 -133s79.166 -52 134.499 -52c56.667 0 103 13.333 139 40l15 74h-177zM518.002 944.999l168 -123
l-68 -79l-113 76l-143 -76l-40 89l192 113h4z" />
    <glyph glyph-name="gcircumflex" unicode="&#x11d;" horiz-adv-x="574" 
d="M598 520l-88 -474.998c-16 -84.667 -48.167 -148.167 -96.5 -190.5s-110.166 -63.5 -185.499 -63.5c-55.333 0 -99.833 12.333 -133.5 37s-53.834 55.667 -60.501 93l116 59c18.667 -39.333 49 -59 91 -59c71.333 0 113.333 31.667 126 95l5 23
c-26 -31.333 -68 -47 -126 -47c-62 0 -111 20.667 -147 62s-54 93.666 -54 156.999c0 95.333 28.5 172.166 85.5 230.499s124.167 87.5 201.5 87.5c36 0 62.5 -3 79.5 -9s31.5 -15.333 43.5 -28l5 28h138zM295 122.002c20.667 0 40.668 6.33203 60.001 18.999
s33.666 27.334 42.999 44.001l32 166c-12.667 32 -40.667 48 -84 48c-44 0 -81 -16.167 -111 -48.5s-45 -71.5 -45 -117.5c0 -74 35 -111 105 -111zM401.001 796.001l147 -143l-81 -81l-82 81l-116 -79l-59 90l187 132h4z" />
    <glyph glyph-name="Gbreve" unicode="&#x11e;" horiz-adv-x="731" 
d="M389 252l27.002 139.999h326l-54 -299c-39.333 -35.333 -84.5 -61.666 -135.5 -78.999s-101.5 -26 -151.5 -26c-104.667 0 -186.834 28.833 -246.501 86.5s-89.5 132.5 -89.5 224.5c0 117.333 39.667 215.5 119 294.5s181.666 118.5 306.999 118.5
c122.667 0 210.334 -44.667 263.001 -134l-116 -88c-36 48 -88 72 -156 72c-74 0 -135.167 -22.667 -183.5 -68s-72.5 -102.333 -72.5 -171c0 -54 17.167 -98.333 51.5 -133s79.166 -52 134.499 -52c56.667 0 103 13.333 139 40l15 74h-177zM324.002 866.999l76.001 73.001
c31.333 -40 75 -60 131 -60c57.333 0 108 20 152 60l44 -86c-24.667 -30.667 -55.834 -55.667 -93.501 -75s-76.834 -29 -117.501 -29c-41.333 0 -78.666 10.667 -111.999 32s-60 49.666 -80 84.999z" />
    <glyph glyph-name="gbreve" unicode="&#x11f;" horiz-adv-x="574" 
d="M598 520l-88 -474.998c-16 -84.667 -48.167 -148.167 -96.5 -190.5s-110.166 -63.5 -185.499 -63.5c-55.333 0 -99.833 12.333 -133.5 37s-53.834 55.667 -60.501 93l116 59c18.667 -39.333 49 -59 91 -59c71.333 0 113.333 31.667 126 95l5 23
c-26 -31.333 -68 -47 -126 -47c-62 0 -111 20.667 -147 62s-54 93.666 -54 156.999c0 95.333 28.5 172.166 85.5 230.499s124.167 87.5 201.5 87.5c36 0 62.5 -3 79.5 -9s31.5 -15.333 43.5 -28l5 28h138zM295 122.002c20.667 0 40.668 6.33203 60.001 18.999
s33.666 27.334 42.999 44.001l32 166c-12.667 32 -40.667 48 -84 48c-44 0 -81 -16.167 -111 -48.5s-45 -71.5 -45 -117.5c0 -74 35 -111 105 -111zM239.001 711.001l77.002 71c24 -34.667 55.333 -52 94 -52c22.667 0 45 5 67 15s39.667 21.667 53 35l41 -78
c-16 -19.333 -30.167 -34.5 -42.5 -45.5s-30 -21.5 -53 -31.5s-48.5 -15 -76.5 -15c-36.667 0 -69.834 10.167 -99.501 30.5s-49.834 43.833 -60.501 70.5z" />
    <glyph glyph-name="Gdotaccent" unicode="&#x120;" horiz-adv-x="731" 
d="M389 252l27.002 139.999h326l-54 -299c-39.333 -35.333 -84.5 -61.666 -135.5 -78.999s-101.5 -26 -151.5 -26c-104.667 0 -186.834 28.833 -246.501 86.5s-89.5 132.5 -89.5 224.5c0 117.333 39.667 215.5 119 294.5s181.666 118.5 306.999 118.5
c122.667 0 210.334 -44.667 263.001 -134l-116 -88c-36 48 -88 72 -156 72c-74 0 -135.167 -22.667 -183.5 -68s-72.5 -102.333 -72.5 -171c0 -54 17.167 -98.333 51.5 -133s79.166 -52 134.499 -52c56.667 0 103 13.333 139 40l15 74h-177zM434.002 828.999
c0 22 7.66699 40.667 23 56s34.333 23 57 23c23.333 0 43.166 -7.66699 59.499 -23s24.5 -34 24.5 -56c0 -21.333 -8.16699 -39.333 -24.5 -54s-36.166 -22 -59.499 -22c-22.667 0 -41.667 7.33301 -57 22s-23 32.667 -23 54z" />
    <glyph glyph-name="gdotaccent" unicode="&#x121;" horiz-adv-x="574" 
d="M598 520l-88 -474.998c-16 -84.667 -48.167 -148.167 -96.5 -190.5s-110.166 -63.5 -185.499 -63.5c-55.333 0 -99.833 12.333 -133.5 37s-53.834 55.667 -60.501 93l116 59c18.667 -39.333 49 -59 91 -59c71.333 0 113.333 31.667 126 95l5 23
c-26 -31.333 -68 -47 -126 -47c-62 0 -111 20.667 -147 62s-54 93.666 -54 156.999c0 95.333 28.5 172.166 85.5 230.499s124.167 87.5 201.5 87.5c36 0 62.5 -3 79.5 -9s31.5 -15.333 43.5 -28l5 28h138zM295 122.002c20.667 0 40.668 6.33203 60.001 18.999
s33.666 27.334 42.999 44.001l32 166c-12.667 32 -40.667 48 -84 48c-44 0 -81 -16.167 -111 -48.5s-45 -71.5 -45 -117.5c0 -74 35 -111 105 -111zM313.001 659.001c0 20 7.16699 37.167 21.5 51.5s32.166 21.5 53.499 21.5s39.5 -7.16699 54.5 -21.5
s22.5 -31.5 22.5 -51.5s-7.5 -36.833 -22.5 -50.5s-33.167 -20.5 -54.5 -20.5s-39.166 6.66699 -53.499 20s-21.5 30.333 -21.5 51z" />
    <glyph glyph-name="Gcommaaccent" unicode="&#x122;" horiz-adv-x="731" 
d="M389 252l27.002 139.999h326l-54 -299c-39.333 -35.333 -84.5 -61.666 -135.5 -78.999s-101.5 -26 -151.5 -26c-104.667 0 -186.834 28.833 -246.501 86.5s-89.5 132.5 -89.5 224.5c0 117.333 39.667 215.5 119 294.5s181.666 118.5 306.999 118.5
c122.667 0 210.334 -44.667 263.001 -134l-116 -88c-36 48 -88 72 -156 72c-74 0 -135.167 -22.667 -183.5 -68s-72.5 -102.333 -72.5 -171c0 -54 17.167 -98.333 51.5 -133s79.166 -52 134.499 -52c56.667 0 103 13.333 139 40l15 74h-177zM279.002 -105.001l127.999 74
c24 -20.667 36 -46.667 36 -78c0 -40.667 -14.667 -77 -44 -109s-62.666 -58 -99.999 -78l-57 61c36.667 32 55 59.333 55 82c0 14 -6 30 -18 48z" />
    <glyph glyph-name="gcommaaccent" unicode="&#x123;" horiz-adv-x="574" 
d="M518 624l-136 -68.999c-24 20.667 -36 46.667 -36 78c0 40.667 14.167 77.167 42.5 109.5s60.833 58.166 97.5 77.499l60 -58c-34 -29.333 -51 -57.333 -51 -84c0 -16 7.66699 -34 23 -54zM598 520.001l-88 -474.998c-16 -84.667 -48.167 -148.167 -96.5 -190.5
s-110.166 -63.5 -185.499 -63.5c-55.333 0 -99.833 12.333 -133.5 37s-53.834 55.667 -60.501 93l116 59c18.667 -39.333 49 -59 91 -59c71.333 0 113.333 31.667 126 95l5 23c-26 -31.333 -68 -47 -126 -47c-62 0 -111 20.667 -147 62s-54 93.666 -54 156.999
c0 95.333 28.5 172.166 85.5 230.499s124.167 87.5 201.5 87.5c36 0 62.5 -3 79.5 -9s31.5 -15.333 43.5 -28l5 28h138zM295 122.003c20.667 0 40.668 6.33203 60.001 18.999s33.666 27.334 42.999 44.001l32 166c-12.667 32 -40.667 48 -84 48
c-44 0 -81 -16.167 -111 -48.5s-45 -71.5 -45 -117.5c0 -74 35 -111 105 -111z" />
    <glyph glyph-name="Hcircumflex" unicode="&#x124;" horiz-adv-x="751" 
d="M506 0l54 280h-311l-54 -280h-155l136 700h155l-53 -275h311l53 275h155l-136 -700h-155zM525 945l168 -123l-68 -79l-113 76l-143 -76l-40 89l192 113h4z" />
    <glyph glyph-name="hcircumflex" unicode="&#x125;" horiz-adv-x="555" 
d="M24 0l134.001 730h138l-44 -243c35.333 28.667 77.666 43 126.999 43c117.333 0 176 -52.667 176 -158c0 -27.333 -2.66699 -54.333 -8 -81l-57 -291h-138l56 284c2.66699 13.333 4 26.333 4 39c0.666992 26.667 -5.33301 46.167 -18 58.5s-32.667 18.5 -60 18.5
c-41.333 0 -78.333 -22.333 -111 -67l-62 -333h-137zM252.001 945l168 -123l-68 -79l-113 76l-143 -76l-40 89l192 113h4z" />
    <glyph glyph-name="Hbar" unicode="&#x126;" horiz-adv-x="751" 
d="M73 502l23 120h65l15 78h155l-15 -78h311l15 78h155l-15 -78h65l-23 -120h-65l-98 -502h-155l54 280h-311l-54 -280h-155l98 502h-65zM278 425h311l15 77h-311z" />
    <glyph glyph-name="hbar" unicode="&#x127;" horiz-adv-x="583" 
d="M291 550l-10.999 -63c35.333 28.667 77.666 43 126.999 43c117.333 0 176 -52.667 176 -158c0 -27.333 -2.66699 -54.333 -8 -81l-57 -291h-138l56 284c2.66699 13.333 4 26.333 4 39c0.666992 26.667 -5.33301 46.167 -18 58.5s-32.667 18.5 -60 18.5
c-41.333 0 -78.333 -22.333 -111 -67l-62 -333h-137l100 550h-45l25 130h44l10 50h138l-9 -50h114l-25 -130h-113z" />
    <glyph glyph-name="Imacron" unicode="&#x12a;" horiz-adv-x="295" 
d="M45 0l136 700h155l-136 -700h-155zM117 770v120h314v-120h-314z" />
    <glyph glyph-name="imacron" unicode="&#x12b;" horiz-adv-x="250" 
d="M34 0l96 520h138l-96 -520h-138zM65 610v120h294v-120h-294z" />
    <glyph glyph-name="Iogonek" unicode="&#x12e;" horiz-adv-x="295" 
d="M45 0l136 699.999h155l-136 -700h-2c-29.333 0 -55 -6.33301 -77 -19s-33 -26 -33 -40s8.66699 -21 26 -21c12 0 26 3.33301 42 10l27 -90c-10.667 -10.667 -28.167 -20 -52.5 -28s-49.5 -12 -75.5 -12c-38 0 -68.833 6.83301 -92.5 20.5s-35.5 33.834 -35.5 60.501
c0 52 39.667 91.667 119 119h-1z" />
    <glyph glyph-name="iogonek" unicode="&#x12f;" horiz-adv-x="263" 
d="M158 -70l27.001 -90.001c-10.667 -10.667 -28.167 -20 -52.5 -28s-49.5 -12 -75.5 -12c-38 0 -68.833 7 -92.5 21s-35.5 35.333 -35.5 64c0 60.667 45.667 102 137 124l95 511h138l-96 -520h-12c-28.667 -1.33301 -54.334 -7.16602 -77.001 -17.499
s-34 -22.833 -34 -37.5c0 -8.66699 3.5 -15 10.5 -19s14.5 -6 22.5 -6c14.667 0 29.667 3.33301 45 10zM176.001 658.999c0 20 7.16895 37.167 21.502 51.5s32.166 21.5 53.499 21.5c4 0 10 -0.666992 18 -2h5c20.667 0 37.167 -5.66699 49.5 -17s18.5 -26 18.5 -44
c0 -24 -9.33301 -44.167 -28 -60.5s-41.334 -24.5 -68.001 -24.5c-22 0 -39.167 5.5 -51.5 16.5s-18.5 25.833 -18.5 44.5v14z" />
    <glyph glyph-name="Idotaccent" unicode="&#x130;" horiz-adv-x="295" 
d="M45 0l136 700h155l-136 -700h-155zM201 829c0 22 7.66699 40.667 23 56s34.333 23 57 23c23.333 0 43.166 -7.66699 59.499 -23s24.5 -34 24.5 -56c0 -21.333 -8.16699 -39.333 -24.5 -54s-36.166 -22 -59.499 -22c-22.667 0 -41.667 7.33301 -57 22s-23 32.667 -23 54z
" />
    <glyph glyph-name="dotlessi" unicode="&#x131;" horiz-adv-x="250" 
d="M34 0l96 520h138l-96 -520h-138z" />
    <glyph glyph-name="Jcircumflex" unicode="&#x134;" horiz-adv-x="486" 
d="M537 700l-93 -480.999c-30.667 -154 -113.667 -231 -249 -231c-104 0 -171.667 45.333 -203 136l117 78c13.333 -24.667 27 -42.334 41 -53.001s31 -16 51 -16c25.333 0 45.333 9.5 60 28.5s26 48.167 34 87.5l88 451h154zM489 945.001l168 -123l-68 -79l-113 76
l-143 -76l-40 89l192 113h4z" />
    <glyph glyph-name="jcircumflex" unicode="&#x135;" horiz-adv-x="263" 
d="M296 520l-94.999 -518c-26.667 -140.667 -97.334 -211 -212.001 -211c-88 0 -140 40 -156 120l129 49c6.66699 -22.667 19.667 -34 39 -34c32 0 52.667 26.333 62 79l95 515h138zM270.001 796l147 -143l-81 -81l-82 81l-116 -79l-59 90l187 132h4z" />
    <glyph glyph-name="Kcommaaccent" unicode="&#x136;" horiz-adv-x="701" 
d="M40 0l136 700h155l-54 -277l309 277h216l-356 -323l240 -377h-185l-181 283l-82 -67l-43 -216h-155zM219 -105l127.999 74c24 -20.667 36 -46.667 36 -78c0 -40.667 -14.667 -77 -44 -109s-62.666 -58 -99.999 -78l-57 61c36.667 32 55 59.333 55 82c0 14 -6 30 -18 48z
" />
    <glyph glyph-name="kcommaaccent" unicode="&#x137;" horiz-adv-x="510" 
d="M24 0l134 730h138l-71 -386l188 176h188l-259 -236l158 -284h-168l-106 208l-31 -24l-34 -184h-137zM144 -100l136 68.999c24 -20.667 36 -46.667 36 -78c0 -40.667 -14.167 -77.167 -42.5 -109.5s-60.833 -58.166 -97.5 -77.499l-60 58c34 29.333 51 57.333 51 84
c0 16 -7.66699 34 -23 54z" />
    <glyph glyph-name="Lacute" unicode="&#x139;" horiz-adv-x="618" 
d="M40 0l136 700h155l-108 -555h378l-28 -145h-533zM632 838l-245 -102l-43 107l234 131z" />
    <glyph glyph-name="lacute" unicode="&#x13a;" horiz-adv-x="237" 
d="M28 0l135 730h138l-135 -730h-138zM506 858l-245 -102l-43 107l234 131z" />
    <glyph glyph-name="Lcommaaccent" unicode="&#x13b;" horiz-adv-x="618" 
d="M40 0l136 700h155l-108 -555h378l-28 -145h-533zM221 -105l127.999 74c24 -20.667 36 -46.667 36 -78c0 -40.667 -14.667 -77 -44 -109s-62.666 -58 -99.999 -78l-57 61c36.667 32 55 59.333 55 82c0 14 -6 30 -18 48z" />
    <glyph glyph-name="lcommaaccent" unicode="&#x13c;" horiz-adv-x="237" 
d="M28 0l135 730h138l-135 -730h-138zM5 -100l136 68.999c24 -20.667 36 -46.667 36 -78c0 -40.667 -14.167 -77.167 -42.5 -109.5s-60.833 -58.166 -97.5 -77.499l-60 58c34 29.333 51 57.333 51 84c0 16 -7.66699 34 -23 54z" />
    <glyph glyph-name="Lcaron" unicode="&#x13d;" horiz-adv-x="618" 
d="M40 0l136 700h155l-108 -555h378l-28 -145h-533zM479 701l149 0.000976562c3.33301 -8.66699 5 -26 5 -52c0 -78.667 -53 -146.334 -159 -203.001l-58 60c49.333 40.667 74 84.667 74 132c0 28.667 -3.66699 49.667 -11 63z" />
    <glyph glyph-name="lcaron" unicode="&#x13e;" horiz-adv-x="380" 
d="M28 0l135 730h138l-135 -730h-138zM385 731l149 0.000976562c3.33301 -8.66699 5 -26 5 -52c0 -78.667 -53 -146.334 -159 -203.001l-58 60c49.333 40.667 74 84.667 74 132c0 28.667 -3.66699 49.667 -11 63z" />
    <glyph glyph-name="Ldot" unicode="&#x13f;" horiz-adv-x="618" 
d="M40 0l136 700h155l-108 -555h378l-28 -145h-533zM403 398c0 19.333 8.16699 36.5 24.5 51.5s36.833 22.5 61.5 22.5c22.667 0 42.167 -7.66699 58.5 -23s24.5 -32.333 24.5 -51c0 -20.667 -8 -38.667 -24 -54s-35.667 -23 -59 -23c-25.333 0 -46 7.5 -62 22.5
s-24 33.167 -24 54.5z" />
    <glyph glyph-name="ldot" unicode="&#x140;" horiz-adv-x="362" 
d="M28 0l135 730h138l-135 -730h-138zM288 345c0 19.333 8.16699 36.5 24.5 51.5s36.833 22.5 61.5 22.5c22.667 0 42.167 -7.66699 58.5 -23s24.5 -32.333 24.5 -51c0 -20.667 -8 -38.667 -24 -54s-35.667 -23 -59 -23c-25.333 0 -46 7.5 -62 22.5s-24 33.167 -24 54.5z
" />
    <glyph glyph-name="Lslash" unicode="&#x141;" horiz-adv-x="622" 
d="M-4 109l33 169l90 57l71 365h155l-49 -253l208 131l-34 -169l-207 -131l-26 -133h378l-28 -145h-533l32 166z" />
    <glyph glyph-name="lslash" unicode="&#x142;" horiz-adv-x="336" 
d="M27 135l32 170l107 68l68 357h137l-49 -259l121 77l-33 -170l-118 -75l-55 -303l-140 -1l39 206z" />
    <glyph glyph-name="Nacute" unicode="&#x143;" horiz-adv-x="740" 
d="M650 0h-120l-255 430l-84 -430h-151l136 700h119l257 -430l83 430h151zM702 838l-245 -102l-43 107l234 131z" />
    <glyph glyph-name="nacute" unicode="&#x144;" horiz-adv-x="557" 
d="M24 0l97.001 520h138l-5 -33c35.333 28.667 77.666 43 126.999 43c117.333 0 176 -52.667 176 -158c0 -27.333 -2.66699 -54.333 -8 -81l-58 -291h-138l57 284c2.66699 13.333 4 26.333 4 39c0.666992 26.667 -5.33301 46.167 -18 58.5s-32.667 18.5 -60 18.5
c-18.667 0 -38.167 -5.33301 -58.5 -16s-37.833 -26 -52.5 -46l-64 -338h-137zM568.001 739l-148 -149l-92 81l141 162z" />
    <glyph glyph-name="Ncommaaccent" unicode="&#x145;" horiz-adv-x="740" 
d="M650 0h-120l-255 430l-84 -430h-151l136 700h119l257 -430l83 430h151zM259 -105l127.999 74c24 -20.667 36 -46.667 36 -78c0 -40.667 -14.667 -77 -44 -109s-62.666 -58 -99.999 -78l-57 61c36.667 32 55 59.333 55 82c0 14 -6 30 -18 48z" />
    <glyph glyph-name="ncommaaccent" unicode="&#x146;" horiz-adv-x="557" 
d="M24 0l97.001 520h138l-5 -33c35.333 28.667 77.666 43 126.999 43c117.333 0 176 -52.667 176 -158c0 -27.333 -2.66699 -54.333 -8 -81l-58 -291h-138l57 284c2.66699 13.333 4 26.333 4 39c0.666992 26.667 -5.33301 46.167 -18 58.5s-32.667 18.5 -60 18.5
c-18.667 0 -38.167 -5.33301 -58.5 -16s-37.833 -26 -52.5 -46l-64 -338h-137zM155.001 -100l136 68.999c24 -20.667 36 -46.667 36 -78c0 -40.667 -14.167 -77.167 -42.5 -109.5s-60.833 -58.166 -97.5 -77.499l-60 58c34 29.333 51 57.333 51 84c0 16 -7.66699 34 -23 54z
" />
    <glyph glyph-name="Ncaron" unicode="&#x147;" horiz-adv-x="740" 
d="M650 0h-120l-255 430l-84 -430h-151l136 700h119l257 -430l83 430h151zM490 743l-168 123l68 79l113 -76l143 76l40 -89l-192 -113h-4z" />
    <glyph glyph-name="ncaron" unicode="&#x148;" horiz-adv-x="557" 
d="M24 0l97.001 520h138l-5 -33c35.333 28.667 77.666 43 126.999 43c117.333 0 176 -52.667 176 -158c0 -27.333 -2.66699 -54.333 -8 -81l-58 -291h-138l57 284c2.66699 13.333 4 26.333 4 39c0.666992 26.667 -5.33301 46.167 -18 58.5s-32.667 18.5 -60 18.5
c-18.667 0 -38.167 -5.33301 -58.5 -16s-37.833 -26 -52.5 -46l-64 -338h-137zM390.001 598l-147 143l81 81l82 -81l116 79l59 -90l-187 -132h-4z" />
    <glyph glyph-name="Omacron" unicode="&#x14c;" horiz-adv-x="781" 
d="M66 298c0 36 5.66895 73.002 17.002 111.002s28.666 75.167 51.999 111.5s51.166 68.666 83.499 96.999s71.5 51.166 117.5 68.499s95.333 26 148 26c96.667 0 173.667 -28.5 231 -85.5s86 -131.5 86 -223.5c0 -120.667 -40 -220 -120 -298s-178.667 -117 -296 -117
c-95.333 0 -172.333 29.167 -231 87.5s-88 132.5 -88 222.5zM227.002 311.002c0 -52.667 16.332 -94.666 48.999 -125.999s74.667 -47 126 -47c67.333 0 123.833 24.667 169.5 74s68.5 108 68.5 176c0 49.333 -15.5 90.666 -46.5 123.999s-73.167 50 -126.5 50
c-67.333 0 -124.166 -24.5 -170.499 -73.5s-69.5 -108.167 -69.5 -177.5zM369.001 770.003v120h314v-120h-314z" />
    <glyph glyph-name="omacron" unicode="&#x14d;" horiz-adv-x="587" 
d="M45 211c0 91.333 30.168 167.499 90.501 228.499s134.166 91.5 221.499 91.5c72 0 129 -20.5 171 -61.5s63 -93.167 63 -156.5c0 -93.333 -28.833 -170.166 -86.5 -230.499s-132.167 -90.5 -223.5 -90.5c-74.667 0 -132.667 20.5 -174 61.5s-62 93.5 -62 157.5z
M190.001 236.999c0 -36.667 9.5 -65.001 28.5 -85.001s46.833 -30 83.5 -30c36 0 69 16.333 99 49s45 74.334 45 125.001c0 30 -9 55 -27 75s-43.667 30 -77 30c-38.667 0 -73.667 -15.5 -105 -46.5s-47 -70.167 -47 -117.5zM256.001 609.998v120h294v-120h-294z" />
    <glyph glyph-name="Ohungarumlaut" unicode="&#x150;" horiz-adv-x="781" 
d="M66 298c0 36 5.66895 73.002 17.002 111.002s28.666 75.167 51.999 111.5s51.166 68.666 83.499 96.999s71.5 51.166 117.5 68.499s95.333 26 148 26c96.667 0 173.667 -28.5 231 -85.5s86 -131.5 86 -223.5c0 -120.667 -40 -220 -120 -298s-178.667 -117 -296 -117
c-95.333 0 -172.333 29.167 -231 87.5s-88 132.5 -88 222.5zM227.002 311.002c0 -52.667 16.332 -94.666 48.999 -125.999s74.667 -47 126 -47c67.333 0 123.833 24.667 169.5 74s68.5 108 68.5 176c0 49.333 -15.5 90.666 -46.5 123.999s-73.167 50 -126.5 50
c-67.333 0 -124.166 -24.5 -170.499 -73.5s-69.5 -108.167 -69.5 -177.5zM810.001 818.003l-211 -99l-57 67l169 133zM593.001 862.003l-177 -131l-60 62l111 142z" />
    <glyph glyph-name="ohungarumlaut" unicode="&#x151;" horiz-adv-x="587" 
d="M45 211c0 91.333 30.168 167.499 90.501 228.499s134.166 91.5 221.499 91.5c72 0 129 -20.5 171 -61.5s63 -93.167 63 -156.5c0 -93.333 -28.833 -170.166 -86.5 -230.499s-132.167 -90.5 -223.5 -90.5c-74.667 0 -132.667 20.5 -174 61.5s-62 93.5 -62 157.5z
M190.001 236.999c0 -36.667 9.5 -65.001 28.5 -85.001s46.833 -30 83.5 -30c36 0 69 16.333 99 49s45 74.334 45 125.001c0 30 -9 55 -27 75s-43.667 30 -77 30c-38.667 0 -73.667 -15.5 -105 -46.5s-47 -70.167 -47 -117.5zM490.001 747.998l-143 -155l-70 67l128 164z
M670.001 729.998l-156 -141l-64 73l143 151z" />
    <glyph glyph-name="OE" unicode="&#x152;" horiz-adv-x="1130" 
d="M521 0l5.00098 24.9971c-46 -23.333 -96 -35 -150 -35c-90 0 -164.167 28.667 -222.5 86s-87.5 131 -87.5 221c0 35.333 5.5 71.833 16.5 109.5s28.167 74.834 51.5 111.501s51 69.334 83 98.001s71.5 51.834 118.5 69.501s97.5 26.5 151.5 26.5
c61.333 0 115.666 -15 162.999 -45l7 33h535l-28 -145h-380l-25 -130h355l-27 -140h-355l-28 -140h389l-28 -145h-544zM394.001 139.997c68 0 123.332 21.332 165.999 63.999l55 280c-14 24 -34 43 -60 57s-54 21 -84 21c-73.333 0 -132.166 -25.5 -176.499 -76.5
s-66.5 -109.167 -66.5 -174.5c0 -51.333 15.833 -92.666 47.5 -123.999s71.167 -47 118.5 -47z" />
    <glyph glyph-name="oe" unicode="&#x153;" horiz-adv-x="885" 
d="M781 177l78.998 -84c-32 -38 -68.167 -64.5 -108.5 -79.5s-86.166 -22.5 -137.499 -22.5c-63.333 0 -116.333 18.667 -159 56c-46 -36.667 -105 -55 -177 -55c-74.667 0 -132.667 20.5 -174 61.5s-62 93.5 -62 157.5c0 91.333 30.167 167.5 90.5 228.5
s134.166 91.5 221.499 91.5c64 0 116.667 -18 158 -54c52.667 37.333 114 56 184 56c62.667 0 111 -13 145 -39s51 -64.667 51 -116c0 -59.333 -27.167 -105.833 -81.5 -139.5s-121.166 -50.5 -200.499 -50.5c-25.333 0 -51 2 -77 6c12.667 -48.667 48.334 -73 107.001 -73
c54.667 0 101.667 18.667 141 56zM298.998 127c36 0 66.333 11.001 91 33.001c-4 18 -6 36.667 -6 56c0 54.667 11.333 104.667 34 150c-18.667 20 -45 30 -79 30c-37.333 0 -72 -14.833 -104 -44.5s-48 -67.834 -48 -114.501c0 -35.333 9.83301 -62.5 29.5 -81.5
s47.167 -28.5 82.5 -28.5zM689.998 403.001c-31.333 0 -60 -8.16699 -86 -24.5s-45.333 -38.5 -58 -66.5c9.33301 -0.666992 23 -1 41 -1c48.667 0 87.5 4.83301 116.5 14.5s43.5 22.167 43.5 37.5c0 26.667 -19 40 -57 40z" />
    <glyph glyph-name="Racute" unicode="&#x154;" horiz-adv-x="689" 
d="M195 0l-155 -0.000976562l136 700h283c162.667 0 244 -65.333 244 -196c0 -58 -17 -107.167 -51 -147.5s-77.667 -70.166 -131 -89.499l143 -267h-180l-125 239h-118zM428 554.999l-125.002 0.000976562l-33 -171h131c42.667 0 76.834 9 102.501 27s38.5 42 38.5 72
c0 25.333 -8.66699 43.666 -26 54.999s-46.666 17 -87.999 17zM633.998 838l-245 -102l-43 107l234 131z" />
    <glyph glyph-name="racute" unicode="&#x155;" horiz-adv-x="349" 
d="M24 0l95.999 519.999h138l-4 -21c6.66699 8 18 15.167 34 21.5s32 9.5 48 9.5c24.667 0 43.334 -3.66699 56.001 -11s23.334 -18.666 32.001 -33.999l-93 -102c-8.66699 11.333 -21.334 17 -38.001 17c-28 0 -51 -19.667 -69 -59l-62 -341h-138zM460.999 738.999
l-148 -149l-92 81l141 162z" />
    <glyph glyph-name="Rcommaaccent" unicode="&#x156;" horiz-adv-x="689" 
d="M195 0l-155 -0.000976562l136 700h283c162.667 0 244 -65.333 244 -196c0 -58 -17 -107.167 -51 -147.5s-77.667 -70.166 -131 -89.499l143 -267h-180l-125 239h-118zM428 554.999l-125.002 0.000976562l-33 -171h131c42.667 0 76.834 9 102.501 27s38.5 42 38.5 72
c0 25.333 -8.66699 43.666 -26 54.999s-46.666 17 -87.999 17zM208.998 -105l127.999 74c24 -20.667 36 -46.667 36 -78c0 -40.667 -14.667 -77 -44 -109s-62.666 -58 -99.999 -78l-57 61c36.667 32 55 59.333 55 82c0 14 -6 30 -18 48z" />
    <glyph glyph-name="rcommaaccent" unicode="&#x157;" horiz-adv-x="349" 
d="M24 0l95.999 519.999h138l-4 -21c6.66699 8 18 15.167 34 21.5s32 9.5 48 9.5c24.667 0 43.334 -3.66699 56.001 -11s23.334 -18.666 32.001 -33.999l-93 -102c-8.66699 11.333 -21.334 17 -38.001 17c-28 0 -51 -19.667 -69 -59l-62 -341h-138zM56.999 -100.001
l136 68.999c24 -20.667 36 -46.667 36 -78c0 -40.667 -14.167 -77.167 -42.5 -109.5s-60.833 -58.166 -97.5 -77.499l-60 58c34 29.333 51 57.333 51 84c0 16 -7.66699 34 -23 54z" />
    <glyph glyph-name="Rcaron" unicode="&#x158;" horiz-adv-x="689" 
d="M195 0l-155 -0.000976562l136 700h283c162.667 0 244 -65.333 244 -196c0 -58 -17 -107.167 -51 -147.5s-77.667 -70.166 -131 -89.499l143 -267h-180l-125 239h-118zM428 554.999l-125.002 0.000976562l-33 -171h131c42.667 0 76.834 9 102.501 27s38.5 42 38.5 72
c0 25.333 -8.66699 43.666 -26 54.999s-46.666 17 -87.999 17zM431.998 743l-168 123l68 79l113 -76l143 76l40 -89l-192 -113h-4z" />
    <glyph glyph-name="rcaron" unicode="&#x159;" horiz-adv-x="349" 
d="M24 0l95.999 519.999h138l-4 -21c6.66699 8 18 15.167 34 21.5s32 9.5 48 9.5c24.667 0 43.334 -3.66699 56.001 -11s23.334 -18.666 32.001 -33.999l-93 -102c-8.66699 11.333 -21.334 17 -38.001 17c-28 0 -51 -19.667 -69 -59l-62 -341h-138zM286.999 597.999
l-147 143l81 81l82 -81l116 79l59 -90l-187 -132h-4z" />
    <glyph glyph-name="Sacute" unicode="&#x15a;" horiz-adv-x="619" 
d="M439 202c0 21.333 -11.166 39.1709 -33.499 53.5039s-49.333 26.666 -81 36.999s-63.334 22.166 -95.001 35.499s-58.667 33.666 -81 60.999s-33.5 61 -33.5 101c0 69.333 27.167 124.333 81.5 165s121.833 61 202.5 61c112.667 0 199.334 -39.667 260.001 -119l-102 -97
c-52.667 47.333 -108.334 71 -167.001 71c-76 0 -114 -21 -114 -63c0 -15.333 8 -29 24 -41s36 -21.5 60 -28.5s50 -16.333 78 -28s54 -24.5 78 -38.5s44 -34.5 60 -61.5s24 -58.5 24 -94.5c0 -70.667 -28 -127 -84 -169s-123.667 -63 -203 -63
c-72 0 -132.667 15.667 -182 47s-84.666 71.666 -105.999 120.999l114 89c19.333 -34 44.666 -61.167 75.999 -81.5s66.333 -30.5 105 -30.5c40.667 0 70.667 7 90 21s29 31.333 29 52zM650.001 838.005l-245 -102l-43 107l234 131z" />
    <glyph glyph-name="sacute" unicode="&#x15b;" horiz-adv-x="439" 
d="M284 155c0 10.667 -7.16406 20.333 -21.4971 29s-31.666 17 -51.999 25s-40.666 17.5 -60.999 28.5s-37.666 27.167 -51.999 48.5s-21.5 47 -21.5 77c0 52 19.167 93.333 57.5 124s84.166 46 137.499 46c97.333 0 164.666 -30 201.999 -90l-87 -90
c-28 36.667 -65 55 -111 55c-36 0 -54 -12.667 -54 -38c0 -9.33301 7.16699 -17.833 21.5 -25.5s31.666 -15.5 51.999 -23.5s40.666 -17.667 60.999 -29s37.666 -28 51.999 -50s21.5 -48 21.5 -78c0 -60 -20.167 -104.333 -60.5 -133s-89.166 -43 -146.499 -43
c-52.667 0 -99.334 12.667 -140.001 38s-68 56.333 -82 93l109 77c9.33301 -22 24.666 -40.5 45.999 -55.5s46.333 -22.5 75 -22.5c18 0 31.5 3.5 40.5 10.5s13.5 15.833 13.5 26.5zM512.003 738.999l-148 -149l-92 81l141 162z" />
    <glyph glyph-name="Scircumflex" unicode="&#x15c;" horiz-adv-x="619" 
d="M439 202c0 21.333 -11.166 39.1709 -33.499 53.5039s-49.333 26.666 -81 36.999s-63.334 22.166 -95.001 35.499s-58.667 33.666 -81 60.999s-33.5 61 -33.5 101c0 69.333 27.167 124.333 81.5 165s121.833 61 202.5 61c112.667 0 199.334 -39.667 260.001 -119l-102 -97
c-52.667 47.333 -108.334 71 -167.001 71c-76 0 -114 -21 -114 -63c0 -15.333 8 -29 24 -41s36 -21.5 60 -28.5s50 -16.333 78 -28s54 -24.5 78 -38.5s44 -34.5 60 -61.5s24 -58.5 24 -94.5c0 -70.667 -28 -127 -84 -169s-123.667 -63 -203 -63
c-72 0 -132.667 15.667 -182 47s-84.666 71.666 -105.999 120.999l114 89c19.333 -34 44.666 -61.167 75.999 -81.5s66.333 -30.5 105 -30.5c40.667 0 70.667 7 90 21s29 31.333 29 52zM445.001 945.005l168 -123l-68 -79l-113 76l-143 -76l-40 89l192 113h4z" />
    <glyph glyph-name="scircumflex" unicode="&#x15d;" horiz-adv-x="439" 
d="M284 155c0 10.667 -7.16406 20.333 -21.4971 29s-31.666 17 -51.999 25s-40.666 17.5 -60.999 28.5s-37.666 27.167 -51.999 48.5s-21.5 47 -21.5 77c0 52 19.167 93.333 57.5 124s84.166 46 137.499 46c97.333 0 164.666 -30 201.999 -90l-87 -90
c-28 36.667 -65 55 -111 55c-36 0 -54 -12.667 -54 -38c0 -9.33301 7.16699 -17.833 21.5 -25.5s31.666 -15.5 51.999 -23.5s40.666 -17.667 60.999 -29s37.666 -28 51.999 -50s21.5 -48 21.5 -78c0 -60 -20.167 -104.333 -60.5 -133s-89.166 -43 -146.499 -43
c-52.667 0 -99.334 12.667 -140.001 38s-68 56.333 -82 93l109 77c9.33301 -22 24.666 -40.5 45.999 -55.5s46.333 -22.5 75 -22.5c18 0 31.5 3.5 40.5 10.5s13.5 15.833 13.5 26.5zM339.003 795.999l147 -143l-81 -81l-82 81l-116 -79l-59 90l187 132h4z" />
    <glyph glyph-name="Scedilla" unicode="&#x15e;" horiz-adv-x="619" 
d="M124 -152l61.0039 60.002c19.333 -18.667 44.333 -28 75 -28c21.333 0 32 5 32 15s-14 15 -42 15h-6l15 78c-58 7.33301 -106.833 25.833 -146.5 55.5s-68.834 65.834 -87.501 108.501l114 89c19.333 -34 44.666 -61.167 75.999 -81.5s66.333 -30.5 105 -30.5
c40.667 0 70.667 7 90 21s29 31.333 29 52c0 21.333 -11.167 39.166 -33.5 53.499s-49.333 26.666 -81 36.999s-63.334 22.166 -95.001 35.499s-58.667 33.666 -81 60.999s-33.5 61 -33.5 101c0 69.333 27.167 124.333 81.5 165s121.833 61 202.5 61
c112.667 0 199.334 -39.667 260.001 -119l-102 -97c-52.667 47.333 -108.334 71 -167.001 71c-76 0 -114 -21 -114 -63c0 -15.333 8 -29 24 -41s36 -21.5 60 -28.5s50 -16.333 78 -28s54 -24.5 78 -38.5s44 -34.5 60 -61.5s24 -58.5 24 -94.5
c0 -67.333 -25.667 -121.666 -77 -162.999s-114.333 -64 -189 -68l-1 -11c66 -5.33301 99 -32 99 -80c0 -32.667 -14 -58.167 -42 -76.5s-67 -27.5 -117 -27.5c-66.667 0 -116.334 19.333 -149.001 58z" />
    <glyph glyph-name="scedilla" unicode="&#x15f;" horiz-adv-x="439" 
d="M284 155c0 10.667 -7.16406 20.333 -21.4971 29s-31.666 17 -51.999 25s-40.666 17.5 -60.999 28.5s-37.666 27.167 -51.999 48.5s-21.5 47 -21.5 77c0 52 19.167 93.333 57.5 124s84.166 46 137.499 46c97.333 0 164.666 -30 201.999 -90l-87 -90
c-28 36.667 -65 55 -111 55c-36 0 -54 -12.667 -54 -38c0 -9.33301 7.16699 -17.833 21.5 -25.5s31.666 -15.5 51.999 -23.5s40.666 -17.667 60.999 -29s37.666 -28 51.999 -50s21.5 -48 21.5 -78c0 -60 -20.167 -104.333 -60.5 -133s-89.166 -43 -146.499 -43
c-52.667 0 -99.334 12.667 -140.001 38s-68 56.333 -82 93l109 77c9.33301 -22 24.666 -40.5 45.999 -55.5s46.333 -22.5 75 -22.5c18 0 31.5 3.5 40.5 10.5s13.5 15.833 13.5 26.5z" />
    <glyph glyph-name="Scaron" unicode="&#x160;" horiz-adv-x="619" 
d="M439 202c0 21.333 -11.166 39.1709 -33.499 53.5039s-49.333 26.666 -81 36.999s-63.334 22.166 -95.001 35.499s-58.667 33.666 -81 60.999s-33.5 61 -33.5 101c0 69.333 27.167 124.333 81.5 165s121.833 61 202.5 61c112.667 0 199.334 -39.667 260.001 -119l-102 -97
c-52.667 47.333 -108.334 71 -167.001 71c-76 0 -114 -21 -114 -63c0 -15.333 8 -29 24 -41s36 -21.5 60 -28.5s50 -16.333 78 -28s54 -24.5 78 -38.5s44 -34.5 60 -61.5s24 -58.5 24 -94.5c0 -70.667 -28 -127 -84 -169s-123.667 -63 -203 -63
c-72 0 -132.667 15.667 -182 47s-84.666 71.666 -105.999 120.999l114 89c19.333 -34 44.666 -61.167 75.999 -81.5s66.333 -30.5 105 -30.5c40.667 0 70.667 7 90 21s29 31.333 29 52zM418.001 743.005l-168 123l68 79l113 -76l143 76l40 -89l-192 -113h-4z" />
    <glyph glyph-name="scaron" unicode="&#x161;" horiz-adv-x="439" 
d="M284 155c0 10.667 -7.16406 20.333 -21.4971 29s-31.666 17 -51.999 25s-40.666 17.5 -60.999 28.5s-37.666 27.167 -51.999 48.5s-21.5 47 -21.5 77c0 52 19.167 93.333 57.5 124s84.166 46 137.499 46c97.333 0 164.666 -30 201.999 -90l-87 -90
c-28 36.667 -65 55 -111 55c-36 0 -54 -12.667 -54 -38c0 -9.33301 7.16699 -17.833 21.5 -25.5s31.666 -15.5 51.999 -23.5s40.666 -17.667 60.999 -29s37.666 -28 51.999 -50s21.5 -48 21.5 -78c0 -60 -20.167 -104.333 -60.5 -133s-89.166 -43 -146.499 -43
c-52.667 0 -99.334 12.667 -140.001 38s-68 56.333 -82 93l109 77c9.33301 -22 24.666 -40.5 45.999 -55.5s46.333 -22.5 75 -22.5c18 0 31.5 3.5 40.5 10.5s13.5 15.833 13.5 26.5zM290.003 597.999l-147 143l81 81l82 -81l116 79l59 -90l-187 -132h-4z" />
    <glyph glyph-name="Tcedilla" unicode="&#x162;" horiz-adv-x="604" 
d="M102 -152l61.001 60c19.333 -18.667 44.333 -28 75 -28c21.333 0 32 5 32 15s-14 15 -42 15h-6l18 90h-41l108 555h-224l28 145h604l-28 -145h-225l-108 -555h-39l-4 -26c66 -5.33301 99 -32 99 -80c0 -32.667 -14 -58.167 -42 -76.5s-67 -27.5 -117 -27.5
c-66.667 0 -116.334 19.333 -149.001 58z" />
    <glyph glyph-name="tcedilla" unicode="&#x163;" horiz-adv-x="386" 
d="M33 -161l57 69.001c16 -18.667 41.333 -28 76 -28c21.333 0 32 5 32 15s-14 15 -42 15h-6l16 89c-28 6 -50.5 18.667 -67.5 38s-25.5 44 -25.5 74c0 20 2 40.667 6 62l44 217h-76l23 130h81l24 101h134l-22 -101h147l-24 -130h-151l-36 -174c-3.33301 -18 -5 -34 -5 -48
c-1.33301 -29.333 11 -44 37 -44c16.667 0 38.667 12 66 36l71 -84c-36.667 -46.667 -87 -73.334 -151 -80.001l-2 -22c59.333 -5.33301 89 -30.333 89 -75c0 -36 -15.5 -63.167 -46.5 -81.5s-70.833 -27.5 -119.5 -27.5c-56.667 0 -99.667 16.333 -129 49z" />
    <glyph glyph-name="Tcaron" unicode="&#x164;" horiz-adv-x="604" 
d="M83 555l28 145h604l-28 -145h-225l-108 -555h-155l108 555h-224zM405 743l-168 123l68 79l113 -76l143 76l40 -89l-192 -113h-4z" />
    <glyph glyph-name="tcaron" unicode="&#x165;" horiz-adv-x="426" 
d="M424 701l147 0.000976562c3.33301 -6.66699 5 -22.334 5 -47.001c0 -82.667 -52 -152 -156 -208l-56 62c48 40.667 72 84 72 130c0 23.333 -4 44.333 -12 63zM349 621.001l-86 -405.001c-3.33301 -18 -5 -34 -5 -48c-1.33301 -29.333 11 -44 37 -44
c16.667 0 38.667 12 66 36l71 -84c-42 -54.667 -104 -82 -186 -82c-37.333 0 -68.833 10.333 -94.5 31s-38.5 49.334 -38.5 86.001c0 20 2 40.667 6 62l44 217h-76l23 130h81l24 101h134z" />
    <glyph glyph-name="Umacron" unicode="&#x16a;" horiz-adv-x="720" 
d="M776 700l-78 -399.999c-19.333 -96 -57.833 -171.167 -115.5 -225.5s-133.167 -81.5 -226.5 -81.5c-82 0 -148.167 20.667 -198.5 62s-75.5 100.666 -75.5 177.999c0 24.667 2.33301 49 7 73l77 394h155l-73 -376c-4 -21.333 -6 -40.333 -6 -57
c0 -86 42.667 -129 128 -129c94 0 153 60.667 177 182l74 380h155zM328 770.001v120h314v-120h-314z" />
    <glyph glyph-name="umacron" unicode="&#x16b;" horiz-adv-x="550" 
d="M574 520l-96.999 -520h-138l10 44c-30.667 -34.667 -73.334 -52 -128.001 -52c-55.333 0 -98 13.333 -128 40s-45 63.334 -45 110.001c0 25.333 3 53.333 9 84l60 294h138l-58 -283c-2.66699 -12.667 -4 -26 -4 -40c0.666992 -24.667 6 -43.334 16 -56.001s27 -19 51 -19
c50.667 0 88.667 23 114 69l62 329h138zM229.001 610v120h294v-120h-294z" />
    <glyph glyph-name="Ubreve" unicode="&#x16c;" horiz-adv-x="720" 
d="M776 700l-78 -399.999c-19.333 -96 -57.833 -171.167 -115.5 -225.5s-133.167 -81.5 -226.5 -81.5c-82 0 -148.167 20.667 -198.5 62s-75.5 100.666 -75.5 177.999c0 24.667 2.33301 49 7 73l77 394h155l-73 -376c-4 -21.333 -6 -40.333 -6 -57
c0 -86 42.667 -129 128 -129c94 0 153 60.667 177 182l74 380h155zM290 867.001l76.001 73.001c31.333 -40 75 -60 131 -60c57.333 0 108 20 152 60l44 -86c-24.667 -30.667 -55.834 -55.667 -93.501 -75s-76.834 -29 -117.501 -29c-41.333 0 -78.666 10.667 -111.999 32
s-60 49.666 -80 84.999z" />
    <glyph glyph-name="ubreve" unicode="&#x16d;" horiz-adv-x="550" 
d="M574 520l-96.999 -520h-138l10 44c-30.667 -34.667 -73.334 -52 -128.001 -52c-55.333 0 -98 13.333 -128 40s-45 63.334 -45 110.001c0 25.333 3 53.333 9 84l60 294h138l-58 -283c-2.66699 -12.667 -4 -26 -4 -40c0.666992 -24.667 6 -43.334 16 -56.001s27 -19 51 -19
c50.667 0 88.667 23 114 69l62 329h138zM208.001 711l77.002 71c24 -34.667 55.333 -52 94 -52c22.667 0 45 5 67 15s39.667 21.667 53 35l41 -78c-16 -19.333 -30.167 -34.5 -42.5 -45.5s-30 -21.5 -53 -31.5s-48.5 -15 -76.5 -15c-36.667 0 -69.834 10.167 -99.501 30.5
s-49.834 43.833 -60.501 70.5z" />
    <glyph glyph-name="Uring" unicode="&#x16e;" horiz-adv-x="720" 
d="M776 700l-78 -399.999c-19.333 -96 -57.833 -171.167 -115.5 -225.5s-133.167 -81.5 -226.5 -81.5c-82 0 -148.167 20.667 -198.5 62s-75.5 100.666 -75.5 177.999c0 24.667 2.33301 49 7 73l77 394h155l-73 -376c-4 -21.333 -6 -40.333 -6 -57
c0 -86 42.667 -129 128 -129c94 0 153 60.667 177 182l74 380h155zM333 838.001c0 40 15.832 71.5 47.499 94.5s73.167 34.5 124.5 34.5c98.667 0 148 -35 148 -105c0 -41.333 -16.167 -74 -48.5 -98s-74.166 -36 -125.499 -36c-97.333 0 -146 36.667 -146 110z
M443.999 841.001c0 -22 13.667 -32.999 41 -32.999c16.667 0 30.167 4.16699 40.5 12.5s15.5 20.166 15.5 35.499c0 8 -3.5 15.167 -10.5 21.5s-17.5 9.5 -31.5 9.5c-36.667 0 -55 -15.333 -55 -46z" />
    <glyph glyph-name="uring" unicode="&#x16f;" horiz-adv-x="550" 
d="M574 520l-96.999 -520h-138l10 44c-30.667 -34.667 -73.334 -52 -128.001 -52c-55.333 0 -98 13.333 -128 40s-45 63.334 -45 110.001c0 25.333 3 53.333 9 84l60 294h138l-58 -283c-2.66699 -12.667 -4 -26 -4 -40c0.666992 -24.667 6 -43.334 16 -56.001s27 -19 51 -19
c50.667 0 88.667 23 114 69l62 329h138zM236.001 688c0 38 14.668 71.166 44.001 99.499s66.666 42.5 111.999 42.5c39.333 0 70 -10.5 92 -31.5s33 -48.167 33 -81.5c0 -38 -14.5 -71.333 -43.5 -100s-66.167 -43 -111.5 -43c-40 0 -71 10.333 -93 31
s-33 48.334 -33 83.001zM333.002 693.999c0 -23.333 13 -35.001 39 -35.001c14 0 25.667 5 35 15s14 22.667 14 38c0 22 -13 33 -39 33c-14 0 -25.667 -4.66699 -35 -14s-14 -21.666 -14 -36.999z" />
    <glyph glyph-name="Uhungarumlaut" unicode="&#x170;" horiz-adv-x="720" 
d="M776 700l-78 -399.999c-19.333 -96 -57.833 -171.167 -115.5 -225.5s-133.167 -81.5 -226.5 -81.5c-82 0 -148.167 20.667 -198.5 62s-75.5 100.666 -75.5 177.999c0 24.667 2.33301 49 7 73l77 394h155l-73 -376c-4 -21.333 -6 -40.333 -6 -57
c0 -86 42.667 -129 128 -129c94 0 153 60.667 177 182l74 380h155zM770 818.001l-211 -99l-57 67l169 133zM553 862.001l-177 -131l-60 62l111 142z" />
    <glyph glyph-name="uhungarumlaut" unicode="&#x171;" horiz-adv-x="550" 
d="M574 520l-96.999 -520h-138l10 44c-30.667 -34.667 -73.334 -52 -128.001 -52c-55.333 0 -98 13.333 -128 40s-45 63.334 -45 110.001c0 25.333 3 53.333 9 84l60 294h138l-58 -283c-2.66699 -12.667 -4 -26 -4 -40c0.666992 -24.667 6 -43.334 16 -56.001s27 -19 51 -19
c50.667 0 88.667 23 114 69l62 329h138zM441.001 748l-143 -155l-70 67l128 164zM621.001 730l-156 -141l-64 73l143 151z" />
    <glyph glyph-name="Uogonek" unicode="&#x172;" horiz-adv-x="720" 
d="M776 700l-77.999 -400.001c-31.333 -162.667 -117.666 -262.667 -258.999 -300c-19.333 -19.333 -29 -37 -29 -53c0 -18 8 -27 24 -27c13.333 0 27.333 3.33301 42 10l28 -90c-10.667 -10.667 -28.167 -20 -52.5 -28s-49.5 -12 -75.5 -12
c-38 0 -68.833 6.83301 -92.5 20.5s-35.5 33.834 -35.5 60.501c0 43.333 31 80.666 93 111.999c-86.667 0.666992 -155 28.334 -205 83.001s-65.667 131.334 -47 230.001l77 394h155l-73 -376c-10.667 -54.667 -6.33398 -99.334 12.999 -134.001s55.666 -52 108.999 -52
c48 0 87 17 117 51s50 77.667 60 131l74 380h155z" />
    <glyph glyph-name="uogonek" unicode="&#x173;" horiz-adv-x="550" 
d="M574 520l-96.999 -519.999c-22 0 -43.167 -5.33301 -63.5 -16s-30.5 -23.667 -30.5 -39c0 -8.66699 3.5 -15 10.5 -19s14.5 -6 22.5 -6c14.667 0 29.667 3.33301 45 10l27 -90c-10.667 -10.667 -28.167 -20 -52.5 -28s-49.5 -12 -75.5 -12c-38 0 -68.833 7 -92.5 21
s-35.5 35.333 -35.5 64c0 53.333 35.667 91.666 107 114.999l10 44c-30.667 -34.667 -73.334 -52 -128.001 -52c-55.333 0 -98 13.333 -128 40s-45 63.334 -45 110.001c0 25.333 3 53.333 9 84l60 294h138l-58 -283c-2.66699 -12.667 -4 -26 -4 -40
c0.666992 -24.667 6 -43.334 16 -56.001s27 -19 51 -19c50.667 0 88.667 23 114 69l62 329h138z" />
    <glyph glyph-name="Ydieresis" unicode="&#x178;" horiz-adv-x="700" 
d="M821 700l-371 -449l-49 -251h-155l49 251l-194 449h174l120 -276l229 276h197zM505 829c0 22 7.83301 40.667 23.5 56s34.834 23 57.501 23s42.167 -7.66699 58.5 -23s24.5 -34 24.5 -56c0 -21.333 -8.16699 -39.333 -24.5 -54s-35.833 -22 -58.5 -22
s-41.834 7.33301 -57.501 22s-23.5 32.667 -23.5 54zM256 829c0 22 7.66699 40.667 23 56s34.333 23 57 23c23.333 0 43.166 -7.66699 59.499 -23s24.5 -34 24.5 -56c0 -21.333 -8.16699 -39.333 -24.5 -54s-36.166 -22 -59.499 -22c-22.667 0 -41.667 7.33301 -57 22
s-23 32.667 -23 54z" />
    <glyph glyph-name="Zacute" unicode="&#x179;" horiz-adv-x="635" 
d="M110 555l28 145h579l-20 -103l-449 -452h370l-28 -145h-605l20 103l444 452h-339zM632 838l-245 -102l-43 107l234 131z" />
    <glyph glyph-name="zacute" unicode="&#x17a;" horiz-adv-x="480" 
d="M77 390l24 130h429v-80l-310 -310h242l-25 -130h-437v88l306 302h-229zM526 739l-148 -149l-92 81l141 162z" />
    <glyph glyph-name="Zdotaccent" unicode="&#x17b;" horiz-adv-x="635" 
d="M110 555l28 145h579l-20 -103l-449 -452h370l-28 -145h-605l20 103l444 452h-339zM370 829c0 22 7.66699 40.667 23 56s34.333 23 57 23c23.333 0 43.166 -7.66699 59.499 -23s24.5 -34 24.5 -56c0 -21.333 -8.16699 -39.333 -24.5 -54s-36.166 -22 -59.499 -22
c-22.667 0 -41.667 7.33301 -57 22s-23 32.667 -23 54z" />
    <glyph glyph-name="zdotaccent" unicode="&#x17c;" horiz-adv-x="480" 
d="M77 390l24 130h429v-80l-310 -310h242l-25 -130h-437v88l306 302h-229zM255 659c0 20 7.16699 37.167 21.5 51.5s32.166 21.5 53.499 21.5s39.5 -7.16699 54.5 -21.5s22.5 -31.5 22.5 -51.5s-7.5 -36.833 -22.5 -50.5s-33.167 -20.5 -54.5 -20.5
s-39.166 6.66699 -53.499 20s-21.5 30.333 -21.5 51z" />
    <glyph glyph-name="Zcaron" unicode="&#x17d;" horiz-adv-x="635" 
d="M110 555l28 145h579l-20 -103l-449 -452h370l-28 -145h-605l20 103l444 452h-339zM415 743l-168 123l68 79l113 -76l143 76l40 -89l-192 -113h-4z" />
    <glyph glyph-name="zcaron" unicode="&#x17e;" horiz-adv-x="480" 
d="M77 390l24 130h429v-80l-310 -310h242l-25 -130h-437v88l306 302h-229zM326 598l-147 143l81 81l82 -81l116 79l59 -90l-187 -132h-4z" />
    <glyph glyph-name="uni018F" unicode="&#x18f;" horiz-adv-x="766" 
d="M54 259c0 58 16.333 115.002 49 171.002h526c-4 41.333 -20.667 73.833 -50 97.5s-70 35.5 -122 35.5c-36 0 -73.833 -7 -113.5 -21s-75.167 -36.667 -106.5 -68l-85 100c80.667 89.333 183.667 134 309 134c218 0 327 -105.667 327 -317
c0 -53.333 -9.33301 -103.833 -28 -151.5s-45.167 -90 -79.5 -127s-78.666 -66.333 -132.999 -88s-114.5 -32.5 -180.5 -32.5c-55.333 0 -103.833 7.66699 -145.5 23s-74.334 36.166 -98.001 62.499s-41.167 54.666 -52.5 84.999s-17 62.5 -17 96.5zM613 285.002h-400.001
c-2 -46 10.333 -82.167 37 -108.5s69 -39.5 127 -39.5c55.333 0 104.833 13.5 148.5 40.5s72.834 62.833 87.501 107.5z" />
    <glyph glyph-name="florin" unicode="&#x192;" horiz-adv-x="539" 
d="M376 465l0.000976562 -1c-0.666992 -1.33301 -1 -2.33301 -1 -3h132v-135h-156l-57 -319c-11.333 -66.667 -31.5 -119.167 -60.5 -157.5s-72.833 -57.5 -131.5 -57.5c-54.667 0 -99.667 19.333 -135 58l50 112c22.667 -23.333 47.667 -35 75 -35
c28 0 46.333 22.667 55 68l61 331h-123v135h147l4 26c22.667 148 96.334 222 221.001 222c55.333 0 99.666 -13.667 132.999 -41l-53 -116c-23.333 14.667 -47.333 22 -72 22c-25.333 0 -44.333 -8.16699 -57 -24.5s-23.334 -44.5 -32.001 -84.5z" />
    <glyph glyph-name="uni01DD" unicode="&#x1dd;" 
d="M156 347l-79 84c32 38 68.167 64.5 108.5 79.5s86.166 22.5 137.499 22.5c67.333 0 122.5 -20.833 165.5 -62.5s64.5 -95.834 64.5 -162.501c0 -92 -29.667 -167.833 -89 -227.5s-133.666 -89.5 -222.999 -89.5c-62.667 0 -111 13 -145 39s-51 64.667 -51 116
c0 46 17.5 84.833 52.5 116.5s79.5 52.834 133.5 63.501s111.333 11.667 172 3c-12.667 49.333 -48 74 -106 74c-54.667 0 -101.667 -18.667 -141 -56zM247 121c31.333 0 59.833 8 85.5 24s45.167 38 58.5 66c-60 4 -108.5 1 -145.5 -9s-55.5 -23.667 -55.5 -41
c0 -26.667 19 -40 57 -40z" />
    <glyph glyph-name="Scommaaccent" unicode="&#x218;" horiz-adv-x="619" 
d="M439 202c0 21.333 -11.166 39.1709 -33.499 53.5039s-49.333 26.666 -81 36.999s-63.334 22.166 -95.001 35.499s-58.667 33.666 -81 60.999s-33.5 61 -33.5 101c0 69.333 27.167 124.333 81.5 165s121.833 61 202.5 61c112.667 0 199.334 -39.667 260.001 -119l-102 -97
c-52.667 47.333 -108.334 71 -167.001 71c-76 0 -114 -21 -114 -63c0 -15.333 8 -29 24 -41s36 -21.5 60 -28.5s50 -16.333 78 -28s54 -24.5 78 -38.5s44 -34.5 60 -61.5s24 -58.5 24 -94.5c0 -70.667 -28 -127 -84 -169s-123.667 -63 -203 -63
c-72 0 -132.667 15.667 -182 47s-84.666 71.666 -105.999 120.999l114 89c19.333 -34 44.666 -61.167 75.999 -81.5s66.333 -30.5 105 -30.5c40.667 0 70.667 7 90 21s29 31.333 29 52zM208.001 -104.995l127.999 74c24 -20.667 36 -46.667 36 -78
c0 -40.667 -14.667 -77 -44 -109s-62.666 -58 -99.999 -78l-57 61c36.667 32 55 59.333 55 82c0 14 -6 30 -18 48z" />
    <glyph glyph-name="scommaaccent" unicode="&#x219;" horiz-adv-x="439" 
d="M284 155c0 10.667 -7.16406 20.333 -21.4971 29s-31.666 17 -51.999 25s-40.666 17.5 -60.999 28.5s-37.666 27.167 -51.999 48.5s-21.5 47 -21.5 77c0 52 19.167 93.333 57.5 124s84.166 46 137.499 46c97.333 0 164.666 -30 201.999 -90l-87 -90
c-28 36.667 -65 55 -111 55c-36 0 -54 -12.667 -54 -38c0 -9.33301 7.16699 -17.833 21.5 -25.5s31.666 -15.5 51.999 -23.5s40.666 -17.667 60.999 -29s37.666 -28 51.999 -50s21.5 -48 21.5 -78c0 -60 -20.167 -104.333 -60.5 -133s-89.166 -43 -146.499 -43
c-52.667 0 -99.334 12.667 -140.001 38s-68 56.333 -82 93l109 77c9.33301 -22 24.666 -40.5 45.999 -55.5s46.333 -22.5 75 -22.5c18 0 31.5 3.5 40.5 10.5s13.5 15.833 13.5 26.5zM130.003 -100.001l136 68.999c24 -20.667 36 -46.667 36 -78
c0 -40.667 -14.167 -77.167 -42.5 -109.5s-60.833 -58.166 -97.5 -77.499l-60 58c34 29.333 51 57.333 51 84c0 16 -7.66699 34 -23 54z" />
    <glyph glyph-name="Tcommaaccent" unicode="&#x21a;" horiz-adv-x="604" 
d="M83 555l28 145h604l-28 -145h-225l-108 -555h-155l108 555h-224zM178 -105l127.999 74c24 -20.667 36 -46.667 36 -78c0 -40.667 -14.667 -77 -44 -109s-62.666 -58 -99.999 -78l-57 61c36.667 32 55 59.333 55 82c0 14 -6 30 -18 48z" />
    <glyph glyph-name="tcommaaccent" unicode="&#x21b;" horiz-adv-x="386" 
d="M47 390l23 129.999h81l24 101h134l-22 -101h147l-24 -130h-151l-36 -174c-3.33301 -18 -5 -34 -5 -48c-1.33301 -29.333 11 -44 37 -44c16.667 0 38.667 12 66 36l71 -84c-42 -54.667 -104 -82 -186 -82c-37.333 0 -68.833 10.333 -94.5 31s-38.5 49.334 -38.5 86.001
c0 20 2 40.667 6 62l44 217h-76zM125 -100.001l136 68.999c24 -20.667 36 -46.667 36 -78c0 -40.667 -14.167 -77.167 -42.5 -109.5s-60.833 -58.166 -97.5 -77.499l-60 58c34 29.333 51 57.333 51 84c0 16 -7.66699 34 -23 54z" />
    <glyph glyph-name="uni0237" unicode="&#x237;" horiz-adv-x="263" 
d="M296 520l-94.999 -518c-26.667 -140.667 -97.334 -211 -212.001 -211c-88 0 -140 40 -156 120l129 49c6.66699 -22.667 19.667 -34 39 -34c32 0 52.667 26.333 62 79l95 515h138z" />
    <glyph glyph-name="uni0259" unicode="&#x259;" 
d="M156 347l-79 84c32 38 68.167 64.5 108.5 79.5s86.166 22.5 137.499 22.5c67.333 0 122.5 -20.833 165.5 -62.5s64.5 -95.834 64.5 -162.501c0 -92 -29.667 -167.833 -89 -227.5s-133.666 -89.5 -222.999 -89.5c-62.667 0 -111 13 -145 39s-51 64.667 -51 116
c0 46 17.5 84.833 52.5 116.5s79.5 52.834 133.5 63.501s111.333 11.667 172 3c-12.667 49.333 -48 74 -106 74c-54.667 0 -101.667 -18.667 -141 -56zM247 121c31.333 0 59.833 8 85.5 24s45.167 38 58.5 66c-60 4 -108.5 1 -145.5 -9s-55.5 -23.667 -55.5 -41
c0 -26.667 19 -40 57 -40z" />
    <glyph glyph-name="afii57929" unicode="&#x2bc;" horiz-adv-x="216" 
d="M179 666l129 71.999c24 -36 36 -69 36 -99c0 -73.333 -55 -138.666 -165 -195.999l-58 61c50.667 39.333 76 74.333 76 105c0 15.333 -6 34.333 -18 57z" />
    <glyph glyph-name="circumflex" unicode="&#x2c6;" horiz-adv-x="467" 
d="M450 796l147 -143l-81 -81l-82 81l-116 -79l-59 90l187 132h4z" />
    <glyph glyph-name="caron" unicode="&#x2c7;" horiz-adv-x="464" 
d="M411 598l-147 143l81 81l82 -81l116 79l59 -90l-187 -132h-4z" />
    <glyph glyph-name="breve" unicode="&#x2d8;" horiz-adv-x="471" 
d="M280 711l77.002 71c24 -34.667 55.333 -52 94 -52c22.667 0 45 5 67 15s39.667 21.667 53 35l41 -78c-16 -19.333 -30.167 -34.5 -42.5 -45.5s-30 -21.5 -53 -31.5s-48.5 -15 -76.5 -15c-36.667 0 -69.834 10.167 -99.501 30.5s-49.834 43.833 -60.501 70.5z" />
    <glyph glyph-name="dotaccent" unicode="&#x2d9;" horiz-adv-x="237" 
d="M133 659c0 20 7.16699 37.167 21.5 51.5s32.166 21.5 53.499 21.5s39.5 -7.16699 54.5 -21.5s22.5 -31.5 22.5 -51.5s-7.5 -36.833 -22.5 -50.5s-33.167 -20.5 -54.5 -20.5s-39.166 6.66699 -53.499 20s-21.5 30.333 -21.5 51z" />
    <glyph glyph-name="ring" unicode="&#x2da;" horiz-adv-x="443" 
d="M301 688c0 38 14.668 71.166 44.001 99.499s66.666 42.5 111.999 42.5c39.333 0 70 -10.5 92 -31.5s33 -48.167 33 -81.5c0 -38 -14.5 -71.333 -43.5 -100s-66.167 -43 -111.5 -43c-40 0 -71 10.333 -93 31s-33 48.334 -33 83.001zM398.001 693.999
c0 -23.333 13 -35.001 39 -35.001c14 0 25.667 5 35 15s14 22.667 14 38c0 22 -13 33 -39 33c-14 0 -25.667 -4.66699 -35 -14s-14 -21.666 -14 -36.999z" />
    <glyph glyph-name="ogonek" unicode="&#x2db;" horiz-adv-x="395" 
d="M337 -70l26.999 -90.001c-10.667 -10.667 -28.167 -20 -52.5 -28s-49.5 -12 -75.5 -12c-38 0 -68.833 7 -92.5 21s-35.5 35.333 -35.5 64c0 32 13.833 58.833 41.5 80.5s61.5 36.834 101.5 45.501s84.333 12.667 133 12l-5 -23c-29.333 0 -56.666 -5.33301 -81.999 -16
s-38 -23.667 -38 -39c0 -8.66699 3.5 -15 10.5 -19s14.5 -6 22.5 -6c14.667 0 29.667 3.33301 45 10z" />
    <glyph glyph-name="tilde" unicode="&#x2dc;" horiz-adv-x="470" 
d="M291 599l-55.999 67.001c16 21.333 35.833 39.666 59.5 54.999s47.5 23 71.5 23c18 0 39.5 -6.5 64.5 -19.5s43.833 -19.5 56.5 -19.5c23.333 0 45.666 9 66.999 27l45 -75c-41.333 -48 -82 -72 -122 -72c-18 0 -40 6.5 -66 19.5s-46 19.5 -60 19.5
c-18 0 -38 -8.33301 -60 -25z" />
    <glyph glyph-name="hungarumlaut" unicode="&#x2dd;" horiz-adv-x="544" 
d="M506 748l-143 -155l-70 67l128 164zM686 730l-156 -141l-64 73l143 151z" />
    <glyph glyph-name="gravecomb" unicode="&#x300;" horiz-adv-x="0" 
d="M-212 585l-128 176l123 72l98 -189z" />
    <glyph glyph-name="acutecomb" unicode="&#x301;" horiz-adv-x="0" 
d="M-30 739l-148 -149l-92 81l141 162z" />
    <glyph glyph-name="uni0394" unicode="&#x394;" horiz-adv-x="733" 
d="M49 0l303 707h101l309 -707h-713zM403 455l-139 -325h281z" />
    <glyph glyph-name="uni0394" unicode="&#x2206;" horiz-adv-x="733" 
d="M49 0l303 707h101l309 -707h-713zM403 455l-139 -325h281z" />
    <glyph glyph-name="uni03A9" unicode="&#x3a9;" horiz-adv-x="829" 
d="M86 0l-0.00195312 149.998h120c-20 8.66699 -41.167 36.334 -63.5 83.001s-33.5 99 -33.5 157c0 99.333 32.833 177.833 98.5 235.5s150.167 86.5 253.5 86.5c105.333 0 190.333 -28.667 255 -86s97 -136 97 -236c0 -62 -11.667 -114.167 -35 -156.5
s-46.666 -70.166 -69.999 -83.499h127v-150h-341v150c45.333 15.333 83.166 44.5 113.499 87.5s45.5 88.833 45.5 137.5c0 48 -17.167 91.167 -51.5 129.5s-81.166 57.5 -140.499 57.5c-63.333 0 -111.166 -18.167 -143.499 -54.5s-48.5 -81.5 -48.5 -135.5
c0 -49.333 15.167 -95.333 45.5 -138s67.833 -70.667 112.5 -84v-150h-341z" />
    <glyph glyph-name="uni03A9" unicode="&#x2126;" horiz-adv-x="829" 
d="M86 0l-0.00195312 149.998h120c-20 8.66699 -41.167 36.334 -63.5 83.001s-33.5 99 -33.5 157c0 99.333 32.833 177.833 98.5 235.5s150.167 86.5 253.5 86.5c105.333 0 190.333 -28.667 255 -86s97 -136 97 -236c0 -62 -11.667 -114.167 -35 -156.5
s-46.666 -70.166 -69.999 -83.499h127v-150h-341v150c45.333 15.333 83.166 44.5 113.499 87.5s45.5 88.833 45.5 137.5c0 48 -17.167 91.167 -51.5 129.5s-81.166 57.5 -140.499 57.5c-63.333 0 -111.166 -18.167 -143.499 -54.5s-48.5 -81.5 -48.5 -135.5
c0 -49.333 15.167 -95.333 45.5 -138s67.833 -70.667 112.5 -84v-150h-341z" />
    <glyph glyph-name="pi" unicode="&#x3c0;" horiz-adv-x="645" 
d="M86 385l0.000976562 135.001h563v-135h-75v-221c0 -28.667 9.66699 -43 29 -43c10 0 25 6.33301 45 19l35 -105c-39.333 -32.667 -85 -49 -137 -49c-39.333 0 -68.666 13.167 -87.999 39.5s-29 67.833 -29 124.5v235h-112v-60c0 -91.333 -7.83301 -161.333 -23.5 -210
s-39.834 -82.334 -72.501 -101.001s-79.334 -28 -140.001 -28l-13 139c17.333 0.666992 31.166 2.66699 41.499 6s20.5 10.833 30.5 22.5s17.333 29.5 22 53.5s7.33398 55.667 8.00098 95l1 83h-85z" />
    <glyph glyph-name="afii10023" unicode="&#x401;" horiz-adv-x="649" 
d="M40 0l136 700h535l-28 -145h-380l-25 -130h355l-28 -140h-355l-27 -140h389l-28 -145h-544zM498 829c0 22 7.83301 40.667 23.5 56s34.834 23 57.501 23s42.167 -7.66699 58.5 -23s24.5 -34 24.5 -56c0 -21.333 -8.16699 -39.333 -24.5 -54s-35.833 -22 -58.5 -22
s-41.834 7.33301 -57.501 22s-23.5 32.667 -23.5 54zM249 829c0 22 7.66699 40.667 23 56s34.333 23 57 23c23.333 0 43.166 -7.66699 59.499 -23s24.5 -34 24.5 -56c0 -21.333 -8.16699 -39.333 -24.5 -54s-36.166 -22 -59.499 -22c-22.667 0 -41.667 7.33301 -57 22
s-23 32.667 -23 54z" />
    <glyph glyph-name="afii10051" unicode="&#x402;" horiz-adv-x="767" 
d="M602 228c0 26.667 -7 47.5 -21 62.5s-34.667 22.5 -62 22.5c-48.667 0 -88.667 -18.333 -120 -55l-50 -258h-155l108 555h-219l28 145h599l-28 -145h-225l-24 -124c40.667 18 84 27 130 27c63.333 0 112.5 -16.833 147.5 -50.5s52.5 -83.167 52.5 -148.5
c0 -84.667 -21.167 -150.5 -63.5 -197.5s-99.5 -70.5 -171.5 -70.5c-63.333 0 -108.666 24 -135.999 72l94 95c11.333 -14.667 27 -22 47 -22c19.333 0 35.666 8.66699 48.999 26s20 39.333 20 66z" />
    <glyph glyph-name="afii10052" unicode="&#x403;" horiz-adv-x="590" 
d="M40 0l136 700h525l-28 -145h-370l-108 -555h-155zM640 838l-245 -102l-43 107l234 131z" />
    <glyph glyph-name="afii10053" unicode="&#x404;" horiz-adv-x="690" 
d="M621 226l91.998 -96.999c-30.667 -44.667 -71.667 -79.334 -123 -104.001s-110.666 -37 -177.999 -37c-36 0 -70.5 3.66699 -103.5 11s-64.333 19.333 -94 36s-55.5 37.334 -77.5 62.001s-39.5 55.167 -52.5 91.5s-19.5 76.833 -19.5 121.5
c0 113.333 39.333 208.666 118 285.999s180 116 304 116c124.667 0 214.334 -45.333 269.001 -136l-112 -89c-40 50 -95.667 75 -167 75c-54 0 -101.167 -11.833 -141.5 -35.5s-70.5 -56.167 -90.5 -97.5h301l-29 -145h-291c8 -46 29.167 -81.833 63.5 -107.5
s77.5 -38.5 129.5 -38.5c84.667 0 152 29.333 202 88z" />
    <glyph glyph-name="afii10054" unicode="&#x405;" horiz-adv-x="619" 
d="M439 202c0 21.333 -11.166 39.1709 -33.499 53.5039s-49.333 26.666 -81 36.999s-63.334 22.166 -95.001 35.499s-58.667 33.666 -81 60.999s-33.5 61 -33.5 101c0 69.333 27.167 124.333 81.5 165s121.833 61 202.5 61c112.667 0 199.334 -39.667 260.001 -119l-102 -97
c-52.667 47.333 -108.334 71 -167.001 71c-76 0 -114 -21 -114 -63c0 -15.333 8 -29 24 -41s36 -21.5 60 -28.5s50 -16.333 78 -28s54 -24.5 78 -38.5s44 -34.5 60 -61.5s24 -58.5 24 -94.5c0 -70.667 -28 -127 -84 -169s-123.667 -63 -203 -63
c-72 0 -132.667 15.667 -182 47s-84.666 71.666 -105.999 120.999l114 89c19.333 -34 44.666 -61.167 75.999 -81.5s66.333 -30.5 105 -30.5c40.667 0 70.667 7 90 21s29 31.333 29 52z" />
    <glyph glyph-name="afii10055" unicode="&#x406;" horiz-adv-x="295" 
d="M45 0l136 700h155l-136 -700h-155z" />
    <glyph glyph-name="afii10056" unicode="&#x407;" horiz-adv-x="295" 
d="M45 0l136 700h155l-136 -700h-155zM290 829c0 22 7.83301 40.667 23.5 56s34.834 23 57.501 23s42.167 -7.66699 58.5 -23s24.5 -34 24.5 -56c0 -21.333 -8.16699 -39.333 -24.5 -54s-35.833 -22 -58.5 -22s-41.834 7.33301 -57.501 22s-23.5 32.667 -23.5 54zM101 829
c0 22 7.66699 40.667 23 56s34.333 23 57 23c23.333 0 43.166 -7.66699 59.499 -23s24.5 -34 24.5 -56c0 -21.333 -8.16699 -39.333 -24.5 -54s-36.166 -22 -59.499 -22c-22.667 0 -41.667 7.33301 -57 22s-23 32.667 -23 54z" />
    <glyph glyph-name="afii10057" unicode="&#x408;" horiz-adv-x="486" 
d="M537 700l-93 -480.999c-30.667 -154 -113.667 -231 -249 -231c-104 0 -171.667 45.333 -203 136l117 78c13.333 -24.667 27 -42.334 41 -53.001s31 -16 51 -16c25.333 0 45.333 9.5 60 28.5s26 48.167 34 87.5l88 451h154z" />
    <glyph glyph-name="afii10058" unicode="&#x409;" horiz-adv-x="1042" 
d="M783 316l-99 -0.000976562l-33 -171h95c101.333 0 152 34 152 102c0 24.667 -9.66699 42.334 -29 53.001s-48 16 -86 16zM759 699.999l-46 -239.001h101c85.333 0 147.5 -16.167 186.5 -48.5s58.5 -79.833 58.5 -142.5c0 -93.333 -30.833 -161.666 -92.5 -204.999
s-146.167 -65 -253.5 -65h-245l107 550h-205l-17 -81c-13.333 -62 -25.5 -113.5 -36.5 -154.5s-25.5 -83.333 -43.5 -127s-37.667 -78.167 -59 -103.5s-48 -46.166 -80 -62.499s-68.333 -24.5 -109 -24.5c-26 0 -45.333 1 -58 3l28 144
c38 -4.66699 67.833 2.16602 89.5 20.499s44.167 62 67.5 131s50 177.5 80 325.5l16 79h511z" />
    <glyph glyph-name="afii10059" unicode="&#x40a;" horiz-adv-x="1038" 
d="M712 444l100.999 0.000976562c160 0 240 -61 240 -183c0 -88.667 -30.167 -154.334 -90.5 -197.001s-142.166 -64 -245.499 -64h-246l58 299h-276l-58 -299h-155l136 700h155l-50 -256h276l50 256h155zM783.999 299.001h-100.001l-30 -154h96
c40.667 0 74.5 7.16699 101.5 21.5s40.5 36.833 40.5 67.5c0 24.667 -8.66699 41.667 -26 51s-44.666 14 -81.999 14z" />
    <glyph glyph-name="afii10060" unicode="&#x40b;" horiz-adv-x="739" 
d="M83 555l27.998 145h599l-28 -145h-225l-24 -125c35.333 18.667 75 28 119 28c60.667 0 105.834 -14.5 135.501 -43.5s44.834 -68.5 45.501 -118.5c0 -29.333 -2.33301 -55.333 -7 -78l-42 -218h-154l38 198c2.66699 16 4 33.333 4 52c0 18 -6.16699 33 -18.5 45
s-29.5 18 -51.5 18c-37.333 0 -71 -15 -101 -45l-52 -268h-155l108 555h-219z" />
    <glyph glyph-name="afii10061" unicode="&#x40c;" horiz-adv-x="701" 
d="M40 0l136 700h155l-54 -277l309 277h216l-356 -323l240 -377h-185l-181 283l-82 -67l-43 -216h-155zM681 838l-245 -102l-43 107l234 131z" />
    <glyph glyph-name="afii10062" unicode="&#x40e;" horiz-adv-x="728" 
d="M661 700h178.001l-361 -536c-34 -51.333 -67.833 -91.5 -101.5 -120.5s-74.167 -43.5 -121.5 -43.5c-62 -0 -106 26.333 -132 79l96 89c7.33301 -15.333 20.666 -23 39.999 -23c28 0 51.667 19 71 57l-219 498h176l145 -348zM305.001 893h130c2 -34 20.667 -51 56 -51
c32.667 0 54.667 17 66 51h130c-11.333 -53.333 -35.333 -94 -72 -122s-80.667 -42 -132 -42c-58 0 -102.833 13.833 -134.5 41.5s-46.167 68.5 -43.5 122.5z" />
    <glyph glyph-name="afii10145" unicode="&#x40f;" horiz-adv-x="745" 
d="M40 0l136 700h155l-108 -555h305l108 555h155l-136 -700h-233l-27 -137h-150l27 137h-232z" />
    <glyph glyph-name="afii10017" unicode="&#x410;" horiz-adv-x="721" 
d="M-29 0l443 700h115l171 -700h-155l-32 130h-288l-82 -130h-172zM433 465l-128 -204h177z" />
    <glyph glyph-name="afii10018" unicode="&#x411;" horiz-adv-x="665" 
d="M703 700l-28 -145h-372l-22 -114h169c72.667 0 126.667 -16.333 162 -49s53 -78 53 -136c0 -91.333 -28.833 -156.833 -86.5 -196.5s-142.5 -59.5 -254.5 -59.5h-284l136 700h527zM405 296h-151.999l-30 -151h135c97.333 0 146 29.667 146 89
c0 22.667 -7.83301 38.667 -23.5 48s-40.834 14 -75.501 14z" />
    <glyph glyph-name="afii10019" unicode="&#x412;" horiz-adv-x="678" 
d="M40 0l135.999 700h313c75.333 0 129.5 -14.167 162.5 -42.5s49.5 -71.833 49.5 -130.5c0 -34.667 -9.66699 -65.667 -29 -93s-43.666 -48.333 -72.999 -63c43.333 -24.667 65 -68.667 65 -132c0 -159.333 -106.333 -239 -319 -239h-305zM392.999 287h-142l-28 -142h134
c50 0 86.833 6.83301 110.5 20.5s35.5 35.5 35.5 65.5c0 21.333 -9.33301 36 -28 44s-46 12 -82 12zM444.999 555h-142l-25 -128h155c34.667 0 61.167 6.5 79.5 19.5s27.5 31.5 27.5 55.5c0 18 -7.16699 31.333 -21.5 40s-38.833 13 -73.5 13z" />
    <glyph glyph-name="afii10020" unicode="&#x413;" horiz-adv-x="590" 
d="M40 0l136 700h525l-28 -145h-370l-108 -555h-155z" />
    <glyph glyph-name="afii10021" unicode="&#x414;" horiz-adv-x="751" 
d="M-46 -117l51 262h76c69.333 102.667 124 259.667 164 471l16 84h510l-108 -555h81l-51 -262h-145l23 117h-449l-23 -117h-145zM386 555l-9 -38.999c-40.667 -178.667 -84.667 -302.334 -132 -371.001h263l80 410h-202z" />
    <glyph glyph-name="afii10022" unicode="&#x415;" horiz-adv-x="649" 
d="M40 0l136 700h535l-28 -145h-380l-25 -130h355l-28 -140h-355l-27 -140h389l-28 -145h-544z" />
    <glyph glyph-name="afii10024" unicode="&#x416;" horiz-adv-x="990" 
d="M322 376l-201 323l176 1l178 -277l54 277h155l-52 -275l266 275h207l-353 -345l203 -355h-172l-159 278l-26 -30l-50 -248h-155l51 255l-20 27l-264 -282h-186z" />
    <glyph glyph-name="afii10025" unicode="&#x417;" horiz-adv-x="655" 
d="M329 -12c-147.333 0 -249.666 51 -306.999 153l120 87c40.667 -63.333 105 -95 193 -95c46 0 83.333 7.5 112 22.5s43 35.833 43 62.5c0 44 -45.667 66 -137 66h-110l28 145h104c96 0 144 27 144 81c0 38 -37.667 57 -113 57c-76.667 0 -141.334 -25.333 -194.001 -76
l-91 95c78.667 84 179.667 126 303 126c170.667 0 256 -60.667 256 -182c0 -36.667 -9.66699 -69.334 -29 -98.001s-44 -50.667 -74 -66c49.333 -23.333 74 -67.333 74 -132c0 -43.333 -10 -81.666 -30 -114.999s-46.333 -59 -79 -77s-67 -31.5 -103 -40.5
s-72.667 -13.5 -110 -13.5z" />
    <glyph glyph-name="afii10026" unicode="&#x418;" horiz-adv-x="753" 
d="M167 0h-127l136 700h155l-80 -411l419 411h129l-136 -700h-155l80 409z" />
    <glyph glyph-name="afii10027" unicode="&#x419;" horiz-adv-x="753" 
d="M167 0h-127l136 700h155l-80 -411l419 411h129l-136 -700h-155l80 409zM341 893h130c2 -34 20.667 -51 56 -51c32.667 0 54.667 17 66 51h130c-11.333 -53.333 -35.333 -94 -72 -122s-80.667 -42 -132 -42c-58 0 -102.833 13.833 -134.5 41.5s-46.167 68.5 -43.5 122.5z
" />
    <glyph glyph-name="afii10028" unicode="&#x41a;" horiz-adv-x="701" 
d="M40 0l136 700h155l-54 -277l309 277h216l-356 -323l240 -377h-185l-181 283l-82 -67l-43 -216h-155z" />
    <glyph glyph-name="afii10029" unicode="&#x41b;" horiz-adv-x="727" 
d="M482 0l107 550.001h-219l-17 -81c-35.333 -170.667 -77 -292 -125 -364s-115 -108 -201 -108c-27.333 0 -47.333 1 -60 3l28 144c38 -4.66699 67.833 2.16602 89.5 20.499s44.167 62 67.5 131s50 177.5 80 325.5l16 79h525l-136 -700h-155z" />
    <glyph glyph-name="afii10030" unicode="&#x41c;" horiz-adv-x="851" 
d="M40 0l136 700h132l159 -332l274 332h156l-136 -700h-155l82 420l-237 -279h-41l-133 282l-82 -423h-155z" />
    <glyph glyph-name="afii10031" unicode="&#x41d;" horiz-adv-x="751" 
d="M506 0l54 280h-311l-54 -280h-155l136 700h155l-53 -275h311l53 275h155l-136 -700h-155z" />
    <glyph glyph-name="afii10032" unicode="&#x41e;" horiz-adv-x="781" 
d="M66 298c0 36 5.66895 73.002 17.002 111.002s28.666 75.167 51.999 111.5s51.166 68.666 83.499 96.999s71.5 51.166 117.5 68.499s95.333 26 148 26c96.667 0 173.667 -28.5 231 -85.5s86 -131.5 86 -223.5c0 -120.667 -40 -220 -120 -298s-178.667 -117 -296 -117
c-95.333 0 -172.333 29.167 -231 87.5s-88 132.5 -88 222.5zM227.002 311.002c0 -52.667 16.332 -94.666 48.999 -125.999s74.667 -47 126 -47c67.333 0 123.833 24.667 169.5 74s68.5 108 68.5 176c0 49.333 -15.5 90.666 -46.5 123.999s-73.167 50 -126.5 50
c-67.333 0 -124.166 -24.5 -170.499 -73.5s-69.5 -108.167 -69.5 -177.5z" />
    <glyph glyph-name="afii10033" unicode="&#x41f;" horiz-adv-x="750" 
d="M505 0l108 555h-310l-108 -555h-155l136 700h620l-136 -700h-155z" />
    <glyph glyph-name="afii10034" unicode="&#x420;" horiz-adv-x="677" 
d="M195 0h-155l136 700h290c170.667 0 256 -70.333 256 -211c0 -87.333 -32.5 -154 -97.5 -200s-148.833 -69 -251.5 -69h-135zM442 555h-139.001l-37 -190h133c54.667 0 95.334 10 122.001 30s40 47.667 40 83c0 51.333 -39.667 77 -119 77z" />
    <glyph glyph-name="afii10035" unicode="&#x421;" horiz-adv-x="706" 
d="M621 226l91.998 -97c-30.667 -44.667 -71.667 -79.334 -123 -104.001s-110.666 -37 -177.999 -37c-36 0 -70.5 3.66699 -103.5 11s-64.333 19.333 -94 36s-55.5 37.334 -77.5 62.001s-39.5 55.167 -52.5 91.5s-19.5 76.833 -19.5 121.5
c0 113.333 39.333 208.666 118 285.999s180 116 304 116c124.667 0 214.334 -45.333 269.001 -136l-112 -89c-40 50 -95.667 75 -167 75c-74 0 -134.333 -23.167 -181 -69.5s-70 -103.166 -70 -170.499c0 -54 17.667 -98.167 53 -132.5s82 -51.5 140 -51.5
c84.667 0 152 29.333 202 88z" />
    <glyph glyph-name="afii10036" unicode="&#x422;" horiz-adv-x="604" 
d="M83 555l28 145h604l-28 -145h-225l-108 -555h-155l108 555h-224z" />
    <glyph glyph-name="afii10037" unicode="&#x423;" horiz-adv-x="728" 
d="M661 700h178.001l-361 -536c-34 -51.333 -67.833 -91.5 -101.5 -120.5s-74.167 -43.5 -121.5 -43.5c-62 -0 -106 26.333 -132 79l96 89c7.33301 -15.333 20.666 -23 39.999 -23c28 0 51.667 19 71 57l-219 498h176l145 -348z" />
    <glyph glyph-name="afii10038" unicode="&#x424;" horiz-adv-x="899" 
d="M344 -15l16.001 81.001h-4c-86 0 -156.167 21.5 -210.5 64.5s-81.5 105.833 -81.5 188.5c0 99.333 35.833 180 107.5 242s172.5 93 302.5 93l12 61h155l-12 -61c91.333 0 163.666 -21.167 216.999 -63.5s80 -105.166 80 -188.499c0 -56 -11 -105.833 -33 -149.5
s-51.833 -78.834 -89.5 -105.501s-80.5 -46.834 -128.5 -60.501s-99.333 -20.5 -154 -20.5h-6l-16 -81h-155zM603.001 509.001h-2l-58 -298h6c70 0 123.5 15.167 160.5 45.5s55.5 73.5 55.5 129.5c0 82 -54 123 -162 123zM225.001 336.001c0 -83.333 53.333 -125 160 -125h3
l58 298c-71.333 0 -126 -14.833 -164 -44.5s-57 -72.5 -57 -128.5z" />
    <glyph glyph-name="afii10039" unicode="&#x425;" horiz-adv-x="707" 
d="M812 700l-326 -357l184 -343h-177l-115 221l-200 -221h-203l328 362l-181 338h177l112 -217l198 217h203z" />
    <glyph glyph-name="afii10040" unicode="&#x426;" horiz-adv-x="749" 
d="M40 0l136 700h155l-108 -555h283l108 555h155l-108 -555h81l-51 -262h-144l23 117h-530z" />
    <glyph glyph-name="afii10041" unicode="&#x427;" horiz-adv-x="709" 
d="M755 700l-136.001 -700h-155l51 263c-54.667 -26 -116 -39 -184 -39c-29.333 0 -57 3.33301 -83 10s-50.5 16.834 -73.5 30.501s-41.333 33 -55 58s-20.5 54.5 -20.5 88.5c0 13.333 2 31 6 53l46 236h156l-27 -138c-9.33301 -48 -14 -83.333 -14 -106
c-0.666992 -30.667 8.83301 -52.834 28.5 -66.501s47.167 -20.5 82.5 -20.5c62.667 0 118.334 14 167.001 42l56 289h155z" />
    <glyph glyph-name="afii10042" unicode="&#x428;" horiz-adv-x="949" 
d="M40 0l136 700h155l-108 -555h177l108 555h155l-108 -555h177l108 555h155l-136 -700h-819z" />
    <glyph glyph-name="afii10043" unicode="&#x429;" horiz-adv-x="977" 
d="M40 0l136 700h155l-108 -555h178l108 555h155l-108 -555h178l108 555h155l-108 -555h81l-51 -262h-145l23 117h-757z" />
    <glyph glyph-name="afii10044" unicode="&#x42a;" horiz-adv-x="741" 
d="M83 555l27.998 144.998h308l-45 -232h129c170 0 255 -67 255 -201c0 -48 -9.16699 -89.667 -27.5 -125s-44.166 -63.166 -77.499 -83.499s-70.666 -35.166 -111.999 -44.499s-87.333 -14 -138 -14h-275l108 555h-153zM472.998 322.998h-127.001l-35 -178h124
c56.667 0 97.834 7.83301 123.501 23.5s38.5 42.167 38.5 79.5c0 50 -41.333 75 -124 75z" />
    <glyph glyph-name="afii10045" unicode="&#x42b;" horiz-adv-x="900" 
d="M655 0l136 700h155l-136 -700h-155zM359 323h-101l-35 -178h99c107.333 0 161 33.667 161 101c0 51.333 -41.333 77 -124 77zM331 700l-45 -231.999h104c84 0 147.333 -17.333 190 -52s64 -83.334 64 -146.001c0 -180 -118 -270 -354 -270h-250l136 700h155z" />
    <glyph glyph-name="afii10046" unicode="&#x42c;" horiz-adv-x="657" 
d="M389 323h-130l-35 -178h127c56 0 96.5 7.66699 121.5 23s37.5 42 37.5 80c0 50 -40.333 75 -121 75zM332 700l-45 -232h132c84 0 147 -17.167 189 -51.5s63 -83.833 63 -148.5c0 -84.667 -29.5 -150.5 -88.5 -197.5s-146.5 -70.5 -262.5 -70.5h-280l136 700h156z" />
    <glyph glyph-name="afii10047" unicode="&#x42d;" horiz-adv-x="707" 
d="M238 285l28 145h303c-7.33301 39.333 -26 71.333 -56 96s-71.667 37 -125 37c-80.667 0 -153 -29 -217 -87l-83 100c82.667 88 186 132 310 132c109.333 0 192 -28.167 248 -84.5s84 -128.5 84 -216.5c0 -122 -37.667 -221.667 -113 -299s-175 -116 -299 -116
c-151.333 0 -254.666 52 -309.999 156l115 84c41.333 -63.333 105.666 -95 192.999 -95c124 0 202.667 49.333 236 148h-314z" />
    <glyph glyph-name="afii10048" unicode="&#x42e;" horiz-adv-x="1014" 
d="M40 0l135.999 700.001h155l-54 -278h62c30 92 78.833 162.667 146.5 212s148.167 74 241.5 74c67.333 0 124.833 -15.167 172.5 -45.5s82.167 -68 103.5 -113s32 -94.167 32 -147.5c0 -52 -9.16699 -102.333 -27.5 -151s-44.166 -92.334 -77.499 -131.001
s-76.166 -69.667 -128.499 -93s-109.5 -35 -171.5 -35c-92.667 0 -167.334 28.167 -224.001 84.5s-85 127.5 -85 213.5h-70l-56 -290h-155zM480.999 307.001c0 -51.333 15.3311 -92.499 45.998 -123.499s69.334 -46.5 116.001 -46.5c69.333 0 125 25 167 75s63 109 63 177
c0 51.333 -15.167 93.166 -45.5 125.499s-70.833 48.5 -121.5 48.5c-59.333 0 -111.666 -24.333 -156.999 -73s-68 -109.667 -68 -183z" />
    <glyph glyph-name="afii10049" unicode="&#x42f;" horiz-adv-x="701" 
d="M456 0l45 231h-114l-225 -231h-187l255 262c-80 36 -120 96.333 -120 181c0 82 30.333 145.333 91 190s138.667 67 234 67h312l-136 -700h-155zM376 376h152.999l35 179h-147c-97.333 0 -146 -31 -146 -93c0 -28 9.33301 -49.333 28 -64s44.334 -22 77.001 -22z" />
    <glyph glyph-name="afii10065" unicode="&#x430;" horiz-adv-x="576" 
d="M374 0l10.001 47.001c-28 -34.667 -74.667 -52 -140 -52c-60.667 0 -109 19.667 -145 59s-54 90.333 -54 153c0 101.333 26.5 180.666 79.5 237.999s121.5 86 205.5 86c63.333 0 106.666 -14 129.999 -42l7 31h133l-97 -520h-129zM289.001 125.001
c22 0 43.3311 5.83203 63.998 17.499s36.667 26.834 48 45.501l32 161c-19.333 34.667 -51.666 52 -96.999 52c-42.667 0 -77.667 -15.5 -105 -46.5s-41 -72.167 -41 -123.5c0 -33.333 9.33301 -59.333 28 -78s42.334 -28 71.001 -28z" />
    <glyph glyph-name="afii10066" unicode="&#x431;" horiz-adv-x="577" 
d="M592 743l0.000976562 -125.997c-29.333 -12 -73.5 -18.333 -132.5 -19s-104.833 -8.66699 -137.5 -24c-55.333 -26.667 -91.333 -71.334 -108 -134.001c41.333 53.333 102.333 80 183 80c52 0 95.667 -17.5 131 -52.5s53 -84.167 53 -147.5
c0 -104.667 -27.833 -185.834 -83.5 -243.501s-121.834 -86.5 -198.501 -86.5c-80.667 0 -143.167 23.5 -187.5 70.5s-66.5 107.833 -66.5 182.5c0 103.333 19.833 195.666 59.5 276.999s94.5 139 164.5 173c38 18 97.5 30 178.5 36s129.167 10.667 144.5 14z
M197.001 295.003c-6.66699 -18.667 -10.002 -40.3311 -10.002 -64.998c0 -28 10.833 -53.333 32.5 -76s48.5 -34 80.5 -34c36.667 0 68.167 16.167 94.5 48.5s39.5 74.166 39.5 125.499c0 27.333 -8.66699 50.166 -26 68.499s-41.666 27.5 -72.999 27.5
c-26 0 -51.667 -8.66699 -77 -26s-45.666 -40.333 -60.999 -69z" />
    <glyph glyph-name="afii10067" unicode="&#x432;" horiz-adv-x="543" 
d="M553 390c0 -49.333 -23.6689 -89.668 -71.002 -121.001c35.333 -18.667 53 -48.667 53 -90c0 -48.667 -23.667 -92.667 -71 -132s-107 -59 -179 -59c-75.333 0 -134.166 20.833 -176.499 62.5s-63.5 96.834 -63.5 165.501c0 92 29.833 167.833 89.5 227.5
s133.834 89.5 222.501 89.5c62 0 110.167 -12.333 144.5 -37s51.5 -60 51.5 -106zM389.998 179.998c0 18.667 -9.99902 31 -29.999 37c-46.667 -12 -102.334 -20.667 -167.001 -26c10.667 -48.667 44 -73 100 -73c30 0 53.667 5.66699 71 17s26 26.333 26 45z
M350.999 402.998c-37.333 0 -69.001 -8.83203 -95.001 -26.499s-44.333 -42.167 -55 -73.5c60 5.33301 109.5 14.666 148.5 27.999s58.5 28 58.5 44c0 7.33301 -4.66699 13.833 -14 19.5s-23.666 8.5 -42.999 8.5z" />
    <glyph glyph-name="afii10068" unicode="&#x433;" horiz-adv-x="471" 
d="M172 158c0 -10.667 5.66602 -19.834 16.999 -27.501s27.666 -11.5 48.999 -11.5c60 0 115 20.667 165 62l70 -95c-62.667 -64.667 -139 -97 -229 -97c-66.667 0 -119.5 14.667 -158.5 44s-58.5 66.666 -58.5 111.999c0 29.333 5.83301 54.833 17.5 76.5
s26.834 38.5 45.501 50.5s39.334 21.833 62.001 29.5s45.5 13.667 68.5 18s43.833 8.33301 62.5 12s33.834 8.5 45.501 14.5s17.5 14 17.5 24c0 8.66699 -4.33301 16.334 -13 23.001s-21.667 10 -39 10c-53.333 0 -104 -20 -152 -60l-75 89c26 30 59.667 54.333 101 73
s87.666 28 138.999 28c50 0 93.167 -12.5 129.5 -37.5s54.5 -61.167 54.5 -108.5c0 -41.333 -11 -75.166 -33 -101.499s-48.5 -44.5 -79.5 -54.5s-62.167 -17.833 -93.5 -23.5s-58 -12 -80 -19s-33 -17.167 -33 -30.5z" />
    <glyph glyph-name="afii10069" unicode="&#x434;" horiz-adv-x="589" 
d="M45 203c0 95.333 30.001 173.333 90.001 234s134.333 91 223 91c50 0 84 -10.333 102 -31c-8.66699 38.667 -35.834 66.167 -81.501 82.5s-97.167 21.5 -154.5 15.5l18 117c38 1.33301 73.5 -0.166992 106.5 -4.5s65.667 -13.5 98 -27.5s59.666 -32.333 81.999 -55
s40.5 -53.167 54.5 -91.5s21 -82.5 21 -132.5c0 -77.333 -11.667 -146.5 -35 -207.5s-60.166 -110.5 -110.499 -148.5s-110.5 -57 -180.5 -57c-68 0 -123.833 19.333 -167.5 58s-65.5 91 -65.5 157zM190.001 222c0 -31.333 9.33203 -56.5 27.999 -75.5
s42.334 -28.5 71.001 -28.5c45.333 0 84.333 21.833 117 65.5s51 98.5 55 164.5c-20.667 33.333 -59 50 -115 50c-40 0 -76 -16 -108 -48s-48 -74.667 -48 -128z" />
    <glyph glyph-name="afii10070" unicode="&#x435;" 
d="M442 177l78.998 -84.001c-32 -38 -68.167 -64.5 -108.5 -79.5s-86.166 -22.5 -137.499 -22.5c-67.333 0 -122.5 20.833 -165.5 62.5s-64.5 95.834 -64.5 162.501c0 92 29.667 167.833 89 227.5s133.666 89.5 222.999 89.5c62.667 0 111 -13 145 -39s51 -64.667 51 -116
c0 -59.333 -27.167 -105.833 -81.5 -139.5s-121.166 -50.5 -200.499 -50.5c-25.333 0 -51 2 -77 6c12.667 -48.667 48.334 -73 107.001 -73c54.667 0 101.667 18.667 141 56zM350.998 402.999c-31.333 0 -60 -8.16699 -86 -24.5s-45.333 -38.5 -58 -66.5
c9.33301 -0.666992 23 -1 41 -1c48.667 0 87.5 4.83301 116.5 14.5s43.5 22.167 43.5 37.5c0 26.667 -19 40 -57 40z" />
    <glyph glyph-name="afii10072" unicode="&#x436;" horiz-adv-x="722" 
d="M214 302l-138 218h154l103 -177l33 177h137l-32 -178l170 178h159l-226 -237l133 -283h-149l-95 214l-18 -15l-37 -199h-138l37 198l-9 17l-168 -215h-160z" />
    <glyph glyph-name="afii10073" unicode="&#x437;" horiz-adv-x="476" 
d="M222 -12c-56 0 -102.331 12.3301 -138.998 36.9971s-62.667 58.667 -78 102l106 68c9.33301 -24 24.666 -42.833 45.999 -56.5s45.666 -20.5 72.999 -20.5c29.333 0 52.5 4.83301 69.5 14.5s25.833 21.834 26.5 36.501c0.666992 11.333 -4 20.5 -14 27.5
s-24 10.5 -42 10.5h-103l24 115h98c16 0 29.167 4.33301 39.5 13s15.5 20 15.5 34c0 24 -22 36 -66 36c-51.333 0 -97.666 -21.667 -138.999 -65l-80 90c65.333 70 150.666 105 255.999 105c57.333 0 100.666 -12.667 129.999 -38s44 -57.666 44 -96.999
c0 -24 -6.16699 -47.333 -18.5 -70s-29.833 -41.667 -52.5 -57c15.333 -8 28 -20 38 -36s15 -34 15 -54c0 -57.333 -23.167 -104.166 -69.5 -140.499s-106.166 -54.5 -179.499 -54.5z" />
    <glyph glyph-name="afii10074" unicode="&#x438;" horiz-adv-x="550" 
d="M574 520l-96.999 -520h-138l10 44c-30.667 -34.667 -73.334 -52 -128.001 -52c-55.333 0 -98 13.333 -128 40s-45 63.334 -45 110.001c0 25.333 3 53.333 9 84l60 294h138l-58 -283c-2.66699 -12.667 -4 -26 -4 -40c0.666992 -24.667 6 -43.334 16 -56.001s27 -19 51 -19
c50.667 0 88.667 23 114 69l62 329h138z" />
    <glyph glyph-name="afii10075" unicode="&#x439;" horiz-adv-x="550" 
d="M574 520l-96.999 -520h-138l10 44c-30.667 -34.667 -73.334 -52 -128.001 -52c-55.333 0 -98 13.333 -128 40s-45 63.334 -45 110.001c0 25.333 3 53.333 9 84l60 294h138l-58 -283c-2.66699 -12.667 -4 -26 -4 -40c0.666992 -24.667 6 -43.334 16 -56.001s27 -19 51 -19
c50.667 0 88.667 23 114 69l62 329h138zM200.001 738h126.003c-4.66699 -35.333 8.66602 -53 39.999 -53c32 0 50.667 17.667 56 53h126c-6.66699 -44.667 -26.834 -83 -60.501 -115s-77.834 -48 -132.501 -48c-52 0 -92.667 13.5 -122 40.5s-40.333 67.833 -33 122.5z" />
    <glyph glyph-name="afii10076" unicode="&#x43a;" horiz-adv-x="536" 
d="M24 0l98 520h137l-34 -186l205 186h182l-268 -238l177 -282h-165l-127 211l-32 -31l-36 -180h-137z" />
    <glyph glyph-name="afii10077" unicode="&#x43b;" horiz-adv-x="555" 
d="M346 0l72.001 390h-119l-17 -63c-35.333 -128.667 -76.833 -217.5 -124.5 -266.5s-104.834 -70.5 -171.501 -64.5l15 140c14 -0.666992 26.667 1.5 38 6.5s24.333 16 39 33s29.5 45 44.5 84s29.167 88.167 42.5 147.5l26 113h388l-95 -520h-138z" />
    <glyph glyph-name="afii10078" unicode="&#x43c;" horiz-adv-x="640" 
d="M24 0l96 520h116l114 -208l191 208h123l-96 -520h-137l49 266l-156 -165l-111 177l-51 -278h-138z" />
    <glyph glyph-name="afii10079" unicode="&#x43d;" horiz-adv-x="561" 
d="M351 0l36 197h-187l-38 -197h-138l96 520h138l-35 -193h187l37 193h138l-96 -520h-138z" />
    <glyph glyph-name="afii10080" unicode="&#x43e;" horiz-adv-x="587" 
d="M45 211c0 91.333 30.168 167.499 90.501 228.499s134.166 91.5 221.499 91.5c72 0 129 -20.5 171 -61.5s63 -93.167 63 -156.5c0 -93.333 -28.833 -170.166 -86.5 -230.499s-132.167 -90.5 -223.5 -90.5c-74.667 0 -132.667 20.5 -174 61.5s-62 93.5 -62 157.5z
M190.001 236.999c0 -36.667 9.5 -65.001 28.5 -85.001s46.833 -30 83.5 -30c36 0 69 16.333 99 49s45 74.334 45 125.001c0 30 -9 55 -27 75s-43.667 30 -77 30c-38.667 0 -73.667 -15.5 -105 -46.5s-47 -70.167 -47 -117.5z" />
    <glyph glyph-name="afii10081" unicode="&#x43f;" horiz-adv-x="557" 
d="M24 0l97.001 520h138l-5 -33c35.333 28.667 77.666 43 126.999 43c117.333 0 176 -52.667 176 -158c0 -27.333 -2.66699 -54.333 -8 -81l-58 -291h-138l57 284c2.66699 13.333 4 26.333 4 39c0.666992 26.667 -5.33301 46.167 -18 58.5s-32.667 18.5 -60 18.5
c-18.667 0 -38.167 -5.33301 -58.5 -16s-37.833 -26 -52.5 -46l-64 -338h-137z" />
    <glyph glyph-name="afii10082" unicode="&#x440;" horiz-adv-x="573" 
d="M-14 -200l132 720h136l-5 -27c30.667 25.333 69.667 38 117 38c70.667 0 123.5 -20.167 158.5 -60.5s52.5 -90.5 52.5 -150.5c0 -98 -27.333 -177.167 -82 -237.5s-128 -90.5 -220 -90.5c-58.667 0 -96.667 8.66699 -114 26l-40 -218h-135zM332 401
c-44.667 0 -80.667 -19.333 -108 -58l-37 -178c16 -28.667 49 -43 99 -43c41.333 0 76 15.667 104 47s42 73.333 42 126c0 31.333 -8.66699 56.833 -26 76.5s-42 29.5 -74 29.5z" />
    <glyph glyph-name="afii10083" unicode="&#x441;" horiz-adv-x="531" 
d="M437 188l92.0029 -81.999c-30.667 -42.667 -66 -72.334 -106 -89.001s-88.333 -25 -145 -25c-67.333 0 -123 20.667 -167 62s-66 95.333 -66 162c0 92 29.333 167.5 88 226.5s131.667 88.5 219 88.5c59.333 0 106.666 -13 141.999 -39s57.666 -58 66.999 -96l-106 -65
c-24 46.667 -60.333 70 -109 70c-43.333 0 -80.166 -15.5 -110.499 -46.5s-45.5 -71.167 -45.5 -120.5c0 -35.333 11.167 -62.833 33.5 -82.5s49.166 -29.5 80.499 -29.5c59.333 0 103.666 22 132.999 66z" />
    <glyph glyph-name="afii10084" unicode="&#x442;" horiz-adv-x="792" 
d="M792 346l-67.999 -346h-138l60 305c2.66699 16 4 27.333 4 34c1.33301 40.667 -15.334 61 -50.001 61c-37.333 0 -68.666 -21 -93.999 -63l-63 -337h-138l63 329c3.33301 20 1 36.833 -7 50.5s-21 20.5 -39 20.5c-42 0 -75 -21.333 -99 -64l-61 -336h-138l96 520h138
l-7 -35c30.667 30 73 45 127 45c51.333 0 90.333 -18.667 117 -56c23.333 20.667 46.166 35.167 68.499 43.5s51.166 12.5 86.499 12.5c45.333 0 80.833 -11.5 106.5 -34.5s38.834 -56.167 39.501 -99.5c0 -17.333 -1.33301 -34 -4 -50z" />
    <glyph glyph-name="afii10085" unicode="&#x443;" horiz-adv-x="526" 
d="M4 -185l73.9961 119c6.66699 -5.33301 13.334 -8 20.001 -8c9.33301 0 20.333 6 33 18s24.667 28.333 36 49l30 56l-148 471h150l89 -319l172 319h151l-283 -496c-49.333 -86 -91.666 -146.333 -126.999 -181s-73.666 -52 -114.999 -52c-35.333 0 -62.666 8 -81.999 24z
" />
    <glyph glyph-name="afii10086" unicode="&#x444;" horiz-adv-x="732" 
d="M236 -200l35 190c-73.333 0 -129.333 21.667 -168 65s-58 97.333 -58 162c0 88 30 162 90 222s133.667 90 221 90h15l37 201h138l-37 -201c77.333 0 134.5 -19.5 171.5 -58.5s55.5 -90.833 55.5 -155.5c0 -97.333 -31.5 -175.833 -94.5 -235.5s-138.5 -89.5 -226.5 -89.5
h-6l-35 -190h-138zM190 228c0 -72 35.001 -107.999 105.001 -107.999l51 279h-6c-44.667 0 -80.834 -15.833 -108.501 -47.5s-41.5 -72.834 -41.5 -123.501zM484.001 399.001l-50.999 -279.001h5c45.333 0 82.166 17 110.499 51s42.5 78.333 42.5 133
c0 10 -1.16699 19.667 -3.5 29s-6.83301 19.333 -13.5 30s-17.667 19.334 -33 26.001s-34.333 10 -57 10z" />
    <glyph glyph-name="afii10087" unicode="&#x445;" 
d="M619 520l-240 -254l147 -266h-153l-87 165l-149 -165h-170l248 274l-139 246h156l80 -150l135 150h172z" />
    <glyph glyph-name="afii10088" unicode="&#x446;" horiz-adv-x="570" 
d="M574 520l-65.001 -345.999c-2.66699 -16.667 -1.66699 -27.334 3 -32.001s15.334 -7 32.001 -7h32l-45 -247h-129l21 112h-7c-20 0 -34.667 5.16699 -44 15.5s-12.333 22.5 -9 36.5c-34.667 -40 -82 -60 -142 -60c-55.333 0 -98 13.333 -128 40s-45 63.334 -45 110.001
c0 25.333 3 53.333 9 84l60 294h138l-58 -283c-2.66699 -12.667 -4 -26 -4 -40c0.666992 -24.667 6 -43.334 16 -56.001s27 -19 51 -19c50.667 0 88.667 23 114 69l62 329h138z" />
    <glyph glyph-name="afii10089" unicode="&#x447;" horiz-adv-x="531" 
d="M555 520l-96 -520h-138l34 185c-32.667 -23.333 -79 -35 -139 -35c-44 0 -80.333 11.5 -109 34.5s-43 58.167 -43 105.5c0 28 2 50.333 6 67l36 163h138l-24 -107c-8 -33.333 -11.667 -61.333 -11 -84c0.666992 -32.667 22 -49 64 -49c44.667 0 80 14 106 42l38 198h138z
" />
    <glyph glyph-name="afii10090" unicode="&#x448;" horiz-adv-x="766" 
d="M52 174l68 346h138l-60 -305c-2.66699 -16 -4 -31 -4 -45c-1.33301 -33.333 12 -50 40 -50c38 0 67.333 19.333 88 58l64 342h138l-63 -329c-8.66699 -47.333 3.33301 -71 36 -71c38.667 0 69.334 20.333 92.001 61l63 339h138l-96 -520h-138l7 35
c-30.667 -30 -71.334 -45 -122.001 -45c-26.667 0 -47.5 4.33301 -62.5 13s-29.833 23 -44.5 43c-23.333 -20.667 -45.5 -35.167 -66.5 -43.5s-48.833 -12.5 -83.5 -12.5c-40 0 -72.5 11.667 -97.5 35s-37.833 56.333 -38.5 99c0 17.333 1.33301 34 4 50z" />
    <glyph glyph-name="afii10091" unicode="&#x449;" horiz-adv-x="786" 
d="M579 52c-37.333 -41.333 -83.335 -61.999 -138.002 -61.999c-26.667 0 -47.5 4.33301 -62.5 13s-29.833 23 -44.5 43c-23.333 -20.667 -45.5 -35.167 -66.5 -43.5s-48.833 -12.5 -83.5 -12.5c-40 0 -72.5 11.667 -97.5 35s-37.833 56.333 -38.5 99
c0 17.333 1.33301 34 4 50l68 346h138l-60 -305c-2.66699 -16 -4 -31 -4 -45c-1.33301 -33.333 12 -50 40 -50c38 0 67.333 19.333 88 58l64 342h138l-63 -329c-8.66699 -47.333 3.33301 -71 36 -71c38.667 0 69.334 20.333 92.001 61l63 339h138l-65 -346
c-2.66699 -16.667 -1.66699 -27.334 3 -32.001s15.334 -7 32.001 -7h32l-45 -247h-129l21 112h-7c-20 0 -34.667 5.16699 -44 15.5s-12.333 22.5 -9 36.5z" />
    <glyph glyph-name="afii10092" unicode="&#x44a;" horiz-adv-x="555" 
d="M42 390l24 129.999h251l-26 -141h69c68 0 117.667 -12.667 149 -38s47 -63.666 47 -114.999c0 -68.667 -23.833 -123.5 -71.5 -164.5s-121.167 -61.5 -220.5 -61.5h-184l75 390h-113zM339 248.999h-69l-24 -119h70c29.333 0 52.5 6.5 69.5 19.5s25.5 29.5 25.5 49.5
c0 17.333 -5 30 -15 38s-29 12 -57 12z" />
    <glyph glyph-name="afii10093" unicode="&#x44b;" horiz-adv-x="684" 
d="M24 0l96 520h138l-28 -143h63c65.333 0 113 -12 143 -36s45 -62 45 -114c0 -69.333 -23 -124.5 -69 -165.5s-110.667 -61.5 -194 -61.5h-194zM262 247h-55l-22 -117h55c30 0 53.5 6.33301 70.5 19s25.5 30 25.5 52c0 16 -5.33301 27.667 -16 35s-30 11 -58 11zM475 0
l96 520h137l-96 -520h-137z" />
    <glyph glyph-name="afii10094" unicode="&#x44c;" horiz-adv-x="497" 
d="M24 0l96 520h138l-27 -143h65c134 0 201 -50 201 -150c0 -69.333 -23 -124.5 -69 -165.5s-110.667 -61.5 -194 -61.5h-210zM269 247h-62l-22 -117h71c30 0 53.5 6.33301 70.5 19s25.5 30 25.5 52c0 16 -5.83301 27.667 -17.5 35s-33.5 11 -65.5 11z" />
    <glyph glyph-name="afii10095" unicode="&#x44d;" horiz-adv-x="542" 
d="M180 207l23.001 117h203c-2.66699 25.333 -15.167 44.5 -37.5 57.5s-50.166 19.5 -83.499 19.5c-22.667 0 -47 -5.33301 -73 -16s-49 -28 -69 -52l-87 81c68 78 152 117 252 117c77.333 0 136.333 -20.5 177 -61.5s61 -93.5 61 -157.5c0 -98 -29.667 -175.833 -89 -233.5
s-137.333 -86.5 -234 -86.5c-46.667 0 -90.334 10 -131.001 30s-70.334 50.667 -89.001 92l106 68c25.333 -40 69.333 -60 132 -60c34.667 0 65.5 7.83301 92.5 23.5s44.5 36.167 52.5 61.5h-206z" />
    <glyph glyph-name="afii10096" unicode="&#x44e;" horiz-adv-x="776" 
d="M24 0l96 520.001h138l-35 -190h58c22 62 58.167 111 108.5 147s105.833 54 166.5 54c73.333 0 129 -19.333 167 -58s57 -89 57 -151c0 -106.667 -28.833 -188.334 -86.5 -245.001s-127.167 -85 -208.5 -85c-70 0 -125.167 19 -165.5 57s-60.833 89 -61.5 153h-59
l-37 -202h-138zM400 223.001c0 -29.333 8.83301 -53.5 26.5 -72.5s42.167 -28.5 73.5 -28.5c36.667 0 68.334 16 95.001 48s40 73.333 40 124c0 71.333 -31.333 107 -94 107c-36.667 0 -69.334 -16.833 -98.001 -50.5s-43 -76.167 -43 -127.5z" />
    <glyph glyph-name="afii10097" unicode="&#x44f;" horiz-adv-x="516" 
d="M331 520l209 0.00292969l-96 -520h-137l30 162h-54l-136 -162h-163l159 182c-24.667 11.333 -43.167 28.666 -55.5 51.999s-18.5 48.666 -18.5 75.999c0 61.333 21 111.666 63 150.999s108.333 59 199 59zM215 331.003c0 -29.333 19.668 -44 59.001 -44h85l20 103h-80
c-26.667 0 -47.334 -5.33301 -62.001 -16s-22 -25 -22 -43z" />
    <glyph glyph-name="afii10071" unicode="&#x451;" 
d="M442 177l78.998 -84.001c-32 -38 -68.167 -64.5 -108.5 -79.5s-86.166 -22.5 -137.499 -22.5c-67.333 0 -122.5 20.833 -165.5 62.5s-64.5 95.834 -64.5 162.501c0 92 29.667 167.833 89 227.5s133.666 89.5 222.999 89.5c62.667 0 111 -13 145 -39s51 -64.667 51 -116
c0 -59.333 -27.167 -105.833 -81.5 -139.5s-121.166 -50.5 -200.499 -50.5c-25.333 0 -51 2 -77 6c12.667 -48.667 48.334 -73 107.001 -73c54.667 0 101.667 18.667 141 56zM350.998 402.999c-31.333 0 -60 -8.16699 -86 -24.5s-45.333 -38.5 -58 -66.5
c9.33301 -0.666992 23 -1 41 -1c48.667 0 87.5 4.83301 116.5 14.5s43.5 22.167 43.5 37.5c0 26.667 -19 40 -57 40zM385.998 658.999c0 20 7.16699 37.167 21.5 51.5s32.166 21.5 53.499 21.5s39.5 -7.16699 54.5 -21.5s22.5 -31.5 22.5 -51.5s-7.5 -36.833 -22.5 -50.5
s-33.167 -20.5 -54.5 -20.5s-39.166 6.66699 -53.499 20s-21.5 30.333 -21.5 51zM189.998 658.999c0 20 7.16699 37.167 21.5 51.5s32.166 21.5 53.499 21.5s39.5 -7.16699 54.5 -21.5s22.5 -31.5 22.5 -51.5s-7.5 -36.833 -22.5 -50.5s-33.167 -20.5 -54.5 -20.5
s-39.166 6.66699 -53.499 20s-21.5 30.333 -21.5 51z" />
    <glyph glyph-name="afii10099" unicode="&#x452;" horiz-adv-x="563" 
d="M17 520l25 130h114l14 80h138l-14 -80h187l-25 -130h-187l-24 -128c36.667 26 79.667 39 129 39c62 0 107 -15.667 135 -47s42 -73.333 42 -126c0 -94.667 -27.667 -184.5 -83 -269.5s-126 -150.833 -212 -197.5l-64 98c70 43.333 122.667 93.333 158 150
s53 115.667 53 177c0 56.667 -26 85 -78 85c-19.333 0 -39 -5.66699 -59 -17s-36.667 -27 -50 -47l-43 -237h-138l96 520h-114z" />
    <glyph glyph-name="afii10100" unicode="&#x453;" horiz-adv-x="471" 
d="M172 158c0 -10.667 5.66602 -19.834 16.999 -27.501s27.666 -11.5 48.999 -11.5c60 0 115 20.667 165 62l70 -95c-62.667 -64.667 -139 -97 -229 -97c-66.667 0 -119.5 14.667 -158.5 44s-58.5 66.666 -58.5 111.999c0 29.333 5.83301 54.833 17.5 76.5
s26.834 38.5 45.501 50.5s39.334 21.833 62.001 29.5s45.5 13.667 68.5 18s43.833 8.33301 62.5 12s33.834 8.5 45.501 14.5s17.5 14 17.5 24c0 8.66699 -4.33301 16.334 -13 23.001s-21.667 10 -39 10c-53.333 0 -104 -20 -152 -60l-75 89c26 30 59.667 54.333 101 73
s87.666 28 138.999 28c50 0 93.167 -12.5 129.5 -37.5s54.5 -61.167 54.5 -108.5c0 -41.333 -11 -75.166 -33 -101.499s-48.5 -44.5 -79.5 -54.5s-62.167 -17.833 -93.5 -23.5s-58 -12 -80 -19s-33 -17.167 -33 -30.5zM528.999 742l-149 -149l-94 79l141 162z" />
    <glyph glyph-name="afii10101" unicode="&#x454;" horiz-adv-x="531" 
d="M437 188l92.0029 -81.999c-30.667 -42.667 -66 -72.334 -106 -89.001s-88.333 -25 -145 -25c-67.333 0 -123 20.667 -167 62s-66 95.333 -66 162c0 92 29.333 167.5 88 226.5s131.667 88.5 219 88.5c59.333 0 106.666 -13 141.999 -39s57.666 -58 66.999 -96l-106 -65
c-24 46.667 -60.333 70 -109 70c-27.333 0 -52.833 -6.66699 -76.5 -20s-42.5 -32 -56.5 -56h181l-22 -117h-180c6 -27.333 19.333 -48.5 40 -63.5s44.667 -22.5 72 -22.5c59.333 0 103.666 22 132.999 66z" />
    <glyph glyph-name="afii10102" unicode="&#x455;" horiz-adv-x="439" 
d="M284 155c0 10.667 -7.16406 20.333 -21.4971 29s-31.666 17 -51.999 25s-40.666 17.5 -60.999 28.5s-37.666 27.167 -51.999 48.5s-21.5 47 -21.5 77c0 52 19.167 93.333 57.5 124s84.166 46 137.499 46c97.333 0 164.666 -30 201.999 -90l-87 -90
c-28 36.667 -65 55 -111 55c-36 0 -54 -12.667 -54 -38c0 -9.33301 7.16699 -17.833 21.5 -25.5s31.666 -15.5 51.999 -23.5s40.666 -17.667 60.999 -29s37.666 -28 51.999 -50s21.5 -48 21.5 -78c0 -60 -20.167 -104.333 -60.5 -133s-89.166 -43 -146.499 -43
c-52.667 0 -99.334 12.667 -140.001 38s-68 56.333 -82 93l109 77c9.33301 -22 24.666 -40.5 45.999 -55.5s46.333 -22.5 75 -22.5c18 0 31.5 3.5 40.5 10.5s13.5 15.833 13.5 26.5z" />
    <glyph glyph-name="afii10103" unicode="&#x456;" horiz-adv-x="250" 
d="M34 0l96 520h138l-96 -520h-138zM145 659c0 20 7.16699 37.167 21.5 51.5s32.166 21.5 53.499 21.5s39.5 -7.16699 54.5 -21.5s22.5 -31.5 22.5 -51.5s-7.5 -36.833 -22.5 -50.5s-33.167 -20.5 -54.5 -20.5s-39.166 6.66699 -53.499 20s-21.5 30.333 -21.5 51z" />
    <glyph glyph-name="afii10104" unicode="&#x457;" horiz-adv-x="263" 
d="M45 0l101 520h145l-101 -520h-145zM254 659c0 20 7.16699 37.167 21.5 51.5s32.166 21.5 53.499 21.5s39.5 -7.16699 54.5 -21.5s22.5 -31.5 22.5 -51.5s-7.5 -36.833 -22.5 -50.5s-33.167 -20.5 -54.5 -20.5s-39.166 6.66699 -53.499 20s-21.5 30.333 -21.5 51zM74 659
c0 20 7.16699 37.167 21.5 51.5s32.166 21.5 53.499 21.5s39.5 -7.16699 54.5 -21.5s22.5 -31.5 22.5 -51.5s-7.5 -36.833 -22.5 -50.5s-33.167 -20.5 -54.5 -20.5s-39.166 6.66699 -53.499 20s-21.5 30.333 -21.5 51z" />
    <glyph glyph-name="afii10105" unicode="&#x458;" horiz-adv-x="250" 
d="M267 520l-94.999 -518c-26.667 -140.667 -97.334 -211 -212.001 -211c-88 0 -140 40 -156 120l129 49c6.66699 -22.667 19.667 -34 39 -34c32 0 52.667 26.333 62 79l95 515h138zM143.001 659c0 20 7.16699 37.167 21.5 51.5s32.166 21.5 53.499 21.5
s39.5 -7.16699 54.5 -21.5s22.5 -31.5 22.5 -51.5s-7.5 -36.833 -22.5 -50.5s-33.167 -20.5 -54.5 -20.5s-39.166 6.66699 -53.499 20s-21.5 30.333 -21.5 51z" />
    <glyph glyph-name="afii10106" unicode="&#x459;" horiz-adv-x="783" 
d="M345 0l71 390h-118l-15 -60c-17.333 -66 -36.333 -121.167 -57 -165.5s-43.667 -78.833 -69 -103.5s-51.666 -41.834 -78.999 -51.501s-58.333 -14.167 -93 -13.5l15 129c9.33301 0 19.5 2.5 30.5 7.5s23.833 14.5 38.5 28.5s29.5 37.167 44.5 69.5
s27.833 71.5 38.5 117.5l42 172h385l-29 -153h46c124.667 0 187 -43.333 187 -130c0 -73.333 -22.333 -131.166 -67 -173.499s-109.334 -63.5 -194.001 -63.5h-177zM564 237h-37.999l-20 -107h50c27.333 0 47.666 6 60.999 18s20 27.333 20 46c0 16 -5 27.167 -15 33.5
s-29.333 9.5 -58 9.5z" />
    <glyph glyph-name="afii10107" unicode="&#x45a;" horiz-adv-x="784" 
d="M24 0l96.001 519.999h138l-33 -174h188l32 174h138l-33 -174h45c40 0 73 -3.16699 99 -9.5s45.333 -15.833 58 -28.5s21.167 -26 25.5 -40s6.5 -31.333 6.5 -52c0 -63.333 -22.833 -115.166 -68.5 -155.499s-108.834 -60.5 -189.501 -60.5h-177l40 216h-187l-40 -216
h-138zM565.001 215.999h-38l-17 -86h37c60.667 0 91 18 91 54c0 12 -5.16699 20.333 -15.5 25s-29.5 7 -57.5 7z" />
    <glyph glyph-name="afii10108" unicode="&#x45b;" horiz-adv-x="575" 
d="M23 520l23.002 129.999h114l16 80h137l-15 -80h187l-23 -130h-188l-25 -141c36 28 80.667 42 134 42c110 0 165 -54 165 -162c0 -21.333 -2.66699 -47 -8 -77l-33 -182h-138l33 174c2.66699 18.667 4 31.334 4 38.001c1.33301 52.667 -24.334 79 -77.001 79
c-44.667 0 -81.334 -23 -110.001 -69l-40 -222h-138l96 520h-114z" />
    <glyph glyph-name="afii10109" unicode="&#x45c;" horiz-adv-x="536" 
d="M24 0l98 520h137l-34 -186l205 186h182l-268 -238l177 -282h-165l-127 211l-32 -31l-36 -180h-137zM568 742l-149 -149l-94 79l141 162z" />
    <glyph glyph-name="afii10110" unicode="&#x45e;" horiz-adv-x="526" 
d="M4 -185l73.9961 119c6.66699 -5.33301 13.334 -8 20.001 -8c9.33301 0 20.333 6 33 18s24.667 28.333 36 49l30 56l-148 471h150l89 -319l172 319h151l-283 -496c-49.333 -86 -91.666 -146.333 -126.999 -181s-73.666 -52 -114.999 -52c-35.333 0 -62.666 8 -81.999 24z
M188.996 738h126.003c-4.66699 -35.333 8.66602 -53 39.999 -53c32 0 50.667 17.667 56 53h126c-6.66699 -44.667 -26.834 -83 -60.501 -115s-77.834 -48 -132.501 -48c-52 0 -92.667 13.5 -122 40.5s-40.333 67.833 -33 122.5z" />
    <glyph glyph-name="afii10193" unicode="&#x45f;" horiz-adv-x="550" 
d="M180 -50h128l-20 -105h-128zM574 520l-96.999 -520h-138l10 44c-30.667 -34.667 -73.334 -52 -128.001 -52c-55.333 0 -98 13.333 -128 40s-45 63.334 -45 110.001c0 25.333 3 53.333 9 84l60 294h138l-58 -283c-2.66699 -12.667 -4 -26 -4 -40
c0.666992 -24.667 6 -43.334 16 -56.001s27 -19 51 -19c50.667 0 88.667 23 114 69l62 329h138z" />
    <glyph glyph-name="afii10146" unicode="&#x462;" horiz-adv-x="707" 
d="M69 485l28 145h115l14 70h155l-14 -70h215l-28 -145h-215l-11 -57h133c90 0 155.5 -14.833 196.5 -44.5s61.5 -75.5 61.5 -137.5c0 -164 -116.333 -246 -349 -246h-280l94 485h-115zM431 283h-131l-27 -138h128c52 0 90.667 6.33301 116 19s38 33 38 61
c0 24 -9.5 39.667 -28.5 47s-50.833 11 -95.5 11z" />
    <glyph glyph-name="afii10194" unicode="&#x463;" horiz-adv-x="781" 
d="M514 401c0 -3.33301 -0.166016 -7.66602 -0.499023 -12.999s-0.5 -9 -0.5 -11h82c65.333 0 112.666 -12 141.999 -36s44 -62 44 -114c0 -69.333 -23 -124.5 -69 -165.5s-110.667 -61.5 -194 -61.5h-211l61 329c0.666992 3.33301 1 11.666 1 24.999
c0 30.667 -15.667 46 -47 46c-41.333 0 -74 -21.333 -98 -64l-62 -336h-138l96 520h138l-7 -35c30.667 30 73 45 127 45c90.667 0 136 -43 136 -129zM562.001 247h-72l-21 -117h72c30 0 53.333 6.33301 70 19s25 30 25 52c0 16 -5.33301 27.667 -16 35s-30 11 -58 11z" />
    <glyph glyph-name="afii10147" unicode="&#x472;" horiz-adv-x="781" 
d="M66 298c0 36 5.66895 73.002 17.002 111.002s28.666 75.167 51.999 111.5s51.166 68.666 83.499 96.999s71.5 51.166 117.5 68.499s95.333 26 148 26c96.667 0 173.667 -28.5 231 -85.5s86 -131.5 86 -223.5c0 -120.667 -40 -220 -120 -298s-178.667 -117 -296 -117
c-95.333 0 -172.333 29.167 -231 87.5s-88 132.5 -88 222.5zM402.002 138.002c48 0 91.5 12.832 130.5 38.499s68.167 59.834 87.5 102.501h-395c6.66699 -44 26.167 -78.5 58.5 -103.5s71.833 -37.5 118.5 -37.5zM467.002 562.001c-48 0 -91.5 -12.499 -130.5 -37.499
s-68.5 -58.5 -88.5 -100.5h393c-7.33301 41.333 -26.333 74.666 -57 99.999s-69.667 38 -117 38z" />
    </font>
</defs>
</svg>
