<?xml version="1.0" standalone="no"?>
<!DOCTYPE svg PUBLIC "-//W3C//DTD SVG 1.1//EN" "http://www.w3.org/Graphics/SVG/1.1/DTD/svg11.dtd" >
<svg xmlns="http://www.w3.org/2000/svg" xmlns:xlink="http://www.w3.org/1999/xlink" version="1.1">
<metadata>
Created by FontForge 20201107 at Wed Dec 10 15:18:28 2014
 By Jimmy Wärting
Copyright (c) 2014 ParaType, Inc., ParaType Ltd. All rights reserved.
</metadata>
<defs>
<font id="Stem-Light" horiz-adv-x="600" >
  <font-face 
    font-family="Stem-Light"
    font-weight="400"
    font-stretch="normal"
    units-per-em="1000"
    panose-1="2 11 5 3 2 2 3 2 2 4"
    ascent="778"
    descent="-222"
    x-height="520"
    cap-height="700"
    bbox="-515 -251.001 1231 919"
    underline-thickness="50"
    underline-position="-100"
    unicode-range="U+0020-FEFF"
  />
<missing-glyph horiz-adv-x="300" 
 />
    <glyph glyph-name="uniF350.var.accented" unicode="&#xf350;`" horiz-adv-x="580" 
d="M2 0l261 561h54l261 -561h-71l-69 146h-300l-68 -146h-68zM288 468l-124 -263h249zM416 765l-119 -147l-42 29l111 155z" />
    <glyph glyph-name="uniF355.var.accented" unicode="&#xf355;`" horiz-adv-x="543" 
d="M65 0v560h426v-63h-359v-181h336v-63h-336v-190h368v-63h-435zM403 765l-119 -147l-42 29l111 155z" />
    <glyph glyph-name="uniF358.var.accented" unicode="&#xf358;`" horiz-adv-x="628" 
d="M122 0h-57v560h67v-447l373 447h58v-560h-67v447zM425 765l-119 -147l-42 29l111 155z" />
    <glyph glyph-name="uniF35E.var.accented" unicode="&#xf35e;`" horiz-adv-x="666" 
d="M32 280c0 80.667 28.999 148.667 86.999 204s129.667 83 215 83c84.667 0 155.834 -27.167 213.501 -81.5s86.5 -122.833 86.5 -205.5c0 -82 -29 -150.333 -87 -205s-129 -82 -213 -82c-84.667 0 -156.167 27.167 -214.5 81.5s-87.5 122.833 -87.5 205.5zM101.999 280
c0 -64 22.5 -117.167 67.5 -159.5s99.833 -63.5 164.5 -63.5c65.333 0 120 21.167 164 63.5s66 95.5 66 159.5c0 64.667 -22.333 118 -67 160s-99 63 -163 63c-64.667 0 -119.5 -21 -164.5 -63s-67.5 -95.333 -67.5 -160zM454.999 765l-119 -147l-42 29l111 155z" />
    <glyph glyph-name="uniF363.var.accented" unicode="&#xf363;`" horiz-adv-x="578" 
d="M161 12l27 57c8 -4.66699 17 -7 27 -7c24 0 46 19.667 66 59l9 17l-290 422h80l245 -354l184 354h68l-223 -433c-22.667 -43.333 -44.5 -75.333 -65.5 -96s-44.833 -31 -71.5 -31c-24 0 -42.667 4 -56 12zM417 765l-119 -147l-42 29l111 155z" />
    <glyph glyph-name="uniF36B.var.accented" unicode="&#xf36b;`" horiz-adv-x="720" 
d="M588 0v560h67v-560h-67zM268 286h-136v-223h134c114.667 0 172 39 172 117c0 70.667 -56.667 106 -170 106zM132 560v-210.999h138c78.667 0 138 -14.833 178 -44.5s60 -71.167 60 -124.5c0 -58.667 -21.5 -103.334 -64.5 -134.001s-103.5 -46 -181.5 -46h-197v560h67z
M455 765.001l-119 -147l-42 29l111 155z" />
    <glyph glyph-name="uniF36D.var.accented" unicode="&#xf36d;`" horiz-adv-x="590" 
d="M169 254v63h319c-6.66699 58 -30.5 103.833 -71.5 137.5s-95.167 50.5 -162.5 50.5c-35.333 0 -71 -7.83301 -107 -23.5s-65 -36.834 -87 -63.501l-46 42c27.333 34 63.333 60.333 108 79s90.334 28 137.001 28c92 0 164.833 -25.667 218.5 -77
s80.5 -120.666 80.5 -207.999c0 -85.333 -27.333 -154.833 -82 -208.5s-129.334 -80.5 -224.001 -80.5c-46.667 0 -91.5 8.5 -134.5 25.5s-77.833 43.5 -104.5 79.5l47 39c20 -25.333 48.167 -45.333 84.5 -60s73.5 -22 111.5 -22c66 0 119.833 18.5 161.5 55.5
s65.167 84.833 70.5 143.5h-319zM377 765l-119 -147l-42 29l111 155z" />
    <glyph glyph-name="uniF36E.var.accented" unicode="&#xf36e;`" horiz-adv-x="841" 
d="M65 0v560h67v-244h105c8.66699 72.667 39.167 132.667 91.5 180s116.833 71 193.5 71c84.667 0 153.667 -26.833 207 -80.5s80 -122.5 80 -206.5c0 -82.667 -27.167 -151.167 -81.5 -205.5s-122.833 -81.5 -205.5 -81.5c-80 0 -145.833 24.167 -197.5 72.5
s-81.167 111.5 -88.5 189.5h-104v-255h-67zM305 280c0 -64.667 20.5 -118.167 61.5 -160.5s92.833 -63.5 155.5 -63.5c65.333 0 117.833 21 157.5 63s59.5 95.667 59.5 161s-20.333 119 -61 161s-92.667 63 -156 63s-115.333 -21 -156 -63s-61 -95.667 -61 -161zM525 765
l-119 -147l-42 29l111 155z" />
    <glyph glyph-name="uniF36F.var.accented" unicode="&#xf36f;`" horiz-adv-x="576" 
d="M444 0v210.002h-169l-186 -210h-83l197 220c-49.333 9.33301 -88 28.166 -116 56.499s-42 62.833 -42 103.5c0 53.333 19.667 96.666 59 129.999s97.333 50 174 50h233v-560h-67zM254 272.002l190 -0.00195312v226h-174c-52.667 0 -91.667 -10.667 -117 -32
s-38 -49.666 -38 -84.999c0 -28.667 12.333 -53.167 37 -73.5s58.667 -32.166 102 -35.499zM423 765l-119 -147l-42 29l111 155z" />
    <glyph glyph-name="uniF371.var.accented" unicode="&#xf371;`" horiz-adv-x="543" 
d="M123 696c0 11.333 4.16699 20.833 12.5 28.5s17.833 11.5 28.5 11.5s20.334 -3.83301 29.001 -11.5s13 -17.167 13 -28.5c0 -12.667 -4.33301 -22.834 -13 -30.501s-18.334 -11.5 -29.001 -11.5c-11.333 0 -21 3.83301 -29 11.5s-12 17.834 -12 30.501zM377 696
c0 11.333 4.33398 20.833 13.001 28.5s19 11.5 31 11.5c10 0 19.5 -4 28.5 -12s13.5 -17.333 13.5 -28c0 -12.667 -4.33301 -22.834 -13 -30.501s-18.334 -11.5 -29.001 -11.5c-12 0 -22.333 3.83301 -31 11.5s-13 17.834 -13 30.501zM379.001 770l-112 -149l-37 21l96 157z
M65.001 0v560h426v-63h-359v-181h336v-63h-336v-190h368v-63h-435z" />
    <glyph glyph-name="afii10017.var.accented" unicode="&#x410;`" horiz-adv-x="678" 
d="M3 0l307 702h58l307 -702h-74l-85 192h-359l-82 -192h-72zM337 608l-151 -352h304zM501 853l-188 -91l-23 42l183 107z" />
    <glyph glyph-name="afii10022.var.accented" unicode="&#x415;`" horiz-adv-x="638" 
d="M77 0v700h499v-66h-428v-245h400v-66h-400v-257h438v-66h-509zM481 853l-188 -91l-23 42l183 107z" />
    <glyph glyph-name="afii10026.var.accented" unicode="&#x418;`" horiz-adv-x="738" 
d="M138 0h-61v700h71v-580l451 580h62v-700h-71v580zM513 853l-188 -91l-23 42l183 107z" />
    <glyph glyph-name="afii10032.var.accented" unicode="&#x41e;`" horiz-adv-x="783" 
d="M38 350c0 101.333 34.167 186.5 102.5 255.5s152.166 103.5 251.499 103.5s183 -34 251 -102s102 -153.667 102 -257c0 -102.667 -34 -188.167 -102 -256.5s-151.667 -102.5 -251 -102.5s-183.166 34 -251.499 102s-102.5 153.667 -102.5 257zM111 350
c0 -83.333 27.5 -153 82.5 -209s121.167 -84 198.5 -84c80 0 146.667 27.833 200 83.5s80 125.5 80 209.5s-27.333 153.833 -82 209.5s-120.667 83.5 -198 83.5c-78 0 -144.333 -27.833 -199 -83.5s-82 -125.5 -82 -209.5zM529 853l-188 -91l-23 42l183 107z" />
    <glyph glyph-name="afii10037.var.accented" unicode="&#x423;`" horiz-adv-x="674" 
d="M195 16l30 58c8 -4 16.333 -6 25 -6c28.667 0 59.667 34 93 102l-343 530h83l297 -460l222 460h72l-265 -542c-25.333 -54 -50.5 -93.833 -75.5 -119.5s-54.167 -38.5 -87.5 -38.5c-20.667 -0 -37.667 5.33301 -51 16zM488 853l-188 -91l-23 42l183 107z" />
    <glyph glyph-name="afii10045.var.accented" unicode="&#x42b;`" horiz-adv-x="843" 
d="M695 0v700h71v-700h-71zM314 365h-166.001v-299h164c139.333 0 209 52.333 209 157c0 46.667 -17.667 82 -53 106s-86.666 36 -153.999 36zM147.999 700l-0.000976562 -269h169c92 0 161.5 -18.167 208.5 -54.5s70.5 -87.5 70.5 -153.5
c0 -72.667 -25.167 -128 -75.5 -166s-121.166 -57 -212.499 -57h-231v700h71zM564.998 853l-188 -91l-23 42l183 107z" />
    <glyph glyph-name="afii10047.var.accented" unicode="&#x42d;`" horiz-adv-x="692" 
d="M199 324l0.000976562 66.001h382c-7.33301 78 -36 139.833 -86 185.5s-116 68.5 -198 68.5c-41.333 0 -83.5 -10.5 -126.5 -31.5s-77.833 -48.5 -104.5 -82.5l-48 45c31.333 42 73.166 74.833 125.499 98.5s105.5 35.5 159.5 35.5c108 0 193.5 -32 256.5 -96
s94.5 -150.667 94.5 -260c0 -106.667 -32 -193.667 -96 -261s-151.667 -101 -263 -101c-54 0 -106 10.667 -156 32s-90.333 53.666 -121 96.999l49 40c24 -31.333 57.667 -56.5 101 -75.5s87.333 -28.5 132 -28.5c80 0 145.5 24.833 196.5 74.5s79.5 114.167 85.5 193.5
h-383zM451.001 853.001l-188 -91l-23 42l183 107z" />
    <glyph glyph-name="afii10048.var.accented" unicode="&#x42e;`" horiz-adv-x="987" 
d="M77 0l-0.00195312 700h71v-311h131c10 92 45.667 168.333 107 229s137 91 227 91c98.667 0 179.334 -33.667 242.001 -101s94 -153.333 94 -258c0 -103.333 -31.667 -189 -95 -257s-143.666 -102 -240.999 -102c-94 0 -171.5 31.167 -232.5 93.5
s-95.167 142.5 -102.5 240.5h-130v-325h-71zM349.998 350c0 -84 25 -153.833 75 -209.5s112.667 -83.5 188 -83.5c78.667 0 142.167 27.5 190.5 82.5s72.5 125.167 72.5 210.5s-24.667 155.5 -74 210.5s-112.333 82.5 -189 82.5c-76 0 -138.833 -27.667 -188.5 -83
s-74.5 -125.333 -74.5 -210zM727.998 853l-188 -91l-23 42l183 107z" />
    <glyph glyph-name="afii10049.var.accented" unicode="&#x42f;`" horiz-adv-x="676" 
d="M528 0v267.999h-209l-224 -268h-87l234 278c-58 10 -103.833 33.333 -137.5 70s-50.5 82.334 -50.5 137.001c0 62.667 23 114.167 69 154.5s113.333 60.5 202 60.5h274v-700h-71zM296 333.999h232v301h-212c-64 0 -111.167 -14 -141.5 -42s-45.5 -65 -45.5 -111
c0 -40 14.667 -73.5 44 -100.5s70.333 -42.833 123 -47.5zM520 852.999l-188 -91l-23 42l183 107z" />
    <glyph glyph-name="afii10023.var.accented" unicode="&#x401;`" horiz-adv-x="638" 
d="M132 807c0 11.333 4.33301 20.666 13 27.999s19.667 11 33 11c10.667 0 20.334 -3.66699 29.001 -11s13 -16.666 13 -27.999c0 -12 -4.33301 -21.667 -13 -29s-18.334 -11 -29.001 -11c-14 0 -25.167 3.66699 -33.5 11s-12.5 17 -12.5 29zM442 807
c0 11.333 4.33301 20.666 13 27.999s19.334 11 32.001 11c11.333 0 21.333 -3.66699 30 -11s13 -16.666 13 -27.999c0 -12 -4.33301 -21.667 -13 -29s-18.667 -11 -30 -11c-12.667 0 -23.334 3.66699 -32.001 11s-13 17 -13 29zM417 889l-110 -146l-39 20l94 156zM77 0v700
h499v-66h-428v-245h400v-66h-400v-257h438v-66h-509z" />
    <glyph glyph-name="afii10065.var.accented" unicode="&#x430;`" horiz-adv-x="533" 
d="M96 410l-35 49.999c24 22 54.5 39.667 91.5 53s73.5 20 109.5 20c70 0 123.167 -18.167 159.5 -54.5s54.5 -88.166 54.5 -155.499v-323h-65v86c-42 -62 -107.333 -93 -196 -93c-56 0 -101.333 14.167 -136 42.5s-52 65.833 -52 112.5c0 105.333 84.333 158 253 158
c51.333 0 95 -5.33301 131 -16c0 58.667 -11.333 103.5 -34 134.5s-63.667 46.5 -123 46.5c-53.333 0 -106 -20.333 -158 -61zM233 52.999c44 0 81.666 12.334 112.999 37.001s53 51 65 79v62c-35.333 10.667 -76 16 -122 16c-63.333 0 -111.5 -7.16699 -144.5 -21.5
s-49.5 -38.833 -49.5 -73.5c0 -30.667 12.833 -54.834 38.5 -72.501s58.834 -26.5 99.501 -26.5zM387.999 762l-118 -148l-42 30l110 155z" />
    <glyph glyph-name="afii10070.var.accented" unicode="&#x435;`" horiz-adv-x="570" 
d="M473 138l44.001 -38.999c-46.667 -72.667 -115.667 -109 -207 -109c-82.667 0 -149.334 24.667 -200.001 74s-76 115 -76 197c0 79.333 23.167 144.5 69.5 195.5s110.833 76.5 193.5 76.5c69.333 0 126.5 -21.667 171.5 -65s67.5 -100.333 67.5 -171
c0 -13.333 -1.33301 -32 -4 -56h-429c0.666992 -58.667 20.5 -104.834 59.5 -138.501s89.167 -50.5 150.5 -50.5c32 0 62.667 8.16699 92 24.5s52 36.833 68 61.5zM292.001 472.001c-54 0 -97.667 -15.8311 -131 -47.498s-53 -72.834 -59 -123.501h364
c-1.33301 53.333 -17.5 95.166 -48.5 125.499s-72.833 45.5 -125.5 45.5zM421.001 762.003l-118 -148l-42 30l110 155z" />
    <glyph glyph-name="afii10074.var.accented" unicode="&#x438;`" horiz-adv-x="603" 
d="M129 0h-63v520h65v-424l343 424h63v-520h-65v423zM427 762l-118 -148l-42 30l110 155z" />
    <glyph glyph-name="afii10080.var.accented" unicode="&#x43e;`" horiz-adv-x="616" 
d="M34 261c0 79.333 25.333 144.5 76 195.5s116.667 76.5 198 76.5c80.667 0 146.5 -25.5 197.5 -76.5s76.5 -116.167 76.5 -195.5c0 -78.667 -25.5 -143.5 -76.5 -194.5s-116.833 -76.5 -197.5 -76.5s-146.5 25.5 -197.5 76.5s-76.5 115.833 -76.5 194.5zM103 261
c0 -61.333 19.167 -111.499 57.5 -150.499s87.5 -58.5 147.5 -58.5s109.167 19.333 147.5 58s57.5 89 57.5 151c0 61.333 -19.5 111.666 -58.5 150.999s-87.833 59 -146.5 59c-59.333 0 -108.333 -19.5 -147 -58.5s-58 -89.5 -58 -151.5zM432 762.001l-118 -148l-42 30
l110 155z" />
    <glyph glyph-name="afii10085.var.accented" unicode="&#x443;`" horiz-adv-x="535" 
d="M92 -203l18.001 63.001c12 -4 20.333 -6 25 -6c22.667 0 42.5 8.66699 59.5 26s35.167 49.666 54.5 96.999l14 34l-266 509h78l222 -427l169 427h72l-210 -518c-34 -84 -64.833 -140.333 -92.5 -169s-60.834 -43 -99.501 -43c-16 0 -30.667 2.33301 -44 7z
M406.001 762.001l-118 -148l-42 30l110 155z" />
    <glyph glyph-name="afii10093.var.accented" unicode="&#x44b;`" horiz-adv-x="686" 
d="M66 0v520h65v-170h127c139.333 0 209 -58 209 -174c0 -51.333 -17.167 -93.5 -51.5 -126.5s-89.833 -49.5 -166.5 -49.5h-183zM248 288h-117v-226h116c100.667 0 151 37.667 151 113s-50 113 -150 113zM556 0v520h65v-520h-65zM439 762l-118 -148l-42 30l110 155z" />
    <glyph glyph-name="afii10095.var.accented" unicode="&#x44d;`" horiz-adv-x="540" 
d="M166 236l0.00292969 60h269c-6.66699 56.667 -27.334 100 -62.001 130s-79.334 45 -134.001 45c-79.333 0 -138.666 -29.333 -177.999 -88l-51 35c24.667 35.333 56.667 63.333 96 84s82.666 31 129.999 31c83.333 0 149.166 -24.5 197.499 -73.5
s72.5 -115.167 72.5 -198.5c0 -79.333 -23.833 -144.333 -71.5 -195s-112.5 -76 -194.5 -76c-105.333 0 -181.333 34.667 -228 104l49 38c38 -53.333 96.333 -80 175 -80c57.333 0 104.333 17.333 141 52s56.667 78.667 60 132h-271zM369.003 762l-118 -148l-42 30l110 155z
" />
    <glyph glyph-name="afii10096.var.accented" unicode="&#x44e;`" horiz-adv-x="815" 
d="M66 0l0.000976562 520h65v-220h120c8.66699 69.333 37.167 125.5 85.5 168.5s107.833 64.5 178.5 64.5c78 0 141.667 -25.5 191 -76.5s74 -116.167 74 -195.5c0 -78.667 -24.667 -143.5 -74 -194.5s-113 -76.5 -191 -76.5c-73.333 0 -134.333 22.667 -183 68
s-76.334 104 -83.001 176h-118v-234h-65zM318.001 261c0 -60.667 18.8301 -110 56.4971 -148s84.834 -57 141.501 -57s103.334 18.833 140.001 56.5s55 87.167 55 148.5c0 60.667 -18.167 110.167 -54.5 148.5s-83.166 57.5 -140.499 57.5c-56 0 -103 -19.333 -141 -58
s-57 -88 -57 -148zM521.998 762l-118 -148l-42 30l110 155z" />
    <glyph glyph-name="afii10097.var.accented" unicode="&#x44f;`" horiz-adv-x="537" 
d="M265 520h206v-520h-65v193h-145l-169 -193h-82l177 202c-41.333 5.33301 -75.333 22.333 -102 51s-40 63 -40 103c0 48.667 17.5 88.167 52.5 118.5s90.833 45.5 167.5 45.5zM114 355c0 -29.333 12.667 -53.333 38 -72s59.333 -28 102 -28h152v203h-151
c-48 0 -83.5 -9.33301 -106.5 -28s-34.5 -43.667 -34.5 -75zM434 762l-118 -148l-42 30l110 155z" />
    <glyph glyph-name="afii10071.var.accented" unicode="&#x451;`" horiz-adv-x="570" 
d="M125 689c0 11.333 4 20.833 12 28.5s17.333 11.5 28 11.5c11.333 0 21.333 -3.83301 30 -11.5s13 -17.167 13 -28.5c0 -12.667 -4.33301 -22.834 -13 -30.501s-18.667 -11.5 -30 -11.5c-10.667 0 -20 3.83301 -28 11.5s-12 17.834 -12 30.501zM379 689
c0 11.333 4.33301 20.832 13 28.499s19 11.5 31 11.5c10 0 19.333 -3.83301 28 -11.5s13 -17.167 13 -28.5c0 -12 -4.33301 -22 -13 -30s-18 -12 -28 -12c-12 0 -22.333 3.83301 -31 11.5s-13 17.834 -13 30.501zM381 762.999l-113 -149l-36 22l96 156zM473 137.999
l44.001 -38.999c-46.667 -72.667 -115.667 -109 -207 -109c-82.667 0 -149.334 24.667 -200.001 74s-76 115 -76 197c0 79.333 23.167 144.5 69.5 195.5s110.833 76.5 193.5 76.5c69.333 0 126.5 -21.667 171.5 -65s67.5 -100.333 67.5 -171c0 -13.333 -1.33301 -32 -4 -56
h-429c0.666992 -58.667 20.5 -104.834 59.5 -138.501s89.167 -50.5 150.5 -50.5c32 0 62.667 8.16699 92 24.5s52 36.833 68 61.5zM292.001 472c-54 0 -97.667 -15.8311 -131 -47.498s-53 -72.834 -59 -123.501h364c-1.33301 53.333 -17.5 95.166 -48.5 125.499
s-72.833 45.5 -125.5 45.5z" />
    <glyph glyph-name="fi" unicode="fi" horiz-adv-x="562" 
d="M1 458v62h104v28c0 66.667 16.5 115 49.5 145s72.5 45 118.5 45c32.667 0 56.667 -6 72 -18l-27 -55c-9.33301 7.33301 -23.333 11 -42 11c-70.667 0 -106 -45.667 -106 -137v-19h167v-62h-167v-458h-65v458h-104zM410 0v520h65v-520h-65zM399 686
c0 12 4.50098 22 13.501 30s19.5 12 31.5 12c11.333 0 21.333 -4 30 -12s13 -18 13 -30c0 -12.667 -4.33301 -23.334 -13 -32.001s-18.667 -13 -30 -13c-12.667 0 -23.334 4.33301 -32.001 13s-13 19.334 -13 32.001z" />
    <glyph glyph-name="fl" unicode="fl" horiz-adv-x="497" 
d="M357 0v638c-18.667 25.333 -45.667 38 -81 38c-70.667 0 -106 -45.667 -106 -137v-19h117v-62h-117v-458h-65v458h-104v62h104v28c0 66.667 16.5 115 49.5 145s72.5 45 118.5 45c36.667 0 68.667 -10.333 96 -31l53 24v-731h-65z" />
    <glyph glyph-name=".notdef" horiz-adv-x="300" 
 />
    <glyph glyph-name="space" unicode=" " horiz-adv-x="300" 
 />
    <glyph glyph-name="exclam" unicode="!" horiz-adv-x="310" 
d="M121 192v508h68v-508h-68zM100 51c0 12.667 5.16699 24 15.5 34s23.5 15 39.5 15c14 0 26.167 -5 36.5 -15s15.5 -21.333 15.5 -34c0 -14.667 -5 -27.334 -15 -38.001s-22.333 -16 -37 -16c-16 0 -29.167 5.33301 -39.5 16s-15.5 23.334 -15.5 38.001z" />
    <glyph glyph-name="quotedbl" unicode="&#x22;" horiz-adv-x="410" 
d="M93 483v217h67v-217h-67zM250 483v217h67v-217h-67z" />
    <glyph glyph-name="numbersign" unicode="#" horiz-adv-x="691" 
d="M313 8l72 196h-190l-80 -215l-55 19l73 196h-93v58h115l66 176h-181v58h202l80 215l55 -19l-73 -196h191l79 215l55 -18l-74 -197h97v-58h-118l-66 -176h184v-58h-205l-79 -215zM283 438l-66 -176h191l64 176h-189z" />
    <glyph glyph-name="dollar" unicode="$" 
d="M491 183c0 30 -10.9971 54.666 -32.9971 73.999s-49.5 33.166 -82.5 41.499s-68.667 17.833 -107 28.5s-74 21.834 -107 33.501s-60.5 31.167 -82.5 58.5s-33 61.333 -33 102c0 48.667 20.667 90.834 62 126.501s96.333 55.834 165 60.501v80h66v-81
c96 -7.33301 166.333 -38.666 211 -93.999l-45 -45c-52.667 50 -120.667 75 -204 75c-19.333 0 -39 -2.16699 -59 -6.5s-39.5 -10.833 -58.5 -19.5s-34.5 -21 -46.5 -37s-18 -34.667 -18 -56c0 -26 8.16699 -47.833 24.5 -65.5s37.666 -31.334 63.999 -41.001
s55.333 -18.334 87 -26.001s63.167 -16.167 94.5 -25.5s60.166 -20.5 86.499 -33.5s47.666 -31.667 63.999 -56s24.5 -53.5 24.5 -87.5c0 -54.667 -21 -100 -63 -136s-96 -56.333 -162 -61v-90h-66v92c-52 5.33301 -99.667 20 -143 44s-76 52.333 -98 85l48 49
c23.333 -31.333 56 -58.333 98 -81s89.667 -34 143 -34c46 0 85.833 11.5 119.5 34.5s50.5 53.5 50.5 91.5z" />
    <glyph glyph-name="percent" unicode="%" horiz-adv-x="862" 
d="M47 537c0 48.667 16.833 88.5 50.5 119.5s75.834 46.5 126.501 46.5s92.667 -15.5 126 -46.5s50 -70.833 50 -119.5c0 -48 -16.667 -87.667 -50 -119s-75.333 -47 -126 -47s-92.834 15.667 -126.501 47s-50.5 71 -50.5 119zM111 537c0 -32.667 11.333 -59.334 34 -80.001
s49 -31 79 -31c31.333 0 57.833 10.333 79.5 31s32.5 47.334 32.5 80.001s-11 59.334 -33 80.001s-48.333 31 -79 31s-57.167 -10.333 -79.5 -31s-33.5 -47.334 -33.5 -80.001zM149 17l518 701l48 -35l-517 -695zM462 162c0 48.667 16.833 88.5 50.5 119.5
s75.834 46.5 126.501 46.5c50 0 91.833 -15.5 125.5 -46.5s50.5 -70.833 50.5 -119.5c0 -48 -16.833 -87.667 -50.5 -119s-75.5 -47 -125.5 -47c-50.667 0 -92.834 15.667 -126.501 47s-50.5 71 -50.5 119zM526 162c0 -32.667 11.333 -59.334 34 -80.001s49 -31 79 -31
c30.667 0 57 10.333 79 31s33 47.334 33 80.001s-11 59.334 -33 80.001s-48.333 31 -79 31s-57.167 -10.333 -79.5 -31s-33.5 -47.334 -33.5 -80.001z" />
    <glyph glyph-name="ampersand" unicode="&#x26;" horiz-adv-x="783" 
d="M760 0h-95.998c-9.33301 6.66699 -18.833 14.167 -28.5 22.5s-17.834 15.666 -24.501 21.999s-15.5 14.833 -26.5 25.5s-19.167 18.334 -24.5 23.001c-23.333 -30.667 -56.166 -55.334 -98.499 -74.001s-85.833 -28 -130.5 -28c-76 0 -138.333 18.667 -187 56
s-73 85 -73 143c0 14 2 28 6 42s8.5 26.167 13.5 36.5s13.167 21.833 24.5 34.5s20.5 22.5 27.5 29.5s18.333 16.333 34 28s26.667 19.667 33 24s18.5 12.333 36.5 24s29 18.834 33 21.501c-46 58.667 -69 111.667 -69 159c0 36 12.667 65 38 87s57.666 33 96.999 33
c43.333 0 77 -11 101 -33s36 -52 36 -90c0 -56 -39.667 -112 -119 -168c33.333 -54 98.666 -132 195.999 -234c21.333 35.333 38.833 77.833 52.5 127.5s20.5 98.5 20.5 146.5h66c0 -56 -8.5 -112.833 -25.5 -170.5s-40.167 -107.167 -69.5 -148.5
c40 -44 92.333 -90.333 157 -139zM334.002 54c33.333 0 66.835 7.33203 100.502 21.999s59.834 34.334 78.501 59.001c-62.667 68 -130.334 150 -203.001 246c-6 -4 -19 -12.833 -39 -26.5s-33.667 -23.167 -41 -28.5s-18.333 -14.333 -33 -27s-24.834 -23.5 -30.501 -32.5
s-11.167 -20 -16.5 -33s-8 -26.5 -8 -40.5c0 -39.333 17.667 -72.333 53 -99s81.666 -40 138.999 -40zM277.004 579.999c0 -9.33301 0.833008 -17.834 2.5 -25.501s5 -16.5 10 -26.5s8.5 -16.667 10.5 -20s7.5 -11.333 16.5 -24s13.833 -19.667 14.5 -21
c57.333 42.667 86 82.334 86 119.001c0 20.667 -6.16699 37.667 -18.5 51s-29.833 20 -52.5 20c-20 0 -36.5 -6.33301 -49.5 -19s-19.5 -30.667 -19.5 -54z" />
    <glyph glyph-name="quotesingle" unicode="'" horiz-adv-x="253" 
d="M93 483v217h67v-217h-67z" />
    <glyph glyph-name="parenleft" unicode="(" horiz-adv-x="299" 
d="M289 -168l-44 -37.002c-49.333 42.667 -90 91.834 -122 147.501s-54.167 109 -66.5 160s-18.5 102.5 -18.5 154.5c0 80.667 16.333 161.334 49 242.001s85.667 154 159 220l42 -37c-122.667 -115.333 -184 -257 -184 -425c0 -77.333 16.5 -153.5 49.5 -228.5
s78.167 -140.5 135.5 -196.5z" />
    <glyph glyph-name="parenright" unicode=")" horiz-adv-x="298" 
d="M54 -205l-44.001 37.001c60 52.667 105.667 117.667 137 195s47 154 47 230c0 168 -61.333 309.667 -184 425l43 37c72.667 -66 125.334 -139.333 158.001 -220s49 -161.334 49 -242.001c0 -82 -16.333 -164 -49 -246s-85 -154 -157 -216z" />
    <glyph glyph-name="asterisk" unicode="*" horiz-adv-x="501" 
d="M287 700l-6 -145l135 50l21 -65l-139 -39l90 -114l-57 -42l-80 120l-81 -121l-57 42l91 116l-139 39l21 65l137 -50l-6 144h70z" />
    <glyph glyph-name="plus" unicode="+" horiz-adv-x="591" 
d="M70 331v58h194v196h61v-196h197v-58h-197v-198h-61v198h-194z" />
    <glyph glyph-name="comma" unicode="," horiz-adv-x="198" 
d="M113 7c-19.333 -7.33301 -34.502 -6.16797 -45.502 3.49902s-16.5 23.5 -16.5 41.5c0 14.667 5 26.5 15 35.5s21.333 13.5 34 13.5c42 0 63 -28.667 63 -86c0 -44.667 -10 -80.667 -30 -108s-45.333 -45 -76 -53l-17 36c22.667 6.66699 41.834 20.834 57.501 42.501
s20.834 46.5 15.501 74.5z" />
    <glyph glyph-name="hyphen" unicode="-" horiz-adv-x="404" 
d="M82 243v61h240v-61h-240z" />
    <glyph glyph-name="period" unicode="." horiz-adv-x="211" 
d="M52 52c0 12.667 5.16699 24 15.5 34s23.5 15 39.5 15c14 0 26.167 -5 36.5 -15s15.5 -21.333 15.5 -34c0 -14.667 -5 -27.334 -15 -38.001s-22.333 -16 -37 -16c-16 0 -29.167 5.33301 -39.5 16s-15.5 23.334 -15.5 38.001z" />
    <glyph glyph-name="slash" unicode="/" horiz-adv-x="326" 
d="M-32 -186l334 897l55 -19l-333 -899z" />
    <glyph glyph-name="zero" unicode="0" horiz-adv-x="681" 
d="M47 350c0 106.667 25.668 193 77.001 259s123.333 99 216 99c93.333 0 165.666 -33 216.999 -99s77 -152.333 77 -259s-25.5 -193 -76.5 -259s-122.833 -99 -215.5 -99s-165 33 -217 99s-78 152.333 -78 259zM117.001 350c0 -90.667 20 -162.331 60 -214.998
s95 -79 165 -79c72 0 127 26.167 165 78.5s57 124.166 57 215.499s-19.5 163.166 -58.5 215.499s-94.167 78.5 -165.5 78.5c-70.667 0 -125.5 -26.5 -164.5 -79.5s-58.5 -124.5 -58.5 -214.5z" />
    <glyph glyph-name="one" unicode="1" horiz-adv-x="395" 
d="M4 589l243 116h44v-705h-66v623l-196 -92z" />
    <glyph glyph-name="two" unicode="2" horiz-adv-x="589" 
d="M94 524l-59.001 26.0029c17.333 47.333 49.333 85.5 96 114.5s99.334 43.5 158.001 43.5c76 0 135.5 -20 178.5 -60s64.5 -90.333 64.5 -151c0 -68.667 -22.833 -130.834 -68.5 -186.501s-113.167 -112.834 -202.5 -171.501l-117 -76h407v-63h-521v53l175 124
c61.333 43.333 108.666 79.666 141.999 108.999s60.833 61.333 82.5 96s32.5 70.667 32.5 108c0 44 -15.5 80.333 -46.5 109s-74.167 43 -129.5 43c-44 0 -83.167 -11.333 -117.5 -34s-59.166 -50.667 -74.499 -84z" />
    <glyph glyph-name="three" unicode="3" horiz-adv-x="604" 
d="M99 528l-57 30.999c21.333 44.667 56.833 80.834 106.5 108.501s106.167 41.5 169.5 41.5s116.5 -16.167 159.5 -48.5s64.5 -74.833 64.5 -127.5c0 -81.333 -38.333 -136 -115 -164c39.333 -6.66699 72.833 -24.167 100.5 -52.5s41.5 -65.5 41.5 -111.5
c0 -70 -24.167 -123.167 -72.5 -159.5s-112.833 -54.5 -193.5 -54.5c-62.667 0 -120.5 15.167 -173.5 45.5s-89.5 70.5 -109.5 120.5l61 26c22.667 -38.667 53.5 -69.167 92.5 -91.5s83.167 -33.5 132.5 -33.5c56.667 0 103 12.167 139 36.5s54 57.833 54 100.5
c0 87.333 -64.333 131 -193 131h-95v65h77c48 0 90.667 12.667 128 38s56 56.333 56 93c0 38 -15.667 67.667 -47 89s-69 32 -113 32c-95.333 0 -166.333 -38.333 -213 -115z" />
    <glyph glyph-name="four" unicode="4" horiz-adv-x="657" 
d="M448 0v150h-433v45l437 505h63v-486h127v-64h-127v-150h-67zM109 214h339v381z" />
    <glyph glyph-name="five" unicode="5" horiz-adv-x="597" 
d="M67 344l41 356.002h446v-65h-388l-27 -223c45.333 21.333 101 32 167 32c78 0 139.833 -20.833 185.5 -62.5s68.5 -95.834 68.5 -162.501c0 -68.667 -24.5 -123.834 -73.5 -165.501s-112.5 -62.5 -190.5 -62.5c-58.667 0 -112.667 12.667 -162 38
s-85.333 61.666 -108 108.999l60 30c15.333 -31.333 42.166 -57.666 80.499 -78.999s81.833 -32 130.5 -32c57.333 0 103.833 15 139.5 45s53.5 68 53.5 114c0 51.333 -18.333 92 -55 122s-84 45 -142 45c-61.333 0 -118.666 -15.667 -171.999 -47z" />
    <glyph glyph-name="six" unicode="6" horiz-adv-x="662" 
d="M50 331c0 122 28.502 214.832 85.502 278.499s134.833 96.834 233.5 99.501c43.333 0.666992 83.166 -6 119.499 -20s65.166 -32.333 86.499 -55l-39 -48c-40 38 -97.333 57 -172 57c-71.333 0 -130.5 -25.5 -177.5 -76.5s-69.833 -127.167 -68.5 -228.5
c20.667 40 53.167 71 97.5 93s91.833 33 142.5 33c84 0 149 -19.167 195 -57.5s69 -94.5 69 -168.5c0 -78.667 -27.167 -139.5 -81.5 -182.5s-117.5 -64.5 -189.5 -64.5c-94.667 0 -168.5 29.333 -221.5 88s-79.5 142.667 -79.5 252zM129.002 261.999
c0 -54.667 19.333 -102.5 58 -143.5s93 -61.5 163 -61.5c53.333 0 100.333 15.833 141 47.5s61 75.5 61 131.5c0 110.667 -70 166 -210 166c-46.667 0 -92 -15.667 -136 -47s-69.667 -62.333 -77 -93z" />
    <glyph glyph-name="seven" unicode="7" horiz-adv-x="556" 
d="M22 635v65h511v-45l-342 -655h-74l334 635h-429z" />
    <glyph glyph-name="eight" unicode="8" horiz-adv-x="667" 
d="M319 392l31.001 0.00292969c40.667 0 78.834 12.167 114.501 36.5s53.5 54.166 53.5 89.499c0 39.333 -17.333 70.166 -52 92.499s-79.334 33.5 -134.001 33.5c-52.667 0 -96.334 -11.333 -131.001 -34s-52 -53.334 -52 -92.001c0 -36 16.5 -66 49.5 -90
s73.167 -36 120.5 -36zM348.001 328.003l-26 -0.00195312c-55.333 0 -102 -13 -140 -39s-57 -58 -57 -96c0 -43.333 19.333 -77.166 58 -101.499s88.667 -36.5 150 -36.5c64 0 114.833 12.333 152.5 37s56.5 58.334 56.5 101.001c0 42 -18 75 -54 99s-82.667 36 -140 36z
M334.001 -8.99902c-84.667 0 -152.335 17.333 -203.002 52s-76 82 -76 142c0 43.333 12.667 80.333 38 111s61 52.667 107 66c-40.667 10.667 -71.167 30.834 -91.5 60.501s-30.5 63.167 -30.5 100.5c0 56.667 22.833 101.834 68.5 135.501s107.834 50.5 186.501 50.5
c81.333 0 144.333 -16.833 189 -50.5s67 -78.834 67 -135.501c0 -75.333 -41.333 -128.666 -124 -159.999c46.667 -4.66699 82.834 -23.334 108.501 -56.001s38.5 -72 38.5 -118c0 -62.667 -24.833 -111.334 -74.5 -146.001s-117.5 -52 -203.5 -52z" />
    <glyph glyph-name="nine" unicode="9" horiz-adv-x="622" 
d="M596 369c0 -124 -27.999 -218.001 -83.999 -282.001s-125.667 -96 -209 -96c-98 0 -169.667 24.333 -215 73l39 48c42 -36.667 101.667 -55 179 -55c62 0 115 25.667 159 77s64.667 126 62 224c-20.667 -38.667 -52.834 -68.667 -96.501 -90s-90.167 -32 -139.5 -32
c-80.667 0 -143.5 21.5 -188.5 64.5s-67.5 100.167 -67.5 171.5c0 68.667 27 125.334 81 170.001s117.667 67 191 67c92.667 0 164 -29.333 214 -88s75 -142.667 75 -252zM517.001 434.999c0 54 -18.667 102.167 -56 144.5s-88 63.5 -152 63.5c-60 0 -109 -15.667 -147 -47
s-57 -72 -57 -122c0 -57.333 17 -101 51 -131s83.333 -45 148 -45c46.667 0 92 15.333 136 46s69.667 61 77 91z" />
    <glyph glyph-name="colon" unicode=":" horiz-adv-x="316" 
d="M103 471c0 12.667 5.16699 24 15.5 34s23.5 15 39.5 15c14 0 26.167 -5 36.5 -15s15.5 -21.333 15.5 -34c0 -14.667 -5 -27.334 -15 -38.001s-22.333 -16 -37 -16c-16 0 -29.167 5.33301 -39.5 16s-15.5 23.334 -15.5 38.001zM102 54c0 12.667 5.16699 24 15.5 34
s23.5 15 39.5 15c14 0 26.167 -5 36.5 -15s15.5 -21.333 15.5 -34c0 -14.667 -5 -27.334 -15 -38.001s-22.333 -16 -37 -16c-16 0 -29.167 5.33301 -39.5 16s-15.5 23.334 -15.5 38.001z" />
    <glyph glyph-name="semicolon" unicode=";" horiz-adv-x="319" 
d="M170 7c-19.333 -7.33301 -34.502 -6.16797 -45.502 3.49902s-16.5 23.5 -16.5 41.5c0 14.667 5 26.5 15 35.5s21.333 13.5 34 13.5c42 0 63 -28.667 63 -86c0 -44.667 -10 -80.667 -30 -108s-45.333 -45 -76 -53l-17 36c22.667 6.66699 41.834 20.834 57.501 42.501
s20.834 46.5 15.501 74.5zM102.998 470.998c0 12.667 5.16699 24 15.5 34s23.5 15 39.5 15c14 0 26.167 -5 36.5 -15s15.5 -21.333 15.5 -34c0 -14.667 -5 -27.334 -15 -38.001s-22.333 -16 -37 -16c-16 0 -29.167 5.33301 -39.5 16s-15.5 23.334 -15.5 38.001z" />
    <glyph glyph-name="less" unicode="&#x3c;" horiz-adv-x="580" 
d="M482 81l-426 267v27l426 266v-72l-335 -207l335 -210v-71z" />
    <glyph glyph-name="equal" unicode="=" horiz-adv-x="586" 
d="M70 418v58h447v-58h-447zM70 243v58h447v-58h-447z" />
    <glyph glyph-name="greater" unicode="&#x3e;" horiz-adv-x="580" 
d="M524 348l-426 -267v71l336 210l-336 207v72l426 -266v-27z" />
    <glyph glyph-name="question" unicode="?" horiz-adv-x="575" 
d="M465 524c0 36 -14.0059 64.834 -42.0059 86.501s-70.333 32.5 -127 32.5c-53.333 0 -95.166 -10.333 -125.499 -31s-55.166 -47.667 -74.499 -81l-56 24c18 44.667 49.167 81.5 93.5 110.5s99.833 43.5 166.5 43.5c77.333 0 135.833 -16.167 175.5 -48.5
s59.5 -73.5 59.5 -123.5c0 -30.667 -6.16699 -58.667 -18.5 -84s-27.666 -45.833 -45.999 -61.5s-38.333 -30.667 -60 -45s-41.667 -26.5 -60 -36.5s-33.666 -21.833 -45.999 -35.5s-18.5 -27.834 -18.5 -42.501c0 -14 1.33301 -28 4 -42h-62c-2.66699 11.333 -4 30 -4 56
c0 20.667 8.16699 40.167 24.5 58.5s36.333 34.5 60 48.5s47.334 28.5 71.001 43.5s43.834 33.5 60.501 55.5s25 46 25 72zM202.994 51.001c0 12.667 5.16699 24 15.5 34s23.5 15 39.5 15c14 0 26.167 -5 36.5 -15s15.5 -21.333 15.5 -34c0 -14.667 -5 -27.334 -15 -38.001
s-22.333 -16 -37 -16c-16 0 -29.167 5.33301 -39.5 16s-15.5 23.334 -15.5 38.001z" />
    <glyph glyph-name="at" unicode="@" horiz-adv-x="1004" 
d="M638 0l-0.00195312 46.001c-34.667 -36.667 -83 -55 -145 -55c-67.333 0 -121.666 21.5 -162.999 64.5s-62 100.167 -62 171.5c0 66.667 24.167 122.834 72.5 168.501s108.5 68.5 180.5 68.5c70.667 0 131.667 -17.333 183 -52v-351
c55.333 1.33301 97.666 21.166 126.999 59.499s44 88.166 44 149.499c0 96.667 -34 176 -102 238s-155.333 93 -262 93c-109.333 0 -200.333 -35.333 -273 -106s-109 -159.667 -109 -267c0 -106 36.167 -194.667 108.5 -266s163.5 -107 273.5 -107
c41.333 0 79.333 4.33301 114 13l6 -60c-41.333 -10 -81.333 -15 -120 -15c-129.333 0 -235.666 41.667 -318.999 125s-125 186.666 -125 309.999s41.833 226.5 125.5 309.5s189.834 124.5 318.501 124.5c124.667 0 226.834 -36.167 306.501 -108.5
s119.5 -166.166 119.5 -281.499c0 -73.333 -20.833 -137 -62.5 -191s-100.834 -81 -177.501 -81h-59zM502.998 51.001c26 0 51.667 7.00098 77 21.001s44.666 29.667 57.999 47v254c-37.333 20.667 -76.666 31 -117.999 31c-52 0 -95.5 -17.333 -130.5 -52
s-52.5 -77.334 -52.5 -128.001c0 -52.667 15.167 -94.667 45.5 -126s70.5 -47 120.5 -47z" />
    <glyph glyph-name="A" unicode="A" horiz-adv-x="678" 
d="M3 0l307 702h58l307 -702h-74l-85 192h-359l-82 -192h-72zM337 608l-151 -352h304z" />
    <glyph glyph-name="B" unicode="B" horiz-adv-x="671" 
d="M77 0l0.000976562 700.001h273c90.667 0 154.667 -15.167 192 -45.5s56 -72.5 56 -126.5c0 -39.333 -9.33301 -73.333 -28 -102s-45.334 -49.334 -80.001 -62.001c41.333 -6 74 -23.667 98 -53s36 -67.333 36 -114c0 -131.333 -92.333 -197 -277 -197h-270z
M360.001 325.001l-212.001 -0.000976562v-259h203c68.667 0 119.334 10.833 152.001 32.5s49 55.834 49 102.501c0 82.667 -64 124 -192 124zM349 634l-201 -0.000976562v-244h215c49.333 0 89 11 119 33s45 52.333 45 91c0 40.667 -13.5 70.834 -40.5 90.501
s-72.833 29.5 -137.5 29.5z" />
    <glyph glyph-name="C" unicode="C" horiz-adv-x="686" 
d="M624 154l39.999 -46c-25.333 -34.667 -62 -62.834 -110 -84.501s-99.333 -32.5 -154 -32.5c-110.667 0 -198.667 32.5 -264 97.5s-98 152.167 -98 261.5c0 102.667 32.167 188.167 96.5 256.5s149.5 102.5 255.5 102.5c58.667 0 111 -10.667 157 -32
s81.333 -47.666 106 -78.999l-43 -45c-31.333 30 -63.833 52.333 -97.5 67s-75.167 22 -124.5 22c-85.333 0 -152.833 -27 -202.5 -81s-74.5 -124.333 -74.5 -211c0 -88 26.833 -158.667 80.5 -212s124.167 -80 211.5 -80c90.667 0 164.334 32 221.001 96z" />
    <glyph glyph-name="D" unicode="D" horiz-adv-x="710" 
d="M77 0l0.000976562 700h214c67.333 0 126.166 -9 176.499 -27s90 -43 119 -75s50.5 -67.833 64.5 -107.5s21 -83.167 21 -130.5c0 -106 -33 -192.5 -99 -259.5s-163 -100.5 -291 -100.5h-205zM289.001 634l-141 -0.000976562v-568h138
c105.333 0 183.833 26.833 235.5 80.5s77.5 124.834 77.5 213.501c0 83.333 -24.833 149.833 -74.5 199.5s-128.167 74.5 -235.5 74.5z" />
    <glyph glyph-name="E" unicode="E" horiz-adv-x="638" 
d="M77 0v700h499v-66h-428v-245h400v-66h-400v-257h438v-66h-509z" />
    <glyph glyph-name="F" unicode="F" horiz-adv-x="608" 
d="M77 0v700h494v-66h-423v-268h394v-66h-394v-300h-71z" />
    <glyph glyph-name="G" unicode="G" horiz-adv-x="707" 
d="M403 281l-0.000976562 65.999h266v-254c-29.333 -31.333 -68.666 -56.166 -117.999 -74.499s-99 -27.5 -149 -27.5c-106 0 -193.167 32.833 -261.5 98.5s-102.5 152.5 -102.5 260.5c0 100.667 34.333 185.667 103 255s153 104 253 104
c112.667 0 198.667 -33.667 258 -101l-42 -47c-50 54.667 -120 82 -210 82c-85.333 0 -154.833 -27.333 -208.5 -82s-80.5 -125 -80.5 -211c0 -88.667 27.333 -159.667 82 -213s125 -80 211 -80c78 0 144 22.667 198 68v156h-199z" />
    <glyph glyph-name="H" unicode="H" horiz-adv-x="746" 
d="M598 0v323h-450v-323h-71v700h71v-311h450v311h71v-700h-71z" />
    <glyph glyph-name="I" unicode="I" horiz-adv-x="245" 
d="M87 0v700h71v-700h-71z" />
    <glyph glyph-name="J" unicode="J" horiz-adv-x="485" 
d="M409 700l0.000976562 -492c0 -69.333 -18.833 -122.833 -56.5 -160.5s-87.834 -56.5 -150.501 -56.5c-50 0 -92.333 12.333 -127 37s-60.334 54 -77.001 88l54 40c14.667 -28 34.834 -51.667 60.501 -71s54.167 -29 85.5 -29c45.333 1.33301 80 14.5 104 39.5
s36 66.5 36 124.5v480h71z" />
    <glyph glyph-name="K" unicode="K" horiz-adv-x="650" 
d="M77 0v700h71v-358l381 358h93l-339 -319l365 -381h-97l-319 334l-84 -77v-257h-71z" />
    <glyph glyph-name="L" unicode="L" horiz-adv-x="584" 
d="M77 0v700h71v-634h426v-66h-497z" />
    <glyph glyph-name="M" unicode="M" horiz-adv-x="833" 
d="M77 0v700h68l278 -370l267 370h65v-700h-71v581l-257 -351h-16l-263 351v-581h-71z" />
    <glyph glyph-name="N" unicode="N" horiz-adv-x="736" 
d="M658 0h-56l-457 572v-572h-68v700h56l457 -574v574h68v-700z" />
    <glyph glyph-name="O" unicode="O" horiz-adv-x="783" 
d="M38 350c0 101.333 34.167 186.5 102.5 255.5s152.166 103.5 251.499 103.5s183 -34 251 -102s102 -153.667 102 -257c0 -102.667 -34 -188.167 -102 -256.5s-151.667 -102.5 -251 -102.5s-183.166 34 -251.499 102s-102.5 153.667 -102.5 257zM111 350
c0 -83.333 27.5 -153 82.5 -209s121.167 -84 198.5 -84c80 0 146.667 27.833 200 83.5s80 125.5 80 209.5s-27.333 153.833 -82 209.5s-120.667 83.5 -198 83.5c-78 0 -144.333 -27.833 -199 -83.5s-82 -125.5 -82 -209.5z" />
    <glyph glyph-name="P" unicode="P" horiz-adv-x="651" 
d="M148 0h-70.999v700h252c189.333 0 284 -71.333 284 -214c0 -62 -22.833 -113.5 -68.5 -154.5s-117.834 -61.5 -216.501 -61.5h-180v-270zM334.001 635h-186v-300h178c72 0 125.667 13.5 161 40.5s53 64.167 53 111.5c0 98.667 -68.667 148 -206 148z" />
    <glyph glyph-name="Q" unicode="Q" horiz-adv-x="783" 
d="M38 350c0 101.333 34.168 186.5 102.501 255.5s152.166 103.5 251.499 103.5s183 -34 251 -102s102 -153.667 102 -257c0 -102 -38.667 -191.667 -116 -269l73 -87l-47 -40l-76 90c-56 -35.333 -118.333 -53 -187 -53c-100 0 -184 33.833 -252 101.5
s-102 153.5 -102 257.5zM111.001 350c0 -83.333 27.333 -153.001 82 -209.001s121 -84 199 -84c50 0 98.333 13.667 145 41l-63 76l45 41l66 -80c58 56.667 87 128.334 87 215.001c0 84 -27.167 153.833 -81.5 209.5s-120.5 83.5 -198.5 83.5
c-78.667 0 -145.167 -27.833 -199.5 -83.5s-81.5 -125.5 -81.5 -209.5z" />
    <glyph glyph-name="R" unicode="R" horiz-adv-x="675" 
d="M148 0l-71 0.000976562v700h264c177.333 0 266 -68 266 -204c0 -50.667 -16.833 -93.834 -50.5 -129.501s-77.5 -58.167 -131.5 -67.5l233 -299h-86l-220 286h-204v-286zM338 634.001l-190 0.000976562v-282h196c57.333 0 103.333 13.167 138 39.5s52 61.166 52 104.499
c0 92 -65.333 138 -196 138z" />
    <glyph glyph-name="S" unicode="S" horiz-adv-x="614" 
d="M496 183c0 30 -10.998 54.6699 -32.998 74.0029s-49.5 33.166 -82.5 41.499s-68.667 17.833 -107 28.5s-74 21.834 -107 33.501s-60.5 31.167 -82.5 58.5s-33 61.333 -33 102c0 52.667 23.5 97.167 70.5 133.5s108.5 54.5 184.5 54.5c114.667 0 197.667 -32 249 -96
l-45 -45c-52.667 50 -120.667 75 -204 75c-19.333 0 -39 -2.16699 -59 -6.5s-39.5 -10.833 -58.5 -19.5s-34.5 -21 -46.5 -37s-18 -34.667 -18 -56c0 -26 8.16699 -47.833 24.5 -65.5s37.666 -31.334 63.999 -41.001s55.166 -18.334 86.499 -26.001
s62.833 -16.167 94.5 -25.5s60.667 -20.5 87 -33.5s47.666 -31.667 63.999 -56s24.5 -53.5 24.5 -87.5c0 -58 -23.667 -105.5 -71 -142.5s-107 -55.5 -179 -55.5c-60 0 -115.667 12.667 -167 38s-89.666 56.666 -114.999 93.999l48 49c23.333 -31.333 56 -58.333 98 -81
s89.667 -34 143 -34c46 0 85.833 11.5 119.5 34.5s50.5 53.5 50.5 91.5z" />
    <glyph glyph-name="T" unicode="T" horiz-adv-x="577" 
d="M3 634v66h571v-66h-250v-634h-71v634h-250z" />
    <glyph glyph-name="U" unicode="U" horiz-adv-x="719" 
d="M651 700l-0.000976562 -406c0 -52 -8 -97.833 -24 -137.5s-37.667 -71.167 -65 -94.5s-57.166 -40.833 -89.499 -52.5s-66.833 -17.5 -103.5 -17.5c-85.333 0 -156.833 27 -214.5 81s-86.5 130 -86.5 228v399h71v-388c0 -81.333 22 -144 66 -188s98.667 -66 164 -66
c68.667 0 121 22 157 66s54 105 54 183v393h71z" />
    <glyph glyph-name="V" unicode="V" horiz-adv-x="709" 
d="M711 700l-322 -700h-53l-338 700h75l292 -603l273 603h73z" />
    <glyph glyph-name="W" unicode="W" horiz-adv-x="962" 
d="M959 700l-208 -700h-63l-203 583l-200 -583h-64l-218 700h75l179 -578l198 578h61l202 -578l171 578h70z" />
    <glyph glyph-name="X" unicode="X" horiz-adv-x="645" 
d="M619 700l-253 -344l262 -356h-84l-222 300l-221 -300h-84l262 356l-251 344h83l212 -288l212 288h84z" />
    <glyph glyph-name="Y" unicode="Y" horiz-adv-x="627" 
d="M629 700l-281 -394v-306h-71v306l-279 394h85l231 -328l235 328h80z" />
    <glyph glyph-name="Z" unicode="Z" horiz-adv-x="629" 
d="M33 634v66h566v-48l-486 -586h496v-66h-595v48l484 586h-465z" />
    <glyph glyph-name="bracketleft" unicode="[" horiz-adv-x="308" 
d="M60 -196v906h241v-63h-173v-780h173v-63h-241z" />
    <glyph glyph-name="backslash" unicode="\" horiz-adv-x="326" 
d="M23 711l334 -897l-55 -21l-334 899z" />
    <glyph glyph-name="bracketright" unicode="]" horiz-adv-x="308" 
d="M248 710v-906h-241v63h173v780h-173v63h241z" />
    <glyph glyph-name="asciicircum" unicode="^" horiz-adv-x="488" 
d="M42 440l182 268h42l180 -268h-74l-127 194l-129 -194h-74z" />
    <glyph glyph-name="underscore" unicode="_" horiz-adv-x="297" 
d="M0 -196v63h297v-63h-297z" />
    <glyph glyph-name="grave" unicode="`" horiz-adv-x="372" 
d="M333 615l-121 145l50 39l110 -154z" />
    <glyph glyph-name="a" unicode="a" horiz-adv-x="533" 
d="M96 410l-35 49.999c24 22 54.5 39.667 91.5 53s73.5 20 109.5 20c70 0 123.167 -18.167 159.5 -54.5s54.5 -88.166 54.5 -155.499v-323h-65v86c-42 -62 -107.333 -93 -196 -93c-56 0 -101.333 14.167 -136 42.5s-52 65.833 -52 112.5c0 105.333 84.333 158 253 158
c51.333 0 95 -5.33301 131 -16c0 58.667 -11.333 103.5 -34 134.5s-63.667 46.5 -123 46.5c-53.333 0 -106 -20.333 -158 -61zM233 52.999c44 0 81.666 12.334 112.999 37.001s53 51 65 79v62c-35.333 10.667 -76 16 -122 16c-63.333 0 -111.5 -7.16699 -144.5 -21.5
s-49.5 -38.833 -49.5 -73.5c0 -30.667 12.833 -54.834 38.5 -72.501s58.834 -26.5 99.501 -26.5z" />
    <glyph glyph-name="b" unicode="b" horiz-adv-x="593" 
d="M66 92v637.999h65v-284c45.333 58 107.333 87 186 87c74 0 132.833 -24.333 176.5 -73s65.5 -112 65.5 -190c0 -86.667 -24 -155 -72 -205s-113 -75 -195 -75c-45.333 0 -88.833 9.83301 -130.5 29.5s-73.5 43.834 -95.5 72.501zM309 470.999
c-38.667 0 -73.668 -10.8311 -105.001 -32.498s-55.666 -48.834 -72.999 -81.501v-235c19.333 -22 44.5 -39.167 75.5 -51.5s62.167 -18.5 93.5 -18.5c56 0 101.667 19 137 57s53 89.667 53 155c0 63.333 -16.833 113.666 -50.5 150.999s-77.167 56 -130.5 56z" />
    <glyph glyph-name="c" unicode="c" horiz-adv-x="528" 
d="M473 135l45.002 -35.999c-18 -34 -46.667 -60.667 -86 -80s-79.666 -29 -120.999 -29c-82.667 0 -149.5 24.667 -200.5 74s-76.5 115 -76.5 197c0 78 25.167 142.833 75.5 194.5s116.166 77.5 197.499 77.5c42 0 81.667 -9 119 -27s65 -42 83 -72l-51 -36
c-36.667 48.667 -87 73 -151 73c-58.667 0 -107.334 -19.833 -146.001 -59.5s-58 -89.834 -58 -150.501c0 -63.333 19.667 -114 59 -152s90.666 -57 153.999 -57c66 0 118.333 27.667 157 83z" />
    <glyph glyph-name="d" unicode="d" horiz-adv-x="596" 
d="M465 0v68.999c-11.333 -19.333 -32.166 -37.166 -62.499 -53.499s-66.5 -24.5 -108.5 -24.5c-78 0 -140.833 24.167 -188.5 72.5s-71.5 113.5 -71.5 195.5c0 80 25.667 145.667 77 197s114.666 77 189.999 77c71.333 0 126 -19.667 164 -59v256h65v-730h-65zM300 52.999
c40.667 0 75.167 11.833 103.5 35.5s48.833 49.167 61.5 76.5v223c-36 55.333 -90 83 -162 83c-54.667 0 -101.667 -19.5 -141 -58.5s-59 -89.5 -59 -151.5c0 -63.333 18.333 -113.833 55 -151.5s84 -56.5 142 -56.5z" />
    <glyph glyph-name="e" unicode="e" horiz-adv-x="570" 
d="M473 138l44.001 -38.999c-46.667 -72.667 -115.667 -109 -207 -109c-82.667 0 -149.334 24.667 -200.001 74s-76 115 -76 197c0 79.333 23.167 144.5 69.5 195.5s110.833 76.5 193.5 76.5c69.333 0 126.5 -21.667 171.5 -65s67.5 -100.333 67.5 -171
c0 -13.333 -1.33301 -32 -4 -56h-429c0.666992 -58.667 20.5 -104.834 59.5 -138.501s89.167 -50.5 150.5 -50.5c32 0 62.667 8.16699 92 24.5s52 36.833 68 61.5zM292.001 472.001c-54 0 -97.667 -15.8311 -131 -47.498s-53 -72.834 -59 -123.501h364
c-1.33301 53.333 -17.5 95.166 -48.5 125.499s-72.833 45.5 -125.5 45.5z" />
    <glyph glyph-name="f" unicode="f" horiz-adv-x="336" 
d="M1 458v62h104v28c0 66.667 16.5 115 49.5 145s72.5 45 118.5 45c26.667 0 51.167 -5.66699 73.5 -17s39.5 -26 51.5 -44l-41 -39c-18.667 25.333 -45.667 38 -81 38c-70.667 0 -106 -45.667 -106 -137v-19h170v-62h-170v-458h-65v458h-104z" />
    <glyph glyph-name="g" unicode="g" horiz-adv-x="595" 
d="M530 520l0.000976562 -481.999c0 -84 -21.5 -146.167 -64.5 -186.5s-100.5 -60.5 -172.5 -60.5c-51.333 0 -97.333 11.167 -138 33.5s-67.667 51.5 -81 87.5l58 27c12 -24 32 -44.333 60 -61s63 -25 105 -25c54 0 95.5 15.5 124.5 46.5s43.5 73.833 43.5 128.5v37
c-19.333 -24.667 -41.5 -43.334 -66.5 -56.001s-59.5 -19 -103.5 -19c-78.667 0 -141.834 24.333 -189.501 73s-71.5 114.667 -71.5 198c0 82 24.833 147.667 74.5 197s112.5 74 188.5 74c38.667 0 73 -6.5 103 -19.5s51.667 -28.167 65 -45.5v53h65zM305.001 52.001
c39.333 0 73.166 10.8311 101.499 32.498s47.833 47.834 58.5 78.501v221c-14 25.333 -35 46 -63 62s-60.667 24 -98 24c-56.667 0 -104.167 -18.667 -142.5 -56s-57.5 -89 -57.5 -155c0 -63.333 18.333 -113.666 55 -150.999s85.334 -56 146.001 -56z" />
    <glyph glyph-name="h" unicode="h" horiz-adv-x="591" 
d="M66 0v730h65v-283c42 56.667 103 85 183 85c146 0 219 -78.667 219 -236v-296h-65v288c0 121.333 -56 182 -168 182c-40 0 -74.5 -11.5 -103.5 -34.5s-50.833 -52.5 -65.5 -88.5v-347h-65z" />
    <glyph glyph-name="i" unicode="i" horiz-adv-x="220" 
d="M77 0v520h65v-520h-65zM66 686c0 12 4.50098 22 13.501 30s19.5 12 31.5 12c11.333 0 21.333 -4 30 -12s13 -18 13 -30c0 -12.667 -4.33301 -23.334 -13 -32.001s-18.667 -13 -30 -13c-12.667 0 -23.334 4.33301 -32.001 13s-13 19.334 -13 32.001z" />
    <glyph glyph-name="j" unicode="j" horiz-adv-x="222" 
d="M146 520v-524.999c0 -136 -51.667 -204 -155 -204c-30.667 0 -58 6.33301 -82 19s-41.667 29.667 -53 51l52 34c16 -18.667 30 -30.334 42 -35.001c10.667 -4.66699 23.667 -7 39 -7c30 0 52.833 12.667 68.5 38s23.5 61 23.5 107v522h65zM69 686.001
c0 12 4.16699 22 12.5 30s18.833 12 31.5 12c12 0 22.167 -4 30.5 -12s12.5 -18 12.5 -30c0 -12.667 -4.16699 -23.334 -12.5 -32.001s-18.5 -13 -30.5 -13c-12.667 0 -23.167 4.33301 -31.5 13s-12.5 19.334 -12.5 32.001z" />
    <glyph glyph-name="k" unicode="k" horiz-adv-x="521" 
d="M66 0v730h65v-459l280 249h89l-259 -232l279 -288h-87l-244 246l-58 -47v-199h-65z" />
    <glyph glyph-name="l" unicode="l" horiz-adv-x="197" 
d="M66 0v730h65v-730h-65z" />
    <glyph glyph-name="m" unicode="m" horiz-adv-x="882" 
d="M823 344l0.000976562 -344h-65v324c0 97.333 -40 146 -120 146c-74 0 -127.667 -35.333 -161 -106v-364h-65v351c0 35.333 -10.833 64 -32.5 86s-51.5 33 -89.5 33c-37.333 0 -70 -12.167 -98 -36.5s-48.333 -51.166 -61 -80.499v-353h-65v520h65v-72
c41.333 56 97.666 84 168.999 84c38 0 71 -7.83301 99 -23.5s48.333 -37.834 61 -66.501c42 60 102 90 180 90c56 0 100.5 -14.833 133.5 -44.5s49.5 -77.5 49.5 -143.5z" />
    <glyph glyph-name="n" unicode="n" horiz-adv-x="591" 
d="M66 0l-0.000976562 520h65v-72c42 56 105 84 189 84c142.667 0 214 -78.333 214 -235v-297h-65v287c0 122 -56.333 183 -169 183c-34.667 0 -67.667 -10.833 -99 -32.5s-54.666 -49.5 -69.999 -83.5v-354h-65z" />
    <glyph glyph-name="o" unicode="o" horiz-adv-x="616" 
d="M34 261c0 79.333 25.333 144.5 76 195.5s116.667 76.5 198 76.5c80.667 0 146.5 -25.5 197.5 -76.5s76.5 -116.167 76.5 -195.5c0 -78.667 -25.5 -143.5 -76.5 -194.5s-116.833 -76.5 -197.5 -76.5s-146.5 25.5 -197.5 76.5s-76.5 115.833 -76.5 194.5zM103 261
c0 -61.333 19.167 -111.499 57.5 -150.499s87.5 -58.5 147.5 -58.5s109.167 19.333 147.5 58s57.5 89 57.5 151c0 61.333 -19.5 111.666 -58.5 150.999s-87.833 59 -146.5 59c-59.333 0 -108.333 -19.5 -147 -58.5s-58 -89.5 -58 -151.5z" />
    <glyph glyph-name="p" unicode="p" horiz-adv-x="597" 
d="M66 -200l0.000976562 720h65v-77c38 60 99.667 90 185 90c75.333 0 135.166 -24.333 179.499 -73s66.5 -112 66.5 -190c0 -80.667 -24.167 -147.5 -72.5 -200.5s-110.5 -79.5 -186.5 -79.5c-74 0 -131.333 20.667 -172 62v-252h-65zM310.001 471
c-43.333 0 -80.999 -12.333 -112.999 -37s-54 -53.667 -66 -87v-202c34 -62 90.667 -93 170 -93c55.333 0 101.166 20 137.499 60s54.5 91 54.5 153s-16.5 111.833 -49.5 149.5s-77.5 56.5 -133.5 56.5z" />
    <glyph glyph-name="q" unicode="q" horiz-adv-x="596" 
d="M465 -200l0.00292969 258c-40.667 -45.333 -97.334 -68 -170.001 -68c-78.667 0 -141.834 24.667 -189.501 74s-71.5 115 -71.5 197c0 76.667 26.5 141 79.5 193s117.833 78 194.5 78c75.333 0 127.666 -17.667 156.999 -53v41h65v-720h-65zM300.003 52
c39.333 0 73.333 9.33301 102 28s49.667 43 63 73v244c-30.667 48.667 -83 73 -157 73c-56.667 0 -105 -20.333 -145 -61s-60 -90.667 -60 -150c0 -62 18.5 -112 55.5 -150s84.167 -57 141.5 -57z" />
    <glyph glyph-name="r" unicode="r" horiz-adv-x="349" 
d="M66 0l0.000976562 519.999h65v-50c9.33301 20.667 25 36.167 47 46.5s45 15.5 69 15.5c45.333 0 80.666 -16 105.999 -48l-44 -43c-16 19.333 -39 29 -69 29c-26 0 -49.167 -9.66699 -69.5 -29s-33.5 -43.666 -39.5 -72.999v-368h-65z" />
    <glyph glyph-name="s" unicode="s" horiz-adv-x="497" 
d="M395 138c0 21.333 -11.834 39.1699 -35.501 53.5029s-52.5 26 -86.5 35s-68.167 18.833 -102.5 29.5s-63.333 27 -87 49s-35.5 49.333 -35.5 82c0 44.667 18 80.167 54 106.5s84.667 39.5 146 39.5c40.667 0 79.834 -8.33301 117.501 -25s65.5 -38 83.5 -64l-47 -42
c-14 19.333 -36 35.666 -66 48.999s-61 20 -93 20c-84 0 -126 -26.333 -126 -79c0 -17.333 8.5 -32.5 25.5 -45.5s38.5 -23 64.5 -30s53.833 -15.5 83.5 -25.5s57.5 -20.333 83.5 -31s47.5 -26.334 64.5 -47.001s25.5 -45.334 25.5 -74.001
c0 -48.667 -19.333 -85.667 -58 -111s-87.667 -38 -147 -38c-50.667 0 -97.167 11 -139.5 33s-72.5 51.667 -90.5 89l52 38c16 -30 40.833 -53.833 74.5 -71.5s69.5 -26.5 107.5 -26.5c34 0 64.5 7 91.5 21s40.5 35.667 40.5 65z" />
    <glyph glyph-name="t" unicode="t" horiz-adv-x="394" 
d="M1 458l0.000976562 62h104v117h65v-117h186v-62h-186v-249c0 -56.667 8 -96.5 24 -119.5s42.333 -34.5 79 -34.5c34 0 62.667 14.667 86 44l40 -39c-14 -19.333 -33.333 -35.333 -58 -48s-51.334 -19 -80.001 -19c-104 0 -156 67 -156 201v264h-104z" />
    <glyph glyph-name="u" unicode="u" horiz-adv-x="583" 
d="M518 523l-0.00292969 -523h-65v87c-19.333 -30 -44.833 -53.667 -76.5 -71s-67.167 -26 -106.5 -26c-71.333 0 -124.666 18.833 -159.999 56.5s-53 95.5 -53 173.5v303h65v-290c0 -120.667 51 -181 153 -181c38.667 0 73.834 11.5 105.501 34.5s55.834 54.5 72.501 94.5
v342h65z" />
    <glyph glyph-name="v" unicode="v" horiz-adv-x="507" 
d="M516 520l-234 -520h-46l-245 520h76l194 -418l186 418h69z" />
    <glyph glyph-name="w" unicode="w" horiz-adv-x="766" 
d="M769 520l-170 -520h-53l-160 424l-161 -424h-51l-177 520h71l137 -414l155 414h53l159 -417l129 417h68z" />
    <glyph glyph-name="x" unicode="x" horiz-adv-x="522" 
d="M504 520l-198 -250l209 -270h-82l-173 225l-177 -225h-76l208 268l-197 252h81l164 -207l162 207h79z" />
    <glyph glyph-name="y" unicode="y" horiz-adv-x="535" 
d="M92 -203l18.001 63.001c12 -4 20.333 -6 25 -6c22.667 0 42.5 8.66699 59.5 26s35.167 49.666 54.5 96.999l14 34l-266 509h78l222 -427l169 427h72l-210 -518c-34 -84 -64.833 -140.333 -92.5 -169s-60.834 -43 -99.501 -43c-16 0 -30.667 2.33301 -44 7z" />
    <glyph glyph-name="z" unicode="z" horiz-adv-x="490" 
d="M37 458v62h433v-42l-351 -416h345v-62h-444v43l350 415h-333z" />
    <glyph glyph-name="braceleft" unicode="{" horiz-adv-x="320" 
d="M106 -65v198.001c0 28.667 -7.5 51.667 -22.5 69s-36.833 26 -65.5 26v58c58.667 0 88 34 88 102v186c0 45.333 10.167 79.333 30.5 102s53.833 34 100.5 34h64v-60h-51c-52 0 -78 -31.333 -78 -94v-187c0 -30 -6.33301 -54.833 -19 -74.5s-29.667 -31.834 -51 -36.501
c46.667 -8 70 -45.333 70 -112v-190c0 -34.667 6.33301 -58.667 19 -72s34 -20 64 -20h46v-60h-67c-85.333 0 -128 43.667 -128 131z" />
    <glyph glyph-name="bar" unicode="|" horiz-adv-x="319" 
d="M126 0v700h67v-700h-67z" />
    <glyph glyph-name="braceright" unicode="}" horiz-adv-x="320" 
d="M213 133v-198.002c0 -87.333 -42.333 -131 -127 -131h-68v60h47c29.333 0 50.333 6.66699 63 20s19 37.333 19 72v190c0 66.667 23.667 104 71 112c-22 4.66699 -39.333 16.834 -52 36.501s-19 44.5 -19 74.5v187c0 62.667 -25.667 94 -77 94h-52v60h65
c46.667 0 80 -11.333 100 -34s30 -56.667 30 -102v-186c0 -37.333 8.5 -63.666 25.5 -78.999s37.833 -23 62.5 -23v-58c-28.667 0 -50.5 -8.66699 -65.5 -26s-22.5 -40.333 -22.5 -69z" />
    <glyph glyph-name="asciitilde" unicode="~" horiz-adv-x="583" 
d="M83 313l-33 43c54 54 108.333 76 163 66c19.333 -4 50.333 -16.5 93 -37.5s77 -31.5 103 -31.5c34 0 66 16.667 96 50l29 -46c-40.667 -40.667 -82 -61 -124 -61c-28.667 0 -66.667 11.833 -114 35.5s-84 35.5 -110 35.5c-34.667 0 -69 -18 -103 -54z" />
    <glyph glyph-name="uni00A0" unicode="&#xa0;" horiz-adv-x="300" 
 />
    <glyph glyph-name="exclamdown" unicode="&#xa1;" horiz-adv-x="310" 
d="M121 -182v508h68v-508h-68zM100 467c0 14.667 5.16699 27.334 15.5 38.001s23.5 16 39.5 16c14.667 0 27 -5.33301 37 -16s15 -23.334 15 -38.001c0 -12.667 -5.16699 -24 -15.5 -34s-22.5 -15 -36.5 -15c-16 0 -29.167 5 -39.5 15s-15.5 21.333 -15.5 34z" />
    <glyph glyph-name="cent" unicode="&#xa2;" horiz-adv-x="528" 
d="M473 135l44.999 -36.002c-16.667 -31.333 -42.667 -56.5 -78 -75.5s-72.666 -29.833 -111.999 -32.5v-191h-67v194c-69.333 9.33301 -124.5 37.833 -165.5 85.5s-61.5 108.167 -61.5 181.5c0 70 20.667 129.667 62 179s96.333 79 165 89v171h67v-168
c38.667 -3.33301 74.5 -13.666 107.5 -30.999s57.5 -39.666 73.5 -66.999l-51 -36c-35.333 45.333 -80 69.333 -134 72v-418c62 2 111.667 29.667 149 83zM103.999 260.998c0 -54 14.5 -99.167 43.5 -135.5s67.833 -59.166 116.5 -68.499v410
c-48 -9.33301 -86.667 -32.833 -116 -70.5s-44 -82.834 -44 -135.501z" />
    <glyph glyph-name="sterling" unicode="&#xa3;" horiz-adv-x="590" 
d="M77 278l-0.00292969 54.999h73c-3.33301 8 -8.66602 20.333 -15.999 37s-13.166 30.334 -17.499 41.001s-8.33301 25 -12 43s-5.5 36.667 -5.5 56c0 53.333 19.5 99.666 58.5 138.999s90.167 59 153.5 59c82.667 0 147 -25.667 193 -77l-37 -52
c-42 42.667 -94.333 64 -157 64c-37.333 0 -69.833 -12.833 -97.5 -38.5s-41.5 -58.167 -41.5 -97.5c0 -19.333 2.66699 -38.166 8 -56.499s13.166 -39.333 23.499 -63s17.5 -41.834 21.5 -54.501h172v-55h-160c1.33301 -7.33301 2 -18.666 2 -33.999
c0 -58 -12.667 -103.333 -38 -136c24 0 59.333 -8.16699 106 -24.5s82.667 -24.5 108 -24.5c22.667 0 41.334 3.83301 56.001 11.5s32 21.167 52 40.5l32 -51c-41.333 -42 -88.333 -63 -141 -63c-26 0 -63.5 8.33301 -112.5 25s-87.167 25 -114.5 25
c-40.667 0 -79.667 -18.333 -117 -55l-30 51c24.667 26 52.334 44.333 83.001 55c32 41.333 48 88 48 140c0 12 -1.66699 25.333 -5 40h-88z" />
    <glyph glyph-name="currency" unicode="&#xa4;" horiz-adv-x="599" 
d="M72 347c0 52.667 14.998 99.667 44.998 141l-89 90l42 42l90 -89c39.333 30.667 86 46 140 46c52.667 0 99.334 -15.333 140.001 -46l95 93l42 -41l-95 -96c30.667 -40 46 -86.667 46 -140c0 -52.667 -15 -99.334 -45 -140.001l90 -91l-41 -42l-91 91
c-40 -32 -87 -48 -141 -48c-55.333 0 -102.666 16 -141.999 48l-95 -96l-41 42l95 96c-30 40.667 -45 87.334 -45 140.001zM134.998 347c0 -47.333 15.167 -87.501 45.5 -120.501s70.166 -49.5 119.499 -49.5c50 0 89.833 16.5 119.5 49.5s44.5 73.167 44.5 120.5
c0 48.667 -15 89.334 -45 122.001s-69.667 49 -119 49s-89.166 -16.5 -119.499 -49.5s-45.5 -73.5 -45.5 -121.5z" />
    <glyph glyph-name="yen" unicode="&#xa5;" horiz-adv-x="627" 
d="M90 304v58h147l-239 338h85l231 -328l235 328h80l-242 -338h149v-58h-189v-117h189v-58h-189v-129h-70v129h-187v58h187v117h-187z" />
    <glyph glyph-name="brokenbar" unicode="&#xa6;" horiz-adv-x="319" 
d="M193 431h-67v269h67v-269zM126 269h67v-269h-67v269z" />
    <glyph glyph-name="section" unicode="&#xa7;" horiz-adv-x="520" 
d="M65 251c0 42 11.5 78.668 34.5 110.001s51.5 52 85.5 62c-20 11.333 -37 27.833 -51 49.5s-21 48.167 -21 79.5c0 44 14.833 79.667 44.5 107s67.834 41 114.501 41c60.667 0 108 -22.333 142 -67l-46 -42c-8.66699 9.33301 -16.167 16.666 -22.5 21.999
s-16 10.666 -29 15.999s-27.5 8 -43.5 8c-26 0 -47.833 -8.66699 -65.5 -26s-26.5 -38.666 -26.5 -63.999c0 -48 31.333 -85 94 -111c53.333 -3.33301 96.666 -22.333 129.999 -57s50 -77.334 50 -128.001c0 -41.333 -11.833 -77.666 -35.5 -108.999
s-53.167 -52.333 -88.5 -63c21.333 -11.333 39 -28 53 -50s21 -46 21 -72c0 -45.333 -14 -82.166 -42 -110.499s-67 -42.5 -117 -42.5c-62 0 -109 21 -141 63l44 49c26.667 -32.667 59 -49 97 -49c25.333 0 47 8.66699 65 26s27 39 27 65
c0 47.333 -31.667 83.666 -95 108.999c-56 3.33301 -99.667 22 -131 56s-47 76.667 -47 128zM131 251.001c0 -36 12.499 -66.167 37.499 -90.5s55.5 -36.5 91.5 -36.5c36.667 0 67.334 12.167 92.001 36.5s37 54.5 37 90.5s-12.5 66.333 -37.5 91s-55.5 37 -91.5 37
s-66.5 -12.333 -91.5 -37s-37.5 -55 -37.5 -91z" />
    <glyph glyph-name="dieresis" unicode="&#xa8;" horiz-adv-x="464" 
d="M142 689c0 11.333 4 20.833 12 28.5s17.333 11.5 28 11.5c11.333 0 21.333 -3.83301 30 -11.5s13 -17.167 13 -28.5c0 -12.667 -4.33301 -22.834 -13 -30.501s-18.667 -11.5 -30 -11.5c-10.667 0 -20 3.83301 -28 11.5s-12 17.834 -12 30.501zM379 689
c0 12 4.16699 21.667 12.5 29s18.5 11 30.5 11c10.667 0 20.334 -3.83301 29.001 -11.5s13 -17.167 13 -28.5c0 -12.667 -4.33301 -22.834 -13 -30.501s-18.334 -11.5 -29.001 -11.5c-12 0 -22.167 3.83301 -30.5 11.5s-12.5 17.834 -12.5 30.501z" />
    <glyph glyph-name="copyright" unicode="&#xa9;" horiz-adv-x="1005" 
d="M71 224c0 120 41.335 221.667 124.002 305s185 125 307 125c123.333 0 226.166 -41.333 308.499 -124s123.5 -184.667 123.5 -306s-41.333 -223.5 -124 -306.5s-185.334 -124.5 -308.001 -124.5s-225.167 41.333 -307.5 124s-123.5 185 -123.5 307zM131.002 224
c0 -104 35.498 -192.169 106.498 -264.502s159.167 -108.5 264.5 -108.5c106.667 0 195.334 36 266.001 108s106 160.333 106 265s-35.167 192.834 -105.5 264.501s-159.166 107.5 -266.499 107.5c-105.333 0 -193.5 -36.167 -264.5 -108.5s-106.5 -160.166 -106.5 -263.499
zM654 113.998l34.0029 -43.998c-18.667 -24.667 -43.834 -44 -75.501 -58s-64.834 -21 -99.501 -21c-71.333 0 -129.5 21.667 -174.5 65s-67.5 100.666 -67.5 171.999c0 66.667 21.833 122.667 65.5 168s98.167 68 163.5 68c77.333 0 137 -21 179 -63l-36 -47
c-36.667 33.333 -80.334 50 -131.001 50c-18.667 0 -36 -2.33301 -52 -7c-36.667 -11.333 -65.667 -32.5 -87 -63.5s-32 -66.167 -32 -105.5c0 -18.667 2.33301 -36.334 7 -53.001c9.33301 -38.667 29.5 -69 60.5 -91s67.167 -33 108.5 -33c55.333 0 101 21 137 63z" />
    <glyph glyph-name="ordfeminine" unicode="&#xaa;" horiz-adv-x="441" 
d="M97 537l-25 46.998c41.333 28.667 90 43 146 43c50.667 0 89 -11.167 115 -33.5s39 -54.166 39 -95.499v-198h-57v48c-28.667 -36 -72.667 -54 -132 -54c-40 0 -72.333 8.83301 -97 26.5s-37 40.834 -37 69.501c0 34 14.833 59.833 44.5 77.5s71.5 26.5 125.5 26.5
c41.333 0 73.333 -3 96 -9c0 31.333 -8 53.833 -24 67.5s-42.667 20.5 -80 20.5c-38 0 -76 -12 -114 -36zM199 347.998c28 0 52.334 6.83301 73.001 20.5s35 28.5 43 44.5v23c-36 8 -70.333 12 -103 12c-30.667 0 -55.334 -4.66699 -74.001 -14s-28 -22.333 -28 -39
c0 -14.667 7.83301 -26.167 23.5 -34.5s37.5 -12.5 65.5 -12.5z" />
    <glyph glyph-name="guillemotleft" unicode="&#xab;" horiz-adv-x="516" 
d="M229 38l-181 212v5l182 209l44 -39l-150 -173l149 -173zM410 38l-180 212v5l182 209l44 -39l-150 -173l149 -173z" />
    <glyph glyph-name="logicalnot" unicode="&#xac;" horiz-adv-x="577" 
d="M58 331v58h461v-186h-56v128h-405z" />
    <glyph glyph-name="uni00AD" unicode="&#xad;" horiz-adv-x="404" 
d="M82 243v61h240v-61h-240z" />
    <glyph glyph-name="registered" unicode="&#xae;" horiz-adv-x="578" 
d="M50 494c0 65.333 23.333 121 70 167s103.334 69 170.001 69c65.333 0 121.333 -23.167 168 -69.5s70 -101.833 70 -166.5c0 -66.667 -23.333 -123.167 -70 -169.5s-102.667 -69.5 -168 -69.5c-66.667 0 -123.334 23.167 -170.001 69.5s-70 102.833 -70 169.5zM92 493
c0 -54.667 19.167 -101 57.5 -139s84.833 -57 139.5 -57c54 0 100.333 19.333 139 58s58 84.667 58 138c0 54 -19.333 100.167 -58 138.5s-85 57.5 -139 57.5s-100.333 -19.167 -139 -57.5s-58 -84.5 -58 -138.5zM241 355l-47 -0.000976562v283h89
c72.667 0 109 -28.667 109 -86c0 -19.333 -5.66699 -36.166 -17 -50.499s-26.333 -24.5 -45 -30.5l82 -116h-56l-72 104h-43v-104zM341 546.999c0 19.333 -5 32.832 -15 40.499s-25 11.5 -45 11.5h-40v-100h44c14 0 26.833 4.33301 38.5 13s17.5 20.334 17.5 35.001z" />
    <glyph glyph-name="macron" unicode="&#xaf;" horiz-adv-x="446" 
d="M185 647v59h261v-59h-261z" />
    <glyph glyph-name="degree" unicode="&#xb0;" horiz-adv-x="400" 
d="M50 564c0 42 14.498 77.499 43.498 106.499s64.5 43.5 106.5 43.5s77.5 -14.167 106.5 -42.5s43.5 -63.5 43.5 -105.5c0 -41.333 -14.667 -76.5 -44 -105.5s-64.666 -43.5 -105.999 -43.5s-76.666 14.333 -105.999 43s-44 63.334 -44 104.001zM109.998 564.999
c0 -24.667 8.83301 -45.667 26.5 -63s38.834 -26 63.501 -26s45.834 8.66699 63.501 26s26.5 38.333 26.5 63s-8.83301 45.667 -26.5 63s-38.834 26 -63.501 26s-45.834 -8.66699 -63.501 -26s-26.5 -38.333 -26.5 -63z" />
    <glyph glyph-name="plusminus" unicode="&#xb1;" horiz-adv-x="579" 
d="M67 407v58h192v196h59v-196h195v-58h-195v-132h-59v132h-192zM67 165v58h446v-58h-446z" />
    <glyph glyph-name="twosuperior" unicode="&#xb2;" horiz-adv-x="415" 
d="M88 596l-45.999 24.999c12 30.667 33.167 55.667 63.5 75s64.166 29 101.499 29c46 0 82.333 -10.5 109 -31.5s40 -50.5 40 -88.5c0 -72 -49.667 -140.333 -149 -205l-70 -45h240v-55h-336v50l104 69c47.333 32 84.166 62 110.499 90s39.5 57 39.5 87
c0 24.667 -7.83301 43.334 -23.5 56.001s-37.5 19 -65.5 19c-51.333 0 -90.666 -25 -117.999 -75z" />
    <glyph glyph-name="threesuperior" unicode="&#xb3;" horiz-adv-x="424" 
d="M95 612l-45.0029 30.001c34 55.333 91 83 171 83c45.333 0 81 -9.33301 107 -28s39 -44.334 39 -77.001c0 -49.333 -23 -82 -69 -98c54.667 -13.333 82 -48 82 -104c0 -38.667 -16.167 -68.834 -48.5 -90.501s-71.833 -32.5 -118.5 -32.5c-36 0 -70.667 8.33301 -104 25
s-57.333 39.334 -72 68.001l47 32c10 -21.333 27.333 -38.5 52 -51.5s50.334 -19.5 77.001 -19.5c32.667 0 58.334 6.16699 77.001 18.5s28 29.5 28 51.5c0 46 -34 69 -102 69h-59v52h47c30.667 0 55.334 6.33301 74.001 19s28 30 28 52c0 40 -29 60 -87 60
c-54 0 -95.333 -19.667 -124 -59z" />
    <glyph glyph-name="acute" unicode="&#xb4;" horiz-adv-x="437" 
d="M421 762l-118 -148l-42 30l110 155z" />
    <glyph glyph-name="mu" unicode="&#xb5;" horiz-adv-x="592" 
d="M526 520l-0.000976562 -520h-66v70c-20.667 -24 -48 -43.333 -82 -58s-70.667 -22 -110 -22c-56.667 0 -102 17.333 -136 52v-242h-66v720h66v-287c0 -61.333 12.333 -106.833 37 -136.5s64.334 -44.5 119.001 -44.5c33.333 0 66 8.83301 98 26.5s56.667 38.167 74 61.5
v380h66z" />
    <glyph glyph-name="mu" unicode="&#x3bc;" horiz-adv-x="592" 
d="M526 520l-0.000976562 -520h-66v70c-20.667 -24 -48 -43.333 -82 -58s-70.667 -22 -110 -22c-56.667 0 -102 17.333 -136 52v-242h-66v720h66v-287c0 -61.333 12.333 -106.833 37 -136.5s64.334 -44.5 119.001 -44.5c33.333 0 66 8.83301 98 26.5s56.667 38.167 74 61.5
v380h66z" />
    <glyph glyph-name="paragraph" unicode="&#xb6;" horiz-adv-x="438" 
d="M47 478c0 68.667 19.001 122.835 57.001 162.502s89.333 59.5 154 59.5h147v-60h-92v-611c0 -27.333 -0.5 -49.333 -1.5 -66s-4.16699 -36.834 -9.5 -60.501s-13 -42.334 -23 -56.001s-24.833 -25.5 -44.5 -35.5s-43.5 -15 -71.5 -15c-44 0 -80 13.333 -108 40l28 49
c23.333 -17.333 48.666 -26 75.999 -26c34.667 0 58 13 70 39s18 69 18 129v231c-58 2 -105.833 22.667 -143.5 62s-56.5 92 -56.5 158z" />
    <glyph glyph-name="periodcentered" unicode="&#xb7;" horiz-adv-x="236" 
d="M70 297c0 10.667 4.5 20.334 13.5 29.001s19.833 13 32.5 13c12 0 22.333 -4.33301 31 -13s13 -18.334 13 -29.001c0 -12 -4.33301 -22.333 -13 -31s-19 -13 -31 -13c-13.333 0 -24.333 4.33301 -33 13s-13 19 -13 31z" />
    <glyph glyph-name="cedilla" unicode="&#xb8;" horiz-adv-x="418" 
d="M205 -173l20.001 43.001c26 -14 51 -21 75 -21c21.333 0 35.833 2.66699 43.5 8s11.5 13.666 11.5 24.999c0 22 -19.333 33 -58 33h-22v85h45v-41c32.667 -0.666992 57.167 -8.16699 73.5 -22.5s24.5 -32.833 24.5 -55.5c0 -24 -9.83301 -43.833 -29.5 -59.5
s-48.834 -23.5 -87.501 -23.5c-37.333 0 -69.333 9.66699 -96 29z" />
    <glyph glyph-name="onesuperior" unicode="&#xb9;" horiz-adv-x="293" 
d="M10 653l163 70h44v-423h-60v358l-127 -54z" />
    <glyph glyph-name="ordmasculine" unicode="&#xba;" horiz-adv-x="461" 
d="M57 460c0 49.333 16.333 89.5 49 120.5s74 46.5 124 46.5c50.667 0 92.5 -15.5 125.5 -46.5s49.5 -71.167 49.5 -120.5c0 -48.667 -16.5 -88.5 -49.5 -119.5s-74.833 -46.5 -125.5 -46.5c-50 0 -91.333 15.5 -124 46.5s-49 70.833 -49 119.5zM118 460
c0 -32.667 11.166 -59.167 33.499 -79.5s48.5 -30.5 78.5 -30.5c32 0 59 10.167 81 30.5s33 46.833 33 79.5s-11.167 59.334 -33.5 80.001s-49.166 31 -80.499 31c-30.667 0 -57 -10.333 -79 -31s-33 -47.334 -33 -80.001z" />
    <glyph glyph-name="guillemotright" unicode="&#xbb;" horiz-adv-x="516" 
d="M456 250l-180 -212l-45 41l149 173l-150 173l44 39l182 -209v-5zM274 250l-180 -212l-45 41l149 173l-150 173l44 39l182 -209v-5z" />
    <glyph glyph-name="onequarter" unicode="&#xbc;" horiz-adv-x="867" 
d="M95 31l547 675l45 -36l-544 -678zM37 653l163 70h44v-423h-60v358l-127 -54zM683 0v94h-277v42l280 284h56v-272h89v-54h-89v-94h-59zM487 148h196v195z" />
    <glyph glyph-name="onehalf" unicode="&#xbd;" horiz-adv-x="897" 
d="M95 31l547 675l45 -36l-544 -678zM37 653l163 70h44v-423h-60v358l-127 -54zM552 296l-45.999 24.999c12 30.667 33.167 55.667 63.5 75s64.166 29 101.499 29c46 0 82.333 -10.5 109 -31.5s40 -50.5 40 -88.5c0 -72 -49.667 -140.333 -149 -205l-70 -45h240v-55h-336v50
l104 69c47.333 32 84.166 62 110.499 90s39.5 57 39.5 87c0 24.667 -7.83301 43.334 -23.5 56.001s-37.5 19 -65.5 19c-51.333 0 -90.666 -25 -117.999 -75z" />
    <glyph glyph-name="threequarters" unicode="&#xbe;" horiz-adv-x="949" 
d="M177 31l547 675l45 -36l-544 -678zM764 0v94h-277v42l280 284h56v-272h89v-54h-89v-94h-59zM568 148h196v195zM95 612l-45.0029 30.001c34 55.333 91 83 171 83c45.333 0 81 -9.33301 107 -28s39 -44.334 39 -77.001c0 -49.333 -23 -82 -69 -98
c54.667 -13.333 82 -48 82 -104c0 -38.667 -16.167 -68.834 -48.5 -90.501s-71.833 -32.5 -118.5 -32.5c-36 0 -70.667 8.33301 -104 25s-57.333 39.334 -72 68.001l47 32c10 -21.333 27.333 -38.5 52 -51.5s50.334 -19.5 77.001 -19.5c32.667 0 58.334 6.16699 77.001 18.5
s28 29.5 28 51.5c0 46 -34 69 -102 69h-59v52h47c30.667 0 55.334 6.33301 74.001 19s28 30 28 52c0 40 -29 60 -87 60c-54 0 -95.333 -19.667 -124 -59z" />
    <glyph glyph-name="questiondown" unicode="&#xbf;" horiz-adv-x="575" 
d="M110 -6c0 -36 14.0059 -64.834 42.0059 -86.501s70.333 -32.5 127 -32.5c53.333 0 95.166 10.333 125.499 31s55.166 47.667 74.499 81l56 -24c-18 -44.667 -49.167 -81.5 -93.5 -110.5s-99.833 -43.5 -166.5 -43.5c-77.333 0 -135.833 16.167 -175.5 48.5
s-59.5 73.5 -59.5 123.5c0 30.667 6.16699 58.667 18.5 84s27.666 45.833 45.999 61.5s38.333 30.667 60 45s41.667 26.5 60 36.5s33.666 21.833 45.999 35.5s18.5 27.834 18.5 42.501c0 14 -1.33301 28 -4 42h62c2.66699 -11.333 4 -30 4 -56
c0 -20.667 -8.16699 -40.167 -24.5 -58.5s-36.333 -34.5 -60 -48.5s-47.334 -28.5 -71.001 -43.5s-43.834 -33.5 -60.501 -55.5s-25 -46 -25 -72zM372.006 466.999c0 -12.667 -5.16699 -24 -15.5 -34s-23.5 -15 -39.5 -15c-14 0 -26.167 5 -36.5 15s-15.5 21.333 -15.5 34
c0 14.667 5 27.334 15 38.001s22.333 16 37 16c16 0 29.167 -5.33301 39.5 -16s15.5 -23.334 15.5 -38.001z" />
    <glyph glyph-name="Agrave" unicode="&#xc0;" horiz-adv-x="678" 
d="M3 0l307 702h58l307 -702h-74l-85 192h-359l-82 -192h-72zM337 608l-151 -352h304zM373 762l-189 91l29 58l182 -107z" />
    <glyph glyph-name="Aacute" unicode="&#xc1;" horiz-adv-x="678" 
d="M3 0l307 702h58l307 -702h-74l-85 192h-359l-82 -192h-72zM337 608l-151 -352h304zM513 853l-188 -91l-23 42l183 107z" />
    <glyph glyph-name="Acircumflex" unicode="&#xc2;" horiz-adv-x="678" 
d="M3 0l307 702h58l307 -702h-74l-85 192h-359l-82 -192h-72zM337 608l-151 -352h304zM336 905l183 -103l-30 -43l-155 83l-153 -83l-23 43l174 103h4z" />
    <glyph glyph-name="Atilde" unicode="&#xc3;" horiz-adv-x="678" 
d="M3 0l307 702h58l307 -702h-74l-85 192h-359l-82 -192h-72zM337 608l-151 -352h304zM183 799l-21.999 39.001c14 13.333 30.833 24.166 50.5 32.499s36.5 12.5 50.5 12.5c20.667 0 48.167 -7.66699 82.5 -23s60.166 -23 77.499 -23c28 0 52.333 11.333 73 34l21 -39
c-13.333 -16.667 -29.833 -29.5 -49.5 -38.5s-37.834 -13.5 -54.501 -13.5c-18.667 0 -45.667 7.66699 -81 23s-62.666 23 -81.999 23c-22 0 -44 -9 -66 -27z" />
    <glyph glyph-name="Adieresis" unicode="&#xc4;" horiz-adv-x="678" 
d="M3 0l307 702h58l307 -702h-74l-85 192h-359l-82 -192h-72zM337 608l-151 -352h304zM178 824c0 11.333 4.33301 20.666 13 27.999s19.667 11 33 11c10.667 0 20.334 -3.66699 29.001 -11s13 -16.666 13 -27.999c0 -12 -4.33301 -21.667 -13 -29s-18.334 -11 -29.001 -11
c-13.333 0 -24.333 3.5 -33 10.5s-13 16.833 -13 29.5zM411 824c0 11.333 4.33105 20.666 12.998 27.999s19.334 11 32.001 11c11.333 0 21.166 -3.66699 29.499 -11s12.5 -16.666 12.5 -27.999c0 -12.667 -4.16699 -22.5 -12.5 -29.5s-18.166 -10.5 -29.499 -10.5
c-13.333 0 -24.166 3.5 -32.499 10.5s-12.5 16.833 -12.5 29.5z" />
    <glyph glyph-name="Aring" unicode="&#xc5;" horiz-adv-x="678" 
d="M3 0l307 702h58l307 -702h-74l-85 192h-359l-82 -192h-72zM337 608l-151 -352h304zM227 822c0 29.333 10.999 52.5 32.999 69.5s48 25.5 78 25.5c31.333 0 58 -8.33301 80 -25s33 -40 33 -70c0 -28.667 -10.5 -52 -31.5 -70s-48.167 -27 -81.5 -27
s-60.166 8.66699 -80.499 26s-30.5 41 -30.5 71zM278.999 822c0 -14.667 5.33301 -26.832 16 -36.499s25.334 -14.5 44.001 -14.5c20 0 35 4.66699 45 14s15 21.666 15 36.999c0 14 -5.5 25.5 -16.5 34.5s-25.5 13.5 -43.5 13.5c-18.667 0 -33.334 -4.5 -44.001 -13.5
s-16 -20.5 -16 -34.5z" />
    <glyph glyph-name="AE" unicode="&#xc6;" horiz-adv-x="1102" 
d="M540 0v192h-322l-142 -192h-76l509 700h530v-66h-428v-245h400v-66h-400v-257h438v-66h-509zM262 256h278v379z" />
    <glyph glyph-name="Ccedilla" unicode="&#xc7;" horiz-adv-x="686" 
d="M287 -173l20.998 43c26.667 -14 51.667 -21 75 -21c22 0 36.667 2.66699 44 8s11 13.666 11 24.999c0 22 -19 33 -57 33h-23v78c-99.333 8.66699 -177.5 44.834 -234.5 108.501s-85.5 146.5 -85.5 248.5c0 102.667 32.167 188.167 96.5 256.5s149.5 102.5 255.5 102.5
c58.667 0 111 -10.667 157 -32s81.333 -47.666 106 -78.999l-43 -45c-31.333 30 -63.833 52.333 -97.5 67s-75.167 22 -124.5 22c-85.333 0 -152.833 -27 -202.5 -81s-74.5 -124.333 -74.5 -211c0 -88 26.833 -158.667 80.5 -212s124.167 -80 211.5 -80
c90.667 0 164.334 32 221.001 96l40 -46c-25.333 -34 -61.666 -61.833 -108.999 -83.5s-97.666 -32.834 -150.999 -33.501v-32c66 -2 99 -28 99 -78c0 -24 -9.5 -43.833 -28.5 -59.5s-47.833 -23.5 -86.5 -23.5c-40.667 0 -74.334 9.66699 -101.001 29z" />
    <glyph glyph-name="Egrave" unicode="&#xc8;" horiz-adv-x="638" 
d="M77 0v700h499v-66h-428v-245h400v-66h-400v-257h438v-66h-509zM363 762l-189 91l29 58l182 -107z" />
    <glyph glyph-name="Eacute" unicode="&#xc9;" horiz-adv-x="638" 
d="M77 0v700h499v-66h-428v-245h400v-66h-400v-257h438v-66h-509zM481 853l-188 -91l-23 42l183 107z" />
    <glyph glyph-name="Ecircumflex" unicode="&#xca;" horiz-adv-x="638" 
d="M77 0v700h499v-66h-428v-245h400v-66h-400v-257h438v-66h-509zM333 905l183 -103l-30 -43l-155 83l-153 -83l-23 43l174 103h4z" />
    <glyph glyph-name="Edieresis" unicode="&#xcb;" horiz-adv-x="638" 
d="M77 0v700h499v-66h-428v-245h400v-66h-400v-257h438v-66h-509zM170 824c0 11.333 4.33301 20.666 13 27.999s19.667 11 33 11c10.667 0 20.334 -3.66699 29.001 -11s13 -16.666 13 -27.999c0 -12 -4.33301 -21.667 -13 -29s-18.334 -11 -29.001 -11
c-13.333 0 -24.333 3.5 -33 10.5s-13 16.833 -13 29.5zM403 824c0 11.333 4.33105 20.666 12.998 27.999s19.334 11 32.001 11c11.333 0 21.166 -3.66699 29.499 -11s12.5 -16.666 12.5 -27.999c0 -12.667 -4.16699 -22.5 -12.5 -29.5s-18.166 -10.5 -29.499 -10.5
c-13.333 0 -24.166 3.5 -32.499 10.5s-12.5 16.833 -12.5 29.5z" />
    <glyph glyph-name="Igrave" unicode="&#xcc;" horiz-adv-x="245" 
d="M87 0v700h71v-700h-71zM144 762l-189 91l29 58l182 -107z" />
    <glyph glyph-name="Iacute" unicode="&#xcd;" horiz-adv-x="245" 
d="M87 0v700h71v-700h-71zM293 853l-188 -91l-23 42l183 107z" />
    <glyph glyph-name="Icircumflex" unicode="&#xce;" horiz-adv-x="245" 
d="M87 0v700h71v-700h-71zM119 905l183 -103l-30 -43l-155 83l-153 -83l-23 43l174 103h4z" />
    <glyph glyph-name="Idieresis" unicode="&#xcf;" horiz-adv-x="245" 
d="M87 0v700h71v-700h-71zM-39 824c0 11.333 4.33301 20.666 13 27.999s19.667 11 33 11c10.667 0 20.334 -3.66699 29.001 -11s13 -16.666 13 -27.999c0 -12 -4.33301 -21.667 -13 -29s-18.334 -11 -29.001 -11c-13.333 0 -24.333 3.5 -33 10.5s-13 16.833 -13 29.5z
M194 824c0 11.333 4.33105 20.666 12.998 27.999s19.334 11 32.001 11c11.333 0 21.166 -3.66699 29.499 -11s12.5 -16.666 12.5 -27.999c0 -12.667 -4.16699 -22.5 -12.5 -29.5s-18.166 -10.5 -29.499 -10.5c-13.333 0 -24.166 3.5 -32.499 10.5s-12.5 16.833 -12.5 29.5z
" />
    <glyph glyph-name="Eth" unicode="&#xd0;" horiz-adv-x="765" 
d="M8 317v60h125v323h213c67.333 0 126.333 -9 177 -27s90.5 -43 119.5 -75s50.333 -67.833 64 -107.5s20.5 -83.167 20.5 -130.5c0 -106 -33 -192.5 -99 -259.5s-163 -100.5 -291 -100.5h-204v317h-125zM344 634l-140 -0.000976562v-257h198v-60h-198v-251h137
c105.333 0 183.833 26.833 235.5 80.5s77.5 124.834 77.5 213.501c0 83.333 -24.833 149.833 -74.5 199.5s-128.167 74.5 -235.5 74.5z" />
    <glyph glyph-name="Ntilde" unicode="&#xd1;" horiz-adv-x="736" 
d="M658 0h-56l-457 572v-572h-68v700h56l457 -574v574h68v-700zM212 799l-21.999 39.001c14 13.333 30.833 24.166 50.5 32.499s36.5 12.5 50.5 12.5c20.667 0 48.167 -7.66699 82.5 -23s60.166 -23 77.499 -23c28 0 52.333 11.333 73 34l21 -39
c-13.333 -16.667 -29.833 -29.5 -49.5 -38.5s-37.834 -13.5 -54.501 -13.5c-18.667 0 -45.667 7.66699 -81 23s-62.666 23 -81.999 23c-22 0 -44 -9 -66 -27z" />
    <glyph glyph-name="Ograve" unicode="&#xd2;" horiz-adv-x="783" 
d="M38 350c0 101.333 34.167 186.5 102.5 255.5s152.166 103.5 251.499 103.5s183 -34 251 -102s102 -153.667 102 -257c0 -102.667 -34 -188.167 -102 -256.5s-151.667 -102.5 -251 -102.5s-183.166 34 -251.499 102s-102.5 153.667 -102.5 257zM111 350
c0 -83.333 27.5 -153 82.5 -209s121.167 -84 198.5 -84c80 0 146.667 27.833 200 83.5s80 125.5 80 209.5s-27.333 153.833 -82 209.5s-120.667 83.5 -198 83.5c-78 0 -144.333 -27.833 -199 -83.5s-82 -125.5 -82 -209.5zM428 762l-189 91l29 58l182 -107z" />
    <glyph glyph-name="Oacute" unicode="&#xd3;" horiz-adv-x="783" 
d="M38 350c0 101.333 34.167 186.5 102.5 255.5s152.166 103.5 251.499 103.5s183 -34 251 -102s102 -153.667 102 -257c0 -102.667 -34 -188.167 -102 -256.5s-151.667 -102.5 -251 -102.5s-183.166 34 -251.499 102s-102.5 153.667 -102.5 257zM111 350
c0 -83.333 27.5 -153 82.5 -209s121.167 -84 198.5 -84c80 0 146.667 27.833 200 83.5s80 125.5 80 209.5s-27.333 153.833 -82 209.5s-120.667 83.5 -198 83.5c-78 0 -144.333 -27.833 -199 -83.5s-82 -125.5 -82 -209.5zM550 853l-188 -91l-23 42l183 107z" />
    <glyph glyph-name="Ocircumflex" unicode="&#xd4;" horiz-adv-x="783" 
d="M38 350c0 101.333 34.167 186.5 102.5 255.5s152.166 103.5 251.499 103.5s183 -34 251 -102s102 -153.667 102 -257c0 -102.667 -34 -188.167 -102 -256.5s-151.667 -102.5 -251 -102.5s-183.166 34 -251.499 102s-102.5 153.667 -102.5 257zM111 350
c0 -83.333 27.5 -153 82.5 -209s121.167 -84 198.5 -84c80 0 146.667 27.833 200 83.5s80 125.5 80 209.5s-27.333 153.833 -82 209.5s-120.667 83.5 -198 83.5c-78 0 -144.333 -27.833 -199 -83.5s-82 -125.5 -82 -209.5zM390 905l183 -103l-30 -43l-155 83l-153 -83
l-23 43l174 103h4z" />
    <glyph glyph-name="Otilde" unicode="&#xd5;" horiz-adv-x="783" 
d="M38 350c0 101.333 34.167 186.5 102.5 255.5s152.166 103.5 251.499 103.5s183 -34 251 -102s102 -153.667 102 -257c0 -102.667 -34 -188.167 -102 -256.5s-151.667 -102.5 -251 -102.5s-183.166 34 -251.499 102s-102.5 153.667 -102.5 257zM111 350
c0 -83.333 27.5 -153 82.5 -209s121.167 -84 198.5 -84c80 0 146.667 27.833 200 83.5s80 125.5 80 209.5s-27.333 153.833 -82 209.5s-120.667 83.5 -198 83.5c-78 0 -144.333 -27.833 -199 -83.5s-82 -125.5 -82 -209.5zM236 799l-21.999 39.001
c14 13.333 30.833 24.166 50.5 32.499s36.5 12.5 50.5 12.5c20.667 0 48.167 -7.66699 82.5 -23s60.166 -23 77.499 -23c28 0 52.333 11.333 73 34l21 -39c-13.333 -16.667 -29.833 -29.5 -49.5 -38.5s-37.834 -13.5 -54.501 -13.5c-18.667 0 -45.667 7.66699 -81 23
s-62.666 23 -81.999 23c-22 0 -44 -9 -66 -27z" />
    <glyph glyph-name="Odieresis" unicode="&#xd6;" horiz-adv-x="783" 
d="M38 350c0 101.333 34.167 186.5 102.5 255.5s152.166 103.5 251.499 103.5s183 -34 251 -102s102 -153.667 102 -257c0 -102.667 -34 -188.167 -102 -256.5s-151.667 -102.5 -251 -102.5s-183.166 34 -251.499 102s-102.5 153.667 -102.5 257zM111 350
c0 -83.333 27.5 -153 82.5 -209s121.167 -84 198.5 -84c80 0 146.667 27.833 200 83.5s80 125.5 80 209.5s-27.333 153.833 -82 209.5s-120.667 83.5 -198 83.5c-78 0 -144.333 -27.833 -199 -83.5s-82 -125.5 -82 -209.5zM232 824c0 11.333 4.33301 20.666 13 27.999
s19.667 11 33 11c10.667 0 20.334 -3.66699 29.001 -11s13 -16.666 13 -27.999c0 -12 -4.33301 -21.667 -13 -29s-18.334 -11 -29.001 -11c-13.333 0 -24.333 3.5 -33 10.5s-13 16.833 -13 29.5zM465 824c0 11.333 4.33105 20.666 12.998 27.999s19.334 11 32.001 11
c11.333 0 21.166 -3.66699 29.499 -11s12.5 -16.666 12.5 -27.999c0 -12.667 -4.16699 -22.5 -12.5 -29.5s-18.166 -10.5 -29.499 -10.5c-13.333 0 -24.166 3.5 -32.499 10.5s-12.5 16.833 -12.5 29.5z" />
    <glyph glyph-name="multiply" unicode="&#xd7;" horiz-adv-x="591" 
d="M113 497l42 42l138 -138l139 138l42 -42l-138 -138l138 -139l-42 -42l-139 139l-138 -139l-42 42l139 139z" />
    <glyph glyph-name="Oslash" unicode="&#xd8;" horiz-adv-x="783" 
d="M93 29l50.002 60.999c-70 68.667 -105 155.334 -105 260.001c0 101.333 34.167 186.5 102.5 255.5s152.166 103.5 251.499 103.5c75.333 0 142.666 -20.333 201.999 -61l46 56l45 -36l-46 -57c70.667 -68.667 106 -155.667 106 -261c0 -102.667 -34 -188.167 -102 -256.5
s-151.667 -102.5 -251 -102.5c-74.667 0 -142 20 -202 60l-49 -61zM672.002 349.999c0 80.667 -26 149 -78 205l-360 -449c47.333 -32.667 100 -49 158 -49c80 0 146.667 27.833 200 83.5s80 125.5 80 209.5zM111.002 349.999c0 -80.667 25.667 -148.667 77 -204l362 447
c-48 33.333 -100.667 50 -158 50c-78 0 -144.333 -27.833 -199 -83.5s-82 -125.5 -82 -209.5z" />
    <glyph glyph-name="Ugrave" unicode="&#xd9;" horiz-adv-x="719" 
d="M651 700l-0.000976562 -406c0 -52 -8 -97.833 -24 -137.5s-37.667 -71.167 -65 -94.5s-57.166 -40.833 -89.499 -52.5s-66.833 -17.5 -103.5 -17.5c-85.333 0 -156.833 27 -214.5 81s-86.5 130 -86.5 228v399h71v-388c0 -81.333 22 -144 66 -188s98.667 -66 164 -66
c68.667 0 121 22 157 66s54 105 54 183v393h71zM398.999 762l-189 91l29 58l182 -107z" />
    <glyph glyph-name="Uacute" unicode="&#xda;" horiz-adv-x="719" 
d="M651 700l-0.000976562 -406c0 -52 -8 -97.833 -24 -137.5s-37.667 -71.167 -65 -94.5s-57.166 -40.833 -89.499 -52.5s-66.833 -17.5 -103.5 -17.5c-85.333 0 -156.833 27 -214.5 81s-86.5 130 -86.5 228v399h71v-388c0 -81.333 22 -144 66 -188s98.667 -66 164 -66
c68.667 0 121 22 157 66s54 105 54 183v393h71zM520.999 853l-188 -91l-23 42l183 107z" />
    <glyph glyph-name="Ucircumflex" unicode="&#xdb;" horiz-adv-x="719" 
d="M651 700l-0.000976562 -406c0 -52 -8 -97.833 -24 -137.5s-37.667 -71.167 -65 -94.5s-57.166 -40.833 -89.499 -52.5s-66.833 -17.5 -103.5 -17.5c-85.333 0 -156.833 27 -214.5 81s-86.5 130 -86.5 228v399h71v-388c0 -81.333 22 -144 66 -188s98.667 -66 164 -66
c68.667 0 121 22 157 66s54 105 54 183v393h71zM356.999 905l183 -103l-30 -43l-155 83l-153 -83l-23 43l174 103h4z" />
    <glyph glyph-name="Udieresis" unicode="&#xdc;" horiz-adv-x="719" 
d="M651 700l-0.000976562 -406c0 -52 -8 -97.833 -24 -137.5s-37.667 -71.167 -65 -94.5s-57.166 -40.833 -89.499 -52.5s-66.833 -17.5 -103.5 -17.5c-85.333 0 -156.833 27 -214.5 81s-86.5 130 -86.5 228v399h71v-388c0 -81.333 22 -144 66 -188s98.667 -66 164 -66
c68.667 0 121 22 157 66s54 105 54 183v393h71zM198.999 824c0 11.333 4.33301 20.666 13 27.999s19.667 11 33 11c10.667 0 20.334 -3.66699 29.001 -11s13 -16.666 13 -27.999c0 -12 -4.33301 -21.667 -13 -29s-18.334 -11 -29.001 -11c-13.333 0 -24.333 3.5 -33 10.5
s-13 16.833 -13 29.5zM431.999 824c0 11.333 4.33105 20.666 12.998 27.999s19.334 11 32.001 11c11.333 0 21.166 -3.66699 29.499 -11s12.5 -16.666 12.5 -27.999c0 -12.667 -4.16699 -22.5 -12.5 -29.5s-18.166 -10.5 -29.499 -10.5c-13.333 0 -24.166 3.5 -32.499 10.5
s-12.5 16.833 -12.5 29.5z" />
    <glyph glyph-name="Yacute" unicode="&#xdd;" horiz-adv-x="627" 
d="M629 700l-281 -394v-306h-71v306l-279 394h85l231 -328l235 328h80zM478 853l-188 -91l-23 42l183 107z" />
    <glyph glyph-name="Thorn" unicode="&#xde;" horiz-adv-x="651" 
d="M148 0h-70.999v700h71v-117h181c189.333 0 284 -71 284 -213c0 -62 -22.833 -113.667 -68.5 -155s-117.834 -62 -216.501 -62h-180v-153zM334.001 518l-186 0.00195312v-299h178c72 -0.666992 125.667 12.666 161 39.999s53 64.666 53 111.999c0 98 -68.667 147 -206 147
z" />
    <glyph glyph-name="germandbls" unicode="&#xdf;" horiz-adv-x="553" 
d="M272 738c68.667 0 120.497 -17.668 155.497 -53.001s52.5 -85.333 52.5 -150c0 -34.667 -9.5 -67.167 -28.5 -97.5s-44.5 -52.5 -76.5 -66.5c45.333 -8 80 -28 104 -60s36 -71 36 -117c0 -66 -19 -116.333 -57 -151s-93 -52 -165 -52c-50.667 0 -90 7.33301 -118 22
l21 62c28 -13.333 61.333 -20 100 -20c46 0 82.5 12 109.5 36s40.5 58.333 40.5 103c0 88.667 -60.333 133 -181 133h-51v65h40c47.333 0 85.333 14.5 114 43.5s43 63.167 43 102.5c0 42.667 -12.167 76.334 -36.5 101.001s-58.166 37 -101.499 37
c-44 0 -78.667 -13.667 -104 -41s-38 -77.333 -38 -150v-485h-65v499c0 45.333 6 84.333 18 117s28.333 57.5 49 74.5s42.334 29.167 65.001 36.5s47.334 11 74.001 11z" />
    <glyph glyph-name="agrave" unicode="&#xe0;" horiz-adv-x="533" 
d="M96 410l-35 49.999c24 22 54.5 39.667 91.5 53s73.5 20 109.5 20c70 0 123.167 -18.167 159.5 -54.5s54.5 -88.166 54.5 -155.499v-323h-65v86c-42 -62 -107.333 -93 -196 -93c-56 0 -101.333 14.167 -136 42.5s-52 65.833 -52 112.5c0 105.333 84.333 158 253 158
c51.333 0 95 -5.33301 131 -16c0 58.667 -11.333 103.5 -34 134.5s-63.667 46.5 -123 46.5c-53.333 0 -106 -20.333 -158 -61zM233 52.999c44 0 81.666 12.334 112.999 37.001s53 51 65 79v62c-35.333 10.667 -76 16 -122 16c-63.333 0 -111.5 -7.16699 -144.5 -21.5
s-49.5 -38.833 -49.5 -73.5c0 -30.667 12.833 -54.834 38.5 -72.501s58.834 -26.5 99.501 -26.5zM269.999 615l-121 145l50 39l110 -154z" />
    <glyph glyph-name="aacute" unicode="&#xe1;" horiz-adv-x="533" 
d="M96 410l-35 49.999c24 22 54.5 39.667 91.5 53s73.5 20 109.5 20c70 0 123.167 -18.167 159.5 -54.5s54.5 -88.166 54.5 -155.499v-323h-65v86c-42 -62 -107.333 -93 -196 -93c-56 0 -101.333 14.167 -136 42.5s-52 65.833 -52 112.5c0 105.333 84.333 158 253 158
c51.333 0 95 -5.33301 131 -16c0 58.667 -11.333 103.5 -34 134.5s-63.667 46.5 -123 46.5c-53.333 0 -106 -20.333 -158 -61zM233 52.999c44 0 81.666 12.334 112.999 37.001s53 51 65 79v62c-35.333 10.667 -76 16 -122 16c-63.333 0 -111.5 -7.16699 -144.5 -21.5
s-49.5 -38.833 -49.5 -73.5c0 -30.667 12.833 -54.834 38.5 -72.501s58.834 -26.5 99.501 -26.5zM385.999 762l-118 -148l-42 30l110 155z" />
    <glyph glyph-name="acircumflex" unicode="&#xe2;" horiz-adv-x="533" 
d="M96 410l-35 49.999c24 22 54.5 39.667 91.5 53s73.5 20 109.5 20c70 0 123.167 -18.167 159.5 -54.5s54.5 -88.166 54.5 -155.499v-323h-65v86c-42 -62 -107.333 -93 -196 -93c-56 0 -101.333 14.167 -136 42.5s-52 65.833 -52 112.5c0 105.333 84.333 158 253 158
c51.333 0 95 -5.33301 131 -16c0 58.667 -11.333 103.5 -34 134.5s-63.667 46.5 -123 46.5c-53.333 0 -106 -20.333 -158 -61zM233 52.999c44 0 81.666 12.334 112.999 37.001s53 51 65 79v62c-35.333 10.667 -76 16 -122 16c-63.333 0 -111.5 -7.16699 -144.5 -21.5
s-49.5 -38.833 -49.5 -73.5c0 -30.667 12.833 -54.834 38.5 -72.501s58.834 -26.5 99.501 -26.5zM267.999 781l143 -123l-36 -42l-109 97l-114 -94l-29 40l141 122h4z" />
    <glyph glyph-name="atilde" unicode="&#xe3;" horiz-adv-x="533" 
d="M96 410l-35 49.999c24 22 54.5 39.667 91.5 53s73.5 20 109.5 20c70 0 123.167 -18.167 159.5 -54.5s54.5 -88.166 54.5 -155.499v-323h-65v86c-42 -62 -107.333 -93 -196 -93c-56 0 -101.333 14.167 -136 42.5s-52 65.833 -52 112.5c0 105.333 84.333 158 253 158
c51.333 0 95 -5.33301 131 -16c0 58.667 -11.333 103.5 -34 134.5s-63.667 46.5 -123 46.5c-53.333 0 -106 -20.333 -158 -61zM233 52.999c44 0 81.666 12.334 112.999 37.001s53 51 65 79v62c-35.333 10.667 -76 16 -122 16c-63.333 0 -111.5 -7.16699 -144.5 -21.5
s-49.5 -38.833 -49.5 -73.5c0 -30.667 12.833 -54.834 38.5 -72.501s58.834 -26.5 99.501 -26.5zM136.999 632l-31.001 32c39.333 39.333 75 59 107 59c16 0 37 -8.33301 63 -25s45.667 -25 59 -25c23.333 0 45.666 11.667 66.999 35l26 -33
c-29.333 -38 -62.333 -57 -99 -57c-19.333 0 -41.166 8.33301 -65.499 25s-42.166 25 -53.499 25c-20 0 -44.333 -12 -73 -36z" />
    <glyph glyph-name="adieresis" unicode="&#xe4;" horiz-adv-x="533" 
d="M96 410l-35 49.999c24 22 54.5 39.667 91.5 53s73.5 20 109.5 20c70 0 123.167 -18.167 159.5 -54.5s54.5 -88.166 54.5 -155.499v-323h-65v86c-42 -62 -107.333 -93 -196 -93c-56 0 -101.333 14.167 -136 42.5s-52 65.833 -52 112.5c0 105.333 84.333 158 253 158
c51.333 0 95 -5.33301 131 -16c0 58.667 -11.333 103.5 -34 134.5s-63.667 46.5 -123 46.5c-53.333 0 -106 -20.333 -158 -61zM233 52.999c44 0 81.666 12.334 112.999 37.001s53 51 65 79v62c-35.333 10.667 -76 16 -122 16c-63.333 0 -111.5 -7.16699 -144.5 -21.5
s-49.5 -38.833 -49.5 -73.5c0 -30.667 12.833 -54.834 38.5 -72.501s58.834 -26.5 99.501 -26.5zM97.999 689c0 11.333 4 20.833 12 28.5s17.333 11.5 28 11.5c11.333 0 21.333 -3.83301 30 -11.5s13 -17.167 13 -28.5c0 -12.667 -4.33301 -22.834 -13 -30.501
s-18.667 -11.5 -30 -11.5c-10.667 0 -20 3.83301 -28 11.5s-12 17.834 -12 30.501zM334.999 689c0 12 4.16699 21.667 12.5 29s18.5 11 30.5 11c10.667 0 20.334 -3.83301 29.001 -11.5s13 -17.167 13 -28.5c0 -12.667 -4.33301 -22.834 -13 -30.501
s-18.334 -11.5 -29.001 -11.5c-12 0 -22.167 3.83301 -30.5 11.5s-12.5 17.834 -12.5 30.501z" />
    <glyph glyph-name="aring" unicode="&#xe5;" horiz-adv-x="533" 
d="M96 410l-35 49.999c24 22 54.5 39.667 91.5 53s73.5 20 109.5 20c70 0 123.167 -18.167 159.5 -54.5s54.5 -88.166 54.5 -155.499v-323h-65v86c-42 -62 -107.333 -93 -196 -93c-56 0 -101.333 14.167 -136 42.5s-52 65.833 -52 112.5c0 105.333 84.333 158 253 158
c51.333 0 95 -5.33301 131 -16c0 58.667 -11.333 103.5 -34 134.5s-63.667 46.5 -123 46.5c-53.333 0 -106 -20.333 -158 -61zM233 52.999c44 0 81.666 12.334 112.999 37.001s53 51 65 79v62c-35.333 10.667 -76 16 -122 16c-63.333 0 -111.5 -7.16699 -144.5 -21.5
s-49.5 -38.833 -49.5 -73.5c0 -30.667 12.833 -54.834 38.5 -72.501s58.834 -26.5 99.501 -26.5zM165.999 701c0 27.333 9.66699 50.666 29 69.999s43 29 71 29s51.833 -9.66699 71.5 -29s29.5 -42.666 29.5 -69.999s-9.83301 -50.5 -29.5 -69.5s-43.5 -28.5 -71.5 -28.5
s-51.667 9.5 -71 28.5s-29 42.167 -29 69.5zM215.999 701c0 -14 4.66699 -25.832 14 -35.499s21.333 -14.5 36 -14.5c15.333 0 27.666 4.33301 36.999 13s14 21 14 37s-4.66699 28.5 -14 37.5s-21.666 13.5 -36.999 13.5c-14.667 0 -26.667 -4.83301 -36 -14.5
s-14 -21.834 -14 -36.501z" />
    <glyph glyph-name="ae" unicode="&#xe6;" horiz-adv-x="945" 
d="M848 138l44.001 -38.999c-46.667 -72.667 -115.334 -109 -206.001 -109c-54 0 -101.667 10.833 -143 32.5s-73.333 52.167 -96 91.5c-50.667 -80.667 -127 -121 -229 -121c-56.667 0 -102.667 14.5 -138 43.5s-53 66.167 -53 111.5c0 105.333 84.333 158 253 158
c51.333 0 95 -5.33301 131 -16c0 58.667 -11.333 103.5 -34 134.5s-63.667 46.5 -123 46.5c-53.333 0 -106 -20.333 -158 -61l-35 50c24 22 54.5 39.667 91.5 53s73.5 20 109.5 20c98 0 162.667 -35.333 194 -106c46.667 70.667 119 106 217 106
c68.667 0 125.5 -21.667 170.5 -65s67.5 -100.333 67.5 -171c0 -21.333 -1.33301 -40 -4 -56h-427c0.666992 -58.667 20.5 -104.834 59.5 -138.501s88.833 -50.5 149.5 -50.5c32 0 62.5 8.16699 91.5 24.5s51.5 36.833 67.5 61.5zM667.001 472.001
c-53.333 0 -96.667 -15.8311 -130 -47.498s-53 -72.834 -59 -123.501h364c-1.33301 53.333 -17.5 95.166 -48.5 125.499s-73.167 45.5 -126.5 45.5zM233 53.0029c46.667 0 84.8311 12.001 114.498 36.001s50.834 50.667 63.501 80v62c-35.333 10.667 -76 16 -122 16
c-63.333 0 -111.166 -7.16699 -143.499 -21.5s-48.5 -38.833 -48.5 -73.5c0 -30.667 12.5 -54.834 37.5 -72.501s57.833 -26.5 98.5 -26.5z" />
    <glyph glyph-name="ccedilla" unicode="&#xe7;" horiz-adv-x="528" 
d="M203 -173l20.0039 43.0029c26 -14 51 -21 75 -21c21.333 0 35.833 2.66699 43.5 8s11.5 13.666 11.5 24.999c0 22 -19.333 33 -58 33h-22v77c-72.667 7.33301 -130.667 35.166 -174 83.499s-65 110.166 -65 185.499c0 78 25.167 142.833 75.5 194.5
s116.166 77.5 197.499 77.5c42 0 81.667 -9 119 -27s65 -42 83 -72l-51 -36c-36.667 48.667 -87 73 -151 73c-58.667 0 -107.334 -19.833 -146.001 -59.5s-58 -89.834 -58 -150.501c0 -63.333 19.667 -114 59 -152s90.666 -57 153.999 -57c66 0 118.333 27.667 157 83
l45 -36c-18 -32.667 -45.833 -58.667 -83.5 -78s-76.5 -29.666 -116.5 -30.999v-31c32.667 -0.666992 57.167 -8.16699 73.5 -22.5s24.5 -32.833 24.5 -55.5c0 -24 -9.83301 -43.833 -29.5 -59.5s-48.834 -23.5 -87.501 -23.5c-37.333 0 -69.333 9.66699 -96 29z" />
    <glyph glyph-name="egrave" unicode="&#xe8;" horiz-adv-x="570" 
d="M473 138l44.001 -38.999c-46.667 -72.667 -115.667 -109 -207 -109c-82.667 0 -149.334 24.667 -200.001 74s-76 115 -76 197c0 79.333 23.167 144.5 69.5 195.5s110.833 76.5 193.5 76.5c69.333 0 126.5 -21.667 171.5 -65s67.5 -100.333 67.5 -171
c0 -13.333 -1.33301 -32 -4 -56h-429c0.666992 -58.667 20.5 -104.834 59.5 -138.501s89.167 -50.5 150.5 -50.5c32 0 62.667 8.16699 92 24.5s52 36.833 68 61.5zM292.001 472.001c-54 0 -97.667 -15.8311 -131 -47.498s-53 -72.834 -59 -123.501h364
c-1.33301 53.333 -17.5 95.166 -48.5 125.499s-72.833 45.5 -125.5 45.5zM306.001 615.003l-121 145l50 39l110 -154z" />
    <glyph glyph-name="eacute" unicode="&#xe9;" horiz-adv-x="570" 
d="M473 138l44.001 -38.999c-46.667 -72.667 -115.667 -109 -207 -109c-82.667 0 -149.334 24.667 -200.001 74s-76 115 -76 197c0 79.333 23.167 144.5 69.5 195.5s110.833 76.5 193.5 76.5c69.333 0 126.5 -21.667 171.5 -65s67.5 -100.333 67.5 -171
c0 -13.333 -1.33301 -32 -4 -56h-429c0.666992 -58.667 20.5 -104.834 59.5 -138.501s89.167 -50.5 150.5 -50.5c32 0 62.667 8.16699 92 24.5s52 36.833 68 61.5zM292.001 472.001c-54 0 -97.667 -15.8311 -131 -47.498s-53 -72.834 -59 -123.501h364
c-1.33301 53.333 -17.5 95.166 -48.5 125.499s-72.833 45.5 -125.5 45.5zM403.001 762.003l-118 -148l-42 30l110 155z" />
    <glyph glyph-name="ecircumflex" unicode="&#xea;" horiz-adv-x="570" 
d="M473 138l44.001 -38.999c-46.667 -72.667 -115.667 -109 -207 -109c-82.667 0 -149.334 24.667 -200.001 74s-76 115 -76 197c0 79.333 23.167 144.5 69.5 195.5s110.833 76.5 193.5 76.5c69.333 0 126.5 -21.667 171.5 -65s67.5 -100.333 67.5 -171
c0 -13.333 -1.33301 -32 -4 -56h-429c0.666992 -58.667 20.5 -104.834 59.5 -138.501s89.167 -50.5 150.5 -50.5c32 0 62.667 8.16699 92 24.5s52 36.833 68 61.5zM292.001 472.001c-54 0 -97.667 -15.8311 -131 -47.498s-53 -72.834 -59 -123.501h364
c-1.33301 53.333 -17.5 95.166 -48.5 125.499s-72.833 45.5 -125.5 45.5zM305.001 781.003l143 -123l-36 -42l-109 97l-114 -94l-29 40l141 122h4z" />
    <glyph glyph-name="edieresis" unicode="&#xeb;" horiz-adv-x="570" 
d="M473 138l44.001 -38.999c-46.667 -72.667 -115.667 -109 -207 -109c-82.667 0 -149.334 24.667 -200.001 74s-76 115 -76 197c0 79.333 23.167 144.5 69.5 195.5s110.833 76.5 193.5 76.5c69.333 0 126.5 -21.667 171.5 -65s67.5 -100.333 67.5 -171
c0 -13.333 -1.33301 -32 -4 -56h-429c0.666992 -58.667 20.5 -104.834 59.5 -138.501s89.167 -50.5 150.5 -50.5c32 0 62.667 8.16699 92 24.5s52 36.833 68 61.5zM292.001 472.001c-54 0 -97.667 -15.8311 -131 -47.498s-53 -72.834 -59 -123.501h364
c-1.33301 53.333 -17.5 95.166 -48.5 125.499s-72.833 45.5 -125.5 45.5zM124.001 689.003c0 11.333 4 20.833 12 28.5s17.333 11.5 28 11.5c11.333 0 21.333 -3.83301 30 -11.5s13 -17.167 13 -28.5c0 -12.667 -4.33301 -22.834 -13 -30.501s-18.667 -11.5 -30 -11.5
c-10.667 0 -20 3.83301 -28 11.5s-12 17.834 -12 30.501zM361.001 689.003c0 12 4.16699 21.667 12.5 29s18.5 11 30.5 11c10.667 0 20.334 -3.83301 29.001 -11.5s13 -17.167 13 -28.5c0 -12.667 -4.33301 -22.834 -13 -30.501s-18.334 -11.5 -29.001 -11.5
c-12 0 -22.167 3.83301 -30.5 11.5s-12.5 17.834 -12.5 30.501z" />
    <glyph glyph-name="igrave" unicode="&#xec;" horiz-adv-x="238" 
d="M86 0v520h65v-520h-65zM132 615l-121 145l50 39l110 -154z" />
    <glyph glyph-name="iacute" unicode="&#xed;" horiz-adv-x="238" 
d="M86 0v520h65v-520h-65zM228 762l-118 -148l-42 30l110 155z" />
    <glyph glyph-name="icircumflex" unicode="&#xee;" horiz-adv-x="238" 
d="M86 0v520h65v-520h-65zM120 781l143 -123l-36 -42l-109 97l-114 -94l-29 40l141 122h4z" />
    <glyph glyph-name="idieresis" unicode="&#xef;" horiz-adv-x="238" 
d="M86 0v520h65v-520h-65zM-41 689c0 11.333 4 20.833 12 28.5s17.333 11.5 28 11.5c11.333 0 21.333 -3.83301 30 -11.5s13 -17.167 13 -28.5c0 -12.667 -4.33301 -22.834 -13 -30.501s-18.667 -11.5 -30 -11.5c-10.667 0 -20 3.83301 -28 11.5s-12 17.834 -12 30.501z
M196 689c0 12 4.16699 21.667 12.5 29s18.5 11 30.5 11c10.667 0 20.334 -3.83301 29.001 -11.5s13 -17.167 13 -28.5c0 -12.667 -4.33301 -22.834 -13 -30.501s-18.334 -11.5 -29.001 -11.5c-12 0 -22.167 3.83301 -30.5 11.5s-12.5 17.834 -12.5 30.501z" />
    <glyph glyph-name="eth" unicode="&#xf0;" horiz-adv-x="616" 
d="M310 787l49 -21.002l-28 -64c167.333 -67.333 251 -204.666 251 -411.999c0 -92 -25.167 -165 -75.5 -219s-116.5 -81 -198.5 -81c-80.667 0 -146.5 25.5 -197.5 76.5s-76.5 115.833 -76.5 194.5s25.167 142 75.5 190s116.5 72 198.5 72
c35.333 0 70.166 -6.16699 104.499 -18.5s61.833 -29.833 82.5 -52.5c-34 91.333 -96.333 157.333 -187 198l-34 -79l-53 22l35 76c-34.667 9.33301 -70 15 -106 17l13 56c42.667 -5.33301 81.334 -12.666 116.001 -21.999zM103 260.998
c0 -61.333 19.168 -111.5 57.501 -150.5s87.5 -58.5 147.5 -58.5c64.667 0 115.167 20.5 151.5 61.5s54.5 98.833 54.5 173.5c0 36 -4.66699 64.333 -14 85c-17.333 27.333 -42.833 49.166 -76.5 65.499s-70.834 24.5 -111.501 24.5c-62 0 -112.333 -18.167 -151 -54.5
s-58 -85.166 -58 -146.499z" />
    <glyph glyph-name="ntilde" unicode="&#xf1;" horiz-adv-x="591" 
d="M66 0l-0.000976562 520h65v-72c42 56 105 84 189 84c142.667 0 214 -78.333 214 -235v-297h-65v287c0 122 -56.333 183 -169 183c-34.667 0 -67.667 -10.833 -99 -32.5s-54.666 -49.5 -69.999 -83.5v-354h-65zM164.999 632l-31.001 32c39.333 39.333 75 59 107 59
c16 0 37 -8.33301 63 -25s45.667 -25 59 -25c23.333 0 45.666 11.667 66.999 35l26 -33c-29.333 -38 -62.333 -57 -99 -57c-19.333 0 -41.166 8.33301 -65.499 25s-42.166 25 -53.499 25c-20 0 -44.333 -12 -73 -36z" />
    <glyph glyph-name="ograve" unicode="&#xf2;" horiz-adv-x="616" 
d="M34 261c0 79.333 25.333 144.5 76 195.5s116.667 76.5 198 76.5c80.667 0 146.5 -25.5 197.5 -76.5s76.5 -116.167 76.5 -195.5c0 -78.667 -25.5 -143.5 -76.5 -194.5s-116.833 -76.5 -197.5 -76.5s-146.5 25.5 -197.5 76.5s-76.5 115.833 -76.5 194.5zM103 261
c0 -61.333 19.167 -111.499 57.5 -150.499s87.5 -58.5 147.5 -58.5s109.167 19.333 147.5 58s57.5 89 57.5 151c0 61.333 -19.5 111.666 -58.5 150.999s-87.833 59 -146.5 59c-59.333 0 -108.333 -19.5 -147 -58.5s-58 -89.5 -58 -151.5zM325 615.001l-121 145l50 39
l110 -154z" />
    <glyph glyph-name="oacute" unicode="&#xf3;" horiz-adv-x="616" 
d="M34 261c0 79.333 25.333 144.5 76 195.5s116.667 76.5 198 76.5c80.667 0 146.5 -25.5 197.5 -76.5s76.5 -116.167 76.5 -195.5c0 -78.667 -25.5 -143.5 -76.5 -194.5s-116.833 -76.5 -197.5 -76.5s-146.5 25.5 -197.5 76.5s-76.5 115.833 -76.5 194.5zM103 261
c0 -61.333 19.167 -111.499 57.5 -150.499s87.5 -58.5 147.5 -58.5s109.167 19.333 147.5 58s57.5 89 57.5 151c0 61.333 -19.5 111.666 -58.5 150.999s-87.833 59 -146.5 59c-59.333 0 -108.333 -19.5 -147 -58.5s-58 -89.5 -58 -151.5zM410 762.001l-118 -148l-42 30
l110 155z" />
    <glyph glyph-name="ocircumflex" unicode="&#xf4;" horiz-adv-x="616" 
d="M34 261c0 79.333 25.333 144.5 76 195.5s116.667 76.5 198 76.5c80.667 0 146.5 -25.5 197.5 -76.5s76.5 -116.167 76.5 -195.5c0 -78.667 -25.5 -143.5 -76.5 -194.5s-116.833 -76.5 -197.5 -76.5s-146.5 25.5 -197.5 76.5s-76.5 115.833 -76.5 194.5zM103 261
c0 -61.333 19.167 -111.499 57.5 -150.499s87.5 -58.5 147.5 -58.5s109.167 19.333 147.5 58s57.5 89 57.5 151c0 61.333 -19.5 111.666 -58.5 150.999s-87.833 59 -146.5 59c-59.333 0 -108.333 -19.5 -147 -58.5s-58 -89.5 -58 -151.5zM309 781.001l143 -123l-36 -42
l-109 97l-114 -94l-29 40l141 122h4z" />
    <glyph glyph-name="otilde" unicode="&#xf5;" horiz-adv-x="616" 
d="M34 261c0 79.333 25.333 144.5 76 195.5s116.667 76.5 198 76.5c80.667 0 146.5 -25.5 197.5 -76.5s76.5 -116.167 76.5 -195.5c0 -78.667 -25.5 -143.5 -76.5 -194.5s-116.833 -76.5 -197.5 -76.5s-146.5 25.5 -197.5 76.5s-76.5 115.833 -76.5 194.5zM103 261
c0 -61.333 19.167 -111.499 57.5 -150.499s87.5 -58.5 147.5 -58.5s109.167 19.333 147.5 58s57.5 89 57.5 151c0 61.333 -19.5 111.666 -58.5 150.999s-87.833 59 -146.5 59c-59.333 0 -108.333 -19.5 -147 -58.5s-58 -89.5 -58 -151.5zM178 632.001l-31.001 32
c39.333 39.333 75 59 107 59c16 0 37 -8.33301 63 -25s45.667 -25 59 -25c23.333 0 45.666 11.667 66.999 35l26 -33c-29.333 -38 -62.333 -57 -99 -57c-19.333 0 -41.166 8.33301 -65.499 25s-42.166 25 -53.499 25c-20 0 -44.333 -12 -73 -36z" />
    <glyph glyph-name="odieresis" unicode="&#xf6;" horiz-adv-x="616" 
d="M34 261c0 79.333 25.333 144.5 76 195.5s116.667 76.5 198 76.5c80.667 0 146.5 -25.5 197.5 -76.5s76.5 -116.167 76.5 -195.5c0 -78.667 -25.5 -143.5 -76.5 -194.5s-116.833 -76.5 -197.5 -76.5s-146.5 25.5 -197.5 76.5s-76.5 115.833 -76.5 194.5zM103 261
c0 -61.333 19.167 -111.499 57.5 -150.499s87.5 -58.5 147.5 -58.5s109.167 19.333 147.5 58s57.5 89 57.5 151c0 61.333 -19.5 111.666 -58.5 150.999s-87.833 59 -146.5 59c-59.333 0 -108.333 -19.5 -147 -58.5s-58 -89.5 -58 -151.5zM147 689.001
c0 11.333 4 20.833 12 28.5s17.333 11.5 28 11.5c11.333 0 21.333 -3.83301 30 -11.5s13 -17.167 13 -28.5c0 -12.667 -4.33301 -22.834 -13 -30.501s-18.667 -11.5 -30 -11.5c-10.667 0 -20 3.83301 -28 11.5s-12 17.834 -12 30.501zM384 689.001
c0 12 4.16699 21.667 12.5 29s18.5 11 30.5 11c10.667 0 20.334 -3.83301 29.001 -11.5s13 -17.167 13 -28.5c0 -12.667 -4.33301 -22.834 -13 -30.501s-18.334 -11.5 -29.001 -11.5c-12 0 -22.167 3.83301 -30.5 11.5s-12.5 17.834 -12.5 30.501z" />
    <glyph glyph-name="divide" unicode="&#xf7;" horiz-adv-x="582" 
d="M250 566c0 10 4.00098 18.999 12.001 26.999s18 12 30 12c11.333 0 20.833 -4.16699 28.5 -12.5s11.5 -17.166 11.5 -26.499c0 -10.667 -3.83301 -20 -11.5 -28s-17.167 -12 -28.5 -12c-12.667 0 -22.834 4 -30.501 12s-11.5 17.333 -11.5 28zM250.001 153.999
c0 10.667 3.83301 19.834 11.5 27.501s17.834 11.5 30.501 11.5c11.333 0 20.833 -3.83301 28.5 -11.5s11.5 -16.834 11.5 -27.501s-3.83301 -20.167 -11.5 -28.5s-17.167 -12.5 -28.5 -12.5c-12.667 0 -22.834 4 -30.501 12s-11.5 17.667 -11.5 29zM65.001 330.999v58h453
v-58h-453z" />
    <glyph glyph-name="oslash" unicode="&#xf8;" horiz-adv-x="616" 
d="M34 261c0 79.333 25.333 144.5 76 195.5s116.667 76.5 198 76.5c55.333 0 105 -13 149 -39l62 76l45 -36l-61 -75c52.667 -51.333 79 -117.333 79 -198c0 -78.667 -25.5 -143.5 -76.5 -194.5s-116.833 -76.5 -197.5 -76.5c-56 0 -106 13 -150 39l-55 -68l-47 38l54 67
c-50.667 50.667 -76 115.667 -76 195zM513 261c0 58 -17.333 106.333 -52 145l-262 -326c32 -18.667 68.333 -28 109 -28c60 0 109.167 19.333 147.5 58s57.5 89 57.5 151zM103 261c0 -57.333 16.667 -104.667 50 -142l262 323c-33.333 19.333 -69 29 -107 29
c-59.333 0 -108.333 -19.5 -147 -58.5s-58 -89.5 -58 -151.5z" />
    <glyph glyph-name="ugrave" unicode="&#xf9;" horiz-adv-x="583" 
d="M518 523l-0.00292969 -523h-65v87c-19.333 -30 -44.833 -53.667 -76.5 -71s-67.167 -26 -106.5 -26c-71.333 0 -124.666 18.833 -159.999 56.5s-53 95.5 -53 173.5v303h65v-290c0 -120.667 51 -181 153 -181c38.667 0 73.834 11.5 105.501 34.5s55.834 54.5 72.501 94.5
v342h65zM312.997 615l-121 145l50 39l110 -154z" />
    <glyph glyph-name="uacute" unicode="&#xfa;" horiz-adv-x="583" 
d="M518 523l-0.00292969 -523h-65v87c-19.333 -30 -44.833 -53.667 -76.5 -71s-67.167 -26 -106.5 -26c-71.333 0 -124.666 18.833 -159.999 56.5s-53 95.5 -53 173.5v303h65v-290c0 -120.667 51 -181 153 -181c38.667 0 73.834 11.5 105.501 34.5s55.834 54.5 72.501 94.5
v342h65zM391.997 762l-118 -148l-42 30l110 155z" />
    <glyph glyph-name="ucircumflex" unicode="&#xfb;" horiz-adv-x="583" 
d="M518 523l-0.00292969 -523h-65v87c-19.333 -30 -44.833 -53.667 -76.5 -71s-67.167 -26 -106.5 -26c-71.333 0 -124.666 18.833 -159.999 56.5s-53 95.5 -53 173.5v303h65v-290c0 -120.667 51 -181 153 -181c38.667 0 73.834 11.5 105.501 34.5s55.834 54.5 72.501 94.5
v342h65zM292.997 781l143 -123l-36 -42l-109 97l-114 -94l-29 40l141 122h4z" />
    <glyph glyph-name="udieresis" unicode="&#xfc;" horiz-adv-x="583" 
d="M518 523l-0.00292969 -523h-65v87c-19.333 -30 -44.833 -53.667 -76.5 -71s-67.167 -26 -106.5 -26c-71.333 0 -124.666 18.833 -159.999 56.5s-53 95.5 -53 173.5v303h65v-290c0 -120.667 51 -181 153 -181c38.667 0 73.834 11.5 105.501 34.5s55.834 54.5 72.501 94.5
v342h65zM122.997 689c0 11.333 4 20.833 12 28.5s17.333 11.5 28 11.5c11.333 0 21.333 -3.83301 30 -11.5s13 -17.167 13 -28.5c0 -12.667 -4.33301 -22.834 -13 -30.501s-18.667 -11.5 -30 -11.5c-10.667 0 -20 3.83301 -28 11.5s-12 17.834 -12 30.501zM359.997 689
c0 12 4.16699 21.667 12.5 29s18.5 11 30.5 11c10.667 0 20.334 -3.83301 29.001 -11.5s13 -17.167 13 -28.5c0 -12.667 -4.33301 -22.834 -13 -30.501s-18.334 -11.5 -29.001 -11.5c-12 0 -22.167 3.83301 -30.5 11.5s-12.5 17.834 -12.5 30.501z" />
    <glyph glyph-name="yacute" unicode="&#xfd;" horiz-adv-x="535" 
d="M92 -203l18.001 63.001c12 -4 20.333 -6 25 -6c22.667 0 42.5 8.66699 59.5 26s35.167 49.666 54.5 96.999l14 34l-266 509h78l222 -427l169 427h72l-210 -518c-34 -84 -64.833 -140.333 -92.5 -169s-60.834 -43 -99.501 -43c-16 0 -30.667 2.33301 -44 7z
M378.001 762.001l-118 -148l-42 30l110 155z" />
    <glyph glyph-name="thorn" unicode="&#xfe;" horiz-adv-x="597" 
d="M66 -200l0.000976562 930.001h65v-287c38 60 99.667 90 185 90c75.333 0 135.166 -24.333 179.499 -73s66.5 -112 66.5 -190c0 -80.667 -24.167 -147.5 -72.5 -200.5s-110.5 -79.5 -186.5 -79.5c-35.333 0 -68.833 6.16699 -100.5 18.5s-55.5 29.166 -71.5 50.499v-259
h-65zM310.001 471.001c-43.333 0 -80.999 -12.333 -112.999 -37s-54 -53.667 -66 -87v-202c34 -62 90.667 -93 170 -93c55.333 0 101.166 20 137.499 60s54.5 91 54.5 153s-16.5 111.833 -49.5 149.5s-77.5 56.5 -133.5 56.5z" />
    <glyph glyph-name="ydieresis" unicode="&#xff;" horiz-adv-x="535" 
d="M92 -203l18.001 63.001c12 -4 20.333 -6 25 -6c22.667 0 42.5 8.66699 59.5 26s35.167 49.666 54.5 96.999l14 34l-266 509h78l222 -427l169 427h72l-210 -518c-34 -84 -64.833 -140.333 -92.5 -169s-60.834 -43 -99.501 -43c-16 0 -30.667 2.33301 -44 7z
M107.001 689.001c0 11.333 4 20.833 12 28.5s17.333 11.5 28 11.5c11.333 0 21.333 -3.83301 30 -11.5s13 -17.167 13 -28.5c0 -12.667 -4.33301 -22.834 -13 -30.501s-18.667 -11.5 -30 -11.5c-10.667 0 -20 3.83301 -28 11.5s-12 17.834 -12 30.501zM344.001 689.001
c0 12 4.16699 21.667 12.5 29s18.5 11 30.5 11c10.667 0 20.334 -3.83301 29.001 -11.5s13 -17.167 13 -28.5c0 -12.667 -4.33301 -22.834 -13 -30.501s-18.334 -11.5 -29.001 -11.5c-12 0 -22.167 3.83301 -30.5 11.5s-12.5 17.834 -12.5 30.501z" />
    <glyph glyph-name="Amacron" unicode="&#x100;" horiz-adv-x="678" 
d="M3 0l307 702h58l307 -702h-74l-85 192h-359l-82 -192h-72zM337 608l-151 -352h304zM190 795v58h297v-58h-297z" />
    <glyph glyph-name="amacron" unicode="&#x101;" horiz-adv-x="533" 
d="M96 410l-35 49.999c24 22 54.5 39.667 91.5 53s73.5 20 109.5 20c70 0 123.167 -18.167 159.5 -54.5s54.5 -88.166 54.5 -155.499v-323h-65v86c-42 -62 -107.333 -93 -196 -93c-56 0 -101.333 14.167 -136 42.5s-52 65.833 -52 112.5c0 105.333 84.333 158 253 158
c51.333 0 95 -5.33301 131 -16c0 58.667 -11.333 103.5 -34 134.5s-63.667 46.5 -123 46.5c-53.333 0 -106 -20.333 -158 -61zM233 52.999c44 0 81.666 12.334 112.999 37.001s53 51 65 79v62c-35.333 10.667 -76 16 -122 16c-63.333 0 -111.5 -7.16699 -144.5 -21.5
s-49.5 -38.833 -49.5 -73.5c0 -30.667 12.833 -54.834 38.5 -72.501s58.834 -26.5 99.501 -26.5zM136.999 647v59h261v-59h-261z" />
    <glyph glyph-name="Abreve" unicode="&#x102;" horiz-adv-x="678" 
d="M3 0l307 702h58l307 -702h-74l-85 192h-359l-82 -192h-72zM337 608l-151 -352h304zM164 868l33.999 32c35.333 -42 83 -63 143 -63c58.667 0 105.334 21 140.001 63l31 -29c-16.667 -26.667 -40.5 -49 -71.5 -67s-64.167 -27 -99.5 -27
c-75.333 0 -134.333 30.333 -177 91z" />
    <glyph glyph-name="abreve" unicode="&#x103;" horiz-adv-x="533" 
d="M96 410l-35 49.999c24 22 54.5 39.667 91.5 53s73.5 20 109.5 20c70 0 123.167 -18.167 159.5 -54.5s54.5 -88.166 54.5 -155.499v-323h-65v86c-42 -62 -107.333 -93 -196 -93c-56 0 -101.333 14.167 -136 42.5s-52 65.833 -52 112.5c0 105.333 84.333 158 253 158
c51.333 0 95 -5.33301 131 -16c0 58.667 -11.333 103.5 -34 134.5s-63.667 46.5 -123 46.5c-53.333 0 -106 -20.333 -158 -61zM233 52.999c44 0 81.666 12.334 112.999 37.001s53 51 65 79v62c-35.333 10.667 -76 16 -122 16c-63.333 0 -111.5 -7.16699 -144.5 -21.5
s-49.5 -38.833 -49.5 -73.5c0 -30.667 12.833 -54.834 38.5 -72.501s58.834 -26.5 99.501 -26.5zM107.999 733l29.001 31c11.333 -14 28.666 -27.333 51.999 -40s46.666 -19 69.999 -19c50.667 0 91.334 19.333 122.001 58l24 -30c-40.667 -60 -89.667 -90 -147 -90
c-33.333 0 -63.333 10 -90 30s-46.667 40 -60 60z" />
    <glyph glyph-name="Aogonek" unicode="&#x104;" horiz-adv-x="678" 
d="M651 -139l11.001 -46.001c-18.667 -10 -43.334 -15 -74.001 -15c-30 -1.33301 -56.5 5.66699 -79.5 21s-34.5 38.666 -34.5 69.999c0 29.333 11 54.833 33 76.5s51.333 36.834 88 45.501l-79 179h-359l-82 -192h-72l307 702h58l307 -702h-19
c-28.667 0.666992 -56.5 -8.66602 -83.5 -27.999s-40.5 -41.333 -40.5 -66c0 -36 21.667 -54 65 -54c19.333 0 37.333 3 54 9zM337.001 607.999l-151 -352h304z" />
    <glyph glyph-name="aogonek" unicode="&#x105;" horiz-adv-x="533" 
d="M465 -135l19.001 -47.0029c-20.667 -12 -44.667 -18 -72 -18c-28.667 0 -53.834 8.33301 -75.501 25s-32.5 41 -32.5 73c0 27.333 10.333 51 31 71s46 34.667 76 44v73c-42 -62 -107.333 -93 -196 -93c-56 0 -101.333 14.167 -136 42.5s-52 65.833 -52 112.5
c0 105.333 84.333 158 253 158c51.333 0 95 -5.33301 131 -16c0 58.667 -11.333 103.5 -34 134.5s-63.667 46.5 -123 46.5c-53.333 0 -106 -20.333 -158 -61l-35 50c24 22 54.5 39.667 91.5 53s73.5 20 109.5 20c70 0 123.167 -18.167 159.5 -54.5
s54.5 -88.166 54.5 -155.499v-323h-9c-21.333 -1.33301 -42.666 -10.666 -63.999 -27.999s-32 -38 -32 -62c0 -15.333 4.66699 -28.166 14 -38.499s20.666 -15.5 33.999 -15.5c18 0 33.333 3 46 9zM233.001 52.9971c44 0 81.666 12.334 112.999 37.001s53 51 65 79v62
c-35.333 10.667 -76 16 -122 16c-63.333 0 -111.5 -7.16699 -144.5 -21.5s-49.5 -38.833 -49.5 -73.5c0 -30.667 12.833 -54.834 38.5 -72.501s58.834 -26.5 99.501 -26.5z" />
    <glyph glyph-name="Cacute" unicode="&#x106;" horiz-adv-x="686" 
d="M624 154l39.999 -46c-25.333 -34.667 -62 -62.834 -110 -84.501s-99.333 -32.5 -154 -32.5c-110.667 0 -198.667 32.5 -264 97.5s-98 152.167 -98 261.5c0 102.667 32.167 188.167 96.5 256.5s149.5 102.5 255.5 102.5c58.667 0 111 -10.667 157 -32
s81.333 -47.666 106 -78.999l-43 -45c-31.333 30 -63.833 52.333 -97.5 67s-75.167 22 -124.5 22c-85.333 0 -152.833 -27 -202.5 -81s-74.5 -124.333 -74.5 -211c0 -88 26.833 -158.667 80.5 -212s124.167 -80 211.5 -80c90.667 0 164.334 32 221.001 96zM530.999 853
l-188 -91l-23 42l183 107z" />
    <glyph glyph-name="cacute" unicode="&#x107;" horiz-adv-x="528" 
d="M473 135l45.002 -35.999c-18 -34 -46.667 -60.667 -86 -80s-79.666 -29 -120.999 -29c-82.667 0 -149.5 24.667 -200.5 74s-76.5 115 -76.5 197c0 78 25.167 142.833 75.5 194.5s116.166 77.5 197.499 77.5c42 0 81.667 -9 119 -27s65 -42 83 -72l-51 -36
c-36.667 48.667 -87 73 -151 73c-58.667 0 -107.334 -19.833 -146.001 -59.5s-58 -89.834 -58 -150.501c0 -63.333 19.667 -114 59 -152s90.666 -57 153.999 -57c66 0 118.333 27.667 157 83zM415.002 762.001l-118 -148l-42 30l110 155z" />
    <glyph glyph-name="Ccircumflex" unicode="&#x108;" horiz-adv-x="686" 
d="M624 154l39.999 -46c-25.333 -34.667 -62 -62.834 -110 -84.501s-99.333 -32.5 -154 -32.5c-110.667 0 -198.667 32.5 -264 97.5s-98 152.167 -98 261.5c0 102.667 32.167 188.167 96.5 256.5s149.5 102.5 255.5 102.5c58.667 0 111 -10.667 157 -32
s81.333 -47.666 106 -78.999l-43 -45c-31.333 30 -63.833 52.333 -97.5 67s-75.167 22 -124.5 22c-85.333 0 -152.833 -27 -202.5 -81s-74.5 -124.333 -74.5 -211c0 -88 26.833 -158.667 80.5 -212s124.167 -80 211.5 -80c90.667 0 164.334 32 221.001 96zM377.999 905
l183 -103l-30 -43l-155 83l-153 -83l-23 43l174 103h4z" />
    <glyph glyph-name="ccircumflex" unicode="&#x109;" horiz-adv-x="528" 
d="M473 135l45.002 -35.999c-18 -34 -46.667 -60.667 -86 -80s-79.666 -29 -120.999 -29c-82.667 0 -149.5 24.667 -200.5 74s-76.5 115 -76.5 197c0 78 25.167 142.833 75.5 194.5s116.166 77.5 197.499 77.5c42 0 81.667 -9 119 -27s65 -42 83 -72l-51 -36
c-36.667 48.667 -87 73 -151 73c-58.667 0 -107.334 -19.833 -146.001 -59.5s-58 -89.834 -58 -150.501c0 -63.333 19.667 -114 59 -152s90.666 -57 153.999 -57c66 0 118.333 27.667 157 83zM295.002 781.001l143 -123l-36 -42l-109 97l-114 -94l-29 40l141 122h4z" />
    <glyph glyph-name="Cdotaccent" unicode="&#x10a;" horiz-adv-x="686" 
d="M624 154l39.999 -46c-25.333 -34.667 -62 -62.834 -110 -84.501s-99.333 -32.5 -154 -32.5c-110.667 0 -198.667 32.5 -264 97.5s-98 152.167 -98 261.5c0 102.667 32.167 188.167 96.5 256.5s149.5 102.5 255.5 102.5c58.667 0 111 -10.667 157 -32
s81.333 -47.666 106 -78.999l-43 -45c-31.333 30 -63.833 52.333 -97.5 67s-75.167 22 -124.5 22c-85.333 0 -152.833 -27 -202.5 -81s-74.5 -124.333 -74.5 -211c0 -88 26.833 -158.667 80.5 -212s124.167 -80 211.5 -80c90.667 0 164.334 32 221.001 96zM333.999 826
c0 12 4.33301 22 13 30s19 12 31 12s22.333 -4 31 -12s13 -18 13 -30c0 -12.667 -4.33301 -23.334 -13 -32.001s-19 -13 -31 -13s-22.333 4.33301 -31 13s-13 19.334 -13 32.001z" />
    <glyph glyph-name="cdotaccent" unicode="&#x10b;" horiz-adv-x="528" 
d="M473 135l45.002 -35.999c-18 -34 -46.667 -60.667 -86 -80s-79.666 -29 -120.999 -29c-82.667 0 -149.5 24.667 -200.5 74s-76.5 115 -76.5 197c0 78 25.167 142.833 75.5 194.5s116.166 77.5 197.499 77.5c42 0 81.667 -9 119 -27s65 -42 83 -72l-51 -36
c-36.667 48.667 -87 73 -151 73c-58.667 0 -107.334 -19.833 -146.001 -59.5s-58 -89.834 -58 -150.501c0 -63.333 19.667 -114 59 -152s90.666 -57 153.999 -57c66 0 118.333 27.667 157 83zM250.002 690.001c0 11.333 4.50098 21 13.501 29s19.5 12 31.5 12
c11.333 0 21.333 -4 30 -12s13 -17.667 13 -29c0 -13.333 -4.33301 -24.166 -13 -32.499s-18.667 -12.5 -30 -12.5c-12.667 0 -23.334 4.16699 -32.001 12.5s-13 19.166 -13 32.499z" />
    <glyph glyph-name="Ccaron" unicode="&#x10c;" horiz-adv-x="686" 
d="M624 154l39.999 -46c-25.333 -34.667 -62 -62.834 -110 -84.501s-99.333 -32.5 -154 -32.5c-110.667 0 -198.667 32.5 -264 97.5s-98 152.167 -98 261.5c0 102.667 32.167 188.167 96.5 256.5s149.5 102.5 255.5 102.5c58.667 0 111 -10.667 157 -32
s81.333 -47.666 106 -78.999l-43 -45c-31.333 30 -63.833 52.333 -97.5 67s-75.167 22 -124.5 22c-85.333 0 -152.833 -27 -202.5 -81s-74.5 -124.333 -74.5 -211c0 -88 26.833 -158.667 80.5 -212s124.167 -80 211.5 -80c90.667 0 164.334 32 221.001 96zM374.999 760
l-182 102l29 43l155 -85l153 85l24 -42l-175 -103h-4z" />
    <glyph glyph-name="ccaron" unicode="&#x10d;" horiz-adv-x="528" 
d="M473 135l45.002 -35.999c-18 -34 -46.667 -60.667 -86 -80s-79.666 -29 -120.999 -29c-82.667 0 -149.5 24.667 -200.5 74s-76.5 115 -76.5 197c0 78 25.167 142.833 75.5 194.5s116.166 77.5 197.499 77.5c42 0 81.667 -9 119 -27s65 -42 83 -72l-51 -36
c-36.667 48.667 -87 73 -151 73c-58.667 0 -107.334 -19.833 -146.001 -59.5s-58 -89.834 -58 -150.501c0 -63.333 19.667 -114 59 -152s90.666 -57 153.999 -57c66 0 118.333 27.667 157 83zM302.002 625.001l-143 124l36 41l108 -96l115 94l29 -40l-141 -123h-4z" />
    <glyph glyph-name="Dcaron" unicode="&#x10e;" horiz-adv-x="710" 
d="M77 0l0.000976562 700h214c67.333 0 126.166 -9 176.499 -27s90 -43 119 -75s50.5 -67.833 64.5 -107.5s21 -83.167 21 -130.5c0 -106 -33 -192.5 -99 -259.5s-163 -100.5 -291 -100.5h-205zM289.001 634l-141 -0.000976562v-568h138
c105.333 0 183.833 26.833 235.5 80.5s77.5 124.834 77.5 213.501c0 83.333 -24.833 149.833 -74.5 199.5s-128.167 74.5 -235.5 74.5zM297.001 759.999l-182 102l29 43l155 -85l153 85l24 -42l-175 -103h-4z" />
    <glyph glyph-name="dcaron" unicode="&#x10f;" horiz-adv-x="606" 
d="M465 0v68.999c-11.333 -19.333 -32.166 -37.166 -62.499 -53.499s-66.5 -24.5 -108.5 -24.5c-78 0 -140.833 24.167 -188.5 72.5s-71.5 113.5 -71.5 195.5c0 80 25.667 145.667 77 197s114.666 77 189.999 77c71.333 0 126 -19.667 164 -59v256h65v-730h-65zM300 52.999
c40.667 0 75.167 11.833 103.5 35.5s48.833 49.167 61.5 76.5v223c-36 55.333 -90 83 -162 83c-54.667 0 -101.667 -19.5 -141 -58.5s-59 -89.5 -59 -151.5c0 -63.333 18.333 -113.833 55 -151.5s84 -56.5 142 -56.5zM611 729.999h66.001c7.33301 -16 11 -36.667 11 -62
c0 -29.333 -8.66699 -56.833 -26 -82.5s-37 -45.5 -59 -59.5l-29 28c15.333 11.333 28.166 27.333 38.499 48s15.5 39.667 15.5 57c0 32 -5.66699 55.667 -17 71z" />
    <glyph glyph-name="Dcroat" unicode="&#x110;" horiz-adv-x="765" 
d="M8 317v60h125v323h213c67.333 0 126.333 -9 177 -27s90.5 -43 119.5 -75s50.333 -67.833 64 -107.5s20.5 -83.167 20.5 -130.5c0 -106 -33 -192.5 -99 -259.5s-163 -100.5 -291 -100.5h-204v317h-125zM344 634l-140 -0.000976562v-257h198v-60h-198v-251h137
c105.333 0 183.833 26.833 235.5 80.5s77.5 124.834 77.5 213.501c0 83.333 -24.833 149.833 -74.5 199.5s-128.167 74.5 -235.5 74.5z" />
    <glyph glyph-name="dcroat" unicode="&#x111;" horiz-adv-x="596" 
d="M355 591v60.999h110v78h65v-78h65v-61h-65v-591h-65v69c-11.333 -19.333 -32.166 -37.166 -62.499 -53.499s-66.5 -24.5 -108.5 -24.5c-78 0 -140.833 24.167 -188.5 72.5s-71.5 113.5 -71.5 195.5c0 80 25.667 145.667 77 197s114.666 77 189.999 77
c71.333 0 126 -19.667 164 -59v117h-110zM300 52.999c40.667 0 75.167 11.833 103.5 35.5s48.833 49.167 61.5 76.5v223c-36 55.333 -90 83 -162 83c-54.667 0 -101.667 -19.5 -141 -58.5s-59 -89.5 -59 -151.5c0 -63.333 18.333 -113.833 55 -151.5s84 -56.5 142 -56.5z
" />
    <glyph glyph-name="Emacron" unicode="&#x112;" horiz-adv-x="638" 
d="M77 0v700h499v-66h-428v-245h400v-66h-400v-257h438v-66h-509zM178 795v58h297v-58h-297z" />
    <glyph glyph-name="emacron" unicode="&#x113;" horiz-adv-x="570" 
d="M473 138l44.001 -38.999c-46.667 -72.667 -115.667 -109 -207 -109c-82.667 0 -149.334 24.667 -200.001 74s-76 115 -76 197c0 79.333 23.167 144.5 69.5 195.5s110.833 76.5 193.5 76.5c69.333 0 126.5 -21.667 171.5 -65s67.5 -100.333 67.5 -171
c0 -13.333 -1.33301 -32 -4 -56h-429c0.666992 -58.667 20.5 -104.834 59.5 -138.501s89.167 -50.5 150.5 -50.5c32 0 62.667 8.16699 92 24.5s52 36.833 68 61.5zM292.001 472.001c-54 0 -97.667 -15.8311 -131 -47.498s-53 -72.834 -59 -123.501h364
c-1.33301 53.333 -17.5 95.166 -48.5 125.499s-72.833 45.5 -125.5 45.5zM163.001 647.003v59h261v-59h-261z" />
    <glyph glyph-name="Edotaccent" unicode="&#x116;" horiz-adv-x="638" 
d="M77 0v700h499v-66h-428v-245h400v-66h-400v-257h438v-66h-509zM284 826c0 12 4.33301 22 13 30s19 12 31 12s22.333 -4 31 -12s13 -18 13 -30c0 -12.667 -4.33301 -23.334 -13 -32.001s-19 -13 -31 -13s-22.333 4.33301 -31 13s-13 19.334 -13 32.001z" />
    <glyph glyph-name="edotaccent" unicode="&#x117;" horiz-adv-x="570" 
d="M473 138l44.001 -38.999c-46.667 -72.667 -115.667 -109 -207 -109c-82.667 0 -149.334 24.667 -200.001 74s-76 115 -76 197c0 79.333 23.167 144.5 69.5 195.5s110.833 76.5 193.5 76.5c69.333 0 126.5 -21.667 171.5 -65s67.5 -100.333 67.5 -171
c0 -13.333 -1.33301 -32 -4 -56h-429c0.666992 -58.667 20.5 -104.834 59.5 -138.501s89.167 -50.5 150.5 -50.5c32 0 62.667 8.16699 92 24.5s52 36.833 68 61.5zM292.001 472.001c-54 0 -97.667 -15.8311 -131 -47.498s-53 -72.834 -59 -123.501h364
c-1.33301 53.333 -17.5 95.166 -48.5 125.499s-72.833 45.5 -125.5 45.5zM250.001 690.003c0 11.333 4.50098 21 13.501 29s19.5 12 31.5 12c11.333 0 21.333 -4 30 -12s13 -17.667 13 -29c0 -13.333 -4.33301 -24.166 -13 -32.499s-18.667 -12.5 -30 -12.5
c-12.667 0 -23.334 4.16699 -32.001 12.5s-13 19.166 -13 32.499z" />
    <glyph glyph-name="Eogonek" unicode="&#x118;" horiz-adv-x="638" 
d="M77 0l0.000976562 700.001h499v-66h-428v-245h400v-66h-400v-257h438v-66h-13c-28 -1.33301 -54.333 -11.333 -79 -30s-37 -40 -37 -64c0 -36 21.667 -54 65 -54c18.667 0 36.667 3 54 9l11 -46c-18.667 -10 -43.334 -15 -74.001 -15
c-30 -1.33301 -56.5 5.66699 -79.5 21s-34.5 38.666 -34.5 69.999c0 48.667 27.333 85 82 109h-404z" />
    <glyph glyph-name="eogonek" unicode="&#x119;" horiz-adv-x="570" 
d="M473 138l44.002 -38.999c-25.333 -39.333 -58.333 -68.333 -99 -87c-54 -38.667 -81 -72.667 -81 -102c0 -15.333 4.66699 -28.166 14 -38.499s20.666 -15.5 33.999 -15.5c18 0 33.333 3 46 9l19 -47c-20.667 -12 -44.667 -18 -72 -18c-28 0 -53 7.66699 -75 23
s-33 36.666 -33 63.999c0 38 23.333 73 70 105c-13.333 -1.33301 -23.333 -2 -30 -2c-82.667 0 -149.334 24.667 -200.001 74s-76 115 -76 197c0 79.333 23.167 144.5 69.5 195.5s110.833 76.5 193.5 76.5c69.333 0 126.5 -21.667 171.5 -65s67.5 -100.333 67.5 -171
c0 -13.333 -1.33301 -32 -4 -56h-429c0.666992 -58.667 20.5 -104.834 59.5 -138.501s89.167 -50.5 150.5 -50.5c32 0 62.667 8.16699 92 24.5s52 36.833 68 61.5zM292.002 472.001c-54 0 -97.667 -15.8311 -131 -47.498s-53 -72.834 -59 -123.501h364
c-1.33301 53.333 -17.5 95.166 -48.5 125.499s-72.833 45.5 -125.5 45.5z" />
    <glyph glyph-name="Ecaron" unicode="&#x11a;" horiz-adv-x="638" 
d="M77 0v700h499v-66h-428v-245h400v-66h-400v-257h438v-66h-509zM335 760l-182 102l29 43l155 -85l153 85l24 -42l-175 -103h-4z" />
    <glyph glyph-name="ecaron" unicode="&#x11b;" horiz-adv-x="570" 
d="M473 138l44.001 -38.999c-46.667 -72.667 -115.667 -109 -207 -109c-82.667 0 -149.334 24.667 -200.001 74s-76 115 -76 197c0 79.333 23.167 144.5 69.5 195.5s110.833 76.5 193.5 76.5c69.333 0 126.5 -21.667 171.5 -65s67.5 -100.333 67.5 -171
c0 -13.333 -1.33301 -32 -4 -56h-429c0.666992 -58.667 20.5 -104.834 59.5 -138.501s89.167 -50.5 150.5 -50.5c32 0 62.667 8.16699 92 24.5s52 36.833 68 61.5zM292.001 472.001c-54 0 -97.667 -15.8311 -131 -47.498s-53 -72.834 -59 -123.501h364
c-1.33301 53.333 -17.5 95.166 -48.5 125.499s-72.833 45.5 -125.5 45.5zM284.001 625.003l-143 124l36 41l108 -96l115 94l29 -40l-141 -123h-4z" />
    <glyph glyph-name="Gcircumflex" unicode="&#x11c;" horiz-adv-x="707" 
d="M403 281l-0.000976562 65.999h266v-254c-29.333 -31.333 -68.666 -56.166 -117.999 -74.499s-99 -27.5 -149 -27.5c-106 0 -193.167 32.833 -261.5 98.5s-102.5 152.5 -102.5 260.5c0 100.667 34.333 185.667 103 255s153 104 253 104
c112.667 0 198.667 -33.667 258 -101l-42 -47c-50 54.667 -120 82 -210 82c-85.333 0 -154.833 -27.333 -208.5 -82s-80.5 -125 -80.5 -211c0 -88.667 27.333 -159.667 82 -213s125 -80 211 -80c78 0 144 22.667 198 68v156h-199zM377.999 904.999l183 -103l-30 -43l-155 83
l-153 -83l-23 43l174 103h4z" />
    <glyph glyph-name="gcircumflex" unicode="&#x11d;" horiz-adv-x="595" 
d="M530 520l0.000976562 -481.999c0 -84 -21.5 -146.167 -64.5 -186.5s-100.5 -60.5 -172.5 -60.5c-51.333 0 -97.333 11.167 -138 33.5s-67.667 51.5 -81 87.5l58 27c12 -24 32 -44.333 60 -61s63 -25 105 -25c54 0 95.5 15.5 124.5 46.5s43.5 73.833 43.5 128.5v37
c-19.333 -24.667 -41.5 -43.334 -66.5 -56.001s-59.5 -19 -103.5 -19c-78.667 0 -141.834 24.333 -189.501 73s-71.5 114.667 -71.5 198c0 82 24.833 147.667 74.5 197s112.5 74 188.5 74c38.667 0 73 -6.5 103 -19.5s51.667 -28.167 65 -45.5v53h65zM305.001 52.001
c39.333 0 73.166 10.8311 101.499 32.498s47.833 47.834 58.5 78.501v221c-14 25.333 -35 46 -63 62s-60.667 24 -98 24c-56.667 0 -104.167 -18.667 -142.5 -56s-57.5 -89 -57.5 -155c0 -63.333 18.333 -113.666 55 -150.999s85.334 -56 146.001 -56zM301.001 780.999
l143 -123l-36 -42l-109 97l-114 -94l-29 40l141 122h4z" />
    <glyph glyph-name="Gbreve" unicode="&#x11e;" horiz-adv-x="707" 
d="M403 281l-0.000976562 65.999h266v-254c-29.333 -31.333 -68.666 -56.166 -117.999 -74.499s-99 -27.5 -149 -27.5c-106 0 -193.167 32.833 -261.5 98.5s-102.5 152.5 -102.5 260.5c0 100.667 34.333 185.667 103 255s153 104 253 104
c112.667 0 198.667 -33.667 258 -101l-42 -47c-50 54.667 -120 82 -210 82c-85.333 0 -154.833 -27.333 -208.5 -82s-80.5 -125 -80.5 -211c0 -88.667 27.333 -159.667 82 -213s125 -80 211 -80c78 0 144 22.667 198 68v156h-199zM206.999 867.999l33.999 32
c35.333 -42 83 -63 143 -63c58.667 0 105.334 21 140.001 63l31 -29c-16.667 -26.667 -40.5 -49 -71.5 -67s-64.167 -27 -99.5 -27c-75.333 0 -134.333 30.333 -177 91z" />
    <glyph glyph-name="gbreve" unicode="&#x11f;" horiz-adv-x="595" 
d="M530 520l0.000976562 -481.999c0 -84 -21.5 -146.167 -64.5 -186.5s-100.5 -60.5 -172.5 -60.5c-51.333 0 -97.333 11.167 -138 33.5s-67.667 51.5 -81 87.5l58 27c12 -24 32 -44.333 60 -61s63 -25 105 -25c54 0 95.5 15.5 124.5 46.5s43.5 73.833 43.5 128.5v37
c-19.333 -24.667 -41.5 -43.334 -66.5 -56.001s-59.5 -19 -103.5 -19c-78.667 0 -141.834 24.333 -189.501 73s-71.5 114.667 -71.5 198c0 82 24.833 147.667 74.5 197s112.5 74 188.5 74c38.667 0 73 -6.5 103 -19.5s51.667 -28.167 65 -45.5v53h65zM305.001 52.001
c39.333 0 73.166 10.8311 101.499 32.498s47.833 47.834 58.5 78.501v221c-14 25.333 -35 46 -63 62s-60.667 24 -98 24c-56.667 0 -104.167 -18.667 -142.5 -56s-57.5 -89 -57.5 -155c0 -63.333 18.333 -113.666 55 -150.999s85.334 -56 146.001 -56zM150.001 732.999
l29.001 31c11.333 -14 28.666 -27.333 51.999 -40s46.666 -19 69.999 -19c50.667 0 91.334 19.333 122.001 58l24 -30c-40.667 -60 -89.667 -90 -147 -90c-33.333 0 -63.333 10 -90 30s-46.667 40 -60 60z" />
    <glyph glyph-name="Gdotaccent" unicode="&#x120;" horiz-adv-x="707" 
d="M403 281l-0.000976562 65.999h266v-254c-29.333 -31.333 -68.666 -56.166 -117.999 -74.499s-99 -27.5 -149 -27.5c-106 0 -193.167 32.833 -261.5 98.5s-102.5 152.5 -102.5 260.5c0 100.667 34.333 185.667 103 255s153 104 253 104
c112.667 0 198.667 -33.667 258 -101l-42 -47c-50 54.667 -120 82 -210 82c-85.333 0 -154.833 -27.333 -208.5 -82s-80.5 -125 -80.5 -211c0 -88.667 27.333 -159.667 82 -213s125 -80 211 -80c78 0 144 22.667 198 68v156h-199zM341.999 825.999c0 12 4.33301 22 13 30
s19 12 31 12s22.333 -4 31 -12s13 -18 13 -30c0 -12.667 -4.33301 -23.334 -13 -32.001s-19 -13 -31 -13s-22.333 4.33301 -31 13s-13 19.334 -13 32.001z" />
    <glyph glyph-name="gdotaccent" unicode="&#x121;" horiz-adv-x="595" 
d="M530 520l0.000976562 -481.999c0 -84 -21.5 -146.167 -64.5 -186.5s-100.5 -60.5 -172.5 -60.5c-51.333 0 -97.333 11.167 -138 33.5s-67.667 51.5 -81 87.5l58 27c12 -24 32 -44.333 60 -61s63 -25 105 -25c54 0 95.5 15.5 124.5 46.5s43.5 73.833 43.5 128.5v37
c-19.333 -24.667 -41.5 -43.334 -66.5 -56.001s-59.5 -19 -103.5 -19c-78.667 0 -141.834 24.333 -189.501 73s-71.5 114.667 -71.5 198c0 82 24.833 147.667 74.5 197s112.5 74 188.5 74c38.667 0 73 -6.5 103 -19.5s51.667 -28.167 65 -45.5v53h65zM305.001 52.001
c39.333 0 73.166 10.8311 101.499 32.498s47.833 47.834 58.5 78.501v221c-14 25.333 -35 46 -63 62s-60.667 24 -98 24c-56.667 0 -104.167 -18.667 -142.5 -56s-57.5 -89 -57.5 -155c0 -63.333 18.333 -113.666 55 -150.999s85.334 -56 146.001 -56zM264.001 689.999
c0 11.333 4.50098 21 13.501 29s19.5 12 31.5 12c11.333 0 21.333 -4 30 -12s13 -17.667 13 -29c0 -13.333 -4.33301 -24.166 -13 -32.499s-18.667 -12.5 -30 -12.5c-12.667 0 -23.334 4.16699 -32.001 12.5s-13 19.166 -13 32.499z" />
    <glyph glyph-name="Gcommaaccent" unicode="&#x122;" horiz-adv-x="707" 
d="M403 281l-0.000976562 65.999h266v-254c-29.333 -31.333 -68.666 -56.166 -117.999 -74.499s-99 -27.5 -149 -27.5c-106 0 -193.167 32.833 -261.5 98.5s-102.5 152.5 -102.5 260.5c0 100.667 34.333 185.667 103 255s153 104 253 104
c112.667 0 198.667 -33.667 258 -101l-42 -47c-50 54.667 -120 82 -210 82c-85.333 0 -154.833 -27.333 -208.5 -82s-80.5 -125 -80.5 -211c0 -88.667 27.333 -159.667 82 -213s125 -80 211 -80c78 0 144 22.667 198 68v156h-199zM373.999 -86.001l54 37
c23.333 -22 35 -47 35 -75s-7.66699 -53.333 -23 -76s-32.333 -39.667 -51 -51l-30 27c27.333 26 41 53.667 41 83c0 20.667 -8.66699 39 -26 55z" />
    <glyph glyph-name="gcommaaccent" unicode="&#x123;" horiz-adv-x="595" 
d="M342 635l-54 -36c-23.333 22 -35 47 -35 75s7.66699 53.333 23 76s32.333 39.667 51 51l30 -28c-27.333 -24.667 -41 -52 -41 -82c0 -20 8.66699 -38.667 26 -56zM530 520l0.000976562 -481.999c0 -83.333 -21 -145.333 -63 -186s-96.667 -61 -164 -61
c-56 0 -104.833 11 -146.5 33s-69.167 51.333 -82.5 88l58 27c12 -24 32.167 -44.333 60.5 -61s64.166 -25 107.499 -25c52.667 0 93.334 15.5 122.001 46.5s43 73.833 43 128.5v37c-19.333 -24.667 -41.5 -43.334 -66.5 -56.001s-59.5 -19 -103.5 -19
c-78.667 0 -141.834 24.333 -189.501 73s-71.5 114.667 -71.5 198c0 82 24.833 147.667 74.5 197s112.5 74 188.5 74c38.667 0 73 -6.5 103 -19.5s51.667 -28.167 65 -45.5v53h65zM305.001 52.001c39.333 0 73.166 10.8311 101.499 32.498s47.833 47.834 58.5 78.501v221
c-14 25.333 -35 46 -63 62s-60.667 24 -98 24c-56.667 0 -104.167 -18.667 -142.5 -56s-57.5 -89 -57.5 -155c0 -63.333 18.333 -113.666 55 -150.999s85.334 -56 146.001 -56z" />
    <glyph glyph-name="Hcircumflex" unicode="&#x124;" horiz-adv-x="746" 
d="M598 0v323h-450v-323h-71v700h71v-311h450v311h71v-700h-71zM370 905l183 -103l-30 -43l-155 83l-153 -83l-23 43l174 103h4z" />
    <glyph glyph-name="hcircumflex" unicode="&#x125;" horiz-adv-x="591" 
d="M66 0v730h65v-283c42 56.667 103 85 183 85c146 0 219 -78.667 219 -236v-296h-65v288c0 121.333 -56 182 -168 182c-40 0 -74.5 -11.5 -103.5 -34.5s-50.833 -52.5 -65.5 -88.5v-347h-65zM106 879l183 -103l-30 -43l-155 83l-153 -83l-23 43l174 103h4z" />
    <glyph glyph-name="Hbar" unicode="&#x126;" horiz-adv-x="746" 
d="M0 519v59h77v122h71v-122h450v122h71v-122h77v-59h-77v-519h-71v323h-450v-323h-71v519h-77zM148 389h450v130h-450v-130z" />
    <glyph glyph-name="hbar" unicode="&#x127;" horiz-adv-x="591" 
d="M0 591v61h66v78h65v-78h109v-61h-109v-144c42 56.667 103 85 183 85c146 0 219 -78.667 219 -236v-296h-65v288c0 121.333 -56 182 -168 182c-40 0 -74.5 -11.5 -103.5 -34.5s-50.833 -52.5 -65.5 -88.5v-347h-65v591h-66z" />
    <glyph glyph-name="Imacron" unicode="&#x12a;" horiz-adv-x="245" 
d="M87 0v700h71v-700h-71zM-27 795v58h297v-58h-297z" />
    <glyph glyph-name="imacron" unicode="&#x12b;" horiz-adv-x="238" 
d="M86 0v520h65v-520h-65zM-11 647v59h261v-59h-261z" />
    <glyph glyph-name="Iogonek" unicode="&#x12e;" horiz-adv-x="245" 
d="M149 -139l11.001 -46c-18.667 -10 -43.334 -15 -74.001 -15c-30 -1.33301 -56.5 5.66699 -79.5 21s-34.5 38.666 -34.5 69.999c0 28.667 10.333 53.5 31 74.5s48.667 36.167 84 45.5v689h71v-700h-4c-28.667 0.666992 -56.5 -8.66602 -83.5 -27.999
s-40.5 -41.333 -40.5 -66c0 -36 21.667 -54 65 -54c19.333 0 37.333 3 54 9z" />
    <glyph glyph-name="iogonek" unicode="&#x12f;" horiz-adv-x="238" 
d="M143 -135l19.001 -47.002c-20.667 -12 -44.667 -18 -72 -18c-28.667 0 -53.834 8.33301 -75.501 25s-32.5 41 -32.5 73c0 26.667 10 50 30 70s44.667 34.667 74 44v508h65v-520h-6c-21.333 -1.33301 -42.666 -10.666 -63.999 -27.999s-32 -38 -32 -62
c0 -15.333 4.66699 -28.166 14 -38.499s20.666 -15.5 33.999 -15.5c18 0 33.333 3 46 9zM75.001 685.998c0 12 4.50098 22 13.501 30s19.5 12 31.5 12c11.333 0 21.333 -4 30 -12s13 -18 13 -30c0 -12.667 -4.33301 -23.334 -13 -32.001s-18.667 -13 -30 -13
c-12.667 0 -23.334 4.33301 -32.001 13s-13 19.334 -13 32.001z" />
    <glyph glyph-name="Idotaccent" unicode="&#x130;" horiz-adv-x="245" 
d="M87 0v700h71v-700h-71zM78 826c0 12 4.33301 22 13 30s19 12 31 12s22.333 -4 31 -12s13 -18 13 -30c0 -12.667 -4.33301 -23.334 -13 -32.001s-19 -13 -31 -13s-22.333 4.33301 -31 13s-13 19.334 -13 32.001z" />
    <glyph glyph-name="dotlessi" unicode="&#x131;" horiz-adv-x="238" 
d="M86 0v520h65v-520h-65z" />
    <glyph glyph-name="Jcircumflex" unicode="&#x134;" horiz-adv-x="485" 
d="M409 700l0.000976562 -492c0 -69.333 -18.833 -122.833 -56.5 -160.5s-87.834 -56.5 -150.501 -56.5c-50 0 -92.333 12.333 -127 37s-60.334 54 -77.001 88l54 40c14.667 -28 34.834 -51.667 60.501 -71s54.167 -29 85.5 -29c45.333 1.33301 80 14.5 104 39.5
s36 66.5 36 124.5v480h71zM363.001 905l183 -103l-30 -43l-155 83l-153 -83l-23 43l174 103h4z" />
    <glyph glyph-name="jcircumflex" unicode="&#x135;" horiz-adv-x="240" 
d="M155 520v-524.999c0 -136 -51.667 -204 -155 -204c-30.667 0 -58 6.33301 -82 19s-41.667 29.667 -53 51l52 34c16 -18.667 30 -30.334 42 -35.001c10.667 -4.66699 23.667 -7 39 -7c30 0 52.833 12.667 68.5 38s23.5 61 23.5 107v522h65zM121 781.001l143 -123l-36 -42
l-109 97l-114 -94l-29 40l141 122h4z" />
    <glyph glyph-name="Kcommaaccent" unicode="&#x136;" horiz-adv-x="650" 
d="M77 0v700h71v-358l381 358h93l-339 -319l365 -381h-97l-319 334l-84 -77v-257h-71zM277 -86l54 37c23.333 -22 35 -47 35 -75s-7.66699 -53.333 -23 -76s-32.333 -39.667 -51 -51l-30 27c27.333 26 41 53.667 41 83c0 20.667 -8.66699 39 -26 55z" />
    <glyph glyph-name="kcommaaccent" unicode="&#x137;" horiz-adv-x="521" 
d="M66 0v730h65v-459l280 249h89l-259 -232l279 -288h-87l-244 246l-58 -47v-199h-65zM212 -86l54 37c23.333 -23.333 35 -48.333 35 -75c0 -28 -7.66699 -53.333 -23 -76s-32.333 -39.667 -51 -51l-30 27c27.333 26 41 53.667 41 83c0 20.667 -8.66699 39 -26 55z" />
    <glyph glyph-name="Lacute" unicode="&#x139;" horiz-adv-x="584" 
d="M77 0v700h71v-634h426v-66h-497zM443 853l-188 -91l-23 42l183 107z" />
    <glyph glyph-name="lacute" unicode="&#x13a;" horiz-adv-x="197" 
d="M66 0v730h65v-730h-65zM274 853l-188 -91l-23 42l183 107z" />
    <glyph glyph-name="Lcommaaccent" unicode="&#x13b;" horiz-adv-x="584" 
d="M77 0v700h71v-634h426v-66h-497zM279 -86l54 37c23.333 -22 35 -47 35 -75s-7.66699 -53.333 -23 -76s-32.333 -39.667 -51 -51l-30 27c27.333 26 41 53.667 41 83c0 20.667 -8.66699 39 -26 55z" />
    <glyph glyph-name="lcommaaccent" unicode="&#x13c;" horiz-adv-x="197" 
d="M66 0v730h65v-730h-65zM62 -86l54 37c23.333 -23.333 35 -48.333 35 -75c0 -28 -7.66699 -53.333 -23 -76s-32.333 -39.667 -51 -51l-30 27c27.333 26 41 53.667 41 83c0 20.667 -8.66699 39 -26 55z" />
    <glyph glyph-name="Lcaron" unicode="&#x13d;" horiz-adv-x="584" 
d="M77 0v700h71v-634h426v-66h-497zM389 700h66.001c7.33301 -16 11 -36.667 11 -62c0 -29.333 -8.66699 -56.833 -26 -82.5s-37 -45.5 -59 -59.5l-29 28c15.333 11.333 28.166 27.333 38.499 48s15.5 39.667 15.5 57c0 32 -5.66699 55.667 -17 71z" />
    <glyph glyph-name="lcaron" unicode="&#x13e;" horiz-adv-x="213" 
d="M66 0v730h65v-730h-65zM209 730h66.001c7.33301 -16 11 -36.667 11 -62c0 -29.333 -8.66699 -56.833 -26 -82.5s-37 -45.5 -59 -59.5l-29 28c15.333 11.333 28.166 27.333 38.499 48s15.5 39.667 15.5 57c0 32 -5.66699 55.667 -17 71z" />
    <glyph glyph-name="Ldot" unicode="&#x13f;" horiz-adv-x="584" 
d="M77 0v700h71v-634h426v-66h-497zM356 375c0 10.667 4.5 20.334 13.5 29.001s19.833 13 32.5 13c12 0 22.333 -4.33301 31 -13s13 -18.334 13 -29.001c0 -12 -4.33301 -22.333 -13 -31s-19 -13 -31 -13c-13.333 0 -24.333 4.33301 -33 13s-13 19 -13 31z" />
    <glyph glyph-name="ldot" unicode="&#x140;" horiz-adv-x="269" 
d="M66 0v730h65v-730h-65zM193 362c0 10.667 4.5 20.334 13.5 29.001s19.833 13 32.5 13c12 0 22.333 -4.33301 31 -13s13 -18.334 13 -29.001c0 -12 -4.33301 -22.333 -13 -31s-19 -13 -31 -13c-13.333 0 -24.333 4.33301 -33 13s-13 19 -13 31z" />
    <glyph glyph-name="Lslash" unicode="&#x141;" horiz-adv-x="590" 
d="M0 155v74l84 62v409h71v-357l209 155v-74l-209 -155v-203h426v-66h-497v217z" />
    <glyph glyph-name="lslash" unicode="&#x142;" horiz-adv-x="275" 
d="M0 206v74l102 75v375h65v-327l108 80v-74l-108 -80v-329h-65v281z" />
    <glyph glyph-name="Nacute" unicode="&#x143;" horiz-adv-x="736" 
d="M658 0h-56l-457 572v-572h-68v700h56l457 -574v574h68v-700zM538 853l-188 -91l-23 42l183 107z" />
    <glyph glyph-name="nacute" unicode="&#x144;" horiz-adv-x="591" 
d="M66 0l-0.000976562 520h65v-72c42 56 105 84 189 84c142.667 0 214 -78.333 214 -235v-297h-65v287c0 122 -56.333 183 -169 183c-34.667 0 -67.667 -10.833 -99 -32.5s-54.666 -49.5 -69.999 -83.5v-354h-65zM412.999 762l-118 -148l-42 30l110 155z" />
    <glyph glyph-name="Ncommaaccent" unicode="&#x145;" horiz-adv-x="736" 
d="M658 0h-56l-457 572v-572h-68v700h56l457 -574v574h68v-700zM337 -86l54 37c23.333 -22 35 -47 35 -75s-7.66699 -53.333 -23 -76s-32.333 -39.667 -51 -51l-30 27c27.333 26 41 53.667 41 83c0 20.667 -8.66699 39 -26 55z" />
    <glyph glyph-name="ncommaaccent" unicode="&#x146;" horiz-adv-x="591" 
d="M66 0l-0.000976562 520h65v-72c42 56 105 84 189 84c142.667 0 214 -78.333 214 -235v-297h-65v287c0 122 -56.333 183 -169 183c-34.667 0 -67.667 -10.833 -99 -32.5s-54.666 -49.5 -69.999 -83.5v-354h-65zM247.999 -86l54 37c23.333 -23.333 35 -48.333 35 -75
c0 -28 -7.66699 -53.333 -23 -76s-32.333 -39.667 -51 -51l-30 27c27.333 26 41 53.667 41 83c0 20.667 -8.66699 39 -26 55z" />
    <glyph glyph-name="Ncaron" unicode="&#x147;" horiz-adv-x="736" 
d="M658 0h-56l-457 572v-572h-68v700h56l457 -574v574h68v-700zM369 760l-182 102l29 43l155 -85l153 85l24 -42l-175 -103h-4z" />
    <glyph glyph-name="ncaron" unicode="&#x148;" horiz-adv-x="591" 
d="M66 0l-0.000976562 520h65v-72c42 56 105 84 189 84c142.667 0 214 -78.333 214 -235v-297h-65v287c0 122 -56.333 183 -169 183c-34.667 0 -67.667 -10.833 -99 -32.5s-54.666 -49.5 -69.999 -83.5v-354h-65zM294.999 625l-143 124l36 41l108 -96l115 94l29 -40
l-141 -123h-4z" />
    <glyph glyph-name="Omacron" unicode="&#x14c;" horiz-adv-x="783" 
d="M38 350c0 101.333 34.167 186.5 102.5 255.5s152.166 103.5 251.499 103.5s183 -34 251 -102s102 -153.667 102 -257c0 -102.667 -34 -188.167 -102 -256.5s-151.667 -102.5 -251 -102.5s-183.166 34 -251.499 102s-102.5 153.667 -102.5 257zM111 350
c0 -83.333 27.5 -153 82.5 -209s121.167 -84 198.5 -84c80 0 146.667 27.833 200 83.5s80 125.5 80 209.5s-27.333 153.833 -82 209.5s-120.667 83.5 -198 83.5c-78 0 -144.333 -27.833 -199 -83.5s-82 -125.5 -82 -209.5zM243 795v58h297v-58h-297z" />
    <glyph glyph-name="omacron" unicode="&#x14d;" horiz-adv-x="616" 
d="M34 261c0 79.333 25.333 144.5 76 195.5s116.667 76.5 198 76.5c80.667 0 146.5 -25.5 197.5 -76.5s76.5 -116.167 76.5 -195.5c0 -78.667 -25.5 -143.5 -76.5 -194.5s-116.833 -76.5 -197.5 -76.5s-146.5 25.5 -197.5 76.5s-76.5 115.833 -76.5 194.5zM103 261
c0 -61.333 19.167 -111.499 57.5 -150.499s87.5 -58.5 147.5 -58.5s109.167 19.333 147.5 58s57.5 89 57.5 151c0 61.333 -19.5 111.666 -58.5 150.999s-87.833 59 -146.5 59c-59.333 0 -108.333 -19.5 -147 -58.5s-58 -89.5 -58 -151.5zM178 647.001v59h261v-59h-261z" />
    <glyph glyph-name="Ohungarumlaut" unicode="&#x150;" horiz-adv-x="783" 
d="M38 350c0 101.333 34.167 186.5 102.5 255.5s152.166 103.5 251.499 103.5s183 -34 251 -102s102 -153.667 102 -257c0 -102.667 -34 -188.167 -102 -256.5s-151.667 -102.5 -251 -102.5s-183.166 34 -251.499 102s-102.5 153.667 -102.5 257zM111 350
c0 -83.333 27.5 -153 82.5 -209s121.167 -84 198.5 -84c80 0 146.667 27.833 200 83.5s80 125.5 80 209.5s-27.333 153.833 -82 209.5s-120.667 83.5 -198 83.5c-78 0 -144.333 -27.833 -199 -83.5s-82 -125.5 -82 -209.5zM629 850l-162 -94l-26 37l154 106zM451 855
l-156 -99l-25 36l142 107z" />
    <glyph glyph-name="ohungarumlaut" unicode="&#x151;" horiz-adv-x="616" 
d="M34 261c0 79.333 25.333 144.5 76 195.5s116.667 76.5 198 76.5c80.667 0 146.5 -25.5 197.5 -76.5s76.5 -116.167 76.5 -195.5c0 -78.667 -25.5 -143.5 -76.5 -194.5s-116.833 -76.5 -197.5 -76.5s-146.5 25.5 -197.5 76.5s-76.5 115.833 -76.5 194.5zM103 261
c0 -61.333 19.167 -111.499 57.5 -150.499s87.5 -58.5 147.5 -58.5s109.167 19.333 147.5 58s57.5 89 57.5 151c0 61.333 -19.5 111.666 -58.5 150.999s-87.833 59 -146.5 59c-59.333 0 -108.333 -19.5 -147 -58.5s-58 -89.5 -58 -151.5zM507 777.001l-133 -163l-38 28
l123 170zM360 779.001l-130 -165l-38 28l121 172z" />
    <glyph glyph-name="OE" unicode="&#x152;" horiz-adv-x="1196" 
d="M635 0l-0.000976562 96.001c-31.333 -32.667 -68.166 -58.334 -110.499 -77.001s-86.5 -28 -132.5 -28c-99.333 0 -183.166 34 -251.499 102s-102.5 153.667 -102.5 257c0 101.333 34.167 186.5 102.5 255.5s152.166 103.5 251.499 103.5c101.333 0 182.333 -35 243 -105
v96h499v-66h-428v-245h400v-66h-400v-257h438v-66h-509zM391.999 57.001c52.667 0 100.332 12.667 142.999 38s76 60 100 104v298c-24 44.667 -57.667 80.167 -101 106.5s-90.666 39.5 -141.999 39.5c-78 0 -144.333 -27.833 -199 -83.5s-82 -125.5 -82 -209.5
c0 -83.333 27.5 -153 82.5 -209s121.167 -84 198.5 -84z" />
    <glyph glyph-name="oe" unicode="&#x153;" horiz-adv-x="979" 
d="M883 138l43 -38.999c-46.667 -72.667 -115.334 -109 -206.001 -109c-89.333 0 -158.666 27.333 -207.999 82c-50.667 -54.667 -118.667 -82 -204 -82c-80.667 0 -146.5 25.5 -197.5 76.5s-76.5 115.833 -76.5 194.5c0 79.333 25.333 144.5 76 195.5
s116.667 76.5 198 76.5c82.667 0 149.667 -26.667 201 -80c48 53.333 114 80 198 80c68.667 0 125.5 -21.667 170.5 -65s67.5 -100.333 67.5 -171c0 -21.333 -1.33301 -40 -4 -56h-427c0.666992 -58.667 20.5 -104.834 59.5 -138.501s88.833 -50.5 149.5 -50.5
c32 0 62.667 8.16699 92 24.5s52 36.833 68 61.5zM310 52.001c74.667 0 129.999 23.335 165.999 70.002c-21.333 39.333 -32 85.666 -32 138.999c0 51.333 10 97.666 30 138.999c-40 47.333 -95.333 71 -166 71c-59.333 0 -108.333 -19.5 -147 -58.5s-58 -89.5 -58 -151.5
c0 -61.333 19.333 -111.5 58 -150.5s88.334 -58.5 149.001 -58.5zM700.999 472.003c-53.333 0 -96.667 -15.8311 -130 -47.498s-53 -72.834 -59 -123.501h364c-1.33301 53.333 -17.5 95.166 -48.5 125.499s-73.167 45.5 -126.5 45.5z" />
    <glyph glyph-name="Racute" unicode="&#x154;" horiz-adv-x="675" 
d="M148 0l-71 0.000976562v700h264c177.333 0 266 -68 266 -204c0 -50.667 -16.833 -93.834 -50.5 -129.501s-77.5 -58.167 -131.5 -67.5l233 -299h-86l-220 286h-204v-286zM338 634.001l-190 0.000976562v-282h196c57.333 0 103.333 13.167 138 39.5s52 61.166 52 104.499
c0 92 -65.333 138 -196 138zM453 853.002l-188 -91l-23 42l183 107z" />
    <glyph glyph-name="racute" unicode="&#x155;" horiz-adv-x="349" 
d="M66 0l0.000976562 519.999h65v-50c9.33301 20.667 25 36.167 47 46.5s45 15.5 69 15.5c45.333 0 80.666 -16 105.999 -48l-44 -43c-16 19.333 -39 29 -69 29c-26 0 -49.167 -9.66699 -69.5 -29s-33.5 -43.666 -39.5 -72.999v-368h-65zM308.001 761.999l-118 -148l-42 30
l110 155z" />
    <glyph glyph-name="Rcommaaccent" unicode="&#x156;" horiz-adv-x="675" 
d="M148 0l-71 0.000976562v700h264c177.333 0 266 -68 266 -204c0 -50.667 -16.833 -93.834 -50.5 -129.501s-77.5 -58.167 -131.5 -67.5l233 -299h-86l-220 286h-204v-286zM338 634.001l-190 0.000976562v-282h196c57.333 0 103.333 13.167 138 39.5s52 61.166 52 104.499
c0 92 -65.333 138 -196 138zM296 -85.998l54 37c23.333 -22 35 -47 35 -75s-7.66699 -53.333 -23 -76s-32.333 -39.667 -51 -51l-30 27c27.333 26 41 53.667 41 83c0 20.667 -8.66699 39 -26 55z" />
    <glyph glyph-name="rcommaaccent" unicode="&#x157;" horiz-adv-x="349" 
d="M66 0l0.000976562 519.999h65v-50c9.33301 20.667 25 36.167 47 46.5s45 15.5 69 15.5c45.333 0 80.666 -16 105.999 -48l-44 -43c-16 19.333 -39 29 -69 29c-26 0 -49.167 -9.66699 -69.5 -29s-33.5 -43.666 -39.5 -72.999v-368h-65zM89.001 -86.001l54 37
c23.333 -23.333 35 -48.333 35 -75c0 -28 -7.66699 -53.333 -23 -76s-32.333 -39.667 -51 -51l-30 27c27.333 26 41 53.667 41 83c0 20.667 -8.66699 39 -26 55z" />
    <glyph glyph-name="Rcaron" unicode="&#x158;" horiz-adv-x="675" 
d="M148 0l-71 0.000976562v700h264c177.333 0 266 -68 266 -204c0 -50.667 -16.833 -93.834 -50.5 -129.501s-77.5 -58.167 -131.5 -67.5l233 -299h-86l-220 286h-204v-286zM338 634.001l-190 0.000976562v-282h196c57.333 0 103.333 13.167 138 39.5s52 61.166 52 104.499
c0 92 -65.333 138 -196 138zM307 760.002l-182 102l29 43l155 -85l153 85l24 -42l-175 -103h-4z" />
    <glyph glyph-name="rcaron" unicode="&#x159;" horiz-adv-x="349" 
d="M66 0l0.000976562 519.999h65v-50c9.33301 20.667 25 36.167 47 46.5s45 15.5 69 15.5c45.333 0 80.666 -16 105.999 -48l-44 -43c-16 19.333 -39 29 -69 29c-26 0 -49.167 -9.66699 -69.5 -29s-33.5 -43.666 -39.5 -72.999v-368h-65zM199.001 624.999l-143 124l36 41
l108 -96l115 94l29 -40l-141 -123h-4z" />
    <glyph glyph-name="Sacute" unicode="&#x15a;" horiz-adv-x="614" 
d="M496 183c0 30 -10.998 54.6699 -32.998 74.0029s-49.5 33.166 -82.5 41.499s-68.667 17.833 -107 28.5s-74 21.834 -107 33.501s-60.5 31.167 -82.5 58.5s-33 61.333 -33 102c0 52.667 23.5 97.167 70.5 133.5s108.5 54.5 184.5 54.5c114.667 0 197.667 -32 249 -96
l-45 -45c-52.667 50 -120.667 75 -204 75c-19.333 0 -39 -2.16699 -59 -6.5s-39.5 -10.833 -58.5 -19.5s-34.5 -21 -46.5 -37s-18 -34.667 -18 -56c0 -26 8.16699 -47.833 24.5 -65.5s37.666 -31.334 63.999 -41.001s55.166 -18.334 86.499 -26.001
s62.833 -16.167 94.5 -25.5s60.667 -20.5 87 -33.5s47.666 -31.667 63.999 -56s24.5 -53.5 24.5 -87.5c0 -58 -23.667 -105.5 -71 -142.5s-107 -55.5 -179 -55.5c-60 0 -115.667 12.667 -167 38s-89.666 56.666 -114.999 93.999l48 49c23.333 -31.333 56 -58.333 98 -81
s89.667 -34 143 -34c46 0 85.833 11.5 119.5 34.5s50.5 53.5 50.5 91.5zM471.002 853.003l-188 -91l-23 42l183 107z" />
    <glyph glyph-name="sacute" unicode="&#x15b;" horiz-adv-x="497" 
d="M395 138c0 21.333 -11.834 39.1699 -35.501 53.5029s-52.5 26 -86.5 35s-68.167 18.833 -102.5 29.5s-63.333 27 -87 49s-35.5 49.333 -35.5 82c0 44.667 18 80.167 54 106.5s84.667 39.5 146 39.5c40.667 0 79.834 -8.33301 117.501 -25s65.5 -38 83.5 -64l-47 -42
c-14 19.333 -36 35.666 -66 48.999s-61 20 -93 20c-84 0 -126 -26.333 -126 -79c0 -17.333 8.5 -32.5 25.5 -45.5s38.5 -23 64.5 -30s53.833 -15.5 83.5 -25.5s57.5 -20.333 83.5 -31s47.5 -26.334 64.5 -47.001s25.5 -45.334 25.5 -74.001
c0 -48.667 -19.333 -85.667 -58 -111s-87.667 -38 -147 -38c-50.667 0 -97.167 11 -139.5 33s-72.5 51.667 -90.5 89l52 38c16 -30 40.833 -53.833 74.5 -71.5s69.5 -26.5 107.5 -26.5c34 0 64.5 7 91.5 21s40.5 35.667 40.5 65zM366.999 762.004l-118 -148l-42 30l110 155z
" />
    <glyph glyph-name="Scircumflex" unicode="&#x15c;" horiz-adv-x="614" 
d="M496 183c0 30 -10.998 54.6699 -32.998 74.0029s-49.5 33.166 -82.5 41.499s-68.667 17.833 -107 28.5s-74 21.834 -107 33.501s-60.5 31.167 -82.5 58.5s-33 61.333 -33 102c0 52.667 23.5 97.167 70.5 133.5s108.5 54.5 184.5 54.5c114.667 0 197.667 -32 249 -96
l-45 -45c-52.667 50 -120.667 75 -204 75c-19.333 0 -39 -2.16699 -59 -6.5s-39.5 -10.833 -58.5 -19.5s-34.5 -21 -46.5 -37s-18 -34.667 -18 -56c0 -26 8.16699 -47.833 24.5 -65.5s37.666 -31.334 63.999 -41.001s55.166 -18.334 86.499 -26.001
s62.833 -16.167 94.5 -25.5s60.667 -20.5 87 -33.5s47.666 -31.667 63.999 -56s24.5 -53.5 24.5 -87.5c0 -58 -23.667 -105.5 -71 -142.5s-107 -55.5 -179 -55.5c-60 0 -115.667 12.667 -167 38s-89.666 56.666 -114.999 93.999l48 49c23.333 -31.333 56 -58.333 98 -81
s89.667 -34 143 -34c46 0 85.833 11.5 119.5 34.5s50.5 53.5 50.5 91.5zM306.002 905.003l183 -103l-30 -43l-155 83l-153 -83l-23 43l174 103h4z" />
    <glyph glyph-name="scircumflex" unicode="&#x15d;" horiz-adv-x="497" 
d="M395 138c0 21.333 -11.834 39.1699 -35.501 53.5029s-52.5 26 -86.5 35s-68.167 18.833 -102.5 29.5s-63.333 27 -87 49s-35.5 49.333 -35.5 82c0 44.667 18 80.167 54 106.5s84.667 39.5 146 39.5c40.667 0 79.834 -8.33301 117.501 -25s65.5 -38 83.5 -64l-47 -42
c-14 19.333 -36 35.666 -66 48.999s-61 20 -93 20c-84 0 -126 -26.333 -126 -79c0 -17.333 8.5 -32.5 25.5 -45.5s38.5 -23 64.5 -30s53.833 -15.5 83.5 -25.5s57.5 -20.333 83.5 -31s47.5 -26.334 64.5 -47.001s25.5 -45.334 25.5 -74.001
c0 -48.667 -19.333 -85.667 -58 -111s-87.667 -38 -147 -38c-50.667 0 -97.167 11 -139.5 33s-72.5 51.667 -90.5 89l52 38c16 -30 40.833 -53.833 74.5 -71.5s69.5 -26.5 107.5 -26.5c34 0 64.5 7 91.5 21s40.5 35.667 40.5 65zM250.999 781.004l143 -123l-36 -42l-109 97
l-114 -94l-29 40l141 122h4z" />
    <glyph glyph-name="Scedilla" unicode="&#x15e;" horiz-adv-x="614" 
d="M204 -173l21.0039 43.0029c26.667 -14 51.667 -21 75 -21c22 0 36.667 2.66699 44 8s11 13.666 11 24.999c0 22 -19 33 -57 33h-23v79c-51.333 6 -98.333 20.833 -141 44.5s-75 51.834 -97 84.501l48 49c23.333 -31.333 56 -58.333 98 -81s89.667 -34 143 -34
c46 0 85.833 11.5 119.5 34.5s50.5 53.5 50.5 91.5c0 30 -11 54.667 -33 74s-49.5 33.166 -82.5 41.499s-68.667 17.833 -107 28.5s-74 21.834 -107 33.501s-60.5 31.167 -82.5 58.5s-33 61.333 -33 102c0 52.667 23.5 97.167 70.5 133.5s108.5 54.5 184.5 54.5
c114.667 0 197.667 -32 249 -96l-45 -45c-52.667 50 -120.667 75 -204 75c-19.333 0 -39 -2.16699 -59 -6.5s-39.5 -10.833 -58.5 -19.5s-34.5 -21 -46.5 -37s-18 -34.667 -18 -56c0 -26 8.16699 -47.833 24.5 -65.5s37.666 -31.334 63.999 -41.001
s55.166 -18.334 86.499 -26.001s62.833 -16.167 94.5 -25.5s60.667 -20.5 87 -33.5s47.666 -31.667 63.999 -56s24.5 -53.5 24.5 -87.5c0 -58 -23.333 -105.333 -70 -142s-106 -55.334 -178 -56.001v-32c66 -2 99 -28 99 -78c0 -24 -9.5 -43.833 -28.5 -59.5
s-47.833 -23.5 -86.5 -23.5c-40.667 0 -74.334 9.66699 -101.001 29z" />
    <glyph glyph-name="scedilla" unicode="&#x15f;" horiz-adv-x="497" 
d="M152 -173l20 43.0049c26 -14 51 -21 75 -21c21.333 0 35.833 2.66699 43.5 8s11.5 13.666 11.5 24.999c0 22 -19.333 33 -58 33h-22v77c-43.333 5.33301 -82.333 18.5 -117 39.5s-60 47.833 -76 80.5l52 38c16 -30 40.833 -53.833 74.5 -71.5s69.5 -26.5 107.5 -26.5
c34 0 64.5 7 91.5 21s40.5 35.667 40.5 65c0 21.333 -11.833 39.166 -35.5 53.499s-52.5 26 -86.5 35s-68.167 18.833 -102.5 29.5s-63.333 27 -87 49s-35.5 49.333 -35.5 82c0 44.667 18 80.167 54 106.5s84.667 39.5 146 39.5c40.667 0 79.834 -8.33301 117.501 -25
s65.5 -38 83.5 -64l-47 -42c-14 19.333 -36 35.666 -66 48.999s-61 20 -93 20c-84 0 -126 -26.333 -126 -79c0 -17.333 8.5 -32.5 25.5 -45.5s38.5 -23 64.5 -30s53.833 -15.5 83.5 -25.5s57.5 -20.333 83.5 -31s47.5 -26.334 64.5 -47.001s25.5 -45.334 25.5 -74.001
c0 -48 -18.5 -84.5 -55.5 -109.5s-84.167 -38.167 -141.5 -39.5v-31c32.667 -0.666992 57.167 -8.16699 73.5 -22.5s24.5 -32.833 24.5 -55.5c0 -24 -9.83301 -43.833 -29.5 -59.5s-48.834 -23.5 -87.501 -23.5c-37.333 0 -69.333 9.66699 -96 29z" />
    <glyph glyph-name="Scaron" unicode="&#x160;" horiz-adv-x="614" 
d="M496 183c0 30 -10.998 54.6699 -32.998 74.0029s-49.5 33.166 -82.5 41.499s-68.667 17.833 -107 28.5s-74 21.834 -107 33.501s-60.5 31.167 -82.5 58.5s-33 61.333 -33 102c0 52.667 23.5 97.167 70.5 133.5s108.5 54.5 184.5 54.5c114.667 0 197.667 -32 249 -96
l-45 -45c-52.667 50 -120.667 75 -204 75c-19.333 0 -39 -2.16699 -59 -6.5s-39.5 -10.833 -58.5 -19.5s-34.5 -21 -46.5 -37s-18 -34.667 -18 -56c0 -26 8.16699 -47.833 24.5 -65.5s37.666 -31.334 63.999 -41.001s55.166 -18.334 86.499 -26.001
s62.833 -16.167 94.5 -25.5s60.667 -20.5 87 -33.5s47.666 -31.667 63.999 -56s24.5 -53.5 24.5 -87.5c0 -58 -23.667 -105.5 -71 -142.5s-107 -55.5 -179 -55.5c-60 0 -115.667 12.667 -167 38s-89.666 56.666 -114.999 93.999l48 49c23.333 -31.333 56 -58.333 98 -81
s89.667 -34 143 -34c46 0 85.833 11.5 119.5 34.5s50.5 53.5 50.5 91.5zM308.002 760.003l-182 102l29 43l155 -85l153 85l24 -42l-175 -103h-4z" />
    <glyph glyph-name="scaron" unicode="&#x161;" horiz-adv-x="497" 
d="M395 138c0 21.333 -11.834 39.1699 -35.501 53.5029s-52.5 26 -86.5 35s-68.167 18.833 -102.5 29.5s-63.333 27 -87 49s-35.5 49.333 -35.5 82c0 44.667 18 80.167 54 106.5s84.667 39.5 146 39.5c40.667 0 79.834 -8.33301 117.501 -25s65.5 -38 83.5 -64l-47 -42
c-14 19.333 -36 35.666 -66 48.999s-61 20 -93 20c-84 0 -126 -26.333 -126 -79c0 -17.333 8.5 -32.5 25.5 -45.5s38.5 -23 64.5 -30s53.833 -15.5 83.5 -25.5s57.5 -20.333 83.5 -31s47.5 -26.334 64.5 -47.001s25.5 -45.334 25.5 -74.001
c0 -48.667 -19.333 -85.667 -58 -111s-87.667 -38 -147 -38c-50.667 0 -97.167 11 -139.5 33s-72.5 51.667 -90.5 89l52 38c16 -30 40.833 -53.833 74.5 -71.5s69.5 -26.5 107.5 -26.5c34 0 64.5 7 91.5 21s40.5 35.667 40.5 65zM247.999 625.004l-143 124l36 41l108 -96
l115 94l29 -40l-141 -123h-4z" />
    <glyph glyph-name="Tcedilla" unicode="&#x162;" horiz-adv-x="577" 
d="M3 634l0.000976562 66.001h571v-66h-250v-634h-12v-41c31.333 -0.666992 54.666 -8.16699 69.999 -22.5s23 -32.833 23 -55.5c0 -24 -9.5 -43.833 -28.5 -59.5s-47.833 -23.5 -86.5 -23.5c-40 0 -74 9.66699 -102 29l22 43c26.667 -14 51.667 -21 75 -21
c21.333 0 35.833 2.66699 43.5 8s11.5 13.666 11.5 24.999c0 22 -19.333 33 -58 33h-18v85h-11v634h-250z" />
    <glyph glyph-name="tcedilla" unicode="&#x163;" horiz-adv-x="394" 
d="M148 -173l20.001 43.0029c26 -14 51 -21 75 -21c21.333 0 35.833 2.66699 43.5 8s11.5 13.666 11.5 24.999c0 22 -19.333 33 -58 33h-22v83c-75.333 16.667 -113 82 -113 196v264h-104v62h104v117h65v-117h186v-62h-186v-249c0 -56.667 8 -96.5 24 -119.5
s42.333 -34.5 79 -34.5c34 0 62.667 14.667 86 44l40 -39c-14 -18.667 -33.167 -34.334 -57.5 -47.001s-50.5 -19.334 -78.5 -20.001v-34c32.667 -0.666992 57.167 -8.16699 73.5 -22.5s24.5 -32.833 24.5 -55.5c0 -24 -9.83301 -43.833 -29.5 -59.5
s-48.834 -23.5 -87.501 -23.5c-37.333 0 -69.333 9.66699 -96 29z" />
    <glyph glyph-name="Tcaron" unicode="&#x164;" horiz-adv-x="577" 
d="M3 634v66h571v-66h-250v-634h-71v634h-250zM290 760l-182 102l29 43l155 -85l153 85l24 -42l-175 -103h-4z" />
    <glyph glyph-name="tcaron" unicode="&#x165;" horiz-adv-x="394" 
d="M1 458l0.000976562 62h104v117h65v-428c0 -56.667 8 -96.5 24 -119.5s42.333 -34.5 79 -34.5c34 0 62.667 14.667 86 44l40 -39c-14 -19.333 -33.333 -35.333 -58 -48s-51.334 -19 -80.001 -19c-104 0 -156 67 -156 201v264h-104zM268.001 725h66.001
c7.33301 -16 11 -36.667 11 -62c0 -29.333 -8.66699 -56.833 -26 -82.5s-37 -45.5 -59 -59.5l-29 28c15.333 11.333 28.166 27.333 38.499 48s15.5 39.667 15.5 57c0 32 -5.66699 55.667 -17 71z" />
    <glyph glyph-name="Umacron" unicode="&#x16a;" horiz-adv-x="719" 
d="M651 700l-0.000976562 -406c0 -52 -8 -97.833 -24 -137.5s-37.667 -71.167 -65 -94.5s-57.166 -40.833 -89.499 -52.5s-66.833 -17.5 -103.5 -17.5c-85.333 0 -156.833 27 -214.5 81s-86.5 130 -86.5 228v399h71v-388c0 -81.333 22 -144 66 -188s98.667 -66 164 -66
c68.667 0 121 22 157 66s54 105 54 183v393h71zM209.999 795v58h297v-58h-297z" />
    <glyph glyph-name="umacron" unicode="&#x16b;" horiz-adv-x="583" 
d="M518 523l-0.00292969 -523h-65v87c-19.333 -30 -44.833 -53.667 -76.5 -71s-67.167 -26 -106.5 -26c-71.333 0 -124.666 18.833 -159.999 56.5s-53 95.5 -53 173.5v303h65v-290c0 -120.667 51 -181 153 -181c38.667 0 73.834 11.5 105.501 34.5s55.834 54.5 72.501 94.5
v342h65zM161.997 647v59h261v-59h-261z" />
    <glyph glyph-name="Ubreve" unicode="&#x16c;" horiz-adv-x="719" 
d="M651 700l-0.000976562 -406c0 -52 -8 -97.833 -24 -137.5s-37.667 -71.167 -65 -94.5s-57.166 -40.833 -89.499 -52.5s-66.833 -17.5 -103.5 -17.5c-85.333 0 -156.833 27 -214.5 81s-86.5 130 -86.5 228v399h71v-388c0 -81.333 22 -144 66 -188s98.667 -66 164 -66
c68.667 0 121 22 157 66s54 105 54 183v393h71zM184.999 868l33.999 32c35.333 -42 83 -63 143 -63c58.667 0 105.334 21 140.001 63l31 -29c-16.667 -26.667 -40.5 -49 -71.5 -67s-64.167 -27 -99.5 -27c-75.333 0 -134.333 30.333 -177 91z" />
    <glyph glyph-name="ubreve" unicode="&#x16d;" horiz-adv-x="583" 
d="M518 523l-0.00292969 -523h-65v87c-19.333 -30 -44.833 -53.667 -76.5 -71s-67.167 -26 -106.5 -26c-71.333 0 -124.666 18.833 -159.999 56.5s-53 95.5 -53 173.5v303h65v-290c0 -120.667 51 -181 153 -181c38.667 0 73.834 11.5 105.501 34.5s55.834 54.5 72.501 94.5
v342h65zM134.997 733l29.001 31c11.333 -14 28.666 -27.333 51.999 -40s46.666 -19 69.999 -19c50.667 0 91.334 19.333 122.001 58l24 -30c-40.667 -60 -89.667 -90 -147 -90c-33.333 0 -63.333 10 -90 30s-46.667 40 -60 60z" />
    <glyph glyph-name="Uring" unicode="&#x16e;" horiz-adv-x="719" 
d="M651 700l-0.000976562 -406c0 -52 -8 -97.833 -24 -137.5s-37.667 -71.167 -65 -94.5s-57.166 -40.833 -89.499 -52.5s-66.833 -17.5 -103.5 -17.5c-85.333 0 -156.833 27 -214.5 81s-86.5 130 -86.5 228v399h71v-388c0 -81.333 22 -144 66 -188s98.667 -66 164 -66
c68.667 0 121 22 157 66s54 105 54 183v393h71zM246.999 822c0 29.333 10.999 52.5 32.999 69.5s48 25.5 78 25.5c31.333 0 58 -8.33301 80 -25s33 -40 33 -70c0 -28.667 -10.5 -52 -31.5 -70s-48.167 -27 -81.5 -27s-60.166 8.66699 -80.499 26s-30.5 41 -30.5 71z
M298.998 822c0 -14.667 5.33301 -26.832 16 -36.499s25.334 -14.5 44.001 -14.5c20 0 35 4.66699 45 14s15 21.666 15 36.999c0 14 -5.5 25.5 -16.5 34.5s-25.5 13.5 -43.5 13.5c-18.667 0 -33.334 -4.5 -44.001 -13.5s-16 -20.5 -16 -34.5z" />
    <glyph glyph-name="uring" unicode="&#x16f;" horiz-adv-x="583" 
d="M518 523l-0.00292969 -523h-65v87c-19.333 -30 -44.833 -53.667 -76.5 -71s-67.167 -26 -106.5 -26c-71.333 0 -124.666 18.833 -159.999 56.5s-53 95.5 -53 173.5v303h65v-290c0 -120.667 51 -181 153 -181c38.667 0 73.834 11.5 105.501 34.5s55.834 54.5 72.501 94.5
v342h65zM190.997 701c0 27.333 9.66699 50.666 29 69.999s43 29 71 29s51.833 -9.66699 71.5 -29s29.5 -42.666 29.5 -69.999s-9.83301 -50.5 -29.5 -69.5s-43.5 -28.5 -71.5 -28.5s-51.667 9.5 -71 28.5s-29 42.167 -29 69.5zM240.997 701
c0 -14 4.66699 -25.832 14 -35.499s21.333 -14.5 36 -14.5c15.333 0 27.666 4.33301 36.999 13s14 21 14 37s-4.66699 28.5 -14 37.5s-21.666 13.5 -36.999 13.5c-14.667 0 -26.667 -4.83301 -36 -14.5s-14 -21.834 -14 -36.501z" />
    <glyph glyph-name="Uhungarumlaut" unicode="&#x170;" horiz-adv-x="719" 
d="M651 700l-0.000976562 -406c0 -52 -8 -97.833 -24 -137.5s-37.667 -71.167 -65 -94.5s-57.166 -40.833 -89.499 -52.5s-66.833 -17.5 -103.5 -17.5c-85.333 0 -156.833 27 -214.5 81s-86.5 130 -86.5 228v399h71v-388c0 -81.333 22 -144 66 -188s98.667 -66 164 -66
c68.667 0 121 22 157 66s54 105 54 183v393h71zM597.999 850l-162 -94l-26 37l154 106zM419.999 855l-156 -99l-25 36l142 107z" />
    <glyph glyph-name="uhungarumlaut" unicode="&#x171;" horiz-adv-x="583" 
d="M518 523l-0.00292969 -523h-65v87c-19.333 -30 -44.833 -53.667 -76.5 -71s-67.167 -26 -106.5 -26c-71.333 0 -124.666 18.833 -159.999 56.5s-53 95.5 -53 173.5v303h65v-290c0 -120.667 51 -181 153 -181c38.667 0 73.834 11.5 105.501 34.5s55.834 54.5 72.501 94.5
v342h65zM488.997 777l-133 -163l-38 28l123 170zM341.997 779l-130 -165l-38 28l121 172z" />
    <glyph glyph-name="Uogonek" unicode="&#x172;" horiz-adv-x="719" 
d="M651 700v-406.001c0 -92 -23.5 -163 -70.5 -213s-105.5 -79 -175.5 -87c-19.333 -8.66699 -35.333 -20.667 -48 -36s-19 -31.666 -19 -48.999c0 -38 21.333 -57 64 -57c20 0 38.333 3 55 9l10 -46c-18.667 -10 -43 -15 -73 -15c-30.667 -1.33301 -57.5 5.66699 -80.5 21
s-34.5 38.666 -34.5 69.999c0 40.667 22 74.667 66 102c-80 4.66699 -146.167 33.834 -198.5 87.501s-78.5 127.167 -78.5 220.5v399h71v-388c0 -81.333 22 -144 66 -188s98.667 -66 164 -66c68.667 0 121 22 157 66s54 105 54 183v393h71z" />
    <glyph glyph-name="uogonek" unicode="&#x173;" horiz-adv-x="583" 
d="M508 -135l18.998 -47c-20.667 -12 -44.667 -18 -72 -18c-28.667 0 -53.834 8.33301 -75.501 25s-32.5 41 -32.5 73c0 27.333 10.167 51 30.5 71s45.5 34.667 75.5 44v74c-19.333 -30 -44.833 -53.667 -76.5 -71s-67.167 -26 -106.5 -26
c-71.333 0 -124.666 18.833 -159.999 56.5s-53 95.5 -53 173.5v303h65v-290c0 -120.667 51 -181 153 -181c38.667 0 73.834 11.5 105.501 34.5s55.834 54.5 72.501 94.5v342h65v-523h-5c-21.333 0 -43.166 -8.83301 -65.499 -26.5s-33.5 -38.834 -33.5 -63.501
c0 -15.333 4.66699 -28.166 14 -38.499s20.666 -15.5 33.999 -15.5c18 0 33.333 3 46 9z" />
    <glyph glyph-name="Ydieresis" unicode="&#x178;" horiz-adv-x="627" 
d="M629 700l-281 -394v-306h-71v306l-279 394h85l231 -328l235 328h80zM153 824c0 11.333 4.33301 20.666 13 27.999s19.667 11 33 11c10.667 0 20.334 -3.66699 29.001 -11s13 -16.666 13 -27.999c0 -12 -4.33301 -21.667 -13 -29s-18.334 -11 -29.001 -11
c-13.333 0 -24.333 3.5 -33 10.5s-13 16.833 -13 29.5zM386 824c0 11.333 4.33105 20.666 12.998 27.999s19.334 11 32.001 11c11.333 0 21.166 -3.66699 29.499 -11s12.5 -16.666 12.5 -27.999c0 -12.667 -4.16699 -22.5 -12.5 -29.5s-18.166 -10.5 -29.499 -10.5
c-13.333 0 -24.166 3.5 -32.499 10.5s-12.5 16.833 -12.5 29.5z" />
    <glyph glyph-name="Zacute" unicode="&#x179;" horiz-adv-x="629" 
d="M33 634v66h566v-48l-486 -586h496v-66h-595v48l484 586h-465zM476 853l-188 -91l-23 42l183 107z" />
    <glyph glyph-name="zacute" unicode="&#x17a;" horiz-adv-x="490" 
d="M37 458v62h433v-42l-351 -416h345v-62h-444v43l350 415h-333zM355 762l-118 -148l-42 30l110 155z" />
    <glyph glyph-name="Zdotaccent" unicode="&#x17b;" horiz-adv-x="629" 
d="M33 634v66h566v-48l-486 -586h496v-66h-595v48l484 586h-465zM271 826c0 12 4.33301 22 13 30s19 12 31 12s22.333 -4 31 -12s13 -18 13 -30c0 -12.667 -4.33301 -23.334 -13 -32.001s-19 -13 -31 -13s-22.333 4.33301 -31 13s-13 19.334 -13 32.001z" />
    <glyph glyph-name="zdotaccent" unicode="&#x17c;" horiz-adv-x="490" 
d="M37 458v62h433v-42l-351 -416h345v-62h-444v43l350 415h-333zM201 690c0 11.333 4.50098 21 13.501 29s19.5 12 31.5 12c11.333 0 21.333 -4 30 -12s13 -17.667 13 -29c0 -13.333 -4.33301 -24.166 -13 -32.499s-18.667 -12.5 -30 -12.5
c-12.667 0 -23.334 4.16699 -32.001 12.5s-13 19.166 -13 32.499z" />
    <glyph glyph-name="Zcaron" unicode="&#x17d;" horiz-adv-x="629" 
d="M33 634v66h566v-48l-486 -586h496v-66h-595v48l484 586h-465zM316 760l-182 102l29 43l155 -85l153 85l24 -42l-175 -103h-4z" />
    <glyph glyph-name="zcaron" unicode="&#x17e;" horiz-adv-x="490" 
d="M37 458v62h433v-42l-351 -416h345v-62h-444v43l350 415h-333zM244 625l-143 124l36 41l108 -96l115 94l29 -40l-141 -123h-4z" />
    <glyph glyph-name="uni018F" unicode="&#x18f;" horiz-adv-x="753" 
d="M30 321c0 24 2.00098 46.999 6.00098 68.999h606c-7.33301 78 -36 139.833 -86 185.5s-116.333 68.5 -199 68.5c-41.333 0 -83.5 -10.5 -126.5 -31.5s-77.5 -48.5 -103.5 -82.5l-48 45c31.333 42 73.166 74.833 125.499 98.5s105.5 35.5 159.5 35.5
c108 0 193.333 -32 256 -96s94 -150.667 94 -260c0 -106 -31.333 -192.833 -94 -260.5s-147.667 -101.5 -255 -101.5c-45.333 0 -87 7 -125 21s-69.667 32.333 -95 55s-46.833 48.667 -64.5 78s-30.5 58.833 -38.5 88.5s-12 58.834 -12 87.501zM642.001 323.999h-543.999
c0.666992 -75.333 25.5 -138.833 74.5 -190.5s115.167 -77.5 198.5 -77.5c77.333 0 141.666 25 192.999 75s77.333 114.333 78 193z" />
    <glyph glyph-name="florin" unicode="&#x192;" horiz-adv-x="580" 
d="M350 506c-1.33301 -6 -3.16699 -14.998 -5.5 -26.998s-3.83301 -21 -4.5 -27h161v-61h-172l-67 -377c-4.66699 -26.667 -8.83398 -48 -12.501 -64s-9.83398 -35.333 -18.501 -58s-18.5 -40.334 -29.5 -53.001s-26.167 -23.667 -45.5 -33s-41.333 -14 -66 -14
c-42 0 -74.667 11 -98 33l20 52c20.667 -16 43.334 -24 68.001 -24c31.333 0 55.5 10.167 72.5 30.5s29.167 51.166 36.5 92.499l74 415h-152v61h163l11 65c4.66699 28 10.834 52.5 18.501 73.5s18.167 41 31.5 60s30.833 33.5 52.5 43.5s47.167 15 76.5 15
c48.667 0 88.334 -12.667 119.001 -38l-24 -52c-24.667 19.333 -53.667 29 -87 29c-34.667 0 -61.334 -11 -80.001 -33s-32.667 -58.333 -42 -109z" />
    <glyph glyph-name="uni01DD" unicode="&#x1dd;" horiz-adv-x="570" 
d="M97 385l-44.001 39c53.333 72.667 130 109 230 109c72 0 132.167 -25 180.5 -75s72.5 -115.333 72.5 -196c0 -79.333 -23.167 -144.5 -69.5 -195.5s-111.166 -76.5 -194.499 -76.5c-68.667 0 -125.5 22.5 -170.5 67.5s-67.5 103.167 -67.5 174.5
c0 20.667 1.33301 39.334 4 56.001h428c-1.33301 57.333 -20 102.166 -56 134.499s-79.333 48.5 -130 48.5c-84 0 -145 -28.667 -183 -86zM277.999 51c54 0 98.333 16.833 133 50.5s53.667 75.5 57 125.5h-364c1.33301 -51.333 17.833 -93.5 49.5 -126.5
s73.167 -49.5 124.5 -49.5z" />
    <glyph glyph-name="Scommaaccent" unicode="&#x218;" horiz-adv-x="614" 
d="M496 183c0 30 -10.998 54.6699 -32.998 74.0029s-49.5 33.166 -82.5 41.499s-68.667 17.833 -107 28.5s-74 21.834 -107 33.501s-60.5 31.167 -82.5 58.5s-33 61.333 -33 102c0 52.667 23.5 97.167 70.5 133.5s108.5 54.5 184.5 54.5c114.667 0 197.667 -32 249 -96
l-45 -45c-52.667 50 -120.667 75 -204 75c-19.333 0 -39 -2.16699 -59 -6.5s-39.5 -10.833 -58.5 -19.5s-34.5 -21 -46.5 -37s-18 -34.667 -18 -56c0 -26 8.16699 -47.833 24.5 -65.5s37.666 -31.334 63.999 -41.001s55.166 -18.334 86.499 -26.001
s62.833 -16.167 94.5 -25.5s60.667 -20.5 87 -33.5s47.666 -31.667 63.999 -56s24.5 -53.5 24.5 -87.5c0 -58 -23.667 -105.5 -71 -142.5s-107 -55.5 -179 -55.5c-60 0 -115.667 12.667 -167 38s-89.666 56.666 -114.999 93.999l48 49c23.333 -31.333 56 -58.333 98 -81
s89.667 -34 143 -34c46 0 85.833 11.5 119.5 34.5s50.5 53.5 50.5 91.5zM269.002 -85.9971l54 37c23.333 -22 35 -47 35 -75s-7.66699 -53.333 -23 -76s-32.333 -39.667 -51 -51l-30 27c27.333 26 41 53.667 41 83c0 20.667 -8.66699 39 -26 55z" />
    <glyph glyph-name="scommaaccent" unicode="&#x219;" horiz-adv-x="497" 
d="M395 138c0 21.333 -11.834 39.1699 -35.501 53.5029s-52.5 26 -86.5 35s-68.167 18.833 -102.5 29.5s-63.333 27 -87 49s-35.5 49.333 -35.5 82c0 44.667 18 80.167 54 106.5s84.667 39.5 146 39.5c40.667 0 79.834 -8.33301 117.501 -25s65.5 -38 83.5 -64l-47 -42
c-14 19.333 -36 35.666 -66 48.999s-61 20 -93 20c-84 0 -126 -26.333 -126 -79c0 -17.333 8.5 -32.5 25.5 -45.5s38.5 -23 64.5 -30s53.833 -15.5 83.5 -25.5s57.5 -20.333 83.5 -31s47.5 -26.334 64.5 -47.001s25.5 -45.334 25.5 -74.001
c0 -48.667 -19.333 -85.667 -58 -111s-87.667 -38 -147 -38c-50.667 0 -97.167 11 -139.5 33s-72.5 51.667 -90.5 89l52 38c16 -30 40.833 -53.833 74.5 -71.5s69.5 -26.5 107.5 -26.5c34 0 64.5 7 91.5 21s40.5 35.667 40.5 65zM211.999 -85.9961l54 37
c23.333 -23.333 35 -48.333 35 -75c0 -28 -7.66699 -53.333 -23 -76s-32.333 -39.667 -51 -51l-30 27c27.333 26 41 53.667 41 83c0 20.667 -8.66699 39 -26 55z" />
    <glyph glyph-name="Tcommaaccent" unicode="&#x21a;" horiz-adv-x="577" 
d="M3 634v66h571v-66h-250v-634h-71v634h-250zM251 -86l54 37c23.333 -22 35 -47 35 -75s-7.66699 -53.333 -23 -76s-32.333 -39.667 -51 -51l-30 27c27.333 26 41 53.667 41 83c0 20.667 -8.66699 39 -26 55z" />
    <glyph glyph-name="tcommaaccent" unicode="&#x21b;" horiz-adv-x="394" 
d="M1 458l0.000976562 62h104v117h65v-117h186v-62h-186v-249c0 -56.667 8 -96.5 24 -119.5s42.333 -34.5 79 -34.5c34 0 62.667 14.667 86 44l40 -39c-14 -19.333 -33.333 -35.333 -58 -48s-51.334 -19 -80.001 -19c-104 0 -156 67 -156 201v264h-104zM189.001 -86l54 37
c23.333 -23.333 35 -48.333 35 -75c0 -28 -7.66699 -53.333 -23 -76s-32.333 -39.667 -51 -51l-30 27c27.333 26 41 53.667 41 83c0 20.667 -8.66699 39 -26 55z" />
    <glyph glyph-name="uni0237" unicode="&#x237;" horiz-adv-x="240" 
d="M155 520v-524.999c0 -136 -51.667 -204 -155 -204c-30.667 0 -58 6.33301 -82 19s-41.667 29.667 -53 51l52 34c16 -18.667 30 -30.334 42 -35.001c10.667 -4.66699 23.667 -7 39 -7c30 0 52.833 12.667 68.5 38s23.5 61 23.5 107v522h65z" />
    <glyph glyph-name="uni0259" unicode="&#x259;" horiz-adv-x="570" 
d="M97 385l-44.001 39c53.333 72.667 130 109 230 109c72 0 132.167 -25 180.5 -75s72.5 -115.333 72.5 -196c0 -79.333 -23.167 -144.5 -69.5 -195.5s-111.166 -76.5 -194.499 -76.5c-68.667 0 -125.5 22.5 -170.5 67.5s-67.5 103.167 -67.5 174.5
c0 20.667 1.33301 39.334 4 56.001h428c-1.33301 57.333 -20 102.166 -56 134.499s-79.333 48.5 -130 48.5c-84 0 -145 -28.667 -183 -86zM277.999 51c54 0 98.333 16.833 133 50.5s53.667 75.5 57 125.5h-364c1.33301 -51.333 17.833 -93.5 49.5 -126.5
s73.167 -49.5 124.5 -49.5z" />
    <glyph glyph-name="afii57929" unicode="&#x2bc;" horiz-adv-x="171" 
d="M83 696l54 34.001c22.667 -21.333 34 -49.333 34 -84c0 -53.333 -28.333 -98 -85 -134l-29 29c34 23.333 51 52.666 51 87.999c0 24.667 -8.33301 47 -25 67z" />
    <glyph glyph-name="circumflex" unicode="&#x2c6;" horiz-adv-x="451" 
d="M308 781l143 -123l-36 -42l-109 97l-114 -94l-29 40l141 122h4z" />
    <glyph glyph-name="caron" unicode="&#x2c7;" horiz-adv-x="448" 
d="M303 625l-143 124l36 41l108 -96l115 94l29 -40l-141 -123h-4z" />
    <glyph glyph-name="breve" unicode="&#x2d8;" horiz-adv-x="448" 
d="M151 733l29.001 31c11.333 -14 28.666 -27.333 51.999 -40s46.666 -19 69.999 -19c50.667 0 91.334 19.333 122.001 58l24 -30c-40.667 -60 -89.667 -90 -147 -90c-33.333 0 -63.333 10 -90 30s-46.667 40 -60 60z" />
    <glyph glyph-name="dotaccent" unicode="&#x2d9;" horiz-adv-x="250" 
d="M75 690c0 11.333 4.50098 21 13.501 29s19.5 12 31.5 12c11.333 0 21.333 -4 30 -12s13 -17.667 13 -29c0 -13.333 -4.33301 -24.166 -13 -32.499s-18.667 -12.5 -30 -12.5c-12.667 0 -23.334 4.16699 -32.001 12.5s-13 19.166 -13 32.499z" />
    <glyph glyph-name="ring" unicode="&#x2da;" horiz-adv-x="410" 
d="M209 701c0 27.333 9.66699 50.666 29 69.999s43 29 71 29s51.833 -9.66699 71.5 -29s29.5 -42.666 29.5 -69.999s-9.83301 -50.5 -29.5 -69.5s-43.5 -28.5 -71.5 -28.5s-51.667 9.5 -71 28.5s-29 42.167 -29 69.5zM259 701c0 -14 4.66699 -25.832 14 -35.499
s21.333 -14.5 36 -14.5c15.333 0 27.666 4.33301 36.999 13s14 21 14 37s-4.66699 28.5 -14 37.5s-21.666 13.5 -36.999 13.5c-14.667 0 -26.667 -4.83301 -36 -14.5s-14 -21.834 -14 -36.501z" />
    <glyph glyph-name="ogonek" unicode="&#x2db;" horiz-adv-x="368" 
d="M349 -135l19.001 -47c-20.667 -12 -44.667 -18 -72 -18c-28.667 0 -53.834 8.33301 -75.501 25s-32.5 41 -32.5 73c0 36.667 18.167 66.667 54.5 90s73.5 35 111.5 35v-23c-21.333 0 -43.166 -8.83301 -65.499 -26.5s-33.5 -38.834 -33.5 -63.501
c0 -15.333 4.66699 -28.166 14 -38.499s20.666 -15.5 33.999 -15.5c18 0 33.333 3 46 9z" />
    <glyph glyph-name="tilde" unicode="&#x2dc;" horiz-adv-x="460" 
d="M169 632l-31.001 32c39.333 39.333 75 59 107 59c16 0 37 -8.33301 63 -25s45.667 -25 59 -25c23.333 0 45.666 11.667 66.999 35l26 -33c-29.333 -38 -62.333 -57 -99 -57c-19.333 0 -41.166 8.33301 -65.499 25s-42.166 25 -53.499 25c-20 0 -44.333 -12 -73 -36z" />
    <glyph glyph-name="hungarumlaut" unicode="&#x2dd;" horiz-adv-x="527" 
d="M527 777l-133 -163l-38 28l123 170zM380 779l-130 -165l-38 28l121 172z" />
    <glyph glyph-name="gravecomb" unicode="&#x300;" horiz-adv-x="0" 
d="M-309 615l-121 145l50 39l110 -154z" />
    <glyph glyph-name="acutecomb" unicode="&#x301;" horiz-adv-x="0" 
d="M-190 762l-118 -148l-42 30l110 155z" />
    <glyph glyph-name="uni0394" unicode="&#x394;" horiz-adv-x="716" 
d="M30 0l303 708h43l310 -708h-656zM354 591l-224 -528h454z" />
    <glyph glyph-name="uni0394" unicode="&#x2206;" horiz-adv-x="716" 
d="M30 0l303 708h43l310 -708h-656zM354 591l-224 -528h454z" />
    <glyph glyph-name="uni03A9" unicode="&#x3a9;" horiz-adv-x="808" 
d="M87 0v66h131c-41.333 16 -77.833 50.167 -109.5 102.5s-47.5 115.166 -47.5 188.499c0 101.333 32.833 185.333 98.5 252s147.167 100 244.5 100c98 0 179.833 -33.333 245.5 -100s98.5 -150.667 98.5 -252c0 -73.333 -16.167 -135 -48.5 -185
s-71.833 -85.333 -118.5 -106h139v-66h-266v66c58 16 109.333 49.5 154 100.5s67 113.5 67 187.5c0 80.667 -26.333 149 -79 205s-116.667 84 -192 84s-139.333 -27.5 -192 -82.5s-79 -123.833 -79 -206.5c0 -75.333 22.667 -139.666 68 -192.999s96.333 -85 153 -95v-66
h-267z" />
    <glyph glyph-name="uni03A9" unicode="&#x2126;" horiz-adv-x="808" 
d="M87 0v66h131c-41.333 16 -77.833 50.167 -109.5 102.5s-47.5 115.166 -47.5 188.499c0 101.333 32.833 185.333 98.5 252s147.167 100 244.5 100c98 0 179.833 -33.333 245.5 -100s98.5 -150.667 98.5 -252c0 -73.333 -16.167 -135 -48.5 -185
s-71.833 -85.333 -118.5 -106h139v-66h-266v66c58 16 109.333 49.5 154 100.5s67 113.5 67 187.5c0 80.667 -26.333 149 -79 205s-116.667 84 -192 84s-139.333 -27.5 -192 -82.5s-79 -123.833 -79 -206.5c0 -75.333 22.667 -139.666 68 -192.999s96.333 -85 153 -95v-66
h-267z" />
    <glyph glyph-name="pi" unicode="&#x3c0;" horiz-adv-x="701" 
d="M47 458l0.000976562 61.999h615v-62h-124v-312c0 -32 4.5 -54.833 13.5 -68.5s24.5 -20.5 46.5 -20.5c25.333 0 49.666 9 72.999 27l12 -56c-26.667 -22 -58.334 -33 -95.001 -33c-76.667 0 -115 44.333 -115 133v330h-236v-67c0 -104.667 -8 -186.167 -24 -244.5
s-38.167 -97.666 -66.5 -117.999s-66.833 -30.5 -115.5 -30.5l-3 63c19.333 0 35.833 2.16699 49.5 6.5s26.834 13 39.501 26s22.667 31 30 54s13.333 53.667 18 92s7 84.5 7 138.5v80h-125z" />
    <glyph glyph-name="afii10023" unicode="&#x401;" horiz-adv-x="638" 
d="M77 0v700h499v-66h-428v-245h400v-66h-400v-257h438v-66h-509zM168 824c0 11.333 4.33301 20.666 13 27.999s19.667 11 33 11c10.667 0 20.334 -3.66699 29.001 -11s13 -16.666 13 -27.999c0 -12 -4.33301 -21.667 -13 -29s-18.334 -11 -29.001 -11
c-13.333 0 -24.333 3.5 -33 10.5s-13 16.833 -13 29.5zM401 824c0 11.333 4.33105 20.666 12.998 27.999s19.334 11 32.001 11c11.333 0 21.166 -3.66699 29.499 -11s12.5 -16.666 12.5 -27.999c0 -12.667 -4.16699 -22.5 -12.5 -29.5s-18.166 -10.5 -29.499 -10.5
c-13.333 0 -24.166 3.5 -32.499 10.5s-12.5 16.833 -12.5 29.5z" />
    <glyph glyph-name="afii10051" unicode="&#x402;" horiz-adv-x="734" 
d="M625 204c0 104.667 -49.0039 157.999 -147.004 159.999c-29.333 0 -58.666 -7.66699 -87.999 -23s-51.666 -35.666 -66.999 -60.999v-280h-71v635h-249v65h569v-65h-249v-274c16 19.333 39.333 35.5 70 48.5s64.334 19.5 101.001 19.5c60.667 0 109.334 -18 146.001 -54
s55 -91.667 55 -167c0 -74 -15.667 -128.667 -47 -164s-73 -53 -125 -53c-48.667 0 -83.667 17 -105 51l45 44c15.333 -20 34 -30 56 -30c32.667 0 58.5 12.167 77.5 36.5s28.5 61.5 28.5 111.5z" />
    <glyph glyph-name="afii10052" unicode="&#x403;" horiz-adv-x="566" 
d="M77 0v700h489v-66h-418v-634h-71zM478 853l-188 -91l-23 42l183 107z" />
    <glyph glyph-name="afii10053" unicode="&#x404;" horiz-adv-x="683" 
d="M477 390v-65.999h-368c6 -85.333 36.667 -151.333 92 -198s124.666 -70 207.999 -70c40 0 78.333 9.16699 115 27.5s65.334 44.166 86.001 77.499l50 -34c-22.667 -43.333 -58.167 -76.833 -106.5 -100.5s-97.166 -35.5 -146.499 -35.5
c-110.667 0 -199.834 32.667 -267.501 98s-101.5 152.333 -101.5 261c0 105.333 33.167 191.5 99.5 258.5s153.833 100.5 262.5 100.5c48 0 95.667 -9.83301 143 -29.5s83.333 -48.5 108 -86.5l-53 -41c-19.333 29.333 -48 52 -86 68s-77 24 -117 24
c-76.667 0 -141 -23.5 -193 -70.5s-82.667 -108.167 -92 -183.5h367z" />
    <glyph glyph-name="afii10054" unicode="&#x405;" horiz-adv-x="614" 
d="M496 183c0 30 -10.998 54.6699 -32.998 74.0029s-49.5 33.166 -82.5 41.499s-68.667 17.833 -107 28.5s-74 21.834 -107 33.501s-60.5 31.167 -82.5 58.5s-33 61.333 -33 102c0 52.667 23.5 97.167 70.5 133.5s108.5 54.5 184.5 54.5c114.667 0 197.667 -32 249 -96
l-45 -45c-52.667 50 -120.667 75 -204 75c-19.333 0 -39 -2.16699 -59 -6.5s-39.5 -10.833 -58.5 -19.5s-34.5 -21 -46.5 -37s-18 -34.667 -18 -56c0 -26 8.16699 -47.833 24.5 -65.5s37.666 -31.334 63.999 -41.001s55.166 -18.334 86.499 -26.001
s62.833 -16.167 94.5 -25.5s60.667 -20.5 87 -33.5s47.666 -31.667 63.999 -56s24.5 -53.5 24.5 -87.5c0 -58 -23.667 -105.5 -71 -142.5s-107 -55.5 -179 -55.5c-60 0 -115.667 12.667 -167 38s-89.666 56.666 -114.999 93.999l48 49c23.333 -31.333 56 -58.333 98 -81
s89.667 -34 143 -34c46 0 85.833 11.5 119.5 34.5s50.5 53.5 50.5 91.5z" />
    <glyph glyph-name="afii10055" unicode="&#x406;" horiz-adv-x="245" 
d="M87 0v700h71v-700h-71z" />
    <glyph glyph-name="afii10056" unicode="&#x407;" horiz-adv-x="245" 
d="M7 804c0 10.667 3.83301 19.5 11.5 26.5s17.167 10.5 28.5 10.5c10.667 0 20 -3.66699 28 -11s12 -16 12 -26c0 -11.333 -4 -20.833 -12 -28.5s-17.333 -11.5 -28 -11.5c-11.333 0 -20.833 3.66699 -28.5 11s-11.5 17 -11.5 29zM157 804c0 10.667 4 19.5 12 26.5
s17.667 10.5 29 10.5c10.667 0 19.834 -3.5 27.501 -10.5s11.5 -15.833 11.5 -26.5c0 -12 -3.83301 -21.667 -11.5 -29s-16.834 -11 -27.501 -11c-12 0 -21.833 3.66699 -29.5 11s-11.5 17 -11.5 29zM87 0v700h71v-700h-71z" />
    <glyph glyph-name="afii10057" unicode="&#x408;" horiz-adv-x="485" 
d="M409 700l0.000976562 -492c0 -69.333 -18.833 -122.833 -56.5 -160.5s-87.834 -56.5 -150.501 -56.5c-50 0 -92.333 12.333 -127 37s-60.334 54 -77.001 88l54 40c14.667 -28 34.834 -51.667 60.501 -71s54.167 -29 85.5 -29c45.333 1.33301 80 14.5 104 39.5
s36 66.5 36 124.5v480h71z" />
    <glyph glyph-name="afii10058" unicode="&#x409;" horiz-adv-x="1047" 
d="M756 367l-142 -0.000976562v-301h133c132.667 0 199 52.333 199 157c0 46.667 -16.167 82.334 -48.5 107.001s-79.5 37 -141.5 37zM614 699.999l-0.000976562 -266.998h144c87.333 0 152.666 -18.333 195.999 -55s65 -88.334 65 -155.001
c0 -72 -24.167 -127.167 -72.5 -165.5s-115.166 -57.5 -200.499 -57.5h-203v634h-317v-122c0 -93.333 -5.5 -174.666 -16.5 -243.999s-26 -123 -45 -161s-39.167 -65.833 -60.5 -83.5s-44 -26.5 -68 -26.5c-18.667 0 -30.667 1 -36 3v68c16 0 30.167 2.33301 42.5 7
s26 16.667 41 36s27.333 45.666 37 78.999s17.834 81.166 24.501 143.499s10 136.5 10 222.5v144h459z" />
    <glyph glyph-name="afii10059" unicode="&#x40a;" horiz-adv-x="1046" 
d="M615 413l144 -0.000976562c172.667 0 259 -66.667 259 -200c0 -71.333 -23.5 -124.666 -70.5 -159.999s-113.5 -53 -199.5 -53h-204v347h-396v-347h-71v700h71v-287h396v287h71v-287zM758 346.999h-143v-281h134c130.667 0 196 48.667 196 146c0 90 -62.333 135 -187 135
z" />
    <glyph glyph-name="afii10060" unicode="&#x40b;" horiz-adv-x="730" 
d="M3 634l-0.000976562 66h569v-66h-249v-270c48.667 43.333 104.334 65 167.001 65c62 0 111.167 -18.5 147.5 -55.5s54.5 -94.167 54.5 -171.5v-202h-71v190c0 115.333 -48.667 173 -146 173c-27.333 0 -55.5 -7.5 -84.5 -22.5s-51.5 -34.5 -67.5 -58.5v-282h-71v634h-249
z" />
    <glyph glyph-name="afii10061" unicode="&#x40c;" horiz-adv-x="650" 
d="M77 0v700h71v-358l381 358h93l-339 -319l365 -381h-97l-319 334l-84 -77v-257h-71zM473 853l-188 -91l-23 42l183 107z" />
    <glyph glyph-name="afii10062" unicode="&#x40e;" horiz-adv-x="674" 
d="M195 16l30 58c8 -4 16.333 -6 25 -6c28.667 0 59.667 34 93 102l-343 530h83l297 -460l222 460h72l-265 -542c-25.333 -54 -50.5 -93.833 -75.5 -119.5s-54.167 -38.5 -87.5 -38.5c-20.667 -0 -37.667 5.33301 -51 16zM179 878l60 10c20.667 -42.667 58.667 -64 114 -64
c27.333 0 51.166 5.5 71.499 16.5s33.5 26.833 39.5 47.5l59 -10c-8 -35.333 -27 -62.833 -57 -82.5s-67.333 -29.5 -112 -29.5c-47.333 0 -85.666 10 -114.999 30s-49.333 47.333 -60 82z" />
    <glyph glyph-name="afii10145" unicode="&#x40f;" horiz-adv-x="716" 
d="M77 0v700h71v-635h419v635h71v-700h-247v-154h-67v154h-247z" />
    <glyph glyph-name="afii10017" unicode="&#x410;" horiz-adv-x="678" 
d="M3 0l307 702h58l307 -702h-74l-85 192h-359l-82 -192h-72zM337 608l-151 -352h304z" />
    <glyph glyph-name="afii10018" unicode="&#x411;" horiz-adv-x="658" 
d="M568 700l0.000976562 -66h-420v-229h218c83.333 0 146.666 -16.667 189.999 -50s65 -81.666 65 -144.999c0 -70.667 -24 -123.334 -72 -158.001s-115.667 -52 -203 -52h-269v700h491zM359.001 339h-211v-273h205c130 0 195 47.667 195 143c0 86.667 -63 130 -189 130z
" />
    <glyph glyph-name="afii10019" unicode="&#x412;" horiz-adv-x="671" 
d="M77 0l0.000976562 700.001h273c90.667 0 154.667 -15.167 192 -45.5s56 -72.5 56 -126.5c0 -39.333 -9.33301 -73.333 -28 -102s-45.334 -49.334 -80.001 -62.001c41.333 -6 74 -23.667 98 -53s36 -67.333 36 -114c0 -131.333 -92.333 -197 -277 -197h-270z
M360.001 325.001l-212.001 -0.000976562v-259h203c68.667 0 119.334 10.833 152.001 32.5s49 55.834 49 102.501c0 82.667 -64 124 -192 124zM349 634l-201 -0.000976562v-244h215c49.333 0 89 11 119 33s45 52.333 45 91c0 40.667 -13.5 70.834 -40.5 90.501
s-72.833 29.5 -137.5 29.5z" />
    <glyph glyph-name="afii10020" unicode="&#x413;" horiz-adv-x="566" 
d="M77 0v700h489v-66h-418v-634h-71z" />
    <glyph glyph-name="afii10021" unicode="&#x414;" horiz-adv-x="735" 
d="M0 -131v196h74c68.667 102.667 103 271 103 505v130h457v-635h91v-196h-67v131h-591v-131h-67zM244 635v-78c0 -92.667 -8.16699 -186.167 -24.5 -280.5s-39.5 -164.833 -69.5 -211.5h413v570h-319z" />
    <glyph glyph-name="afii10022" unicode="&#x415;" horiz-adv-x="638" 
d="M77 0v700h499v-66h-428v-245h400v-66h-400v-257h438v-66h-509z" />
    <glyph glyph-name="afii10024" unicode="&#x416;" horiz-adv-x="917" 
d="M321 381l-309 319h86l325 -331v331h70v-332l326 332h86l-312 -319l321 -381h-85l-290 343l-46 -47v-296h-70v299l-48 47l-289 -346h-83z" />
    <glyph glyph-name="afii10025" unicode="&#x417;" horiz-adv-x="643" 
d="M322 -9c-70.667 0 -133.164 12.998 -187.497 38.998s-93.5 59.333 -117.5 100l50 40c62 -75.333 147 -113 255 -113c58.667 0 107 13.333 145 40s57 62 57 106c0 36 -17.333 65.333 -52 88s-80.334 34 -137.001 34h-128v66h122c46 0 85.667 12 119 36s50 54.333 50 91
c0 40.667 -18.167 71.667 -54.5 93s-81.833 32 -136.5 32c-94 0 -167.667 -36.333 -221 -109l-54 39c66.667 90.667 161 136 283 136c75.333 0 136.666 -17 183.999 -51s71 -81.667 71 -143c0 -32.667 -10.667 -62.167 -32 -88.5s-49 -47.166 -83 -62.499
c45.333 -9.33301 80.166 -29.166 104.499 -59.499s36.5 -64.5 36.5 -102.5c0 -65.333 -26 -116.833 -78 -154.5s-117.333 -56.5 -196 -56.5z" />
    <glyph glyph-name="afii10026" unicode="&#x418;" horiz-adv-x="738" 
d="M138 0h-61v700h71v-580l451 580h62v-700h-71v580z" />
    <glyph glyph-name="afii10027" unicode="&#x419;" horiz-adv-x="738" 
d="M138 0h-61v700h71v-580l451 580h62v-700h-71v580zM196 878l60 10c20.667 -42.667 58.667 -64 114 -64c27.333 0 51.166 5.5 71.499 16.5s33.5 26.833 39.5 47.5l59 -10c-8 -35.333 -27 -62.833 -57 -82.5s-67.333 -29.5 -112 -29.5c-47.333 0 -85.666 10 -114.999 30
s-49.333 47.333 -60 82z" />
    <glyph glyph-name="afii10028" unicode="&#x41a;" horiz-adv-x="650" 
d="M77 0v700h71v-358l381 358h93l-339 -319l365 -381h-97l-319 334l-84 -77v-257h-71z" />
    <glyph glyph-name="afii10029" unicode="&#x41b;" horiz-adv-x="704" 
d="M555 0l-0.000976562 635.001h-329v-123c0 -93.333 -5.5 -174.666 -16.5 -243.999s-26 -123 -45 -161s-39.167 -65.833 -60.5 -83.5s-44 -26.5 -68 -26.5c-18.667 0 -30.667 1 -36 3v68c16 0 30.167 2.33301 42.5 7s26 16.667 41 36s27.333 45.666 37 78.999
s17.834 81.166 24.501 143.499s10 136.5 10 222.5v144h471v-700h-71z" />
    <glyph glyph-name="afii10030" unicode="&#x41c;" horiz-adv-x="833" 
d="M77 0v700h68l278 -370l267 370h65v-700h-71v581l-257 -351h-16l-263 351v-581h-71z" />
    <glyph glyph-name="afii10031" unicode="&#x41d;" horiz-adv-x="746" 
d="M598 0v323h-450v-323h-71v700h71v-311h450v311h71v-700h-71z" />
    <glyph glyph-name="afii10032" unicode="&#x41e;" horiz-adv-x="783" 
d="M38 350c0 101.333 34.167 186.5 102.5 255.5s152.166 103.5 251.499 103.5s183 -34 251 -102s102 -153.667 102 -257c0 -102.667 -34 -188.167 -102 -256.5s-151.667 -102.5 -251 -102.5s-183.166 34 -251.499 102s-102.5 153.667 -102.5 257zM111 350
c0 -83.333 27.5 -153 82.5 -209s121.167 -84 198.5 -84c80 0 146.667 27.833 200 83.5s80 125.5 80 209.5s-27.333 153.833 -82 209.5s-120.667 83.5 -198 83.5c-78 0 -144.333 -27.833 -199 -83.5s-82 -125.5 -82 -209.5z" />
    <glyph glyph-name="afii10033" unicode="&#x41f;" horiz-adv-x="741" 
d="M592 0v634h-444v-634h-71v700h586v-700h-71z" />
    <glyph glyph-name="afii10034" unicode="&#x420;" horiz-adv-x="651" 
d="M148 0h-70.999v700h252c189.333 0 284 -71.333 284 -214c0 -62 -22.833 -113.5 -68.5 -154.5s-117.834 -61.5 -216.501 -61.5h-180v-270zM334.001 635h-186v-300h178c72 0 125.667 13.5 161 40.5s53 64.167 53 111.5c0 98.667 -68.667 148 -206 148z" />
    <glyph glyph-name="afii10035" unicode="&#x421;" horiz-adv-x="686" 
d="M624 154l39.999 -46c-25.333 -34.667 -62 -62.834 -110 -84.501s-99.333 -32.5 -154 -32.5c-110.667 0 -198.667 32.5 -264 97.5s-98 152.167 -98 261.5c0 102.667 32.167 188.167 96.5 256.5s149.5 102.5 255.5 102.5c58.667 0 111 -10.667 157 -32
s81.333 -47.666 106 -78.999l-43 -45c-31.333 30 -63.833 52.333 -97.5 67s-75.167 22 -124.5 22c-85.333 0 -152.833 -27 -202.5 -81s-74.5 -124.333 -74.5 -211c0 -88 26.833 -158.667 80.5 -212s124.167 -80 211.5 -80c90.667 0 164.334 32 221.001 96z" />
    <glyph glyph-name="afii10036" unicode="&#x422;" horiz-adv-x="577" 
d="M3 634v66h571v-66h-250v-634h-71v634h-250z" />
    <glyph glyph-name="afii10037" unicode="&#x423;" horiz-adv-x="674" 
d="M195 16l30 58c8 -4 16.333 -6 25 -6c28.667 0 59.667 34 93 102l-343 530h83l297 -460l222 460h72l-265 -542c-25.333 -54 -50.5 -93.833 -75.5 -119.5s-54.167 -38.5 -87.5 -38.5c-20.667 -0 -37.667 5.33301 -51 16z" />
    <glyph glyph-name="afii10038" unicode="&#x424;" horiz-adv-x="861" 
d="M395 -15l-0.000976562 87.001h-5c-109.333 0 -196.833 26 -262.5 78s-98.5 122 -98.5 210c0 91.333 33.833 162.166 101.5 212.499s155.834 75.5 264.501 75.5v67h70v-67c66 0 126 -10 180 -30s98.667 -52.333 134 -97s53 -98.334 53 -161.001
c0 -87.333 -33 -157.166 -99 -209.499s-153.333 -78.5 -262 -78.5h-6v-87h-70zM467.999 584.001h-3v-448h6c87.333 0 157.166 19.833 209.499 59.5s78.5 94.5 78.5 164.5c0 69.333 -25.667 124 -77 164s-122.666 60 -213.999 60zM101.999 360.001
c0 -68.667 26.167 -123.167 78.5 -163.5s122.5 -60.5 210.5 -60.5h4v448c-84 0 -153.833 -19 -209.5 -57s-83.5 -93.667 -83.5 -167z" />
    <glyph glyph-name="afii10039" unicode="&#x425;" horiz-adv-x="645" 
d="M619 700l-253 -344l262 -356h-84l-222 300l-221 -300h-84l262 356l-251 344h83l212 -288l212 288h84z" />
    <glyph glyph-name="afii10040" unicode="&#x426;" horiz-adv-x="743" 
d="M77 0v700h71v-634h423v634h71v-634h91v-197h-67v131h-589z" />
    <glyph glyph-name="afii10041" unicode="&#x427;" horiz-adv-x="677" 
d="M600 700l-0.000976562 -700h-71v309c-21.333 -13.333 -54.166 -25.5 -98.499 -36.5s-85.833 -16.5 -124.5 -16.5c-78 0 -140.5 18.5 -187.5 55.5s-70.5 94.167 -70.5 171.5v217h71v-191c0 -64.667 16.5 -112 49.5 -142s83.833 -45 152.5 -45
c33.333 0 69.833 5.66699 109.5 17s72.5 24.333 98.5 39v322h71z" />
    <glyph glyph-name="afii10042" unicode="&#x428;" horiz-adv-x="917" 
d="M77 0v700h71v-634h275v634h71v-634h275v634h71v-700h-763z" />
    <glyph glyph-name="afii10043" unicode="&#x429;" horiz-adv-x="941" 
d="M77 0v700h71v-634h275v634h71v-634h275v634h71v-634h91v-197h-67v131h-787z" />
    <glyph glyph-name="afii10044" unicode="&#x42a;" horiz-adv-x="747" 
d="M0 634v66h242v-269h197c92.667 0 162.5 -18 209.5 -54s70.5 -87.333 70.5 -154c0 -72.667 -25.167 -128 -75.5 -166s-121.5 -57 -213.5 -57h-259v634h-171zM437 365h-195v-299h192c141.333 0 212 52.333 212 157c0 46.667 -18.167 82 -54.5 106s-87.833 36 -154.5 36z
" />
    <glyph glyph-name="afii10045" unicode="&#x42b;" horiz-adv-x="843" 
d="M695 0v700h71v-700h-71zM314 365h-166.001v-299h164c139.333 0 209 52.333 209 157c0 46.667 -17.667 82 -53 106s-86.666 36 -153.999 36zM147.999 700l-0.000976562 -269h169c92 0 161.5 -18.167 208.5 -54.5s70.5 -87.5 70.5 -153.5
c0 -72.667 -25.167 -128 -75.5 -166s-121.166 -57 -212.499 -57h-231v700h71z" />
    <glyph glyph-name="afii10046" unicode="&#x42c;" horiz-adv-x="653" 
d="M344 365h-196v-299h193c68 0 120.167 13.167 156.5 39.5s54.5 65.5 54.5 117.5c0 46.667 -18 82 -54 106s-87.333 36 -154 36zM148 700l-0.000976562 -269h198c92 0 161.5 -18 208.5 -54s70.5 -87.333 70.5 -154c0 -72.667 -25.167 -128 -75.5 -166
s-121.166 -57 -212.499 -57h-260v700h71z" />
    <glyph glyph-name="afii10047" unicode="&#x42d;" horiz-adv-x="692" 
d="M199 324l0.000976562 66.001h382c-7.33301 78 -36 139.833 -86 185.5s-116 68.5 -198 68.5c-41.333 0 -83.5 -10.5 -126.5 -31.5s-77.833 -48.5 -104.5 -82.5l-48 45c31.333 42 73.166 74.833 125.499 98.5s105.5 35.5 159.5 35.5c108 0 193.5 -32 256.5 -96
s94.5 -150.667 94.5 -260c0 -106.667 -32 -193.667 -96 -261s-151.667 -101 -263 -101c-54 0 -106 10.667 -156 32s-90.333 53.666 -121 96.999l49 40c24 -31.333 57.667 -56.5 101 -75.5s87.333 -28.5 132 -28.5c80 0 145.5 24.833 196.5 74.5s79.5 114.167 85.5 193.5
h-383z" />
    <glyph glyph-name="afii10048" unicode="&#x42e;" horiz-adv-x="987" 
d="M77 0l-0.00195312 700h71v-311h131c10 92 45.667 168.333 107 229s137 91 227 91c98.667 0 179.334 -33.667 242.001 -101s94 -153.333 94 -258c0 -103.333 -31.667 -189 -95 -257s-143.666 -102 -240.999 -102c-94 0 -171.5 31.167 -232.5 93.5
s-95.167 142.5 -102.5 240.5h-130v-325h-71zM349.998 350c0 -84 25 -153.833 75 -209.5s112.667 -83.5 188 -83.5c78.667 0 142.167 27.5 190.5 82.5s72.5 125.167 72.5 210.5s-24.667 155.5 -74 210.5s-112.333 82.5 -189 82.5c-76 0 -138.833 -27.667 -188.5 -83
s-74.5 -125.333 -74.5 -210z" />
    <glyph glyph-name="afii10049" unicode="&#x42f;" horiz-adv-x="676" 
d="M528 0v267.999h-209l-224 -268h-87l234 278c-58 10 -103.833 33.333 -137.5 70s-50.5 82.334 -50.5 137.001c0 62.667 23 114.167 69 154.5s113.333 60.5 202 60.5h274v-700h-71zM296 333.999h232v301h-212c-64 0 -111.167 -14 -141.5 -42s-45.5 -65 -45.5 -111
c0 -40 14.667 -73.5 44 -100.5s70.333 -42.833 123 -47.5z" />
    <glyph glyph-name="afii10065" unicode="&#x430;" horiz-adv-x="533" 
d="M96 410l-35 49.999c24 22 54.5 39.667 91.5 53s73.5 20 109.5 20c70 0 123.167 -18.167 159.5 -54.5s54.5 -88.166 54.5 -155.499v-323h-65v86c-42 -62 -107.333 -93 -196 -93c-56 0 -101.333 14.167 -136 42.5s-52 65.833 -52 112.5c0 105.333 84.333 158 253 158
c51.333 0 95 -5.33301 131 -16c0 58.667 -11.333 103.5 -34 134.5s-63.667 46.5 -123 46.5c-53.333 0 -106 -20.333 -158 -61zM233 52.999c44 0 81.666 12.334 112.999 37.001s53 51 65 79v62c-35.333 10.667 -76 16 -122 16c-63.333 0 -111.5 -7.16699 -144.5 -21.5
s-49.5 -38.833 -49.5 -73.5c0 -30.667 12.833 -54.834 38.5 -72.501s58.834 -26.5 99.501 -26.5z" />
    <glyph glyph-name="afii10066" unicode="&#x431;" horiz-adv-x="605" 
d="M504 743l10.001 -59.998c-26 -10.667 -74.833 -18.5 -146.5 -23.5s-120.5 -13.833 -146.5 -26.5c-82 -40.667 -123 -120 -123 -238c19.333 36.667 49.666 64.5 90.999 83.5s86.333 28.5 135 28.5c75.333 0 135.333 -22.333 180 -67s67 -106 67 -184
c0 -74.667 -25 -137.667 -75 -189s-113 -77 -189 -77c-84 0 -150.333 27.167 -199 81.5s-73 131.166 -73 230.499c0 105.333 10.333 187.5 31 246.5s63 104.5 127 136.5c34 17.333 88.167 29.166 162.5 35.499s123.833 13.833 148.5 22.5zM104.001 290.002v-3.99902
c0 -72.667 18.833 -129.834 56.5 -171.501s86.167 -62.5 145.5 -62.5c56.667 0 103.5 19.333 140.5 58s55.5 86.334 55.5 143.001c0 59.333 -17 106.166 -51 140.499s-81.333 51.5 -142 51.5c-54 0 -99.167 -15.5 -135.5 -46.5s-59.5 -67.167 -69.5 -108.5z" />
    <glyph glyph-name="afii10067" unicode="&#x432;" horiz-adv-x="543" 
d="M66 0v520.001h213c71.333 0 123.833 -9.83301 157.5 -29.5s50.5 -53.167 50.5 -100.5c0 -52.667 -24.333 -91.334 -73 -116.001c61.333 -16.667 92 -59.667 92 -129c0 -47.333 -18.5 -83.333 -55.5 -108s-91.167 -37 -162.5 -37h-222zM296 235.001h-165v-174h150
c104 0 156 29.667 156 89c0 56.667 -47 85 -141 85zM276 459.001h-144.999v-164h173c35.333 0 63.166 7.5 83.499 22.5s30.5 35.833 30.5 62.5c0 30.667 -12.5 51.5 -37.5 62.5s-59.833 16.5 -104.5 16.5z" />
    <glyph glyph-name="afii10068" unicode="&#x433;" horiz-adv-x="438" 
d="M66 0v520h371v-62h-306v-458h-65z" />
    <glyph glyph-name="afii10069" unicode="&#x434;" horiz-adv-x="594" 
d="M4 -130v192h56c48 69.333 72 185 72 347v111h381v-458h77v-192h-62v130h-462v-130h-62zM195 458v-60.999c0 -150.667 -21 -262.334 -63 -335.001h316v396h-253z" />
    <glyph glyph-name="afii10070" unicode="&#x435;" horiz-adv-x="570" 
d="M473 138l44.001 -38.999c-46.667 -72.667 -115.667 -109 -207 -109c-82.667 0 -149.334 24.667 -200.001 74s-76 115 -76 197c0 79.333 23.167 144.5 69.5 195.5s110.833 76.5 193.5 76.5c69.333 0 126.5 -21.667 171.5 -65s67.5 -100.333 67.5 -171
c0 -13.333 -1.33301 -32 -4 -56h-429c0.666992 -58.667 20.5 -104.834 59.5 -138.501s89.167 -50.5 150.5 -50.5c32 0 62.667 8.16699 92 24.5s52 36.833 68 61.5zM292.001 472.001c-54 0 -97.667 -15.8311 -131 -47.498s-53 -72.834 -59 -123.501h364
c-1.33301 53.333 -17.5 95.166 -48.5 125.499s-72.833 45.5 -125.5 45.5z" />
    <glyph glyph-name="afii10072" unicode="&#x436;" horiz-adv-x="752" 
d="M253 278l-241 242h83l247 -243v243h65v-243l248 243h82l-244 -240l256 -280h-84l-223 240l-35 -33v-207h-65v206l-42 30l-216 -236h-81z" />
    <glyph glyph-name="afii10073" unicode="&#x437;" horiz-adv-x="517" 
d="M258 -10c-110.667 0 -190.334 38.334 -239.001 115.001l52 37c15.333 -26.667 38.833 -48.5 70.5 -65.5s67.834 -25.5 108.501 -25.5c46 0 84.333 9.33301 115 28s46 43.667 46 75c0 54 -39.667 81 -119 81h-126v60h120c28 0 52.5 8.16699 73.5 24.5s31.5 37.5 31.5 63.5
c0 28.667 -13.5 50.667 -40.5 66s-61.833 23 -104.5 23c-63.333 0 -116.666 -25.333 -159.999 -76l-49 32c16.667 27.333 44.167 51.666 82.5 72.999s83.5 32 135.5 32c64 0 114.333 -12.5 151 -37.5s55 -58.5 55 -100.5c0 -52.667 -23.333 -91.667 -70 -117
c33.333 -14 56.5 -30.667 69.5 -50s19.5 -43 19.5 -71c0 -52 -21.333 -92.833 -64 -122.5s-95.334 -44.5 -158.001 -44.5z" />
    <glyph glyph-name="afii10074" unicode="&#x438;" horiz-adv-x="603" 
d="M129 0h-63v520h65v-424l343 424h63v-520h-65v423z" />
    <glyph glyph-name="afii10075" unicode="&#x439;" horiz-adv-x="603" 
d="M129 0h-63v520h65v-424l343 424h63v-520h-65v423zM146 746h62.999c0.666992 -27.333 9.83398 -49.333 27.501 -66s42.167 -25 73.5 -25c29.333 0 52.833 8.5 70.5 25.5s26.834 38.833 27.501 65.5h61c-0.666992 -42.667 -16 -77.5 -46 -104.5s-67.667 -40.5 -113 -40.5
c-49.333 0 -88.833 13.167 -118.5 39.5s-44.834 61.5 -45.501 105.5z" />
    <glyph glyph-name="afii10076" unicode="&#x43a;" horiz-adv-x="525" 
d="M66 0v520h65v-251l288 251h89l-279 -241l295 -279h-90l-256 239l-47 -42v-197h-65z" />
    <glyph glyph-name="afii10077" unicode="&#x43b;" horiz-adv-x="582" 
d="M452 0l-0.000976562 457.999h-259v-93c0 -72 -5.16699 -133.833 -15.5 -185.5s-24.666 -90.667 -42.999 -117s-37.833 -44.666 -58.5 -54.999s-43 -13.833 -67 -10.5l-6 65c15.333 -2 29.5 0.5 42.5 7.5s26.167 20.167 39.5 39.5s23.833 51 31.5 95s11.5 98.333 11.5 163
v153h389v-520h-65z" />
    <glyph glyph-name="afii10078" unicode="&#x43c;" horiz-adv-x="672" 
d="M66 0v520h61l213 -275l209 275h57v-520h-65v408l-201 -263l-209 263v-408h-65z" />
    <glyph glyph-name="afii10079" unicode="&#x43d;" horiz-adv-x="593" 
d="M462 0v234h-331v-234h-65v520h65v-224h331v224h65v-520h-65z" />
    <glyph glyph-name="afii10080" unicode="&#x43e;" horiz-adv-x="616" 
d="M34 261c0 79.333 25.333 144.5 76 195.5s116.667 76.5 198 76.5c80.667 0 146.5 -25.5 197.5 -76.5s76.5 -116.167 76.5 -195.5c0 -78.667 -25.5 -143.5 -76.5 -194.5s-116.833 -76.5 -197.5 -76.5s-146.5 25.5 -197.5 76.5s-76.5 115.833 -76.5 194.5zM103 261
c0 -61.333 19.167 -111.499 57.5 -150.499s87.5 -58.5 147.5 -58.5s109.167 19.333 147.5 58s57.5 89 57.5 151c0 61.333 -19.5 111.666 -58.5 150.999s-87.833 59 -146.5 59c-59.333 0 -108.333 -19.5 -147 -58.5s-58 -89.5 -58 -151.5z" />
    <glyph glyph-name="afii10081" unicode="&#x43f;" horiz-adv-x="587" 
d="M456 0v458h-325v-458h-65v520h455v-520h-65z" />
    <glyph glyph-name="afii10082" unicode="&#x440;" horiz-adv-x="597" 
d="M66 -200l0.000976562 720h65v-77c38 60 99.667 90 185 90c75.333 0 135.166 -24.333 179.499 -73s66.5 -112 66.5 -190c0 -80.667 -24.167 -147.5 -72.5 -200.5s-110.5 -79.5 -186.5 -79.5c-74 0 -131.333 20.667 -172 62v-252h-65zM310.001 471
c-43.333 0 -80.999 -12.333 -112.999 -37s-54 -53.667 -66 -87v-202c34 -62 90.667 -93 170 -93c55.333 0 101.166 20 137.499 60s54.5 91 54.5 153s-16.5 111.833 -49.5 149.5s-77.5 56.5 -133.5 56.5z" />
    <glyph glyph-name="afii10083" unicode="&#x441;" horiz-adv-x="528" 
d="M473 135l45.002 -35.999c-18 -34 -46.667 -60.667 -86 -80s-79.666 -29 -120.999 -29c-82.667 0 -149.5 24.667 -200.5 74s-76.5 115 -76.5 197c0 78 25.167 142.833 75.5 194.5s116.166 77.5 197.499 77.5c42 0 81.667 -9 119 -27s65 -42 83 -72l-51 -36
c-36.667 48.667 -87 73 -151 73c-58.667 0 -107.334 -19.833 -146.001 -59.5s-58 -89.834 -58 -150.501c0 -63.333 19.667 -114 59 -152s90.666 -57 153.999 -57c66 0 118.333 27.667 157 83z" />
    <glyph glyph-name="afii10084" unicode="&#x442;" horiz-adv-x="479" 
d="M1 458v62h477v-62h-207v-458h-65v458h-205z" />
    <glyph glyph-name="afii10085" unicode="&#x443;" horiz-adv-x="535" 
d="M92 -203l18.001 63.001c12 -4 20.333 -6 25 -6c22.667 0 42.5 8.66699 59.5 26s35.167 49.666 54.5 96.999l14 34l-266 509h78l222 -427l169 427h72l-210 -518c-34 -84 -64.833 -140.333 -92.5 -169s-60.834 -43 -99.501 -43c-16 0 -30.667 2.33301 -44 7z" />
    <glyph glyph-name="afii10086" unicode="&#x444;" horiz-adv-x="703" 
d="M318 -200l0.000976562 189.999h-6c-86.667 0 -154.834 25 -204.501 75s-74.5 114.667 -74.5 194c0 74.667 25 138.334 75 191.001s117.667 79 203 79h7v201h65v-201h8c83.333 0 150.5 -25.5 201.5 -76.5s76.5 -115.5 76.5 -193.5c0 -79.333 -24.833 -144 -74.5 -194
s-118.167 -75 -205.5 -75h-6v-190h-65zM102.001 258.999c0 -62.667 18.168 -112.833 54.501 -150.5s88.166 -56.5 155.499 -56.5h6v415h-7c-65.333 0 -116.5 -19.333 -153.5 -58s-55.5 -88.667 -55.5 -150zM389.002 467l-6 -0.000976562v-415h6
c68 0 120.167 18.833 156.5 56.5s54.5 87.834 54.5 150.501c0 58.667 -18.833 108 -56.5 148s-89.167 60 -154.5 60z" />
    <glyph glyph-name="afii10087" unicode="&#x445;" horiz-adv-x="522" 
d="M504 520l-198 -250l209 -270h-82l-173 225l-177 -225h-76l208 268l-197 252h81l164 -207l162 207h79z" />
    <glyph glyph-name="afii10088" unicode="&#x446;" horiz-adv-x="603" 
d="M66 0v520h65v-458h322v458h65v-458h76v-192h-62v130h-466z" />
    <glyph glyph-name="afii10089" unicode="&#x447;" horiz-adv-x="541" 
d="M475 520l-0.00195312 -520.001h-65v229c-18.667 -19.333 -43.667 -34.666 -75 -45.999s-63.666 -17 -96.999 -17c-134 0 -201 69 -201 207v147h65v-135c0 -104.667 48.667 -157 146 -157c34 0 65.833 8 95.5 24s51.834 34.667 66.501 56v212h65z" />
    <glyph glyph-name="afii10090" unicode="&#x448;" horiz-adv-x="749" 
d="M66 0v520h65v-458h211v458h65v-458h211v458h65v-520h-617z" />
    <glyph glyph-name="afii10091" unicode="&#x449;" horiz-adv-x="768" 
d="M66 0v520h65v-458h211v458h65v-458h211v458h65v-458h76v-192h-61v130h-632z" />
    <glyph glyph-name="afii10092" unicode="&#x44a;" horiz-adv-x="591" 
d="M1 458v62h206v-169h148c138.667 0 208 -58.333 208 -175c0 -51.333 -16.833 -93.5 -50.5 -126.5s-88.5 -49.5 -164.5 -49.5h-206v458h-141zM345 289h-138v-227h137c100 0 150 37.667 150 113c0 76 -49.667 114 -149 114z" />
    <glyph glyph-name="afii10093" unicode="&#x44b;" horiz-adv-x="686" 
d="M66 0v520h65v-170h127c139.333 0 209 -58 209 -174c0 -51.333 -17.167 -93.5 -51.5 -126.5s-89.833 -49.5 -166.5 -49.5h-183zM248 288h-117v-226h116c100.667 0 151 37.667 151 113s-50 113 -150 113zM556 0v520h65v-520h-65z" />
    <glyph glyph-name="afii10094" unicode="&#x44c;" horiz-adv-x="517" 
d="M66 0v520h65v-170h149c139.333 0 209 -58 209 -174c0 -51.333 -17.167 -93.5 -51.5 -126.5s-89.5 -49.5 -165.5 -49.5h-206zM269 288h-138v-226h137c101.333 0 152 37.667 152 113s-50.333 113 -151 113z" />
    <glyph glyph-name="afii10095" unicode="&#x44d;" horiz-adv-x="540" 
d="M166 236l0.00292969 60h269c-6.66699 56.667 -27.334 100 -62.001 130s-79.334 45 -134.001 45c-79.333 0 -138.666 -29.333 -177.999 -88l-51 35c24.667 35.333 56.667 63.333 96 84s82.666 31 129.999 31c83.333 0 149.166 -24.5 197.499 -73.5
s72.5 -115.167 72.5 -198.5c0 -79.333 -23.833 -144.333 -71.5 -195s-112.5 -76 -194.5 -76c-105.333 0 -181.333 34.667 -228 104l49 38c38 -53.333 96.333 -80 175 -80c57.333 0 104.333 17.333 141 52s56.667 78.667 60 132h-271z" />
    <glyph glyph-name="afii10096" unicode="&#x44e;" horiz-adv-x="815" 
d="M66 0l0.000976562 520h65v-220h120c8.66699 69.333 37.167 125.5 85.5 168.5s107.833 64.5 178.5 64.5c78 0 141.667 -25.5 191 -76.5s74 -116.167 74 -195.5c0 -78.667 -24.667 -143.5 -74 -194.5s-113 -76.5 -191 -76.5c-73.333 0 -134.333 22.667 -183 68
s-76.334 104 -83.001 176h-118v-234h-65zM318.001 261c0 -60.667 18.8301 -110 56.4971 -148s84.834 -57 141.501 -57s103.334 18.833 140.001 56.5s55 87.167 55 148.5c0 60.667 -18.167 110.167 -54.5 148.5s-83.166 57.5 -140.499 57.5c-56 0 -103 -19.333 -141 -58
s-57 -88 -57 -148z" />
    <glyph glyph-name="afii10097" unicode="&#x44f;" horiz-adv-x="537" 
d="M265 520h206v-520h-65v193h-145l-169 -193h-82l177 202c-41.333 5.33301 -75.333 22.333 -102 51s-40 63 -40 103c0 48.667 17.5 88.167 52.5 118.5s90.833 45.5 167.5 45.5zM114 355c0 -29.333 12.667 -53.333 38 -72s59.333 -28 102 -28h152v203h-151
c-48 0 -83.5 -9.33301 -106.5 -28s-34.5 -43.667 -34.5 -75z" />
    <glyph glyph-name="afii10071" unicode="&#x451;" horiz-adv-x="570" 
d="M473 138l44.001 -38.999c-46.667 -72.667 -115.667 -109 -207 -109c-82.667 0 -149.334 24.667 -200.001 74s-76 115 -76 197c0 79.333 23.167 144.5 69.5 195.5s110.833 76.5 193.5 76.5c69.333 0 126.5 -21.667 171.5 -65s67.5 -100.333 67.5 -171
c0 -13.333 -1.33301 -32 -4 -56h-429c0.666992 -58.667 20.5 -104.834 59.5 -138.501s89.167 -50.5 150.5 -50.5c32 0 62.667 8.16699 92 24.5s52 36.833 68 61.5zM292.001 472.001c-54 0 -97.667 -15.8311 -131 -47.498s-53 -72.834 -59 -123.501h364
c-1.33301 53.333 -17.5 95.166 -48.5 125.499s-72.833 45.5 -125.5 45.5zM133.001 689.003c0 11.333 4 20.833 12 28.5s17.333 11.5 28 11.5c11.333 0 21.333 -3.83301 30 -11.5s13 -17.167 13 -28.5c0 -12.667 -4.33301 -22.834 -13 -30.501s-18.667 -11.5 -30 -11.5
c-10.667 0 -20 3.83301 -28 11.5s-12 17.834 -12 30.501zM370.001 689.003c0 12 4.16699 21.667 12.5 29s18.5 11 30.5 11c10.667 0 20.334 -3.83301 29.001 -11.5s13 -17.167 13 -28.5c0 -12.667 -4.33301 -22.834 -13 -30.501s-18.334 -11.5 -29.001 -11.5
c-12 0 -22.167 3.83301 -30.5 11.5s-12.5 17.834 -12.5 30.501z" />
    <glyph glyph-name="afii10099" unicode="&#x452;" horiz-adv-x="649" 
d="M0 520v61.002h142v149h65v-149h229v-61h-229v-199c46.667 57.333 108 86 184 86c146.667 0 220 -78.667 220 -236c0 -170.667 -75.333 -295.334 -226 -374.001l-36 50c130.667 64 196 167 196 309c0 126 -56.333 189 -169 189c-33.333 0 -67 -11.833 -101 -35.5
s-56.667 -49.834 -68 -78.501v-231h-65v520h-142z" />
    <glyph glyph-name="afii10100" unicode="&#x453;" horiz-adv-x="438" 
d="M66 0v520h371v-62h-306v-458h-65zM376 762l-118 -148l-42 30l110 155z" />
    <glyph glyph-name="afii10101" unicode="&#x454;" horiz-adv-x="542" 
d="M368 296l0.00195312 -60h-264c4.66699 -58.667 26.167 -104 64.5 -136s86.5 -48 144.5 -48c65.333 0 115.666 25 150.999 75l51 -32c-46.667 -70 -117.334 -105 -212.001 -105c-78.667 0 -143.167 25.333 -193.5 76s-75.5 115.667 -75.5 195
c0 82.667 25.333 148.667 76 198s117.667 74 201 74c40 0 78.333 -8 115 -24s65.667 -39.667 87 -71l-48 -38c-32 47.333 -83.667 71 -155 71c-56 0 -102.5 -15.167 -139.5 -45.5s-58.833 -73.5 -65.5 -129.5h263z" />
    <glyph glyph-name="afii10102" unicode="&#x455;" horiz-adv-x="497" 
d="M395 138c0 21.333 -11.834 39.1699 -35.501 53.5029s-52.5 26 -86.5 35s-68.167 18.833 -102.5 29.5s-63.333 27 -87 49s-35.5 49.333 -35.5 82c0 44.667 18 80.167 54 106.5s84.667 39.5 146 39.5c40.667 0 79.834 -8.33301 117.501 -25s65.5 -38 83.5 -64l-47 -42
c-14 19.333 -36 35.666 -66 48.999s-61 20 -93 20c-84 0 -126 -26.333 -126 -79c0 -17.333 8.5 -32.5 25.5 -45.5s38.5 -23 64.5 -30s53.833 -15.5 83.5 -25.5s57.5 -20.333 83.5 -31s47.5 -26.334 64.5 -47.001s25.5 -45.334 25.5 -74.001
c0 -48.667 -19.333 -85.667 -58 -111s-87.667 -38 -147 -38c-50.667 0 -97.167 11 -139.5 33s-72.5 51.667 -90.5 89l52 38c16 -30 40.833 -53.833 74.5 -71.5s69.5 -26.5 107.5 -26.5c34 0 64.5 7 91.5 21s40.5 35.667 40.5 65z" />
    <glyph glyph-name="afii10103" unicode="&#x456;" horiz-adv-x="220" 
d="M77 0v520h65v-520h-65zM66 686c0 12 4.50098 22 13.501 30s19.5 12 31.5 12c11.333 0 21.333 -4 30 -12s13 -18 13 -30c0 -12.667 -4.33301 -23.334 -13 -32.001s-18.667 -13 -30 -13c-12.667 0 -23.334 4.33301 -32.001 13s-13 19.334 -13 32.001z" />
    <glyph glyph-name="afii10104" unicode="&#x457;" horiz-adv-x="264" 
d="M98 0v520h65v-520h-65zM18 687c0 12.667 3.83301 22.834 11.5 30.501s17.167 11.5 28.5 11.5c9.33301 0 17.833 -3.83301 25.5 -11.5s11.5 -17.834 11.5 -30.501c0 -14 -3.83301 -24.833 -11.5 -32.5s-16.167 -11.5 -25.5 -11.5c-11.333 0 -20.833 4.16699 -28.5 12.5
s-11.5 18.833 -11.5 31.5zM172 687c0 13.333 3.5 23.667 10.5 31s15.833 11 26.5 11s19.5 -3.5 26.5 -10.5s10.5 -17.5 10.5 -31.5c0 -13.333 -3.5 -24 -10.5 -32s-15.833 -12 -26.5 -12c-10 0 -18.667 4.16699 -26 12.5s-11 18.833 -11 31.5z" />
    <glyph glyph-name="afii10105" unicode="&#x458;" horiz-adv-x="222" 
d="M146 520v-524.999c0 -136 -51.667 -204 -155 -204c-30.667 0 -58 6.33301 -82 19s-41.667 29.667 -53 51l52 34c16 -18.667 30 -30.334 42 -35.001c10.667 -4.66699 23.667 -7 39 -7c30 0 52.833 12.667 68.5 38s23.5 61 23.5 107v522h65zM69 686.001
c0 12 4.16699 22 12.5 30s18.833 12 31.5 12c12 0 22.167 -4 30.5 -12s12.5 -18 12.5 -30c0 -12.667 -4.16699 -23.334 -12.5 -32.001s-18.5 -13 -30.5 -13c-12.667 0 -23.167 4.33301 -31.5 13s-12.5 19.334 -12.5 32.001z" />
    <glyph glyph-name="afii10106" unicode="&#x459;" horiz-adv-x="834" 
d="M448 458l-255.001 -0.000976562v-93c0 -72 -5.16699 -133.833 -15.5 -185.5s-24.666 -90.667 -42.999 -117s-37.833 -44.666 -58.5 -54.999s-43 -13.833 -67 -10.5l-6 65c15.333 -2 29.5 0.5 42.5 7.5s26.167 20.167 39.5 39.5s23.833 51 31.5 95s11.5 98.333 11.5 163
v153h385v-171h85c138.667 0 208 -58 208 -174c0 -51.333 -16.833 -93.333 -50.5 -126s-88.167 -49 -163.5 -49h-144v458zM589.999 284.999l-77 -0.000976562v-222h76c53.333 0 91.333 9.33301 114 28s34 46.334 34 83.001c0 74 -49 111 -147 111z" />
    <glyph glyph-name="afii10107" unicode="&#x45a;" horiz-adv-x="848" 
d="M66 0v520h65v-206h331v206h65v-206h84c77.333 0 131.5 -13.333 162.5 -40s46.5 -65 46.5 -115c0 -106 -72 -159 -216 -159h-142v252h-331v-252h-65zM603 253l-76 -0.000976562v-191h75c54 0 92.333 7.83301 115 23.5s34 39.834 34 72.501
c0 34.667 -11.333 59.167 -34 73.5s-60.667 21.5 -114 21.5z" />
    <glyph glyph-name="afii10108" unicode="&#x45b;" horiz-adv-x="648" 
d="M0 520v61h142v149h65v-149h229v-61h-229v-197c42 54.667 103.667 82 185 82c144.667 0 217 -78.333 217 -235v-170h-65v161c0 62 -13 107.833 -39 137.5s-69 44.5 -129 44.5c-35.333 0 -69 -10.167 -101 -30.5s-54.667 -47.833 -68 -82.5v-230h-65v520h-142z" />
    <glyph glyph-name="afii10109" unicode="&#x45c;" horiz-adv-x="525" 
d="M66 0v520h65v-251l288 251h89l-279 -241l295 -279h-90l-256 239l-47 -42v-197h-65zM380 762l-118 -148l-42 30l110 155z" />
    <glyph glyph-name="afii10110" unicode="&#x45e;" horiz-adv-x="535" 
d="M92 -203l18.001 63.001c12 -4 20.333 -6 25 -6c22.667 0 42.5 8.66699 59.5 26s35.167 49.666 54.5 96.999l14 34l-266 509h78l222 -427l169 427h72l-210 -518c-34 -84 -64.833 -140.333 -92.5 -169s-60.834 -43 -99.501 -43c-16 0 -30.667 2.33301 -44 7z
M118.001 746.001h62.999c0.666992 -27.333 9.83398 -49.333 27.501 -66s42.167 -25 73.5 -25c29.333 0 52.833 8.5 70.5 25.5s26.834 38.833 27.501 65.5h61c-0.666992 -42.667 -16 -77.5 -46 -104.5s-67.667 -40.5 -113 -40.5c-49.333 0 -88.833 13.167 -118.5 39.5
s-44.834 61.5 -45.501 105.5z" />
    <glyph glyph-name="afii10193" unicode="&#x45f;" horiz-adv-x="619" 
d="M87 0v520h65v-458h319v458h65v-520h-194v-151h-62v151h-193z" />
    <glyph glyph-name="afii10146" unicode="&#x462;" horiz-adv-x="718" 
d="M1 527l-1.00098 66.001h142v107h71v-107h244v-66h-244v-102h198c92.667 0 162.334 -17.667 209.001 -53s70 -86.333 70 -153c0 -72.667 -25 -127.334 -75 -164.001s-121 -55 -213 -55h-260v527h-141zM407.999 359.001h-195v-293h192c141.333 0 212 51 212 153
c0 46.667 -18 81.667 -54 105s-87.667 35 -155 35z" />
    <glyph glyph-name="afii10194" unicode="&#x463;" horiz-adv-x="575" 
d="M379 463h-190v-119h149c139.333 0 209 -57 209 -171c0 -50.667 -17 -92.167 -51 -124.5s-89 -48.5 -165 -48.5h-207v463h-123v57h123v210h65v-210h190v-57zM328 282h-139v-220h138c53.333 0 91.833 9.33301 115.5 28s35.5 46 35.5 82c0 73.333 -50 110 -150 110z" />
    <glyph glyph-name="afii10147" unicode="&#x472;" horiz-adv-x="783" 
d="M38 350c0 101.333 34.167 186.5 102.5 255.5s152.166 103.5 251.499 103.5s183 -34 251 -102s102 -153.667 102 -257c0 -102.667 -34 -188.167 -102 -256.5s-151.667 -102.5 -251 -102.5s-183.166 34 -251.499 102s-102.5 153.667 -102.5 257zM392 57
c74.667 0 137.998 24.667 189.998 74s81.333 112.333 88 189h-558c6.66699 -76 36.834 -138.833 90.501 -188.5s116.834 -74.5 189.501 -74.5zM391.998 643c-72 0 -134.499 -24.167 -187.499 -72.5s-83.5 -109.833 -91.5 -184.5h557
c-8.66699 74.667 -39.334 136.167 -92.001 184.5s-114.667 72.5 -186 72.5z" />
    <glyph glyph-name="afii10195" unicode="&#x473;" horiz-adv-x="616" 
d="M34 261c0 79.333 25.333 144.5 76 195.5s116.667 76.5 198 76.5c80.667 0 146.5 -25.5 197.5 -76.5s76.5 -116.167 76.5 -195.5c0 -78.667 -25.5 -143.5 -76.5 -194.5s-116.833 -76.5 -197.5 -76.5s-146.5 25.5 -197.5 76.5s-76.5 115.833 -76.5 194.5zM308 52
c56 0 102.669 16.833 140.002 50.5s58.666 78.167 63.999 133.5h-408c5.33301 -54.667 26.666 -99 63.999 -133s84 -51 140 -51zM308.002 471c-54 0 -99.666 -16.333 -136.999 -49s-59.333 -75.667 -66 -129h406c-6.66699 52.667 -28.834 95.5 -66.501 128.5
s-83.167 49.5 -136.5 49.5z" />
    <glyph glyph-name="afii10148" unicode="&#x474;" horiz-adv-x="769" 
d="M638 542l-249 -542h-53l-338 700h75l292 -603l219 483c38 84.667 85 127 141 127c22.667 0 44.667 -7.66699 66 -23l-31 -52c-7.33301 7.33301 -18.333 11 -33 11c-16 0 -30.667 -7.83301 -44 -23.5s-28.333 -41.5 -45 -77.5z" />
    <glyph glyph-name="afii10196" unicode="&#x475;" horiz-adv-x="564" 
d="M448 368l-165.999 -367.999h-46l-245 520h76l194 -418l134 302c36 79.333 78 118.666 126 117.999c26.667 0 49 -9.33301 67 -28l-33 -48c-8.66699 8.66699 -19.334 13 -32.001 13c-22.667 0 -47.667 -30.333 -75 -91z" />
    <glyph glyph-name="afii10050" unicode="&#x490;" horiz-adv-x="569" 
d="M77 0v700h423v129h66v-194h-418v-635h-71z" />
    <glyph glyph-name="afii10098" unicode="&#x491;" horiz-adv-x="437" 
d="M66 0v520h308v109h63v-171h-306v-458h-65z" />
    <glyph glyph-name="uni1E9E" unicode="&#x1e9e;" horiz-adv-x="655" 
d="M328 708c122.667 0 202.67 -47.335 240.003 -142.002l-160 -181c73.333 -5.33301 125.166 -25.666 155.499 -60.999s45.166 -78.666 44.499 -129.999c-0.666992 -64.667 -20.834 -114.667 -60.501 -150s-95.5 -53 -167.5 -53c-50 0 -90.333 8 -121 24l23 64
c26.667 -14 60.667 -21 102 -21c46 0 82.667 11.667 110 35s41 57 41 101c0 86.667 -60.333 130 -181 130h-35v53l165 190c-12.667 21.333 -32.667 39.333 -60 54s-59 22 -95 22c-120.667 0 -181 -65 -181 -195v-448h-71v466c0 45.333 7 84.333 21 117s33.5 57.667 58.5 75
s51.5 30 79.5 38s58.667 12 92 12z" />
    <glyph glyph-name="uni2010" unicode="&#x2010;" horiz-adv-x="404" 
d="M82 243v61h240v-61h-240z" />
    <glyph glyph-name="uni2011" unicode="&#x2011;" horiz-adv-x="404" 
d="M82 243v61h240v-61h-240z" />
    <glyph glyph-name="figuredash" unicode="&#x2012;" horiz-adv-x="594" 
d="M92 327v58h410v-58h-410z" />
    <glyph glyph-name="endash" unicode="&#x2013;" horiz-adv-x="594" 
d="M92 243v58h410v-58h-410z" />
    <glyph glyph-name="emdash" unicode="&#x2014;" horiz-adv-x="795" 
d="M92 243v58h612v-58h-612z" />
    <glyph glyph-name="quoteleft" unicode="&#x2018;" horiz-adv-x="240" 
d="M158 547l-55 -34c-21.333 22.667 -32 49 -32 79c0 60.667 28 107 84 139l29 -29c-32.667 -21.333 -49 -53 -49 -95c0 -22 7.66699 -42 23 -60z" />
    <glyph glyph-name="quoteright" unicode="&#x2019;" horiz-adv-x="240" 
d="M83 696l54 33.999c21.333 -22.667 32 -49 32 -79c0 -61.333 -27.667 -107.666 -83 -138.999l-29 29c32 22 48 53.667 48 95c0 22.667 -7.33301 42.667 -22 60z" />
    <glyph glyph-name="quotesinglbase" unicode="&#x201a;" horiz-adv-x="240" 
d="M83 46l54 33.999c21.333 -22.667 32 -49 32 -79c0 -61.333 -27.667 -107.666 -83 -138.999l-29 29c32 22 48 53.667 48 95c0 22.667 -7.33301 42.667 -22 60z" />
    <glyph glyph-name="quotedblleft" unicode="&#x201c;" horiz-adv-x="382" 
d="M158 547l-55 -34c-21.333 22.667 -32 49 -32 79c0 60.667 28 107 84 139l29 -29c-32.667 -21.333 -49 -53 -49 -95c0 -22 7.66699 -42 23 -60zM299 547l-54 -34c-21.333 22.667 -32 49 -32 79c0 60.667 28 107 84 139l29 -29c-32.667 -21.333 -49 -53 -49 -95
c0 -20.667 7.33301 -40.667 22 -60z" />
    <glyph glyph-name="quotedblright" unicode="&#x201d;" horiz-adv-x="382" 
d="M225 696l54 34c21.333 -22.667 32 -49 32 -79c0 -60.667 -28 -107 -84 -139l-29 29c32.667 21.333 49 53 49 95c0 20.667 -7.33301 40.667 -22 60zM83 696l54 33.999c21.333 -22.667 32 -49 32 -79c0 -61.333 -27.667 -107.666 -83 -138.999l-29 29
c32 22 48 53.667 48 95c0 22.667 -7.33301 42.667 -22 60z" />
    <glyph glyph-name="quotedblbase" unicode="&#x201e;" horiz-adv-x="382" 
d="M225 46l54 34c21.333 -22.667 32 -49 32 -79c0 -60.667 -28 -107 -84 -139l-29 29c32.667 21.333 49 53 49 95c0 20.667 -7.33301 40.667 -22 60zM83 46l54 33.999c21.333 -22.667 32 -49 32 -79c0 -61.333 -27.667 -107.666 -83 -138.999l-29 29c32 22 48 53.667 48 95
c0 22.667 -7.33301 42.667 -22 60z" />
    <glyph glyph-name="dagger" unicode="&#x2020;" horiz-adv-x="435" 
d="M37 412v60h148v228h65v-228h149v-60h-149v-510h-65v510h-148z" />
    <glyph glyph-name="daggerdbl" unicode="&#x2021;" horiz-adv-x="437" 
d="M38 413v60h149v227h63v-227h149v-60h-149v-195h149v-60h-149v-256h-63v256h-149v60h149v195h-149z" />
    <glyph glyph-name="bullet" unicode="&#x2022;" horiz-adv-x="268" 
d="M38 362c0 16.667 6.5 31.167 19.5 43.5s28.167 18.5 45.5 18.5s32.333 -6.16699 45 -18.5s19 -26.833 19 -43.5c0 -17.333 -6.33301 -32.166 -19 -44.499s-27.667 -18.5 -45 -18.5s-32.5 6.16699 -45.5 18.5s-19.5 27.166 -19.5 44.499z" />
    </font>
</defs>
</svg>
