<?xml version="1.0" standalone="no"?>
<!DOCTYPE svg PUBLIC "-//W3C//DTD SVG 1.1//EN" "http://www.w3.org/Graphics/SVG/1.1/DTD/svg11.dtd" >
<svg xmlns="http://www.w3.org/2000/svg" xmlns:xlink="http://www.w3.org/1999/xlink" version="1.1">
<metadata>
Created by FontForge 20201107 at Wed Dec 10 15:18:11 2014
 By Jimmy Wärting
Copyright (c) 2014 ParaType, Inc., ParaType Ltd. All rights reserved.
</metadata>
<defs>
<font id="Stem-Thin" horiz-adv-x="580" >
  <font-face 
    font-family="Stem-Thin"
    font-weight="400"
    font-stretch="normal"
    units-per-em="1000"
    panose-1="2 11 3 3 2 2 3 2 2 4"
    ascent="779"
    descent="-221"
    x-height="519.997"
    cap-height="700"
    bbox="-527 -229.005 1177 892.001"
    underline-thickness="50"
    underline-position="-100"
    unicode-range="U+0020-FEFF"
  />
<missing-glyph horiz-adv-x="300" 
 />
    <glyph glyph-name="uniF350.var.accented" unicode="&#xf350;`" horiz-adv-x="558" 
d="M5 0l262 563h25l261 -563h-28l-82 176h-328l-82 -176h-28zM279 531l-153 -330h306zM386 762l-105 -142l-20 15l105 142z" />
    <glyph glyph-name="uniF355.var.accented" unicode="&#xf355;`" horiz-adv-x="538" 
d="M70 0v560h408v-25h-383v-238h359v-25h-359v-247h393v-25h-418zM372 762l-105 -142l-20 15l105 142z" />
    <glyph glyph-name="uniF358.var.accented" unicode="&#xf358;`" horiz-adv-x="620" 
d="M95 0h-25v560h25v-521l430 521h25v-560h-25v521zM403 762l-105 -142l-20 15l105 142z" />
    <glyph glyph-name="uniF35E.var.accented" unicode="&#xf35e;`" horiz-adv-x="668" 
d="M36 280c0 80.667 28.667 148.667 86 204s128 83 212 83c83.333 0 153.666 -27.167 210.999 -81.5s86 -122.833 86 -205.5c0 -82 -28.667 -150.333 -86 -205s-127.666 -82 -210.999 -82c-84 0 -154.667 27.167 -212 81.5s-86 122.833 -86 205.5zM61 280
c0 -73.333 26.668 -135.333 80.001 -186s117.666 -76 192.999 -76c77.333 0 142 25.167 194 75.5s78 112.5 78 186.5c0 74.667 -26.333 137 -79 187s-117 75 -193 75s-140.5 -25 -193.5 -75s-79.5 -112.333 -79.5 -187zM427.001 762l-105 -142l-20 15l105 142z" />
    <glyph glyph-name="uniF363.var.accented" unicode="&#xf363;`" horiz-adv-x="551" 
d="M522 560l28 0.000976562l-234 -446c-22.667 -42.667 -42.667 -72.334 -60 -89.001s-36.333 -25 -57 -25c-24.667 0 -45.667 11 -63 33l17 18c13.333 -17.333 28.333 -26 45 -26c18 0 33.5 7.16699 46.5 21.5s26.5 34.5 40.5 60.5l12 24l-297 429h31l279 -404z
M368 762.001l-105 -142l-20 15l105 142z" />
    <glyph glyph-name="uniF36B.var.accented" unicode="&#xf36b;`" horiz-adv-x="700" 
d="M605 0v560h25v-560h-25zM70 0v560h25v-229h181c74 0 129.167 -14.333 165.5 -43s54.5 -68 54.5 -118c0 -113.333 -76 -170 -228 -170h-198zM276 306h-181v-281h175c134 0 201 48.333 201 145c0 90.667 -65 136 -195 136zM443 762l-105 -142l-20 15l105 142z" />
    <glyph glyph-name="uniF36D.var.accented" unicode="&#xf36d;`" horiz-adv-x="583" 
d="M164 272l-0.00195312 25h357c-4 77.333 -30.167 137.5 -78.5 180.5s-111.5 64.5 -189.5 64.5c-85.333 0 -157.666 -33 -216.999 -99l-18 17c28 33.333 63.5 59.5 106.5 78.5s85.833 28.5 128.5 28.5c89.333 0 160.5 -25.833 213.5 -77.5s79.5 -120.834 79.5 -207.501
c0 -84 -26.667 -153.167 -80 -207.5s-127 -81.5 -221 -81.5c-43.333 0 -84.666 8.16699 -123.999 24.5s-72.333 39.5 -99 69.5l17 18c23.333 -27.333 53.5 -48.666 90.5 -63.999s75.833 -23 116.5 -23c80.667 0 145.5 22.5 194.5 67.5s75.833 107.167 80.5 186.5h-357z
M353.998 762l-105 -142l-20 15l105 142z" />
    <glyph glyph-name="uniF36E.var.accented" unicode="&#xf36e;`" horiz-adv-x="833" 
d="M70 0l0.000976562 560h25v-258h140c3.33301 76.667 31.166 140 83.499 190s117.833 75 196.5 75c81.333 0 148.5 -27 201.5 -81s79.5 -122.667 79.5 -206c0 -82.667 -26.333 -151.167 -79 -205.5s-120 -81.5 -202 -81.5s-148.833 27 -200.5 81s-78.167 121.667 -79.5 203
h-140v-277h-25zM260.001 282c0 -75.333 23.833 -138.167 71.5 -188.5s108.834 -75.5 183.501 -75.5c76 0 137.667 24.833 185 74.5s71 112.167 71 187.5c0 76 -23.833 138.667 -71.5 188s-109.167 74 -184.5 74c-74.667 0 -135.834 -24.333 -183.501 -73
s-71.5 -111 -71.5 -187zM479.001 761.999l-105 -142l-20 15l105 142z" />
    <glyph glyph-name="uniF36F.var.accented" unicode="&#xf36f;`" horiz-adv-x="564" 
d="M469 0l0.000976562 228h-215l-210 -228h-34l211 229c-54.667 6 -97.334 23 -128.001 51s-46 64 -46 108c0 50.667 18.667 92 56 124s90.333 48 159 48h232v-560h-25zM238.001 251h231v284h-209c-62.667 0 -109.667 -13.5 -141 -40.5s-47 -62.5 -47 -106.5
c0 -38 14.833 -69.667 44.5 -95s70.167 -39.333 121.5 -42zM355.001 762l-105 -142l-20 15l105 142z" />
    <glyph glyph-name="uniF371.var.accented" unicode="&#xf371;`" horiz-adv-x="538" 
d="M220 639l126 143l19 -16l-126 -144zM132 693c0 7.33301 2.16699 13.5 6.5 18.5s9.83301 7.5 16.5 7.5s12.167 -2.5 16.5 -7.5s6.5 -11.167 6.5 -18.5s-2.16699 -13.5 -6.5 -18.5s-9.83301 -7.5 -16.5 -7.5s-12.167 2.5 -16.5 7.5s-6.5 11.167 -6.5 18.5zM388 693
c0 7.33301 2.16699 13.5 6.5 18.5s9.83301 7.5 16.5 7.5s12.167 -2.5 16.5 -7.5s6.5 -11.167 6.5 -18.5s-2.16699 -13.5 -6.5 -18.5s-9.83301 -7.5 -16.5 -7.5s-12.167 2.5 -16.5 7.5s-6.5 11.167 -6.5 18.5zM70 0v560h408v-25h-383v-238h359v-25h-359v-247h393v-25h-418z
" />
    <glyph glyph-name="afii10017.var.accented" unicode="&#x410;`" horiz-adv-x="656" 
d="M6 0l307 704h27l310 -704h-29l-100 228h-388l-99 -228h-28zM326 674l-181 -421h366zM303 789l159 90l12 -22l-159 -90z" />
    <glyph glyph-name="afii10022.var.accented" unicode="&#x415;`" horiz-adv-x="630" 
d="M84 0v700h480v-25h-453v-306h423v-25h-423v-319h463v-25h-490zM283 789l159 90l12 -22l-159 -90z" />
    <glyph glyph-name="afii10026.var.accented" unicode="&#x418;`" horiz-adv-x="731" 
d="M111 0h-27v700h27v-659l509 659h27v-700h-27v659zM311 789l159 90l12 -22l-159 -90z" />
    <glyph glyph-name="afii10032.var.accented" unicode="&#x41e;`" horiz-adv-x="785" 
d="M42 350c0 101.333 33.667 186.5 101 255.5s150.333 103.5 249 103.5s181.667 -34 249 -102s101 -153.667 101 -257c0 -102 -33.833 -187.333 -101.5 -256s-150.5 -103 -248.5 -103c-98.667 0 -181.667 34 -249 102s-101 153.667 -101 257zM69 350
c0 -93.333 31.5 -172.333 94.5 -237s139.167 -97 228.5 -97c92 0 168.833 32.167 230.5 96.5s92.5 143.5 92.5 237.5s-31.333 173.167 -94 237.5s-139 96.5 -229 96.5s-166.333 -32.167 -229 -96.5s-94 -143.5 -94 -237.5zM337 789l159 90l12 -22l-159 -90z" />
    <glyph glyph-name="afii10037.var.accented" unicode="&#x423;`" horiz-adv-x="647" 
d="M205 6l11.001 23c8 -2.66699 14.333 -4 19 -4c20 0 38.667 11 56 33s37.666 57 60.999 105l-352 537h32l334 -508l252 508h29l-271 -545c-30.667 -62 -55.667 -103.333 -75 -124s-42 -31 -68 -31c-10 0 -19.333 2 -28 6zM273.001 789l159 90l12 -22l-159 -90z" />
    <glyph glyph-name="afii10045.var.accented" unicode="&#x42b;`" horiz-adv-x="825" 
d="M714 0v700h27v-700h-27zM316 388h-205v-363h205c160.667 0 241 63.667 241 191c0 55.333 -20.667 97.833 -62 127.5s-101 44.5 -179 44.5zM111 700v-287h205c88.667 0 155.5 -17.167 200.5 -51.5s67.5 -82.833 67.5 -145.5c0 -144 -91 -216 -273 -216h-227v700h27z
M358 789l159 90l12 -22l-159 -90z" />
    <glyph glyph-name="afii10047.var.accented" unicode="&#x42d;`" horiz-adv-x="684" 
d="M194 345l-0.000976562 24.999h421c-5.33301 97.333 -34.666 174 -87.999 230s-127.333 84 -222 84c-53.333 0 -103.333 -11.667 -150 -35s-84 -53.333 -112 -90l-20 16c33.333 43.333 75.833 76.5 127.5 99.5s103.167 34.5 154.5 34.5c104.667 0 187 -32 247 -96
s90 -150.667 90 -260c0 -107.333 -30.333 -194.5 -91 -261.5s-145.667 -100.5 -255 -100.5c-52 0 -102.167 9.83301 -150.5 29.5s-87.833 48.834 -118.5 87.501l18 18c62.667 -73.333 146.667 -110 252 -110c95.333 0 170.833 28.167 226.5 84.5s86.167 137.833 91.5 244.5
h-421zM252.999 788.999l159 90l12 -22l-159 -90z" />
    <glyph glyph-name="afii10048.var.accented" unicode="&#x42e;`" horiz-adv-x="979" 
d="M84 0l0.00195312 700.002h27v-330h166c5.33301 95.333 38.666 175.666 99.999 240.999s137.666 98 228.999 98c94.667 0 173.334 -33.833 236.001 -101.5s94 -153.5 94 -257.5c0 -103.333 -31.167 -189 -93.5 -257s-141.833 -102 -238.5 -102
c-96 0 -173.833 33.167 -233.5 99.5s-90.834 151.166 -93.501 254.499h-166v-345h-27zM304.002 352.002c0 -99.333 27.834 -180.167 83.501 -242.5s128.167 -93.5 217.5 -93.5c90 0 163.167 31.833 219.5 95.5s84.5 143.167 84.5 238.5s-28.5 174.833 -85.5 238.5
s-129.167 95.5 -216.5 95.5c-86.667 0 -158.834 -31.667 -216.501 -95s-86.5 -142.333 -86.5 -237zM538.003 789.001l159 90l12 -22l-159 -90z" />
    <glyph glyph-name="afii10049.var.accented" unicode="&#x42f;`" horiz-adv-x="674" 
d="M563 0v286.001h-261l-247 -286h-33l249 289c-58.667 7.33301 -107.5 28.666 -146.5 63.999s-58.5 81.333 -58.5 138c0 60 21.833 109.833 65.5 149.5s108.167 59.5 193.5 59.5h265v-700h-27zM563 675.001h-247c-74 0 -129.667 -17.667 -167 -53s-56 -79 -56 -131
c0 -48.667 17 -89 51 -121s82.333 -51.667 145 -59h274v364zM336 789.001l159 90l12 -22l-159 -90z" />
    <glyph glyph-name="afii10023.var.accented" unicode="&#x401;`" horiz-adv-x="630" 
d="M263 747l129 145l19 -16l-129 -146zM175 797c0 6 2.33301 11 7 15s10.334 6 17.001 6s12.334 -2 17.001 -6s7 -9 7 -15s-2.33301 -11 -7 -15s-10.334 -6 -17.001 -6s-12.334 2 -17.001 6s-7 9 -7 15zM428 797c0 6 2.33301 11 7 15s10.334 6 17.001 6s12.334 -2 17.001 -6
s7 -9 7 -15s-2.33301 -11 -7 -15s-10.334 -6 -17.001 -6s-12.334 2 -17.001 6s-7 9 -7 15zM84 0v700h480v-25h-453v-306h423v-25h-423v-319h463v-25h-490z" />
    <glyph glyph-name="afii10065.var.accented" unicode="&#x430;`" horiz-adv-x="528" 
d="M82 442l-15 17.999c22.667 22.667 51.167 40.5 85.5 53.5s66.833 19.5 97.5 19.5c143.333 0 215 -68.667 215 -206v-327h-25v116c-46 -82 -117 -123 -213 -123c-60 0 -107.833 13.333 -143.5 40s-53.5 62.334 -53.5 107.001c0 53.333 18.667 92.333 56 117s96 37 176 37
c68.667 0 128 -6.66699 178 -20v50c0 60 -15.167 105.667 -45.5 137s-79.5 47 -147.5 47c-60 0 -115 -22 -165 -66zM227 17.999c54.667 0 100.333 15.668 137 47.001s62 64.333 76 99v82c-50 15.333 -109.667 23 -179 23c-70 0 -121.833 -10.333 -155.5 -31
s-50.5 -53 -50.5 -97c0 -38.667 16 -68.834 48 -90.501s73.333 -32.5 124 -32.5zM358.999 767l-109 -141l-20 15l109 141z" />
    <glyph glyph-name="afii10070.var.accented" unicode="&#x435;`" horiz-adv-x="570" 
d="M496 115l19.001 -13.999c-20 -36 -48.833 -63.667 -86.5 -83s-77.834 -29 -120.501 -29c-81.333 0 -146.5 24.5 -195.5 73.5s-73.5 114.167 -73.5 195.5c0 80 22.833 145.833 68.5 197.5s109.5 77.5 191.5 77.5c67.333 0 123 -21.333 167 -64s66 -99.334 66 -170.001
c0 -16 -0.666992 -29.333 -2 -40h-466c-2 -74.667 20 -134.167 66 -178.5s106.333 -66.5 181 -66.5c38.667 0 74.167 8.66699 106.5 26s58.5 42.333 78.5 75zM292.001 508.001c-66.667 0 -120.166 -21.167 -160.499 -63.5s-62.5 -95.833 -66.5 -160.5h442
c1.33301 68 -17.334 122.333 -56.001 163s-91.667 61 -159 61zM401.002 767.001l-109 -141l-20 15l109 141z" />
    <glyph glyph-name="afii10074.var.accented" unicode="&#x438;`" horiz-adv-x="608" 
d="M101 0h-25v520h25v-483l406 483h25v-520h-25v482zM404 767l-109 -141l-20 15l109 141z" />
    <glyph glyph-name="afii10080.var.accented" unicode="&#x43e;`" horiz-adv-x="618" 
d="M39 261c0 79.333 24.833 144.5 74.5 195.5s114.5 76.5 194.5 76.5s145.167 -25.5 195.5 -76.5s75.5 -116.167 75.5 -195.5s-25.167 -144.5 -75.5 -195.5s-115.5 -76.5 -195.5 -76.5s-144.833 25.5 -194.5 76.5s-74.5 116.167 -74.5 195.5zM64 261
c0 -72 23.002 -131.167 69.002 -177.5s104.333 -69.5 175 -69.5c71.333 0 130.166 23.167 176.499 69.5s69.5 105.5 69.5 177.5c0 71.333 -23.333 130.333 -70 177s-105.334 70 -176.001 70s-129 -23.167 -175 -69.5s-69 -105.5 -69 -177.5zM409.002 767l-109 -141l-20 15
l109 141z" />
    <glyph glyph-name="afii10085.var.accented" unicode="&#x443;`" horiz-adv-x="524" 
d="M89 -202l6.99707 24.998c12 -4.66699 22.667 -7 32 -7c28 0 52.833 11.667 74.5 35s45.834 68.666 72.501 135.999l6 15l-274 518h29l259 -490l199 490h27l-215 -529c-18 -43.333 -34.5 -78.666 -49.5 -105.999s-29.667 -47.666 -44 -60.999
s-27.666 -22.166 -39.999 -26.499s-27.166 -6.5 -44.499 -6.5c-14.667 0 -27.667 2.33301 -39 7zM384.997 766.998l-109 -141l-20 15l109 141z" />
    <glyph glyph-name="afii10093.var.accented" unicode="&#x44b;`" horiz-adv-x="678" 
d="M577 0v520h25v-520h-25zM76 0l0.000976562 519.999h25v-186h150c72 0 124.5 -15.167 157.5 -45.5s49.5 -70.166 49.5 -119.499s-16.333 -89.833 -49 -121.5s-85.334 -47.5 -158.001 -47.5h-175zM247.001 308.999h-146v-284h149c122 0 183 48 183 144
c0 93.333 -62 140 -186 140zM410.001 766.999l-109 -141l-20 15l109 141z" />
    <glyph glyph-name="afii10095.var.accented" unicode="&#x44d;`" horiz-adv-x="534" 
d="M155 254l-0.000976562 25.001h316c-1.33301 68 -24.166 123.167 -68.499 165.5s-99.833 63.5 -166.5 63.5c-86 0 -153.667 -33.333 -203 -100l-19 17c54.667 72 128.667 108 222 108c76 0 138.333 -24.5 187 -73.5s73 -114.5 73 -196.5
c0 -79.333 -23.333 -144.833 -70 -196.5s-109.667 -77.5 -189 -77.5c-94 0 -167.333 31.667 -220 95l18 18c45.333 -58.667 113 -88 203 -88c68 0 123.833 23.167 167.5 69.5s65.5 103.166 65.5 170.499h-316zM348.999 767.001l-109 -141l-20 15l109 141z" />
    <glyph glyph-name="afii10096.var.accented" unicode="&#x44e;`" horiz-adv-x="803" 
d="M76 0l-0.000976562 519.999h25v-240h132c5.33301 72.667 33.5 133 84.5 181s112.5 72 184.5 72c77.333 0 140.333 -25.167 189 -75.5s73 -115.166 73 -194.499c0 -78.667 -25.167 -144 -75.5 -196s-113.166 -78 -188.499 -78s-138 25.167 -188 75.5
s-76.333 113.833 -79 190.5h-132v-255h-25zM257.999 260.999c0 -70.667 23.668 -129.499 71.001 -176.499s104.666 -70.5 171.999 -70.5c66.667 0 123 23.667 169 71s69 106.666 69 177.999c0 70.667 -22.333 129.167 -67 175.5s-101 69.5 -169 69.5
s-125.833 -23.667 -173.5 -71s-71.5 -106 -71.5 -176zM487 767l-109 -141l-20 15l109 141z" />
    <glyph glyph-name="afii10097.var.accented" unicode="&#x44f;`" horiz-adv-x="535" 
d="M249 520l209.001 -0.00195312v-520h-25v211h-184l-201 -211h-34l203 213c-48 2.66699 -88.167 16.834 -120.5 42.501s-48.5 61.834 -48.5 108.501c0 46 16.167 83.5 48.5 112.5s83.166 43.5 152.499 43.5zM73.001 363.998c0 -42.667 15.833 -74.667 47.5 -96
s74.5 -32 128.5 -32h184v259h-184c-60 0 -104.333 -11.667 -133 -35s-43 -55.333 -43 -96zM419.001 766.998l-109 -141l-20 15l109 141z" />
    <glyph glyph-name="afii10071.var.accented" unicode="&#x451;`" horiz-adv-x="570" 
d="M228 649l126 143l19 -16l-126 -144zM141 703c0 7.33301 2.16699 13.5 6.5 18.5s9.83301 7.5 16.5 7.5s12.334 -2.5 17.001 -7.5s7 -11.167 7 -18.5s-2.33301 -13.5 -7 -18.5s-10.334 -7.5 -17.001 -7.5s-12.167 2.5 -16.5 7.5s-6.5 11.167 -6.5 18.5zM396 703
c0 7.33301 2.16699 13.5 6.5 18.5s9.83301 7.5 16.5 7.5s12.334 -2.5 17.001 -7.5s7 -11.167 7 -18.5s-2.33301 -13.5 -7 -18.5s-10.334 -7.5 -17.001 -7.5s-12.167 2.5 -16.5 7.5s-6.5 11.167 -6.5 18.5zM496 115l19.001 -13.999c-20 -36 -48.833 -63.667 -86.5 -83
s-77.834 -29 -120.501 -29c-81.333 0 -146.5 24.5 -195.5 73.5s-73.5 114.167 -73.5 195.5c0 80 22.833 145.833 68.5 197.5s109.5 77.5 191.5 77.5c67.333 0 123 -21.333 167 -64s66 -99.334 66 -170.001c0 -16 -0.666992 -29.333 -2 -40h-466
c-2 -74.667 20 -134.167 66 -178.5s106.333 -66.5 181 -66.5c38.667 0 74.167 8.66699 106.5 26s58.5 42.333 78.5 75zM292.001 508.001c-66.667 0 -120.166 -21.167 -160.499 -63.5s-62.5 -95.833 -66.5 -160.5h442c1.33301 68 -17.334 122.333 -56.001 163
s-91.667 61 -159 61z" />
    <glyph glyph-name="fi" unicode="fi" horiz-adv-x="538" 
d="M-1 495v24.999h119v37c0 120.667 52.667 181 158 181c24.667 0 48 -6.33301 70 -19l-12 -22c-16.667 10.667 -36 16 -58 16c-41.333 0 -73.833 -11.167 -97.5 -33.5s-35.5 -64.166 -35.5 -125.499v-34h191v-25h-191v-495h-25v495h-119zM422 -0.000976562v520h25v-520h-25
zM409 697.999c0 7.33301 2.5 13.833 7.5 19.5s10.833 8.5 17.5 8.5s12.667 -2.83301 18 -8.5s8 -12.167 8 -19.5s-2.66699 -13.833 -8 -19.5s-11.333 -8.5 -18 -8.5s-12.5 2.83301 -17.5 8.5s-7.5 12.167 -7.5 19.5z" />
    <glyph glyph-name="fl" unicode="fl" horiz-adv-x="477" 
d="M-1 495v25.001h119v38c0 63.333 15 109.166 45 137.499s67 42.5 111 42.5c39.333 0 72 -12 98 -36l25 28v-730h-25v666c-24.667 31.333 -57.667 47 -99 47c-38.667 0 -70 -12.167 -94 -36.5s-36 -63.833 -36 -118.5v-38h146v-25h-146v-495h-25v495h-119z" />
    <glyph glyph-name=".notdef" horiz-adv-x="300" 
 />
    <glyph glyph-name="space" unicode=" " horiz-adv-x="300" 
 />
    <glyph glyph-name="exclam" unicode="!" horiz-adv-x="310" 
d="M141 189v511h27v-511h-27zM124 28c0 8.66699 2.66699 16 8 22s12 9 20 9s14.833 -3 20.5 -9s8.5 -13.333 8.5 -22s-2.83301 -15.834 -8.5 -21.501s-12.5 -8.5 -20.5 -8.5s-14.667 2.83301 -20 8.5s-8 12.834 -8 21.501z" />
    <glyph glyph-name="quotedbl" unicode="&#x22;" horiz-adv-x="385" 
d="M110 509v191h25v-191h-25zM250 509v191h25v-191h-25z" />
    <glyph glyph-name="numbersign" unicode="#" horiz-adv-x="678" 
d="M40 460v25h204l82 222l24 -8l-80 -214h240l82 222l24 -8l-80 -214h103v-25h-112l-82 -221h194v-25h-203l-82 -221l-23 9l78 212h-239l-82 -221l-23 9l78 212h-103v25h113l81 221h-194zM261 460l-82 -221h240l81 221h-239z" />
    <glyph glyph-name="dollar" unicode="$" horiz-adv-x="600" 
d="M524 178c0 31.333 -8.66699 57.6699 -26 79.0029s-40 37.333 -68 48s-58.833 19.667 -92.5 27s-67.334 15.166 -101.001 23.499s-64.5 18.5 -92.5 30.5s-50.667 30.167 -68 54.5s-26 54.166 -26 89.499c0 50.667 21.333 92.5 64 125.5s99 50.833 169 53.5v84h27v-84
c96.667 -2 170.667 -29.667 222 -83l-16 -19c-29.333 26 -60.5 45.333 -93.5 58s-74.167 19 -123.5 19c-34.667 0 -67.667 -4.33301 -99 -13s-59.666 -25 -84.999 -49s-38 -54.333 -38 -91c0 -32 8.66699 -58.833 26 -80.5s40 -37.834 68 -48.501s58.833 -19.667 92.5 -27
s67.334 -15 101.001 -23s64.5 -18 92.5 -30s50.667 -29.833 68 -53.5s26 -53.167 26 -88.5c0 -55.333 -22.667 -100.5 -68 -135.5s-103 -52.833 -173 -53.5v-94h-27v95c-53.333 3.33301 -102 16.5 -146 39.5s-77.333 51.167 -100 84.5l20 17
c23.333 -32.667 56.666 -60.334 99.999 -83.001s95 -34 155 -34c54.667 0 103.667 14.833 147 44.5s65 68.834 65 117.501z" />
    <glyph glyph-name="percent" unicode="%" horiz-adv-x="824" 
d="M56 547c0 43.333 16 80.166 48 110.499s70.333 45.5 115 45.5s83 -15.167 115 -45.5s48 -67.166 48 -110.499s-16 -80.166 -48 -110.499s-70.333 -45.5 -115 -45.5s-83 15.167 -115 45.5s-48 67.166 -48 110.499zM83 547c0 -36 13.167 -66.833 39.5 -92.5
s58.5 -38.5 96.5 -38.5s70.167 12.833 96.5 38.5s39.5 56.5 39.5 92.5s-13.167 66.833 -39.5 92.5s-58.5 38.5 -96.5 38.5s-70.167 -12.833 -96.5 -38.5s-39.5 -56.5 -39.5 -92.5zM143 10l521 701l20 -15l-520 -700zM442 152c0 43.333 16 80.166 48 110.499
s70.333 45.5 115 45.5s83 -15.167 115 -45.5s48 -67.166 48 -110.499s-16 -80.166 -48 -110.499s-70.333 -45.5 -115 -45.5s-83 15.167 -115 45.5s-48 67.166 -48 110.499zM469 152c0 -36 13.167 -66.833 39.5 -92.5s58.5 -38.5 96.5 -38.5s70.167 12.833 96.5 38.5
s39.5 56.5 39.5 92.5s-13.167 66.833 -39.5 92.5s-58.5 38.5 -96.5 38.5s-70.167 -12.833 -96.5 -38.5s-39.5 -56.5 -39.5 -92.5z" />
    <glyph glyph-name="ampersand" unicode="&#x26;" horiz-adv-x="783" 
d="M734 0l-39.9971 -0.000976562c-26 18.667 -64.667 52.334 -116 101.001c-61.333 -73.333 -142 -110 -242 -110c-70.667 0 -128.834 18.5 -174.501 55.5s-68.5 84.833 -68.5 143.5c0 14 2 27.833 6 41.5s8.5 25.834 13.5 36.501s12.833 22 23.5 34s19.667 21.667 27 29
s18.666 16.666 33.999 27.999s26.666 19.5 33.999 24.5s19.833 13.333 37.5 25s29.167 19.167 34.5 22.5c-14.667 20.667 -26.167 37.834 -34.5 51.501s-16.5 31.334 -24.5 53.001s-12 42.5 -12 62.5c0 34 11.667 61 35 81s50 30 80 30c32.667 0 59.834 -9.66699 81.501 -29
s32.5 -46.333 32.5 -81c0 -56 -41.333 -114.333 -124 -175c42 -59.333 78 -106.833 108 -142.5s73 -82.834 129 -141.501c30 44 50.667 92.667 62 146c11.333 55.333 16.666 105.666 15.999 150.999h25c-1.33301 -62 -7 -114.333 -17 -157
c-14 -61.333 -36.333 -114 -67 -158c12.667 -14.667 35.167 -36 67.5 -64s56.833 -47.333 73.5 -58zM339.003 15.999c91.333 0 165.001 34.333 221.001 103c-92 92 -173.333 189 -244 291c-2.66699 -2 -13.667 -9 -33 -21s-34 -21.333 -44 -28s-23.833 -17.5 -41.5 -32.5
s-31.334 -28.667 -41.001 -41s-18.5 -27.333 -26.5 -45s-12 -35.167 -12 -52.5c0 -50 20.5 -91.5 61.5 -124.5s94.167 -49.5 159.5 -49.5zM257.004 597.999c0 -40.667 22.333 -92 67 -154c28.667 16.667 54.5 40 77.5 70s34.5 58.333 34.5 85
c0 25.333 -7.66699 45.833 -23 61.5s-37.333 23.5 -66 23.5c-26 0 -47.5 -7.33301 -64.5 -22s-25.5 -36 -25.5 -64z" />
    <glyph glyph-name="quotesingle" unicode="'" horiz-adv-x="245" 
d="M109 509v191h27v-191h-27z" />
    <glyph glyph-name="parenleft" unicode="(" horiz-adv-x="263" 
d="M255 -189l-16 -19.001c-68.667 62 -118.5 133.333 -149.5 214s-46.5 162.667 -46.5 246c0 82.667 15.5 164.334 46.5 245.001s80.833 152 149.5 214l16 -18c-123.333 -114 -185 -261 -185 -441c0 -178 61.667 -325 185 -441z" />
    <glyph glyph-name="parenright" unicode=")" horiz-adv-x="263" 
d="M24 -208l-16 19.001c123.333 114 185 261 185 441s-61.667 327 -185 441l16 18c68.667 -62 118.5 -133.333 149.5 -214s46.5 -162.334 46.5 -245.001c0 -83.333 -15.5 -165.333 -46.5 -246s-80.833 -152 -149.5 -214z" />
    <glyph glyph-name="asterisk" unicode="*" horiz-adv-x="503" 
d="M264 700v-162l145 54l9 -23l-144 -54l90 -128l-21 -14l-92 131l-91 -131l-21 14l90 128l-144 54l9 23l145 -54v162h25z" />
    <glyph glyph-name="plus" unicode="+" horiz-adv-x="584" 
d="M75 347v25h205v206h25v-206h205v-25h-205v-206h-25v206h-205z" />
    <glyph glyph-name="comma" unicode="," horiz-adv-x="198" 
d="M114 6c-1.33301 -10 -7.33398 -15.002 -18.001 -15.002c-16 0 -24 9.33301 -24 28c0 7.33301 2.66699 13.833 8 19.5s13.333 8.5 24 8.5c12.667 0 24 -7.16699 34 -21.5s15 -34.166 15 -59.499c0 -30 -8.5 -54.5 -25.5 -73.5s-35.167 -32.833 -54.5 -41.5l-11 20
c7.33301 2.66699 15.333 7.16699 24 13.5s17.834 16.833 27.501 31.5s14.5 30.334 14.5 47.001c0 22.667 -4.66699 37 -14 43z" />
    <glyph glyph-name="hyphen" unicode="-" horiz-adv-x="394" 
d="M92 256v25h209v-25h-209z" />
    <glyph glyph-name="period" unicode="." horiz-adv-x="177" 
d="M60 28c0 8.66699 2.66699 16 8 22s12 9 20 9s14.833 -3 20.5 -9s8.5 -13.333 8.5 -22s-2.83301 -15.834 -8.5 -21.501s-12.5 -8.5 -20.5 -8.5s-14.667 2.83301 -20 8.5s-8 12.834 -8 21.501z" />
    <glyph glyph-name="slash" unicode="/" horiz-adv-x="299" 
d="M330 696l-337 -908l-22 9l335 909z" />
    <glyph glyph-name="zero" unicode="0" horiz-adv-x="661" 
d="M55 350c0 108 23.332 194.833 69.999 260.5s114.667 98.5 204 98.5c90 0 158.667 -32.833 206 -98.5s71 -152.5 71 -260.5s-23.333 -194.667 -70 -260s-115 -98 -205 -98c-89.333 0 -157.666 32.833 -204.999 98.5s-71 152.167 -71 259.5zM81.999 350
c0 -102.667 21.332 -183.832 63.999 -243.499s104.334 -89.5 185.001 -89.5s142.167 29.667 184.5 89s63.5 140.666 63.5 243.999c0 102.667 -21.5 184 -64.5 244s-104.833 90 -185.5 90s-142 -30 -184 -90s-63 -141.333 -63 -244z" />
    <glyph glyph-name="one" unicode="1" horiz-adv-x="413" 
d="M6 589l240 118h25v-707h-25v679l-229 -113z" />
    <glyph glyph-name="two" unicode="2" horiz-adv-x="575" 
d="M72 521l-22.999 6.00098c8.66699 47.333 33.667 89.5 75 126.5s93.666 55.5 156.999 55.5c68.667 0 123.5 -18.5 164.5 -55.5s61.5 -87.5 61.5 -151.5c0 -38 -10.667 -77.333 -32 -118s-47.666 -77.5 -78.999 -110.5s-68.666 -66.333 -111.999 -100
s-82.833 -61.667 -118.5 -84s-72.5 -43.833 -110.5 -64.5h486v-25h-530v25c107.333 64 183.666 112.667 228.999 146c159.333 118.667 239.333 229.667 240 333c0 55.333 -17.333 99.166 -52 131.499s-83.334 48.5 -146.001 48.5c-61.333 0 -109 -16.333 -143 -49
s-56.333 -70.667 -67 -114z" />
    <glyph glyph-name="three" unicode="3" 
d="M74 563l-21.001 11.9971c16 33.333 44 64 84 92s88 42 144 42c68.667 0 124.5 -15.833 167.5 -47.5s64.5 -76.167 64.5 -133.5c0 -44 -14 -80.5 -42 -109.5s-66 -48.5 -114 -58.5c28 -2 54.667 -8.5 80 -19.5s48 -29.5 68 -55.5s30 -57 30 -93
c0 -63.333 -22.667 -112.666 -68 -147.999s-105.333 -53 -180 -53c-61.333 0 -115 13.833 -161 41.5s-80 66.834 -102 117.501l22 12c49.333 -97.333 129.666 -146 240.999 -146c68 0 121.833 15.833 161.5 47.5s59.5 74.834 59.5 129.501c0 28 -7.66699 52.5 -23 73.5
s-35 37 -59 48s-48.167 19 -72.5 24s-48.166 7.5 -71.499 7.5h-94v25h92c59.333 0 108.5 14.167 147.5 42.5s58.5 66.833 58.5 115.5c0 50 -19 88.333 -57 115s-90 40 -156 40c-43.333 0 -82.166 -10.833 -116.499 -32.5s-61.833 -51.167 -82.5 -88.5z" />
    <glyph glyph-name="four" unicode="4" horiz-adv-x="642" 
d="M459 0v164h-438v25l438 511h25v-511h142v-25h-142v-164h-25zM54 189h405v472z" />
    <glyph glyph-name="five" unicode="5" horiz-adv-x="581" 
d="M86 368l39 331.999h386v-25h-365l-30 -273c48.667 17.333 97.667 26 147 26c89.333 0 157 -18.833 203 -56.5s69 -90.167 69 -157.5c0 -68 -22.667 -122.167 -68 -162.5s-105.333 -60.5 -180 -60.5c-112.667 0 -193 42 -241 126l20 16c49.333 -78 123 -117 221 -117
c66.667 0 120.167 18.5 160.5 55.5s60.5 84.5 60.5 142.5c0 62.667 -21.667 109.834 -65 141.501s-103.333 47.5 -180 47.5c-61.333 0 -120.333 -11.667 -177 -35z" />
    <glyph glyph-name="six" unicode="6" horiz-adv-x="632" 
d="M55 337c0 118.667 28.167 210.332 84.5 274.999s128.833 97 217.5 97c85.333 0 147.333 -25.667 186 -77l-16 -17c-35.333 46 -93 69 -173 69c-78.667 0 -144 -30 -196 -90s-78 -141 -78 -243c0 -10 0.666992 -24 2 -42c26.667 48 62 86.167 106 114.5s94 42.5 150 42.5
c79.333 0 141.833 -20.667 187.5 -62s68.5 -99.666 68.5 -174.999c0 -68 -24.667 -124.667 -74 -170s-112 -68 -188 -68c-80 0 -146.167 29.5 -198.5 88.5s-78.5 144.833 -78.5 257.5zM86 266.998c4.66699 -67.333 28.833 -125.998 72.5 -175.998s101.5 -75 173.5 -75
c71.333 0 128.333 20.167 171 60.5s64 91.166 64 152.499c0 69.333 -21 122.166 -63 158.499s-97 54.5 -165 54.5c-58 0 -110.5 -17.667 -157.5 -53s-78.833 -76 -95.5 -122z" />
    <glyph glyph-name="seven" unicode="7" horiz-adv-x="509" 
d="M-1 675v25h501v-20l-353 -680h-28l351 675h-471z" />
    <glyph glyph-name="eight" unicode="8" horiz-adv-x="642" 
d="M305 372l33.001 -0.00195312c48 0 94.5 15.333 139.5 46s67.5 67.334 67.5 110.001c0 49.333 -19.833 87.666 -59.5 114.999s-94.834 41 -165.501 41c-71.333 0 -126.333 -14.167 -165 -42.5s-58 -67.166 -58 -116.499c0 -43.333 22.5 -79.666 67.5 -108.999
s91.833 -44 140.5 -44zM343.001 346.998l-41.002 -0.000976562c-54.667 0 -106.667 -16.167 -156 -48.5s-74 -73.166 -74 -122.499c0 -46.667 24.333 -85 73 -115s107.334 -45 176.001 -45c70.667 0 129.834 15 177.501 45s71.5 69.667 71.5 119
c0 32.667 -11.833 62.167 -35.5 88.5s-52.5 46 -86.5 59s-69 19.5 -105 19.5zM321.999 -9.00293c-78.667 0 -144.501 16.668 -197.501 50.001s-79.5 78.333 -79.5 135c0 46.667 20.167 87.167 60.5 121.5s84.5 55.166 132.5 62.499c-50 12 -90.5 33.167 -121.5 63.5
s-46.5 64.833 -46.5 103.5c0 54.667 22.167 98.667 66.5 132s105.833 50 184.5 50c79.333 0 141 -16.167 185 -48.5s66 -75.833 66 -130.5c0 -41.333 -17.167 -77.333 -51.5 -108s-74.166 -51 -119.499 -61c54.667 -7.33301 101 -27.5 139 -60.5s57 -73.167 57 -120.5
c0 -58 -26.167 -104 -78.5 -138s-117.833 -51 -196.5 -51z" />
    <glyph glyph-name="nine" unicode="9" horiz-adv-x="635" 
d="M580 389c0 -129.333 -25.999 -227.999 -77.999 -295.999s-121 -102 -207 -102c-47.333 0 -90.5 9.16699 -129.5 27.5s-64.5 38.166 -76.5 59.499l18 14c48 -50.667 110.667 -76 188 -76c32.667 0 63.5 6.33301 92.5 19s56.333 32.334 82 59.001s46 65 61 115
s22.5 108.667 22.5 176c-24 -44.667 -60.167 -79.334 -108.5 -104.001s-97.833 -37 -148.5 -37c-82 0 -145.5 21.667 -190.5 65s-67.5 97 -67.5 161c0 66 24.667 122.333 74 169s108.333 70 177 70c93.333 0 165.166 -30.167 215.499 -90.5s75.5 -136.833 75.5 -229.5z
M548.001 427.001c-2.66699 72.667 -26.501 133.667 -71.501 183s-107.167 74 -186.5 74c-62.667 0 -115.834 -20.667 -159.501 -62s-65.5 -92.333 -65.5 -153s21 -109.167 63 -145.5s98.667 -54.5 170 -54.5c54.667 0 106.334 15.833 155.001 47.5s80.334 68.5 95.001 110.5
z" />
    <glyph glyph-name="colon" unicode=":" horiz-adv-x="330" 
d="M136 28c0 8.66699 2.66699 16 8 22s12 9 20 9s14.833 -3 20.5 -9s8.5 -13.333 8.5 -22s-2.83301 -15.834 -8.5 -21.501s-12.5 -8.5 -20.5 -8.5s-14.667 2.83301 -20 8.5s-8 12.834 -8 21.501zM135 490c0 8.66699 2.66699 16 8 22s12 9 20 9s14.833 -3 20.5 -9
s8.5 -13.333 8.5 -22s-2.83301 -15.834 -8.5 -21.501s-12.5 -8.5 -20.5 -8.5s-14.667 2.83301 -20 8.5s-8 12.834 -8 21.501z" />
    <glyph glyph-name="semicolon" unicode=";" horiz-adv-x="334" 
d="M180 6c-1.33301 -10 -7.33398 -15.002 -18.001 -15.002c-16 0 -24 9.33301 -24 28c0 7.33301 2.66699 13.833 8 19.5s13.333 8.5 24 8.5c12.667 0 24 -7.16699 34 -21.5s15 -34.166 15 -59.499c0 -30 -8.5 -54.5 -25.5 -73.5s-35.167 -32.833 -54.5 -41.5l-11 20
c7.33301 2.66699 15.333 7.16699 24 13.5s17.834 16.833 27.501 31.5s14.5 30.334 14.5 47.001c0 22.667 -4.66699 37 -14 43zM134.999 489.998c0 8.66699 2.66699 16 8 22s12 9 20 9s14.833 -3 20.5 -9s8.5 -13.333 8.5 -22s-2.83301 -15.834 -8.5 -21.501
s-12.5 -8.5 -20.5 -8.5s-14.667 2.83301 -20 8.5s-8 12.834 -8 21.501z" />
    <glyph glyph-name="less" unicode="&#x3c;" horiz-adv-x="600" 
d="M482 103l-400 250v16l400 250v-29l-366 -229l366 -229v-29z" />
    <glyph glyph-name="equal" unicode="=" horiz-adv-x="600" 
d="M79 430v25h442v-25h-442zM79 264v25h442v-25h-442z" />
    <glyph glyph-name="greater" unicode="&#x3e;" horiz-adv-x="600" 
d="M517 353l-400 -250v29l366 229l-366 229v29l400 -250v-16z" />
    <glyph glyph-name="question" unicode="?" horiz-adv-x="556" 
d="M281 187l-25.0029 -0.00195312c-2.66699 13.333 -4 26.666 -4 39.999c0 28 8.5 52.333 25.5 73s37.667 37.834 62 51.501s48.833 27.5 73.5 41.5s45.5 32.5 62.5 55.5s25.5 50.167 25.5 81.5c0 47.333 -18.667 84.833 -56 112.5s-86.666 41.5 -147.999 41.5
c-51.333 0 -95.333 -12.833 -132 -38.5s-65 -57.834 -85 -96.501l-20 11c18 40.667 48.333 75.667 91 105s91.667 44 147 44c74 0 130.5 -16.5 169.5 -49.5s58.5 -75.5 58.5 -127.5c0 -30 -6.16699 -56.667 -18.5 -80s-27.666 -41.666 -45.999 -54.999
s-38.333 -26.666 -60 -39.999s-41.667 -25 -60 -35s-33.666 -23.167 -45.999 -39.5s-18.5 -34.833 -18.5 -55.5c0 -11.333 1.33301 -24.666 4 -39.999zM244.997 27.998c0 8.66699 2.66699 16 8 22s12 9 20 9s14.833 -3 20.5 -9s8.5 -13.333 8.5 -22
s-2.83301 -15.834 -8.5 -21.501s-12.5 -8.5 -20.5 -8.5s-14.667 2.83301 -20 8.5s-8 12.834 -8 21.501z" />
    <glyph glyph-name="at" unicode="@" horiz-adv-x="1032" 
d="M681 0l-0.00292969 60.0029c-18.667 -20.667 -43.167 -37.334 -73.5 -50.001s-61.166 -19 -92.499 -19c-68.667 0 -123 20.833 -163 62.5s-60 97.834 -60 168.501c0 64 23.833 118.167 71.5 162.5s105.834 66.5 174.501 66.5c62.667 0 118.667 -14.667 168 -44v-382
c68.667 0.666992 122.667 24.667 162 72s59 108.666 59 183.999c0 105.333 -37.167 190.666 -111.5 255.999s-170.833 98 -289.5 98c-121.333 0 -221.833 -39.5 -301.5 -118.5s-119.5 -177.5 -119.5 -295.5c0 -116.667 40.167 -214.834 120.5 -294.501
s180.5 -119.5 300.5 -119.5c28 0 61 3.66699 99 11l3 -25c-35.333 -7.33301 -69.333 -11 -102 -11c-127.333 0 -233.5 42.167 -318.5 126.5s-127.5 188.5 -127.5 312.5c0 121.333 42.333 224.833 127 310.5s191 128.5 319 128.5c122.667 0 224.334 -34.333 305.001 -103
s121 -160.667 121 -276c0 -82.667 -22.5 -150.167 -67.5 -202.5s-106.833 -78.5 -185.5 -78.5h-18zM516.997 16.0029c32 0 63 7.5 93 22.5s53.667 32.833 71 53.5v296c-42 25.333 -90.667 38 -146 38c-61.333 0 -113 -20 -155 -60s-63 -88.333 -63 -145
c0 -62.667 18.333 -112.5 55 -149.5s85 -55.5 145 -55.5z" />
    <glyph glyph-name="A" unicode="A" horiz-adv-x="656" 
d="M6 0l307 704h27l310 -704h-29l-100 228h-388l-99 -228h-28zM326 674l-181 -421h366z" />
    <glyph glyph-name="B" unicode="B" horiz-adv-x="658" 
d="M84 0v700.002h265c158.667 0 238 -56.333 238 -169c0 -42.667 -11.5 -78.834 -34.5 -108.501s-56.833 -49.834 -101.5 -60.501c48.667 -2.66699 88 -19.5 118 -50.5s45 -70.833 45 -119.5c0 -128 -87.333 -192 -262 -192h-268zM359 346.002h-248v-321h238
c158.667 0 238 56 238 168c0 102 -76 153 -228 153zM347 675.002l-235.999 0.000976562v-304h251c59.333 0 107.166 14 143.499 42s54.5 66.333 54.5 115c0 49.333 -16.5 86.166 -49.5 110.499s-87.5 36.5 -163.5 36.5z" />
    <glyph glyph-name="C" unicode="C" horiz-adv-x="681" 
d="M637 112l14.998 -15.999c-23.333 -30.667 -56.166 -55.834 -98.499 -75.501s-91.833 -29.5 -148.5 -29.5c-111.333 0 -199.666 32.5 -264.999 97.5s-98 152.167 -98 261.5c0 103.333 31.167 189 93.5 257s146.5 102 252.5 102c58 0 108.833 -10 152.5 -30
s78.167 -44.667 103.5 -74l-14 -17c-36 32 -71.833 56 -107.5 72s-81.5 24 -137.5 24c-98.667 0 -176 -31.167 -232 -93.5s-84 -142.5 -84 -240.5c0 -101.333 29.833 -182.333 89.5 -243s141.834 -91 246.501 -91c95.333 0 172.666 32 231.999 96z" />
    <glyph glyph-name="D" unicode="D" horiz-adv-x="705" 
d="M84 0v699.999h209c65.333 0 122.333 -9 171 -27s87 -43 115 -75s48.833 -67.833 62.5 -107.5s20.5 -83.167 20.5 -130.5c0 -105.333 -32 -191.666 -96 -258.999s-157 -101 -279 -101h-203zM291 674.999h-180v-650h175c116 0 203.167 31 261.5 93s87.5 142.667 87.5 242
c0 94 -28 170 -84 228s-142.667 87 -260 87z" />
    <glyph glyph-name="E" unicode="E" horiz-adv-x="630" 
d="M84 0v700h480v-25h-453v-306h423v-25h-423v-319h463v-25h-490z" />
    <glyph glyph-name="F" unicode="F" horiz-adv-x="595" 
d="M84 0v700h475v-25h-448v-327h416v-25h-416v-323h-27z" />
    <glyph glyph-name="G" unicode="G" horiz-adv-x="700" 
d="M422 299v25h235v-239c-74.667 -62.667 -160.667 -94 -258 -94c-104 0 -189.5 33.167 -256.5 99.5s-100.5 152.833 -100.5 259.5c0 100 34.333 184.833 103 254.5s151.667 104.5 249 104.5c106.667 0 188.667 -29.667 246 -89l-13 -20c-57.333 56 -133 84 -227 84
c-95.333 0 -174.333 -31.833 -237 -95.5s-94 -143.167 -94 -238.5c0 -99.333 30.833 -179.833 92.5 -241.5s141.5 -92.5 239.5 -92.5c92 0 168.667 27.333 230 82v201h-209z" />
    <glyph glyph-name="H" unicode="H" horiz-adv-x="744" 
d="M633 0v346h-522v-346h-27v700h27v-329h522v329h27v-700h-27z" />
    <glyph glyph-name="I" unicode="I" horiz-adv-x="217" 
d="M95 0v700h27v-700h-27z" />
    <glyph glyph-name="J" unicode="J" horiz-adv-x="475" 
d="M400 700l-0.000976562 -470c0 -80.667 -17.833 -140.667 -53.5 -180s-85.167 -59 -148.5 -59c-89.333 0 -154 40 -194 120l21 16c36.667 -74 94.667 -111 174 -111c52.667 0 94.834 17.667 126.501 53s47.5 89 47.5 161v470h27z" />
    <glyph glyph-name="K" unicode="K" horiz-adv-x="623" 
d="M84 0v700h27v-396l436 396h40l-358 -325l387 -375h-39l-368 356l-98 -89v-267h-27z" />
    <glyph glyph-name="L" unicode="L" horiz-adv-x="572" 
d="M84 0v700h27v-675h451v-25h-478z" />
    <glyph glyph-name="M" unicode="M" horiz-adv-x="824" 
d="M84 0v700h27l301 -437l301 437h27v-700h-27v653l-301 -433l-301 433v-653h-27z" />
    <glyph glyph-name="N" unicode="N" horiz-adv-x="734" 
d="M650 0h-27l-512 658v-658h-27v700h27l512 -658v658h27v-700z" />
    <glyph glyph-name="O" unicode="O" horiz-adv-x="785" 
d="M42 350c0 101.333 33.667 186.5 101 255.5s150.333 103.5 249 103.5s181.667 -34 249 -102s101 -153.667 101 -257c0 -102 -33.833 -187.333 -101.5 -256s-150.5 -103 -248.5 -103c-98.667 0 -181.667 34 -249 102s-101 153.667 -101 257zM69 350
c0 -93.333 31.5 -172.333 94.5 -237s139.167 -97 228.5 -97c92 0 168.833 32.167 230.5 96.5s92.5 143.5 92.5 237.5s-31.333 173.167 -94 237.5s-139 96.5 -229 96.5s-166.333 -32.167 -229 -96.5s-94 -143.5 -94 -237.5z" />
    <glyph glyph-name="P" unicode="P" horiz-adv-x="666" 
d="M111 0h-27v700h262c55.333 0 102 -5.5 140 -16.5s66.5 -26.5 85.5 -46.5s32.333 -41 40 -63s11.5 -46.667 11.5 -74c0 -59.333 -22.167 -108.333 -66.5 -147s-114.833 -58 -211.5 -58h-234v-295zM351 675h-240v-355h232c85.333 0 148.833 16.333 190.5 49
s62.5 76.667 62.5 132c0 116 -81.667 174 -245 174z" />
    <glyph glyph-name="Q" unicode="Q" horiz-adv-x="785" 
d="M677 -43l-82 96c-58 -41.333 -125.667 -62 -203 -62c-97.333 0 -180 34 -248 102s-102 153.667 -102 257c0 101.333 33.667 186.5 101 255.5s150.333 103.5 249 103.5s181.667 -34 249 -102s101 -153.667 101 -257c0 -46.667 -10.667 -96.167 -32 -148.5
s-53.333 -96.833 -96 -133.5l81 -94zM69 350c0 -93.333 31.832 -172.332 95.499 -236.999s139.5 -97 227.5 -97c68.667 0 130.334 19.333 185.001 58l-68 80l19 16l68 -81c37.333 32 66.5 70.667 87.5 116s31.5 93.666 31.5 144.999c0 94 -31.667 173.167 -95 237.5
s-139.333 96.5 -228 96.5s-164.667 -32.167 -228 -96.5s-95 -143.5 -95 -237.5z" />
    <glyph glyph-name="R" unicode="R" horiz-adv-x="668" 
d="M111 0l-26.999 -0.000976562v700h253c172 0 258 -64 258 -192c0 -53.333 -19.333 -97.166 -58 -131.499s-87.334 -54.833 -146.001 -61.5l252 -315h-33l-247 309h-252v-309zM337.001 674.999l-226 0.000976562v-341h227c67.333 0 122.5 16.167 165.5 48.5
s64.5 74.166 64.5 125.499c0 111.333 -77 167 -231 167z" />
    <glyph glyph-name="S" unicode="S" horiz-adv-x="616" 
d="M532 178c0 31.333 -8.66895 57.6689 -26.002 79.002s-40 37.333 -68 48s-58.833 19.667 -92.5 27s-67.334 15.166 -101.001 23.499s-64.5 18.5 -92.5 30.5s-50.667 30.167 -68 54.5s-26 54.166 -26 89.499c0 52.667 22.833 95.667 68.5 129s105.834 50 180.501 50
c102 0 179.667 -27.667 233 -83l-16 -19c-29.333 26 -60.5 45.333 -93.5 58s-74.167 19 -123.5 19c-34.667 0 -67.667 -4.33301 -99 -13s-59.666 -25 -84.999 -49s-38 -54.333 -38 -91c0 -32 8.66699 -58.833 26 -80.5s40 -37.834 68 -48.501s58.833 -19.667 92.5 -27
s67.334 -15 101.001 -23s64.5 -18 92.5 -30s50.667 -29.833 68 -53.5s26 -53.167 26 -88.5c0 -55.333 -23 -100.666 -69 -135.999s-104 -53 -174 -53c-58.667 0 -112.167 11.833 -160.5 35.5s-85.166 53.5 -110.499 89.5l20 17
c23.333 -32.667 56.666 -60.334 99.999 -83.001s95 -34 155 -34c54.667 0 103.667 14.833 147 44.5s65 68.834 65 117.501z" />
    <glyph glyph-name="T" unicode="T" horiz-adv-x="563" 
d="M5 675v25h553v-25h-263v-675h-27v675h-263z" />
    <glyph glyph-name="U" unicode="U" horiz-adv-x="713" 
d="M72 291l0.00195312 409h25v-400c0 -89.333 23.333 -158.833 70 -208.5s110 -74.5 190 -74.5s143.167 24.833 189.5 74.5s69.5 119.167 69.5 208.5v400h25v-409c0 -51.333 -8.16699 -96.666 -24.5 -135.999s-38.166 -70.5 -65.499 -93.5s-57.333 -40.333 -90 -52
s-67.334 -17.5 -104.001 -17.5s-71.334 5.83301 -104.001 17.5s-62.834 29 -90.501 52s-49.667 54.167 -66 93.5s-24.5 84.666 -24.5 135.999z" />
    <glyph glyph-name="V" unicode="V" horiz-adv-x="699" 
d="M696 700l-335 -700h-25l-334 700h27l320 -668l319 668h28z" />
    <glyph glyph-name="W" unicode="W" horiz-adv-x="957" 
d="M952 700l-219 -700h-25l-230 663l-230 -663h-25l-218 700h27l205 -660l228 660h27l229 -660l204 660h27z" />
    <glyph glyph-name="X" unicode="X" horiz-adv-x="613" 
d="M547 700h31l-256 -343l266 -357h-31l-250 336l-251 -336h-31l266 357l-255 343h31l240 -322z" />
    <glyph glyph-name="Y" unicode="Y" horiz-adv-x="585" 
d="M585 700l-280 -442v-258h-27v258l-278 442h33l259 -415l261 415h32z" />
    <glyph glyph-name="Z" unicode="Z" horiz-adv-x="626" 
d="M36 675v25h560v-23l-545 -652h555v-25h-590v22l546 653h-526z" />
    <glyph glyph-name="bracketleft" unicode="[" horiz-adv-x="274" 
d="M60 -206v916h209v-25h-184v-866h184v-25h-209z" />
    <glyph glyph-name="backslash" unicode="\" horiz-adv-x="299" 
d="M309 -212l-340 908l24 10l338 -909z" />
    <glyph glyph-name="bracketright" unicode="]" horiz-adv-x="274" 
d="M214 710v-916h-209v25h184v866h-184v25h209z" />
    <glyph glyph-name="asciicircum" unicode="^" horiz-adv-x="465" 
d="M59 464l158 245h32l158 -245h-29l-145 223l-145 -223h-29z" />
    <glyph glyph-name="underscore" unicode="_" horiz-adv-x="267" 
d="M0 -206v27h267v-27h-267z" />
    <glyph glyph-name="grave" unicode="`" horiz-adv-x="376" 
d="M271 781l105 -141l-20 -15l-105 141z" />
    <glyph glyph-name="a" unicode="a" horiz-adv-x="528" 
d="M82 442l-15 17.999c22.667 22.667 51.167 40.5 85.5 53.5s66.833 19.5 97.5 19.5c143.333 0 215 -68.667 215 -206v-327h-25v116c-46 -82 -117 -123 -213 -123c-60 0 -107.833 13.333 -143.5 40s-53.5 62.334 -53.5 107.001c0 53.333 18.667 92.333 56 117s96 37 176 37
c68.667 0 128 -6.66699 178 -20v50c0 60 -15.167 105.667 -45.5 137s-79.5 47 -147.5 47c-60 0 -115 -22 -165 -66zM227 17.999c54.667 0 100.333 15.668 137 47.001s62 64.333 76 99v82c-50 15.333 -109.667 23 -179 23c-70 0 -121.833 -10.333 -155.5 -31
s-50.5 -53 -50.5 -97c0 -38.667 16 -68.834 48 -90.501s73.333 -32.5 124 -32.5z" />
    <glyph glyph-name="b" unicode="b" horiz-adv-x="595" 
d="M76 85l0.00195312 645h25v-322c22 39.333 52.667 70 92 92s80.666 33 123.999 33c72 0 130 -24.5 174 -73.5s66 -112.167 66 -189.5c0 -86.667 -23.333 -155.167 -70 -205.5s-111 -75.5 -193 -75.5c-44.667 0 -86.834 9.5 -126.501 28.5s-70.167 41.5 -91.5 67.5z
M319.002 508c-49.333 0 -92.6689 -13.333 -130.002 -40s-66.666 -60.667 -87.999 -102v-266c50 -57.333 115.333 -86 196 -86c72.667 0 130 22.5 172 67.5s63 105.833 63 182.5c0 73.333 -20.167 132.333 -60.5 177s-91.166 67 -152.499 67z" />
    <glyph glyph-name="c" unicode="c" horiz-adv-x="530" 
d="M489 96l16.999 -13.999c-16 -28.667 -43 -51.334 -81 -68.001s-75.333 -25 -112 -25c-82 0 -148.167 24.833 -198.5 74.5s-75.5 115.5 -75.5 197.5c0 78.667 23.5 143.667 70.5 195s110.833 77 191.5 77c41.333 0 79.333 -7.16699 114 -21.5s61 -34.5 79 -60.5l-20 -15
c-36 48 -95.333 72 -178 72c-68 0 -123.667 -22.5 -167 -67.5s-65 -104.833 -65 -179.5c0 -76 23 -136.167 69 -180.5s106 -66.5 180 -66.5c72.667 0 131.334 27.333 176.001 82z" />
    <glyph glyph-name="d" unicode="d" horiz-adv-x="598" 
d="M497 0l-0.000976562 105.002c-10.667 -24.667 -34.167 -49.834 -70.5 -75.501s-79.5 -38.5 -129.5 -38.5c-79.333 0 -142.166 24.667 -188.499 74s-69.5 114.666 -69.5 195.999c0 78.667 27.167 143.667 81.5 195s117.833 77 190.5 77c38 0 73.5 -7.66699 106.5 -23
s59.5 -36 79.5 -62v282h25v-730h-25zM296.999 16.002c28 0 53.999 4.66797 77.999 14.001s43.833 21.666 59.5 36.999s28.5 30 38.5 44s18 28 24 42v252c-19.333 33.333 -45.5 58.833 -78.5 76.5s-69.167 26.5 -108.5 26.5c-65.333 0 -122.666 -23.333 -171.999 -70
s-74 -105.667 -74 -177c0 -74.667 21.5 -134.167 64.5 -178.5s99.167 -66.5 168.5 -66.5z" />
    <glyph glyph-name="e" unicode="e" horiz-adv-x="570" 
d="M496 115l19.001 -13.999c-20 -36 -48.833 -63.667 -86.5 -83s-77.834 -29 -120.501 -29c-81.333 0 -146.5 24.5 -195.5 73.5s-73.5 114.167 -73.5 195.5c0 80 22.833 145.833 68.5 197.5s109.5 77.5 191.5 77.5c67.333 0 123 -21.333 167 -64s66 -99.334 66 -170.001
c0 -16 -0.666992 -29.333 -2 -40h-466c-2 -74.667 20 -134.167 66 -178.5s106.333 -66.5 181 -66.5c38.667 0 74.167 8.66699 106.5 26s58.5 42.333 78.5 75zM292.001 508.001c-66.667 0 -120.166 -21.167 -160.499 -63.5s-62.5 -95.833 -66.5 -160.5h442
c1.33301 68 -17.334 122.333 -56.001 163s-91.667 61 -159 61z" />
    <glyph glyph-name="f" unicode="f" horiz-adv-x="329" 
d="M-1 495l-0.000976562 25.001h119v38c0 65.333 14.833 111.666 44.5 138.999s66.834 41 111.501 41c26 0 49.667 -5.66699 71 -17s37.333 -26 48 -44l-17 -16c-24 34.667 -58.333 52 -103 52c-86.667 0 -130 -51.667 -130 -155v-38h191v-25h-191v-495h-25v495h-119z" />
    <glyph glyph-name="g" unicode="g" horiz-adv-x="603" 
d="M526 520l-0.000976562 -492.999c0 -43.333 -6.5 -80.833 -19.5 -112.5s-30.667 -56.167 -53 -73.5s-46.333 -30 -72 -38s-53.5 -12 -83.5 -12c-50 0 -93.167 9.5 -129.5 28.5s-62.5 42.5 -78.5 70.5l19 14c26.667 -29.333 48.667 -49 66 -59
c33.333 -19.333 74.333 -29 123 -29c62 0 111.333 18.333 148 55s55 88.667 55 156v78c-14.667 -29.333 -39.5 -56 -74.5 -80s-77.833 -36 -128.5 -36c-79.333 0 -142.333 25.333 -189 76s-70 116 -70 196c0 78 25.833 142.833 77.5 194.5s115.167 77.5 190.5 77.5
c42.667 0 82.334 -9.83301 119.001 -29.5s61.667 -40.834 75 -63.501v80h25zM298.999 14.001c48 0 89.167 12.8311 123.5 38.498s60.5 58.834 78.5 99.501v245c-16.667 32.667 -42.167 59.334 -76.5 80.001s-73.833 31 -118.5 31c-67.333 0 -124.5 -22.167 -171.5 -66.5
s-70.5 -104.5 -70.5 -180.5c0 -75.333 21.333 -135.333 64 -180s99.667 -67 171 -67z" />
    <glyph glyph-name="h" unicode="h" horiz-adv-x="596" 
d="M76 0l0.000976562 730h25v-322c20.667 37.333 50 67.5 88 90.5s79 34.5 123 34.5c64 0 116.833 -19.833 158.5 -59.5s62.5 -98.167 62.5 -175.5v-298h-25v290c0 70 -17.333 123.833 -52 161.5s-82.334 56.5 -143.001 56.5c-50.667 0 -93.5 -14 -128.5 -42
s-62.833 -61.667 -83.5 -101v-365h-25z" />
    <glyph glyph-name="i" unicode="i" horiz-adv-x="207" 
d="M91 0v520h25v-520h-25zM78 698c0 7.33301 2.5 13.833 7.5 19.5s10.833 8.5 17.5 8.5s12.667 -2.83301 18 -8.5s8 -12.167 8 -19.5s-2.66699 -13.833 -8 -19.5s-11.333 -8.5 -18 -8.5s-12.5 2.83301 -17.5 8.5s-7.5 12.167 -7.5 19.5z" />
    <glyph glyph-name="j" unicode="j" horiz-adv-x="204" 
d="M116 520l-0.00292969 -529c0 -133.333 -46.667 -200 -140 -200c-45.333 0 -81.333 15 -108 45l15 21l6.5 -6.5c3.66699 -3.66699 6.83398 -6.5 9.50098 -8.5s6.83398 -5 12.501 -9s11.334 -7 17.001 -9s12.834 -3.83301 21.501 -5.5s17.667 -2.5 27 -2.5
c37.333 0 65.666 15.167 84.999 45.5s29 73.5 29 129.5v529h25zM78.9971 700c0 7.33301 2.66699 13.5 8 18.5s11 7.5 17 7.5s11.5 -2.5 16.5 -7.5s7.5 -11.167 7.5 -18.5c0 -8.66699 -2.5 -15.834 -7.5 -21.501s-10.5 -8.5 -16.5 -8.5c-6.66699 0 -12.5 2.83301 -17.5 8.5
s-7.5 12.834 -7.5 21.501z" />
    <glyph glyph-name="k" unicode="k" horiz-adv-x="516" 
d="M76 0v730h25v-496l330 286h37l-269 -233l306 -287h-36l-289 270l-79 -66v-204h-25z" />
    <glyph glyph-name="l" unicode="l" horiz-adv-x="185" 
d="M80 0v730h25v-730h-25z" />
    <glyph glyph-name="m" unicode="m" horiz-adv-x="907" 
d="M843 343l-0.00292969 -343.002h-25v334c0 52 -14.167 94 -42.5 126s-68.833 48 -121.5 48c-47.333 0 -86.333 -12.667 -117 -38s-52.334 -55 -65.001 -89v-381h-25v360c0 42.667 -13.833 78 -41.5 106s-65.167 42 -112.5 42c-79.333 0 -143.333 -48.667 -192 -146v-362
h-25v520h25v-114c18.667 36.667 44.834 67 78.501 91s71.834 36 114.501 36c42 0 77.833 -10.167 107.5 -30.5s50.167 -47.166 61.5 -80.499c19.333 34 45.666 61 78.999 81s70.333 30 111 30c22.667 0 44.334 -3.16699 65.001 -9.5s40.834 -16.166 60.501 -29.499
s35.334 -33 47.001 -59s17.5 -56.667 17.5 -92z" />
    <glyph glyph-name="n" unicode="n" horiz-adv-x="596" 
d="M76 0l0.000976562 520.002h25v-112c49.333 83.333 124.666 125 225.999 125c62 0 111.667 -19.333 149 -58s56 -97.334 56 -176.001v-299h-25v292c0 71.333 -16 125.166 -48 161.499s-77.333 54.5 -136 54.5c-99.333 0 -173.333 -47.667 -222 -143v-365h-25z" />
    <glyph glyph-name="o" unicode="o" horiz-adv-x="618" 
d="M39 261c0 79.333 24.833 144.5 74.5 195.5s114.5 76.5 194.5 76.5s145.167 -25.5 195.5 -76.5s75.5 -116.167 75.5 -195.5s-25.167 -144.5 -75.5 -195.5s-115.5 -76.5 -195.5 -76.5s-144.833 25.5 -194.5 76.5s-74.5 116.167 -74.5 195.5zM64 261
c0 -72 23.002 -131.167 69.002 -177.5s104.333 -69.5 175 -69.5c71.333 0 130.166 23.167 176.499 69.5s69.5 105.5 69.5 177.5c0 71.333 -23.333 130.333 -70 177s-105.334 70 -176.001 70s-129 -23.167 -175 -69.5s-69 -105.5 -69 -177.5z" />
    <glyph glyph-name="p" unicode="p" horiz-adv-x="602" 
d="M76 -200l0.00195312 720h25v-112c23.333 40 53.666 70.833 90.999 92.5s77.333 32.5 120 32.5c71.333 0 131.166 -25 179.499 -75s72.5 -113 72.5 -189c0 -80 -24.5 -146.667 -73.5 -200s-110.833 -80 -185.5 -80c-83.333 0 -151.333 30 -204 90v-279h-25zM311.002 508
c-88 0 -157.998 -47.334 -209.998 -142.001v-240c42 -74.667 112 -112 210 -112c63.333 0 117.166 24.333 161.499 73s66.5 109.334 66.5 182.001c0 68.667 -22.333 125.667 -67 171s-98.334 68 -161.001 68z" />
    <glyph glyph-name="q" unicode="q" horiz-adv-x="603" 
d="M501 -200l0.000976562 305.001c-15.333 -30.667 -40.833 -57.667 -76.5 -81s-76.167 -35 -121.5 -35c-80 0 -144 24.667 -192 74s-72 115.333 -72 198c0 78 25.667 142.833 77 194.5s115.333 77.5 192 77.5c44.667 0 83.667 -9.33301 117 -28
s58.666 -40.334 75.999 -65.001v80h25v-720h-25zM303.001 14.001c46 0 86.501 13.332 121.501 39.999s60.5 59.334 76.5 98.001v245c-18 34 -44.5 61 -79.5 81s-73.167 30 -114.5 30c-72.667 0 -131.334 -24 -176.001 -72s-67 -106.667 -67 -176
c0 -78 22.167 -138.5 66.5 -181.5s101.833 -64.5 172.5 -64.5z" />
    <glyph glyph-name="r" unicode="r" horiz-adv-x="337" 
d="M76 0l0.00292969 520h25v-76c13.333 28 32.666 49.667 57.999 65s50.666 23 75.999 23c46.667 0 82.667 -16 108 -48l-16 -19c-22 28 -52.667 42 -92 42c-33.333 0 -62.333 -12.333 -87 -37s-40.334 -54 -47.001 -88v-382h-25z" />
    <glyph glyph-name="s" unicode="s" horiz-adv-x="497" 
d="M431 135c0 28.667 -13.002 51.8301 -39.002 69.4971s-57.5 30.834 -94.5 39.501s-74 17.667 -111 27s-68.5 24.333 -94.5 45s-39 47.334 -39 80.001c0 40.667 18.833 73.667 56.5 99s83.5 38 137.5 38c38 0 73.833 -7.5 107.5 -22.5s59.5 -35.5 77.5 -61.5l-18 -17
c-15.333 23.333 -38.666 41.833 -69.999 55.5s-63.666 20.5 -96.999 20.5c-46 0 -85.667 -9.66699 -119 -29s-50 -47 -50 -83c0 -27.333 13 -49.666 39 -66.999s57.5 -30.333 94.5 -39s74 -18 111 -28s68.5 -25.333 94.5 -46s39 -47.667 39 -81
c0 -44.667 -19.833 -80.167 -59.5 -106.5s-86.5 -39.5 -140.5 -39.5c-46 0 -89.5 10.5 -130.5 31.5s-70.5 50.5 -88.5 88.5l19 17c16 -34.667 42.833 -62 80.5 -82s77.5 -30 119.5 -30s81.667 10.167 119 30.5s56 50.5 56 90.5z" />
    <glyph glyph-name="t" unicode="t" horiz-adv-x="378" 
d="M-1 495l-0.000976562 25.001h116v125h25v-125h199v-25h-199v-295c0 -64.667 10.833 -111.834 32.5 -141.501s53.834 -44.5 96.501 -44.5c21.333 0 41.5 5.33301 60.5 16s32.5 22 40.5 34l14 -21c-30 -36 -68.333 -54 -115 -54c-102.667 0 -154 69.667 -154 209v297h-116z
" />
    <glyph glyph-name="u" unicode="u" horiz-adv-x="587" 
d="M511 523l0.000976562 -522.999h-25v124c-18 -40.667 -46 -73.334 -84 -98.001s-80.333 -37 -127 -37c-68.667 0 -121 19.667 -157 59s-54 95.666 -54 168.999v306h25v-302c0 -138 62 -207 186 -207c47.333 0 89.666 14.333 126.999 43s65.333 68.334 84 119.001v347h25z
" />
    <glyph glyph-name="v" unicode="v" horiz-adv-x="501" 
d="M263 0h-24l-235 520h27l220 -486l219 486h27z" />
    <glyph glyph-name="w" unicode="w" horiz-adv-x="775" 
d="M197 0l-193 520h26l179 -480l170 480h24l171 -478l171 478h26l-187 -520h-21l-172 478l-170 -478h-24z" />
    <glyph glyph-name="x" unicode="x" horiz-adv-x="493" 
d="M434 520h33l-204 -253l215 -267h-32l-200 246l-199 -246h-32l215 267l-204 253h33l187 -233z" />
    <glyph glyph-name="y" unicode="y" horiz-adv-x="524" 
d="M89 -202l6.99707 24.998c12 -4.66699 22.667 -7 32 -7c28 0 52.833 11.667 74.5 35s45.834 68.666 72.501 135.999l6 15l-274 518h29l259 -490l199 490h27l-215 -529c-18 -43.333 -34.5 -78.666 -49.5 -105.999s-29.667 -47.666 -44 -60.999
s-27.666 -22.166 -39.999 -26.499s-27.166 -6.5 -44.499 -6.5c-14.667 0 -27.667 2.33301 -39 7z" />
    <glyph glyph-name="z" unicode="z" horiz-adv-x="478" 
d="M37 495v25h421v-23l-401 -472h394v-25h-431v23l404 472h-387z" />
    <glyph glyph-name="braceleft" unicode="{" horiz-adv-x="298" 
d="M115 -80v210.001c0 29.333 -7.33301 54.5 -22 75.5s-38.334 32.5 -71.001 34.5v25c26.667 2.66699 48.834 12.167 66.501 28.5s26.5 46.166 26.5 89.499v206c0 36.667 9.16699 66 27.5 88s44.833 33 79.5 33h54v-25h-48c-57.333 0 -86 -35.667 -86 -107v-207
c0 -68 -27.333 -107.333 -82 -118c26 -7.33301 46.167 -19.5 60.5 -36.5s21.5 -44.833 21.5 -83.5v-205c0 -41.333 7.33301 -69.833 22 -85.5s38.667 -23.5 72 -23.5h40v-25h-49c-74.667 0 -112 42 -112 126z" />
    <glyph glyph-name="bar" unicode="|" horiz-adv-x="321" 
d="M147 0v700h27v-700h-27z" />
    <glyph glyph-name="braceright" unicode="}" horiz-adv-x="298" 
d="M183 130v-210.001c0 -84 -37.333 -126 -112 -126h-49v25h40c33.333 0 57.333 7.83301 72 23.5s22 44.167 22 85.5v205c0 38.667 7.16699 66.5 21.5 83.5s34.5 29.167 60.5 36.5c-54.667 10.667 -82 50 -82 118v207c0 71.333 -28.667 107 -86 107h-48v25h54
c34.667 0 61.167 -11 79.5 -33s27.5 -51.333 27.5 -88v-206c0 -43.333 8.83301 -73.166 26.5 -89.499s39.834 -25.833 66.501 -28.5v-25c-32.667 -2 -56.334 -13.5 -71.001 -34.5s-22 -46.167 -22 -75.5z" />
    <glyph glyph-name="asciitilde" unicode="~" horiz-adv-x="600" 
d="M85 334l-12.999 21c35.333 36.667 72.666 55 111.999 55c28 0 68 -12.667 120 -38c48 -24 84.667 -36 110 -36c14.667 0 31.5 4.16699 50.5 12.5s35.5 18.833 49.5 31.5l13 -21c-34 -32 -71.667 -48 -113 -48c-25.333 0 -65.333 13 -120 39
c-48 23.333 -84.667 35 -110 35c-34 0 -67 -17 -99 -51z" />
    <glyph glyph-name="uni00A0" unicode="&#xa0;" horiz-adv-x="300" 
 />
    <glyph glyph-name="exclamdown" unicode="&#xa1;" horiz-adv-x="310" 
d="M141 -182v511h27v-511h-27zM124 490c0 8.66699 2.66699 15.834 8 21.501s12 8.5 20 8.5s14.833 -2.83301 20.5 -8.5s8.5 -12.834 8.5 -21.501s-2.83301 -16 -8.5 -22s-12.5 -9 -20.5 -9s-14.667 3 -20 9s-8 13.333 -8 22z" />
    <glyph glyph-name="cent" unicode="&#xa2;" horiz-adv-x="600" 
d="M322 -200l-0.00195312 191.001c-73.333 6 -132.166 33.333 -176.499 82s-66.5 111.334 -66.5 188.001c0 73.333 22 135.166 66 185.499s103 78.5 177 84.5v169h25v-167h3c84 0 145.333 -27.333 184 -82l-20 -15c-36 46.667 -91.667 70.667 -167 72v-494h6
c72.667 0 131.334 27.333 176.001 82l17 -14c-16 -28.667 -43 -51.334 -81 -68.001s-75.333 -25 -112 -25h-6v-189h-25zM103.998 261.001c0 -70.667 19.833 -127.667 59.5 -171s92.5 -68.333 158.5 -75v492c-63.333 -5.33301 -115.5 -30.333 -156.5 -75
s-61.5 -101.667 -61.5 -171z" />
    <glyph glyph-name="sterling" unicode="&#xa3;" horiz-adv-x="600" 
d="M86 291l-0.00195312 25h89c-4 12 -12.333 31.333 -25 58s-22.5 51.334 -29.5 74.001s-10.5 46 -10.5 70c0 50.667 19 95.167 57 133.5s87 57.5 147 57.5c68 0 126 -22.333 174 -67l-13 -21c-46.667 42 -100.334 63 -161.001 63c-49.333 0 -91.166 -16.167 -125.499 -48.5
s-51.5 -71.5 -51.5 -117.5c0 -23.333 3.66699 -46 11 -68s16.833 -45.667 28.5 -71s20.167 -46.333 25.5 -63h176v-25h-170c3.33301 -14.667 5 -31.334 5 -50.001c0 -31.333 -5.33301 -62.333 -16 -93s-22 -55 -34 -73c34 1.33301 78.167 -7.5 132.5 -26.5
s92.833 -28.5 115.5 -28.5c40 0 77.333 14.333 112 43l13 -21c-35.333 -31.333 -78 -47 -128 -47c-24 0 -61.667 9 -113 27s-91.333 27 -120 27c-37.333 0 -73.666 -18.333 -108.999 -55l-14 20c22.667 24 48.334 42 77.001 54c38 50 57 107.333 57 172
c0 16 -1.66699 33 -5 51h-95z" />
    <glyph glyph-name="currency" unicode="&#xa4;" horiz-adv-x="600" 
d="M541 88l-94 94c-40 -38.667 -90 -58 -150 -58c-58.667 0 -108 18.333 -148 55l-91 -91l-18 18l91 91c-34.667 42 -52 92 -52 150c0 58.667 17.667 108.667 53 150l-92 93l18 17l91 -92c40.667 36.667 90 55 148 55c59.333 0 109 -19.333 149 -58l95 95l18 -17l-95 -96
c34 -42.667 51 -91.667 51 -147c0 -56.667 -17 -105.667 -51 -147l95 -94zM104 347c0 -56.667 18.167 -103.834 54.5 -141.501s82.833 -56.5 139.5 -56.5s102.834 18.833 138.501 56.5s53.5 84.834 53.5 141.501s-17.833 103.834 -53.5 141.501s-81.834 56.5 -138.501 56.5
s-103.167 -18.833 -139.5 -56.5s-54.5 -84.834 -54.5 -141.501z" />
    <glyph glyph-name="yen" unicode="&#xa5;" horiz-adv-x="600" 
d="M592 700l-265 -370h194v-25h-209v-142h209v-25h-209v-138h-27v138h-207v25h207v142h-207v25h191l-262 370h31l261 -368l262 368h31z" />
    <glyph glyph-name="brokenbar" unicode="&#xa6;" horiz-adv-x="321" 
d="M174 454h-27v246h27v-246zM147 246h27v-246h-27v246z" />
    <glyph glyph-name="section" unicode="&#xa7;" horiz-adv-x="530" 
d="M82 246c0 44.667 14.002 82.668 42.002 114.001s63.667 51 107 59c-65.333 32 -98 79 -98 141c0 40 14.167 73.333 42.5 100s63.166 40 104.499 40c48 0 89.333 -17.333 124 -52l-16 -19c-10 9.33301 -18 16.5 -24 21.5s-16.833 10.333 -32.5 16s-32.834 8.5 -51.501 8.5
c-35.333 0 -64.5 -11 -87.5 -33s-34.5 -49.333 -34.5 -82c0 -31.333 11.167 -58.666 33.5 -81.999s50.166 -42 83.499 -56c51.333 -3.33301 93 -21.333 125 -54s48 -73.334 48 -122.001c0 -44.667 -14.5 -82.834 -43.5 -114.501s-63.5 -51.167 -103.5 -58.5
c63.333 -26.667 95 -71 95 -133c0 -42 -13.667 -76.833 -41 -104.5s-62 -41.5 -104 -41.5c-49.333 0 -90.666 15.667 -123.999 47l16 19c29.333 -27.333 65.333 -41 108 -41c33.333 0 61.666 11 84.999 33s35 51.333 35 88c0 33.333 -11.667 60.666 -35 81.999
s-51 37.333 -83 48c-53.333 5.33301 -95.166 23.833 -125.499 55.5s-45.5 71.834 -45.5 120.501zM107.002 246.001c0 -43.333 15.333 -79.333 46 -108s68 -43 112 -43c45.333 0 83 14.333 113 43s45 64.667 45 108s-15.167 79.333 -45.5 108s-67.833 43 -112.5 43
s-82.167 -14.333 -112.5 -43s-45.5 -64.667 -45.5 -108z" />
    <glyph glyph-name="dieresis" unicode="&#xa8;" horiz-adv-x="456" 
d="M154 703c0 7.33301 2.16699 13.5 6.5 18.5s9.83301 7.5 16.5 7.5s12.334 -2.5 17.001 -7.5s7 -11.167 7 -18.5s-2.33301 -13.5 -7 -18.5s-10.334 -7.5 -17.001 -7.5s-12.167 2.5 -16.5 7.5s-6.5 11.167 -6.5 18.5zM409 703c0 7.33301 2.16699 13.5 6.5 18.5
s9.83301 7.5 16.5 7.5s12.334 -2.5 17.001 -7.5s7 -11.167 7 -18.5s-2.33301 -13.5 -7 -18.5s-10.334 -7.5 -17.001 -7.5s-12.167 2.5 -16.5 7.5s-6.5 11.167 -6.5 18.5z" />
    <glyph glyph-name="copyright" unicode="&#xa9;" horiz-adv-x="1037" 
d="M675 79l9.99805 -22.999c-40 -43.333 -92.667 -65 -158 -65c-68.667 0 -125 21.167 -169 63.5s-66 97.833 -66 166.5c0 64 23.333 118.333 70 163s102.334 67 167.001 67c56.667 0 105.667 -16 147 -48l-10 -23c-38 29.333 -83.667 44.666 -137 45.999
c-57.333 0 -107 -19.5 -149 -58.5s-63 -88.167 -63 -147.5c0 -60.667 19.5 -110 58.5 -148s89.167 -56.667 150.5 -56c62.667 0.666992 112.334 21.667 149.001 63zM85.998 216.001c0 120 42.167 222.5 126.5 307.5s186.166 127.5 305.499 127.5s221.333 -42.5 306 -127.5
s127 -187.5 127 -307.5s-42.333 -222.333 -127 -307s-186.667 -127 -306 -127s-221.166 42.333 -305.499 127s-126.5 187 -126.5 307zM110.998 216.001c0 -113.333 39.667 -209.833 119 -289.5s175.333 -119.5 288 -119.5s208.834 40 288.501 120s119.5 176.333 119.5 289
c0 113.333 -39.833 210 -119.5 290s-175.834 120 -288.501 120s-208.667 -40 -288 -120s-119 -176.667 -119 -290z" />
    <glyph glyph-name="ordfeminine" unicode="&#xaa;" horiz-adv-x="429" 
d="M89 545l-13.002 21.002c17.333 14 38.5 24.833 63.5 32.5s47.833 11.5 68.5 11.5c46.667 0 83 -10.5 109 -31.5s39 -50.5 39 -88.5v-190h-25v60c-11.333 -18.667 -30.166 -34.334 -56.499 -47.001s-55.166 -19 -86.499 -19c-41.333 0 -73.5 9.66699 -96.5 29
s-34.5 42.333 -34.5 69c0 30 15.333 54.333 46 73s68.667 28 114 28c46.667 0 84.667 -6 114 -18v5c0 37.333 -10.333 64.166 -31 80.499s-51 24.5 -91 24.5c-46 0 -86 -13.333 -120 -40zM186.998 319.002c64 0 112 25.999 144 77.999v53c-32 12 -70 18 -114 18
c-36 0 -67.5 -6.16699 -94.5 -18.5s-40.5 -32.166 -40.5 -59.499c0 -20 9 -36.833 27 -50.5s44 -20.5 78 -20.5z" />
    <glyph glyph-name="guillemotleft" unicode="&#xab;" horiz-adv-x="484" 
d="M233 38l-176 207v4l176 207l19 -16l-164 -193l164 -193zM390 38l-176 207v4l176 207l19 -16l-164 -193l164 -193z" />
    <glyph glyph-name="logicalnot" unicode="&#xac;" horiz-adv-x="600" 
d="M75 347v25h449v-159h-27v134h-422z" />
    <glyph glyph-name="uni00AD" unicode="&#xad;" horiz-adv-x="394" 
d="M92 257v25h209v-25h-209z" />
    <glyph glyph-name="registered" unicode="&#xae;" horiz-adv-x="578" 
d="M60 500c0 64 22.333 118.667 67 164s98.667 68 162 68s117.333 -22.667 162 -68s67 -100 67 -164s-22.333 -118.5 -67 -163.5s-98.667 -67.5 -162 -67.5s-117.333 22.5 -162 67.5s-67 99.5 -67 163.5zM85 500c0 -57.333 19.833 -106 59.5 -146s87.834 -60 144.501 -60
s104.834 20 144.501 60s59.5 88.667 59.5 146s-19.833 106.166 -59.5 146.499s-87.834 60.5 -144.501 60.5s-104.834 -20.167 -144.501 -60.5s-59.5 -89.166 -59.5 -146.499zM233 367l-25 0.000976562v276h77c31.333 0 54.5 -7.16699 69.5 -21.5s22.5 -32.833 22.5 -55.5
c0 -44.667 -23.667 -71.334 -71 -80.001l96 -119h-32l-92 114h-45v-114zM352 563.001c0 36.667 -22.667 55 -68 55h-51v-112h52c17.333 0 32.833 4.5 46.5 13.5s20.5 23.5 20.5 43.5z" />
    <glyph glyph-name="macron" unicode="&#xaf;" horiz-adv-x="441" 
d="M197 669v25h244v-25h-244z" />
    <glyph glyph-name="degree" unicode="&#xb0;" horiz-adv-x="392" 
d="M60 576c0 38 13.167 70.5 39.5 97.5s58.166 40.5 95.499 40.5s69.333 -13.5 96 -40.5s40 -59.5 40 -97.5s-13.333 -70.333 -40 -97s-58.667 -40 -96 -40s-69.166 13.333 -95.499 40s-39.5 59 -39.5 97zM85 576c0 -31.333 10.667 -57.833 32 -79.5s47.333 -32.5 78 -32.5
s56.834 11 78.501 33s32.5 48.333 32.5 79c0 31.333 -10.833 58 -32.5 80s-47.834 33 -78.501 33s-56.667 -11 -78 -33s-32 -48.667 -32 -80z" />
    <glyph glyph-name="plusminus" unicode="&#xb1;" horiz-adv-x="600" 
d="M79 430v25h209v204h25v-204h209v-25h-209v-153h-25v153h-209zM79 186v25h443v-25h-443z" />
    <glyph glyph-name="twosuperior" unicode="&#xb2;" horiz-adv-x="411" 
d="M68 613l-21.001 14c12 26.667 32.167 49.667 60.5 69s58.833 29 91.5 29c43.333 0 78.5 -11.833 105.5 -35.5s40.5 -54.834 40.5 -93.501c0 -49.333 -21 -93 -63 -131c-19.333 -18 -54.666 -44.333 -105.999 -79l-93 -61h264v-25h-308v23l118 78
c46.667 30.667 82.334 57.334 107.001 80.001c37.333 34 56 72.333 56 115c0 29.333 -11.333 54 -34 74s-51.667 30 -87 30c-56.667 0 -100.334 -29 -131.001 -87z" />
    <glyph glyph-name="threesuperior" unicode="&#xb3;" horiz-adv-x="419" 
d="M81 633l-18.999 16c34.667 50.667 86 76 154 76c41.333 0 75.5 -9.83301 102.5 -29.5s40.5 -45.5 40.5 -77.5c0 -24.667 -7.33301 -45.667 -22 -63s-33.334 -29.666 -56.001 -36.999c61.333 -10 92 -43.333 92 -100c0 -38 -15.833 -68 -47.5 -90s-68.5 -33 -110.5 -33
c-76.667 0 -133.334 27.667 -170.001 83l20 15c34 -48.667 84 -73 150 -73c39.333 0 71.333 9 96 27s37 41.667 37 71c0 56.667 -41.667 85 -125 85h-70v25h64c32.667 0 60.334 8.16699 83.001 24.5s34 38.166 34 65.499c0 25.333 -10.833 45.333 -32.5 60
s-50.167 22 -85.5 22c-32 0 -58.5 -5.16699 -79.5 -15.5s-39.5 -27.5 -55.5 -51.5z" />
    <glyph glyph-name="acute" unicode="&#xb4;" horiz-adv-x="428" 
d="M413 767l-109 -141l-20 15l109 141z" />
    <glyph glyph-name="mu" unicode="&#xb5;" horiz-adv-x="599" 
d="M523 520l-0.000976562 -520.002h-25v92c-18.667 -29.333 -45.334 -53.833 -80.001 -73.5s-73.667 -29.5 -117 -29.5c-42.667 0 -81.834 9.83301 -117.501 29.5s-63.167 49.834 -82.5 90.501v-309h-25v720h25v-291c0 -68 18.833 -120.833 56.5 -158.5
s85.834 -56.5 144.501 -56.5c42.667 0 80.834 10.833 114.501 32.5s60.834 48.834 81.501 81.501v392h25z" />
    <glyph glyph-name="mu" unicode="&#x3bc;" horiz-adv-x="599" 
d="M523 520l-0.000976562 -520.002h-25v92c-18.667 -29.333 -45.334 -53.833 -80.001 -73.5s-73.667 -29.5 -117 -29.5c-42.667 0 -81.834 9.83301 -117.501 29.5s-63.167 49.834 -82.5 90.501v-309h-25v720h25v-291c0 -68 18.833 -120.833 56.5 -158.5
s85.834 -56.5 144.501 -56.5c42.667 0 80.834 10.833 114.501 32.5s60.834 48.834 81.501 81.501v392h25z" />
    <glyph glyph-name="paragraph" unicode="&#xb6;" horiz-adv-x="431" 
d="M59 485c0 66 18.1709 118.334 54.5039 157.001s85.166 58 146.499 58h132v-25h-97v-663c0 -70.667 -4.33301 -119.334 -13 -146.001c-18 -54 -58.333 -81 -121 -81c-36 0 -65.667 8.33301 -89 25l12 23c22 -15.333 47.667 -23 77 -23c19.333 0 35.666 3.33301 48.999 10
s23.666 15 30.999 25s13.166 24.167 17.499 42.5s7 36 8 53s1.5 38.833 1.5 65.5v264c-60 -2 -109.833 16.333 -149.5 55s-59.5 92 -59.5 160z" />
    <glyph glyph-name="periodcentered" unicode="&#xb7;" horiz-adv-x="236" 
d="M97 292c0 7.33301 2.33301 13.666 7 18.999s10.334 8 17.001 8s12.5 -2.66699 17.5 -8s7.5 -11.666 7.5 -18.999s-2.33301 -13.5 -7 -18.5s-10.667 -7.5 -18 -7.5c-6.66699 0 -12.334 2.5 -17.001 7.5s-7 11.167 -7 18.5z" />
    <glyph glyph-name="cedilla" unicode="&#xb8;" horiz-adv-x="393" 
d="M215 -180l8.00098 22.998c20.667 -10.667 44 -16 70 -16c50 0 75 16.667 75 50c0 14 -6.33301 25.167 -19 33.5s-30 12.5 -52 12.5c-10.667 0 -18.334 -0.333008 -23.001 -1v78h25v-54c30.667 0.666992 54 -5.66602 70 -18.999s24 -30 24 -50
c0 -21.333 -8.33301 -39.166 -25 -53.499s-41.667 -21.5 -75 -21.5c-30.667 0 -56.667 6 -78 18z" />
    <glyph glyph-name="onesuperior" unicode="&#xb9;" horiz-adv-x="275" 
d="M10 653l155 72h25v-425h-25v397l-144 -67z" />
    <glyph glyph-name="ordmasculine" unicode="&#xba;" horiz-adv-x="460" 
d="M65 452c0 44 15.667 81.333 47 112s70.666 46 117.999 46s86.666 -15.333 117.999 -46s47 -68 47 -112s-15.667 -81.333 -47 -112s-70.666 -46 -117.999 -46s-86.666 15.333 -117.999 46s-47 68 -47 112zM90 452c0 -37.333 13.167 -68.833 39.5 -94.5
s59.833 -38.5 100.5 -38.5c40 0 73.333 13 100 39s40 57.333 40 94c0 37.333 -13.167 68.833 -39.5 94.5s-59.833 38.5 -100.5 38.5s-74.167 -12.833 -100.5 -38.5s-39.5 -57.167 -39.5 -94.5z" />
    <glyph glyph-name="guillemotright" unicode="&#xbb;" horiz-adv-x="484" 
d="M427 245l-176 -207l-19 16l164 193l-164 193l19 16l176 -207v-4zM270 245l-176 -207l-19 16l164 193l-164 193l19 16l176 -207v-4z" />
    <glyph glyph-name="onequarter" unicode="&#xbc;" horiz-adv-x="851" 
d="M78 20l543 678l20 -15l-543 -679zM45 653l155 72h25v-425h-25v397l-144 -67zM682 0v109h-304v25l304 286h25v-286h99v-25h-99v-109h-25zM414 134h268v252z" />
    <glyph glyph-name="onehalf" unicode="&#xbd;" horiz-adv-x="862" 
d="M78 20l543 678l20 -15l-543 -679zM45 653l155 72h25v-425h-25v397l-144 -67zM498 313l-21.001 14c12 26.667 32.167 49.667 60.5 69s58.833 29 91.5 29c43.333 0 78.5 -11.833 105.5 -35.5s40.5 -54.834 40.5 -93.501c0 -49.333 -21 -93 -63 -131
c-19.333 -18 -54.666 -44.333 -105.999 -79l-93 -61h264v-25h-308v23l118 78c46.667 30.667 82.334 57.334 107.001 80.001c37.333 34 56 72.333 56 115c0 29.333 -11.333 54 -34 74s-51.667 30 -87 30c-56.667 0 -100.334 -29 -131.001 -87z" />
    <glyph glyph-name="threequarters" unicode="&#xbe;" horiz-adv-x="954" 
d="M181 20l543 678l20 -15l-543 -679zM785 0v109h-304v25l304 286h25v-286h99v-25h-99v-109h-25zM517 134h268v252zM81 633l-18.999 16c34.667 50.667 86 76 154 76c41.333 0 75.5 -9.83301 102.5 -29.5s40.5 -45.5 40.5 -77.5c0 -24.667 -7.33301 -45.667 -22 -63
s-33.334 -29.666 -56.001 -36.999c61.333 -10 92 -43.333 92 -100c0 -38 -15.833 -68 -47.5 -90s-68.5 -33 -110.5 -33c-76.667 0 -133.334 27.667 -170.001 83l20 15c34 -48.667 84 -73 150 -73c39.333 0 71.333 9 96 27s37 41.667 37 71c0 56.667 -41.667 85 -125 85h-70
v25h64c32.667 0 60.334 8.16699 83.001 24.5s34 38.166 34 65.499c0 25.333 -10.833 45.333 -32.5 60s-50.167 22 -85.5 22c-32 0 -58.5 -5.16699 -79.5 -15.5s-39.5 -27.5 -55.5 -51.5z" />
    <glyph glyph-name="questiondown" unicode="&#xbf;" horiz-adv-x="556" 
d="M275 331l25.0029 0.00195312c2.66699 -13.333 4 -26.666 4 -39.999c0 -28 -8.5 -52.333 -25.5 -73s-37.667 -37.834 -62 -51.501s-48.833 -27.5 -73.5 -41.5s-45.5 -32.5 -62.5 -55.5s-25.5 -50.167 -25.5 -81.5c0 -47.333 18.667 -84.833 56 -112.5
s86.666 -41.5 147.999 -41.5c51.333 0 95.333 12.833 132 38.5s65 57.834 85 96.501l20 -11c-18 -40.667 -48.333 -75.667 -91 -105s-91.667 -44 -147 -44c-74 0 -130.5 16.5 -169.5 49.5s-58.5 75.5 -58.5 127.5c0 30 6.16699 56.667 18.5 80s27.666 41.666 45.999 54.999
s38.333 26.666 60 39.999s41.667 25 60 35s33.666 23.167 45.999 39.5s18.5 34.833 18.5 55.5c0 11.333 -1.33301 24.666 -4 39.999zM311.003 490.002c0 -8.66699 -2.66699 -16 -8 -22s-12 -9 -20 -9s-14.833 3 -20.5 9s-8.5 13.333 -8.5 22s2.83301 15.834 8.5 21.501
s12.5 8.5 20.5 8.5s14.667 -2.83301 20 -8.5s8 -12.834 8 -21.501z" />
    <glyph glyph-name="Agrave" unicode="&#xc0;" horiz-adv-x="656" 
d="M6 0l307 704h27l310 -704h-29l-100 228h-388l-99 -228h-28zM326 674l-181 -421h366zM355 767l-159 90l12 22l160 -90z" />
    <glyph glyph-name="Aacute" unicode="&#xc1;" horiz-adv-x="656" 
d="M6 0l307 704h27l310 -704h-29l-100 228h-388l-99 -228h-28zM326 674l-181 -421h366zM281 789l159 90l12 -22l-159 -90z" />
    <glyph glyph-name="Acircumflex" unicode="&#xc2;" horiz-adv-x="656" 
d="M6 0l307 704h27l310 -704h-29l-100 228h-388l-99 -228h-28zM326 674l-181 -421h366zM328 885l176 -96l-12 -22l-164 90l-164 -90l-12 22z" />
    <glyph glyph-name="Atilde" unicode="&#xc3;" horiz-adv-x="656" 
d="M6 0l307 704h27l310 -704h-29l-100 228h-388l-99 -228h-28zM326 674l-181 -421h366zM244 863c21.333 0 45.333 -6.33301 72 -19l43 -21c18 -8.66699 36 -13 54 -13c26.667 0 50 14 70 42l18 -17c-24.667 -33.333 -54 -50 -88 -50c-22 0 -44 5.33301 -66 16l-42 20
c-22.667 11.333 -43 17 -61 17c-26.667 0 -50 -14 -70 -42l-18 17c24.667 33.333 54 50 88 50z" />
    <glyph glyph-name="Adieresis" unicode="&#xc4;" horiz-adv-x="656" 
d="M6 0l307 704h27l310 -704h-29l-100 228h-388l-99 -228h-28zM326 674l-181 -421h366zM193 820c0 6 2.33301 11 7 15s10.334 6 17.001 6s12.334 -2 17.001 -6s7 -9 7 -15s-2.33301 -11 -7 -15s-10.334 -6 -17.001 -6s-12.334 2 -17.001 6s-7 9 -7 15zM416 820
c0 6 2.33301 11 7 15s10.334 6 17.001 6s12.334 -2 17.001 -6s7 -9 7 -15s-2.33301 -11 -7 -15s-10.334 -6 -17.001 -6s-12.334 2 -17.001 6s-7 9 -7 15z" />
    <glyph glyph-name="Aring" unicode="&#xc5;" horiz-adv-x="656" 
d="M6 0l307 704h27l310 -704h-29l-100 228h-388l-99 -228h-28zM326 674l-181 -421h366zM244 811c0 22.667 8.16699 41.834 24.5 57.501s36.166 23.5 59.499 23.5s43.333 -7.83301 60 -23.5s25 -34.834 25 -57.501s-8.33301 -41.667 -25 -57s-36.667 -23 -60 -23
s-43.166 7.66699 -59.499 23s-24.5 34.333 -24.5 57zM269 811c0 -15.333 5.66699 -28.333 17 -39s25.333 -16 42 -16s30.834 5.33301 42.501 16s17.5 23.667 17.5 39s-5.83301 28.5 -17.5 39.5s-25.834 16.5 -42.501 16.5s-30.667 -5.5 -42 -16.5s-17 -24.167 -17 -39.5z
" />
    <glyph glyph-name="AE" unicode="&#xc6;" horiz-adv-x="1048" 
d="M502 0v226h-310l-161 -226h-31l502 700h480v-25h-453v-306h423v-25h-423v-319h463v-25h-490zM210 251h292v407z" />
    <glyph glyph-name="Ccedilla" unicode="&#xc7;" horiz-adv-x="681" 
d="M309 -180l8 22.999c20.667 -10.667 44 -16 70 -16c50 0 75 16.667 75 50c0 14 -6.33301 25.167 -19 33.5s-30 12.5 -52 12.5c-11.333 0 -19.333 -0.333008 -24 -1v71c-100.667 6.66699 -180 42 -238 106s-87 147.667 -87 251s31.167 189 93.5 257s146.5 102 252.5 102
c58 0 108.833 -10 152.5 -30s78.167 -44.667 103.5 -74l-14 -17c-36 32 -71.833 56 -107.5 72s-81.5 24 -137.5 24c-98.667 0 -176 -31.167 -232 -93.5s-84 -142.5 -84 -240.5c0 -101.333 29.833 -182.333 89.5 -243s141.834 -91 246.501 -91
c95.333 0 172.666 32 231.999 96l15 -16c-23.333 -30.667 -56.166 -55.834 -98.499 -75.501s-91.833 -29.5 -148.5 -29.5c-1.33301 0 -3.33301 0.166992 -6 0.5s-4.33398 0.5 -5.00098 0.5v-46c30 0.666992 53 -5.66602 69 -18.999s24 -30 24 -50
c0 -21.333 -8.33301 -39.166 -25 -53.499s-41.667 -21.5 -75 -21.5c-30.667 0 -56.667 6 -78 18z" />
    <glyph glyph-name="Egrave" unicode="&#xc8;" horiz-adv-x="630" 
d="M84 0v700h480v-25h-453v-306h423v-25h-423v-319h463v-25h-490zM385 767l-159 90l12 22l160 -90z" />
    <glyph glyph-name="Eacute" unicode="&#xc9;" horiz-adv-x="630" 
d="M84 0v700h480v-25h-453v-306h423v-25h-423v-319h463v-25h-490zM273 789l159 90l12 -22l-159 -90z" />
    <glyph glyph-name="Ecircumflex" unicode="&#xca;" horiz-adv-x="630" 
d="M84 0v700h480v-25h-453v-306h423v-25h-423v-319h463v-25h-490zM330 885l176 -96l-12 -22l-164 90l-164 -90l-12 22z" />
    <glyph glyph-name="Edieresis" unicode="&#xcb;" horiz-adv-x="630" 
d="M84 0v700h480v-25h-453v-306h423v-25h-423v-319h463v-25h-490zM192 820c0 6 2.33301 11 7 15s10.334 6 17.001 6s12.334 -2 17.001 -6s7 -9 7 -15s-2.33301 -11 -7 -15s-10.334 -6 -17.001 -6s-12.334 2 -17.001 6s-7 9 -7 15zM415 820c0 6 2.33301 11 7 15
s10.334 6 17.001 6s12.334 -2 17.001 -6s7 -9 7 -15s-2.33301 -11 -7 -15s-10.334 -6 -17.001 -6s-12.334 2 -17.001 6s-7 9 -7 15z" />
    <glyph glyph-name="Igrave" unicode="&#xcc;" horiz-adv-x="217" 
d="M95 0v700h27v-700h-27zM153 767l-159 90l12 22l160 -90z" />
    <glyph glyph-name="Iacute" unicode="&#xcd;" horiz-adv-x="217" 
d="M95 0v700h27v-700h-27zM51 789l159 90l12 -22l-159 -90z" />
    <glyph glyph-name="Icircumflex" unicode="&#xce;" horiz-adv-x="217" 
d="M95 0v700h27v-700h-27zM108 885l176 -96l-12 -22l-164 90l-164 -90l-12 22z" />
    <glyph glyph-name="Idieresis" unicode="&#xcf;" horiz-adv-x="217" 
d="M95 0v700h27v-700h-27zM-27 820c0 6 2.33301 11 7 15s10.334 6 17.001 6s12.334 -2 17.001 -6s7 -9 7 -15s-2.33301 -11 -7 -15s-10.334 -6 -17.001 -6s-12.334 2 -17.001 6s-7 9 -7 15zM196 820c0 6 2.33301 11 7 15s10.334 6 17.001 6s12.334 -2 17.001 -6s7 -9 7 -15
s-2.33301 -11 -7 -15s-10.334 -6 -17.001 -6s-12.334 2 -17.001 6s-7 9 -7 15z" />
    <glyph glyph-name="Eth" unicode="&#xd0;" horiz-adv-x="755" 
d="M2 333v24.999h131v342h209c65.333 0 122.333 -9 171 -27s87 -43 115 -75s48.833 -67.833 62.5 -107.5s20.5 -83.167 20.5 -130.5c0 -105.333 -32 -191.666 -96 -258.999s-157 -101 -279 -101h-203v333h-131zM340 674.999h-180v-317h221v-25h-221v-308h175
c116 0 203.167 31 261.5 93s87.5 142.667 87.5 242c0 94 -28 170 -84 228s-142.667 87 -260 87z" />
    <glyph glyph-name="Ntilde" unicode="&#xd1;" horiz-adv-x="734" 
d="M650 0h-27l-512 658v-658h-27v700h27l512 -658v658h27v-700zM283 863c21.333 0 45.333 -6.33301 72 -19l43 -21c18 -8.66699 36 -13 54 -13c26.667 0 50 14 70 42l18 -17c-24.667 -33.333 -54 -50 -88 -50c-22 0 -44 5.33301 -66 16l-42 20c-22.667 11.333 -43 17 -61 17
c-26.667 0 -50 -14 -70 -42l-18 17c24.667 33.333 54 50 88 50z" />
    <glyph glyph-name="Ograve" unicode="&#xd2;" horiz-adv-x="785" 
d="M42 350c0 101.333 33.667 186.5 101 255.5s150.333 103.5 249 103.5s181.667 -34 249 -102s101 -153.667 101 -257c0 -102 -33.833 -187.333 -101.5 -256s-150.5 -103 -248.5 -103c-98.667 0 -181.667 34 -249 102s-101 153.667 -101 257zM69 350
c0 -93.333 31.5 -172.333 94.5 -237s139.167 -97 228.5 -97c92 0 168.833 32.167 230.5 96.5s92.5 143.5 92.5 237.5s-31.333 173.167 -94 237.5s-139 96.5 -229 96.5s-166.333 -32.167 -229 -96.5s-94 -143.5 -94 -237.5zM412 767l-159 90l12 22l160 -90z" />
    <glyph glyph-name="Oacute" unicode="&#xd3;" horiz-adv-x="785" 
d="M42 350c0 101.333 33.667 186.5 101 255.5s150.333 103.5 249 103.5s181.667 -34 249 -102s101 -153.667 101 -257c0 -102 -33.833 -187.333 -101.5 -256s-150.5 -103 -248.5 -103c-98.667 0 -181.667 34 -249 102s-101 153.667 -101 257zM69 350
c0 -93.333 31.5 -172.333 94.5 -237s139.167 -97 228.5 -97c92 0 168.833 32.167 230.5 96.5s92.5 143.5 92.5 237.5s-31.333 173.167 -94 237.5s-139 96.5 -229 96.5s-166.333 -32.167 -229 -96.5s-94 -143.5 -94 -237.5zM355 789l159 90l12 -22l-159 -90z" />
    <glyph glyph-name="Ocircumflex" unicode="&#xd4;" horiz-adv-x="785" 
d="M42 350c0 101.333 33.667 186.5 101 255.5s150.333 103.5 249 103.5s181.667 -34 249 -102s101 -153.667 101 -257c0 -102 -33.833 -187.333 -101.5 -256s-150.5 -103 -248.5 -103c-98.667 0 -181.667 34 -249 102s-101 153.667 -101 257zM69 350
c0 -93.333 31.5 -172.333 94.5 -237s139.167 -97 228.5 -97c92 0 168.833 32.167 230.5 96.5s92.5 143.5 92.5 237.5s-31.333 173.167 -94 237.5s-139 96.5 -229 96.5s-166.333 -32.167 -229 -96.5s-94 -143.5 -94 -237.5zM392 885l176 -96l-12 -22l-164 90l-164 -90l-12 22
z" />
    <glyph glyph-name="Otilde" unicode="&#xd5;" horiz-adv-x="785" 
d="M42 350c0 101.333 33.667 186.5 101 255.5s150.333 103.5 249 103.5s181.667 -34 249 -102s101 -153.667 101 -257c0 -102 -33.833 -187.333 -101.5 -256s-150.5 -103 -248.5 -103c-98.667 0 -181.667 34 -249 102s-101 153.667 -101 257zM69 350
c0 -93.333 31.5 -172.333 94.5 -237s139.167 -97 228.5 -97c92 0 168.833 32.167 230.5 96.5s92.5 143.5 92.5 237.5s-31.333 173.167 -94 237.5s-139 96.5 -229 96.5s-166.333 -32.167 -229 -96.5s-94 -143.5 -94 -237.5zM308 863c21.333 0 45.333 -6.33301 72 -19l43 -21
c18 -8.66699 36 -13 54 -13c26.667 0 50 14 70 42l18 -17c-24.667 -33.333 -54 -50 -88 -50c-22 0 -44 5.33301 -66 16l-42 20c-22.667 11.333 -43 17 -61 17c-26.667 0 -50 -14 -70 -42l-18 17c24.667 33.333 54 50 88 50z" />
    <glyph glyph-name="Odieresis" unicode="&#xd6;" horiz-adv-x="785" 
d="M42 350c0 101.333 33.667 186.5 101 255.5s150.333 103.5 249 103.5s181.667 -34 249 -102s101 -153.667 101 -257c0 -102 -33.833 -187.333 -101.5 -256s-150.5 -103 -248.5 -103c-98.667 0 -181.667 34 -249 102s-101 153.667 -101 257zM69 350
c0 -93.333 31.5 -172.333 94.5 -237s139.167 -97 228.5 -97c92 0 168.833 32.167 230.5 96.5s92.5 143.5 92.5 237.5s-31.333 173.167 -94 237.5s-139 96.5 -229 96.5s-166.333 -32.167 -229 -96.5s-94 -143.5 -94 -237.5zM257 820c0 6 2.33301 11 7 15s10.334 6 17.001 6
s12.334 -2 17.001 -6s7 -9 7 -15s-2.33301 -11 -7 -15s-10.334 -6 -17.001 -6s-12.334 2 -17.001 6s-7 9 -7 15zM480 820c0 6 2.33301 11 7 15s10.334 6 17.001 6s12.334 -2 17.001 -6s7 -9 7 -15s-2.33301 -11 -7 -15s-10.334 -6 -17.001 -6s-12.334 2 -17.001 6
s-7 9 -7 15z" />
    <glyph glyph-name="multiply" unicode="&#xd7;" horiz-adv-x="600" 
d="M137 504l18 17l145 -145l145 145l18 -17l-145 -145l146 -147l-18 -17l-146 146l-146 -146l-18 17l146 146z" />
    <glyph glyph-name="Oslash" unicode="&#xd8;" horiz-adv-x="785" 
d="M106 18l50 62c-76 68.667 -114 158.667 -114 270c0 101.333 33.667 186.5 101 255.5s150.333 103.5 249 103.5c80 0 150.667 -23.333 212 -70l45 57l20 -15l-46 -58c79.333 -69.333 119 -160.333 119 -273c0 -102 -33.833 -187.333 -101.5 -256s-150.5 -103 -248.5 -103
c-82.667 0 -155 24.333 -217 73l-49 -62zM715 350c0 102 -36.333 186 -109 252l-413 -516c58 -46.667 124.333 -70 199 -70c92 0 168.833 32.167 230.5 96.5s92.5 143.5 92.5 237.5zM69 350c0 -100 35 -182.333 105 -247l412 515c-58 44 -122.667 66 -194 66
c-90 0 -166.333 -32.167 -229 -96.5s-94 -143.5 -94 -237.5z" />
    <glyph glyph-name="Ugrave" unicode="&#xd9;" horiz-adv-x="713" 
d="M72 291l0.00195312 409h25v-400c0 -89.333 23.333 -158.833 70 -208.5s110 -74.5 190 -74.5s143.167 24.833 189.5 74.5s69.5 119.167 69.5 208.5v400h25v-409c0 -51.333 -8.16699 -96.666 -24.5 -135.999s-38.166 -70.5 -65.499 -93.5s-57.333 -40.333 -90 -52
s-67.334 -17.5 -104.001 -17.5s-71.334 5.83301 -104.001 17.5s-62.834 29 -90.501 52s-49.667 54.167 -66 93.5s-24.5 84.666 -24.5 135.999zM400.002 767l-159 90l12 22l160 -90z" />
    <glyph glyph-name="Uacute" unicode="&#xda;" horiz-adv-x="713" 
d="M72 291l0.00195312 409h25v-400c0 -89.333 23.333 -158.833 70 -208.5s110 -74.5 190 -74.5s143.167 24.833 189.5 74.5s69.5 119.167 69.5 208.5v400h25v-409c0 -51.333 -8.16699 -96.666 -24.5 -135.999s-38.166 -70.5 -65.499 -93.5s-57.333 -40.333 -90 -52
s-67.334 -17.5 -104.001 -17.5s-71.334 5.83301 -104.001 17.5s-62.834 29 -90.501 52s-49.667 54.167 -66 93.5s-24.5 84.666 -24.5 135.999zM303.002 789l159 90l12 -22l-159 -90z" />
    <glyph glyph-name="Ucircumflex" unicode="&#xdb;" horiz-adv-x="713" 
d="M72 291l0.00195312 409h25v-400c0 -89.333 23.333 -158.833 70 -208.5s110 -74.5 190 -74.5s143.167 24.833 189.5 74.5s69.5 119.167 69.5 208.5v400h25v-409c0 -51.333 -8.16699 -96.666 -24.5 -135.999s-38.166 -70.5 -65.499 -93.5s-57.333 -40.333 -90 -52
s-67.334 -17.5 -104.001 -17.5s-71.334 5.83301 -104.001 17.5s-62.834 29 -90.501 52s-49.667 54.167 -66 93.5s-24.5 84.666 -24.5 135.999zM357.002 885l176 -96l-12 -22l-164 90l-164 -90l-12 22z" />
    <glyph glyph-name="Udieresis" unicode="&#xdc;" horiz-adv-x="713" 
d="M72 291l0.00195312 409h25v-400c0 -89.333 23.333 -158.833 70 -208.5s110 -74.5 190 -74.5s143.167 24.833 189.5 74.5s69.5 119.167 69.5 208.5v400h25v-409c0 -51.333 -8.16699 -96.666 -24.5 -135.999s-38.166 -70.5 -65.499 -93.5s-57.333 -40.333 -90 -52
s-67.334 -17.5 -104.001 -17.5s-71.334 5.83301 -104.001 17.5s-62.834 29 -90.501 52s-49.667 54.167 -66 93.5s-24.5 84.666 -24.5 135.999zM222.002 820c0 6 2.33301 11 7 15s10.334 6 17.001 6s12.334 -2 17.001 -6s7 -9 7 -15s-2.33301 -11 -7 -15
s-10.334 -6 -17.001 -6s-12.334 2 -17.001 6s-7 9 -7 15zM445.002 820c0 6 2.33301 11 7 15s10.334 6 17.001 6s12.334 -2 17.001 -6s7 -9 7 -15s-2.33301 -11 -7 -15s-10.334 -6 -17.001 -6s-12.334 2 -17.001 6s-7 9 -7 15z" />
    <glyph glyph-name="Yacute" unicode="&#xdd;" horiz-adv-x="585" 
d="M585 700l-280 -442v-258h-27v258l-278 442h33l259 -415l261 415h32zM251 789l159 90l12 -22l-159 -90z" />
    <glyph glyph-name="Thorn" unicode="&#xde;" horiz-adv-x="646" 
d="M111 0h-27v700h27v-125h215c55.333 0 102 -5.5 140 -16.5s66.5 -26.5 85.5 -46.5s32.333 -41 40 -63s11.5 -46.667 11.5 -74c0 -59.333 -22.167 -108.333 -66.5 -147s-114.833 -58 -211.5 -58h-214v-170zM331 550h-220v-355h212c84.667 -0.666992 148 15.333 190 48
s63 77 63 133c0 54 -19.667 96.5 -59 127.5s-101.333 46.5 -186 46.5z" />
    <glyph glyph-name="germandbls" unicode="&#xdf;" horiz-adv-x="546" 
d="M271 738c58 0 104.834 -17.6699 140.501 -53.0029s53.5 -84 53.5 -146c0 -38.667 -12.167 -75.167 -36.5 -109.5s-57.166 -58.166 -98.499 -71.499c54.667 -9.33301 97 -29.666 127 -60.999s45 -69.666 45 -114.999c0 -59.333 -20.333 -106 -61 -140
s-92.334 -51 -155.001 -51c-52.667 0 -97.334 10.333 -134.001 31l12 22c37.333 -18 78 -27 122 -27c56 0 101.833 15 137.5 45s53.5 70 53.5 120c0 44 -19.333 81.833 -58 113.5s-91.667 47.5 -159 47.5h-65v25h65c50 0 92.5 17.167 127.5 51.5s52.5 74.166 52.5 119.499
c0 52 -14.833 94 -44.5 126s-71.167 48 -124.5 48c-113.333 0 -170 -68 -170 -204v-509h-25v527c0 34 4.66699 64 14 90s20.833 46.333 34.5 61s29.667 26.834 48 36.501s35.333 16 51 19s31.5 4.5 47.5 4.5z" />
    <glyph glyph-name="agrave" unicode="&#xe0;" horiz-adv-x="528" 
d="M82 442l-15 17.999c22.667 22.667 51.167 40.5 85.5 53.5s66.833 19.5 97.5 19.5c143.333 0 215 -68.667 215 -206v-327h-25v116c-46 -82 -117 -123 -213 -123c-60 0 -107.833 13.333 -143.5 40s-53.5 62.334 -53.5 107.001c0 53.333 18.667 92.333 56 117s96 37 176 37
c68.667 0 128 -6.66699 178 -20v50c0 60 -15.167 105.667 -45.5 137s-79.5 47 -147.5 47c-60 0 -115 -22 -165 -66zM227 17.999c54.667 0 100.333 15.668 137 47.001s62 64.333 76 99v82c-50 15.333 -109.667 23 -179 23c-70 0 -121.833 -10.333 -155.5 -31
s-50.5 -53 -50.5 -97c0 -38.667 16 -68.834 48 -90.501s73.333 -32.5 124 -32.5zM176.999 782l104 -145l-21 -15l-103 145z" />
    <glyph glyph-name="aacute" unicode="&#xe1;" horiz-adv-x="528" 
d="M82 442l-15 17.999c22.667 22.667 51.167 40.5 85.5 53.5s66.833 19.5 97.5 19.5c143.333 0 215 -68.667 215 -206v-327h-25v116c-46 -82 -117 -123 -213 -123c-60 0 -107.833 13.333 -143.5 40s-53.5 62.334 -53.5 107.001c0 53.333 18.667 92.333 56 117s96 37 176 37
c68.667 0 128 -6.66699 178 -20v50c0 60 -15.167 105.667 -45.5 137s-79.5 47 -147.5 47c-60 0 -115 -22 -165 -66zM227 17.999c54.667 0 100.333 15.668 137 47.001s62 64.333 76 99v82c-50 15.333 -109.667 23 -179 23c-70 0 -121.833 -10.333 -155.5 -31
s-50.5 -53 -50.5 -97c0 -38.667 16 -68.834 48 -90.501s73.333 -32.5 124 -32.5zM242.999 637l104 145l20 -15l-103 -145z" />
    <glyph glyph-name="acircumflex" unicode="&#xe2;" horiz-adv-x="528" 
d="M82 442l-15 17.999c22.667 22.667 51.167 40.5 85.5 53.5s66.833 19.5 97.5 19.5c143.333 0 215 -68.667 215 -206v-327h-25v116c-46 -82 -117 -123 -213 -123c-60 0 -107.833 13.333 -143.5 40s-53.5 62.334 -53.5 107.001c0 53.333 18.667 92.333 56 117s96 37 176 37
c68.667 0 128 -6.66699 178 -20v50c0 60 -15.167 105.667 -45.5 137s-79.5 47 -147.5 47c-60 0 -115 -22 -165 -66zM227 17.999c54.667 0 100.333 15.668 137 47.001s62 64.333 76 99v82c-50 15.333 -109.667 23 -179 23c-70 0 -121.833 -10.333 -155.5 -31
s-50.5 -53 -50.5 -97c0 -38.667 16 -68.834 48 -90.501s73.333 -32.5 124 -32.5zM375.999 637l-115 103l-115 -103l-17 19l132 119l132 -119z" />
    <glyph glyph-name="atilde" unicode="&#xe3;" horiz-adv-x="528" 
d="M82 442l-15 17.999c22.667 22.667 51.167 40.5 85.5 53.5s66.833 19.5 97.5 19.5c143.333 0 215 -68.667 215 -206v-327h-25v116c-46 -82 -117 -123 -213 -123c-60 0 -107.833 13.333 -143.5 40s-53.5 62.334 -53.5 107.001c0 53.333 18.667 92.333 56 117s96 37 176 37
c68.667 0 128 -6.66699 178 -20v50c0 60 -15.167 105.667 -45.5 137s-79.5 47 -147.5 47c-60 0 -115 -22 -165 -66zM227 17.999c54.667 0 100.333 15.668 137 47.001s62 64.333 76 99v82c-50 15.333 -109.667 23 -179 23c-70 0 -121.833 -10.333 -155.5 -31
s-50.5 -53 -50.5 -97c0 -38.667 16 -68.834 48 -90.501s73.333 -32.5 124 -32.5zM190.999 712c16 0 37.667 -8 65 -24l11 -7c24 -14.667 42 -22 54 -22c24.667 0 47 14 67 42l18 -17c-24.667 -33.333 -53 -50 -85 -50c-16 0 -37.667 8 -65 24l-11 7
c-24 14.667 -42 22 -54 22c-24.667 0 -47 -14 -67 -42l-18 17c24.667 33.333 53 50 85 50z" />
    <glyph glyph-name="adieresis" unicode="&#xe4;" horiz-adv-x="528" 
d="M82 442l-15 17.999c22.667 22.667 51.167 40.5 85.5 53.5s66.833 19.5 97.5 19.5c143.333 0 215 -68.667 215 -206v-327h-25v116c-46 -82 -117 -123 -213 -123c-60 0 -107.833 13.333 -143.5 40s-53.5 62.334 -53.5 107.001c0 53.333 18.667 92.333 56 117s96 37 176 37
c68.667 0 128 -6.66699 178 -20v50c0 60 -15.167 105.667 -45.5 137s-79.5 47 -147.5 47c-60 0 -115 -22 -165 -66zM227 17.999c54.667 0 100.333 15.668 137 47.001s62 64.333 76 99v82c-50 15.333 -109.667 23 -179 23c-70 0 -121.833 -10.333 -155.5 -31
s-50.5 -53 -50.5 -97c0 -38.667 16 -68.834 48 -90.501s73.333 -32.5 124 -32.5zM97.999 703c0 7.33301 2.16699 13.5 6.5 18.5s9.83301 7.5 16.5 7.5s12.334 -2.5 17.001 -7.5s7 -11.167 7 -18.5s-2.33301 -13.5 -7 -18.5s-10.334 -7.5 -17.001 -7.5s-12.167 2.5 -16.5 7.5
s-6.5 11.167 -6.5 18.5zM352.999 703c0 7.33301 2.16699 13.5 6.5 18.5s9.83301 7.5 16.5 7.5s12.334 -2.5 17.001 -7.5s7 -11.167 7 -18.5s-2.33301 -13.5 -7 -18.5s-10.334 -7.5 -17.001 -7.5s-12.167 2.5 -16.5 7.5s-6.5 11.167 -6.5 18.5z" />
    <glyph glyph-name="aring" unicode="&#xe5;" horiz-adv-x="528" 
d="M82 442l-15 17.999c22.667 22.667 51.167 40.5 85.5 53.5s66.833 19.5 97.5 19.5c143.333 0 215 -68.667 215 -206v-327h-25v116c-46 -82 -117 -123 -213 -123c-60 0 -107.833 13.333 -143.5 40s-53.5 62.334 -53.5 107.001c0 53.333 18.667 92.333 56 117s96 37 176 37
c68.667 0 128 -6.66699 178 -20v50c0 60 -15.167 105.667 -45.5 137s-79.5 47 -147.5 47c-60 0 -115 -22 -165 -66zM227 17.999c54.667 0 100.333 15.668 137 47.001s62 64.333 76 99v82c-50 15.333 -109.667 23 -179 23c-70 0 -121.833 -10.333 -155.5 -31
s-50.5 -53 -50.5 -97c0 -38.667 16 -68.834 48 -90.501s73.333 -32.5 124 -32.5zM170.999 701c0 23.333 7.83301 43.166 23.5 59.499s34.834 24.5 57.501 24.5s41.834 -8.16699 57.501 -24.5s23.5 -36.166 23.5 -59.499s-7.83301 -43 -23.5 -59s-34.834 -24 -57.501 -24
s-41.834 8 -57.501 24s-23.5 35.667 -23.5 59zM195.999 701c0 -16.667 5.5 -30.5 16.5 -41.5s24.167 -16.5 39.5 -16.5s28.5 5.5 39.5 16.5s16.5 24.833 16.5 41.5s-5.5 30.667 -16.5 42s-24.167 17 -39.5 17s-28.5 -5.66699 -39.5 -17s-16.5 -25.333 -16.5 -42z" />
    <glyph glyph-name="ae" unicode="&#xe6;" horiz-adv-x="972" 
d="M82 442l-15.002 18.001c22.667 22.667 51.167 40.5 85.5 53.5s66.833 19.5 97.5 19.5c124 0 194.333 -51.667 211 -155c18.667 48 48.334 85.833 89.001 113.5s90.667 41.5 150 41.5c67.333 0 123 -21.333 167 -64s66 -99.334 66 -170.001
c0 -16 -0.666992 -29.333 -2 -40h-466c-2 -74.667 20 -134.167 66 -178.5s106.333 -66.5 181 -66.5c38.667 0 74.167 8.66699 106.5 26s58.5 42.333 78.5 75l19 -14c-20 -36 -48.833 -63.667 -86.5 -83s-77.834 -29 -120.501 -29c-60.667 0 -112.667 13.833 -156 41.5
s-74.666 66.167 -93.999 115.5c-18.667 -44.667 -49.5 -81.334 -92.5 -110.001s-89.5 -43 -139.5 -43c-60 0 -107.833 13.333 -143.5 40s-53.5 62.334 -53.5 107.001c0 100.667 87 151 261 151c56.667 0 106.334 -5.66699 149.001 -17v50c0 60 -15.167 105.667 -45.5 137
s-79.5 47 -147.5 47c-60 0 -115 -22 -165 -66zM692.998 508.001c-66.667 0 -120.166 -21.167 -160.499 -63.5s-62.5 -95.833 -66.5 -160.5h442c1.33301 68 -17.334 122.333 -56.001 163s-91.667 61 -159 61zM226.999 18.001c56 0 101.499 14.668 136.499 44.001
s60.5 63.333 76.5 102v82c-43.333 13.333 -93.666 20 -150.999 20c-156 0 -234 -41.667 -234 -125c0 -38.667 16 -68.834 48 -90.501s73.333 -32.5 124 -32.5z" />
    <glyph glyph-name="ccedilla" unicode="&#xe7;" horiz-adv-x="530" 
d="M228 -180l8 22.999c20.667 -10.667 44 -16 70 -16c50 0 75 16.667 75 50c0 14 -6.33301 25.167 -19 33.5s-30 12.5 -52 12.5c-10.667 0 -18.334 -0.333008 -23.001 -1v68c-74.667 5.33301 -134.667 32.5 -180 81.5s-68 112.167 -68 189.5c0 78.667 23.5 143.667 70.5 195
s110.833 77 191.5 77c41.333 0 79.333 -7.16699 114 -21.5s61 -34.5 79 -60.5l-20 -15c-36 48 -95.333 72 -178 72c-68 0 -123.667 -22.5 -167 -67.5s-65 -104.833 -65 -179.5c0 -76 23 -136.167 69 -180.5s106 -66.5 180 -66.5c72.667 0 131.334 27.333 176.001 82l17 -14
c-16 -28.667 -43 -51.334 -81 -68.001s-75.333 -25 -112 -25h-1v-43c30.667 0.666992 54 -5.66602 70 -18.999s24 -30 24 -50c0 -21.333 -8.33301 -39.166 -25 -53.499s-41.667 -21.5 -75 -21.5c-30.667 0 -56.667 6 -78 18z" />
    <glyph glyph-name="egrave" unicode="&#xe8;" horiz-adv-x="570" 
d="M496 115l19.001 -13.999c-20 -36 -48.833 -63.667 -86.5 -83s-77.834 -29 -120.501 -29c-81.333 0 -146.5 24.5 -195.5 73.5s-73.5 114.167 -73.5 195.5c0 80 22.833 145.833 68.5 197.5s109.5 77.5 191.5 77.5c67.333 0 123 -21.333 167 -64s66 -99.334 66 -170.001
c0 -16 -0.666992 -29.333 -2 -40h-466c-2 -74.667 20 -134.167 66 -178.5s106.333 -66.5 181 -66.5c38.667 0 74.167 8.66699 106.5 26s58.5 42.333 78.5 75zM292.001 508.001c-66.667 0 -120.166 -21.167 -160.499 -63.5s-62.5 -95.833 -66.5 -160.5h442
c1.33301 68 -17.334 122.333 -56.001 163s-91.667 61 -159 61zM222.002 782.001l104 -145l-21 -15l-103 145z" />
    <glyph glyph-name="eacute" unicode="&#xe9;" horiz-adv-x="570" 
d="M496 115l19.001 -13.999c-20 -36 -48.833 -63.667 -86.5 -83s-77.834 -29 -120.501 -29c-81.333 0 -146.5 24.5 -195.5 73.5s-73.5 114.167 -73.5 195.5c0 80 22.833 145.833 68.5 197.5s109.5 77.5 191.5 77.5c67.333 0 123 -21.333 167 -64s66 -99.334 66 -170.001
c0 -16 -0.666992 -29.333 -2 -40h-466c-2 -74.667 20 -134.167 66 -178.5s106.333 -66.5 181 -66.5c38.667 0 74.167 8.66699 106.5 26s58.5 42.333 78.5 75zM292.001 508.001c-66.667 0 -120.166 -21.167 -160.499 -63.5s-62.5 -95.833 -66.5 -160.5h442
c1.33301 68 -17.334 122.333 -56.001 163s-91.667 61 -159 61zM266.002 637.001l104 145l20 -15l-103 -145z" />
    <glyph glyph-name="ecircumflex" unicode="&#xea;" horiz-adv-x="570" 
d="M496 115l19.001 -13.999c-20 -36 -48.833 -63.667 -86.5 -83s-77.834 -29 -120.501 -29c-81.333 0 -146.5 24.5 -195.5 73.5s-73.5 114.167 -73.5 195.5c0 80 22.833 145.833 68.5 197.5s109.5 77.5 191.5 77.5c67.333 0 123 -21.333 167 -64s66 -99.334 66 -170.001
c0 -16 -0.666992 -29.333 -2 -40h-466c-2 -74.667 20 -134.167 66 -178.5s106.333 -66.5 181 -66.5c38.667 0 74.167 8.66699 106.5 26s58.5 42.333 78.5 75zM292.001 508.001c-66.667 0 -120.166 -21.167 -160.499 -63.5s-62.5 -95.833 -66.5 -160.5h442
c1.33301 68 -17.334 122.333 -56.001 163s-91.667 61 -159 61zM422.002 637.001l-115 103l-115 -103l-17 19l132 119l132 -119z" />
    <glyph glyph-name="edieresis" unicode="&#xeb;" horiz-adv-x="570" 
d="M496 115l19.001 -13.999c-20 -36 -48.833 -63.667 -86.5 -83s-77.834 -29 -120.501 -29c-81.333 0 -146.5 24.5 -195.5 73.5s-73.5 114.167 -73.5 195.5c0 80 22.833 145.833 68.5 197.5s109.5 77.5 191.5 77.5c67.333 0 123 -21.333 167 -64s66 -99.334 66 -170.001
c0 -16 -0.666992 -29.333 -2 -40h-466c-2 -74.667 20 -134.167 66 -178.5s106.333 -66.5 181 -66.5c38.667 0 74.167 8.66699 106.5 26s58.5 42.333 78.5 75zM292.001 508.001c-66.667 0 -120.166 -21.167 -160.499 -63.5s-62.5 -95.833 -66.5 -160.5h442
c1.33301 68 -17.334 122.333 -56.001 163s-91.667 61 -159 61zM133.002 703.001c0 7.33301 2.16699 13.5 6.5 18.5s9.83301 7.5 16.5 7.5s12.334 -2.5 17.001 -7.5s7 -11.167 7 -18.5s-2.33301 -13.5 -7 -18.5s-10.334 -7.5 -17.001 -7.5s-12.167 2.5 -16.5 7.5
s-6.5 11.167 -6.5 18.5zM388.002 703.001c0 7.33301 2.16699 13.5 6.5 18.5s9.83301 7.5 16.5 7.5s12.334 -2.5 17.001 -7.5s7 -11.167 7 -18.5s-2.33301 -13.5 -7 -18.5s-10.334 -7.5 -17.001 -7.5s-12.167 2.5 -16.5 7.5s-6.5 11.167 -6.5 18.5z" />
    <glyph glyph-name="igrave" unicode="&#xec;" horiz-adv-x="211" 
d="M93 0v520h25v-520h-25zM37 782l104 -145l-21 -15l-103 145z" />
    <glyph glyph-name="iacute" unicode="&#xed;" horiz-adv-x="211" 
d="M93 0v520h25v-520h-25zM84 637l104 145l20 -15l-103 -145z" />
    <glyph glyph-name="icircumflex" unicode="&#xee;" horiz-adv-x="211" 
d="M93 0v520h25v-520h-25zM227 637l-115 103l-115 -103l-17 19l132 119l132 -119z" />
    <glyph glyph-name="idieresis" unicode="&#xef;" horiz-adv-x="211" 
d="M93 0v520h25v-520h-25zM-39 703c0 7.33301 2.16699 13.5 6.5 18.5s9.83301 7.5 16.5 7.5s12.334 -2.5 17.001 -7.5s7 -11.167 7 -18.5s-2.33301 -13.5 -7 -18.5s-10.334 -7.5 -17.001 -7.5s-12.167 2.5 -16.5 7.5s-6.5 11.167 -6.5 18.5zM216 703
c0 7.33301 2.16699 13.5 6.5 18.5s9.83301 7.5 16.5 7.5s12.334 -2.5 17.001 -7.5s7 -11.167 7 -18.5s-2.33301 -13.5 -7 -18.5s-10.334 -7.5 -17.001 -7.5s-12.167 2.5 -16.5 7.5s-6.5 11.167 -6.5 18.5z" />
    <glyph glyph-name="eth" unicode="&#xf0;" horiz-adv-x="618" 
d="M241 601l41.999 90.999c-42 12 -84.667 19.333 -128 22l2 25c51.333 -5.33301 96.666 -13.666 135.999 -24.999l35 76l23 -10l-34 -74c44 -16 83.667 -37.667 119 -65c95.333 -74 143 -190.333 143 -349c0 -88 -25.167 -160.5 -75.5 -217.5s-115.5 -85.5 -195.5 -85.5
c-79.333 0 -144 25.667 -194 77s-75 116.333 -75 195c0 78 25.167 141.167 75.5 189.5s114.833 72.5 193.5 72.5c44.667 0 87.834 -8.16699 129.501 -24.5s75.834 -40.5 102.501 -72.5c-17.333 80 -58 145.667 -122 197c-33.333 26 -70.333 46.333 -111 61l-43 -93z
M63.999 260.999c0 -72 23 -131.169 69 -177.502s104.333 -69.5 175 -69.5c75.333 0 135.166 26.667 179.499 80s66.5 119.333 66.5 198c0 40 -2.66699 69.667 -8 89c-20.667 34.667 -52.667 62.834 -96 84.501s-91.666 32.5 -144.999 32.5c-70 0 -127.667 -21.667 -173 -65
s-68 -100.666 -68 -171.999z" />
    <glyph glyph-name="ntilde" unicode="&#xf1;" horiz-adv-x="596" 
d="M76 0l0.000976562 520.002h25v-112c49.333 83.333 124.666 125 225.999 125c62 0 111.667 -19.333 149 -58s56 -97.334 56 -176.001v-299h-25v292c0 71.333 -16 125.166 -48 161.499s-77.333 54.5 -136 54.5c-99.333 0 -173.333 -47.667 -222 -143v-365h-25z
M239.001 712.002c16 0 37.667 -8 65 -24l11 -7c24 -14.667 42 -22 54 -22c24.667 0 47 14 67 42l18 -17c-24.667 -33.333 -53 -50 -85 -50c-16 0 -37.667 8 -65 24l-11 7c-24 14.667 -42 22 -54 22c-24.667 0 -47 -14 -67 -42l-18 17c24.667 33.333 53 50 85 50z" />
    <glyph glyph-name="ograve" unicode="&#xf2;" horiz-adv-x="618" 
d="M39 261c0 79.333 24.833 144.5 74.5 195.5s114.5 76.5 194.5 76.5s145.167 -25.5 195.5 -76.5s75.5 -116.167 75.5 -195.5s-25.167 -144.5 -75.5 -195.5s-115.5 -76.5 -195.5 -76.5s-144.833 25.5 -194.5 76.5s-74.5 116.167 -74.5 195.5zM64 261
c0 -72 23.002 -131.167 69.002 -177.5s104.333 -69.5 175 -69.5c71.333 0 130.166 23.167 176.499 69.5s69.5 105.5 69.5 177.5c0 71.333 -23.333 130.333 -70 177s-105.334 70 -176.001 70s-129 -23.167 -175 -69.5s-69 -105.5 -69 -177.5zM250.002 782l104 -145l-21 -15
l-103 145z" />
    <glyph glyph-name="oacute" unicode="&#xf3;" horiz-adv-x="618" 
d="M39 261c0 79.333 24.833 144.5 74.5 195.5s114.5 76.5 194.5 76.5s145.167 -25.5 195.5 -76.5s75.5 -116.167 75.5 -195.5s-25.167 -144.5 -75.5 -195.5s-115.5 -76.5 -195.5 -76.5s-144.833 25.5 -194.5 76.5s-74.5 116.167 -74.5 195.5zM64 261
c0 -72 23.002 -131.167 69.002 -177.5s104.333 -69.5 175 -69.5c71.333 0 130.166 23.167 176.499 69.5s69.5 105.5 69.5 177.5c0 71.333 -23.333 130.333 -70 177s-105.334 70 -176.001 70s-129 -23.167 -175 -69.5s-69 -105.5 -69 -177.5zM265.002 637l104 145l20 -15
l-103 -145z" />
    <glyph glyph-name="ocircumflex" unicode="&#xf4;" horiz-adv-x="618" 
d="M39 261c0 79.333 24.833 144.5 74.5 195.5s114.5 76.5 194.5 76.5s145.167 -25.5 195.5 -76.5s75.5 -116.167 75.5 -195.5s-25.167 -144.5 -75.5 -195.5s-115.5 -76.5 -195.5 -76.5s-144.833 25.5 -194.5 76.5s-74.5 116.167 -74.5 195.5zM64 261
c0 -72 23.002 -131.167 69.002 -177.5s104.333 -69.5 175 -69.5c71.333 0 130.166 23.167 176.499 69.5s69.5 105.5 69.5 177.5c0 71.333 -23.333 130.333 -70 177s-105.334 70 -176.001 70s-129 -23.167 -175 -69.5s-69 -105.5 -69 -177.5zM424.002 637l-115 103l-115 -103
l-17 19l132 119l132 -119z" />
    <glyph glyph-name="otilde" unicode="&#xf5;" horiz-adv-x="618" 
d="M39 261c0 79.333 24.833 144.5 74.5 195.5s114.5 76.5 194.5 76.5s145.167 -25.5 195.5 -76.5s75.5 -116.167 75.5 -195.5s-25.167 -144.5 -75.5 -195.5s-115.5 -76.5 -195.5 -76.5s-144.833 25.5 -194.5 76.5s-74.5 116.167 -74.5 195.5zM64 261
c0 -72 23.002 -131.167 69.002 -177.5s104.333 -69.5 175 -69.5c71.333 0 130.166 23.167 176.499 69.5s69.5 105.5 69.5 177.5c0 71.333 -23.333 130.333 -70 177s-105.334 70 -176.001 70s-129 -23.167 -175 -69.5s-69 -105.5 -69 -177.5zM244.002 712
c16 0 37.667 -8 65 -24l11 -7c24 -14.667 42 -22 54 -22c24.667 0 47 14 67 42l18 -17c-24.667 -33.333 -53 -50 -85 -50c-16 0 -37.667 8 -65 24l-11 7c-24 14.667 -42 22 -54 22c-24.667 0 -47 -14 -67 -42l-18 17c24.667 33.333 53 50 85 50z" />
    <glyph glyph-name="odieresis" unicode="&#xf6;" horiz-adv-x="618" 
d="M39 261c0 79.333 24.833 144.5 74.5 195.5s114.5 76.5 194.5 76.5s145.167 -25.5 195.5 -76.5s75.5 -116.167 75.5 -195.5s-25.167 -144.5 -75.5 -195.5s-115.5 -76.5 -195.5 -76.5s-144.833 25.5 -194.5 76.5s-74.5 116.167 -74.5 195.5zM64 261
c0 -72 23.002 -131.167 69.002 -177.5s104.333 -69.5 175 -69.5c71.333 0 130.166 23.167 176.499 69.5s69.5 105.5 69.5 177.5c0 71.333 -23.333 130.333 -70 177s-105.334 70 -176.001 70s-129 -23.167 -175 -69.5s-69 -105.5 -69 -177.5zM158.002 703
c0 7.33301 2.16699 13.5 6.5 18.5s9.83301 7.5 16.5 7.5s12.334 -2.5 17.001 -7.5s7 -11.167 7 -18.5s-2.33301 -13.5 -7 -18.5s-10.334 -7.5 -17.001 -7.5s-12.167 2.5 -16.5 7.5s-6.5 11.167 -6.5 18.5zM413.002 703c0 7.33301 2.16699 13.5 6.5 18.5
s9.83301 7.5 16.5 7.5s12.334 -2.5 17.001 -7.5s7 -11.167 7 -18.5s-2.33301 -13.5 -7 -18.5s-10.334 -7.5 -17.001 -7.5s-12.167 2.5 -16.5 7.5s-6.5 11.167 -6.5 18.5z" />
    <glyph glyph-name="divide" unicode="&#xf7;" horiz-adv-x="600" 
d="M84 347v25h433v-25h-433zM279 152c0 6.66699 2 12.167 6 16.5s9 6.5 15 6.5s11 -2.16699 15 -6.5s6 -9.83301 6 -16.5s-2 -12.167 -6 -16.5s-9 -6.5 -15 -6.5s-11 2.16699 -15 6.5s-6 9.83301 -6 16.5zM279 567c0 6.66699 2 12.167 6 16.5s9 6.5 15 6.5
s11 -2.16699 15 -6.5s6 -9.83301 6 -16.5s-2 -12.167 -6 -16.5s-9 -6.5 -15 -6.5s-11 2.16699 -15 6.5s-6 9.83301 -6 16.5z" />
    <glyph glyph-name="oslash" unicode="&#xf8;" horiz-adv-x="618" 
d="M39 261c0 79.333 24.833 144.5 74.5 195.5s114.5 76.5 194.5 76.5c59.333 0 112.333 -15.333 159 -46l66 83l20 -15l-66 -84c61.333 -50.667 92 -120.667 92 -210c0 -79.333 -25.167 -144.5 -75.5 -195.5s-115.5 -76.5 -195.5 -76.5c-64 0 -119 16.667 -165 50l-65 -81
l-20 16l65 82c-56 52 -84 120.333 -84 205zM554 261c0 78.667 -27.999 141.667 -83.999 189l-311 -390c42 -30.667 91.667 -46 149 -46c71.333 0 130.166 23.167 176.499 69.5s69.5 105.5 69.5 177.5zM64.001 261c0 -76.667 25.332 -138.333 75.999 -185l310 390
c-43.333 28 -90.666 42 -141.999 42c-70.667 0 -129 -23.167 -175 -69.5s-69 -105.5 -69 -177.5z" />
    <glyph glyph-name="ugrave" unicode="&#xf9;" horiz-adv-x="587" 
d="M511 523l0.000976562 -522.999h-25v124c-18 -40.667 -46 -73.334 -84 -98.001s-80.333 -37 -127 -37c-68.667 0 -121 19.667 -157 59s-54 95.666 -54 168.999v306h25v-302c0 -138 62 -207 186 -207c47.333 0 89.666 14.333 126.999 43s65.333 68.334 84 119.001v347h25z
M231.001 782.001l104 -145l-21 -15l-103 145z" />
    <glyph glyph-name="uacute" unicode="&#xfa;" horiz-adv-x="587" 
d="M511 523l0.000976562 -522.999h-25v124c-18 -40.667 -46 -73.334 -84 -98.001s-80.333 -37 -127 -37c-68.667 0 -121 19.667 -157 59s-54 95.666 -54 168.999v306h25v-302c0 -138 62 -207 186 -207c47.333 0 89.666 14.333 126.999 43s65.333 68.334 84 119.001v347h25z
M252.001 637.001l104 145l20 -15l-103 -145z" />
    <glyph glyph-name="ucircumflex" unicode="&#xfb;" horiz-adv-x="587" 
d="M511 523l0.000976562 -522.999h-25v124c-18 -40.667 -46 -73.334 -84 -98.001s-80.333 -37 -127 -37c-68.667 0 -121 19.667 -157 59s-54 95.666 -54 168.999v306h25v-302c0 -138 62 -207 186 -207c47.333 0 89.666 14.333 126.999 43s65.333 68.334 84 119.001v347h25z
M408.001 637.001l-115 103l-115 -103l-17 19l132 119l132 -119z" />
    <glyph glyph-name="udieresis" unicode="&#xfc;" horiz-adv-x="587" 
d="M511 523l0.000976562 -522.999h-25v124c-18 -40.667 -46 -73.334 -84 -98.001s-80.333 -37 -127 -37c-68.667 0 -121 19.667 -157 59s-54 95.666 -54 168.999v306h25v-302c0 -138 62 -207 186 -207c47.333 0 89.666 14.333 126.999 43s65.333 68.334 84 119.001v347h25z
M136.001 703.001c0 7.33301 2.16699 13.5 6.5 18.5s9.83301 7.5 16.5 7.5s12.334 -2.5 17.001 -7.5s7 -11.167 7 -18.5s-2.33301 -13.5 -7 -18.5s-10.334 -7.5 -17.001 -7.5s-12.167 2.5 -16.5 7.5s-6.5 11.167 -6.5 18.5zM391.001 703.001c0 7.33301 2.16699 13.5 6.5 18.5
s9.83301 7.5 16.5 7.5s12.334 -2.5 17.001 -7.5s7 -11.167 7 -18.5s-2.33301 -13.5 -7 -18.5s-10.334 -7.5 -17.001 -7.5s-12.167 2.5 -16.5 7.5s-6.5 11.167 -6.5 18.5z" />
    <glyph glyph-name="yacute" unicode="&#xfd;" horiz-adv-x="524" 
d="M89 -202l6.99707 24.998c12 -4.66699 22.667 -7 32 -7c28 0 52.833 11.667 74.5 35s45.834 68.666 72.501 135.999l6 15l-274 518h29l259 -490l199 490h27l-215 -529c-18 -43.333 -34.5 -78.666 -49.5 -105.999s-29.667 -47.666 -44 -60.999
s-27.666 -22.166 -39.999 -26.499s-27.166 -6.5 -44.499 -6.5c-14.667 0 -27.667 2.33301 -39 7zM240.997 636.998l104 145l20 -15l-103 -145z" />
    <glyph glyph-name="thorn" unicode="&#xfe;" horiz-adv-x="602" 
d="M76 -200l0.00195312 930h25v-322c23.333 40 53.666 70.833 90.999 92.5s77.333 32.5 120 32.5c71.333 0 131.166 -25 179.499 -75s72.5 -113 72.5 -189c0 -80 -24.5 -146.667 -73.5 -200s-110.833 -80 -185.5 -80c-83.333 0 -151.333 30 -204 90v-279h-25zM311.002 508
c-88 0 -157.998 -47.334 -209.998 -142.001v-240c42 -74.667 112 -112 210 -112c63.333 0 117.166 24.333 161.499 73s66.5 109.334 66.5 182.001c0 68.667 -22.333 125.667 -67 171s-98.334 68 -161.001 68z" />
    <glyph glyph-name="ydieresis" unicode="&#xff;" horiz-adv-x="524" 
d="M89 -202l6.99707 24.998c12 -4.66699 22.667 -7 32 -7c28 0 52.833 11.667 74.5 35s45.834 68.666 72.501 135.999l6 15l-274 518h29l259 -490l199 490h27l-215 -529c-18 -43.333 -34.5 -78.666 -49.5 -105.999s-29.667 -47.666 -44 -60.999
s-27.666 -22.166 -39.999 -26.499s-27.166 -6.5 -44.499 -6.5c-14.667 0 -27.667 2.33301 -39 7zM116.997 702.998c0 7.33301 2.16699 13.5 6.5 18.5s9.83301 7.5 16.5 7.5s12.334 -2.5 17.001 -7.5s7 -11.167 7 -18.5s-2.33301 -13.5 -7 -18.5s-10.334 -7.5 -17.001 -7.5
s-12.167 2.5 -16.5 7.5s-6.5 11.167 -6.5 18.5zM371.997 702.998c0 7.33301 2.16699 13.5 6.5 18.5s9.83301 7.5 16.5 7.5s12.334 -2.5 17.001 -7.5s7 -11.167 7 -18.5s-2.33301 -13.5 -7 -18.5s-10.334 -7.5 -17.001 -7.5s-12.167 2.5 -16.5 7.5s-6.5 11.167 -6.5 18.5z
" />
    <glyph glyph-name="Amacron" unicode="&#x100;" horiz-adv-x="656" 
d="M6 0l307 704h27l310 -704h-29l-100 228h-388l-99 -228h-28zM326 674l-181 -421h366zM184 810v25h289v-25h-289z" />
    <glyph glyph-name="amacron" unicode="&#x101;" horiz-adv-x="528" 
d="M82 442l-15 17.999c22.667 22.667 51.167 40.5 85.5 53.5s66.833 19.5 97.5 19.5c143.333 0 215 -68.667 215 -206v-327h-25v116c-46 -82 -117 -123 -213 -123c-60 0 -107.833 13.333 -143.5 40s-53.5 62.334 -53.5 107.001c0 53.333 18.667 92.333 56 117s96 37 176 37
c68.667 0 128 -6.66699 178 -20v50c0 60 -15.167 105.667 -45.5 137s-79.5 47 -147.5 47c-60 0 -115 -22 -165 -66zM227 17.999c54.667 0 100.333 15.668 137 47.001s62 64.333 76 99v82c-50 15.333 -109.667 23 -179 23c-70 0 -121.833 -10.333 -155.5 -31
s-50.5 -53 -50.5 -97c0 -38.667 16 -68.834 48 -90.501s73.333 -32.5 124 -32.5zM139.999 669v25h244v-25h-244z" />
    <glyph glyph-name="Abreve" unicode="&#x102;" horiz-adv-x="656" 
d="M6 0l307 704h27l310 -704h-29l-100 228h-388l-99 -228h-28zM326 674l-181 -421h366zM469 886l18.998 -16c-39.333 -52.667 -92.666 -79 -159.999 -79s-120.666 26.333 -159.999 79l19 16c36 -46.667 83 -70 141 -70s105 23.333 141 70z" />
    <glyph glyph-name="abreve" unicode="&#x103;" horiz-adv-x="528" 
d="M82 442l-15 17.999c22.667 22.667 51.167 40.5 85.5 53.5s66.833 19.5 97.5 19.5c143.333 0 215 -68.667 215 -206v-327h-25v116c-46 -82 -117 -123 -213 -123c-60 0 -107.833 13.333 -143.5 40s-53.5 62.334 -53.5 107.001c0 53.333 18.667 92.333 56 117s96 37 176 37
c68.667 0 128 -6.66699 178 -20v50c0 60 -15.167 105.667 -45.5 137s-79.5 47 -147.5 47c-60 0 -115 -22 -165 -66zM227 17.999c54.667 0 100.333 15.668 137 47.001s62 64.333 76 99v82c-50 15.333 -109.667 23 -179 23c-70 0 -121.833 -10.333 -155.5 -31
s-50.5 -53 -50.5 -97c0 -38.667 16 -68.834 48 -90.501s73.333 -32.5 124 -32.5zM112.999 735l20 15c27.333 -43.333 67 -65 119 -65s91.667 21.667 119 65l20 -15c-34 -50 -80.333 -75 -139 -75s-105 25 -139 75z" />
    <glyph glyph-name="Aogonek" unicode="&#x104;" horiz-adv-x="656" 
d="M640 -164l4.99707 -24c-14.667 -8 -32.667 -12 -54 -12c-25.333 0 -48.666 8.66699 -69.999 26s-32 41.333 -32 72c0 38.667 17 70.334 51 95.001c18.667 13.333 42.334 22.666 71.001 27.999l-90 207h-388l-99 -228h-28l307 704h27l299 -679l11 -25h-11
c-33.333 0 -61.333 -8.33301 -84 -25c-27.333 -20 -41 -45.667 -41 -77c0 -20 7 -37.167 21 -51.5s33.333 -21.5 58 -21.5c16.667 0 32.334 3.66699 47.001 11zM325.997 677l-181 -424h366z" />
    <glyph glyph-name="aogonek" unicode="&#x105;" horiz-adv-x="528" 
d="M473 -168l5.00195 -24.001c-14 -5.33301 -28.667 -8 -44 -8c-24 0 -45.5 7 -64.5 21s-28.5 36 -28.5 66c0 28 9.16699 53.167 27.5 75.5s42.166 39.833 71.499 52.5v101c-46 -82 -117 -123 -213 -123c-60 0 -107.833 13.333 -143.5 40s-53.5 62.334 -53.5 107.001
c0 53.333 18.667 92.333 56 117s96 37 176 37c68.667 0 128 -6.66699 178 -20v50c0 60 -15.167 105.667 -45.5 137s-79.5 47 -147.5 47c-60 0 -115 -22 -165 -66l-15 18c22.667 22.667 51.167 40.5 85.5 53.5s66.833 19.5 97.5 19.5c143.333 0 215 -68.667 215 -206v-327
c-26 -6.66699 -49 -21 -69 -43s-30 -45.333 -30 -70c0 -19.333 6.33301 -34.5 19 -45.5s29.667 -16.5 51 -16.5c15.333 0 27.666 2.33301 36.999 7zM227.002 17.999c54.667 0 100.333 15.668 137 47.001s62 64.333 76 99v82c-50 15.333 -109.667 23 -179 23
c-70 0 -121.833 -10.333 -155.5 -31s-50.5 -53 -50.5 -97c0 -38.667 16 -68.834 48 -90.501s73.333 -32.5 124 -32.5z" />
    <glyph glyph-name="Cacute" unicode="&#x106;" horiz-adv-x="681" 
d="M637 112l14.998 -15.999c-23.333 -30.667 -56.166 -55.834 -98.499 -75.501s-91.833 -29.5 -148.5 -29.5c-111.333 0 -199.666 32.5 -264.999 97.5s-98 152.167 -98 261.5c0 103.333 31.167 189 93.5 257s146.5 102 252.5 102c58 0 108.833 -10 152.5 -30
s78.167 -44.667 103.5 -74l-14 -17c-36 32 -71.833 56 -107.5 72s-81.5 24 -137.5 24c-98.667 0 -176 -31.167 -232 -93.5s-84 -142.5 -84 -240.5c0 -101.333 29.833 -182.333 89.5 -243s141.834 -91 246.501 -91c95.333 0 172.666 32 231.999 96zM332.998 789.001l159 90
l12 -22l-159 -90z" />
    <glyph glyph-name="cacute" unicode="&#x107;" horiz-adv-x="530" 
d="M489 96l16.999 -13.999c-16 -28.667 -43 -51.334 -81 -68.001s-75.333 -25 -112 -25c-82 0 -148.167 24.833 -198.5 74.5s-75.5 115.5 -75.5 197.5c0 78.667 23.5 143.667 70.5 195s110.833 77 191.5 77c41.333 0 79.333 -7.16699 114 -21.5s61 -34.5 79 -60.5l-20 -15
c-36 48 -95.333 72 -178 72c-68 0 -123.667 -22.5 -167 -67.5s-65 -104.833 -65 -179.5c0 -76 23 -136.167 69 -180.5s106 -66.5 180 -66.5c72.667 0 131.334 27.333 176.001 82zM267.999 637.001l104 145l20 -15l-103 -145z" />
    <glyph glyph-name="Ccircumflex" unicode="&#x108;" horiz-adv-x="681" 
d="M637 112l14.998 -15.999c-23.333 -30.667 -56.166 -55.834 -98.499 -75.501s-91.833 -29.5 -148.5 -29.5c-111.333 0 -199.666 32.5 -264.999 97.5s-98 152.167 -98 261.5c0 103.333 31.167 189 93.5 257s146.5 102 252.5 102c58 0 108.833 -10 152.5 -30
s78.167 -44.667 103.5 -74l-14 -17c-36 32 -71.833 56 -107.5 72s-81.5 24 -137.5 24c-98.667 0 -176 -31.167 -232 -93.5s-84 -142.5 -84 -240.5c0 -101.333 29.833 -182.333 89.5 -243s141.834 -91 246.501 -91c95.333 0 172.666 32 231.999 96zM399.998 885.001l176 -96
l-12 -22l-164 90l-164 -90l-12 22z" />
    <glyph glyph-name="ccircumflex" unicode="&#x109;" horiz-adv-x="530" 
d="M489 96l16.999 -13.999c-16 -28.667 -43 -51.334 -81 -68.001s-75.333 -25 -112 -25c-82 0 -148.167 24.833 -198.5 74.5s-75.5 115.5 -75.5 197.5c0 78.667 23.5 143.667 70.5 195s110.833 77 191.5 77c41.333 0 79.333 -7.16699 114 -21.5s61 -34.5 79 -60.5l-20 -15
c-36 48 -95.333 72 -178 72c-68 0 -123.667 -22.5 -167 -67.5s-65 -104.833 -65 -179.5c0 -76 23 -136.167 69 -180.5s106 -66.5 180 -66.5c72.667 0 131.334 27.333 176.001 82zM433.999 637.001l-115 103l-115 -103l-17 19l132 119l132 -119z" />
    <glyph glyph-name="Cdotaccent" unicode="&#x10a;" horiz-adv-x="681" 
d="M637 112l14.998 -15.999c-23.333 -30.667 -56.166 -55.834 -98.499 -75.501s-91.833 -29.5 -148.5 -29.5c-111.333 0 -199.666 32.5 -264.999 97.5s-98 152.167 -98 261.5c0 103.333 31.167 189 93.5 257s146.5 102 252.5 102c58 0 108.833 -10 152.5 -30
s78.167 -44.667 103.5 -74l-14 -17c-36 32 -71.833 56 -107.5 72s-81.5 24 -137.5 24c-98.667 0 -176 -31.167 -232 -93.5s-84 -142.5 -84 -240.5c0 -101.333 29.833 -182.333 89.5 -243s141.834 -91 246.501 -91c95.333 0 172.666 32 231.999 96zM369.998 823.001
c0 7.33301 2.5 13.833 7.5 19.5s10.833 8.5 17.5 8.5s12.5 -2.83301 17.5 -8.5s7.5 -12.167 7.5 -19.5s-2.5 -13.833 -7.5 -19.5s-10.833 -8.5 -17.5 -8.5s-12.5 2.83301 -17.5 8.5s-7.5 12.167 -7.5 19.5z" />
    <glyph glyph-name="cdotaccent" unicode="&#x10b;" horiz-adv-x="530" 
d="M489 96l16.999 -13.999c-16 -28.667 -43 -51.334 -81 -68.001s-75.333 -25 -112 -25c-82 0 -148.167 24.833 -198.5 74.5s-75.5 115.5 -75.5 197.5c0 78.667 23.5 143.667 70.5 195s110.833 77 191.5 77c41.333 0 79.333 -7.16699 114 -21.5s61 -34.5 79 -60.5l-20 -15
c-36 48 -95.333 72 -178 72c-68 0 -123.667 -22.5 -167 -67.5s-65 -104.833 -65 -179.5c0 -76 23 -136.167 69 -180.5s106 -66.5 180 -66.5c72.667 0 131.334 27.333 176.001 82zM285.999 704.001c0 7.33301 2.33301 13.666 7 18.999s10.334 8 17.001 8
s12.5 -2.66699 17.5 -8s7.5 -11.666 7.5 -18.999s-2.33301 -13.5 -7 -18.5s-10.667 -7.5 -18 -7.5c-6.66699 0 -12.334 2.5 -17.001 7.5s-7 11.167 -7 18.5z" />
    <glyph glyph-name="Ccaron" unicode="&#x10c;" horiz-adv-x="681" 
d="M637 112l14.998 -15.999c-23.333 -30.667 -56.166 -55.834 -98.499 -75.501s-91.833 -29.5 -148.5 -29.5c-111.333 0 -199.666 32.5 -264.999 97.5s-98 152.167 -98 261.5c0 103.333 31.167 189 93.5 257s146.5 102 252.5 102c58 0 108.833 -10 152.5 -30
s78.167 -44.667 103.5 -74l-14 -17c-36 32 -71.833 56 -107.5 72s-81.5 24 -137.5 24c-98.667 0 -176 -31.167 -232 -93.5s-84 -142.5 -84 -240.5c0 -101.333 29.833 -182.333 89.5 -243s141.834 -91 246.501 -91c95.333 0 172.666 32 231.999 96zM578.998 863.001l-176 -96
l-176 96l12 22l164 -90l164 90z" />
    <glyph glyph-name="ccaron" unicode="&#x10d;" horiz-adv-x="530" 
d="M489 96l16.999 -13.999c-16 -28.667 -43 -51.334 -81 -68.001s-75.333 -25 -112 -25c-82 0 -148.167 24.833 -198.5 74.5s-75.5 115.5 -75.5 197.5c0 78.667 23.5 143.667 70.5 195s110.833 77 191.5 77c41.333 0 79.333 -7.16699 114 -21.5s61 -34.5 79 -60.5l-20 -15
c-36 48 -95.333 72 -178 72c-68 0 -123.667 -22.5 -167 -67.5s-65 -104.833 -65 -179.5c0 -76 23 -136.167 69 -180.5s106 -66.5 180 -66.5c72.667 0 131.334 27.333 176.001 82zM434.999 755.001l-132 -118l-132 118l17 19l115 -104l115 104z" />
    <glyph glyph-name="Dcaron" unicode="&#x10e;" horiz-adv-x="705" 
d="M84 0v699.999h209c65.333 0 122.333 -9 171 -27s87 -43 115 -75s48.833 -67.833 62.5 -107.5s20.5 -83.167 20.5 -130.5c0 -105.333 -32 -191.666 -96 -258.999s-157 -101 -279 -101h-203zM291 674.999h-180v-650h175c116 0 203.167 31 261.5 93s87.5 142.667 87.5 242
c0 94 -28 170 -84 228s-142.667 87 -260 87zM466 862.999l-176 -96l-176 96l12 22l164 -90l164 90z" />
    <glyph glyph-name="dcaron" unicode="&#x10f;" horiz-adv-x="598" 
d="M497 0l-0.000976562 105.002c-10.667 -24.667 -34.167 -49.834 -70.5 -75.501s-79.5 -38.5 -129.5 -38.5c-79.333 0 -142.166 24.667 -188.499 74s-69.5 114.666 -69.5 195.999c0 78.667 27.167 143.667 81.5 195s117.833 77 190.5 77c38 0 73.5 -7.66699 106.5 -23
s59.5 -36 79.5 -62v282h25v-730h-25zM296.999 16.002c28 0 53.999 4.66797 77.999 14.001s43.833 21.666 59.5 36.999s28.5 30 38.5 44s18 28 24 42v252c-19.333 33.333 -45.5 58.833 -78.5 76.5s-69.167 26.5 -108.5 26.5c-65.333 0 -122.666 -23.333 -171.999 -70
s-74 -105.667 -74 -177c0 -74.667 21.5 -134.167 64.5 -178.5s99.167 -66.5 168.5 -66.5zM610.998 729.003l28.001 0.000976562c7.33301 -22 11 -41.667 11 -59c0 -24.667 -6.83301 -47.834 -20.5 -69.501s-28.834 -38.5 -45.501 -50.5l-15 20c17.333 12 31 27.167 41 45.5
s15 36.5 15 54.5c0 22 -4.66699 41.667 -14 59z" />
    <glyph glyph-name="Dcroat" unicode="&#x110;" horiz-adv-x="754" 
d="M2 333v24.999h131v342h209c65.333 0 122.333 -9 171 -27s87 -43 115 -75s48.833 -67.833 62.5 -107.5s20.5 -83.167 20.5 -130.5c0 -105.333 -32 -191.666 -96 -258.999s-157 -101 -279 -101h-203v333h-131zM340 674.999h-180v-317h221v-25h-221v-308h175
c116 0 203.167 31 261.5 93s87.5 142.667 87.5 242c0 94 -28 170 -84 228s-142.667 87 -260 87z" />
    <glyph glyph-name="dcroat" unicode="&#x111;" horiz-adv-x="598" 
d="M389 611l-0.000976562 25.002h108v94h25v-94h76v-25h-76v-611h-25v105c-10.667 -24.667 -34.167 -49.834 -70.5 -75.501s-79.5 -38.5 -129.5 -38.5c-79.333 0 -142.166 24.667 -188.499 74s-69.5 114.666 -69.5 195.999c0 78.667 27.167 143.667 81.5 195
s117.833 77 190.5 77c38 0 73.5 -7.66699 106.5 -23s59.5 -36 79.5 -62v163h-108zM296.999 16.002c28 0 53.999 4.66797 77.999 14.001s43.833 21.666 59.5 36.999s28.5 30 38.5 44s18 28 24 42v252c-19.333 33.333 -45.5 58.833 -78.5 76.5s-69.167 26.5 -108.5 26.5
c-65.333 0 -122.666 -23.333 -171.999 -70s-74 -105.667 -74 -177c0 -74.667 21.5 -134.167 64.5 -178.5s99.167 -66.5 168.5 -66.5z" />
    <glyph glyph-name="Emacron" unicode="&#x112;" horiz-adv-x="630" 
d="M84 0v700h480v-25h-453v-306h423v-25h-423v-319h463v-25h-490zM192 810v25h289v-25h-289z" />
    <glyph glyph-name="emacron" unicode="&#x113;" horiz-adv-x="570" 
d="M496 115l19.001 -13.999c-20 -36 -48.833 -63.667 -86.5 -83s-77.834 -29 -120.501 -29c-81.333 0 -146.5 24.5 -195.5 73.5s-73.5 114.167 -73.5 195.5c0 80 22.833 145.833 68.5 197.5s109.5 77.5 191.5 77.5c67.333 0 123 -21.333 167 -64s66 -99.334 66 -170.001
c0 -16 -0.666992 -29.333 -2 -40h-466c-2 -74.667 20 -134.167 66 -178.5s106.333 -66.5 181 -66.5c38.667 0 74.167 8.66699 106.5 26s58.5 42.333 78.5 75zM292.001 508.001c-66.667 0 -120.166 -21.167 -160.499 -63.5s-62.5 -95.833 -66.5 -160.5h442
c1.33301 68 -17.334 122.333 -56.001 163s-91.667 61 -159 61zM185.002 669.001v25h244v-25h-244z" />
    <glyph glyph-name="Edotaccent" unicode="&#x116;" horiz-adv-x="630" 
d="M84 0v700h480v-25h-453v-306h423v-25h-423v-319h463v-25h-490zM300 823c0 7.33301 2.5 13.833 7.5 19.5s10.833 8.5 17.5 8.5s12.5 -2.83301 17.5 -8.5s7.5 -12.167 7.5 -19.5s-2.5 -13.833 -7.5 -19.5s-10.833 -8.5 -17.5 -8.5s-12.5 2.83301 -17.5 8.5
s-7.5 12.167 -7.5 19.5z" />
    <glyph glyph-name="edotaccent" unicode="&#x117;" horiz-adv-x="570" 
d="M496 115l19.001 -13.999c-20 -36 -48.833 -63.667 -86.5 -83s-77.834 -29 -120.501 -29c-81.333 0 -146.5 24.5 -195.5 73.5s-73.5 114.167 -73.5 195.5c0 80 22.833 145.833 68.5 197.5s109.5 77.5 191.5 77.5c67.333 0 123 -21.333 167 -64s66 -99.334 66 -170.001
c0 -16 -0.666992 -29.333 -2 -40h-466c-2 -74.667 20 -134.167 66 -178.5s106.333 -66.5 181 -66.5c38.667 0 74.167 8.66699 106.5 26s58.5 42.333 78.5 75zM292.001 508.001c-66.667 0 -120.166 -21.167 -160.499 -63.5s-62.5 -95.833 -66.5 -160.5h442
c1.33301 68 -17.334 122.333 -56.001 163s-91.667 61 -159 61zM280.002 704.001c0 7.33301 2.33301 13.666 7 18.999s10.334 8 17.001 8s12.5 -2.66699 17.5 -8s7.5 -11.666 7.5 -18.999s-2.33301 -13.5 -7 -18.5s-10.667 -7.5 -18 -7.5c-6.66699 0 -12.334 2.5 -17.001 7.5
s-7 11.167 -7 18.5z" />
    <glyph glyph-name="Eogonek" unicode="&#x118;" horiz-adv-x="630" 
d="M84 0l-0.00195312 699.999h480v-25h-453v-306h423v-25h-423v-319h463v-25h-6c-33.333 0 -61.333 -8.33301 -84 -25c-27.333 -20 -41 -45.667 -41 -77c0 -20 7 -37.167 21 -51.5s33.333 -21.5 58 -21.5c16.667 0 32.334 3.66699 47.001 11l5 -24
c-14.667 -8 -32.667 -12 -54 -12c-25.333 0 -48.666 8.66699 -69.999 26s-32 41.333 -32 72c0 38.667 17 70.334 51 95.001c0.666992 0.666992 4 3 10 7h-395z" />
    <glyph glyph-name="eogonek" unicode="&#x119;" horiz-adv-x="570" 
d="M496 115l19 -13.998c-21.333 -38 -59 -69.667 -113 -95c-18.667 -9.33301 -36 -22 -52 -38c-22.667 -22.667 -34 -46.667 -34 -72c0 -20.667 6.16699 -37.667 18.5 -51s30.5 -20 54.5 -20c13.333 0 24.666 2.33301 33.999 7l5 -24c-14 -5.33301 -27.667 -8 -41 -8
c-25.333 0 -47.666 8.16699 -66.999 24.5s-29 40.166 -29 71.499c0 37.333 17.667 69 53 95c-14.667 -1.33301 -26.667 -2 -36 -2c-81.333 0 -146.5 24.5 -195.5 73.5s-73.5 114.167 -73.5 195.5c0 80 22.833 145.833 68.5 197.5s109.5 77.5 191.5 77.5
c67.333 0 123 -21.333 167 -64s66 -99.334 66 -170.001c0 -16 -0.666992 -29.333 -2 -40h-466c-2 -74.667 20 -134.167 66 -178.5s106.333 -66.5 181 -66.5c38.667 0 74.167 8.66699 106.5 26s58.5 42.333 78.5 75zM292 508.002c-66.667 0 -120.166 -21.167 -160.499 -63.5
s-62.5 -95.833 -66.5 -160.5h442c1.33301 68 -17.334 122.333 -56.001 163s-91.667 61 -159 61z" />
    <glyph glyph-name="Ecaron" unicode="&#x11a;" horiz-adv-x="630" 
d="M84 0v700h480v-25h-453v-306h423v-25h-423v-319h463v-25h-490zM509 863l-176 -96l-176 96l12 22l164 -90l164 90z" />
    <glyph glyph-name="ecaron" unicode="&#x11b;" horiz-adv-x="570" 
d="M496 115l19.001 -13.999c-20 -36 -48.833 -63.667 -86.5 -83s-77.834 -29 -120.501 -29c-81.333 0 -146.5 24.5 -195.5 73.5s-73.5 114.167 -73.5 195.5c0 80 22.833 145.833 68.5 197.5s109.5 77.5 191.5 77.5c67.333 0 123 -21.333 167 -64s66 -99.334 66 -170.001
c0 -16 -0.666992 -29.333 -2 -40h-466c-2 -74.667 20 -134.167 66 -178.5s106.333 -66.5 181 -66.5c38.667 0 74.167 8.66699 106.5 26s58.5 42.333 78.5 75zM292.001 508.001c-66.667 0 -120.166 -21.167 -160.499 -63.5s-62.5 -95.833 -66.5 -160.5h442
c1.33301 68 -17.334 122.333 -56.001 163s-91.667 61 -159 61zM418.002 755.001l-132 -118l-132 118l17 19l115 -104l115 104z" />
    <glyph glyph-name="Gcircumflex" unicode="&#x11c;" horiz-adv-x="700" 
d="M422 299v25h235v-239c-74.667 -62.667 -160.667 -94 -258 -94c-104 0 -189.5 33.167 -256.5 99.5s-100.5 152.833 -100.5 259.5c0 100 34.333 184.833 103 254.5s151.667 104.5 249 104.5c106.667 0 188.667 -29.667 246 -89l-13 -20c-57.333 56 -133 84 -227 84
c-95.333 0 -174.333 -31.833 -237 -95.5s-94 -143.167 -94 -238.5c0 -99.333 30.833 -179.833 92.5 -241.5s141.5 -92.5 239.5 -92.5c92 0 168.667 27.333 230 82v201h-209zM380 885l176 -96l-12 -22l-164 90l-164 -90l-12 22z" />
    <glyph glyph-name="gcircumflex" unicode="&#x11d;" horiz-adv-x="603" 
d="M526 520l-0.000976562 -492.999c0 -43.333 -6.5 -80.833 -19.5 -112.5s-30.667 -56.167 -53 -73.5s-46.333 -30 -72 -38s-53.5 -12 -83.5 -12c-50 0 -93.167 9.5 -129.5 28.5s-62.5 42.5 -78.5 70.5l19 14c26.667 -29.333 48.667 -49 66 -59
c33.333 -19.333 74.333 -29 123 -29c62 0 111.333 18.333 148 55s55 88.667 55 156v78c-14.667 -29.333 -39.5 -56 -74.5 -80s-77.833 -36 -128.5 -36c-79.333 0 -142.333 25.333 -189 76s-70 116 -70 196c0 78 25.833 142.833 77.5 194.5s115.167 77.5 190.5 77.5
c42.667 0 82.334 -9.83301 119.001 -29.5s61.667 -40.834 75 -63.501v80h25zM298.999 14.001c48 0 89.167 12.8311 123.5 38.498s60.5 58.834 78.5 99.501v245c-16.667 32.667 -42.167 59.334 -76.5 80.001s-73.833 31 -118.5 31c-67.333 0 -124.5 -22.167 -171.5 -66.5
s-70.5 -104.5 -70.5 -180.5c0 -75.333 21.333 -135.333 64 -180s99.667 -67 171 -67zM412.999 636.999l-115 103l-115 -103l-17 19l132 119l132 -119z" />
    <glyph glyph-name="Gbreve" unicode="&#x11e;" horiz-adv-x="700" 
d="M422 299v25h235v-239c-74.667 -62.667 -160.667 -94 -258 -94c-104 0 -189.5 33.167 -256.5 99.5s-100.5 152.833 -100.5 259.5c0 100 34.333 184.833 103 254.5s151.667 104.5 249 104.5c106.667 0 188.667 -29.667 246 -89l-13 -20c-57.333 56 -133 84 -227 84
c-95.333 0 -174.333 -31.833 -237 -95.5s-94 -143.167 -94 -238.5c0 -99.333 30.833 -179.833 92.5 -241.5s141.5 -92.5 239.5 -92.5c92 0 168.667 27.333 230 82v201h-209zM524 886l18.998 -16c-39.333 -52.667 -92.666 -79 -159.999 -79s-120.666 26.333 -159.999 79
l19 16c36 -46.667 83 -70 141 -70s105 23.333 141 70z" />
    <glyph glyph-name="gbreve" unicode="&#x11f;" horiz-adv-x="603" 
d="M526 520l-0.000976562 -492.999c0 -43.333 -6.5 -80.833 -19.5 -112.5s-30.667 -56.167 -53 -73.5s-46.333 -30 -72 -38s-53.5 -12 -83.5 -12c-50 0 -93.167 9.5 -129.5 28.5s-62.5 42.5 -78.5 70.5l19 14c26.667 -29.333 48.667 -49 66 -59
c33.333 -19.333 74.333 -29 123 -29c62 0 111.333 18.333 148 55s55 88.667 55 156v78c-14.667 -29.333 -39.5 -56 -74.5 -80s-77.833 -36 -128.5 -36c-79.333 0 -142.333 25.333 -189 76s-70 116 -70 196c0 78 25.833 142.833 77.5 194.5s115.167 77.5 190.5 77.5
c42.667 0 82.334 -9.83301 119.001 -29.5s61.667 -40.834 75 -63.501v80h25zM298.999 14.001c48 0 89.167 12.8311 123.5 38.498s60.5 58.834 78.5 99.501v245c-16.667 32.667 -42.167 59.334 -76.5 80.001s-73.833 31 -118.5 31c-67.333 0 -124.5 -22.167 -171.5 -66.5
s-70.5 -104.5 -70.5 -180.5c0 -75.333 21.333 -135.333 64 -180s99.667 -67 171 -67zM161.999 734.999l20 15c27.333 -43.333 67 -65 119 -65s91.667 21.667 119 65l20 -15c-34 -50 -80.333 -75 -139 -75s-105 25 -139 75z" />
    <glyph glyph-name="Gdotaccent" unicode="&#x120;" horiz-adv-x="700" 
d="M422 299v25h235v-239c-74.667 -62.667 -160.667 -94 -258 -94c-104 0 -189.5 33.167 -256.5 99.5s-100.5 152.833 -100.5 259.5c0 100 34.333 184.833 103 254.5s151.667 104.5 249 104.5c106.667 0 188.667 -29.667 246 -89l-13 -20c-57.333 56 -133 84 -227 84
c-95.333 0 -174.333 -31.833 -237 -95.5s-94 -143.167 -94 -238.5c0 -99.333 30.833 -179.833 92.5 -241.5s141.5 -92.5 239.5 -92.5c92 0 168.667 27.333 230 82v201h-209zM362 823c0 7.33301 2.5 13.833 7.5 19.5s10.833 8.5 17.5 8.5s12.5 -2.83301 17.5 -8.5
s7.5 -12.167 7.5 -19.5s-2.5 -13.833 -7.5 -19.5s-10.833 -8.5 -17.5 -8.5s-12.5 2.83301 -17.5 8.5s-7.5 12.167 -7.5 19.5z" />
    <glyph glyph-name="gdotaccent" unicode="&#x121;" horiz-adv-x="603" 
d="M526 520l-0.000976562 -492.999c0 -43.333 -6.5 -80.833 -19.5 -112.5s-30.667 -56.167 -53 -73.5s-46.333 -30 -72 -38s-53.5 -12 -83.5 -12c-50 0 -93.167 9.5 -129.5 28.5s-62.5 42.5 -78.5 70.5l19 14c26.667 -29.333 48.667 -49 66 -59
c33.333 -19.333 74.333 -29 123 -29c62 0 111.333 18.333 148 55s55 88.667 55 156v78c-14.667 -29.333 -39.5 -56 -74.5 -80s-77.833 -36 -128.5 -36c-79.333 0 -142.333 25.333 -189 76s-70 116 -70 196c0 78 25.833 142.833 77.5 194.5s115.167 77.5 190.5 77.5
c42.667 0 82.334 -9.83301 119.001 -29.5s61.667 -40.834 75 -63.501v80h25zM298.999 14.001c48 0 89.167 12.8311 123.5 38.498s60.5 58.834 78.5 99.501v245c-16.667 32.667 -42.167 59.334 -76.5 80.001s-73.833 31 -118.5 31c-67.333 0 -124.5 -22.167 -171.5 -66.5
s-70.5 -104.5 -70.5 -180.5c0 -75.333 21.333 -135.333 64 -180s99.667 -67 171 -67zM286.999 703.999c0 7.33301 2.33301 13.666 7 18.999s10.334 8 17.001 8s12.5 -2.66699 17.5 -8s7.5 -11.666 7.5 -18.999s-2.33301 -13.5 -7 -18.5s-10.667 -7.5 -18 -7.5
c-6.66699 0 -12.334 2.5 -17.001 7.5s-7 11.167 -7 18.5z" />
    <glyph glyph-name="Gcommaaccent" unicode="&#x122;" horiz-adv-x="700" 
d="M422 299v25h235v-239c-74.667 -62.667 -160.667 -94 -258 -94c-104 0 -189.5 33.167 -256.5 99.5s-100.5 152.833 -100.5 259.5c0 100 34.333 184.833 103 254.5s151.667 104.5 249 104.5c106.667 0 188.667 -29.667 246 -89l-13 -20c-57.333 56 -133 84 -227 84
c-95.333 0 -174.333 -31.833 -237 -95.5s-94 -143.167 -94 -238.5c0 -99.333 30.833 -179.833 92.5 -241.5s141.5 -92.5 239.5 -92.5c92 0 168.667 27.333 230 82v201h-209zM402 -73l21 13.999c18 -18 27 -39.667 27 -65c0 -19.333 -4.66699 -37.333 -14 -54
s-16.5 -27.167 -21.5 -31.5s-12.833 -10.833 -23.5 -19.5l-14 21c32 20 48 47.333 48 82c0 16.667 -7.66699 34.334 -23 53.001z" />
    <glyph glyph-name="gcommaaccent" unicode="&#x123;" horiz-adv-x="603" 
d="M312 637l-19 -16.001c-18 24 -27 46 -27 66c0 39.333 19.667 74 59 104l14 -21c-32 -23.333 -48 -50.333 -48 -81c0 -15.333 7 -32.666 21 -51.999zM526 519.999l-0.000976562 -492.999c0 -43.333 -6.5 -80.833 -19.5 -112.5s-30.667 -56.167 -53 -73.5
s-46.333 -30 -72 -38s-53.5 -12 -83.5 -12c-96.667 0 -166 36.333 -208 109l19 14c43.333 -65.333 106.333 -98 189 -98c62 0 111.333 18.333 148 55s55 88.667 55 156v78c-14.667 -29.333 -39.5 -56 -74.5 -80s-77.833 -36 -128.5 -36c-79.333 0 -142.333 25.333 -189 76
s-70 116 -70 196c0 78 25.833 142.833 77.5 194.5s115.167 77.5 190.5 77.5c42.667 0 82.334 -9.83301 119.001 -29.5s61.667 -40.834 75 -63.501v80h25zM298.999 14c48 0 89.167 12.8311 123.5 38.498s60.5 58.834 78.5 99.501v245
c-16.667 32.667 -42.167 59.334 -76.5 80.001s-73.833 31 -118.5 31c-67.333 0 -124.5 -22.167 -171.5 -66.5s-70.5 -104.5 -70.5 -180.5c0 -75.333 21.333 -135.333 64 -180s99.667 -67 171 -67z" />
    <glyph glyph-name="Hcircumflex" unicode="&#x124;" horiz-adv-x="744" 
d="M633 0v346h-522v-346h-27v700h27v-329h522v329h27v-700h-27zM371 885l176 -96l-12 -22l-164 90l-164 -90l-12 22z" />
    <glyph glyph-name="hcircumflex" unicode="&#x125;" horiz-adv-x="596" 
d="M76 0l0.000976562 730h25v-322c20.667 37.333 50 67.5 88 90.5s79 34.5 123 34.5c64 0 116.833 -19.833 158.5 -59.5s62.5 -98.167 62.5 -175.5v-298h-25v290c0 70 -17.333 123.833 -52 161.5s-82.334 56.5 -143.001 56.5c-50.667 0 -93.5 -14 -128.5 -42
s-62.833 -61.667 -83.5 -101v-365h-25zM97.001 846l176 -96l-12 -22l-164 90l-164 -90l-12 22z" />
    <glyph glyph-name="Hbar" unicode="&#x126;" horiz-adv-x="743" 
d="M0 531v25h83v144h27v-144h522v144h27v-144h84v-25h-84v-531h-27v346h-522v-346h-27v531h-83zM110 371h522v160h-522v-160z" />
    <glyph glyph-name="hbar" unicode="&#x127;" horiz-adv-x="596" 
d="M-1 611l0.000976562 25h77v94h25v-94h107v-25h-107v-203c20.667 37.333 50 67.5 88 90.5s79 34.5 123 34.5c64 0 116.833 -19.833 158.5 -59.5s62.5 -98.167 62.5 -175.5v-298h-25v290c0 70 -17.333 123.833 -52 161.5s-82.334 56.5 -143.001 56.5
c-50.667 0 -93.5 -14 -128.5 -42s-62.833 -61.667 -83.5 -101v-365h-25v611h-77z" />
    <glyph glyph-name="Imacron" unicode="&#x12a;" horiz-adv-x="217" 
d="M95 0v700h27v-700h-27zM-36 810v25h289v-25h-289z" />
    <glyph glyph-name="imacron" unicode="&#x12b;" horiz-adv-x="211" 
d="M93 0v520h25v-520h-25zM-10 669v25h244v-25h-244z" />
    <glyph glyph-name="Iogonek" unicode="&#x12e;" horiz-adv-x="217" 
d="M123 -164l4.99805 -24c-14.667 -8 -32.667 -12 -54 -12c-25.333 0 -48.666 8.66699 -69.999 26s-32 41.333 -32 72c0 38.667 17 70.334 51 95.001c17.333 13.333 41.333 22.666 72 27.999v679h27v-700c-33.333 0 -61.333 -8.33301 -84 -25
c-27.333 -20 -41 -45.667 -41 -77c0 -20 7 -37.167 21 -51.5s33.333 -21.5 58 -21.5c16.667 0 32.334 3.66699 47.001 11z" />
    <glyph glyph-name="iogonek" unicode="&#x12f;" horiz-adv-x="211" 
d="M126 -168l5.00195 -24c-14 -5.33301 -28.667 -8 -44 -8c-24 0 -45.5 7 -64.5 21s-28.5 36 -28.5 66c0 28 9.16699 53.167 27.5 75.5s42.166 39.833 71.499 52.5v505h25v-520c-26 -6.66699 -49 -21 -69 -43s-30 -45.333 -30 -70c0 -19.333 6.33301 -34.5 19 -45.5
s29.667 -16.5 51 -16.5c15.333 0 27.666 2.33301 36.999 7zM80.002 698c0 7.33301 2.5 13.833 7.5 19.5s10.833 8.5 17.5 8.5s12.667 -2.83301 18 -8.5s8 -12.167 8 -19.5s-2.66699 -13.833 -8 -19.5s-11.333 -8.5 -18 -8.5s-12.5 2.83301 -17.5 8.5s-7.5 12.167 -7.5 19.5z
" />
    <glyph glyph-name="Idotaccent" unicode="&#x130;" horiz-adv-x="217" 
d="M95 0v700h27v-700h-27zM83 823c0 7.33301 2.5 13.833 7.5 19.5s10.833 8.5 17.5 8.5s12.5 -2.83301 17.5 -8.5s7.5 -12.167 7.5 -19.5s-2.5 -13.833 -7.5 -19.5s-10.833 -8.5 -17.5 -8.5s-12.5 2.83301 -17.5 8.5s-7.5 12.167 -7.5 19.5z" />
    <glyph glyph-name="dotlessi" unicode="&#x131;" horiz-adv-x="211" 
d="M93 0v520h25v-520h-25z" />
    <glyph glyph-name="Jcircumflex" unicode="&#x134;" horiz-adv-x="475" 
d="M400 700l-0.000976562 -470c0 -80.667 -17.833 -140.667 -53.5 -180s-85.167 -59 -148.5 -59c-89.333 0 -154 40 -194 120l21 16c36.667 -74 94.667 -111 174 -111c52.667 0 94.834 17.667 126.501 53s47.5 89 47.5 161v470h27zM383.999 885l176 -96l-12 -22l-164 90
l-164 -90l-12 22z" />
    <glyph glyph-name="jcircumflex" unicode="&#x135;" horiz-adv-x="216" 
d="M128 520l-0.00292969 -529c0 -133.333 -46.667 -200 -140 -200c-45.333 0 -81.333 15 -108 45l15 21l6.5 -6.5c3.66699 -3.66699 6.83398 -6.5 9.50098 -8.5s6.83398 -5 12.501 -9s11.334 -7 17.001 -9s12.834 -3.83301 21.501 -5.5s17.667 -2.5 27 -2.5
c37.333 0 65.666 15.167 84.999 45.5s29 73.5 29 129.5v529h25zM227.997 637l-115 103l-115 -103l-17 19l132 119l132 -119z" />
    <glyph glyph-name="Kcommaaccent" unicode="&#x136;" horiz-adv-x="623" 
d="M84 0v700h27v-396l436 396h40l-358 -325l387 -375h-39l-368 356l-98 -89v-267h-27zM317 -73l21 13.999c18 -18 27 -39.667 27 -65c0 -19.333 -4.66699 -37.333 -14 -54s-16.5 -27.167 -21.5 -31.5s-12.833 -10.833 -23.5 -19.5l-14 21c32 20 48 47.333 48 82
c0 16.667 -7.66699 34.334 -23 53.001z" />
    <glyph glyph-name="kcommaaccent" unicode="&#x137;" horiz-adv-x="516" 
d="M76 0v730h25v-496l330 286h37l-269 -233l306 -287h-36l-289 270l-79 -66v-204h-25zM269 -73l21 13.999c18 -18 27 -39.667 27 -65c0 -19.333 -4.66699 -37.333 -14 -54s-16.5 -27.167 -21.5 -31.5s-12.833 -10.833 -23.5 -19.5l-14 21c32 20 48 47.333 48 82
c0 16.667 -7.66699 34.334 -23 53.001z" />
    <glyph glyph-name="Lacute" unicode="&#x139;" horiz-adv-x="572" 
d="M84 0v700h27v-675h451v-25h-478zM241 789l159 90l12 -22l-159 -90z" />
    <glyph glyph-name="lacute" unicode="&#x13a;" horiz-adv-x="185" 
d="M80 0v730h25v-730h-25zM74 784l159 90l12 -22l-159 -90z" />
    <glyph glyph-name="Lcommaaccent" unicode="&#x13b;" horiz-adv-x="572" 
d="M84 0v700h27v-675h451v-25h-478zM318 -73l21 13.999c18 -18 27 -39.667 27 -65c0 -19.333 -4.66699 -37.333 -14 -54s-16.5 -27.167 -21.5 -31.5s-12.833 -10.833 -23.5 -19.5l-14 21c32 20 48 47.333 48 82c0 16.667 -7.66699 34.334 -23 53.001z" />
    <glyph glyph-name="lcommaaccent" unicode="&#x13c;" horiz-adv-x="185" 
d="M80 0v730h25v-730h-25zM80 -73l21 13.999c18 -18 27 -39.667 27 -65c0 -19.333 -4.66699 -37.333 -14 -54s-16.5 -27.167 -21.5 -31.5s-12.833 -10.833 -23.5 -19.5l-14 21c32 20 48 47.333 48 82c0 16.667 -7.66699 34.334 -23 53.001z" />
    <glyph glyph-name="Lcaron" unicode="&#x13d;" horiz-adv-x="572" 
d="M84 0v700h27v-675h451v-25h-478zM391 699l28.001 0.000976562c7.33301 -22 11 -41.667 11 -59c0 -24.667 -6.83301 -47.834 -20.5 -69.501s-28.834 -38.5 -45.501 -50.5l-15 20c17.333 12 31 27.167 41 45.5s15 36.5 15 54.5c0 22 -4.66699 41.667 -14 59z" />
    <glyph glyph-name="lcaron" unicode="&#x13e;" horiz-adv-x="185" 
d="M80 0v730h25v-730h-25zM192 729l28.001 0.000976562c7.33301 -22 11 -41.667 11 -59c0 -24.667 -6.83301 -47.834 -20.5 -69.501s-28.834 -38.5 -45.501 -50.5l-15 20c17.333 12 31 27.167 41 45.5s15 36.5 15 54.5c0 22 -4.66699 41.667 -14 59z" />
    <glyph glyph-name="Ldot" unicode="&#x13f;" horiz-adv-x="572" 
d="M84 0v700h27v-675h451v-25h-478zM360 362c0 7.33301 2.33301 13.666 7 18.999s10.334 8 17.001 8s12.5 -2.66699 17.5 -8s7.5 -11.666 7.5 -18.999s-2.33301 -13.5 -7 -18.5s-10.667 -7.5 -18 -7.5c-6.66699 0 -12.334 2.5 -17.001 7.5s-7 11.167 -7 18.5z" />
    <glyph glyph-name="ldot" unicode="&#x140;" horiz-adv-x="231" 
d="M80 0v730h25v-730h-25zM189 369c0 7.33301 2.33301 13.666 7 18.999s10.334 8 17.001 8s12.5 -2.66699 17.5 -8s7.5 -11.666 7.5 -18.999s-2.33301 -13.5 -7 -18.5s-10.667 -7.5 -18 -7.5c-6.66699 0 -12.334 2.5 -17.001 7.5s-7 11.167 -7 18.5z" />
    <glyph glyph-name="Lslash" unicode="&#x141;" horiz-adv-x="575" 
d="M0 179v31l87 65v425h27v-405l223 167v-31l-223 -167v-239h451v-25h-478v244z" />
    <glyph glyph-name="lslash" unicode="&#x142;" horiz-adv-x="185" 
d="M0 238v31l80 60v401h25v-382l138 104v-31l-138 -104v-317h-25v298z" />
    <glyph glyph-name="Nacute" unicode="&#x143;" horiz-adv-x="734" 
d="M650 0h-27l-512 658v-658h-27v700h27l512 -658v658h27v-700zM348 789l159 90l12 -22l-159 -90z" />
    <glyph glyph-name="nacute" unicode="&#x144;" horiz-adv-x="596" 
d="M76 0l0.000976562 520.002h25v-112c49.333 83.333 124.666 125 225.999 125c62 0 111.667 -19.333 149 -58s56 -97.334 56 -176.001v-299h-25v292c0 71.333 -16 125.166 -48 161.499s-77.333 54.5 -136 54.5c-99.333 0 -173.333 -47.667 -222 -143v-365h-25z
M281.001 637.002l104 145l20 -15l-103 -145z" />
    <glyph glyph-name="Ncommaaccent" unicode="&#x145;" horiz-adv-x="734" 
d="M650 0h-27l-512 658v-658h-27v700h27l512 -658v658h27v-700zM353 -73l21 13.999c18 -18 27 -39.667 27 -65c0 -19.333 -4.66699 -37.333 -14 -54s-16.5 -27.167 -21.5 -31.5s-12.833 -10.833 -23.5 -19.5l-14 21c32 20 48 47.333 48 82
c0 16.667 -7.66699 34.334 -23 53.001z" />
    <glyph glyph-name="ncommaaccent" unicode="&#x146;" horiz-adv-x="596" 
d="M76 0l0.000976562 520.002h25v-112c49.333 83.333 124.666 125 225.999 125c62 0 111.667 -19.333 149 -58s56 -97.334 56 -176.001v-299h-25v292c0 71.333 -16 125.166 -48 161.499s-77.333 54.5 -136 54.5c-99.333 0 -173.333 -47.667 -222 -143v-365h-25z
M290.001 -72.998l21 13.999c18 -18 27 -39.667 27 -65c0 -19.333 -4.66699 -37.333 -14 -54s-16.5 -27.167 -21.5 -31.5s-12.833 -10.833 -23.5 -19.5l-14 21c32 20 48 47.333 48 82c0 16.667 -7.66699 34.334 -23 53.001z" />
    <glyph glyph-name="Ncaron" unicode="&#x147;" horiz-adv-x="734" 
d="M650 0h-27l-512 658v-658h-27v700h27l512 -658v658h27v-700zM542 863l-176 -96l-176 96l12 22l164 -90l164 90z" />
    <glyph glyph-name="ncaron" unicode="&#x148;" horiz-adv-x="596" 
d="M76 0l0.000976562 520.002h25v-112c49.333 83.333 124.666 125 225.999 125c62 0 111.667 -19.333 149 -58s56 -97.334 56 -176.001v-299h-25v292c0 71.333 -16 125.166 -48 161.499s-77.333 54.5 -136 54.5c-99.333 0 -173.333 -47.667 -222 -143v-365h-25z
M430.001 755.002l-132 -118l-132 118l17 19l115 -104l115 104z" />
    <glyph glyph-name="Omacron" unicode="&#x14c;" horiz-adv-x="785" 
d="M42 350c0 101.333 33.667 186.5 101 255.5s150.333 103.5 249 103.5s181.667 -34 249 -102s101 -153.667 101 -257c0 -102 -33.833 -187.333 -101.5 -256s-150.5 -103 -248.5 -103c-98.667 0 -181.667 34 -249 102s-101 153.667 -101 257zM69 350
c0 -93.333 31.5 -172.333 94.5 -237s139.167 -97 228.5 -97c92 0 168.833 32.167 230.5 96.5s92.5 143.5 92.5 237.5s-31.333 173.167 -94 237.5s-139 96.5 -229 96.5s-166.333 -32.167 -229 -96.5s-94 -143.5 -94 -237.5zM248 810v25h289v-25h-289z" />
    <glyph glyph-name="omacron" unicode="&#x14d;" horiz-adv-x="618" 
d="M39 261c0 79.333 24.833 144.5 74.5 195.5s114.5 76.5 194.5 76.5s145.167 -25.5 195.5 -76.5s75.5 -116.167 75.5 -195.5s-25.167 -144.5 -75.5 -195.5s-115.5 -76.5 -195.5 -76.5s-144.833 25.5 -194.5 76.5s-74.5 116.167 -74.5 195.5zM64 261
c0 -72 23.002 -131.167 69.002 -177.5s104.333 -69.5 175 -69.5c71.333 0 130.166 23.167 176.499 69.5s69.5 105.5 69.5 177.5c0 71.333 -23.333 130.333 -70 177s-105.334 70 -176.001 70s-129 -23.167 -175 -69.5s-69 -105.5 -69 -177.5zM187.002 669v25h244v-25h-244z
" />
    <glyph glyph-name="Ohungarumlaut" unicode="&#x150;" horiz-adv-x="785" 
d="M42 350c0 101.333 33.667 186.5 101 255.5s150.333 103.5 249 103.5s181.667 -34 249 -102s101 -153.667 101 -257c0 -102 -33.833 -187.333 -101.5 -256s-150.5 -103 -248.5 -103c-98.667 0 -181.667 34 -249 102s-101 153.667 -101 257zM69 350
c0 -93.333 31.5 -172.333 94.5 -237s139.167 -97 228.5 -97c92 0 168.833 32.167 230.5 96.5s92.5 143.5 92.5 237.5s-31.333 173.167 -94 237.5s-139 96.5 -229 96.5s-166.333 -32.167 -229 -96.5s-94 -143.5 -94 -237.5zM274 793l167 88l12 -22l-167 -88zM426 793l167 88
l12 -22l-167 -88z" />
    <glyph glyph-name="ohungarumlaut" unicode="&#x151;" horiz-adv-x="618" 
d="M39 261c0 79.333 24.833 144.5 74.5 195.5s114.5 76.5 194.5 76.5s145.167 -25.5 195.5 -76.5s75.5 -116.167 75.5 -195.5s-25.167 -144.5 -75.5 -195.5s-115.5 -76.5 -195.5 -76.5s-144.833 25.5 -194.5 76.5s-74.5 116.167 -74.5 195.5zM64 261
c0 -72 23.002 -131.167 69.002 -177.5s104.333 -69.5 175 -69.5c71.333 0 130.166 23.167 176.499 69.5s69.5 105.5 69.5 177.5c0 71.333 -23.333 130.333 -70 177s-105.334 70 -176.001 70s-129 -23.167 -175 -69.5s-69 -105.5 -69 -177.5zM212.002 640l126 169l20 -15
l-126 -169zM341.002 640l126 169l20 -15l-126 -169z" />
    <glyph glyph-name="OE" unicode="&#x152;" horiz-adv-x="1227" 
d="M681 0l-0.00292969 143.999c-32.667 -47.333 -74.167 -84.666 -124.5 -111.999s-105.166 -41 -164.499 -41c-98.667 0 -181.667 34 -249 102s-101 153.667 -101 257c0 101.333 33.667 186.5 101 255.5s150.333 103.5 249 103.5c58.667 0 113.334 -14 164.001 -42
s92.334 -66 125.001 -114v147h480v-25h-453v-306h423v-25h-423v-319h463v-25h-490zM68.9971 349.999c0 -93.333 31.5029 -172.333 94.5029 -237s139.167 -97 228.5 -97c63.333 0 120.666 16.333 171.999 49s90.333 76.334 117 131.001v305
c-26.667 55.333 -65.834 99.666 -117.501 132.999s-108.834 50 -171.501 50c-90 0 -166.333 -32.167 -229 -96.5s-94 -143.5 -94 -237.5z" />
    <glyph glyph-name="oe" unicode="&#x153;" horiz-adv-x="998" 
d="M923 115l18.999 -14c-20 -36 -48.833 -63.667 -86.5 -83s-77.834 -29 -120.501 -29c-94.667 0 -166.667 32 -216 96c-20 -29.333 -49 -52.666 -87 -69.999s-79.333 -26 -124 -26c-80 0 -144.833 25.5 -194.5 76.5s-74.5 116.167 -74.5 195.5s24.833 144.5 74.5 195.5
s114.5 76.5 194.5 76.5c90.667 0 161.334 -32 212.001 -96c46.667 64 115.334 96 206.001 96c67.333 0 123 -21.333 167 -64s66 -99.334 66 -170.001c0 -16 -0.666992 -29.333 -2 -40h-466c-2 -74.667 20 -134.167 66 -178.5s106.333 -66.5 181 -66.5
c38.667 0 74.167 8.66699 106.5 26s58.5 42.333 78.5 75zM63.999 261c0 -72 23 -131.166 69 -177.499s104.333 -69.5 175 -69.5c86.667 0 152.667 30 198 90c-26.667 43.333 -40 94.666 -40 153.999c0 62 13.333 114.667 40 158c-47.333 61.333 -113.333 92 -198 92
c-70.667 0 -129 -23.167 -175 -69.5s-69 -105.5 -69 -177.5zM718.999 508.001c-66.667 0 -120.166 -21.167 -160.499 -63.5s-62.5 -95.833 -66.5 -160.5h442c1.33301 68 -17.334 122.333 -56.001 163s-91.667 61 -159 61z" />
    <glyph glyph-name="Racute" unicode="&#x154;" horiz-adv-x="668" 
d="M111 0l-26.999 -0.000976562v700h253c172 0 258 -64 258 -192c0 -53.333 -19.333 -97.166 -58 -131.499s-87.334 -54.833 -146.001 -61.5l252 -315h-33l-247 309h-252v-309zM337.001 674.999l-226 0.000976562v-341h227c67.333 0 122.5 16.167 165.5 48.5
s64.5 74.166 64.5 125.499c0 111.333 -77 167 -231 167zM251.001 789l159 90l12 -22l-159 -90z" />
    <glyph glyph-name="racute" unicode="&#x155;" horiz-adv-x="337" 
d="M76 0l0.00292969 520h25v-76c13.333 28 32.666 49.667 57.999 65s50.666 23 75.999 23c46.667 0 82.667 -16 108 -48l-16 -19c-22 28 -52.667 42 -92 42c-33.333 0 -62.333 -12.333 -87 -37s-40.334 -54 -47.001 -88v-382h-25zM176.003 637l104 145l20 -15l-103 -145z
" />
    <glyph glyph-name="Rcommaaccent" unicode="&#x156;" horiz-adv-x="668" 
d="M111 0l-26.999 -0.000976562v700h253c172 0 258 -64 258 -192c0 -53.333 -19.333 -97.166 -58 -131.499s-87.334 -54.833 -146.001 -61.5l252 -315h-33l-247 309h-252v-309zM337.001 674.999l-226 0.000976562v-341h227c67.333 0 122.5 16.167 165.5 48.5
s64.5 74.166 64.5 125.499c0 111.333 -77 167 -231 167zM319.001 -73l21 13.999c18 -18 27 -39.667 27 -65c0 -19.333 -4.66699 -37.333 -14 -54s-16.5 -27.167 -21.5 -31.5s-12.833 -10.833 -23.5 -19.5l-14 21c32 20 48 47.333 48 82c0 16.667 -7.66699 34.334 -23 53.001
z" />
    <glyph glyph-name="rcommaaccent" unicode="&#x157;" horiz-adv-x="337" 
d="M76 0l0.00292969 520h25v-76c13.333 28 32.666 49.667 57.999 65s50.666 23 75.999 23c46.667 0 82.667 -16 108 -48l-16 -19c-22 28 -52.667 42 -92 42c-33.333 0 -62.333 -12.333 -87 -37s-40.334 -54 -47.001 -88v-382h-25zM122.003 -73l21 13.999
c18 -18 27 -39.667 27 -65c0 -19.333 -4.66699 -37.333 -14 -54s-16.5 -27.167 -21.5 -31.5s-12.833 -10.833 -23.5 -19.5l-14 21c32 20 48 47.333 48 82c0 16.667 -7.66699 34.334 -23 53.001z" />
    <glyph glyph-name="Rcaron" unicode="&#x158;" horiz-adv-x="668" 
d="M111 0l-26.999 -0.000976562v700h253c172 0 258 -64 258 -192c0 -53.333 -19.333 -97.166 -58 -131.499s-87.334 -54.833 -146.001 -61.5l252 -315h-33l-247 309h-252v-309zM337.001 674.999l-226 0.000976562v-341h227c67.333 0 122.5 16.167 165.5 48.5
s64.5 74.166 64.5 125.499c0 111.333 -77 167 -231 167zM476.001 863l-176 -96l-176 96l12 22l164 -90l164 90z" />
    <glyph glyph-name="rcaron" unicode="&#x159;" horiz-adv-x="337" 
d="M76 0l0.00292969 520h25v-76c13.333 28 32.666 49.667 57.999 65s50.666 23 75.999 23c46.667 0 82.667 -16 108 -48l-16 -19c-22 28 -52.667 42 -92 42c-33.333 0 -62.333 -12.333 -87 -37s-40.334 -54 -47.001 -88v-382h-25zM339.003 755l-132 -118l-132 118l17 19
l115 -104l115 104z" />
    <glyph glyph-name="Sacute" unicode="&#x15a;" horiz-adv-x="616" 
d="M532 178c0 31.333 -8.66895 57.6689 -26.002 79.002s-40 37.333 -68 48s-58.833 19.667 -92.5 27s-67.334 15.166 -101.001 23.499s-64.5 18.5 -92.5 30.5s-50.667 30.167 -68 54.5s-26 54.166 -26 89.499c0 52.667 22.833 95.667 68.5 129s105.834 50 180.501 50
c102 0 179.667 -27.667 233 -83l-16 -19c-29.333 26 -60.5 45.333 -93.5 58s-74.167 19 -123.5 19c-34.667 0 -67.667 -4.33301 -99 -13s-59.666 -25 -84.999 -49s-38 -54.333 -38 -91c0 -32 8.66699 -58.833 26 -80.5s40 -37.834 68 -48.501s58.833 -19.667 92.5 -27
s67.334 -15 101.001 -23s64.5 -18 92.5 -30s50.667 -29.833 68 -53.5s26 -53.167 26 -88.5c0 -55.333 -23 -100.666 -69 -135.999s-104 -53 -174 -53c-58.667 0 -112.167 11.833 -160.5 35.5s-85.166 53.5 -110.499 89.5l20 17
c23.333 -32.667 56.666 -60.334 99.999 -83.001s95 -34 155 -34c54.667 0 103.667 14.833 147 44.5s65 68.834 65 117.501zM273.998 789.003l159 90l12 -22l-159 -90z" />
    <glyph glyph-name="sacute" unicode="&#x15b;" horiz-adv-x="497" 
d="M431 135c0 28.667 -13.002 51.8301 -39.002 69.4971s-57.5 30.834 -94.5 39.501s-74 17.667 -111 27s-68.5 24.333 -94.5 45s-39 47.334 -39 80.001c0 40.667 18.833 73.667 56.5 99s83.5 38 137.5 38c38 0 73.833 -7.5 107.5 -22.5s59.5 -35.5 77.5 -61.5l-18 -17
c-15.333 23.333 -38.666 41.833 -69.999 55.5s-63.666 20.5 -96.999 20.5c-46 0 -85.667 -9.66699 -119 -29s-50 -47 -50 -83c0 -27.333 13 -49.666 39 -66.999s57.5 -30.333 94.5 -39s74 -18 111 -28s68.5 -25.333 94.5 -46s39 -47.667 39 -81
c0 -44.667 -19.833 -80.167 -59.5 -106.5s-86.5 -39.5 -140.5 -39.5c-46 0 -89.5 10.5 -130.5 31.5s-70.5 50.5 -88.5 88.5l19 17c16 -34.667 42.833 -62 80.5 -82s77.5 -30 119.5 -30s81.667 10.167 119 30.5s56 50.5 56 90.5zM229.998 636.996l104 145l20 -15l-103 -145z
" />
    <glyph glyph-name="Scircumflex" unicode="&#x15c;" horiz-adv-x="616" 
d="M532 178c0 31.333 -8.66895 57.6689 -26.002 79.002s-40 37.333 -68 48s-58.833 19.667 -92.5 27s-67.334 15.166 -101.001 23.499s-64.5 18.5 -92.5 30.5s-50.667 30.167 -68 54.5s-26 54.166 -26 89.499c0 52.667 22.833 95.667 68.5 129s105.834 50 180.501 50
c102 0 179.667 -27.667 233 -83l-16 -19c-29.333 26 -60.5 45.333 -93.5 58s-74.167 19 -123.5 19c-34.667 0 -67.667 -4.33301 -99 -13s-59.666 -25 -84.999 -49s-38 -54.333 -38 -91c0 -32 8.66699 -58.833 26 -80.5s40 -37.834 68 -48.501s58.833 -19.667 92.5 -27
s67.334 -15 101.001 -23s64.5 -18 92.5 -30s50.667 -29.833 68 -53.5s26 -53.167 26 -88.5c0 -55.333 -23 -100.666 -69 -135.999s-104 -53 -174 -53c-58.667 0 -112.167 11.833 -160.5 35.5s-85.166 53.5 -110.499 89.5l20 17
c23.333 -32.667 56.666 -60.334 99.999 -83.001s95 -34 155 -34c54.667 0 103.667 14.833 147 44.5s65 68.834 65 117.501zM302.998 885.003l176 -96l-12 -22l-164 90l-164 -90l-12 22z" />
    <glyph glyph-name="scircumflex" unicode="&#x15d;" horiz-adv-x="497" 
d="M431 135c0 28.667 -13.002 51.8301 -39.002 69.4971s-57.5 30.834 -94.5 39.501s-74 17.667 -111 27s-68.5 24.333 -94.5 45s-39 47.334 -39 80.001c0 40.667 18.833 73.667 56.5 99s83.5 38 137.5 38c38 0 73.833 -7.5 107.5 -22.5s59.5 -35.5 77.5 -61.5l-18 -17
c-15.333 23.333 -38.666 41.833 -69.999 55.5s-63.666 20.5 -96.999 20.5c-46 0 -85.667 -9.66699 -119 -29s-50 -47 -50 -83c0 -27.333 13 -49.666 39 -66.999s57.5 -30.333 94.5 -39s74 -18 111 -28s68.5 -25.333 94.5 -46s39 -47.667 39 -81
c0 -44.667 -19.833 -80.167 -59.5 -106.5s-86.5 -39.5 -140.5 -39.5c-46 0 -89.5 10.5 -130.5 31.5s-70.5 50.5 -88.5 88.5l19 17c16 -34.667 42.833 -62 80.5 -82s77.5 -30 119.5 -30s81.667 10.167 119 30.5s56 50.5 56 90.5zM359.998 636.996l-115 103l-115 -103l-17 19
l132 119l132 -119z" />
    <glyph glyph-name="Scedilla" unicode="&#x15e;" horiz-adv-x="616" 
d="M221 -180l7.99902 23.001c20.667 -10.667 44 -16 70 -16c50 0 75 16.667 75 50c0 14 -6.33301 25.167 -19 33.5s-30 12.5 -52 12.5c-11.333 0 -19.333 -0.333008 -24 -1v71c-51.333 4.66699 -97.5 18.167 -138.5 40.5s-72.833 49.833 -95.5 82.5l20 17
c23.333 -32.667 56.666 -60.334 99.999 -83.001s95 -34 155 -34c54.667 0 103.667 14.833 147 44.5s65 68.834 65 117.501c0 31.333 -8.66699 57.666 -26 78.999s-40 37.333 -68 48s-58.833 19.667 -92.5 27s-67.334 15.166 -101.001 23.499s-64.5 18.5 -92.5 30.5
s-50.667 30.167 -68 54.5s-26 54.166 -26 89.499c0 52.667 22.833 95.667 68.5 129s105.834 50 180.501 50c102 0 179.667 -27.667 233 -83l-16 -19c-29.333 26 -60.5 45.333 -93.5 58s-74.167 19 -123.5 19c-34.667 0 -67.667 -4.33301 -99 -13s-59.666 -25 -84.999 -49
s-38 -54.333 -38 -91c0 -32 8.66699 -58.833 26 -80.5s40 -37.834 68 -48.501s58.833 -19.667 92.5 -27s67.334 -15 101.001 -23s64.5 -18 92.5 -30s50.667 -29.833 68 -53.5s26 -53.167 26 -88.5c0 -55.333 -23 -100.666 -69 -135.999s-104 -53 -174 -53h-10v-45
c30 0.666992 53 -5.66602 69 -18.999s24 -30 24 -50c0 -21.333 -8.33301 -39.166 -25 -53.499s-41.667 -21.5 -75 -21.5c-30.667 0 -56.667 6 -78 18z" />
    <glyph glyph-name="scedilla" unicode="&#x15f;" horiz-adv-x="497" 
d="M169 -180l7.99902 22.9941c20.667 -10.667 44 -16 70 -16c50 0 75 16.667 75 50c0 14 -6.33301 25.167 -19 33.5s-30 12.5 -52 12.5c-10.667 0 -18.334 -0.333008 -23.001 -1v69c-42 4 -80.333 16.167 -115 36.5s-60 47.5 -76 81.5l19 17c16 -34.667 42.833 -62 80.5 -82
s77.5 -30 119.5 -30s81.667 10.167 119 30.5s56 50.5 56 90.5c0 28.667 -13 51.834 -39 69.501s-57.5 30.834 -94.5 39.501s-74 17.667 -111 27s-68.5 24.333 -94.5 45s-39 47.334 -39 80.001c0 40.667 18.833 73.667 56.5 99s83.5 38 137.5 38
c38 0 73.833 -7.5 107.5 -22.5s59.5 -35.5 77.5 -61.5l-18 -17c-15.333 23.333 -38.666 41.833 -69.999 55.5s-63.666 20.5 -96.999 20.5c-46 0 -85.667 -9.66699 -119 -29s-50 -47 -50 -83c0 -27.333 13 -49.666 39 -66.999s57.5 -30.333 94.5 -39s74 -18 111 -28
s68.5 -25.333 94.5 -46s39 -47.667 39 -81c0 -44.667 -19.833 -80.167 -59.5 -106.5s-86.5 -39.5 -140.5 -39.5h-3v-43c30.667 0.666992 54 -5.66602 70 -18.999s24 -30 24 -50c0 -21.333 -8.33301 -39.166 -25 -53.499s-41.667 -21.5 -75 -21.5c-30.667 0 -56.667 6 -78 18
z" />
    <glyph glyph-name="Scaron" unicode="&#x160;" horiz-adv-x="616" 
d="M532 178c0 31.333 -8.66895 57.6689 -26.002 79.002s-40 37.333 -68 48s-58.833 19.667 -92.5 27s-67.334 15.166 -101.001 23.499s-64.5 18.5 -92.5 30.5s-50.667 30.167 -68 54.5s-26 54.166 -26 89.499c0 52.667 22.833 95.667 68.5 129s105.834 50 180.501 50
c102 0 179.667 -27.667 233 -83l-16 -19c-29.333 26 -60.5 45.333 -93.5 58s-74.167 19 -123.5 19c-34.667 0 -67.667 -4.33301 -99 -13s-59.666 -25 -84.999 -49s-38 -54.333 -38 -91c0 -32 8.66699 -58.833 26 -80.5s40 -37.834 68 -48.501s58.833 -19.667 92.5 -27
s67.334 -15 101.001 -23s64.5 -18 92.5 -30s50.667 -29.833 68 -53.5s26 -53.167 26 -88.5c0 -55.333 -23 -100.666 -69 -135.999s-104 -53 -174 -53c-58.667 0 -112.167 11.833 -160.5 35.5s-85.166 53.5 -110.499 89.5l20 17
c23.333 -32.667 56.666 -60.334 99.999 -83.001s95 -34 155 -34c54.667 0 103.667 14.833 147 44.5s65 68.834 65 117.501zM483.998 863.003l-176 -96l-176 96l12 22l164 -90l164 90z" />
    <glyph glyph-name="scaron" unicode="&#x161;" horiz-adv-x="497" 
d="M431 135c0 28.667 -13.002 51.8301 -39.002 69.4971s-57.5 30.834 -94.5 39.501s-74 17.667 -111 27s-68.5 24.333 -94.5 45s-39 47.334 -39 80.001c0 40.667 18.833 73.667 56.5 99s83.5 38 137.5 38c38 0 73.833 -7.5 107.5 -22.5s59.5 -35.5 77.5 -61.5l-18 -17
c-15.333 23.333 -38.666 41.833 -69.999 55.5s-63.666 20.5 -96.999 20.5c-46 0 -85.667 -9.66699 -119 -29s-50 -47 -50 -83c0 -27.333 13 -49.666 39 -66.999s57.5 -30.333 94.5 -39s74 -18 111 -28s68.5 -25.333 94.5 -46s39 -47.667 39 -81
c0 -44.667 -19.833 -80.167 -59.5 -106.5s-86.5 -39.5 -140.5 -39.5c-46 0 -89.5 10.5 -130.5 31.5s-70.5 50.5 -88.5 88.5l19 17c16 -34.667 42.833 -62 80.5 -82s77.5 -30 119.5 -30s81.667 10.167 119 30.5s56 50.5 56 90.5zM379.998 754.996l-132 -118l-132 118l17 19
l115 -104l115 104z" />
    <glyph glyph-name="Tcedilla" unicode="&#x162;" horiz-adv-x="563" 
d="M210 -180l8 22.998c20.667 -10.667 44 -16 70 -16c50 0 75 16.667 75 50c0 14 -6.33301 25.167 -19 33.5s-30 12.5 -52 12.5c-11.333 0 -19.333 -0.333008 -24 -1v753h-263v25h553v-25h-263v-729c30 0.666992 53 -5.66602 69 -18.999s24 -30 24 -50
c0 -21.333 -8.33301 -39.166 -25 -53.499s-41.667 -21.5 -75 -21.5c-30.667 0 -56.667 6 -78 18z" />
    <glyph glyph-name="tcedilla" unicode="&#x163;" horiz-adv-x="378" 
d="M166 -180l8 22.999c20.667 -10.667 44 -16 70 -16c50 0 75 16.667 75 50c0 14 -6.33301 25.167 -19 33.5s-30 12.5 -52 12.5c-10.667 0 -18.334 -0.333008 -23.001 -1v72c-73.333 17.333 -110 85.333 -110 204v297h-116v25h116v125h25v-125h199v-25h-199v-295
c0 -64.667 10.833 -111.834 32.5 -141.501s53.834 -44.5 96.501 -44.5c21.333 0 41.5 5.33301 60.5 16s32.5 22 40.5 34l14 -21c-30 -36 -68.333 -54 -115 -54c-8.66699 0 -15 0.333008 -19 1v-44c30.667 0.666992 54 -5.66602 70 -18.999s24 -30 24 -50
c0 -21.333 -8.33301 -39.166 -25 -53.499s-41.667 -21.5 -75 -21.5c-30.667 0 -56.667 6 -78 18z" />
    <glyph glyph-name="Tcaron" unicode="&#x164;" horiz-adv-x="563" 
d="M5 675v25h553v-25h-263v-675h-27v675h-263zM457 863l-176 -96l-176 96l12 22l164 -90l164 90z" />
    <glyph glyph-name="tcaron" unicode="&#x165;" horiz-adv-x="378" 
d="M-1 495l-0.000976562 24.999h116v125h25v-439c0 -69.333 10.833 -118.666 32.5 -147.999s54.834 -44 99.501 -44c20.667 0 40 5.5 58 16.5s31.333 22.167 40 33.5l14 -21c-33.333 -36 -72 -54 -116 -54c-102 0 -153 71.667 -153 215v291h-116zM248.999 736.999
l28.001 0.000976562c7.33301 -22 11 -41.667 11 -59c0 -24.667 -6.83301 -47.834 -20.5 -69.501s-28.834 -38.5 -45.501 -50.5l-15 20c17.333 12 31 27.167 41 45.5s15 36.5 15 54.5c0 22 -4.66699 41.667 -14 59z" />
    <glyph glyph-name="Umacron" unicode="&#x16a;" horiz-adv-x="713" 
d="M72 291l0.00195312 409h25v-400c0 -89.333 23.333 -158.833 70 -208.5s110 -74.5 190 -74.5s143.167 24.833 189.5 74.5s69.5 119.167 69.5 208.5v400h25v-409c0 -51.333 -8.16699 -96.666 -24.5 -135.999s-38.166 -70.5 -65.499 -93.5s-57.333 -40.333 -90 -52
s-67.334 -17.5 -104.001 -17.5s-71.334 5.83301 -104.001 17.5s-62.834 29 -90.501 52s-49.667 54.167 -66 93.5s-24.5 84.666 -24.5 135.999zM212.002 810v25h289v-25h-289z" />
    <glyph glyph-name="umacron" unicode="&#x16b;" horiz-adv-x="587" 
d="M511 523l0.000976562 -522.999h-25v124c-18 -40.667 -46 -73.334 -84 -98.001s-80.333 -37 -127 -37c-68.667 0 -121 19.667 -157 59s-54 95.666 -54 168.999v306h25v-302c0 -138 62 -207 186 -207c47.333 0 89.666 14.333 126.999 43s65.333 68.334 84 119.001v347h25z
M172.001 669.001v25h244v-25h-244z" />
    <glyph glyph-name="Ubreve" unicode="&#x16c;" horiz-adv-x="713" 
d="M72 291l0.00195312 409h25v-400c0 -89.333 23.333 -158.833 70 -208.5s110 -74.5 190 -74.5s143.167 24.833 189.5 74.5s69.5 119.167 69.5 208.5v400h25v-409c0 -51.333 -8.16699 -96.666 -24.5 -135.999s-38.166 -70.5 -65.499 -93.5s-57.333 -40.333 -90 -52
s-67.334 -17.5 -104.001 -17.5s-71.334 5.83301 -104.001 17.5s-62.834 29 -90.501 52s-49.667 54.167 -66 93.5s-24.5 84.666 -24.5 135.999zM497.002 886l18.998 -16c-39.333 -52.667 -92.666 -79 -159.999 -79s-120.666 26.333 -159.999 79l19 16
c36 -46.667 83 -70 141 -70s105 23.333 141 70z" />
    <glyph glyph-name="ubreve" unicode="&#x16d;" horiz-adv-x="587" 
d="M511 523l0.000976562 -522.999h-25v124c-18 -40.667 -46 -73.334 -84 -98.001s-80.333 -37 -127 -37c-68.667 0 -121 19.667 -157 59s-54 95.666 -54 168.999v306h25v-302c0 -138 62 -207 186 -207c47.333 0 89.666 14.333 126.999 43s65.333 68.334 84 119.001v347h25z
M152.001 735.001l20 15c27.333 -43.333 67 -65 119 -65s91.667 21.667 119 65l20 -15c-34 -50 -80.333 -75 -139 -75s-105 25 -139 75z" />
    <glyph glyph-name="Uring" unicode="&#x16e;" horiz-adv-x="713" 
d="M72 291l0.00195312 409h25v-400c0 -89.333 23.333 -158.833 70 -208.5s110 -74.5 190 -74.5s143.167 24.833 189.5 74.5s69.5 119.167 69.5 208.5v400h25v-409c0 -51.333 -8.16699 -96.666 -24.5 -135.999s-38.166 -70.5 -65.499 -93.5s-57.333 -40.333 -90 -52
s-67.334 -17.5 -104.001 -17.5s-71.334 5.83301 -104.001 17.5s-62.834 29 -90.501 52s-49.667 54.167 -66 93.5s-24.5 84.666 -24.5 135.999zM272.002 811c0 22.667 8.16699 41.834 24.5 57.501s36.166 23.5 59.499 23.5s43.333 -7.83301 60 -23.5s25 -34.834 25 -57.501
s-8.33301 -41.667 -25 -57s-36.667 -23 -60 -23s-43.166 7.66699 -59.499 23s-24.5 34.333 -24.5 57zM297.002 811c0 -15.333 5.66699 -28.333 17 -39s25.333 -16 42 -16s30.834 5.33301 42.501 16s17.5 23.667 17.5 39s-5.83301 28.5 -17.5 39.5s-25.834 16.5 -42.501 16.5
s-30.667 -5.5 -42 -16.5s-17 -24.167 -17 -39.5z" />
    <glyph glyph-name="uring" unicode="&#x16f;" horiz-adv-x="587" 
d="M511 523l0.000976562 -522.999h-25v124c-18 -40.667 -46 -73.334 -84 -98.001s-80.333 -37 -127 -37c-68.667 0 -121 19.667 -157 59s-54 95.666 -54 168.999v306h25v-302c0 -138 62 -207 186 -207c47.333 0 89.666 14.333 126.999 43s65.333 68.334 84 119.001v347h25z
M213.001 701.001c0 23.333 7.83301 43.166 23.5 59.499s34.834 24.5 57.501 24.5s41.834 -8.16699 57.501 -24.5s23.5 -36.166 23.5 -59.499s-7.83301 -43 -23.5 -59s-34.834 -24 -57.501 -24s-41.834 8 -57.501 24s-23.5 35.667 -23.5 59zM238.001 701.001
c0 -16.667 5.5 -30.5 16.5 -41.5s24.167 -16.5 39.5 -16.5s28.5 5.5 39.5 16.5s16.5 24.833 16.5 41.5s-5.5 30.667 -16.5 42s-24.167 17 -39.5 17s-28.5 -5.66699 -39.5 -17s-16.5 -25.333 -16.5 -42z" />
    <glyph glyph-name="Uhungarumlaut" unicode="&#x170;" horiz-adv-x="713" 
d="M72 291l0.00195312 409h25v-400c0 -89.333 23.333 -158.833 70 -208.5s110 -74.5 190 -74.5s143.167 24.833 189.5 74.5s69.5 119.167 69.5 208.5v400h25v-409c0 -51.333 -8.16699 -96.666 -24.5 -135.999s-38.166 -70.5 -65.499 -93.5s-57.333 -40.333 -90 -52
s-67.334 -17.5 -104.001 -17.5s-71.334 5.83301 -104.001 17.5s-62.834 29 -90.501 52s-49.667 54.167 -66 93.5s-24.5 84.666 -24.5 135.999zM245.002 793l167 88l12 -22l-167 -88zM397.002 793l167 88l12 -22l-167 -88z" />
    <glyph glyph-name="uhungarumlaut" unicode="&#x171;" horiz-adv-x="587" 
d="M511 523l0.000976562 -522.999h-25v124c-18 -40.667 -46 -73.334 -84 -98.001s-80.333 -37 -127 -37c-68.667 0 -121 19.667 -157 59s-54 95.666 -54 168.999v306h25v-302c0 -138 62 -207 186 -207c47.333 0 89.666 14.333 126.999 43s65.333 68.334 84 119.001v347h25z
M190.001 640.001l126 169l20 -15l-126 -169zM319.001 640.001l126 169l20 -15l-126 -169z" />
    <glyph glyph-name="Uogonek" unicode="&#x172;" horiz-adv-x="714" 
d="M455 -164l4.99805 -24.002c-14.667 -8 -33.667 -12 -57 -12c-26 0 -49 7.66699 -69 23s-30 38 -30 68c0 40 18 73.667 54 101c-84.667 0 -153.5 26.333 -206.5 79s-79.5 126 -79.5 220v409h27v-400c0 -89.333 23 -158.833 69 -208.5s109 -74.5 189 -74.5
s142.833 24.833 188.5 74.5s68.5 119.167 68.5 208.5v400h27v-409c0 -92 -24.167 -163 -72.5 -213s-106.166 -78.333 -173.499 -85c-18 -10 -33.5 -24.167 -46.5 -42.5s-19.5 -38.166 -19.5 -59.499c0 -19.333 6.5 -35.166 19.5 -47.499s31.833 -18.5 56.5 -18.5
c18.667 0 35.334 3.66699 50.001 11z" />
    <glyph glyph-name="uogonek" unicode="&#x173;" horiz-adv-x="587" 
d="M519 -168l5.00293 -23.999c-14 -5.33301 -28.667 -8 -44 -8c-24 0 -45.5 7 -64.5 21s-28.5 36 -28.5 66c0 28 9.16699 53.167 27.5 75.5s42.166 39.833 71.499 52.5v109c-18 -40.667 -46 -73.334 -84 -98.001s-80.333 -37 -127 -37c-68.667 0 -121 19.667 -157 59
s-54 95.666 -54 168.999v306h25v-302c0 -138 62 -207 186 -207c47.333 0 89.666 14.333 126.999 43s65.333 68.334 84 119.001v347h25v-523c-26 -6.66699 -49 -21 -69 -43s-30 -45.333 -30 -70c0 -19.333 6.33301 -34.5 19 -45.5s29.667 -16.5 51 -16.5
c15.333 0 27.666 2.33301 36.999 7z" />
    <glyph glyph-name="Ydieresis" unicode="&#x178;" horiz-adv-x="585" 
d="M585 700l-280 -442v-258h-27v258l-278 442h33l259 -415l261 415h32zM158 820c0 6 2.33301 11 7 15s10.334 6 17.001 6s12.334 -2 17.001 -6s7 -9 7 -15s-2.33301 -11 -7 -15s-10.334 -6 -17.001 -6s-12.334 2 -17.001 6s-7 9 -7 15zM381 820c0 6 2.33301 11 7 15
s10.334 6 17.001 6s12.334 -2 17.001 -6s7 -9 7 -15s-2.33301 -11 -7 -15s-10.334 -6 -17.001 -6s-12.334 2 -17.001 6s-7 9 -7 15z" />
    <glyph glyph-name="Zacute" unicode="&#x179;" horiz-adv-x="626" 
d="M36 675v25h560v-23l-545 -652h555v-25h-590v22l546 653h-526zM291 789l159 90l12 -22l-159 -90z" />
    <glyph glyph-name="zacute" unicode="&#x17a;" horiz-adv-x="478" 
d="M37 495v25h421v-23l-401 -472h394v-25h-431v23l404 472h-387zM207 637l104 145l20 -15l-103 -145z" />
    <glyph glyph-name="Zdotaccent" unicode="&#x17b;" horiz-adv-x="626" 
d="M36 675v25h560v-23l-545 -652h555v-25h-590v22l546 653h-526zM288 823c0 7.33301 2.5 13.833 7.5 19.5s10.833 8.5 17.5 8.5s12.5 -2.83301 17.5 -8.5s7.5 -12.167 7.5 -19.5s-2.5 -13.833 -7.5 -19.5s-10.833 -8.5 -17.5 -8.5s-12.5 2.83301 -17.5 8.5
s-7.5 12.167 -7.5 19.5z" />
    <glyph glyph-name="zdotaccent" unicode="&#x17c;" horiz-adv-x="478" 
d="M37 495v25h421v-23l-401 -472h394v-25h-431v23l404 472h-387zM224 704c0 7.33301 2.33301 13.666 7 18.999s10.334 8 17.001 8s12.5 -2.66699 17.5 -8s7.5 -11.666 7.5 -18.999s-2.33301 -13.5 -7 -18.5s-10.667 -7.5 -18 -7.5c-6.66699 0 -12.334 2.5 -17.001 7.5
s-7 11.167 -7 18.5z" />
    <glyph glyph-name="Zcaron" unicode="&#x17d;" horiz-adv-x="626" 
d="M36 675v25h560v-23l-545 -652h555v-25h-590v22l546 653h-526zM489 863l-176 -96l-176 96l12 22l164 -90l164 90z" />
    <glyph glyph-name="zcaron" unicode="&#x17e;" horiz-adv-x="478" 
d="M37 495v25h421v-23l-401 -472h394v-25h-431v23l404 472h-387zM371 755l-132 -118l-132 118l17 19l115 -104l115 104z" />
    <glyph glyph-name="uni018F" unicode="&#x18f;" horiz-adv-x="746" 
d="M32 328c0 3.33301 0.166992 10.5 0.5 21.5s0.5 17.833 0.5 20.5h643c-5.33301 96.667 -35.833 173.167 -91.5 229.5s-132.167 84.5 -229.5 84.5c-101.333 0 -185.333 -42.333 -252 -127l-19 18c68 89.333 158.667 134 272 134c107.333 0 192 -32 254 -96
s93 -150.667 93 -260c0 -104.667 -31 -191.167 -93 -259.5s-142.667 -102.5 -242 -102.5c-56 0 -106.167 10.5 -150.5 31.5s-79.5 48.333 -105.5 82s-45.833 69.667 -59.5 108s-20.5 76.833 -20.5 115.5zM676 345l-617 0.000976562v-17c0 -84.667 29 -157.834 87 -219.501
s132 -92.5 222 -92.5c88.667 0 162 30.833 220 92.5s87.333 140.5 88 236.5z" />
    <glyph glyph-name="florin" unicode="&#x192;" horiz-adv-x="600" 
d="M360 526c-2 -8.66699 -4.50098 -21.832 -7.50098 -39.499s-5.16699 -30.834 -6.5 -39.501h177v-25h-181l-71 -404c-0.666992 -3.33301 -2.5 -13.333 -5.5 -30s-5 -27.334 -6 -32.001s-3.16699 -14.5 -6.5 -29.5s-6.33301 -25.333 -9 -31s-6.5 -14.667 -11.5 -27
s-10 -21.166 -15 -26.499s-11.333 -12 -19 -20s-15.667 -13.667 -24 -17s-18.166 -6.5 -29.499 -9.5s-23.333 -4.5 -36 -4.5c-30.667 0 -57 7 -79 21l10 23c18.667 -12.667 41.334 -19 68.001 -19c39.333 0 68.333 12.667 87 38s32.667 64 42 116l80 452h-167v25h171l15 85
c22 118 76.667 177 164 177c42 0 77 -12 105 -36l-12 -20c-26.667 20.667 -58.334 31 -95.001 31s-66.167 -12.5 -88.5 -37.5s-38.833 -65.167 -49.5 -120.5z" />
    <glyph glyph-name="uni01DD" unicode="&#x1dd;" horiz-adv-x="570" 
d="M75 407l-19.001 14.001c23.333 37.333 54 65.333 92 84s78.667 28 122 28c80.667 0 144.5 -24.5 191.5 -73.5s70.5 -114.167 70.5 -195.5c0 -79.333 -22.167 -145 -66.5 -197s-105.833 -78 -184.5 -78c-68.667 0 -126.167 21.667 -172.5 65s-69.5 102.333 -69.5 177
c0 18 0.666992 32.333 2 43h466c0 73.333 -22.667 130.666 -68 171.999s-101.666 62 -168.999 62c-86.667 0 -151.667 -33.667 -195 -101zM282.999 14.001c70 0 124.166 22.5 162.499 67.5s58.5 100.833 60.5 167.5h-442c-3.33301 -70.667 15.334 -127.5 56.001 -170.5
s95 -64.5 163 -64.5z" />
    <glyph glyph-name="Scommaaccent" unicode="&#x218;" horiz-adv-x="616" 
d="M532 178c0 31.333 -8.66895 57.6689 -26.002 79.002s-40 37.333 -68 48s-58.833 19.667 -92.5 27s-67.334 15.166 -101.001 23.499s-64.5 18.5 -92.5 30.5s-50.667 30.167 -68 54.5s-26 54.166 -26 89.499c0 52.667 22.833 95.667 68.5 129s105.834 50 180.501 50
c102 0 179.667 -27.667 233 -83l-16 -19c-29.333 26 -60.5 45.333 -93.5 58s-74.167 19 -123.5 19c-34.667 0 -67.667 -4.33301 -99 -13s-59.666 -25 -84.999 -49s-38 -54.333 -38 -91c0 -32 8.66699 -58.833 26 -80.5s40 -37.834 68 -48.501s58.833 -19.667 92.5 -27
s67.334 -15 101.001 -23s64.5 -18 92.5 -30s50.667 -29.833 68 -53.5s26 -53.167 26 -88.5c0 -55.333 -23 -100.666 -69 -135.999s-104 -53 -174 -53c-58.667 0 -112.167 11.833 -160.5 35.5s-85.166 53.5 -110.499 89.5l20 17
c23.333 -32.667 56.666 -60.334 99.999 -83.001s95 -34 155 -34c54.667 0 103.667 14.833 147 44.5s65 68.834 65 117.501zM293.998 -72.9971l21 13.999c18 -18 27 -39.667 27 -65c0 -19.333 -4.66699 -37.333 -14 -54s-16.5 -27.167 -21.5 -31.5
s-12.833 -10.833 -23.5 -19.5l-14 21c32 20 48 47.333 48 82c0 16.667 -7.66699 34.334 -23 53.001z" />
    <glyph glyph-name="scommaaccent" unicode="&#x219;" horiz-adv-x="497" 
d="M431 135c0 28.667 -13.002 51.8301 -39.002 69.4971s-57.5 30.834 -94.5 39.501s-74 17.667 -111 27s-68.5 24.333 -94.5 45s-39 47.334 -39 80.001c0 40.667 18.833 73.667 56.5 99s83.5 38 137.5 38c38 0 73.833 -7.5 107.5 -22.5s59.5 -35.5 77.5 -61.5l-18 -17
c-15.333 23.333 -38.666 41.833 -69.999 55.5s-63.666 20.5 -96.999 20.5c-46 0 -85.667 -9.66699 -119 -29s-50 -47 -50 -83c0 -27.333 13 -49.666 39 -66.999s57.5 -30.333 94.5 -39s74 -18 111 -28s68.5 -25.333 94.5 -46s39 -47.667 39 -81
c0 -44.667 -19.833 -80.167 -59.5 -106.5s-86.5 -39.5 -140.5 -39.5c-46 0 -89.5 10.5 -130.5 31.5s-70.5 50.5 -88.5 88.5l19 17c16 -34.667 42.833 -62 80.5 -82s77.5 -30 119.5 -30s81.667 10.167 119 30.5s56 50.5 56 90.5zM234.998 -73.0039l21 13.999
c18 -18 27 -39.667 27 -65c0 -19.333 -4.66699 -37.333 -14 -54s-16.5 -27.167 -21.5 -31.5s-12.833 -10.833 -23.5 -19.5l-14 21c32 20 48 47.333 48 82c0 16.667 -7.66699 34.334 -23 53.001z" />
    <glyph glyph-name="Tcommaaccent" unicode="&#x21a;" horiz-adv-x="563" 
d="M5 675v25h553v-25h-263v-675h-27v675h-263zM267 -73l21 13.999c18 -18 27 -39.667 27 -65c0 -19.333 -4.66699 -37.333 -14 -54s-16.5 -27.167 -21.5 -31.5s-12.833 -10.833 -23.5 -19.5l-14 21c32 20 48 47.333 48 82c0 16.667 -7.66699 34.334 -23 53.001z" />
    <glyph glyph-name="tcommaaccent" unicode="&#x21b;" horiz-adv-x="378" 
d="M-1 495l-0.000976562 25.001h116v125h25v-125h199v-25h-199v-295c0 -64.667 10.833 -111.834 32.5 -141.501s53.834 -44.5 96.501 -44.5c21.333 0 41.5 5.33301 60.5 16s32.5 22 40.5 34l14 -21c-30 -36 -68.333 -54 -115 -54c-102.667 0 -154 69.667 -154 209v297h-116z
M227.999 -72.999l21 13.999c18 -18 27 -39.667 27 -65c0 -19.333 -4.66699 -37.333 -14 -54s-16.5 -27.167 -21.5 -31.5s-12.833 -10.833 -23.5 -19.5l-14 21c32 20 48 47.333 48 82c0 16.667 -7.66699 34.334 -23 53.001z" />
    <glyph glyph-name="uni0237" unicode="&#x237;" horiz-adv-x="216" 
d="M128 520l-0.00292969 -529c0 -133.333 -46.667 -200 -140 -200c-45.333 0 -81.333 15 -108 45l15 21l6.5 -6.5c3.66699 -3.66699 6.83398 -6.5 9.50098 -8.5s6.83398 -5 12.501 -9s11.334 -7 17.001 -9s12.834 -3.83301 21.501 -5.5s17.667 -2.5 27 -2.5
c37.333 0 65.666 15.167 84.999 45.5s29 73.5 29 129.5v529h25z" />
    <glyph glyph-name="uni0259" unicode="&#x259;" horiz-adv-x="570" 
d="M75 407l-19.001 14.001c23.333 37.333 54 65.333 92 84s78.667 28 122 28c80.667 0 144.5 -24.5 191.5 -73.5s70.5 -114.167 70.5 -195.5c0 -79.333 -22.167 -145 -66.5 -197s-105.833 -78 -184.5 -78c-68.667 0 -126.167 21.667 -172.5 65s-69.5 102.333 -69.5 177
c0 18 0.666992 32.333 2 43h466c0 73.333 -22.667 130.666 -68 171.999s-101.666 62 -168.999 62c-86.667 0 -151.667 -33.667 -195 -101zM282.999 14.001c70 0 124.166 22.5 162.499 67.5s58.5 100.833 60.5 167.5h-442c-3.33301 -70.667 15.334 -127.5 56.001 -170.5
s95 -64.5 163 -64.5z" />
    <glyph glyph-name="afii57929" unicode="&#x2bc;" horiz-adv-x="148" 
d="M106 711l21 14.001c14 -18.667 21 -40.334 21 -65.001c0 -44.667 -21 -82.667 -63 -114l-14 21c34.667 24.667 52 55 52 91c0 19.333 -5.66699 37 -17 53z" />
    <glyph glyph-name="circumflex" unicode="&#x2c6;" horiz-adv-x="443" 
d="M425 637l-115 103l-115 -103l-17 19l132 119l132 -119z" />
    <glyph glyph-name="caron" unicode="&#x2c7;" horiz-adv-x="440" 
d="M440 755l-132 -118l-132 118l17 19l115 -104l115 104z" />
    <glyph glyph-name="breve" unicode="&#x2d8;" horiz-adv-x="436" 
d="M158 735l20 15c27.333 -43.333 67 -65 119 -65s91.667 21.667 119 65l20 -15c-34 -50 -80.333 -75 -139 -75s-105 25 -139 75z" />
    <glyph glyph-name="dotaccent" unicode="&#x2d9;" horiz-adv-x="250" 
d="M88 704c0 7.33301 2.33301 13.666 7 18.999s10.334 8 17.001 8s12.5 -2.66699 17.5 -8s7.5 -11.666 7.5 -18.999s-2.33301 -13.5 -7 -18.5s-10.667 -7.5 -18 -7.5c-6.66699 0 -12.334 2.5 -17.001 7.5s-7 11.167 -7 18.5z" />
    <glyph glyph-name="ring" unicode="&#x2da;" horiz-adv-x="393" 
d="M231 701c0 23.333 7.83301 43.166 23.5 59.499s34.834 24.5 57.501 24.5s41.834 -8.16699 57.501 -24.5s23.5 -36.166 23.5 -59.499s-7.83301 -43 -23.5 -59s-34.834 -24 -57.501 -24s-41.834 8 -57.501 24s-23.5 35.667 -23.5 59zM256 701
c0 -16.667 5.5 -30.5 16.5 -41.5s24.167 -16.5 39.5 -16.5s28.5 5.5 39.5 16.5s16.5 24.833 16.5 41.5s-5.5 30.667 -16.5 42s-24.167 17 -39.5 17s-28.5 -5.66699 -39.5 -17s-16.5 -25.333 -16.5 -42z" />
    <glyph glyph-name="ogonek" unicode="&#x2db;" horiz-adv-x="354" 
d="M349 -168l5.00098 -24c-14 -5.33301 -28.667 -8 -44 -8c-24 0 -45.5 7 -64.5 21s-28.5 36 -28.5 66c0 31.333 12 59.5 36 84.5s53.333 42.833 88 53.5v-25c-26 -6.66699 -49 -21 -69 -43s-30 -45.333 -30 -70c0 -19.333 6.33301 -34.5 19 -45.5s29.667 -16.5 51 -16.5
c15.333 0 27.666 2.33301 36.999 7z" />
    <glyph glyph-name="tilde" unicode="&#x2dc;" horiz-adv-x="455" 
d="M240 712c16 0 37.667 -8 65 -24l11 -7c24 -14.667 42 -22 54 -22c24.667 0 47 14 67 42l18 -17c-24.667 -33.333 -53 -50 -85 -50c-16 0 -37.667 8 -65 24l-11 7c-24 14.667 -42 22 -54 22c-24.667 0 -47 -14 -67 -42l-18 17c24.667 33.333 53 50 85 50z" />
    <glyph glyph-name="hungarumlaut" unicode="&#x2dd;" horiz-adv-x="518" 
d="M243 640l126 169l20 -15l-126 -169zM372 640l126 169l20 -15l-126 -169z" />
    <glyph glyph-name="gravecomb" unicode="&#x300;" horiz-adv-x="0" 
d="M-352 782l104 -145l-21 -15l-103 145z" />
    <glyph glyph-name="acutecomb" unicode="&#x301;" horiz-adv-x="0" 
d="M-332 637l104 145l20 -15l-103 -145z" />
    <glyph glyph-name="uni0394" unicode="&#x394;" horiz-adv-x="708" 
d="M40 0l300 708h27l301 -708h-628zM354 676l-276 -651h552z" />
    <glyph glyph-name="uni0394" unicode="&#x2206;" horiz-adv-x="708" 
d="M40 0l300 708h27l301 -708h-628zM354 676l-276 -651h552z" />
    <glyph glyph-name="uni03A9" unicode="&#x3a9;" horiz-adv-x="798" 
d="M87 350c0 -48 8.66309 -92 25.9961 -132s39.833 -72.667 67.5 -98s54.834 -45.666 81.501 -60.999s53 -26.666 79 -33.999v-25h-228v25h164c-58.667 24 -109.5 63.833 -152.5 119.5s-64.5 124.167 -64.5 205.5c0 100.667 33 185.334 99 254.001s146 103 240 103
s174 -34.333 240 -103s99 -153.334 99 -254.001c0 -81.333 -21.5 -149.833 -64.5 -205.5s-93.833 -95.5 -152.5 -119.5h164v-25h-228v25c26 7.33301 52.333 18.666 79 33.999s53.834 35.666 81.501 60.999s50.167 58 67.5 98s26 84 26 132c0 96 -31.167 175.333 -93.5 238
s-135.166 94 -218.499 94s-156.166 -31.333 -218.499 -94s-93.5 -142 -93.5 -238z" />
    <glyph glyph-name="uni03A9" unicode="&#x2126;" horiz-adv-x="798" 
d="M87 350c0 -48 8.66309 -92 25.9961 -132s39.833 -72.667 67.5 -98s54.834 -45.666 81.501 -60.999s53 -26.666 79 -33.999v-25h-228v25h164c-58.667 24 -109.5 63.833 -152.5 119.5s-64.5 124.167 -64.5 205.5c0 100.667 33 185.334 99 254.001s146 103 240 103
s174 -34.333 240 -103s99 -153.334 99 -254.001c0 -81.333 -21.5 -149.833 -64.5 -205.5s-93.833 -95.5 -152.5 -119.5h164v-25h-228v25c26 7.33301 52.333 18.666 79 33.999s53.834 35.666 81.501 60.999s50.167 58 67.5 98s26 84 26 132c0 96 -31.167 175.333 -93.5 238
s-135.166 94 -218.499 94s-156.166 -31.333 -218.499 -94s-93.5 -142 -93.5 -238z" />
    <glyph glyph-name="pi" unicode="&#x3c0;" horiz-adv-x="730" 
d="M52 495l0.000976562 25.001h640v-25h-147v-359c0 -74 29.667 -111 89 -111c22.667 0 44.334 7.66699 65.001 23l8 -24c-20.667 -16 -45 -24 -73 -24c-32.667 0 -59.834 10.667 -81.501 32s-32.5 53 -32.5 95v368h-299v-71c0 -132.667 -9.66699 -228 -29 -286
c-14 -41.333 -35.167 -74 -63.5 -98s-61.5 -37.333 -99.5 -40v25c65.333 3.33301 111.666 43.333 138.999 120c18.667 51.333 28 141.666 28 270.999v79h-144z" />
    <glyph glyph-name="afii10023" unicode="&#x401;" horiz-adv-x="630" 
d="M84 0v700h480v-25h-453v-306h423v-25h-423v-319h463v-25h-490zM195 820c0 6 2.33301 11 7 15s10.334 6 17.001 6s12.334 -2 17.001 -6s7 -9 7 -15s-2.33301 -11 -7 -15s-10.334 -6 -17.001 -6s-12.334 2 -17.001 6s-7 9 -7 15zM418 820c0 6 2.33301 11 7 15
s10.334 6 17.001 6s12.334 -2 17.001 -6s7 -9 7 -15s-2.33301 -11 -7 -15s-10.334 -6 -17.001 -6s-12.334 2 -17.001 6s-7 9 -7 15z" />
    <glyph glyph-name="afii10051" unicode="&#x402;" horiz-adv-x="717" 
d="M647 204c0 123.333 -57.3311 185.001 -171.998 185.001c-32.667 0 -65 -8.5 -97 -25.5s-59.333 -41.833 -82 -74.5v-289h-27v675h-264v25h554v-25h-263v-350c49.333 59.333 109.666 89 180.999 89c61.333 0 109.5 -17.833 144.5 -53.5s52.5 -89.834 52.5 -162.501
c0 -70 -14.5 -122 -43.5 -156s-65.167 -51 -108.5 -51c-36.667 0 -66.334 13.667 -89.001 41l20 18c16.667 -22.667 38.667 -34 66 -34c40 0 71.333 15.167 94 45.5s34 77.833 34 142.5z" />
    <glyph glyph-name="afii10052" unicode="&#x403;" horiz-adv-x="554" 
d="M84 0v700h470v-25h-443v-675h-27zM275 789l159 90l12 -22l-159 -90z" />
    <glyph glyph-name="afii10053" unicode="&#x404;" horiz-adv-x="679" 
d="M472 370l0.00195312 -25.999h-403c2 -102 33.167 -182.167 93.5 -240.5s140.166 -87.5 239.499 -87.5c100 0 178.333 32 235 96l15 -16c-26 -34.667 -61.333 -60.834 -106 -78.501s-90.667 -26.5 -138 -26.5c-112.667 0 -201.834 32.5 -267.501 97.5
s-98.5 152.167 -98.5 261.5c0 105.333 31.5 191.5 94.5 258.5s149.5 100.5 259.5 100.5c46.667 0 91.834 -8.66699 135.501 -26s81.167 -43.333 112.5 -78l-14 -17c-69.333 64 -147.333 96 -234 96c-103.333 0 -182.333 -28.667 -237 -86s-84.334 -133.333 -89.001 -228h402
z" />
    <glyph glyph-name="afii10054" unicode="&#x405;" horiz-adv-x="616" 
d="M532 178c0 31.333 -8.66895 57.6689 -26.002 79.002s-40 37.333 -68 48s-58.833 19.667 -92.5 27s-67.334 15.166 -101.001 23.499s-64.5 18.5 -92.5 30.5s-50.667 30.167 -68 54.5s-26 54.166 -26 89.499c0 52.667 22.833 95.667 68.5 129s105.834 50 180.501 50
c102 0 179.667 -27.667 233 -83l-16 -19c-29.333 26 -60.5 45.333 -93.5 58s-74.167 19 -123.5 19c-34.667 0 -67.667 -4.33301 -99 -13s-59.666 -25 -84.999 -49s-38 -54.333 -38 -91c0 -32 8.66699 -58.833 26 -80.5s40 -37.834 68 -48.501s58.833 -19.667 92.5 -27
s67.334 -15 101.001 -23s64.5 -18 92.5 -30s50.667 -29.833 68 -53.5s26 -53.167 26 -88.5c0 -55.333 -23 -100.666 -69 -135.999s-104 -53 -174 -53c-58.667 0 -112.167 11.833 -160.5 35.5s-85.166 53.5 -110.499 89.5l20 17
c23.333 -32.667 56.666 -60.334 99.999 -83.001s95 -34 155 -34c54.667 0 103.667 14.833 147 44.5s65 68.834 65 117.501z" />
    <glyph glyph-name="afii10055" unicode="&#x406;" horiz-adv-x="217" 
d="M95 0v700h27v-700h-27z" />
    <glyph glyph-name="afii10056" unicode="&#x407;" horiz-adv-x="217" 
d="M22 801c0 6 2 11.167 6 15.5s8.66699 6.5 14 6.5s10 -2.16699 14 -6.5s6 -9.5 6 -15.5s-2 -11.167 -6 -15.5s-8.66699 -6.5 -14 -6.5s-10 2.16699 -14 6.5s-6 9.5 -6 15.5zM155 801c0 6 2 11.167 6 15.5s8.66699 6.5 14 6.5s10 -2.16699 14 -6.5s6 -9.5 6 -15.5
s-2 -11.167 -6 -15.5s-8.66699 -6.5 -14 -6.5s-10 2.16699 -14 6.5s-6 9.5 -6 15.5zM95 0v700h27v-700h-27z" />
    <glyph glyph-name="afii10057" unicode="&#x408;" horiz-adv-x="475" 
d="M400 700l-0.000976562 -470c0 -80.667 -17.833 -140.667 -53.5 -180s-85.167 -59 -148.5 -59c-89.333 0 -154 40 -194 120l21 16c36.667 -74 94.667 -111 174 -111c52.667 0 94.834 17.667 126.501 53s47.5 89 47.5 161v470h27z" />
    <glyph glyph-name="afii10058" unicode="&#x409;" horiz-adv-x="1010" 
d="M535 0l-0.000976562 675h-322l-10 -146c-12 -157.333 -27.333 -271.333 -46 -342c-34 -125.333 -82 -188 -144 -188c-2 0 -4.33301 0.166992 -7 0.5s-4.66699 0.5 -6 0.5v25c56.667 -2 100 54 130 168c21.333 82 37.333 206.333 48 373l9 134h375v-287h166
c80.667 0 142.334 -17.833 185.001 -53.5s64 -85.167 64 -148.5c0 -70 -22.833 -122.667 -68.5 -158s-110.167 -53 -193.5 -53h-180zM727.999 388h-166.001v-363h152c75.333 0 133.5 15.5 174.5 46.5s61.5 77.5 61.5 139.5c0 56 -19.167 99.5 -57.5 130.5
s-93.166 46.5 -164.499 46.5z" />
    <glyph glyph-name="afii10059" unicode="&#x40a;" horiz-adv-x="1046" 
d="M597 398l166 -0.000976562c82.667 0 145 -16.667 187 -50s63 -80.666 63 -141.999c0 -69.333 -22.833 -121 -68.5 -155s-110.167 -51 -193.5 -51h-181v373h-459v-373h-27v700h27v-302h459v302h27v-302zM761 372.999h-164.001v-348h152c158 0 237 60.333 237 181
c0 55.333 -19.167 97 -57.5 125s-94.166 42 -167.499 42z" />
    <glyph glyph-name="afii10060" unicode="&#x40b;" horiz-adv-x="725" 
d="M5 675l0.000976562 25h554v-25h-263v-349c48.667 58.667 112.334 88 191.001 88c58 0 105.167 -18.167 141.5 -54.5s54.5 -91.5 54.5 -165.5v-194h-27v185c0 68 -14 119 -42 153s-72.667 51 -134 51c-36.667 0 -71.334 -9.16699 -104.001 -27.5
s-59.334 -42.5 -80.001 -72.5v-289h-27v675h-264z" />
    <glyph glyph-name="afii10061" unicode="&#x40c;" horiz-adv-x="623" 
d="M84 0v700h27v-396l436 396h40l-358 -325l387 -375h-39l-368 356l-98 -89v-267h-27zM272 789l159 90l12 -22l-159 -90z" />
    <glyph glyph-name="afii10062" unicode="&#x40e;" horiz-adv-x="647" 
d="M205 6l11.001 23c8 -2.66699 14.333 -4 19 -4c20 0 38.667 11 56 33s37.666 57 60.999 105l-352 537h32l334 -508l252 508h29l-271 -545c-30.667 -62 -55.667 -103.333 -75 -124s-42 -31 -68 -31c-10 0 -19.333 2 -28 6zM174.001 838l22 8c24 -50 70 -75 138 -75
s114 24.667 138 74l22 -7c-24.667 -61.333 -78 -92 -160 -92c-82.667 0 -136 30.667 -160 92z" />
    <glyph glyph-name="afii10145" unicode="&#x40f;" horiz-adv-x="701" 
d="M84 0v700h27v-675h479v675h27v-700h-253v-162h-27v162h-253z" />
    <glyph glyph-name="afii10017" unicode="&#x410;" horiz-adv-x="656" 
d="M6 0l307 704h27l310 -704h-29l-100 228h-388l-99 -228h-28zM326 674l-181 -421h366z" />
    <glyph glyph-name="afii10018" unicode="&#x411;" horiz-adv-x="655" 
d="M556 700v-25h-445v-288h250c166.667 0 250 -61.667 250 -185c0 -68 -22.167 -118.667 -66.5 -152s-107.833 -50 -190.5 -50h-270v700h472zM367 362h-256v-337h250c148.667 0 223 58.667 223 176c0 107.333 -72.333 161 -217 161z" />
    <glyph glyph-name="afii10019" unicode="&#x412;" horiz-adv-x="658" 
d="M84 0v700.002h265c158.667 0 238 -56.333 238 -169c0 -42.667 -11.5 -78.834 -34.5 -108.501s-56.833 -49.834 -101.5 -60.501c48.667 -2.66699 88 -19.5 118 -50.5s45 -70.833 45 -119.5c0 -128 -87.333 -192 -262 -192h-268zM359 346.002h-248v-321h238
c158.667 0 238 56 238 168c0 102 -76 153 -228 153zM347 675.002l-235.999 0.000976562v-304h251c59.333 0 107.166 14 143.499 42s54.5 66.333 54.5 115c0 49.333 -16.5 86.166 -49.5 110.499s-87.5 36.5 -163.5 36.5z" />
    <glyph glyph-name="afii10020" unicode="&#x413;" horiz-adv-x="554" 
d="M84 0v700h470v-25h-443v-675h-27z" />
    <glyph glyph-name="afii10021" unicode="&#x414;" horiz-adv-x="728" 
d="M0 -138v162.999h72c22 32.667 40.5 69.834 55.5 111.501s26.667 88.5 35 140.5s14.333 95.667 18 131s7.16699 81.333 10.5 138l5 154h426v-675h96v-163h-27v138h-664v-138h-27zM222 674.999l-5.99902 -150.002c-4.66699 -69.333 -9.83398 -127.166 -15.501 -173.499
s-16.667 -100.666 -33 -162.999s-37.833 -116.833 -64.5 -163.5h492v650h-373z" />
    <glyph glyph-name="afii10022" unicode="&#x415;" horiz-adv-x="630" 
d="M84 0v700h480v-25h-453v-306h423v-25h-423v-319h463v-25h-490z" />
    <glyph glyph-name="afii10024" unicode="&#x416;" horiz-adv-x="890" 
d="M431 339v361h27v-361l376 361h36l-332 -319l346 -381h-34l-330 363l-62 -59v-304h-27v304l-62 59l-330 -363h-34l346 381l-332 319h36z" />
    <glyph glyph-name="afii10025" unicode="&#x417;" horiz-adv-x="636" 
d="M204 371l135.998 -0.000976562c46.667 0 89.667 13.333 129 40s59 63 59 109c0 51.333 -20.833 91.5 -62.5 120.5s-94.167 43.5 -157.5 43.5c-105.333 0 -189.666 -42.667 -252.999 -128l-19 17c65.333 90.667 156 136 272 136c72.667 0 132 -16.667 178 -50
s69 -79.666 69 -138.999c0 -38.667 -13 -72.167 -39 -100.5s-58.333 -47.833 -97 -58.5c47.333 -8.66699 86.166 -27 116.499 -55s45.5 -65.333 45.5 -112c0 -62.667 -25.5 -112.167 -76.5 -148.5s-114.5 -54.5 -190.5 -54.5c-123.333 0 -219.666 43.667 -288.999 131l18 18
c35.333 -42 73.333 -73.167 114 -93.5s93.334 -30.5 158.001 -30.5c68.667 0 125.667 15.833 171 47.5s68 75.167 68 130.5c0 34 -10.833 63 -32.5 87s-47.667 40.833 -78 50.5s-62.833 14.5 -97.5 14.5h-142v25z" />
    <glyph glyph-name="afii10026" unicode="&#x418;" horiz-adv-x="731" 
d="M111 0h-27v700h27v-659l509 659h27v-700h-27v659z" />
    <glyph glyph-name="afii10027" unicode="&#x419;" horiz-adv-x="731" 
d="M111 0h-27v700h27v-659l509 659h27v-700h-27v659zM205 838l22 8c24 -50 70 -75 138 -75s114 24.667 138 74l22 -7c-24.667 -61.333 -78 -92 -160 -92c-82.667 0 -136 30.667 -160 92z" />
    <glyph glyph-name="afii10028" unicode="&#x41a;" horiz-adv-x="623" 
d="M84 0v700h27v-396l436 396h40l-358 -325l387 -375h-39l-368 356l-98 -89v-267h-27z" />
    <glyph glyph-name="afii10029" unicode="&#x41b;" horiz-adv-x="692" 
d="M581 0l-0.000976562 674.999h-383l-5 -146c-0.666992 -23.333 -1.33398 -42.5 -2.00098 -57.5s-1.83398 -36.167 -3.50098 -63.5s-3.66699 -50.833 -6 -70.5s-5.16602 -43 -8.49902 -70s-7.33301 -50.167 -12 -69.5s-10.167 -40 -16.5 -62s-13.833 -40.667 -22.5 -56
s-18.167 -29.5 -28.5 -42.5s-22.333 -22.667 -36 -29s-28.167 -9.5 -43.5 -9.5c-1.33301 0 -6 0.333008 -14 1v24h6c18 0 34.333 5 49 15s27.334 25.333 38.001 46s20 41.5 28 62.5s14.667 48.167 20 81.5s9.5 61.833 12.5 85.5s5.66699 54.5 8 92.5
s3.83301 65.833 4.5 83.5s1.33398 42.834 2.00098 75.501l4 134h436v-700h-27z" />
    <glyph glyph-name="afii10030" unicode="&#x41c;" horiz-adv-x="824" 
d="M84 0v700h27l301 -437l301 437h27v-700h-27v653l-301 -433l-301 433v-653h-27z" />
    <glyph glyph-name="afii10031" unicode="&#x41d;" horiz-adv-x="744" 
d="M633 0v346h-522v-346h-27v700h27v-329h522v329h27v-700h-27z" />
    <glyph glyph-name="afii10032" unicode="&#x41e;" horiz-adv-x="785" 
d="M42 350c0 101.333 33.667 186.5 101 255.5s150.333 103.5 249 103.5s181.667 -34 249 -102s101 -153.667 101 -257c0 -102 -33.833 -187.333 -101.5 -256s-150.5 -103 -248.5 -103c-98.667 0 -181.667 34 -249 102s-101 153.667 -101 257zM69 350
c0 -93.333 31.5 -172.333 94.5 -237s139.167 -97 228.5 -97c92 0 168.833 32.167 230.5 96.5s92.5 143.5 92.5 237.5s-31.333 173.167 -94 237.5s-139 96.5 -229 96.5s-166.333 -32.167 -229 -96.5s-94 -143.5 -94 -237.5z" />
    <glyph glyph-name="afii10033" unicode="&#x41f;" horiz-adv-x="736" 
d="M625 0v675h-514v-675h-27v700h568v-700h-27z" />
    <glyph glyph-name="afii10034" unicode="&#x420;" horiz-adv-x="666" 
d="M111 0h-27v700h262c55.333 0 102 -5.5 140 -16.5s66.5 -26.5 85.5 -46.5s32.333 -41 40 -63s11.5 -46.667 11.5 -74c0 -59.333 -22.167 -108.333 -66.5 -147s-114.833 -58 -211.5 -58h-234v-295zM351 675h-240v-355h232c85.333 0 148.833 16.333 190.5 49
s62.5 76.667 62.5 132c0 116 -81.667 174 -245 174z" />
    <glyph glyph-name="afii10035" unicode="&#x421;" horiz-adv-x="681" 
d="M637 112l14.998 -15.999c-23.333 -30.667 -56.166 -55.834 -98.499 -75.501s-91.833 -29.5 -148.5 -29.5c-111.333 0 -199.666 32.5 -264.999 97.5s-98 152.167 -98 261.5c0 103.333 31.167 189 93.5 257s146.5 102 252.5 102c58 0 108.833 -10 152.5 -30
s78.167 -44.667 103.5 -74l-14 -17c-36 32 -71.833 56 -107.5 72s-81.5 24 -137.5 24c-98.667 0 -176 -31.167 -232 -93.5s-84 -142.5 -84 -240.5c0 -101.333 29.833 -182.333 89.5 -243s141.834 -91 246.501 -91c95.333 0 172.666 32 231.999 96z" />
    <glyph glyph-name="afii10036" unicode="&#x422;" horiz-adv-x="563" 
d="M5 675v25h553v-25h-263v-675h-27v675h-263z" />
    <glyph glyph-name="afii10037" unicode="&#x423;" horiz-adv-x="647" 
d="M205 6l11.001 23c8 -2.66699 14.333 -4 19 -4c20 0 38.667 11 56 33s37.666 57 60.999 105l-352 537h32l334 -508l252 508h29l-271 -545c-30.667 -62 -55.667 -103.333 -75 -124s-42 -31 -68 -31c-10 0 -19.333 2 -28 6z" />
    <glyph glyph-name="afii10038" unicode="&#x424;" horiz-adv-x="871" 
d="M422 -15v90.002c-118 0 -211 24.667 -279 74s-102 119.666 -102 210.999c0 64 17.667 118 53 162s81 75.667 137 95s119.667 28.666 191 27.999v70h27v-70c51.333 0 99 -5.33301 143 -16s84.167 -26.834 120.5 -48.501s65 -51.167 86 -88.5s31.5 -80.666 31.5 -129.999
c0 -91.333 -34 -162 -102 -212s-161 -75 -279 -75v-90h-27zM449 620.002v-519.999c110 0 196.5 22.333 259.5 67s94.5 109.667 94.5 195c0 83.333 -31.5 147.166 -94.5 191.499s-149.5 66.5 -259.5 66.5zM422 620.003c-49.333 0 -94.667 -4.66699 -136 -14
s-78.666 -23.833 -111.999 -43.5s-59.333 -46.667 -78 -81s-28 -74.833 -28 -121.5c0 -86 31.667 -150.833 95 -194.5s149.666 -65.5 258.999 -65.5v520z" />
    <glyph glyph-name="afii10039" unicode="&#x425;" horiz-adv-x="613" 
d="M547 700h31l-256 -343l266 -357h-31l-250 336l-251 -336h-31l266 357l-255 343h31l240 -322z" />
    <glyph glyph-name="afii10040" unicode="&#x426;" horiz-adv-x="740" 
d="M84 0v700h27v-675h496v675h27v-675h96v-163h-27v138h-619z" />
    <glyph glyph-name="afii10041" unicode="&#x427;" horiz-adv-x="662" 
d="M578 700v-700h-27v332c-28.667 -17.333 -65.167 -31.833 -109.5 -43.5s-87.833 -17.5 -130.5 -17.5c-172.667 0 -259 71 -259 213v216h27v-217c0 -124.667 77.333 -187 232 -187c40 0 82 5.66699 126 17s82 27 114 47v340h27z" />
    <glyph glyph-name="afii10042" unicode="&#x428;" horiz-adv-x="913" 
d="M84 0v700h27v-675h332v675h27v-675h332v675h27v-700h-745z" />
    <glyph glyph-name="afii10043" unicode="&#x429;" horiz-adv-x="935" 
d="M84 0v700h27v-675h332v675h27v-675h332v675h27v-675h96v-163h-27v138h-814z" />
    <glyph glyph-name="afii10044" unicode="&#x42a;" horiz-adv-x="744" 
d="M0 675v25.001h209v-287h234c88.667 0 155.5 -17.333 200.5 -52s67.5 -83.334 67.5 -146.001c0 -143.333 -91 -215 -273 -215h-256v675h-182zM443 388.001h-234v-363h234c160.667 0 241 63.333 241 190c0 55.333 -20.667 98 -62 128s-101 45 -179 45z" />
    <glyph glyph-name="afii10045" unicode="&#x42b;" horiz-adv-x="825" 
d="M714 0v700h27v-700h-27zM316 388h-205v-363h205c160.667 0 241 63.667 241 191c0 55.333 -20.667 97.833 -62 127.5s-101 44.5 -179 44.5zM111 700v-287h205c88.667 0 155.5 -17.167 200.5 -51.5s67.5 -82.833 67.5 -145.5c0 -144 -91 -216 -273 -216h-227v700h27z" />
    <glyph glyph-name="afii10046" unicode="&#x42c;" horiz-adv-x="646" 
d="M345 388h-234v-363h234c160.667 0 241 63.333 241 190c0 55.333 -20.667 98 -62 128s-101 45 -179 45zM111 700v-286.999h234c88.667 0 155.5 -17.333 200.5 -52s67.5 -83.334 67.5 -146.001c0 -143.333 -91 -215 -273 -215h-256v700h27z" />
    <glyph glyph-name="afii10047" unicode="&#x42d;" horiz-adv-x="684" 
d="M194 345l-0.000976562 24.999h421c-5.33301 97.333 -34.666 174 -87.999 230s-127.333 84 -222 84c-53.333 0 -103.333 -11.667 -150 -35s-84 -53.333 -112 -90l-20 16c33.333 43.333 75.833 76.5 127.5 99.5s103.167 34.5 154.5 34.5c104.667 0 187 -32 247 -96
s90 -150.667 90 -260c0 -107.333 -30.333 -194.5 -91 -261.5s-145.667 -100.5 -255 -100.5c-52 0 -102.167 9.83301 -150.5 29.5s-87.833 48.834 -118.5 87.501l18 18c62.667 -73.333 146.667 -110 252 -110c95.333 0 170.833 28.167 226.5 84.5s86.167 137.833 91.5 244.5
h-421z" />
    <glyph glyph-name="afii10048" unicode="&#x42e;" horiz-adv-x="979" 
d="M84 0l0.00195312 700.002h27v-330h166c5.33301 95.333 38.666 175.666 99.999 240.999s137.666 98 228.999 98c94.667 0 173.334 -33.833 236.001 -101.5s94 -153.5 94 -257.5c0 -103.333 -31.167 -189 -93.5 -257s-141.833 -102 -238.5 -102
c-96 0 -173.833 33.167 -233.5 99.5s-90.834 151.166 -93.501 254.499h-166v-345h-27zM304.002 352.002c0 -99.333 27.834 -180.167 83.501 -242.5s128.167 -93.5 217.5 -93.5c90 0 163.167 31.833 219.5 95.5s84.5 143.167 84.5 238.5s-28.5 174.833 -85.5 238.5
s-129.167 95.5 -216.5 95.5c-86.667 0 -158.834 -31.667 -216.501 -95s-86.5 -142.333 -86.5 -237z" />
    <glyph glyph-name="afii10049" unicode="&#x42f;" horiz-adv-x="674" 
d="M563 0v286.001h-261l-247 -286h-33l249 289c-58.667 7.33301 -107.5 28.666 -146.5 63.999s-58.5 81.333 -58.5 138c0 60 21.833 109.833 65.5 149.5s108.167 59.5 193.5 59.5h265v-700h-27zM563 675.001h-247c-74 0 -129.667 -17.667 -167 -53s-56 -79 -56 -131
c0 -48.667 17 -89 51 -121s82.333 -51.667 145 -59h274v364z" />
    <glyph glyph-name="afii10065" unicode="&#x430;" horiz-adv-x="528" 
d="M82 442l-15 17.999c22.667 22.667 51.167 40.5 85.5 53.5s66.833 19.5 97.5 19.5c143.333 0 215 -68.667 215 -206v-327h-25v116c-46 -82 -117 -123 -213 -123c-60 0 -107.833 13.333 -143.5 40s-53.5 62.334 -53.5 107.001c0 53.333 18.667 92.333 56 117s96 37 176 37
c68.667 0 128 -6.66699 178 -20v50c0 60 -15.167 105.667 -45.5 137s-79.5 47 -147.5 47c-60 0 -115 -22 -165 -66zM227 17.999c54.667 0 100.333 15.668 137 47.001s62 64.333 76 99v82c-50 15.333 -109.667 23 -179 23c-70 0 -121.833 -10.333 -155.5 -31
s-50.5 -53 -50.5 -97c0 -38.667 16 -68.834 48 -90.501s73.333 -32.5 124 -32.5z" />
    <glyph glyph-name="afii10066" unicode="&#x431;" horiz-adv-x="605" 
d="M500 743l2.99902 -23.999c-24.667 -8 -60.167 -14.5 -106.5 -19.5s-88.666 -11.5 -126.999 -19.5s-68.166 -20.333 -89.499 -37c-70 -55.333 -109.333 -146.333 -118 -273h4c24.667 47.333 59 83.333 103 108s91 37 141 37c80.667 0 143.667 -23.333 189 -70
s68 -110 68 -190c0 -72.667 -25 -135 -75 -187s-111.333 -78 -184 -78c-82 0 -147.667 27.167 -197 81.5s-74 131.166 -74 230.499c0 85.333 9.66699 156.666 29 213.999s51.666 104.333 96.999 141c26 20.667 59 35.334 99 44.001s83.167 15.5 129.5 20.5
s82.5 12.167 108.5 21.5zM61.999 295.001c0.666992 -90.667 24 -160 70 -208s104.333 -72 175 -72c66 0 121.667 23.5 167 70.5s68 103.5 68 169.5c0 72.667 -20.5 130 -61.5 172s-97.833 63 -170.5 63c-68 0 -123.667 -20 -167 -60s-70.333 -85 -81 -135z" />
    <glyph glyph-name="afii10067" unicode="&#x432;" horiz-adv-x="548" 
d="M76 0l-0.000976562 520h209c131.333 0 197 -44.333 197 -133c0 -30 -8.66699 -55.333 -26 -76s-41.666 -34.667 -72.999 -42c80 -16 120 -57.667 120 -125c0 -96 -71.667 -144 -215 -144h-212zM310.999 254h-209.999v-229h188c65.333 0 113.166 9.66699 143.499 29
s45.5 49.333 45.5 90c0 73.333 -55.667 110 -167 110zM286 495l-185.002 0.000976562v-216h209c46.667 0 82.834 9 108.501 27s38.5 45 38.5 81c0 39.333 -14.667 67.166 -44 83.499s-71.666 24.5 -126.999 24.5z" />
    <glyph glyph-name="afii10068" unicode="&#x433;" horiz-adv-x="428" 
d="M76 0v520h354v-25h-329v-495h-25z" />
    <glyph glyph-name="afii10069" unicode="&#x434;" horiz-adv-x="596" 
d="M4 -140v165h55c37.333 57.333 62.5 120.5 75.5 189.5s19.5 152.5 19.5 250.5v55h351v-495h80v-165h-25v140h-531v-140h-25zM179 495l0.000976562 -35.001c0 -101.333 -6.33301 -184.166 -19 -248.499s-36.334 -126.5 -71.001 -186.5h391v470h-301z" />
    <glyph glyph-name="afii10070" unicode="&#x435;" horiz-adv-x="570" 
d="M496 115l19.001 -13.999c-20 -36 -48.833 -63.667 -86.5 -83s-77.834 -29 -120.501 -29c-81.333 0 -146.5 24.5 -195.5 73.5s-73.5 114.167 -73.5 195.5c0 80 22.833 145.833 68.5 197.5s109.5 77.5 191.5 77.5c67.333 0 123 -21.333 167 -64s66 -99.334 66 -170.001
c0 -16 -0.666992 -29.333 -2 -40h-466c-2 -74.667 20 -134.167 66 -178.5s106.333 -66.5 181 -66.5c38.667 0 74.167 8.66699 106.5 26s58.5 42.333 78.5 75zM292.001 508.001c-66.667 0 -120.166 -21.167 -160.499 -63.5s-62.5 -95.833 -66.5 -160.5h442
c1.33301 68 -17.334 122.333 -56.001 163s-91.667 61 -159 61z" />
    <glyph glyph-name="afii10072" unicode="&#x436;" horiz-adv-x="745" 
d="M357 244v276h25v-276l300 276h37l-266 -245l283 -275h-36l-268 260l-50 -46v-214h-25v214l-51 47l-267 -261h-36l283 275l-266 245h37z" />
    <glyph glyph-name="afii10073" unicode="&#x437;" horiz-adv-x="522" 
d="M257 -11c-52.667 0 -98.501 9.99902 -137.501 29.999s-69.167 46 -90.5 78l20 15c45.333 -65.333 114.333 -98 207 -98c56.667 0 103.5 12.833 140.5 38.5s55.5 58.167 55.5 97.5c0 33.333 -13.333 58.833 -40 76.5s-64 26.5 -112 26.5h-129v25h123
c39.333 0 71.5 10.5 96.5 31.5s37.5 49.5 37.5 85.5s-14.167 63.833 -42.5 83.5s-69.166 29.5 -122.499 29.5c-84 0 -148 -28.333 -192 -85l-20 15c50 63.333 120.667 95 212 95c60 0 107.333 -12.667 142 -38s52 -58.666 52 -99.999c0 -29.333 -8.5 -55.5 -25.5 -78.5
s-40.5 -38.833 -70.5 -47.5c39.333 -6 68.5 -19.833 87.5 -41.5s28.5 -47.5 28.5 -77.5c0 -50.667 -22.167 -90.167 -66.5 -118.5s-95.5 -42.5 -153.5 -42.5z" />
    <glyph glyph-name="afii10074" unicode="&#x438;" horiz-adv-x="608" 
d="M101 0h-25v520h25v-483l406 483h25v-520h-25v482z" />
    <glyph glyph-name="afii10075" unicode="&#x439;" horiz-adv-x="608" 
d="M101 0h-25v520h25v-483l406 483h25v-520h-25v482zM154 708h25c0.666992 -32.667 12.5 -59.5 35.5 -80.5s52.833 -31.5 89.5 -31.5s66.5 10.5 89.5 31.5s34.833 47.833 35.5 80.5h25c-0.666992 -38.667 -14.667 -71.167 -42 -97.5s-63.333 -39.5 -108 -39.5
s-80.667 13.167 -108 39.5s-41.333 58.833 -42 97.5z" />
    <glyph glyph-name="afii10076" unicode="&#x43a;" horiz-adv-x="510" 
d="M76 0v520h25v-280l341 280h39l-300 -246l321 -274h-38l-306 258l-57 -46v-212h-25z" />
    <glyph glyph-name="afii10077" unicode="&#x43b;" horiz-adv-x="584" 
d="M483 0v494.997h-313v-24c0 -56 -0.833008 -104.167 -2.5 -144.5s-4.66699 -79.666 -9 -117.999s-10.333 -69.833 -18 -94.5s-17.667 -46.5 -30 -65.5s-27.333 -32.5 -45 -40.5s-38.5 -11.667 -62.5 -11l-1 25c24.667 -2 45.5 3 62.5 15s30.833 29.333 41.5 52
s19 53.834 25 93.501s10 81.834 12 126.501s3 99.667 3 165v46h362v-520h-25z" />
    <glyph glyph-name="afii10078" unicode="&#x43c;" horiz-adv-x="677" 
d="M76 0v520h25l237 -317l237 317h25v-520h-25v478l-237 -317l-237 317v-478h-25z" />
    <glyph glyph-name="afii10079" unicode="&#x43d;" horiz-adv-x="600" 
d="M499 0v254h-398v-254h-25v520h25v-241h398v241h25v-520h-25z" />
    <glyph glyph-name="afii10080" unicode="&#x43e;" horiz-adv-x="618" 
d="M39 261c0 79.333 24.833 144.5 74.5 195.5s114.5 76.5 194.5 76.5s145.167 -25.5 195.5 -76.5s75.5 -116.167 75.5 -195.5s-25.167 -144.5 -75.5 -195.5s-115.5 -76.5 -195.5 -76.5s-144.833 25.5 -194.5 76.5s-74.5 116.167 -74.5 195.5zM64 261
c0 -72 23.002 -131.167 69.002 -177.5s104.333 -69.5 175 -69.5c71.333 0 130.166 23.167 176.499 69.5s69.5 105.5 69.5 177.5c0 71.333 -23.333 130.333 -70 177s-105.334 70 -176.001 70s-129 -23.167 -175 -69.5s-69 -105.5 -69 -177.5z" />
    <glyph glyph-name="afii10081" unicode="&#x43f;" horiz-adv-x="594" 
d="M493 0v495h-392v-495h-25v520h442v-520h-25z" />
    <glyph glyph-name="afii10082" unicode="&#x440;" horiz-adv-x="602" 
d="M76 -200l0.00195312 720h25v-112c23.333 40 53.666 70.833 90.999 92.5s77.333 32.5 120 32.5c71.333 0 131.166 -25 179.499 -75s72.5 -113 72.5 -189c0 -80 -24.5 -146.667 -73.5 -200s-110.833 -80 -185.5 -80c-83.333 0 -151.333 30 -204 90v-279h-25zM311.002 508
c-88 0 -157.998 -47.334 -209.998 -142.001v-240c42 -74.667 112 -112 210 -112c63.333 0 117.166 24.333 161.499 73s66.5 109.334 66.5 182.001c0 68.667 -22.333 125.667 -67 171s-98.334 68 -161.001 68z" />
    <glyph glyph-name="afii10083" unicode="&#x441;" horiz-adv-x="530" 
d="M489 96l16.999 -13.999c-16 -28.667 -43 -51.334 -81 -68.001s-75.333 -25 -112 -25c-82 0 -148.167 24.833 -198.5 74.5s-75.5 115.5 -75.5 197.5c0 78.667 23.5 143.667 70.5 195s110.833 77 191.5 77c41.333 0 79.333 -7.16699 114 -21.5s61 -34.5 79 -60.5l-20 -15
c-36 48 -95.333 72 -178 72c-68 0 -123.667 -22.5 -167 -67.5s-65 -104.833 -65 -179.5c0 -76 23 -136.167 69 -180.5s106 -66.5 180 -66.5c72.667 0 131.334 27.333 176.001 82z" />
    <glyph glyph-name="afii10084" unicode="&#x442;" horiz-adv-x="454" 
d="M-6 495v25h466v-25h-222v-495h-25v495h-219z" />
    <glyph glyph-name="afii10085" unicode="&#x443;" horiz-adv-x="524" 
d="M89 -202l6.99707 24.998c12 -4.66699 22.667 -7 32 -7c28 0 52.833 11.667 74.5 35s45.834 68.666 72.501 135.999l6 15l-274 518h29l259 -490l199 490h27l-215 -529c-18 -43.333 -34.5 -78.666 -49.5 -105.999s-29.667 -47.666 -44 -60.999
s-27.666 -22.166 -39.999 -26.499s-27.166 -6.5 -44.499 -6.5c-14.667 0 -27.667 2.33301 -39 7z" />
    <glyph glyph-name="afii10086" unicode="&#x444;" horiz-adv-x="691" 
d="M333 -200v189.999c-92 0 -164.167 25 -216.5 75s-78.5 114.667 -78.5 194c0 76 25.667 140 77 192s124 78 218 78v201h25v-201c92 0 164.167 -25.167 216.5 -75.5s78.5 -115.166 78.5 -194.499s-26.5 -144 -79.5 -194s-124.833 -75 -215.5 -75v-190h-25zM63 258.999
c0 -72.667 23.332 -131.5 69.999 -176.5s113.334 -67.5 200.001 -67.5v489c-84 0 -150 -23.167 -198 -69.5s-72 -104.833 -72 -175.5zM357.999 503.999l0.00195312 -489c85.333 0 151.666 22.667 198.999 68s71 104 71 176c0 68 -23.333 125.833 -70 173.5
s-113.334 71.5 -200.001 71.5z" />
    <glyph glyph-name="afii10087" unicode="&#x445;" horiz-adv-x="493" 
d="M434 520h33l-204 -253l215 -267h-32l-200 246l-199 -246h-32l215 267l-204 253h33l187 -233z" />
    <glyph glyph-name="afii10088" unicode="&#x446;" horiz-adv-x="607" 
d="M76 0v520h25v-495h389v495h25v-495h81v-165h-25v140h-495z" />
    <glyph glyph-name="afii10089" unicode="&#x447;" horiz-adv-x="536" 
d="M460 520l0.00195312 -520h-25v226c-60.667 -28 -122.334 -42 -185.001 -42c-69.333 0 -121 15.167 -155 45.5s-51 78.5 -51 144.5v146h25v-147c0 -60 15 -102.333 45 -127s74.667 -37 134 -37c67.333 0 129.666 14.667 186.999 44v267h25z" />
    <glyph glyph-name="afii10090" unicode="&#x448;" horiz-adv-x="747" 
d="M76 0v520h25v-495h260v495h25v-495h260v495h25v-520h-595z" />
    <glyph glyph-name="afii10091" unicode="&#x449;" horiz-adv-x="764" 
d="M77 0v520h25v-495h260v495h25v-495h260v495h25v-495h81v-165h-25v140h-651z" />
    <glyph glyph-name="afii10092" unicode="&#x44a;" horiz-adv-x="589" 
d="M150 0l0.000976562 494.999h-151v25h176v-186h174c72 0 124.5 -15.167 157.5 -45.5s49.5 -70.166 49.5 -119.499s-16.333 -89.833 -49 -121.5s-85.334 -47.5 -158.001 -47.5h-199zM345.001 308.999h-170v-284h173c122 0 183 48 183 144c0 93.333 -62 140 -186 140z" />
    <glyph glyph-name="afii10093" unicode="&#x44b;" horiz-adv-x="678" 
d="M577 0v520h25v-520h-25zM76 0l0.000976562 519.999h25v-186h150c72 0 124.5 -15.167 157.5 -45.5s49.5 -70.166 49.5 -119.499s-16.333 -89.833 -49 -121.5s-85.334 -47.5 -158.001 -47.5h-175zM247.001 308.999h-146v-284h149c122 0 183 48 183 144
c0 93.333 -62 140 -186 140z" />
    <glyph glyph-name="afii10094" unicode="&#x44c;" horiz-adv-x="515" 
d="M76 0l0.000976562 519.999h25v-186h174c72 0 124.5 -15.167 157.5 -45.5s49.5 -70.166 49.5 -119.499s-16.333 -89.833 -49 -121.5s-85.334 -47.5 -158.001 -47.5h-199zM271.001 308.999h-170v-284h173c122 0 183 48 183 144c0 93.333 -62 140 -186 140z" />
    <glyph glyph-name="afii10095" unicode="&#x44d;" horiz-adv-x="534" 
d="M155 254l-0.000976562 25.001h316c-1.33301 68 -24.166 123.167 -68.499 165.5s-99.833 63.5 -166.5 63.5c-86 0 -153.667 -33.333 -203 -100l-19 17c54.667 72 128.667 108 222 108c76 0 138.333 -24.5 187 -73.5s73 -114.5 73 -196.5
c0 -79.333 -23.333 -144.833 -70 -196.5s-109.667 -77.5 -189 -77.5c-94 0 -167.333 31.667 -220 95l18 18c45.333 -58.667 113 -88 203 -88c68 0 123.833 23.167 167.5 69.5s65.5 103.166 65.5 170.499h-316z" />
    <glyph glyph-name="afii10096" unicode="&#x44e;" horiz-adv-x="803" 
d="M76 0l-0.000976562 519.999h25v-240h132c5.33301 72.667 33.5 133 84.5 181s112.5 72 184.5 72c77.333 0 140.333 -25.167 189 -75.5s73 -115.166 73 -194.499c0 -78.667 -25.167 -144 -75.5 -196s-113.166 -78 -188.499 -78s-138 25.167 -188 75.5
s-76.333 113.833 -79 190.5h-132v-255h-25zM257.999 260.999c0 -70.667 23.668 -129.499 71.001 -176.499s104.666 -70.5 171.999 -70.5c66.667 0 123 23.667 169 71s69 106.666 69 177.999c0 70.667 -22.333 129.167 -67 175.5s-101 69.5 -169 69.5
s-125.833 -23.667 -173.5 -71s-71.5 -106 -71.5 -176z" />
    <glyph glyph-name="afii10097" unicode="&#x44f;" horiz-adv-x="535" 
d="M249 520l209.001 -0.00195312v-520h-25v211h-184l-201 -211h-34l203 213c-48 2.66699 -88.167 16.834 -120.5 42.501s-48.5 61.834 -48.5 108.501c0 46 16.167 83.5 48.5 112.5s83.166 43.5 152.499 43.5zM73.001 363.998c0 -42.667 15.833 -74.667 47.5 -96
s74.5 -32 128.5 -32h184v259h-184c-60 0 -104.333 -11.667 -133 -35s-43 -55.333 -43 -96z" />
    <glyph glyph-name="afii10071" unicode="&#x451;" horiz-adv-x="570" 
d="M496 115l19.001 -13.999c-20 -36 -48.833 -63.667 -86.5 -83s-77.834 -29 -120.501 -29c-81.333 0 -146.5 24.5 -195.5 73.5s-73.5 114.167 -73.5 195.5c0 80 22.833 145.833 68.5 197.5s109.5 77.5 191.5 77.5c67.333 0 123 -21.333 167 -64s66 -99.334 66 -170.001
c0 -16 -0.666992 -29.333 -2 -40h-466c-2 -74.667 20 -134.167 66 -178.5s106.333 -66.5 181 -66.5c38.667 0 74.167 8.66699 106.5 26s58.5 42.333 78.5 75zM292.001 508.001c-66.667 0 -120.166 -21.167 -160.499 -63.5s-62.5 -95.833 -66.5 -160.5h442
c1.33301 68 -17.334 122.333 -56.001 163s-91.667 61 -159 61zM142.002 703.001c0 7.33301 2.16699 13.5 6.5 18.5s9.83301 7.5 16.5 7.5s12.334 -2.5 17.001 -7.5s7 -11.167 7 -18.5s-2.33301 -13.5 -7 -18.5s-10.334 -7.5 -17.001 -7.5s-12.167 2.5 -16.5 7.5
s-6.5 11.167 -6.5 18.5zM397.002 703.001c0 7.33301 2.16699 13.5 6.5 18.5s9.83301 7.5 16.5 7.5s12.334 -2.5 17.001 -7.5s7 -11.167 7 -18.5s-2.33301 -13.5 -7 -18.5s-10.334 -7.5 -17.001 -7.5s-12.167 2.5 -16.5 7.5s-6.5 11.167 -6.5 18.5z" />
    <glyph glyph-name="afii10099" unicode="&#x452;" horiz-adv-x="649" 
d="M0 521v25h152v184h25v-184h246v-25h-246v-249c22 37.333 51.5 67.5 88.5 90.5s75.5 34.5 115.5 34.5c69.333 0 124.5 -19.5 165.5 -58.5s61.5 -97.167 61.5 -174.5c0 -86 -18.5 -158.667 -55.5 -218s-94.167 -108 -171.5 -146l-10 25c65.333 26.667 117 68.5 155 125.5
s57 123.167 57 198.5c0 148.667 -67.333 223 -202 223c-42.667 0 -82.167 -14 -118.5 -42s-64.833 -61.333 -85.5 -100v-230h-25v521h-152z" />
    <glyph glyph-name="afii10100" unicode="&#x453;" horiz-adv-x="428" 
d="M76 0v520h354v-25h-329v-495h-25zM369 767l-109 -141l-20 15l109 141z" />
    <glyph glyph-name="afii10101" unicode="&#x454;" horiz-adv-x="542" 
d="M365 279l-0.00195312 -24.999h-301c2.66699 -76.667 27.334 -135.834 74.001 -177.501s105.667 -62.5 177 -62.5c72.667 0 130.667 28 174 84l16 -16c-44 -62 -110.667 -93 -200 -93c-78 0 -141.833 25.333 -191.5 76s-74.5 116 -74.5 196
c0 80.667 25.333 146.167 76 196.5s116.667 75.5 198 75.5s142.333 -28.333 183 -85l-16 -18c-36 52 -92.333 78 -169 78c-69.333 0 -126.666 -20.333 -171.999 -61s-70.333 -96.667 -75 -168h301z" />
    <glyph glyph-name="afii10102" unicode="&#x455;" horiz-adv-x="497" 
d="M431 135c0 28.667 -13.002 51.8301 -39.002 69.4971s-57.5 30.834 -94.5 39.501s-74 17.667 -111 27s-68.5 24.333 -94.5 45s-39 47.334 -39 80.001c0 40.667 18.833 73.667 56.5 99s83.5 38 137.5 38c38 0 73.833 -7.5 107.5 -22.5s59.5 -35.5 77.5 -61.5l-18 -17
c-15.333 23.333 -38.666 41.833 -69.999 55.5s-63.666 20.5 -96.999 20.5c-46 0 -85.667 -9.66699 -119 -29s-50 -47 -50 -83c0 -27.333 13 -49.666 39 -66.999s57.5 -30.333 94.5 -39s74 -18 111 -28s68.5 -25.333 94.5 -46s39 -47.667 39 -81
c0 -44.667 -19.833 -80.167 -59.5 -106.5s-86.5 -39.5 -140.5 -39.5c-46 0 -89.5 10.5 -130.5 31.5s-70.5 50.5 -88.5 88.5l19 17c16 -34.667 42.833 -62 80.5 -82s77.5 -30 119.5 -30s81.667 10.167 119 30.5s56 50.5 56 90.5z" />
    <glyph glyph-name="afii10103" unicode="&#x456;" horiz-adv-x="207" 
d="M91 0v520h25v-520h-25zM78 698c0 7.33301 2.5 13.833 7.5 19.5s10.833 8.5 17.5 8.5s12.667 -2.83301 18 -8.5s8 -12.167 8 -19.5s-2.66699 -13.833 -8 -19.5s-11.333 -8.5 -18 -8.5s-12.5 2.83301 -17.5 8.5s-7.5 12.167 -7.5 19.5z" />
    <glyph glyph-name="afii10104" unicode="&#x457;" horiz-adv-x="225" 
d="M100 0v520h25v-520h-25zM21 703c0 7.33301 2 13.5 6 18.5s9 7.5 15 7.5c6.66699 0 12 -2.5 16 -7.5s6 -11.167 6 -18.5s-2 -13.5 -6 -18.5s-9.33301 -7.5 -16 -7.5c-6 0 -11 2.5 -15 7.5s-6 11.167 -6 18.5zM161 703c0 7.33301 2 13.5 6 18.5s9 7.5 15 7.5
c6.66699 0 12 -2.5 16 -7.5s6 -11.167 6 -18.5s-2 -13.5 -6 -18.5s-9.33301 -7.5 -16 -7.5c-6 0 -11 2.5 -15 7.5s-6 11.167 -6 18.5z" />
    <glyph glyph-name="afii10105" unicode="&#x458;" horiz-adv-x="204" 
d="M116 520l-0.00292969 -529c0 -133.333 -46.667 -200 -140 -200c-45.333 0 -81.333 15 -108 45l15 21l6.5 -6.5c3.66699 -3.66699 6.83398 -6.5 9.50098 -8.5s6.83398 -5 12.501 -9s11.334 -7 17.001 -9s12.834 -3.83301 21.501 -5.5s17.667 -2.5 27 -2.5
c37.333 0 65.666 15.167 84.999 45.5s29 73.5 29 129.5v529h25zM78.9971 700c0 7.33301 2.66699 13.5 8 18.5s11 7.5 17 7.5s11.5 -2.5 16.5 -7.5s7.5 -11.167 7.5 -18.5c0 -8.66699 -2.5 -15.834 -7.5 -21.501s-10.5 -8.5 -16.5 -8.5c-6.66699 0 -12.5 2.83301 -17.5 8.5
s-7.5 12.834 -7.5 21.501z" />
    <glyph glyph-name="afii10106" unicode="&#x459;" horiz-adv-x="843" 
d="M483 0l0.000976562 495h-303l-7 -139c-4 -95.333 -13.667 -165 -29 -209c-10.667 -31.333 -25.167 -58.666 -43.5 -81.999s-34.333 -39.333 -48 -48s-26.834 -15.334 -39.501 -20.001l-11 25c56 18.667 96 64.667 120 138c11.333 34.667 20 103 26 205l8 155h352v-186
h106c130.667 0 196 -54.667 196 -164c0 -50 -16 -90.833 -48 -122.5s-84.333 -47.5 -157 -47.5h-122zM614.001 309h-105.999v-284h96c120.667 0 181 48.333 181 145c0 45.333 -12.833 79.833 -38.5 103.5s-69.834 35.5 -132.501 35.5z" />
    <glyph glyph-name="afii10107" unicode="&#x45a;" horiz-adv-x="860" 
d="M76 0v520h25v-225h398v225h25v-225h104c73.333 0 124.833 -12.5 154.5 -37.5s44.5 -61.5 44.5 -109.5c0 -98.667 -69.333 -148 -208 -148h-120v270h-398v-270h-25zM626 270l-102 -0.000976562v-245h93c66 0 113.333 10.333 142 31s43 51.334 43 92.001
c0 43.333 -13.167 74.5 -39.5 93.5s-71.833 28.5 -136.5 28.5z" />
    <glyph glyph-name="afii10108" unicode="&#x45b;" horiz-adv-x="650" 
d="M0 521v25h152v184h25v-184h246v-25h-246v-249c23.333 40.667 53.833 71.667 91.5 93s76.167 32 115.5 32c66.667 0 120.667 -19.5 162 -58.5s62 -97.5 62 -175.5v-163h-25v154c0 72 -17.667 126.333 -53 163s-84 55 -146 55c-42 0 -81 -12.667 -117 -38s-66 -60 -90 -104
v-230h-25v521h-152z" />
    <glyph glyph-name="afii10109" unicode="&#x45c;" horiz-adv-x="510" 
d="M76 0v520h25v-280l341 280h39l-300 -246l321 -274h-38l-306 258l-57 -46v-212h-25zM387 767l-109 -141l-20 15l109 141z" />
    <glyph glyph-name="afii10110" unicode="&#x45e;" horiz-adv-x="524" 
d="M89 -202l6.99707 24.998c12 -4.66699 22.667 -7 32 -7c28 0 52.833 11.667 74.5 35s45.834 68.666 72.501 135.999l6 15l-274 518h29l259 -490l199 490h27l-215 -529c-18 -43.333 -34.5 -78.666 -49.5 -105.999s-29.667 -47.666 -44 -60.999
s-27.666 -22.166 -39.999 -26.499s-27.166 -6.5 -44.499 -6.5c-14.667 0 -27.667 2.33301 -39 7zM115.997 707.998h25c0.666992 -32.667 12.5 -59.5 35.5 -80.5s52.833 -31.5 89.5 -31.5s66.5 10.5 89.5 31.5s34.833 47.833 35.5 80.5h25
c-0.666992 -38.667 -14.667 -71.167 -42 -97.5s-63.333 -39.5 -108 -39.5s-80.667 13.167 -108 39.5s-41.333 58.833 -42 97.5z" />
    <glyph glyph-name="afii10193" unicode="&#x45f;" horiz-adv-x="577" 
d="M76 0v520h25v-495h375v495h25v-520h-200v-161h-25v161h-200z" />
    <glyph glyph-name="afii10146" unicode="&#x462;" horiz-adv-x="718" 
d="M183 700v-124.999h259v-25h-259v-137h234c88.667 0 155.5 -17.333 200.5 -52s67.5 -83.334 67.5 -146.001c0 -143.333 -91 -215 -273 -215h-256v550h-156v25h156v125h27zM417 388.001h-234v-363h234c160.667 0 241 63.333 241 190c0 55.333 -20.667 98 -62 128
s-101 45 -179 45z" />
    <glyph glyph-name="afii10194" unicode="&#x463;" horiz-adv-x="568" 
d="M129 0l0.000976562 494.999h-130v25h130v210h25v-210h205v-25h-205v-161h174c72 0 124.5 -15.167 157.5 -45.5s49.5 -70.166 49.5 -119.499s-16.333 -89.833 -49 -121.5s-85.334 -47.5 -158.001 -47.5h-199zM324.001 308.999h-170v-284h173c122 0 183 48 183 144
c0 93.333 -62 140 -186 140z" />
    <glyph glyph-name="afii10147" unicode="&#x472;" horiz-adv-x="785" 
d="M42 350c0 101.333 33.667 186.5 101 255.5s150.333 103.5 249 103.5s181.667 -34 249 -102s101 -153.667 101 -257c0 -102 -33.833 -187.333 -101.5 -256s-150.5 -103 -248.5 -103c-98.667 0 -181.667 34 -249 102s-101 153.667 -101 257zM392 16
c89.333 0 164.666 30.999 225.999 92.999s93.333 139 96 231h-645c2.66699 -91.333 35.334 -168.166 98.001 -230.499s137.667 -93.5 225 -93.5zM392 683.999c-86.667 0 -161.168 -30.5 -223.501 -91.5s-95.5 -136.833 -99.5 -227.5h645
c-3.33301 90.667 -36.166 166.5 -98.499 227.5s-136.833 91.5 -223.5 91.5z" />
    <glyph glyph-name="afii10195" unicode="&#x473;" horiz-adv-x="618" 
d="M39 261c0 79.333 24.833 144.5 74.5 195.5s114.5 76.5 194.5 76.5s145.167 -25.5 195.5 -76.5s75.5 -116.167 75.5 -195.5s-25.167 -144.5 -75.5 -195.5s-115.5 -76.5 -195.5 -76.5s-144.833 25.5 -194.5 76.5s-74.5 116.167 -74.5 195.5zM308 14
c69.333 0 127 22.333 173 67s70.333 101.667 73 171h-490c2 -70 26 -127.167 72 -171.5s103.333 -66.5 172 -66.5zM308 508c-67.333 0 -123.835 -21.501 -169.502 -64.501s-70.5 -98.5 -74.5 -166.5h489c-3.33301 66.667 -28.166 121.834 -74.499 165.501
s-103.166 65.5 -170.499 65.5z" />
    <glyph glyph-name="afii10148" unicode="&#x474;" horiz-adv-x="769" 
d="M632 566l-271 -566h-25l-334 700h27l320 -668l267 558c21.333 45.333 41 75.833 59 91.5s38 23.5 60 23.5c20 0 37 -6 51 -18l-15 -20c-10 8.66699 -22.333 13 -37 13c-19.333 0 -36.333 -8.5 -51 -25.5s-31.667 -46.5 -51 -88.5z" />
    <glyph glyph-name="afii10196" unicode="&#x475;" horiz-adv-x="561" 
d="M442 400l-180.001 -400h-24l-239 520h27l224 -486l170 378c32 71.333 68.667 107 110 107c18.667 0 34.334 -6 47.001 -18l-15 -20c-10 8.66699 -20.667 13 -32 13c-16 0 -31 -7.5 -45 -22.5s-28.333 -38.833 -43 -71.5z" />
    <glyph glyph-name="afii10050" unicode="&#x490;" horiz-adv-x="554" 
d="M84 0v700h443v136h27v-161h-443v-675h-27z" />
    <glyph glyph-name="afii10098" unicode="&#x491;" horiz-adv-x="428" 
d="M76 0v520h329v116h25v-141h-329v-495h-25z" />
    <glyph glyph-name="uni1E9E" unicode="&#x1e9e;" horiz-adv-x="654" 
d="M322 708c62.667 0 112.832 -13.333 150.499 -40s64.167 -59.334 79.5 -98.001l-193 -204c82 0 142.333 -17.833 181 -53.5s58 -79.167 58 -130.5c0 -56 -19.167 -101.833 -57.5 -137.5s-91.833 -53.5 -160.5 -53.5c-48 0 -88 9 -120 27l11 23
c34.667 -16.667 71 -25 109 -25c56.667 0 102.667 14.833 138 44.5s53 70.167 53 121.5c0 46 -17.333 84 -52 114s-88 45 -160 45h-34v25l195 207c-35.333 73.333 -101.333 110 -198 110c-26.667 0 -51.5 -3.16699 -74.5 -9.5s-45.167 -17.166 -66.5 -32.499
s-38.166 -38 -50.499 -68s-18.5 -66.333 -18.5 -109v-464h-27v476c0 43.333 7.33301 80.833 22 112.5s34 55.667 58 72s49.167 28.333 75.5 36s53.5 11.5 81.5 11.5z" />
    <glyph glyph-name="uni2010" unicode="&#x2010;" horiz-adv-x="400" 
d="M92 256v25h209v-25h-209z" />
    <glyph glyph-name="uni2011" unicode="&#x2011;" horiz-adv-x="400" 
d="M92 256v25h209v-25h-209z" />
    <glyph glyph-name="figuredash" unicode="&#x2012;" horiz-adv-x="590" 
d="M97 339v25h388v-25h-388z" />
    <glyph glyph-name="endash" unicode="&#x2013;" horiz-adv-x="583" 
d="M97 255v25h388v-25h-388z" />
    <glyph glyph-name="emdash" unicode="&#x2014;" horiz-adv-x="795" 
d="M97 255v25h600v-25h-600z" />
    <glyph glyph-name="quoteleft" unicode="&#x2018;" horiz-adv-x="235" 
d="M132 562l-21 -14.001c-14 18.667 -21 40.334 -21 65.001c0 44.667 21 82.667 63 114l14 -21c-34.667 -24.667 -52 -55 -52 -91c0 -19.333 5.66699 -37 17 -53z" />
    <glyph glyph-name="quoteright" unicode="&#x2019;" horiz-adv-x="235" 
d="M103 711l21 14.001c14 -18.667 21 -40.334 21 -65.001c0 -44.667 -21 -82.667 -63 -114l-14 21c34.667 24.667 52 55 52 91c0 19.333 -5.66699 37 -17 53z" />
    <glyph glyph-name="quotesinglbase" unicode="&#x201a;" horiz-adv-x="235" 
d="M103 24l21 14.001c14 -18.667 21 -40.334 21 -65.001c0 -44.667 -21 -82.667 -63 -114l-14 21c34.667 24.667 52 55 52 91c0 19.333 -5.66699 37 -17 53z" />
    <glyph glyph-name="quotedblleft" unicode="&#x201c;" horiz-adv-x="347" 
d="M244 562l-21 -14.001c-14 18.667 -21 40.334 -21 65.001c0 44.667 21 82.667 63 114l14 -21c-34.667 -24.667 -52 -55 -52 -91c0 -19.333 5.66699 -37 17 -53zM132 561.999l-21 -14.001c-14 18.667 -21 40.334 -21 65.001c0 44.667 21 82.667 63 114l14 -21
c-34.667 -24.667 -52 -55 -52 -91c0 -19.333 5.66699 -37 17 -53z" />
    </font>
</defs>
</svg>
