<?xml version="1.0" standalone="no"?>
<!DOCTYPE svg PUBLIC "-//W3C//DTD SVG 1.1//EN" "http://www.w3.org/Graphics/SVG/1.1/DTD/svg11.dtd" >
<svg xmlns="http://www.w3.org/2000/svg" xmlns:xlink="http://www.w3.org/1999/xlink" version="1.1">
<metadata>
Created by FontForge 20201107 at Wed Dec 10 15:17:32 2014
 By Jimmy Wärting
Copyright (c) 2014 ParaType, Inc., ParaType Ltd. All rights reserved.
</metadata>
<defs>
<font id="Stem-Medium" horiz-adv-x="620" >
  <font-face 
    font-family="Stem-Medium"
    font-weight="400"
    font-stretch="normal"
    units-per-em="1000"
    panose-1="2 11 6 3 2 2 3 2 2 4"
    ascent="779"
    descent="-221"
    x-height="520"
    cap-height="700"
    bbox="-491 -278.003 1295 962"
    underline-thickness="50"
    underline-position="-100"
    unicode-range="U+0020-FEFF"
  />
<missing-glyph horiz-adv-x="236" 
 />
    <glyph glyph-name="uniF350.var.accented" unicode="&#xf350;`" horiz-adv-x="605" 
d="M-2 0l261 560h88l261 -560h-123l-53 109h-261l-53 -109h-120zM301 387l-89 -179h177zM437 769l-127 -158l-76 54l118 168z" />
    <glyph glyph-name="uniF355.var.accented" unicode="&#xf355;`" horiz-adv-x="550" 
d="M58 0v560h448v-109h-331v-114h309v-106h-309v-122h339v-109h-456zM417 769l-127 -158l-76 54l118 168z" />
    <glyph glyph-name="uniF358.var.accented" unicode="&#xf358;`" horiz-adv-x="638" 
d="M154 0h-96v560h117v-351l307 351h98v-560h-117v352zM444 769l-127 -158l-76 54l118 168z" />
    <glyph glyph-name="uniF35E.var.accented" unicode="&#xf35e;`" horiz-adv-x="665" 
d="M27 280c0 80.667 29.499 148.5 88.499 203.5s131.5 82.5 217.5 82.5c85.333 0 157.5 -27.167 216.5 -81.5s88.5 -122.5 88.5 -204.5s-29.5 -150.167 -88.5 -204.5s-131.167 -81.5 -216.5 -81.5s-157.666 27.167 -216.999 81.5s-89 122.5 -89 204.5zM148.999 280
c0 -52 18 -93.833 54 -125.5s79.333 -47.5 130 -47.5c52 0 95.5 15.833 130.5 47.5s52.5 73.5 52.5 125.5s-18 93.833 -54 125.5s-79 47.5 -129 47.5c-51.333 0 -94.833 -15.833 -130.5 -47.5s-53.5 -73.5 -53.5 -125.5zM473.999 769l-127 -158l-76 54l118 168z" />
    <glyph glyph-name="uniF363.var.accented" unicode="&#xf363;`" horiz-adv-x="609" 
d="M168 13l44.001 102c4.66699 -3.33301 10.667 -5 18 -5c18 0 33.667 11 47 33l3 5l-280 412h144l196 -292l147 292h123l-218 -429c-22.667 -44.667 -46.167 -77.667 -70.5 -99s-53.833 -32 -88.5 -32c-26.667 -0 -48.334 4.33301 -65.001 13zM441.001 769l-127 -158
l-76 54l118 168z" />
    <glyph glyph-name="uniF36B.var.accented" unicode="&#xf36b;`" horiz-adv-x="742" 
d="M568 0v560h117v-560h-117zM272 261h-97v-152h95c44.667 0 77.5 5.83301 98.5 17.5s31.5 32.167 31.5 61.5c0 48.667 -42.667 73 -128 73zM175 560l0.000976562 -188.999h99c80.667 0 142.167 -16.333 184.5 -49s63.5 -77.334 63.5 -134.001
c0 -61.333 -22.333 -108 -67 -140s-107.334 -48 -188.001 -48h-209v560h117zM474.001 769.001l-127 -158l-76 54l118 168z" />
    <glyph glyph-name="uniF36D.var.accented" unicode="&#xf36d;`" horiz-adv-x="598" 
d="M174 231l-0.000976562 108.998h275c-8.66699 36.667 -29.167 65.334 -61.5 86.001s-73.5 31 -123.5 31c-32 0 -64.167 -5.83301 -96.5 -17.5s-59.166 -30.167 -80.499 -55.5l-78 75c28 35.333 65.333 62 112 80s96 27 148 27c92.667 0 166.167 -25.5 220.5 -76.5
s81.5 -120.167 81.5 -207.5c0 -85.333 -27.5 -154.666 -82.5 -207.999s-130.5 -80 -226.5 -80c-116.667 0 -203 39 -259 117l78 67c38 -50 99.667 -75 185 -75c50.667 0 92.5 11.667 125.5 35s52.5 54.333 58.5 93h-276zM400.999 768.998l-127 -158l-76 54l118 168z" />
    <glyph glyph-name="uniF36E.var.accented" unicode="&#xf36e;`" horiz-adv-x="861" 
d="M58 0l0.00195312 560h117v-225h74c11.333 68 43.666 123.5 96.999 166.5s117.666 64.5 192.999 64.5c88.667 0 160 -26.667 214 -80s81 -122 81 -206c0 -82.667 -28 -151 -84 -205s-126.333 -81 -211 -81c-79.333 0 -145.333 21.333 -198 64s-83.667 101.667 -93 177h-73
v-235h-117zM364.002 280c0 -52.667 16.667 -95.334 50 -128.001s75 -49 125 -49c52.667 0 94.667 16 126 48s47 75 47 129s-15.833 97 -47.5 129s-73.5 48 -125.5 48c-50.667 0 -92.5 -16.167 -125.5 -48.5s-49.5 -75.166 -49.5 -128.499zM584.002 769l-127 -158l-76 54
l118 168z" />
    <glyph glyph-name="uniF36F.var.accented" unicode="&#xf36f;`" horiz-adv-x="591" 
d="M417 0v188h-117l-160 -188h-139l180 209c-92 26.667 -138 81 -138 163c0 55.333 21.167 100.5 63.5 135.5s102.833 52.5 181.5 52.5h246v-560h-117zM273 297l144 -0.000976562v154h-136c-78 0 -117 -26 -117 -78c0 -21.333 10 -39.166 30 -53.499
s46.333 -21.833 79 -22.5zM437 768.999l-127 -158l-76 54l118 168z" />
    <glyph glyph-name="uniF371.var.accented" unicode="&#xf371;`" horiz-adv-x="550" 
d="M82 698c0 16.667 6.33105 30.499 18.998 41.499s27.334 16.5 44.001 16.5s31.667 -5.66699 45 -17s20 -25 20 -41c0 -17.333 -6.66699 -31.666 -20 -42.999s-28.333 -17 -45 -17c-17.333 0 -32.166 5.5 -44.499 16.5s-18.5 25.5 -18.5 43.5zM365.998 697.999
c0 16.667 6.5 30.5 19.5 41.5s28.5 16.5 46.5 16.5c17.333 0 32.5 -5.5 45.5 -16.5s19.5 -24.833 19.5 -41.5c0 -18 -6.33301 -32.5 -19 -43.5s-28 -16.5 -46 -16.5s-33.5 5.5 -46.5 16.5s-19.5 25.5 -19.5 43.5zM382.998 788.999l-102 -164l-57 21l60 173z
M57.998 -0.000976562v560h448v-109h-331v-114h309v-106h-309v-122h339v-109h-456z" />
    <glyph glyph-name="afii10017.var.accented" unicode="&#x410;`" horiz-adv-x="704" 
d="M-1 0l307 700h92l307 -700h-127l-68 155h-319l-67 -155h-125zM350 525l-115 -266h230zM535 849l-220 -104l-43 76l210 128z" />
    <glyph glyph-name="afii10022.var.accented" unicode="&#x415;`" horiz-adv-x="645" 
d="M70 0v700h520v-114h-399v-176h373v-110h-373v-186h409v-114h-530zM515 849l-220 -104l-43 76l210 128z" />
    <glyph glyph-name="afii10026.var.accented" unicode="&#x418;`" horiz-adv-x="747" 
d="M171 0h-101v700h121v-485l384 485h102v-700h-121v485zM552 849l-220 -104l-43 76l210 128z" />
    <glyph glyph-name="afii10032.var.accented" unicode="&#x41e;`" horiz-adv-x="782" 
d="M33 350c0 100.667 34.5 185.5 103.5 254.5s153.833 103.5 254.5 103.5s185.5 -34 254.5 -102s103.5 -153.333 103.5 -256c0 -102 -34.667 -187.167 -104 -255.5s-154 -102.5 -254 -102.5s-184.667 34 -254 102s-104 153.333 -104 256zM159 350
c0 -70.667 22.667 -128.667 68 -174s100 -68 164 -68c66 0 121.167 22.5 165.5 67.5s66.5 103.167 66.5 174.5c0 70.667 -22.833 128.667 -68.5 174s-100.167 68 -163.5 68c-64 0 -118.667 -22.5 -164 -67.5s-68 -103.167 -68 -174.5zM555 849l-220 -104l-43 76l210 128z
" />
    <glyph glyph-name="afii10037.var.accented" unicode="&#x423;`" horiz-adv-x="707" 
d="M196 14l47.001 101c8 -3.33301 15.667 -5 23 -5c22 0 44.333 23.333 67 70l-333 520h149l246 -393l185 393h127l-259 -538c-26.667 -56 -53.834 -97.5 -81.501 -124.5s-62.167 -40.5 -103.5 -40.5c-24 0 -46.333 5.66699 -67 17zM542.001 849l-220 -104l-43 76l210 128z
" />
    <glyph glyph-name="afii10045.var.accented" unicode="&#x42b;`" horiz-adv-x="865" 
d="M675 0v700h121v-700h-121zM318 340h-127v-226h125c56 0 97.833 9 125.5 27s41.5 48 41.5 90c0 72.667 -55 109 -165 109zM191 700v-247.002h130c94.667 0 166.334 -19.667 215.001 -59s73 -93.666 73 -162.999c0 -75.333 -25.833 -132.666 -77.5 -171.999
s-124.834 -59 -219.501 -59h-242v700h121zM609 848.998l-220 -104l-43 76l210 128z" />
    <glyph glyph-name="afii10047.var.accented" unicode="&#x42d;`" horiz-adv-x="701" 
d="M204 301l0.00195312 113.001h337c-9.33301 56 -34.5 100.167 -75.5 132.5s-93.833 48.5 -158.5 48.5c-38 0 -76.667 -8.33301 -116 -25s-72 -41.334 -98 -74.001l-80 78c32.667 44 76 77.333 130 100s110.667 34 170 34c109.333 0 195.833 -32 259.5 -96
s95.5 -150.333 95.5 -259c0 -106.667 -32.333 -193.5 -97 -260.5s-153.334 -100.5 -266.001 -100.5c-57.333 0 -112.5 11 -165.5 33s-97.167 58 -132.5 108l82 69c23.333 -32 55.166 -56.167 95.499 -72.5s82.166 -24.5 125.499 -24.5c64.667 0 117.834 17.833 159.501 53.5
s66.167 83.167 73.5 142.5h-339zM485.002 849.001l-220 -104l-43 76l210 128z" />
    <glyph glyph-name="afii10048.var.accented" unicode="&#x42e;`" horiz-adv-x="997" 
d="M70 0l0.00195312 700.001h121v-291h89c12.667 86.667 50.167 158.167 112.5 214.5s138.166 84.5 227.499 84.5c102.667 0 185.667 -33.5 249 -100.5s95 -152.833 95 -257.5c0 -103.333 -32.667 -188.833 -98 -256.5s-147.333 -101.5 -246 -101.5
c-93.333 0 -170.833 28.167 -232.5 84.5s-97.834 132.166 -108.501 227.499h-88v-304h-121zM400.002 350.001c0 -72 20.833 -130.833 62.5 -176.5s94.167 -68.5 157.5 -68.5c66 0 118.833 22.5 158.5 67.5s59.5 104.167 59.5 177.5c0 72.667 -20.167 131.667 -60.5 177
s-92.833 68 -157.5 68c-63.333 0 -115.833 -22.667 -157.5 -68s-62.5 -104.333 -62.5 -177zM752.002 849.001l-220 -104l-43 76l210 128z" />
    <glyph glyph-name="afii10049.var.accented" unicode="&#x42f;`" horiz-adv-x="691" 
d="M500 0l-0.000976562 245.999h-155l-197 -246h-145l217 267c-53.333 13.333 -94.666 37.833 -123.999 73.5s-44 79.5 -44 131.5c0 66.667 24.333 121.334 73 164.001s119 64 211 64h285v-700h-121zM314.999 358.999h185v228h-173c-99.333 0 -149 -38.333 -149 -115
c0 -31.333 12.333 -57.5 37 -78.5s58 -32.5 100 -34.5zM548.999 848.999l-220 -104l-43 76l210 128z" />
    <glyph glyph-name="afii10023.var.accented" unicode="&#x401;`" horiz-adv-x="645" 
d="M110 821c0 18 6.66797 32.833 20.001 44.5s29.666 17.5 48.999 17.5c17.333 0 32.833 -6 46.5 -18s20.5 -26.667 20.5 -44c0 -18 -6.83301 -32.833 -20.5 -44.5s-29.167 -17.5 -46.5 -17.5c-20 0 -36.5 5.83301 -49.5 17.5s-19.5 26.5 -19.5 44.5zM425.001 821
c0 18 6.83301 32.833 20.5 44.5s29.834 17.5 48.501 17.5c18 0 33.667 -5.83301 47 -17.5s20 -26.5 20 -44.5s-6.66699 -32.833 -20 -44.5s-29 -17.5 -47 -17.5c-18.667 0 -34.834 5.83301 -48.501 17.5s-20.5 26.5 -20.5 44.5zM433.001 917l-94 -152l-66 17l52 168z
M70.001 0v700h520v-114h-399v-176h373v-110h-373v-186h409v-114h-530z" />
    <glyph glyph-name="afii10065.var.accented" unicode="&#x430;`" horiz-adv-x="534" 
d="M109 371l-56.001 84.002c24.667 24 56.5 42.833 95.5 56.5s79.833 20.5 122.5 20.5c68 0 120.5 -18.667 157.5 -56s55.5 -90 55.5 -158v-318h-114v57c-38 -42 -91.667 -63 -161 -63c-57.333 0 -103.166 14.833 -137.499 44.5s-51.5 69.5 -51.5 119.5
c0 55.333 22.167 96.666 66.5 123.999s103.166 41 176.499 41c43.333 0 79 -4.66699 107 -14c0.666992 39.333 -7.66602 68.666 -24.999 87.999s-46.333 29 -87 29c-51.333 0 -101 -18.333 -149 -55zM233.999 93.002c59.333 0 104.668 23.668 136.001 71.001v50
c-28 9.33301 -59.667 14 -95 14c-91.333 0 -137 -23 -137 -69c0 -20.667 8.66699 -36.834 26 -48.501s40.666 -17.5 69.999 -17.5zM418.001 755.003l-127 -157l-77 54l118 167z" />
    <glyph glyph-name="afii10070.var.accented" unicode="&#x435;`" horiz-adv-x="569" 
d="M449 166l70 -69.001c-52.667 -70.667 -123 -106 -211 -106c-84 0 -151.5 24.5 -202.5 73.5s-76.5 114.5 -76.5 196.5c0 79.333 23.5 144.333 70.5 195s112.5 76 196.5 76c70.667 0 129 -21.833 175 -65.5s69 -101.167 69 -172.5c0 -17.333 -2 -41.666 -6 -72.999h-386
c4.66699 -40 21.667 -70.667 51 -92s66.333 -32 111 -32c58.667 0 105 23 139 69zM291 428.999c-38 0 -69.332 -9.66699 -93.999 -29s-40.667 -46 -48 -80h273c-4.66699 35.333 -18.334 62.333 -41.001 81s-52.667 28 -90 28zM445.001 754.999l-127 -157l-77 54l118 167z
" />
    <glyph glyph-name="afii10074.var.accented" unicode="&#x438;`" horiz-adv-x="596" 
d="M152 0h-99v520h114v-339l276 339h99v-520h-114v338zM454 755l-127 -157l-77 54l118 167z" />
    <glyph glyph-name="afii10080.var.accented" unicode="&#x43e;`" horiz-adv-x="615" 
d="M29 261c0 78.667 25.833 143.5 77.5 194.5s118.5 76.5 200.5 76.5s149 -25.5 201 -76.5s78 -115.833 78 -194.5c0 -78 -26 -142.5 -78 -193.5s-119 -76.5 -201 -76.5c-80.667 0 -147.167 25.5 -199.5 76.5s-78.5 115.5 -78.5 193.5zM147 261
c0 -47.333 14.833 -86.499 44.5 -117.499s68.167 -46.5 115.5 -46.5c48 0 86.833 15 116.5 45s44.5 69.667 44.5 119s-15.333 89.166 -46 119.499s-69 45.5 -115 45.5c-46.667 0 -85 -15 -115 -45s-45 -70 -45 -120zM459 755.001l-127 -157l-77 54l118 167z" />
    <glyph glyph-name="afii10085.var.accented" unicode="&#x443;`" horiz-adv-x="548" 
d="M75 -194l45 97c6.66699 -4 14.334 -6 23.001 -6c31.333 0 58.666 29 81.999 87l18 47l-256 489h132l179 -351l138 351h122l-204 -505c-34.667 -84.667 -67.167 -143.167 -97.5 -175.5s-66.833 -48.5 -109.5 -48.5c-28 0 -52 5 -72 15zM431 755l-127 -157l-77 54l118 167z
" />
    <glyph glyph-name="afii10093.var.accented" unicode="&#x44b;`" horiz-adv-x="696" 
d="M53 0l0.000976562 520h114v-151h90c78 0 134.167 -16.833 168.5 -50.5s51.5 -77.834 51.5 -132.501c0 -53.333 -18.333 -97.666 -55 -132.999s-94.334 -53 -173.001 -53h-196zM248.001 263h-81.001v-157h80c40 0 68.667 6.5 86 19.5s26 32.833 26 59.5
c0 26 -8.66699 45.5 -26 58.5s-45.666 19.5 -84.999 19.5zM529 0v520h114v-520h-114zM474 755l-127 -157l-77 54l118 167z" />
    <glyph glyph-name="afii10095.var.accented" unicode="&#x44d;`" horiz-adv-x="547" 
d="M155 216l-0.00292969 99.001h243c-16 74 -68.333 111 -157 111c-67.333 0 -118.333 -25.333 -153 -76l-83 61c58.667 80.667 140.334 121 245.001 121c82 0 147.333 -24.5 196 -73.5s73 -114.833 73 -197.5c0 -78.667 -24.5 -143.334 -73.5 -194.001
s-115.833 -76 -200.5 -76c-52 0 -99.667 9.33301 -143 28s-75.666 47.667 -96.999 87l83 60c33.333 -46 82.333 -69 147 -69c46 0 83.333 10.667 112 32s46.334 50.333 53.001 87h-245zM392.997 755.001l-127 -157l-77 54l118 167z" />
    <glyph glyph-name="afii10096.var.accented" unicode="&#x44e;`" horiz-adv-x="815" 
d="M53 0v520h114v-202h90c12 64.667 41.167 116.5 87.5 155.5s103.833 58.5 172.5 58.5c79.333 0 144 -25.5 194 -76.5s75 -115.833 75 -194.5c0 -78 -25.167 -142.5 -75.5 -193.5s-114.833 -76.5 -193.5 -76.5c-71.333 0 -130.333 20.5 -177 61.5s-75 95.167 -85 162.5h-88
v-215h-114zM370 261c0 -49.333 13.833 -89.001 41.5 -119.001s63.167 -45 106.5 -45c44.667 0 80.834 15 108.501 45s41.5 69.667 41.5 119c0 50 -13.833 90 -41.5 120s-63.834 45 -108.501 45c-42 0 -77.167 -15.167 -105.5 -45.5s-42.5 -70.166 -42.5 -119.499z
M575 754.999l-127 -157l-77 54l118 167z" />
    <glyph glyph-name="afii10097.var.accented" unicode="&#x44f;`" horiz-adv-x="539" 
d="M272 520h214v-520h-114v171h-97l-132 -171h-133l150 190c-36.667 8.66699 -65.667 27.167 -87 55.5s-32 62.5 -32 102.5c0 50.667 18.5 92 55.5 124s95.5 48 175.5 48zM159 344c0 -20 8.66699 -36.167 26 -48.5s42 -18.5 74 -18.5h113v137h-110
c-68.667 0 -103 -23.333 -103 -70zM452 755l-127 -157l-77 54l118 167z" />
    <glyph glyph-name="afii10071.var.accented" unicode="&#x451;`" horiz-adv-x="569" 
d="M89 672c0 16.667 6.33105 30.5 18.998 41.5s27.334 16.5 44.001 16.5c16 0 30.667 -5.5 44 -16.5s20 -24.833 20 -41.5c0 -18 -6.5 -32.667 -19.5 -44s-27.833 -17 -44.5 -17c-17.333 0 -32.166 5.66699 -44.499 17s-18.5 26 -18.5 44zM372.998 672
c0 16.667 6.5 30.5 19.5 41.5s28.5 16.5 46.5 16.5c17.333 0 32.333 -5.5 45 -16.5s19 -24.833 19 -41.5c0 -18.667 -6.16699 -33.5 -18.5 -44.5s-27.5 -16.5 -45.5 -16.5s-33.5 5.5 -46.5 16.5s-19.5 25.833 -19.5 44.5zM389.998 762l-103 -164l-56 22l60 173zM448.998 166
l70 -69.001c-52.667 -70.667 -123 -106 -211 -106c-84 0 -151.5 24.5 -202.5 73.5s-76.5 114.5 -76.5 196.5c0 79.333 23.5 144.333 70.5 195s112.5 76 196.5 76c70.667 0 129 -21.833 175 -65.5s69 -101.167 69 -172.5c0 -17.333 -2 -41.666 -6 -72.999h-386
c4.66699 -40 21.667 -70.667 51 -92s66.333 -32 111 -32c58.667 0 105 23 139 69zM290.998 428.999c-38 0 -69.332 -9.66699 -93.999 -29s-40.667 -46 -48 -80h273c-4.66699 35.333 -18.334 62.333 -41.001 81s-52.667 28 -90 28z" />
    <glyph glyph-name="fi" unicode="fi" horiz-adv-x="579" 
d="M3 414l0.000976562 106.001h84v17c0 69.333 17.333 120.166 52 152.499s78 48.5 130 48.5c32 0 58 -5.66699 78 -17l-40 -99c-8.66699 6.66699 -19.334 10 -32.001 10c-49.333 0 -74 -32.667 -74 -98v-14h133v-106h-133v-414h-114v414h-84zM396.001 0.000976562v520h114
v-520h-114zM386.001 669.001c0 17.333 6.5 31.668 19.5 43.001s28.833 17 47.5 17s34.334 -5.83301 47.001 -17.5s19 -25.834 19 -42.501c0 -18 -6.33301 -32.833 -19 -44.5s-28.334 -17.5 -47.001 -17.5c-20 0 -36.167 5.83301 -48.5 17.5s-18.5 26.5 -18.5 44.5z" />
    <glyph glyph-name="fl" unicode="fl" horiz-adv-x="511" 
d="M338 0v606.001c-14.667 17.333 -35.667 26 -63 26c-49.333 0 -74 -32.667 -74 -98v-14h83v-106h-83v-414h-114v414h-84v106h84v17c0 69.333 17.333 120.166 52 152.499s78 48.5 130 48.5c39.333 0 74 -10.667 104 -32l79 29v-735h-114z" />
    <glyph glyph-name=".notdef" horiz-adv-x="236" 
 />
    <glyph glyph-name="space" unicode=" " horiz-adv-x="236" 
 />
    <glyph glyph-name="exclam" unicode="!" horiz-adv-x="309" 
d="M96 215v485h118v-485h-118zM73 73c0 18.667 7.66797 35.5 23.001 50.5s34.666 22.5 57.999 22.5c22 0 40.833 -7.66699 56.5 -23s23.5 -32 23.5 -50c0 -20 -7.66699 -37.5 -23 -52.5s-34.333 -22.5 -57 -22.5c-24 0 -43.5 7.5 -58.5 22.5s-22.5 32.5 -22.5 52.5z" />
    <glyph glyph-name="quotedbl" unicode="&#x22;" horiz-adv-x="440" 
d="M73 452v248h116v-248h-116zM251 452v248h116v-248h-116z" />
    <glyph glyph-name="numbersign" unicode="#" horiz-adv-x="707" 
d="M290 16l64 175h-122l-77 -208l-102 33l65 175h-78v99h115l46 120h-161v99h197l77 208l102 -33l-66 -175h123l76 208l102 -32l-66 -176h82v-99h-118l-45 -120h163v-99h-200l-76 -208zM314 410l-46 -120h124l43 120h-121z" />
    <glyph glyph-name="dollar" unicode="$" 
d="M471 190c0 21.333 -7.99902 39.3311 -23.999 53.998s-36.667 26.167 -62 34.5s-53.333 16 -84 23s-61.334 15.333 -92.001 25s-58.667 21.5 -84 35.5s-46 33.5 -62 58.5s-24 54.833 -24 89.5c0 46.667 19.333 88 58 124s89.334 59 152.001 69v80h115v-78
c90.667 -8.66699 164 -41 220 -97l-66 -86c-58.667 48.667 -128 73 -208 73c-41.333 0 -76 -6.83301 -104 -20.5s-42 -34.167 -42 -61.5c0 -22 10.667 -40.167 32 -54.5s48 -25 80 -32s66.667 -16 104 -27s72 -23 104 -36s58.667 -33.667 80 -62s32 -62.5 32 -102.5
c0 -55.333 -22 -101.833 -66 -139.5s-99.333 -59.5 -166 -65.5v-86h-115v91c-47.333 8.66699 -91.5 23.834 -132.5 45.501s-73.5 46.834 -97.5 75.501l72 85c63.333 -66.667 145.666 -100 246.999 -100c42 0 74.667 7.5 98 22.5s35 35.833 35 62.5z" />
    <glyph glyph-name="percent" unicode="%" horiz-adv-x="907" 
d="M154 32l514 696l86 -62l-510 -686zM37 525c0 52 18.1689 94.667 54.502 128s82.166 50 137.499 50c54.667 0 100.167 -16.667 136.5 -50s54.5 -76 54.5 -128c0 -51.333 -18.167 -93.666 -54.5 -126.999s-81.833 -50 -136.5 -50s-100.334 16.667 -137.001 50
s-55 75.666 -55 126.999zM150.002 525c0 -24 7.83203 -43.667 23.499 -59s34.167 -23 55.5 -23c22 0 40.5 7.5 55.5 22.5s22.5 34.833 22.5 59.5c0 24 -7.66699 43.5 -23 58.5s-33.666 22.5 -54.999 22.5c-22 0 -40.667 -7.5 -56 -22.5s-23 -34.5 -23 -58.5zM487.001 174
c0 52 18.1689 94.5 54.502 127.5s82.166 49.5 137.499 49.5c54.667 0 100.167 -16.5 136.5 -49.5s54.5 -75.5 54.5 -127.5c0 -51.333 -18.167 -93.833 -54.5 -127.5s-81.833 -50.5 -136.5 -50.5s-100.334 16.833 -137.001 50.5s-55 76.167 -55 127.5zM600.003 174
c0 -24 7.83301 -43.5 23.5 -58.5s34.167 -22.5 55.5 -22.5s39.666 7.5 54.999 22.5s23 34.5 23 58.5s-7.66699 43.667 -23 59s-33.666 23 -54.999 23c-22 0 -40.667 -7.66699 -56 -23s-23 -35 -23 -59z" />
    <glyph glyph-name="ampersand" unicode="&#x26;" horiz-adv-x="783" 
d="M780 0l-154.002 -0.000976562c-14.667 10.667 -44 36.334 -88 77.001c-60 -57.333 -134 -86 -222 -86c-82 0 -147.833 18.5 -197.5 55.5s-74.5 84.833 -74.5 143.5c0 28 5.33301 53.833 16 77.5s27 45.667 49 66s42 36.666 60 48.999s42.333 27.833 73 46.5
c-42 53.333 -63 102.666 -63 147.999c0 38 14.5 69.5 43.5 94.5s69.5 37.5 121.5 37.5c56 0 98 -11.667 126 -35s42 -55.666 42 -96.999c0 -30 -10.5 -59.833 -31.5 -89.5s-48.833 -56.167 -83.5 -79.5c22.667 -37.333 69.334 -93.666 140.001 -168.999
c46.667 64.667 70 146 70 244h116c0 -58.667 -9.5 -119 -28.5 -181s-45.167 -113 -78.5 -153c48.667 -54 103.334 -103.667 164.001 -149zM320.998 99.999c26.667 0 52.333 5.33203 77 15.999s43.667 24.334 57 41.001c-73.333 82.667 -124 143 -152 181
c-49.333 -30.667 -83.5 -55.167 -102.5 -73.5s-28.5 -39.5 -28.5 -63.5c0 -26.667 13 -50.167 39 -70.5s62.667 -30.5 110 -30.5zM300.997 560.998c0 -16.667 12.667 -41.333 38 -74c34 24 51 49 51 75c0 14 -3.66699 25.167 -11 33.5s-18.333 12.5 -33 12.5
c-30 0 -45 -15.667 -45 -47z" />
    <glyph glyph-name="quotesingle" unicode="'" horiz-adv-x="262" 
d="M73 452v248h116v-248h-116z" />
    <glyph glyph-name="parenleft" unicode="(" horiz-adv-x="342" 
d="M332 -135l-77 -67.001c-77.333 66.667 -133.666 141 -168.999 223s-53 162.667 -53 242c0 78 17.5 157.333 52.5 238s91.5 156.334 169.5 227.001l76 -67c-121.333 -113.333 -182 -246 -182 -398c0 -72 16.167 -142.667 48.5 -212s77.166 -131.333 134.499 -186z" />
    <glyph glyph-name="parenright" unicode=")" horiz-adv-x="341" 
d="M88 -201l-78 67.002c59.333 52 104.5 114 135.5 186s46.5 142.333 46.5 211c0 152 -60.333 284.667 -181 398l76 67c77.333 -70.667 133.5 -146.334 168.5 -227.001s52.5 -160 52.5 -238c0 -79.333 -17.5 -159.833 -52.5 -241.5s-90.833 -155.834 -167.5 -222.501z" />
    <glyph glyph-name="asterisk" unicode="*" horiz-adv-x="500" 
d="M309 700l-5 -123l119 43l33 -107l-121 -34l79 -99l-96 -69l-68 100l-68 -101l-96 69l79 101l-121 34l33 107l121 -43l-4 122h115z" />
    <glyph glyph-name="plus" unicode="+" horiz-adv-x="599" 
d="M64 309v101h182v182h106v-182h184v-101h-184v-184h-106v184h-182z" />
    <glyph glyph-name="comma" unicode="," horiz-adv-x="254" 
d="M119 0c-22 -2.66699 -39.666 3.83398 -52.999 19.501s-20 32.167 -20 49.5c0 20.667 7.16699 38.667 21.5 54s33.833 23 58.5 23c29.333 0 50.5 -10.667 63.5 -32s19.5 -47.333 19.5 -78c0 -44 -15.667 -82.667 -47 -116s-66.333 -54 -105 -62l-28 66
c17.333 3.33301 36.166 13.166 56.499 29.499s31.5 31.833 33.5 46.5z" />
    <glyph glyph-name="hyphen" unicode="-" horiz-adv-x="416" 
d="M69 227v101h278v-101h-278z" />
    <glyph glyph-name="period" unicode="." horiz-adv-x="251" 
d="M45 73c0 18.667 7.66797 35.5 23.001 50.5s34.666 22.5 57.999 22.5c22 0 40.833 -7.66699 56.5 -23s23.5 -32 23.5 -50c0 -20 -7.66699 -37.5 -23 -52.5s-34.333 -22.5 -57 -22.5c-24 0 -43.5 7.5 -58.5 22.5s-22.5 32.5 -22.5 52.5z" />
    <glyph glyph-name="slash" unicode="/" horiz-adv-x="357" 
d="M-37 -164l328 881l102 -33l-329 -887z" />
    <glyph glyph-name="zero" unicode="0" horiz-adv-x="680" 
d="M37 350c0 106 26.5 192 79.5 258s127.167 99 222.5 99c96 0 170.667 -33 224 -99s80 -152 80 -258c0 -106.667 -26.333 -192.834 -79 -258.501s-127 -98.5 -223 -98.5s-170.667 32.833 -224 98.5s-80 151.834 -80 258.501zM161 350c0 -77.333 15.832 -137 47.499 -179
s75.834 -63 132.501 -63c118.667 0 178 80.667 178 242c0 78.667 -15 138.667 -45 180s-75 62 -135 62c-57.333 0 -101.333 -21 -132 -63s-46 -101.667 -46 -179z" />
    <glyph glyph-name="one" unicode="1" horiz-adv-x="397" 
d="M2 588l235 114h76v-702h-116v559l-154 -71z" />
    <glyph glyph-name="two" unicode="2" horiz-adv-x="618" 
d="M135 478l-104.998 42.001c17.333 60 51 106.167 101 138.5s109.333 48.5 178 48.5c79.333 0 141.166 -19 185.499 -57s66.5 -88 66.5 -150c0 -45.333 -9.33301 -86.833 -28 -124.5s-45.334 -72.667 -80.001 -105s-82.667 -69.833 -144 -112.5l-80 -46h354v-112h-543v89
l158 115c4.66699 4 19.334 15.333 44.001 34s41 31.5 49 38.5s22.167 19.167 42.5 36.5s34.666 31.166 42.999 41.499s18.333 23.333 30 39s19.667 30.5 24 44.5s6.5 28.333 6.5 43c0 34 -11.5 60.833 -34.5 80.5s-54.833 29.5 -95.5 29.5
c-43.333 0 -79.333 -10.667 -108 -32s-50 -48.333 -64 -81z" />
    <glyph glyph-name="three" unicode="3" horiz-adv-x="609" 
d="M141 500l-102.997 46.002c18 50.667 51.667 90.5 101 119.5s106.666 43.5 171.999 43.5c74 0 134.667 -16.167 182 -48.5s71 -74.833 71 -127.5c0 -39.333 -10.5 -73.333 -31.5 -102s-48.167 -48 -81.5 -58c35.333 -8.66699 65.5 -26.167 90.5 -52.5
s37.5 -63.5 37.5 -111.5c0 -65.333 -25.167 -117.833 -75.5 -157.5s-112.833 -59.5 -187.5 -59.5c-40 0 -78.833 5.5 -116.5 16.5s-73 30.167 -106 57.5s-56.167 60.666 -69.5 99.999l110 46c14 -31.333 37.5 -56.5 70.5 -75.5s66.833 -28.5 101.5 -28.5
c42.667 0 78 8.83301 106 26.5s42 42.167 42 73.5c0 35.333 -14.833 60 -44.5 74s-71.5 21 -125.5 21h-68v110h72c45.333 0 82 9 110 27s42 40.667 42 68s-13 48.666 -39 63.999s-59.333 23 -100 23s-73.334 -8 -98.001 -24s-45.334 -39.667 -62.001 -71z" />
    <glyph glyph-name="four" unicode="4" horiz-adv-x="668" 
d="M414 0v133h-396v78l413 489h100v-460h119v-107h-119v-133h-117zM178 240h236v269z" />
    <glyph glyph-name="five" unicode="5" horiz-adv-x="609" 
d="M58 317l32.002 383h457v-113h-351l-15 -155c33.333 16.667 74.666 25 123.999 25c84 0 148.667 -20.833 194 -62.5s68 -97.5 68 -167.5c0 -70.667 -25.167 -127.5 -75.5 -170.5s-114.833 -64.5 -193.5 -64.5c-28.667 0 -56.167 3 -82.5 9s-52.333 15.167 -78 27.5
s-48.5 30 -68.5 53s-35.333 49.833 -46 80.5l112 41c11.333 -30 32.666 -53.333 63.999 -70s66.333 -25 105 -25c43.333 0 77.333 10.667 102 32s37 49 37 83c0 39.333 -13.5 70 -40.5 92s-64.167 33 -111.5 33c-54.667 0 -98.667 -13.667 -132 -41z" />
    <glyph glyph-name="six" unicode="6" horiz-adv-x="666" 
d="M37 331c0 121.333 31.332 214.667 93.999 280s143 98 241 98c95.333 0 171.333 -30.333 228 -91l-67 -85c-45.333 39.333 -99.666 59 -162.999 59c-60 0 -110.667 -19.333 -152 -58s-61.666 -93 -60.999 -163c22 32 52.167 57.833 90.5 77.5s78.833 29.5 121.5 29.5
c83.333 0 148.666 -21.333 195.999 -64s71 -100 71 -172c0 -74 -26.167 -134.333 -78.5 -181s-119.5 -70 -201.5 -70c-97.333 0 -174.833 29.667 -232.5 89s-86.5 143 -86.5 251zM175.999 255.001c6.66699 -42 25.168 -77.166 55.501 -105.499s73.5 -42.5 129.5 -42.5
c42.667 0 78.5 12 107.5 36s43.5 55 43.5 93c0 41.333 -13.333 73.166 -40 95.499s-65.334 33.5 -116.001 33.5c-40.667 0 -79 -12.167 -115 -36.5s-57.667 -48.833 -65 -73.5z" />
    <glyph glyph-name="seven" unicode="7" horiz-adv-x="574" 
d="M15 587v113h544v-76l-330 -624h-127l314 587h-401z" />
    <glyph glyph-name="eight" unicode="8" horiz-adv-x="678" 
d="M325 411h28.999c38 0 70.333 8.66699 97 26s40 40.333 40 69c0 30 -13.167 52.833 -39.5 68.5s-64.166 23.5 -113.499 23.5c-44 0 -80.333 -8 -109 -24s-43 -38.333 -43 -67c0 -28 12.833 -51 38.5 -69s59.167 -27 100.5 -27zM351.999 308l-23.999 0.000976562
c-49.333 0 -89 -9.83301 -119 -29.5s-45 -43.834 -45 -72.501c0 -32 15.5 -57.5 46.5 -76.5s73.833 -28.5 128.5 -28.5c53.333 0 95.666 9.16699 126.999 27.5s47 43.5 47 75.5c0 32.667 -14 58.167 -42 76.5s-67.667 27.5 -119 27.5zM340 -7.99902
c-89.333 0 -161.666 18.166 -216.999 54.499s-83 85.833 -83 148.5c0 38.667 10.167 73 30.5 103s49.166 51.667 86.499 65c-63.333 26.667 -95 76.334 -95 149.001c0 60 24.5 107.667 73.5 143s116.833 53 203.5 53c88.667 0 157 -17.667 205 -53s72 -83 72 -143
c0 -32 -9 -61.333 -27 -88s-44 -46.334 -78 -59.001c84.667 -21.333 127 -76.666 127 -165.999c0 -64 -28 -114.5 -84 -151.5s-127.333 -55.5 -214 -55.5z" />
    <glyph glyph-name="nine" unicode="9" horiz-adv-x="660" 
d="M623 369c0 -122.667 -30.167 -216.334 -90.5 -281.001s-138.5 -97 -234.5 -97c-95.333 0 -171.333 30.333 -228 91l67 85c45.333 -39.333 99.666 -59 162.999 -59c58.667 0 107 18.833 145 56.5s57 87.834 57 150.501c-17.333 -26.667 -45 -48.167 -83 -64.5
s-79 -24.5 -123 -24.5c-81.333 0 -146 21.333 -194 64s-72 98.667 -72 168c0 72.667 27.333 132.667 82 180s120.334 71 197.001 71c95.333 0 171.5 -29.667 228.5 -89s85.5 -143 85.5 -251zM488 432c-0.666992 40.667 -17.168 77.667 -49.501 111s-75.166 50 -128.499 50
c-42 0 -78.5 -12 -109.5 -36s-46.5 -55 -46.5 -93c0 -40 14.5 -71.5 43.5 -94.5s66.5 -34.5 112.5 -34.5c38 0 75.5 10.333 112.5 31s58.833 42.667 65.5 66z" />
    <glyph glyph-name="colon" unicode=":" horiz-adv-x="321" 
d="M80 73c0 18.667 7.66797 35.5 23.001 50.5s34.666 22.5 57.999 22.5c22 0 40.833 -7.66699 56.5 -23s23.5 -32 23.5 -50c0 -20 -7.66699 -37.5 -23 -52.5s-34.333 -22.5 -57 -22.5c-24 0 -43.5 7.5 -58.5 22.5s-22.5 32.5 -22.5 52.5zM80.001 447
c0 18.667 7.66797 35.5 23.001 50.5s34.666 22.5 57.999 22.5c22 0 40.833 -7.66699 56.5 -23s23.5 -32 23.5 -50c0 -20 -7.66699 -37.5 -23 -52.5s-34.333 -22.5 -57 -22.5c-24 0 -43.5 7.5 -58.5 22.5s-22.5 32.5 -22.5 52.5z" />
    <glyph glyph-name="semicolon" unicode=";" horiz-adv-x="320" 
d="M150 0c-22 -2.66699 -39.666 3.83398 -52.999 19.501s-20 32.167 -20 49.5c0 20.667 7.16699 38.667 21.5 54s33.833 23 58.5 23c29.333 0 50.5 -10.667 63.5 -32s19.5 -47.333 19.5 -78c0 -44 -15.667 -82.667 -47 -116s-66.333 -54 -105 -62l-28 66
c17.333 3.33301 36.166 13.166 56.499 29.499s31.5 31.833 33.5 46.5zM78.001 447.001c0 18.667 7.66797 35.5 23.001 50.5s34.666 22.5 57.999 22.5c22 0 40.833 -7.66699 56.5 -23s23.5 -32 23.5 -50c0 -20 -7.66699 -37.5 -23 -52.5s-34.333 -22.5 -57 -22.5
c-24 0 -43.5 7.5 -58.5 22.5s-22.5 32.5 -22.5 52.5z" />
    <glyph glyph-name="less" unicode="&#x3c;" horiz-adv-x="556" 
d="M481 53l-453 285v47l453 282v-123l-295 -183l295 -185v-123z" />
    <glyph glyph-name="equal" unicode="=" horiz-adv-x="579" 
d="M64 402v99h452v-99h-452zM64 217v99h452v-99h-452z" />
    <glyph glyph-name="greater" unicode="&#x3e;" horiz-adv-x="556" 
d="M528 338l-453 -285v123l297 185l-297 183v123l453 -282v-47z" />
    <glyph glyph-name="question" unicode="?" horiz-adv-x="610" 
d="M446 500c0 26.667 -11.501 48.6709 -34.501 66.0039s-60.833 26 -113.5 26c-78.667 0 -131.667 -37.667 -159 -113l-109 31c12.667 61.333 42.834 109.666 90.501 144.999s106.167 53 175.5 53c90 0 158.167 -17 204.5 -51s69.5 -79.667 69.5 -137
c0 -38.667 -8.16699 -71.5 -24.5 -98.5s-36 -47.333 -59 -61s-46 -25.667 -69 -36s-42.667 -21.5 -59 -33.5s-24.5 -26.333 -24.5 -43c0 -5.33301 0.666992 -11.333 2 -18s2 -12 2 -16l-109 -1c-4.66699 16 -7 34 -7 54c0 26 7.66699 48.5 23 67.5s34 34.167 56 45.5
s44 22.166 66 32.499s40.667 22.666 56 36.999s23 31.166 23 50.499zM197.999 73.0039c0 18.667 7.66797 35.5 23.001 50.5s34.666 22.5 57.999 22.5c22 0 40.833 -7.66699 56.5 -23s23.5 -32 23.5 -50c0 -20 -7.66699 -37.5 -23 -52.5s-34.333 -22.5 -57 -22.5
c-24 0 -43.5 7.5 -58.5 22.5s-22.5 32.5 -22.5 52.5z" />
    <glyph glyph-name="at" unicode="@" horiz-adv-x="970" 
d="M587 0v33c-30 -27.333 -70.333 -41 -121 -41c-66 0 -120.167 22.167 -162.5 66.5s-63.5 102.166 -63.5 173.499c0 70 25 128.667 75 176s112.667 71 188 71c78 0 144 -20 198 -60v-313c73.333 11.333 110 69.333 110 174c0 87.333 -29.333 156.166 -88 206.499
s-135 75.5 -229 75.5c-95.333 0 -174.833 -30.667 -238.5 -92s-95.5 -139.333 -95.5 -234c0 -93.333 31.333 -171.166 94 -233.499s142.667 -93.5 240 -93.5c48 0 92 6.33301 132 19l8 -103c-44.667 -12.667 -91.334 -19 -140.001 -19
c-133.333 0 -240.5 40.833 -321.5 122.5s-121.5 184.167 -121.5 307.5c0 124.667 41.667 227.167 125 307.5s189.333 120.5 318 120.5s231.834 -35 309.501 -105s116.5 -162.333 116.5 -277c0 -35.333 -5.16699 -69.333 -15.5 -102s-25.5 -62.667 -45.5 -90
s-46.167 -49.166 -78.5 -65.499s-68.5 -24.5 -108.5 -24.5h-85zM486 94c19.333 0 38.498 5.66699 57.498 17s33.5 25 43.5 41v202c-23.333 15.333 -51.666 23 -84.999 23c-41.333 0 -75.833 -14.167 -103.5 -42.5s-41.5 -63.833 -41.5 -106.5
c0 -40.667 11.833 -73.167 35.5 -97.5s54.834 -36.5 93.501 -36.5z" />
    <glyph glyph-name="A" unicode="A" horiz-adv-x="704" 
d="M-1 0l307 700h92l307 -700h-127l-68 155h-319l-67 -155h-125zM350 525l-115 -266h230z" />
    <glyph glyph-name="B" unicode="B" horiz-adv-x="675" 
d="M70 0v700h297c88 0 150.667 -15.5 188 -46.5s56 -74.167 56 -129.5c0 -70 -28 -122 -84 -156c72 -22.667 108 -77.334 108 -164.001c0 -69.333 -24.333 -120.666 -73 -153.999s-115.667 -50 -201 -50h-291zM361 302h-170.001v-188h162
c54.667 0 94.334 7.66699 119.001 23s37 40 37 74c0 31.333 -11.5 54.333 -34.5 69s-60.833 22 -113.5 22zM350.999 586h-160v-174h173c38.667 0 68.667 7.5 90 22.5s32 35.833 32 62.5c0 30.667 -10 53.167 -30 67.5s-55 21.5 -105 21.5z" />
    <glyph glyph-name="C" unicode="C" horiz-adv-x="692" 
d="M606 200l70.999 -78c-28.667 -40.667 -68.167 -72.5 -118.5 -95.5s-105.5 -34.5 -165.5 -34.5c-110 0 -197.5 32.5 -262.5 97.5s-97.5 151.833 -97.5 260.5c0 102 33 187.167 99 255.5s152.333 102.5 259 102.5c61.333 0 116.333 -11.167 165 -33.5
s85.334 -51.5 110.001 -87.5l-80 -76c-48.667 54 -111.667 81 -189 81c-72 0 -129.667 -22 -173 -66s-65 -102.667 -65 -176c0 -72.667 22.5 -131.167 67.5 -175.5s103.5 -66.5 175.5 -66.5c84.667 0 152.667 30.667 204 92z" />
    <glyph glyph-name="D" unicode="D" horiz-adv-x="716" 
d="M70 0v699.999h219c70 0 131.167 -9 183.5 -27s93.5 -43.167 123.5 -75.5s52 -68.166 66 -107.499s21 -83 21 -131c0 -106.667 -34 -193.167 -102 -259.5s-169.667 -99.5 -305 -99.5h-206zM287 585.999h-96v-472h94c92.667 0 161.167 21.833 205.5 65.5
s66.5 103.5 66.5 179.5c0 151.333 -90 227 -270 227z" />
    <glyph glyph-name="E" unicode="E" horiz-adv-x="645" 
d="M70 0v700h520v-114h-399v-176h373v-110h-373v-186h409v-114h-530z" />
    <glyph glyph-name="F" unicode="F" horiz-adv-x="615" 
d="M70 0v700h515v-114h-394v-198h368v-114h-368v-274h-121z" />
    <glyph glyph-name="G" unicode="G" horiz-adv-x="715" 
d="M380 264l0.00195312 109.999h302v-271c-32 -35.333 -72.5 -62.666 -121.5 -81.999s-100.5 -29 -154.5 -29c-109.333 0 -198.833 32.833 -268.5 98.5s-104.5 152.167 -104.5 259.5c0 101.333 34 186.333 102 255s154 103 258 103c59.333 0 113.166 -10 161.499 -30
s85.5 -47.667 111.5 -83l-81 -77c-44 49.333 -106 74 -186 74c-72.667 0 -130.834 -21.833 -174.501 -65.5s-65.5 -102.5 -65.5 -176.5c0 -75.333 23 -134.5 69 -177.5s106 -64.5 180 -64.5c63.333 0 116 16.333 158 49v107h-186z" />
    <glyph glyph-name="H" unicode="H" horiz-adv-x="749" 
d="M558 0v297h-367v-297h-121v700h121v-289h367v289h121v-700h-121z" />
    <glyph glyph-name="I" unicode="I" horiz-adv-x="261" 
d="M70 0v700h121v-700h-121z" />
    <glyph glyph-name="J" unicode="J" horiz-adv-x="486" 
d="M419 700v-483.001c0 -72 -19 -127.5 -57 -166.5s-89 -58.5 -153 -58.5c-54 0 -98.833 12.333 -134.5 37s-62.834 55.667 -81.501 93l90 68c33.333 -56.667 72 -85 116 -85c34.667 0.666992 59.834 10.834 75.501 30.501s23.5 54.5 23.5 104.5v460h121z" />
    <glyph glyph-name="K" unicode="K" horiz-adv-x="680" 
d="M70 0v700h121v-307l314 307h158l-318 -314l341 -386h-161l-271 305l-63 -61v-244h-121z" />
    <glyph glyph-name="L" unicode="L" horiz-adv-x="598" 
d="M70 0v700h121v-586h397v-114h-518z" />
    <glyph glyph-name="M" unicode="M" horiz-adv-x="844" 
d="M70 0v700h107l250 -325l241 325h106v-700h-121v485l-213 -278h-31l-218 279v-486h-121z" />
    <glyph glyph-name="N" unicode="N" horiz-adv-x="738" 
d="M668 0h-94l-386 477v-477h-118v700h94l386 -479v479h118v-700z" />
    <glyph glyph-name="O" unicode="O" horiz-adv-x="782" 
d="M33 350c0 100.667 34.5 185.5 103.5 254.5s153.833 103.5 254.5 103.5s185.5 -34 254.5 -102s103.5 -153.333 103.5 -256c0 -102 -34.667 -187.167 -104 -255.5s-154 -102.5 -254 -102.5s-184.667 34 -254 102s-104 153.333 -104 256zM159 350
c0 -70.667 22.667 -128.667 68 -174s100 -68 164 -68c66 0 121.167 22.5 165.5 67.5s66.5 103.167 66.5 174.5c0 70.667 -22.833 128.667 -68.5 174s-100.167 68 -163.5 68c-64 0 -118.667 -22.5 -164 -67.5s-68 -103.167 -68 -174.5z" />
    <glyph glyph-name="P" unicode="P" horiz-adv-x="678" 
d="M191 0l-121.001 -0.000976562v700h283c56.667 0 104.834 -6.5 144.501 -19.5s69.667 -31.167 90 -54.5s34.833 -47.5 43.5 -72.5s13 -52.833 13 -83.5c0 -30 -5.16699 -58.167 -15.5 -84.5s-26.333 -50.666 -48 -72.999s-52 -40 -91 -53s-84.833 -19.5 -137.5 -19.5h-161
v-240zM356.999 586.999h-166v-234h159c112 0 168 39.333 168 118c0 77.333 -53.667 116 -161 116z" />
    <glyph glyph-name="Q" unicode="Q" horiz-adv-x="782" 
d="M33 350c0 100.667 34.5 185.5 103.5 254.5s153.833 103.5 254.5 103.5s185.5 -34 254.5 -102s103.5 -153.333 103.5 -256c0 -98.667 -34 -183 -102 -253l65 -79l-84 -68l-68 83c-50.667 -27.333 -107 -41 -169 -41c-103.333 0 -188.833 33.667 -256.5 101
s-101.5 153 -101.5 257zM159 350c0 -71.333 22 -129.5 66 -174.5s99.333 -67.5 166 -67.5c34 0 66.667 8 98 24l-57 67l77 66l60 -73c36 41.333 54 94 54 158c0 72 -22.167 130.333 -66.5 175s-99.5 67 -165.5 67c-66.667 0 -122 -22.333 -166 -67s-66 -103 -66 -175z" />
    <glyph glyph-name="R" unicode="R" horiz-adv-x="683" 
d="M191 0h-121.001v700h275c52.667 0 97.667 -6 135 -18s65.833 -28.5 85.5 -49.5s33.834 -43.833 42.501 -68.5s13 -52 13 -82c0 -48 -14 -90.333 -42 -127s-65.333 -61.667 -112 -75l210 -280h-147l-191 257h-148v-257zM341.999 586l-151 -0.000976562v-215h157
c46 0 82 9.83301 108 29.5s39 46.834 39 81.501c0 33.333 -11.5 59 -34.5 77s-62.5 27 -118.5 27z" />
    <glyph glyph-name="S" unicode="S" horiz-adv-x="631" 
d="M476 190c0 21.333 -7.99609 39.335 -23.9961 54.002s-36.667 26.167 -62 34.5s-53.333 16 -84 23s-61.334 15.333 -92.001 25s-58.667 21.5 -84 35.5s-46 33.5 -62 58.5s-24 54.833 -24 89.5c0 55.333 25.833 102.166 77.5 140.499s117.167 57.5 196.5 57.5
c115.333 0 205.666 -33.333 270.999 -100l-66 -86c-58.667 48.667 -128 73 -208 73c-41.333 0 -76 -6.83301 -104 -20.5s-42 -34.167 -42 -61.5c0 -22 10.667 -40.167 32 -54.5s48 -25 80 -32s66.667 -16 104 -27s72 -23 104 -36s58.667 -33.667 80 -62s32 -62.5 32 -102.5
c0 -60.667 -26 -110.334 -78 -149.001s-115.667 -58 -191 -58c-61.333 0 -120.333 12.167 -177 36.5s-100.334 54.833 -131.001 91.5l72 85c63.333 -66.667 145.666 -100 246.999 -100c42 0 74.667 7.5 98 22.5s35 35.833 35 62.5z" />
    <glyph glyph-name="T" unicode="T" horiz-adv-x="593" 
d="M1 586v114h591v-114h-235v-586h-121v586h-235z" />
    <glyph glyph-name="U" unicode="U" horiz-adv-x="726" 
d="M662 700l-0.00195312 -402.001c0 -52.667 -8.16699 -99.167 -24.5 -139.5s-38.666 -72.166 -66.999 -95.499s-59.166 -40.833 -92.499 -52.5s-69 -17.5 -107 -17.5c-87.333 0 -160.5 27.167 -219.5 81.5s-88.5 130.833 -88.5 229.5v396h121v-381
c0 -64 17.333 -115.5 52 -154.5s79.667 -58.5 135 -58.5c56 0 98.333 19 127 57s43 88.667 43 152v385h121z" />
    <glyph glyph-name="V" unicode="V" horiz-adv-x="722" 
d="M728 700l-316 -700h-86l-333 700h131l246 -525l230 525h128z" />
    <glyph glyph-name="W" unicode="W" horiz-adv-x="967" 
d="M966 700l-207 -700h-101l-171 487l-166 -487h-102l-218 700h126l149 -484l163 484h99l166 -482l142 482h120z" />
    <glyph glyph-name="X" unicode="X" horiz-adv-x="682" 
d="M667 700l-253 -345l262 -355h-148l-187 257l-187 -257h-147l262 355l-251 345h145l179 -245l179 245h146z" />
    <glyph glyph-name="Y" unicode="Y" horiz-adv-x="671" 
d="M678 700l-283 -397v-303h-121v303l-281 397h150l193 -279l197 279h145z" />
    <glyph glyph-name="Z" unicode="Z" horiz-adv-x="633" 
d="M29 586v114h574v-81l-418 -505h428v-114h-601v81l416 505h-399z" />
    <glyph glyph-name="bracketleft" unicode="[" horiz-adv-x="348" 
d="M60 -183v892h279v-112h-158v-668h158v-112h-279z" />
    <glyph glyph-name="backslash" unicode="\" horiz-adv-x="357" 
d="M65 717l328 -881l-101 -39l-329 887z" />
    <glyph glyph-name="bracketright" unicode="]" horiz-adv-x="348" 
d="M288 709v-892h-279v112h158v668h-158v112h279z" />
    <glyph glyph-name="asciicircum" unicode="^" horiz-adv-x="515" 
d="M23 412l200 295h71l198 -295h-131l-103 158l-105 -158h-130z" />
    <glyph glyph-name="underscore" unicode="_" horiz-adv-x="332" 
d="M0 -183v103h332v-103h-332z" />
    <glyph glyph-name="grave" unicode="`" horiz-adv-x="367" 
d="M300 598l-137 154l89 67l115 -167z" />
    <glyph glyph-name="a" unicode="a" horiz-adv-x="534" 
d="M109 371l-56.001 84.002c24.667 24 56.5 42.833 95.5 56.5s79.833 20.5 122.5 20.5c68 0 120.5 -18.667 157.5 -56s55.5 -90 55.5 -158v-318h-114v57c-38 -42 -91.667 -63 -161 -63c-57.333 0 -103.166 14.833 -137.499 44.5s-51.5 69.5 -51.5 119.5
c0 55.333 22.167 96.666 66.5 123.999s103.166 41 176.499 41c43.333 0 79 -4.66699 107 -14c0.666992 39.333 -7.66602 68.666 -24.999 87.999s-46.333 29 -87 29c-51.333 0 -101 -18.333 -149 -55zM233.999 93.002c59.333 0 104.668 23.668 136.001 71.001v50
c-28 9.33301 -59.667 14 -95 14c-91.333 0 -137 -23 -137 -69c0 -20.667 8.66699 -36.834 26 -48.501s40.666 -17.5 69.999 -17.5z" />
    <glyph glyph-name="b" unicode="b" horiz-adv-x="590" 
d="M53 82l-0.000976562 648h114v-257c38 39.333 88.333 59 151 59c76.667 0 136.334 -24.167 179.001 -72.5s64 -111.833 64 -190.5c0 -85.333 -24.667 -153 -74 -203s-115 -75 -197 -75c-46.667 0 -91 7.83301 -133 23.5s-76.667 38.167 -104 67.5zM296.999 426
c-27.333 0 -52.667 -7.5 -76 -22.5s-41.333 -34.167 -54 -57.5v-201c28.667 -32 70.667 -48 126 -48c44 0 80 14.5 108 43.5s42 69.833 42 122.5c0 51.333 -13.167 91.333 -39.5 120s-61.833 43 -106.5 43z" />
    <glyph glyph-name="c" unicode="c" horiz-adv-x="538" 
d="M451 171l81.001 -51.998c-20.667 -40.667 -51.334 -72.167 -92.001 -94.5s-84.334 -33.5 -131.001 -33.5c-84 0 -151.667 24.667 -203 74s-77 114.666 -77 195.999c0 78 25.333 142.667 76 194s116.667 77 198 77c52 0 97.833 -10.833 137.5 -32.5
s68.167 -50.167 85.5 -85.5l-85 -56c-34 45.333 -78.333 68 -133 68c-47.333 0 -86 -15.333 -116 -46s-45 -70.334 -45 -119.001c0 -47.333 15.833 -86.5 47.5 -117.5s73.5 -46.5 125.5 -46.5c54.667 0 98.334 24.667 131.001 74z" />
    <glyph glyph-name="d" unicode="d" horiz-adv-x="593" 
d="M426 0l0.000976562 57.002c-11.333 -16 -29.833 -30.833 -55.5 -44.5s-55.834 -20.5 -90.501 -20.5c-75.333 0 -136 23.667 -182 71s-69 112.666 -69 195.999c0 79.333 25.167 144.666 75.5 195.999s111.5 77 183.5 77c62 0 108 -13 138 -39v237h114v-730h-114z
M301.001 98.002c28 0 53.501 8.16895 76.501 24.502s39.167 35.166 48.5 56.499v190c-26.667 38 -66.334 57 -119.001 57c-45.333 0 -83.333 -14.833 -114 -44.5s-46 -69.834 -46 -120.501c0 -50 14.167 -89.667 42.5 -119s65.5 -44 111.5 -44z" />
    <glyph glyph-name="e" unicode="e" horiz-adv-x="569" 
d="M449 166l70 -69.001c-52.667 -70.667 -123 -106 -211 -106c-84 0 -151.5 24.5 -202.5 73.5s-76.5 114.5 -76.5 196.5c0 79.333 23.5 144.333 70.5 195s112.5 76 196.5 76c70.667 0 129 -21.833 175 -65.5s69 -101.167 69 -172.5c0 -17.333 -2 -41.666 -6 -72.999h-386
c4.66699 -40 21.667 -70.667 51 -92s66.333 -32 111 -32c58.667 0 105 23 139 69zM291 428.999c-38 0 -69.332 -9.66699 -93.999 -29s-40.667 -46 -48 -80h273c-4.66699 35.333 -18.334 62.333 -41.001 81s-52.667 28 -90 28z" />
    <glyph glyph-name="f" unicode="f" horiz-adv-x="343" 
d="M3 414v106.001h84v17c0 69.333 17.333 120.166 52 152.499s78 48.5 130 48.5c28 0 54 -5.5 78 -16.5s42.667 -25.833 56 -44.5l-64 -72c-14.667 18 -36 27 -64 27c-49.333 0 -74 -32.667 -74 -98v-14h146v-106h-146v-414h-114v414h-84z" />
    <glyph glyph-name="g" unicode="g" horiz-adv-x="589" 
d="M536 520l0.00195312 -478.001c0 -84 -21.333 -146.833 -64 -188.5s-101.334 -62.5 -176.001 -62.5c-58.667 0 -108.834 11.833 -150.501 35.5s-70.167 56.5 -85.5 98.5l99 43c10.667 -20 26.834 -36.833 48.501 -50.5s48.167 -20.5 79.5 -20.5c90 0 135 41.333 135 124
v23c-22.667 -35.333 -68.667 -53 -138 -53c-76.667 0 -138.334 23.833 -185.001 71.5s-70 113.834 -70 198.501c0 81.333 24.833 146.333 74.5 195s110.167 73 181.5 73c61.333 0 107 -14.333 137 -43v34h114zM303.002 96.999c28.667 0 53.666 7.66602 74.999 22.999
s36 34 44 56v192c-24 36.667 -64 55 -120 55c-44 0 -80.833 -14.333 -110.5 -43s-44.5 -69 -44.5 -121c0 -51.333 13.833 -91.166 41.5 -119.499s65.834 -42.5 114.501 -42.5z" />
    <glyph glyph-name="h" unicode="h" horiz-adv-x="584" 
d="M53 0l-0.000976562 730h114v-255c37.333 37.333 87.666 56 150.999 56c144 0 216 -79.333 216 -238v-293h-114v286c0 48.667 -10.167 84 -30.5 106s-52.166 33 -95.499 33c-27.333 0 -52.166 -7.66699 -74.499 -23s-39.833 -36.333 -52.5 -63v-339h-114z" />
    <glyph glyph-name="i" unicode="i" horiz-adv-x="239" 
d="M63 0v520h114v-520h-114zM53 669c0 17.333 6.5 31.668 19.5 43.001s28.833 17 47.5 17s34.334 -5.83301 47.001 -17.5s19 -25.834 19 -42.501c0 -18 -6.33301 -32.833 -19 -44.5s-28.334 -17.5 -47.001 -17.5c-20 0 -36.167 5.83301 -48.5 17.5s-18.5 26.5 -18.5 44.5z
" />
    <glyph glyph-name="j" unicode="j" horiz-adv-x="239" 
d="M178 520v-521c0 -66.667 -14.333 -118 -43 -154s-71.667 -54 -129 -54c-82 0 -137.333 33.333 -166 100l97 43c15.333 -24.667 35.333 -37 60 -37c44.667 0 67 35 67 105v518h114zM54 670c0 17.333 6.16699 31.666 18.5 42.999s28.5 17 48.5 17
c18.667 0 34.167 -5.66699 46.5 -17s18.5 -25.666 18.5 -42.999c0 -18.667 -6 -33.834 -18 -45.501s-27.667 -17.5 -47 -17.5c-20 0 -36.167 5.83301 -48.5 17.5s-18.5 26.834 -18.5 45.501z" />
    <glyph glyph-name="k" unicode="k" horiz-adv-x="528" 
d="M53 0v730h114v-415l210 205h147l-237 -229l249 -291h-145l-191 216l-33 -26v-190h-114z" />
    <glyph glyph-name="l" unicode="l" horiz-adv-x="220" 
d="M53 0v730h114v-730h-114z" />
    <glyph glyph-name="m" unicode="m" horiz-adv-x="851" 
d="M801 345v-345h-114v313c0 74.667 -29 112 -87 112c-53.333 0 -92 -26.667 -116 -80v-345h-114v338c0 26 -7.5 47 -22.5 63s-35.833 24 -62.5 24c-28 0 -52.333 -8.5 -73 -25.5s-35.667 -36.833 -45 -59.5v-340h-114v520h114v-45c26.667 37.333 74 56 142 56
c65.333 0 112.333 -21.333 141 -64c36 42.667 88.333 64 157 64c61.333 0 109 -15.5 143 -46.5s51 -77.5 51 -139.5z" />
    <glyph glyph-name="n" unicode="n" horiz-adv-x="586" 
d="M53 0l0.000976562 520h114v-47c39.333 38.667 92.666 58 159.999 58c139.333 0 209 -79 209 -237v-294h-114v285c0 49.333 -10.333 85 -31 107s-53 33 -97 33c-28 0 -53.333 -7.83301 -76 -23.5s-39.667 -37.167 -51 -64.5v-337h-114z" />
    <glyph glyph-name="o" unicode="o" horiz-adv-x="615" 
d="M29 261c0 78.667 25.833 143.5 77.5 194.5s118.5 76.5 200.5 76.5s149 -25.5 201 -76.5s78 -115.833 78 -194.5c0 -78 -26 -142.5 -78 -193.5s-119 -76.5 -201 -76.5c-80.667 0 -147.167 25.5 -199.5 76.5s-78.5 115.5 -78.5 193.5zM147 261
c0 -47.333 14.833 -86.499 44.5 -117.499s68.167 -46.5 115.5 -46.5c48 0 86.833 15 116.5 45s44.5 69.667 44.5 119s-15.333 89.166 -46 119.499s-69 45.5 -115 45.5c-46.667 0 -85 -15 -115 -45s-45 -70 -45 -120z" />
    <glyph glyph-name="p" unicode="p" horiz-adv-x="592" 
d="M53 -200l0.000976562 720h114v-47c15.333 19.333 36.166 34 62.499 44s53.5 15 81.5 15c77.333 0 138.666 -24.333 183.999 -73s68 -112 68 -190c0 -80.667 -24 -147.167 -72 -199.5s-110.667 -78.5 -188 -78.5c-67.333 0 -112.666 14.333 -135.999 43v-234h-114z
M299.001 426c-31.333 0 -58.333 -8 -81 -24s-39.667 -36.333 -51 -61v-180c25.333 -42.667 66.333 -64 123 -64c46.667 0 84.167 15 112.5 45s42.5 69.333 42.5 118c0 52 -13 92.667 -39 122s-61.667 44 -107 44z" />
    <glyph glyph-name="q" unicode="q" horiz-adv-x="589" 
d="M422 -200v241.001c-28 -33.333 -73.667 -50 -137 -50c-76 0 -137.667 24.667 -185 74s-71 114.666 -71 195.999c0 78.667 26.333 143 79 193s117.667 75 195 75c53.333 0 93 -11 119 -33v24h114v-720h-114zM301 97.001c26.667 0 51 6.33203 73 18.999
s38 29.334 48 50.001v209c-24.667 32 -64 48 -118 48c-44 0 -81.167 -15.333 -111.5 -46s-45.5 -70 -45.5 -118c0 -50 14.5 -89.5 43.5 -118.5s65.833 -43.5 110.5 -43.5z" />
    <glyph glyph-name="r" unicode="r" horiz-adv-x="363" 
d="M53 0l0.000976562 520h114v-35c6.66699 13.333 19.167 24.333 37.5 33s37.166 13 56.499 13c44.667 0 79 -15.333 103 -46l-65 -83c-10 15.333 -27.333 23 -52 23c-18.667 0 -35.167 -6.33301 -49.5 -19s-24.5 -30.667 -30.5 -54v-352h-114z" />
    <glyph glyph-name="s" unicode="s" horiz-adv-x="496" 
d="M356 148c0 14 -10.833 26.0059 -32.5 36.0059s-47.834 19.167 -78.501 27.5s-61.5 18.166 -92.5 29.499s-57.333 28.666 -79 51.999s-32.5 51.333 -32.5 84c0 48 19 85.833 57 113.5s90.333 41.5 157 41.5c44.667 0 86.334 -9 125.001 -27s67 -39.667 85 -65l-78 -74
c-34.667 40 -85 60 -151 60c-51.333 0 -77 -15.667 -77 -47c0 -10.667 7.83301 -20.334 23.5 -29.001s35.167 -15.834 58.5 -21.501s48.5 -13.334 75.5 -23.001s52.167 -20.167 75.5 -31.5s42.833 -27.833 58.5 -49.5s23.5 -46.834 23.5 -75.501
c0 -52 -20.333 -91.333 -61 -118s-91.667 -40 -153 -40c-56 0 -105.333 11.667 -148 35s-73.667 53.333 -93 90l90 62c14.667 -23.333 37 -42.666 67 -57.999s61.667 -23 95 -23c24 0 44.167 4.16699 60.5 12.5s24.5 21.166 24.5 38.499z" />
    <glyph glyph-name="t" unicode="t" horiz-adv-x="413" 
d="M3 414l-0.000976562 106h90v107h114v-107h168v-106h-168v-201c0 -41.333 5.16699 -70.5 15.5 -87.5s27.5 -25.5 51.5 -25.5c26.667 0 51.334 14.667 74.001 44l68 -64c-14.667 -25.333 -36.167 -46 -64.5 -62s-59.833 -24 -94.5 -24c-50.667 0 -90.667 16 -120 48
s-44 78.333 -44 139v233h-90z" />
    <glyph glyph-name="u" unicode="u" horiz-adv-x="578" 
d="M525 523l0.000976562 -523h-114v55c-38 -42.667 -86.333 -64 -145 -64c-72.667 0 -126.834 19 -162.501 57s-53.5 96.667 -53.5 176v299h114v-288c0 -92 37.667 -138 113 -138c59.333 0 104 30 134 90v336h114z" />
    <glyph glyph-name="v" unicode="v" horiz-adv-x="519" 
d="M538 520l-231 -520h-84l-242 520h129l157 -347l150 347h121z" />
    <glyph glyph-name="w" unicode="w" horiz-adv-x="755" 
d="M765 520l-168 -520h-91l-126 338l-127 -338h-89l-174 520h118l108 -329l122 329h86l124 -330l101 330h116z" />
    <glyph glyph-name="x" unicode="x" horiz-adv-x="555" 
d="M548 520l-199 -251l209 -269h-141l-141 185l-144 -185h-135l208 267l-198 253h140l132 -167l132 167h137z" />
    <glyph glyph-name="y" unicode="y" horiz-adv-x="548" 
d="M75 -194l45 97c6.66699 -4 14.334 -6 23.001 -6c31.333 0 58.666 29 81.999 87l18 47l-256 489h132l179 -351l138 351h122l-204 -505c-34.667 -84.667 -67.167 -143.167 -97.5 -175.5s-66.833 -48.5 -109.5 -48.5c-28 0 -52 5 -72 15z" />
    <glyph glyph-name="z" unicode="z" horiz-adv-x="504" 
d="M36 414v106h448v-73l-292 -341h287v-106h-459v74l292 340h-276z" />
    <glyph glyph-name="braceleft" unicode="{" horiz-adv-x="345" 
d="M96 -38v164.999c0 30.667 -6.83301 52.5 -20.5 65.5s-34.5 19.5 -62.5 19.5v101c29.333 0 50.5 5.33301 63.5 16s19.5 31.667 19.5 63v165c0 54 12.167 92.833 36.5 116.5s64.833 35.5 121.5 35.5h78v-101h-55c-24.667 0 -41.834 -6.16699 -51.501 -18.5
s-14.5 -32.5 -14.5 -60.5v-161c0 -53.333 -19.333 -87.666 -58 -102.999c38.667 -12.667 58 -48 58 -106v-167c0 -28 4.83301 -47.333 14.5 -58s26.834 -16 51.501 -16h55v-101h-90c-48.667 0 -85.167 11.5 -109.5 34.5s-36.5 59.833 -36.5 110.5z" />
    <glyph glyph-name="bar" unicode="|" horiz-adv-x="312" 
d="M97 0v700h118v-700h-118z" />
    <glyph glyph-name="braceright" unicode="}" horiz-adv-x="345" 
d="M249 127l-0.000976562 -164.999c0 -50.667 -12.167 -87.5 -36.5 -110.5s-60.833 -34.5 -109.5 -34.5h-90v101h55c24.667 0 41.834 5.33301 51.501 16s14.5 30 14.5 58v167c0 58 19.333 93.333 58 106c-38.667 15.333 -58 49.666 -58 102.999v161
c0 28 -4.66699 48.167 -14 60.5s-26.333 18.5 -51 18.5h-56v101h78c57.333 0 98 -11.667 122 -35s36 -62.333 36 -117v-165c0 -31.333 6.5 -52.333 19.5 -63s34.167 -16 63.5 -16v-101c-28 0 -48.833 -6.5 -62.5 -19.5s-20.5 -34.833 -20.5 -65.5z" />
    <glyph glyph-name="asciitilde" unicode="~" horiz-adv-x="570" 
d="M84 280l-57.998 76.9971c18.667 18.667 34.667 33.334 48 44.001s31.166 20.334 53.499 29.001s45.5 12.334 69.5 11.001c26 -2 59.667 -13.5 101 -34.5s72.666 -31.5 93.999 -31.5c38 0 72 19.667 102 59l50 -80c-20.667 -24 -44.167 -42.833 -70.5 -56.5
s-51.5 -20.5 -75.5 -20.5c-33.333 0 -71.333 11.167 -114 33.5s-75 33.5 -97 33.5c-34 0 -68.333 -21.333 -103 -64z" />
    <glyph glyph-name="uni00A0" unicode="&#xa0;" horiz-adv-x="236" 
 />
    <glyph glyph-name="exclamdown" unicode="&#xa1;" horiz-adv-x="309" 
d="M96 -182v485h118v-485h-118zM73 445c0 20 7.49902 37.5 22.499 52.5s34.5 22.5 58.5 22.5c22.667 0 41.667 -7.5 57 -22.5s23 -32.5 23 -52.5c0 -18 -7.83301 -34.667 -23.5 -50s-34.5 -23 -56.5 -23c-23.333 0 -42.666 7.5 -57.999 22.5s-23 31.833 -23 50.5z" />
    <glyph glyph-name="cent" unicode="&#xa2;" horiz-adv-x="538" 
d="M451 171l80.999 -52.002c-17.333 -33.333 -41.166 -60.666 -71.499 -81.999s-64.166 -35 -101.499 -41v-196h-120v198c-64.667 12.667 -115.834 42.334 -153.501 89.001s-56.5 104.667 -56.5 174c0 66.667 19 124.167 57 172.5s89 78.833 153 91.5v175h120v-173
c38.667 -6.66699 72.667 -20 102 -40s51 -44.333 65 -73l-85 -56c-27.333 36 -59 57.333 -95 64v-323c42.667 6.66699 77.667 30.667 105 72zM146.999 260.998c0 -36 9.5 -67.667 28.5 -95s44.833 -46.666 77.5 -57.999v309c-32.667 -10.667 -58.5 -29.834 -77.5 -57.501
s-28.5 -60.5 -28.5 -98.5z" />
    <glyph glyph-name="sterling" unicode="&#xa3;" horiz-adv-x="595" 
d="M64 260l0.000976562 96.001h57c-0.666992 2 -3.33398 8.33301 -8.00098 19s-7.66699 18 -9 22l-7 21c-3.33301 10 -5.5 18.5 -6.5 25.5s-2.16699 15.5 -3.5 25.5s-2 20.333 -2 31c0 56 20.667 104.5 62 145.5s95.666 61.5 162.999 61.5c90 0 161 -29.667 213 -89l-64 -91
c-44.667 44.667 -95 67 -151 67c-28 0 -51.833 -9.33301 -71.5 -28s-29.5 -43.334 -29.5 -74.001c0 -14 2 -28 6 -42s10 -30.833 18 -50.5s13.667 -34.167 17 -43.5h168v-96h-148c0.666992 -4.66699 1 -11.667 1 -21c0 -41.333 -9.66699 -74 -29 -98
c18 -0.666992 46.833 -7.66699 86.5 -21s69.5 -20 89.5 -20c20.667 0 37.834 3.83301 51.501 11.5s29.5 22.167 47.5 43.5l59 -79c-42 -51.333 -94.333 -77 -157 -77c-28.667 0 -66.667 7.5 -114 22.5s-83.666 22.5 -108.999 22.5c-42.667 0 -82.334 -18 -119.001 -54
l-53 85c30 30 62 50.667 96 62c22 28 33 60.667 33 98c0 6 -0.666992 14.333 -2 25h-85z" />
    <glyph glyph-name="currency" unicode="&#xa4;" horiz-adv-x="630" 
d="M75 347c0 48 12.334 91.333 37.001 130l-86 87l74 73l88 -87c38.667 23.333 81 35 127 35c47.333 0 89.666 -11.667 126.999 -35l93 91l74 -73l-91 -92c25.333 -40.667 38 -83.667 38 -129c0 -46 -12.667 -88.667 -38 -128l87 -88l-73 -74l-89 89
c-35.333 -24 -78 -36 -128 -36s-93 12 -129 36l-93 -93l-72 73l91 93c-24.667 40 -37 82.667 -37 128zM189.001 347c0 -36.667 11.8311 -67.667 35.498 -93s53.834 -38 90.501 -38c37.333 0 67.833 12.5 91.5 37.5s35.5 56.167 35.5 93.5c0 38 -12 69.667 -36 95
s-54.333 38 -91 38c-37.333 0 -67.666 -12.667 -90.999 -38s-35 -57 -35 -95z" />
    <glyph glyph-name="yen" unicode="&#xa5;" horiz-adv-x="671" 
d="M109 302v99h95l-211 299h150l193 -279l197 279h145l-213 -299h96v-99h-166v-85h166v-99h-166v-118h-121v118h-165v99h165v85h-165z" />
    <glyph glyph-name="brokenbar" unicode="&#xa6;" horiz-adv-x="312" 
d="M215 403h-118v297h118v-297zM97 297h118v-297h-118v297z" />
    <glyph glyph-name="section" unicode="&#xa7;" horiz-adv-x="507" 
d="M44 258c0 39.333 8.83301 73.332 26.5 101.999s42.5 50.334 74.5 65.001c-36.667 29.333 -55 68.333 -55 117c0 46.667 16.667 84.667 50 114s75 44 125 44c64 0 118 -28.667 162 -86l-75 -68c-23.333 28 -50.333 42 -81 42c-16.667 0 -31 -5.66699 -43 -17
s-18 -25 -18 -41c0 -20 5.5 -35.833 16.5 -47.5s26.833 -21.834 47.5 -30.501c56.667 -4.66699 102.334 -25 137.001 -61s52 -80.333 52 -133c0 -37.333 -9.33301 -71 -28 -101s-43.334 -52.667 -74.001 -68c36 -29.333 54 -66.666 54 -111.999
c0 -47.333 -16.333 -85.833 -49 -115.5s-74.334 -44.5 -125.001 -44.5c-64.667 0 -118.667 28 -162 84l70 81c24.667 -35.333 55.334 -53 92.001 -53c16.667 0 30.667 5.5 42 16.5s17 25.5 17 43.5c0 16 -6.5 30.667 -19.5 44s-29.5 23.333 -49.5 30
c-57.333 4.66699 -102.833 25 -136.5 61s-50.5 80.667 -50.5 134zM159 257.999c0 -27.333 9.16699 -50.333 27.5 -69s40.5 -28 66.5 -28c26.667 0 49 9.16699 67 27.5s27 41.5 27 69.5c0 27.333 -9 50.333 -27 69s-40.333 28 -67 28c-26 0 -48.167 -9.33301 -66.5 -28
s-27.5 -41.667 -27.5 -69z" />
    <glyph glyph-name="dieresis" unicode="&#xa8;" horiz-adv-x="473" 
d="M126 672c0 16.667 6.33105 30.5 18.998 41.5s27.334 16.5 44.001 16.5c16 0 30.667 -5.5 44 -16.5s20 -24.833 20 -41.5c0 -18 -6.5 -32.667 -19.5 -44s-27.833 -17 -44.5 -17c-17.333 0 -32.166 5.66699 -44.499 17s-18.5 26 -18.5 44zM342.998 672
c0 16.667 6.5 30.5 19.5 41.5s28.5 16.5 46.5 16.5c16.667 0 31.5 -5.5 44.5 -16.5s19.5 -24.833 19.5 -41.5c0 -18.667 -6.16699 -33.5 -18.5 -44.5s-27.5 -16.5 -45.5 -16.5s-33.5 5.5 -46.5 16.5s-19.5 25.833 -19.5 44.5z" />
    <glyph glyph-name="copyright" unicode="&#xa9;" horiz-adv-x="966" 
d="M52 232c0 118.667 41.333 219.167 124 301.5s185 123.5 307 123.5c123.333 0 226 -40 308 -120s123 -181.667 123 -305c0 -122 -41 -223.5 -123 -304.5s-184.667 -121.5 -308 -121.5c-124 0 -226.833 39.5 -308.5 118.5s-122.5 181.5 -122.5 307.5zM157 232
c0 -92 31.333 -169.499 94 -232.499s140 -94.5 232 -94.5c94 0 171.833 31.167 233.5 93.5s92.5 140.166 92.5 233.499c0 96 -30.167 174.333 -90.5 235s-138.833 91 -235.5 91c-91.333 0 -168.5 -31.667 -231.5 -95s-94.5 -140.333 -94.5 -231zM629 157.001l61.999 -71
c-19.333 -28 -47 -50.667 -83 -68s-72 -26 -108 -26c-75.333 0 -136.5 22.333 -183.5 67s-70.5 103.667 -70.5 177c0 68 23.167 125.5 69.5 172.5s103.5 70.5 171.5 70.5c82.667 0 147.334 -28.333 194.001 -85l-71 -68c-32 33.333 -70 50 -114 50
c-39.333 0 -70.833 -12.667 -94.5 -38s-35.5 -58.333 -35.5 -99c0 -44 13.167 -79.333 39.5 -106s59.833 -40 100.5 -40c45.333 0 86.333 21.333 123 64z" />
    <glyph glyph-name="ordfeminine" unicode="&#xaa;" horiz-adv-x="455" 
d="M104 533l-36 71.999c42.667 28 97.667 42.333 165 43c50 0 88.833 -12.333 116.5 -37s41.5 -59 41.5 -103v-209h-101v36c-20.667 -26.667 -56 -40 -106 -40c-41.333 0 -74.5 9.83301 -99.5 29.5s-37.5 45.834 -37.5 78.501c0 36 16 62.833 48 80.5s74 26.5 126 26.5
c28 0 51 -2.66699 69 -8c0 20 -5.33301 34.667 -16 44s-30 14 -58 14c-36 0 -73.333 -9 -112 -27zM212 378.999c33.333 0 59.333 12 78 36v19c-23.333 6.66699 -47.333 10 -72 10c-44 0 -66 -11.333 -66 -34c0 -20.667 20 -31 60 -31z" />
    <glyph glyph-name="guillemotleft" unicode="&#xab;" horiz-adv-x="553" 
d="M222 38l-185 218v6l185 212l78 -69l-127 -147l127 -148zM432 38l-184 218v6l185 212l78 -69l-127 -147l127 -148z" />
    <glyph glyph-name="logicalnot" unicode="&#xac;" horiz-adv-x="545" 
d="M35 310v99h475v-219h-96v120h-379z" />
    <glyph glyph-name="uni00AD" unicode="&#xad;" horiz-adv-x="416" 
d="M69 227v101h278v-101h-278z" />
    <glyph glyph-name="registered" unicode="&#xae;" horiz-adv-x="577" 
d="M38 485c0 67.333 24.5 124.667 73.5 172s108.167 71 177.5 71c68.667 0 127.5 -23.833 176.5 -71.5s73.5 -104.834 73.5 -171.501c0 -68 -24.5 -126 -73.5 -174s-107.833 -72 -176.5 -72c-69.333 0 -128.5 23.833 -177.5 71.5s-73.5 105.834 -73.5 174.501zM82 484.001
c0 -56.667 19.999 -104.334 59.999 -143.001s88.667 -58 146 -58c56 0 104.5 20.333 145.5 61s61.5 87.334 61.5 140.001c0 56 -20.667 103.5 -62 142.5s-89.666 58.5 -144.999 58.5c-56.667 0 -105.167 -20 -145.5 -60s-60.5 -87 -60.5 -141zM253.999 341.001h-83v290h110
c86 0 129 -32 129 -96c0 -40.667 -17 -68.667 -51 -84l66 -110h-94l-46 81h-31v-81zM320.999 527.001c0 20 -12.333 30 -37 30h-30v-59h32c10 0 18.333 2.66699 25 8s10 12.333 10 21z" />
    <glyph glyph-name="macron" unicode="&#xaf;" horiz-adv-x="451" 
d="M170 625v95h281v-95h-281z" />
    <glyph glyph-name="degree" unicode="&#xb0;" horiz-adv-x="410" 
d="M38 551c0 45.333 16.333 83.668 49 115.001s72 47 118 47c46.667 0 86.167 -15.5 118.5 -46.5s48.5 -69.167 48.5 -114.5c0 -44.667 -16.333 -82.834 -49 -114.501s-72 -47.5 -118 -47.5s-85.333 15.667 -118 47s-49 69.333 -49 114zM146 551.002
c0 -16.667 5.83301 -30.167 17.5 -40.5s25.5 -15.5 41.5 -15.5s29.833 5.16699 41.5 15.5s17.5 23.833 17.5 40.5s-5.83301 30.334 -17.5 41.001s-25.5 16 -41.5 16s-29.833 -5.33301 -41.5 -16s-17.5 -24.334 -17.5 -41.001z" />
    <glyph glyph-name="plusminus" unicode="&#xb1;" horiz-adv-x="552" 
d="M51 382v98h175v183h99v-183h177v-98h-177v-109h-99v109h-175zM51 139v99h451v-99h-451z" />
    <glyph glyph-name="twosuperior" unicode="&#xb2;" horiz-adv-x="421" 
d="M110 568l-75 46.001c14.667 35.333 38 62.5 70 81.5s69.333 28.5 112 28.5c47.333 0 85 -11.333 113 -34s42 -52.334 42 -89.001c0 -67.333 -37.667 -125.333 -113 -174l-52 -33h181v-94h-345v81l88 54c90.667 56 136 103.333 136 142c0 35.333 -19.667 53 -59 53
c-44 0 -76.667 -20.667 -98 -62z" />
    <glyph glyph-name="threesuperior" unicode="&#xb3;" horiz-adv-x="429" 
d="M106 579l-70.002 54c37.333 61.333 97.333 92 180 92c49.333 0 88.5 -9.5 117.5 -28.5s43.5 -44.5 43.5 -76.5c0 -43.333 -21 -75.333 -63 -96c48.667 -14.667 73 -47.667 73 -99c0 -39.333 -16.667 -70.833 -50 -94.5s-75.666 -35.5 -126.999 -35.5
c-88 0 -149 34.667 -183 104l78 48c7.33301 -17.333 20.333 -31.333 39 -42s40.667 -16 66 -16c47.333 0 71 13.667 71 41s-24.333 41 -73 41h-47v81h39c47.333 0 71 14.333 71 43c0 24 -19 36 -57 36c-26 0 -47.167 -4.16699 -63.5 -12.5s-31.166 -21.5 -44.499 -39.5z" />
    <glyph glyph-name="acute" unicode="&#xb4;" horiz-adv-x="447" 
d="M431 755l-127 -157l-77 54l118 167z" />
    <glyph glyph-name="mu" unicode="&#xb5;" horiz-adv-x="583" 
d="M530 520l0.000976562 -520h-114v44c-36.667 -35.333 -86.667 -53 -150 -53c-40.667 0 -73.667 10.667 -99 32v-222h-114v719h114v-285c0 -48 9.16699 -83 27.5 -105s48.166 -33 89.499 -33c24.667 0 49.167 5.66699 73.5 17s43.833 25.333 58.5 42v364h114z" />
    <glyph glyph-name="mu" unicode="&#x3bc;" horiz-adv-x="583" 
d="M530 520l0.000976562 -520h-114v44c-36.667 -35.333 -86.667 -53 -150 -53c-40.667 0 -73.667 10.667 -99 32v-222h-114v719h114v-285c0 -48 9.16699 -83 27.5 -105s48.166 -33 89.499 -33c24.667 0 49.167 5.66699 73.5 17s43.833 25.333 58.5 42v364h114z" />
    <glyph glyph-name="paragraph" unicode="&#xb6;" horiz-adv-x="446" 
d="M32 470c0 71.333 20.1689 127.501 60.502 168.501s95.166 61.5 164.499 61.5h164v-101h-86v-577c0 -31.333 -2.33301 -58.833 -7 -82.5s-13 -45.834 -25 -66.501s-29.333 -36.5 -52 -47.5s-50.667 -16.5 -84 -16.5c-24.667 0 -49 4.83301 -73 14.5s-44 23.167 -60 40.5
l50 87c25.333 -19.333 51.666 -29 78.999 -29c20.667 0 35.167 8 43.5 24s12.5 41.333 12.5 76v222c-55.333 7.33301 -100.333 30.833 -135 70.5s-52 91.5 -52 155.5z" />
    <glyph glyph-name="periodcentered" unicode="&#xb7;" horiz-adv-x="236" 
d="M39 301c0 15.333 6.66699 29.333 20 42s30 19 50 19c18 0 33.667 -6.33301 47 -19s20 -26.667 20 -42c0 -17.333 -6.5 -32.333 -19.5 -45s-28.833 -19 -47.5 -19c-20.667 0 -37.5 6.33301 -50.5 19s-19.5 27.667 -19.5 45z" />
    <glyph glyph-name="cedilla" unicode="&#xb8;" horiz-adv-x="448" 
d="M192 -166l35.001 59.001c21.333 -16.667 47.333 -25 78 -25c26.667 0 40 7 40 21c0 15.333 -16.667 23 -50 23h-13v88h63v-32c33.333 -2 58.833 -10.5 76.5 -25.5s26.5 -34.833 26.5 -59.5c0 -26.667 -11.667 -48.334 -35 -65.001s-57.333 -25 -102 -25
s-84.334 13.667 -119.001 41z" />
    <glyph glyph-name="onesuperior" unicode="&#xb9;" horiz-adv-x="315" 
d="M10 653l162 68h77v-421h-105v305l-97 -40z" />
    <glyph glyph-name="ordmasculine" unicode="&#xba;" horiz-adv-x="462" 
d="M47 472c0 52.667 17 95.167 51 127.5s78.333 48.5 133 48.5c55.333 0 100 -16.167 134 -48.5s51 -74.833 51 -127.5c0 -52 -17.167 -94.5 -51.5 -127.5s-78.833 -49.5 -133.5 -49.5s-99 16.5 -133 49.5s-51 75.5 -51 127.5zM152 472c0 -24 7.66699 -43.333 23 -58
s34 -22 56 -22c24 0 43.333 7.33301 58 22s22 34 22 58s-7.66699 43 -23 57s-34.333 21 -57 21c-23.333 0 -42.333 -7 -57 -21s-22 -33 -22 -57z" />
    <glyph glyph-name="guillemotright" unicode="&#xbb;" horiz-adv-x="553" 
d="M511 256l-184 -218l-79 72l128 148l-127 147l77 69l185 -212v-6zM301 256l-185 -218l-78 72l127 148l-127 147l77 69l186 -212v-6z" />
    <glyph glyph-name="onequarter" unicode="&#xbc;" horiz-adv-x="886" 
d="M110 48l549 672l83 -66l-547 -676zM27 653l162 68h77v-421h-105v305l-97 -40zM685 0v76h-246v73l258 271h87v-253h76v-91h-76v-76h-99zM560 167h125v126z" />
    <glyph glyph-name="onehalf" unicode="&#xbd;" horiz-adv-x="938" 
d="M110 48l549 672l83 -66l-547 -676zM27 653l162 68h77v-421h-105v305l-97 -40zM614 268l-75 46.001c14.667 35.333 38 62.5 70 81.5s69.333 28.5 112 28.5c47.333 0 85 -11.333 113 -34s42 -52.334 42 -89.001c0 -67.333 -37.667 -125.333 -113 -174l-52 -33h181v-94h-345
v81l88 54c90.667 56 136 103.333 136 142c0 35.333 -19.667 53 -59 53c-44 0 -76.667 -20.667 -98 -62z" />
    <glyph glyph-name="threequarters" unicode="&#xbe;" horiz-adv-x="943" 
d="M167 48l549 672l83 -66l-547 -676zM741 0v76h-246v73l258 271h87v-253h76v-91h-76v-76h-99zM616 167h125v126zM106 579l-70.002 54c37.333 61.333 97.333 92 180 92c49.333 0 88.5 -9.5 117.5 -28.5s43.5 -44.5 43.5 -76.5c0 -43.333 -21 -75.333 -63 -96
c48.667 -14.667 73 -47.667 73 -99c0 -39.333 -16.667 -70.833 -50 -94.5s-75.666 -35.5 -126.999 -35.5c-88 0 -149 34.667 -183 104l78 48c7.33301 -17.333 20.333 -31.333 39 -42s40.667 -16 66 -16c47.333 0 71 13.667 71 41s-24.333 41 -73 41h-47v81h39
c47.333 0 71 14.333 71 43c0 24 -19 36 -57 36c-26 0 -47.167 -4.16699 -63.5 -12.5s-31.166 -21.5 -44.499 -39.5z" />
    <glyph glyph-name="questiondown" unicode="&#xbf;" horiz-adv-x="610" 
d="M164 18c0 -26.667 11.501 -48.6709 34.501 -66.0039s60.833 -26 113.5 -26c78.667 0 131.667 37.667 159 113l109 -31c-12.667 -61.333 -42.834 -109.666 -90.501 -144.999s-106.167 -53 -175.5 -53c-90 0 -158.167 17 -204.5 51s-69.5 79.667 -69.5 137
c0 38.667 8.16699 71.5 24.5 98.5s36 47.333 59 61s46 25.667 69 36s42.667 21.5 59 33.5s24.5 26.333 24.5 43c0 5.33301 -0.666992 11.333 -2 18s-2 12 -2 16l109 1c4.66699 -16 7 -34 7 -54c0 -26 -7.66699 -48.5 -23 -67.5s-34 -34.167 -56 -45.5
s-44 -22.166 -66 -32.499s-40.667 -22.666 -56 -36.999s-23 -31.166 -23 -50.499zM412.001 444.996c0 -18.667 -7.66797 -35.5 -23.001 -50.5s-34.666 -22.5 -57.999 -22.5c-22 0 -40.833 7.66699 -56.5 23s-23.5 32 -23.5 50c0 20 7.66699 37.5 23 52.5
s34.333 22.5 57 22.5c24 0 43.5 -7.5 58.5 -22.5s22.5 -32.5 22.5 -52.5z" />
    <glyph glyph-name="Agrave" unicode="&#xc0;" horiz-adv-x="704" 
d="M-1 0l307 700h92l307 -700h-127l-68 155h-319l-67 -155h-125zM350 525l-115 -266h230zM395 745l-219 104l53 100l210 -128z" />
    <glyph glyph-name="Aacute" unicode="&#xc1;" horiz-adv-x="704" 
d="M-1 0l307 700h92l307 -700h-127l-68 155h-319l-67 -155h-125zM350 525l-115 -266h230zM552 849l-220 -104l-43 76l210 128z" />
    <glyph glyph-name="Acircumflex" unicode="&#xc2;" horiz-adv-x="704" 
d="M-1 0l307 700h92l307 -700h-127l-68 155h-319l-67 -155h-125zM350 525l-115 -266h230zM350 929l184 -111l-47 -69l-139 73l-138 -73l-40 67l176 113h4z" />
    <glyph glyph-name="Atilde" unicode="&#xc3;" horiz-adv-x="704" 
d="M-1 0l307 700h92l307 -700h-127l-68 155h-319l-67 -155h-125zM350 525l-115 -266h230zM204 779l-35.999 72c14 16.667 31.833 30.167 53.5 40.5s42.167 15.5 61.5 15.5c20.667 0 45.667 -6 75 -18s52.666 -18 69.999 -18c31.333 0 56.666 10.333 75.999 31l31 -72
c-27.333 -40 -66.333 -60 -117 -60c-16.667 0 -40.667 6 -72 18s-56.666 18 -75.999 18c-22 0 -44 -9 -66 -27z" />
    <glyph glyph-name="Adieresis" unicode="&#xc4;" horiz-adv-x="704" 
d="M-1 0l307 700h92l307 -700h-127l-68 155h-319l-67 -155h-125zM350 525l-115 -266h230zM162 828c0 18 6.66504 32.833 19.998 44.5s30 17.5 50 17.5c16.667 0 31.834 -6 45.501 -18s20.5 -26.667 20.5 -44c0 -18 -6.66699 -32.833 -20 -44.5s-28.666 -17.5 -45.999 -17.5
c-20.667 0 -37.5 5.66699 -50.5 17s-19.5 26.333 -19.5 45zM404.998 828c0 18 6.83105 32.833 20.498 44.5s29.834 17.5 48.501 17.5c17.333 0 32.666 -5.83301 45.999 -17.5s20 -26.5 20 -44.5s-6.66699 -32.833 -20 -44.5s-28.666 -17.5 -45.999 -17.5
c-19.333 0 -35.666 5.66699 -48.999 17s-20 26.333 -20 45z" />
    <glyph glyph-name="Aring" unicode="&#xc5;" horiz-adv-x="704" 
d="M-1 0l307 700h92l307 -700h-127l-68 155h-319l-67 -155h-125zM350 525l-115 -266h230zM213 838c0 35.333 13 62.335 39 81.002s58.667 28 98 28c41.333 0 75.333 -9.16699 102 -27.5s40 -45.5 40 -81.5c0 -34.667 -13.333 -61.834 -40 -81.501s-60.667 -29.5 -102 -29.5
c-40 0 -72.833 9.66699 -98.5 29s-38.5 46.666 -38.5 81.999zM300 838.002c0 -14 4.66699 -25 14 -33s22 -12 38 -12s28.833 4 38.5 12s14.5 19 14.5 33c0 28 -17.667 42 -53 42c-34.667 0 -52 -14 -52 -42z" />
    <glyph glyph-name="AE" unicode="&#xc6;" horiz-adv-x="1133" 
d="M558 0v155h-308l-118 -155h-132l520 700h558v-114h-399v-176h373v-110h-373v-186h409v-114h-530zM324 259h234v314z" />
    <glyph glyph-name="Ccedilla" unicode="&#xc7;" horiz-adv-x="692" 
d="M254 -163l40.998 55.999c21.333 -16.667 47.666 -25 78.999 -25c26 0 39 7 39 21c0 15.333 -16.667 23 -50 23h-12v82c-98 8.66699 -175.5 44.834 -232.5 108.501s-85.5 146.167 -85.5 247.5c0 102 33 187.167 99 255.5s152.333 102.5 259 102.5
c61.333 0 116.333 -11.167 165 -33.5s85.334 -51.5 110.001 -87.5l-80 -76c-48.667 54 -111.667 81 -189 81c-72 0 -129.667 -22 -173 -66s-65 -102.667 -65 -176c0 -72.667 22.5 -131.167 67.5 -175.5s103.5 -66.5 175.5 -66.5c84.667 0 152.667 30.667 204 92l71 -78
c-27.333 -38 -64.166 -68.333 -110.499 -91s-97.166 -35.334 -152.499 -38.001v-25c72.667 -4 109 -32.333 109 -85c0 -27.333 -10.5 -49.166 -31.5 -65.499s-53.5 -24.5 -97.5 -24.5c-60 0 -106.667 14.667 -140 44z" />
    <glyph glyph-name="Egrave" unicode="&#xc8;" horiz-adv-x="645" 
d="M70 0v700h520v-114h-399v-176h373v-110h-373v-186h409v-114h-530zM385 745l-219 104l53 100l210 -128z" />
    <glyph glyph-name="Eacute" unicode="&#xc9;" horiz-adv-x="645" 
d="M70 0v700h520v-114h-399v-176h373v-110h-373v-186h409v-114h-530zM515 849l-220 -104l-43 76l210 128z" />
    <glyph glyph-name="Ecircumflex" unicode="&#xca;" horiz-adv-x="645" 
d="M70 0v700h520v-114h-399v-176h373v-110h-373v-186h409v-114h-530zM336 929l184 -111l-47 -69l-139 73l-138 -73l-40 67l176 113h4z" />
    <glyph glyph-name="Edieresis" unicode="&#xcb;" horiz-adv-x="645" 
d="M70 0v700h520v-114h-399v-176h373v-110h-373v-186h409v-114h-530zM144 828c0 18 6.66504 32.833 19.998 44.5s30 17.5 50 17.5c16.667 0 31.834 -6 45.501 -18s20.5 -26.667 20.5 -44c0 -18 -6.66699 -32.833 -20 -44.5s-28.666 -17.5 -45.999 -17.5
c-20.667 0 -37.5 5.66699 -50.5 17s-19.5 26.333 -19.5 45zM386.998 828c0 18 6.83105 32.833 20.498 44.5s29.834 17.5 48.501 17.5c17.333 0 32.666 -5.83301 45.999 -17.5s20 -26.5 20 -44.5s-6.66699 -32.833 -20 -44.5s-28.666 -17.5 -45.999 -17.5
c-19.333 0 -35.666 5.66699 -48.999 17s-20 26.333 -20 45z" />
    <glyph glyph-name="Igrave" unicode="&#xcc;" horiz-adv-x="261" 
d="M70 0v700h121v-700h-121zM164 745l-219 104l53 100l210 -128z" />
    <glyph glyph-name="Iacute" unicode="&#xcd;" horiz-adv-x="261" 
d="M70 0v700h121v-700h-121zM325 849l-220 -104l-43 76l210 128z" />
    <glyph glyph-name="Icircumflex" unicode="&#xce;" horiz-adv-x="261" 
d="M70 0v700h121v-700h-121zM129 929l184 -111l-47 -69l-139 73l-138 -73l-40 67l176 113h4z" />
    <glyph glyph-name="Idieresis" unicode="&#xcf;" horiz-adv-x="261" 
d="M70 0v700h121v-700h-121zM-59 828c0 18 6.66504 32.833 19.998 44.5s30 17.5 50 17.5c16.667 0 31.834 -6 45.501 -18s20.5 -26.667 20.5 -44c0 -18 -6.66699 -32.833 -20 -44.5s-28.666 -17.5 -45.999 -17.5c-20.667 0 -37.5 5.66699 -50.5 17s-19.5 26.333 -19.5 45z
M183.998 828c0 18 6.83105 32.833 20.498 44.5s29.834 17.5 48.501 17.5c17.333 0 32.666 -5.83301 45.999 -17.5s20 -26.5 20 -44.5s-6.66699 -32.833 -20 -44.5s-28.666 -17.5 -45.999 -17.5c-19.333 0 -35.666 5.66699 -48.999 17s-20 26.333 -20 45z" />
    <glyph glyph-name="Eth" unicode="&#xd0;" horiz-adv-x="778" 
d="M15 298v100.999h117v301h218c70.667 0 132 -9 184 -27s93 -43.167 123 -75.5s52 -68.166 66 -107.499s21 -83 21 -131c0 -106.667 -34 -193.167 -102 -259.5s-169.333 -99.5 -304 -99.5h-206v298h-117zM348 585.999h-95v-187h174v-101h-174v-184h94
c92.667 0 161 21.833 205 65.5s66 103.5 66 179.5c0 151.333 -90 227 -270 227z" />
    <glyph glyph-name="Ntilde" unicode="&#xd1;" horiz-adv-x="738" 
d="M668 0h-94l-386 477v-477h-118v700h94l386 -479v479h118v-700zM222 779l-35.999 72c14 16.667 31.833 30.167 53.5 40.5s42.167 15.5 61.5 15.5c20.667 0 45.667 -6 75 -18s52.666 -18 69.999 -18c31.333 0 56.666 10.333 75.999 31l31 -72
c-27.333 -40 -66.333 -60 -117 -60c-16.667 0 -40.667 6 -72 18s-56.666 18 -75.999 18c-22 0 -44 -9 -66 -27z" />
    <glyph glyph-name="Ograve" unicode="&#xd2;" horiz-adv-x="782" 
d="M33 350c0 100.667 34.5 185.5 103.5 254.5s153.833 103.5 254.5 103.5s185.5 -34 254.5 -102s103.5 -153.333 103.5 -256c0 -102 -34.667 -187.167 -104 -255.5s-154 -102.5 -254 -102.5s-184.667 34 -254 102s-104 153.333 -104 256zM159 350
c0 -70.667 22.667 -128.667 68 -174s100 -68 164 -68c66 0 121.167 22.5 165.5 67.5s66.5 103.167 66.5 174.5c0 70.667 -22.833 128.667 -68.5 174s-100.167 68 -163.5 68c-64 0 -118.667 -22.5 -164 -67.5s-68 -103.167 -68 -174.5zM438 745l-219 104l53 100l210 -128z
" />
    <glyph glyph-name="Oacute" unicode="&#xd3;" horiz-adv-x="782" 
d="M33 350c0 100.667 34.5 185.5 103.5 254.5s153.833 103.5 254.5 103.5s185.5 -34 254.5 -102s103.5 -153.333 103.5 -256c0 -102 -34.667 -187.167 -104 -255.5s-154 -102.5 -254 -102.5s-184.667 34 -254 102s-104 153.333 -104 256zM159 350
c0 -70.667 22.667 -128.667 68 -174s100 -68 164 -68c66 0 121.167 22.5 165.5 67.5s66.5 103.167 66.5 174.5c0 70.667 -22.833 128.667 -68.5 174s-100.167 68 -163.5 68c-64 0 -118.667 -22.5 -164 -67.5s-68 -103.167 -68 -174.5zM582 849l-220 -104l-43 76l210 128z
" />
    <glyph glyph-name="Ocircumflex" unicode="&#xd4;" horiz-adv-x="782" 
d="M33 350c0 100.667 34.5 185.5 103.5 254.5s153.833 103.5 254.5 103.5s185.5 -34 254.5 -102s103.5 -153.333 103.5 -256c0 -102 -34.667 -187.167 -104 -255.5s-154 -102.5 -254 -102.5s-184.667 34 -254 102s-104 153.333 -104 256zM159 350
c0 -70.667 22.667 -128.667 68 -174s100 -68 164 -68c66 0 121.167 22.5 165.5 67.5s66.5 103.167 66.5 174.5c0 70.667 -22.833 128.667 -68.5 174s-100.167 68 -163.5 68c-64 0 -118.667 -22.5 -164 -67.5s-68 -103.167 -68 -174.5zM389 929l184 -111l-47 -69l-139 73
l-138 -73l-40 67l176 113h4z" />
    <glyph glyph-name="Otilde" unicode="&#xd5;" horiz-adv-x="782" 
d="M33 350c0 100.667 34.5 185.5 103.5 254.5s153.833 103.5 254.5 103.5s185.5 -34 254.5 -102s103.5 -153.333 103.5 -256c0 -102 -34.667 -187.167 -104 -255.5s-154 -102.5 -254 -102.5s-184.667 34 -254 102s-104 153.333 -104 256zM159 350
c0 -70.667 22.667 -128.667 68 -174s100 -68 164 -68c66 0 121.167 22.5 165.5 67.5s66.5 103.167 66.5 174.5c0 70.667 -22.833 128.667 -68.5 174s-100.167 68 -163.5 68c-64 0 -118.667 -22.5 -164 -67.5s-68 -103.167 -68 -174.5zM243 779l-35.999 72
c14 16.667 31.833 30.167 53.5 40.5s42.167 15.5 61.5 15.5c20.667 0 45.667 -6 75 -18s52.666 -18 69.999 -18c31.333 0 56.666 10.333 75.999 31l31 -72c-27.333 -40 -66.333 -60 -117 -60c-16.667 0 -40.667 6 -72 18s-56.666 18 -75.999 18c-22 0 -44 -9 -66 -27z" />
    <glyph glyph-name="Odieresis" unicode="&#xd6;" horiz-adv-x="782" 
d="M33 350c0 100.667 34.5 185.5 103.5 254.5s153.833 103.5 254.5 103.5s185.5 -34 254.5 -102s103.5 -153.333 103.5 -256c0 -102 -34.667 -187.167 -104 -255.5s-154 -102.5 -254 -102.5s-184.667 34 -254 102s-104 153.333 -104 256zM159 350
c0 -70.667 22.667 -128.667 68 -174s100 -68 164 -68c66 0 121.167 22.5 165.5 67.5s66.5 103.167 66.5 174.5c0 70.667 -22.833 128.667 -68.5 174s-100.167 68 -163.5 68c-64 0 -118.667 -22.5 -164 -67.5s-68 -103.167 -68 -174.5zM202 828
c0 18 6.66504 32.833 19.998 44.5s30 17.5 50 17.5c16.667 0 31.834 -6 45.501 -18s20.5 -26.667 20.5 -44c0 -18 -6.66699 -32.833 -20 -44.5s-28.666 -17.5 -45.999 -17.5c-20.667 0 -37.5 5.66699 -50.5 17s-19.5 26.333 -19.5 45zM444.998 828
c0 18 6.83105 32.833 20.498 44.5s29.834 17.5 48.501 17.5c17.333 0 32.666 -5.83301 45.999 -17.5s20 -26.5 20 -44.5s-6.66699 -32.833 -20 -44.5s-28.666 -17.5 -45.999 -17.5c-19.333 0 -35.666 5.66699 -48.999 17s-20 26.333 -20 45z" />
    <glyph glyph-name="multiply" unicode="&#xd7;" horiz-adv-x="599" 
d="M93 488l72 72l129 -129l130 129l72 -72l-129 -130l129 -129l-72 -72l-130 130l-129 -130l-72 72l130 129z" />
    <glyph glyph-name="Oslash" unicode="&#xd8;" horiz-adv-x="782" 
d="M73 47l50 60.999c-60 66.667 -90 147.334 -90 242.001c0 100.667 34.5 185.5 103.5 254.5s153.833 103.5 254.5 103.5c66 0 127 -16 183 -48l48 59l83 -66l-48 -59c61.333 -68 92 -149.333 92 -244c0 -102 -34.667 -187.167 -104 -255.5s-154 -102.5 -254 -102.5
c-65.333 0 -126.333 15.667 -183 47l-50 -62zM623 349.999c0 55.333 -15 104 -45 146l-294 -363c33.333 -16.667 69 -25 107 -25c66 0 121.167 22.5 165.5 67.5s66.5 103.167 66.5 174.5zM159 349.999c0 -55.333 14.332 -103.667 42.999 -145l295 361
c-33.333 17.333 -68.666 26 -105.999 26c-64 0 -118.667 -22.5 -164 -67.5s-68 -103.167 -68 -174.5z" />
    <glyph glyph-name="Ugrave" unicode="&#xd9;" horiz-adv-x="726" 
d="M662 700l-0.00195312 -402.001c0 -52.667 -8.16699 -99.167 -24.5 -139.5s-38.666 -72.166 -66.999 -95.499s-59.166 -40.833 -92.499 -52.5s-69 -17.5 -107 -17.5c-87.333 0 -160.5 27.167 -219.5 81.5s-88.5 130.833 -88.5 229.5v396h121v-381
c0 -64 17.333 -115.5 52 -154.5s79.667 -58.5 135 -58.5c56 0 98.333 19 127 57s43 88.667 43 152v385h121zM410.998 744.999l-219 104l53 100l210 -128z" />
    <glyph glyph-name="Uacute" unicode="&#xda;" horiz-adv-x="726" 
d="M662 700l-0.00195312 -402.001c0 -52.667 -8.16699 -99.167 -24.5 -139.5s-38.666 -72.166 -66.999 -95.499s-59.166 -40.833 -92.499 -52.5s-69 -17.5 -107 -17.5c-87.333 0 -160.5 27.167 -219.5 81.5s-88.5 130.833 -88.5 229.5v396h121v-381
c0 -64 17.333 -115.5 52 -154.5s79.667 -58.5 135 -58.5c56 0 98.333 19 127 57s43 88.667 43 152v385h121zM554.998 848.999l-220 -104l-43 76l210 128z" />
    <glyph glyph-name="Ucircumflex" unicode="&#xdb;" horiz-adv-x="726" 
d="M662 700l-0.00195312 -402.001c0 -52.667 -8.16699 -99.167 -24.5 -139.5s-38.666 -72.166 -66.999 -95.499s-59.166 -40.833 -92.499 -52.5s-69 -17.5 -107 -17.5c-87.333 0 -160.5 27.167 -219.5 81.5s-88.5 130.833 -88.5 229.5v396h121v-381
c0 -64 17.333 -115.5 52 -154.5s79.667 -58.5 135 -58.5c56 0 98.333 19 127 57s43 88.667 43 152v385h121zM360.998 928.999l184 -111l-47 -69l-139 73l-138 -73l-40 67l176 113h4z" />
    <glyph glyph-name="Udieresis" unicode="&#xdc;" horiz-adv-x="726" 
d="M662 700l-0.00195312 -402.001c0 -52.667 -8.16699 -99.167 -24.5 -139.5s-38.666 -72.166 -66.999 -95.499s-59.166 -40.833 -92.499 -52.5s-69 -17.5 -107 -17.5c-87.333 0 -160.5 27.167 -219.5 81.5s-88.5 130.833 -88.5 229.5v396h121v-381
c0 -64 17.333 -115.5 52 -154.5s79.667 -58.5 135 -58.5c56 0 98.333 19 127 57s43 88.667 43 152v385h121zM173.998 827.999c0 18 6.66504 32.833 19.998 44.5s30 17.5 50 17.5c16.667 0 31.834 -6 45.501 -18s20.5 -26.667 20.5 -44c0 -18 -6.66699 -32.833 -20 -44.5
s-28.666 -17.5 -45.999 -17.5c-20.667 0 -37.5 5.66699 -50.5 17s-19.5 26.333 -19.5 45zM416.996 827.999c0 18 6.83105 32.833 20.498 44.5s29.834 17.5 48.501 17.5c17.333 0 32.666 -5.83301 45.999 -17.5s20 -26.5 20 -44.5s-6.66699 -32.833 -20 -44.5
s-28.666 -17.5 -45.999 -17.5c-19.333 0 -35.666 5.66699 -48.999 17s-20 26.333 -20 45z" />
    <glyph glyph-name="Yacute" unicode="&#xdd;" horiz-adv-x="671" 
d="M678 700l-283 -397v-303h-121v303l-281 397h150l193 -279l197 279h145zM532 849l-220 -104l-43 76l210 128z" />
    <glyph glyph-name="Thorn" unicode="&#xde;" horiz-adv-x="658" 
d="M191 0l-121.001 -0.000976562v700h121v-107h142c56.667 0 104.834 -6.5 144.501 -19.5s69.667 -31.167 90 -54.5s34.833 -47.5 43.5 -72.5s13 -52.833 13 -83.5c0 -30 -5.16699 -58.167 -15.5 -84.5s-26.333 -50.666 -48 -72.999s-52 -40 -91 -53
s-84.833 -19.5 -137.5 -19.5h-141v-133zM336.999 479.999h-146v-233h139c112 -0.666992 168 38.333 168 117c0 77.333 -53.667 116 -161 116z" />
    <glyph glyph-name="germandbls" unicode="&#xdf;" horiz-adv-x="561" 
d="M283 738c70 0 123.168 -18.333 159.501 -55s54.5 -87.334 54.5 -152.001c0 -32 -7.5 -61.667 -22.5 -89s-36.167 -47.666 -63.5 -60.999c80 -21.333 120 -79.333 120 -174c0 -68 -18.5 -121.167 -55.5 -159.5s-91.167 -57.5 -162.5 -57.5c-44 0 -80 7 -108 21l28 103
c24.667 -11.333 50 -17 76 -17c32.667 0 58.667 9.5 78 28.5s29 45.5 29 79.5c0 70 -43.333 105 -130 105h-50v107h25c41.333 0 71.833 10.333 91.5 31s29.5 46 29.5 76c0 34 -9.83301 60.5 -29.5 79.5s-45.5 28.5 -77.5 28.5c-34.667 0 -61.334 -12.5 -80.001 -37.5
s-28 -71.167 -28 -138.5v-456h-114v461c0 96.667 20.667 167 62 211s97.333 66 168 66z" />
    <glyph glyph-name="agrave" unicode="&#xe0;" horiz-adv-x="534" 
d="M109 371l-56.001 84.002c24.667 24 56.5 42.833 95.5 56.5s79.833 20.5 122.5 20.5c68 0 120.5 -18.667 157.5 -56s55.5 -90 55.5 -158v-318h-114v57c-38 -42 -91.667 -63 -161 -63c-57.333 0 -103.166 14.833 -137.499 44.5s-51.5 69.5 -51.5 119.5
c0 55.333 22.167 96.666 66.5 123.999s103.166 41 176.499 41c43.333 0 79 -4.66699 107 -14c0.666992 39.333 -7.66602 68.666 -24.999 87.999s-46.333 29 -87 29c-51.333 0 -101 -18.333 -149 -55zM233.999 93.002c59.333 0 104.668 23.668 136.001 71.001v50
c-28 9.33301 -59.667 14 -95 14c-91.333 0 -137 -23 -137 -69c0 -20.667 8.66699 -36.834 26 -48.501s40.666 -17.5 69.999 -17.5zM269.001 598.003l-137 154l89 67l115 -167z" />
    <glyph glyph-name="aacute" unicode="&#xe1;" horiz-adv-x="534" 
d="M109 371l-56.001 84.002c24.667 24 56.5 42.833 95.5 56.5s79.833 20.5 122.5 20.5c68 0 120.5 -18.667 157.5 -56s55.5 -90 55.5 -158v-318h-114v57c-38 -42 -91.667 -63 -161 -63c-57.333 0 -103.166 14.833 -137.499 44.5s-51.5 69.5 -51.5 119.5
c0 55.333 22.167 96.666 66.5 123.999s103.166 41 176.499 41c43.333 0 79 -4.66699 107 -14c0.666992 39.333 -7.66602 68.666 -24.999 87.999s-46.333 29 -87 29c-51.333 0 -101 -18.333 -149 -55zM233.999 93.002c59.333 0 104.668 23.668 136.001 71.001v50
c-28 9.33301 -59.667 14 -95 14c-91.333 0 -137 -23 -137 -69c0 -20.667 8.66699 -36.834 26 -48.501s40.666 -17.5 69.999 -17.5zM408.001 755.003l-127 -157l-77 54l118 167z" />
    <glyph glyph-name="acircumflex" unicode="&#xe2;" horiz-adv-x="534" 
d="M109 371l-56.001 84.002c24.667 24 56.5 42.833 95.5 56.5s79.833 20.5 122.5 20.5c68 0 120.5 -18.667 157.5 -56s55.5 -90 55.5 -158v-318h-114v57c-38 -42 -91.667 -63 -161 -63c-57.333 0 -103.166 14.833 -137.499 44.5s-51.5 69.5 -51.5 119.5
c0 55.333 22.167 96.666 66.5 123.999s103.166 41 176.499 41c43.333 0 79 -4.66699 107 -14c0.666992 39.333 -7.66602 68.666 -24.999 87.999s-46.333 29 -87 29c-51.333 0 -101 -18.333 -149 -55zM233.999 93.002c59.333 0 104.668 23.668 136.001 71.001v50
c-28 9.33301 -59.667 14 -95 14c-91.333 0 -137 -23 -137 -69c0 -20.667 8.66699 -36.834 26 -48.501s40.666 -17.5 69.999 -17.5zM269.001 790.003l157 -131l-57 -70l-102 88l-106 -85l-52 68l156 130h4z" />
    <glyph glyph-name="atilde" unicode="&#xe3;" horiz-adv-x="534" 
d="M109 371l-56.001 84.002c24.667 24 56.5 42.833 95.5 56.5s79.833 20.5 122.5 20.5c68 0 120.5 -18.667 157.5 -56s55.5 -90 55.5 -158v-318h-114v57c-38 -42 -91.667 -63 -161 -63c-57.333 0 -103.166 14.833 -137.499 44.5s-51.5 69.5 -51.5 119.5
c0 55.333 22.167 96.666 66.5 123.999s103.166 41 176.499 41c43.333 0 79 -4.66699 107 -14c0.666992 39.333 -7.66602 68.666 -24.999 87.999s-46.333 29 -87 29c-51.333 0 -101 -18.333 -149 -55zM233.999 93.002c59.333 0 104.668 23.668 136.001 71.001v50
c-28 9.33301 -59.667 14 -95 14c-91.333 0 -137 -23 -137 -69c0 -20.667 8.66699 -36.834 26 -48.501s40.666 -17.5 69.999 -17.5zM142.001 612.003l-48.998 53c37.333 47.333 78 71 122 71c16 0 36.667 -7.33301 62 -22s44.666 -22 57.999 -22c22.667 0 44.667 10 66 30
l40 -58c-36 -44 -74.667 -66 -116 -66c-16.667 0 -37.334 7.16699 -62.001 21.5s-43.667 21.5 -57 21.5c-20 0 -41.333 -9.66699 -64 -29z" />
    <glyph glyph-name="adieresis" unicode="&#xe4;" horiz-adv-x="534" 
d="M109 371l-56.001 84.002c24.667 24 56.5 42.833 95.5 56.5s79.833 20.5 122.5 20.5c68 0 120.5 -18.667 157.5 -56s55.5 -90 55.5 -158v-318h-114v57c-38 -42 -91.667 -63 -161 -63c-57.333 0 -103.166 14.833 -137.499 44.5s-51.5 69.5 -51.5 119.5
c0 55.333 22.167 96.666 66.5 123.999s103.166 41 176.499 41c43.333 0 79 -4.66699 107 -14c0.666992 39.333 -7.66602 68.666 -24.999 87.999s-46.333 29 -87 29c-51.333 0 -101 -18.333 -149 -55zM233.999 93.002c59.333 0 104.668 23.668 136.001 71.001v50
c-28 9.33301 -59.667 14 -95 14c-91.333 0 -137 -23 -137 -69c0 -20.667 8.66699 -36.834 26 -48.501s40.666 -17.5 69.999 -17.5zM91.001 672.003c0 16.667 6.33105 30.5 18.998 41.5s27.334 16.5 44.001 16.5c16 0 30.667 -5.5 44 -16.5s20 -24.833 20 -41.5
c0 -18 -6.5 -32.667 -19.5 -44s-27.833 -17 -44.5 -17c-17.333 0 -32.166 5.66699 -44.499 17s-18.5 26 -18.5 44zM307.999 672.003c0 16.667 6.5 30.5 19.5 41.5s28.5 16.5 46.5 16.5c16.667 0 31.5 -5.5 44.5 -16.5s19.5 -24.833 19.5 -41.5
c0 -18.667 -6.16699 -33.5 -18.5 -44.5s-27.5 -16.5 -45.5 -16.5s-33.5 5.5 -46.5 16.5s-19.5 25.833 -19.5 44.5z" />
    <glyph glyph-name="aring" unicode="&#xe5;" horiz-adv-x="534" 
d="M109 371l-56.001 84.002c24.667 24 56.5 42.833 95.5 56.5s79.833 20.5 122.5 20.5c68 0 120.5 -18.667 157.5 -56s55.5 -90 55.5 -158v-318h-114v57c-38 -42 -91.667 -63 -161 -63c-57.333 0 -103.166 14.833 -137.499 44.5s-51.5 69.5 -51.5 119.5
c0 55.333 22.167 96.666 66.5 123.999s103.166 41 176.499 41c43.333 0 79 -4.66699 107 -14c0.666992 39.333 -7.66602 68.666 -24.999 87.999s-46.333 29 -87 29c-51.333 0 -101 -18.333 -149 -55zM233.999 93.002c59.333 0 104.668 23.668 136.001 71.001v50
c-28 9.33301 -59.667 14 -95 14c-91.333 0 -137 -23 -137 -69c0 -20.667 8.66699 -36.834 26 -48.501s40.666 -17.5 69.999 -17.5zM145.001 701.003c0 32.667 11.667 60.334 35 83.001s52.333 34 87 34c35.333 0 64.833 -11.333 88.5 -34s35.5 -50.334 35.5 -83.001
c0 -32 -11.833 -59.167 -35.5 -81.5s-53.167 -33.5 -88.5 -33.5c-34.667 0 -63.667 11.167 -87 33.5s-35 49.5 -35 81.5zM222.001 702.003c0 -13.333 4.16699 -24.333 12.5 -33s19.5 -13 33.5 -13s25.167 4.16699 33.5 12.5s12.5 19.5 12.5 33.5
c0 14.667 -4.16699 26 -12.5 34s-19.5 12 -33.5 12s-25.167 -4.16699 -33.5 -12.5s-12.5 -19.5 -12.5 -33.5z" />
    <glyph glyph-name="ae" unicode="&#xe6;" horiz-adv-x="908" 
d="M788 166l70.002 -69.001c-52.667 -70.667 -123 -106 -211 -106c-96 0 -169.667 31.333 -221 94c-50 -60.667 -118 -91 -204 -91c-62.667 0 -112 15 -148 45s-54 69.667 -54 119c0 55.333 22.167 96.666 66.5 123.999s103.166 41 176.499 41c44 0 80 -4.66699 108 -14
c0.666992 38.667 -7.83301 67.834 -25.5 87.501s-46.834 29.5 -87.501 29.5c-51.333 0 -101 -18.333 -149 -55l-56 84c24.667 24 56.5 42.833 95.5 56.5s79.833 20.5 122.5 20.5c77.333 0 134.333 -24 171 -72c48 48 112.333 72 193 72c70.667 0 129 -21.833 175 -65.5
s69 -101.167 69 -172.5c0 -17.333 -2 -41.666 -6 -72.999h-386c4.66699 -40 21.667 -70.667 51 -92s66.333 -32 111 -32c58.667 0 105 23 139 69zM234.002 92.999c32.667 0 61.001 8.16895 85.001 24.502s41.333 35.166 52 56.499v40c-28 9.33301 -60 14 -96 14
c-91.333 0 -137 -23 -137 -69c0 -20.667 8.66699 -36.834 26 -48.501s40.666 -17.5 69.999 -17.5zM630.003 429.001c-38 0 -69.333 -9.66699 -94 -29s-40.667 -46 -48 -80h273c-9.33301 72.667 -53 109 -131 109z" />
    <glyph glyph-name="ccedilla" unicode="&#xe7;" horiz-adv-x="538" 
d="M171 -166l35 59.002c21.333 -16.667 47.333 -25 78 -25c26.667 0 40 7 40 21c0 15.333 -16.667 23 -50 23h-13v82c-70.667 9.33301 -127 37.833 -169 85.5s-63 108.167 -63 181.5c0 78 25.333 142.667 76 194s116.667 77 198 77c52 0 97.833 -10.833 137.5 -32.5
s68.167 -50.167 85.5 -85.5l-85 -56c-34 45.333 -78.333 68 -133 68c-47.333 0 -86 -15.333 -116 -46s-45 -70.334 -45 -119.001c0 -47.333 15.833 -86.5 47.5 -117.5s73.5 -46.5 125.5 -46.5c54.667 0 98.334 24.667 131.001 74l81 -52c-20 -38.667 -48.667 -69 -86 -91
s-78 -34 -122 -36v-24c33.333 -2 58.833 -10.5 76.5 -25.5s26.5 -34.833 26.5 -59.5c0 -26.667 -11.667 -48.334 -35 -65.001s-57.333 -25 -102 -25s-84.334 13.667 -119.001 41z" />
    <glyph glyph-name="egrave" unicode="&#xe8;" horiz-adv-x="569" 
d="M449 166l70 -69.001c-52.667 -70.667 -123 -106 -211 -106c-84 0 -151.5 24.5 -202.5 73.5s-76.5 114.5 -76.5 196.5c0 79.333 23.5 144.333 70.5 195s112.5 76 196.5 76c70.667 0 129 -21.833 175 -65.5s69 -101.167 69 -172.5c0 -17.333 -2 -41.666 -6 -72.999h-386
c4.66699 -40 21.667 -70.667 51 -92s66.333 -32 111 -32c58.667 0 105 23 139 69zM291 428.999c-38 0 -69.332 -9.66699 -93.999 -29s-40.667 -46 -48 -80h273c-4.66699 35.333 -18.334 62.333 -41.001 81s-52.667 28 -90 28zM299.001 597.999l-137 154l89 67l115 -167z" />
    <glyph glyph-name="eacute" unicode="&#xe9;" horiz-adv-x="569" 
d="M449 166l70 -69.001c-52.667 -70.667 -123 -106 -211 -106c-84 0 -151.5 24.5 -202.5 73.5s-76.5 114.5 -76.5 196.5c0 79.333 23.5 144.333 70.5 195s112.5 76 196.5 76c70.667 0 129 -21.833 175 -65.5s69 -101.167 69 -172.5c0 -17.333 -2 -41.666 -6 -72.999h-386
c4.66699 -40 21.667 -70.667 51 -92s66.333 -32 111 -32c58.667 0 105 23 139 69zM291 428.999c-38 0 -69.332 -9.66699 -93.999 -29s-40.667 -46 -48 -80h273c-4.66699 35.333 -18.334 62.333 -41.001 81s-52.667 28 -90 28zM425.001 754.999l-127 -157l-77 54l118 167z
" />
    <glyph glyph-name="ecircumflex" unicode="&#xea;" horiz-adv-x="569" 
d="M449 166l70 -69.001c-52.667 -70.667 -123 -106 -211 -106c-84 0 -151.5 24.5 -202.5 73.5s-76.5 114.5 -76.5 196.5c0 79.333 23.5 144.333 70.5 195s112.5 76 196.5 76c70.667 0 129 -21.833 175 -65.5s69 -101.167 69 -172.5c0 -17.333 -2 -41.666 -6 -72.999h-386
c4.66699 -40 21.667 -70.667 51 -92s66.333 -32 111 -32c58.667 0 105 23 139 69zM291 428.999c-38 0 -69.332 -9.66699 -93.999 -29s-40.667 -46 -48 -80h273c-4.66699 35.333 -18.334 62.333 -41.001 81s-52.667 28 -90 28zM300.001 789.999l157 -131l-57 -70l-102 88
l-106 -85l-52 68l156 130h4z" />
    <glyph glyph-name="edieresis" unicode="&#xeb;" horiz-adv-x="569" 
d="M449 166l70 -69.001c-52.667 -70.667 -123 -106 -211 -106c-84 0 -151.5 24.5 -202.5 73.5s-76.5 114.5 -76.5 196.5c0 79.333 23.5 144.333 70.5 195s112.5 76 196.5 76c70.667 0 129 -21.833 175 -65.5s69 -101.167 69 -172.5c0 -17.333 -2 -41.666 -6 -72.999h-386
c4.66699 -40 21.667 -70.667 51 -92s66.333 -32 111 -32c58.667 0 105 23 139 69zM291 428.999c-38 0 -69.332 -9.66699 -93.999 -29s-40.667 -46 -48 -80h273c-4.66699 35.333 -18.334 62.333 -41.001 81s-52.667 28 -90 28zM111.001 671.999
c0 16.667 6.33105 30.5 18.998 41.5s27.334 16.5 44.001 16.5c16 0 30.667 -5.5 44 -16.5s20 -24.833 20 -41.5c0 -18 -6.5 -32.667 -19.5 -44s-27.833 -17 -44.5 -17c-17.333 0 -32.166 5.66699 -44.499 17s-18.5 26 -18.5 44zM327.999 671.999
c0 16.667 6.5 30.5 19.5 41.5s28.5 16.5 46.5 16.5c16.667 0 31.5 -5.5 44.5 -16.5s19.5 -24.833 19.5 -41.5c0 -18.667 -6.16699 -33.5 -18.5 -44.5s-27.5 -16.5 -45.5 -16.5s-33.5 5.5 -46.5 16.5s-19.5 25.833 -19.5 44.5z" />
    <glyph glyph-name="igrave" unicode="&#xec;" horiz-adv-x="253" 
d="M70 0v520h114v-520h-114zM138 598l-137 154l89 67l115 -167z" />
    <glyph glyph-name="iacute" unicode="&#xed;" horiz-adv-x="253" 
d="M70 0v520h114v-520h-114zM257 755l-127 -157l-77 54l118 167z" />
    <glyph glyph-name="icircumflex" unicode="&#xee;" horiz-adv-x="253" 
d="M70 0v520h114v-520h-114zM128 790l157 -131l-57 -70l-102 88l-106 -85l-52 68l156 130h4z" />
    <glyph glyph-name="idieresis" unicode="&#xef;" horiz-adv-x="253" 
d="M70 0v520h114v-520h-114zM-46 672c0 16.667 6.33105 30.5 18.998 41.5s27.334 16.5 44.001 16.5c16 0 30.667 -5.5 44 -16.5s20 -24.833 20 -41.5c0 -18 -6.5 -32.667 -19.5 -44s-27.833 -17 -44.5 -17c-17.333 0 -32.166 5.66699 -44.499 17s-18.5 26 -18.5 44z
M170.998 672c0 16.667 6.5 30.5 19.5 41.5s28.5 16.5 46.5 16.5c16.667 0 31.5 -5.5 44.5 -16.5s19.5 -24.833 19.5 -41.5c0 -18.667 -6.16699 -33.5 -18.5 -44.5s-27.5 -16.5 -45.5 -16.5s-33.5 5.5 -46.5 16.5s-19.5 25.833 -19.5 44.5z" />
    <glyph glyph-name="eth" unicode="&#xf0;" horiz-adv-x="615" 
d="M288 783l79.998 -32.001l-23 -52c78 -34.667 137.667 -85.667 179 -153s62 -148.333 62 -243c0 -97.333 -25.667 -173.666 -77 -228.999s-118.666 -83 -201.999 -83c-80.667 0 -147.167 25.5 -199.5 76.5s-78.5 115.5 -78.5 193.5s25.667 141 77 189s118.333 72 201 72
c54.667 0 97.667 -14 129 -42c-25.333 54 -69.333 97 -132 129l-26 -58l-80 32l25 56c-25.333 6 -51.666 10 -78.999 12l26 95c33.333 -4 64.333 -10 93 -18zM145.998 260.999c0 -47.333 14.999 -86.5 44.999 -117.5s68.667 -46.5 116 -46.5c50.667 0 90.334 16 119.001 48
s43 77.667 43 137c0 36 -4 62.667 -12 80c-30 40 -75 60 -135 60c-54 0 -96.833 -14.167 -128.5 -42.5s-47.5 -67.833 -47.5 -118.5z" />
    <glyph glyph-name="ntilde" unicode="&#xf1;" horiz-adv-x="586" 
d="M53 0l0.000976562 520h114v-47c39.333 38.667 92.666 58 159.999 58c139.333 0 209 -79 209 -237v-294h-114v285c0 49.333 -10.333 85 -31 107s-53 33 -97 33c-28 0 -53.333 -7.83301 -76 -23.5s-39.667 -37.167 -51 -64.5v-337h-114zM167.001 612l-48.998 53
c37.333 47.333 78 71 122 71c16 0 36.667 -7.33301 62 -22s44.666 -22 57.999 -22c22.667 0 44.667 10 66 30l40 -58c-36 -44 -74.667 -66 -116 -66c-16.667 0 -37.334 7.16699 -62.001 21.5s-43.667 21.5 -57 21.5c-20 0 -41.333 -9.66699 -64 -29z" />
    <glyph glyph-name="ograve" unicode="&#xf2;" horiz-adv-x="615" 
d="M29 261c0 78.667 25.833 143.5 77.5 194.5s118.5 76.5 200.5 76.5s149 -25.5 201 -76.5s78 -115.833 78 -194.5c0 -78 -26 -142.5 -78 -193.5s-119 -76.5 -201 -76.5c-80.667 0 -147.167 25.5 -199.5 76.5s-78.5 115.5 -78.5 193.5zM147 261
c0 -47.333 14.833 -86.499 44.5 -117.499s68.167 -46.5 115.5 -46.5c48 0 86.833 15 116.5 45s44.5 69.667 44.5 119s-15.333 89.166 -46 119.499s-69 45.5 -115 45.5c-46.667 0 -85 -15 -115 -45s-45 -70 -45 -120zM308 598.001l-137 154l89 67l115 -167z" />
    <glyph glyph-name="oacute" unicode="&#xf3;" horiz-adv-x="615" 
d="M29 261c0 78.667 25.833 143.5 77.5 194.5s118.5 76.5 200.5 76.5s149 -25.5 201 -76.5s78 -115.833 78 -194.5c0 -78 -26 -142.5 -78 -193.5s-119 -76.5 -201 -76.5c-80.667 0 -147.167 25.5 -199.5 76.5s-78.5 115.5 -78.5 193.5zM147 261
c0 -47.333 14.833 -86.499 44.5 -117.499s68.167 -46.5 115.5 -46.5c48 0 86.833 15 116.5 45s44.5 69.667 44.5 119s-15.333 89.166 -46 119.499s-69 45.5 -115 45.5c-46.667 0 -85 -15 -115 -45s-45 -70 -45 -120zM441 755.001l-127 -157l-77 54l118 167z" />
    <glyph glyph-name="ocircumflex" unicode="&#xf4;" horiz-adv-x="615" 
d="M29 261c0 78.667 25.833 143.5 77.5 194.5s118.5 76.5 200.5 76.5s149 -25.5 201 -76.5s78 -115.833 78 -194.5c0 -78 -26 -142.5 -78 -193.5s-119 -76.5 -201 -76.5c-80.667 0 -147.167 25.5 -199.5 76.5s-78.5 115.5 -78.5 193.5zM147 261
c0 -47.333 14.833 -86.499 44.5 -117.499s68.167 -46.5 115.5 -46.5c48 0 86.833 15 116.5 45s44.5 69.667 44.5 119s-15.333 89.166 -46 119.499s-69 45.5 -115 45.5c-46.667 0 -85 -15 -115 -45s-45 -70 -45 -120zM309 790.001l157 -131l-57 -70l-102 88l-106 -85l-52 68
l156 130h4z" />
    <glyph glyph-name="otilde" unicode="&#xf5;" horiz-adv-x="615" 
d="M29 261c0 78.667 25.833 143.5 77.5 194.5s118.5 76.5 200.5 76.5s149 -25.5 201 -76.5s78 -115.833 78 -194.5c0 -78 -26 -142.5 -78 -193.5s-119 -76.5 -201 -76.5c-80.667 0 -147.167 25.5 -199.5 76.5s-78.5 115.5 -78.5 193.5zM147 261
c0 -47.333 14.833 -86.499 44.5 -117.499s68.167 -46.5 115.5 -46.5c48 0 86.833 15 116.5 45s44.5 69.667 44.5 119s-15.333 89.166 -46 119.499s-69 45.5 -115 45.5c-46.667 0 -85 -15 -115 -45s-45 -70 -45 -120zM182 612.001l-48.998 53c37.333 47.333 78 71 122 71
c16 0 36.667 -7.33301 62 -22s44.666 -22 57.999 -22c22.667 0 44.667 10 66 30l40 -58c-36 -44 -74.667 -66 -116 -66c-16.667 0 -37.334 7.16699 -62.001 21.5s-43.667 21.5 -57 21.5c-20 0 -41.333 -9.66699 -64 -29z" />
    <glyph glyph-name="odieresis" unicode="&#xf6;" horiz-adv-x="615" 
d="M29 261c0 78.667 25.833 143.5 77.5 194.5s118.5 76.5 200.5 76.5s149 -25.5 201 -76.5s78 -115.833 78 -194.5c0 -78 -26 -142.5 -78 -193.5s-119 -76.5 -201 -76.5c-80.667 0 -147.167 25.5 -199.5 76.5s-78.5 115.5 -78.5 193.5zM147 261
c0 -47.333 14.833 -86.499 44.5 -117.499s68.167 -46.5 115.5 -46.5c48 0 86.833 15 116.5 45s44.5 69.667 44.5 119s-15.333 89.166 -46 119.499s-69 45.5 -115 45.5c-46.667 0 -85 -15 -115 -45s-45 -70 -45 -120zM134 672.001c0 16.667 6.33105 30.5 18.998 41.5
s27.334 16.5 44.001 16.5c16 0 30.667 -5.5 44 -16.5s20 -24.833 20 -41.5c0 -18 -6.5 -32.667 -19.5 -44s-27.833 -17 -44.5 -17c-17.333 0 -32.166 5.66699 -44.499 17s-18.5 26 -18.5 44zM350.998 672.001c0 16.667 6.5 30.5 19.5 41.5s28.5 16.5 46.5 16.5
c16.667 0 31.5 -5.5 44.5 -16.5s19.5 -24.833 19.5 -41.5c0 -18.667 -6.16699 -33.5 -18.5 -44.5s-27.5 -16.5 -45.5 -16.5s-33.5 5.5 -46.5 16.5s-19.5 25.833 -19.5 44.5z" />
    <glyph glyph-name="divide" unicode="&#xf7;" horiz-adv-x="566" 
d="M217 552c0 14.667 6.33301 28.167 19 40.5s28.667 18.5 48 18.5c18 0 33.167 -6.16699 45.5 -18.5s18.5 -25.833 18.5 -40.5c0 -16 -6 -30 -18 -42s-27.333 -18 -46 -18c-20 0 -36.167 6 -48.5 18s-18.5 26 -18.5 42zM217 167c0 15.333 6.33301 29 19 41s28.667 18 48 18
c18 0 33.167 -6 45.5 -18s18.5 -25.667 18.5 -41c0 -16.667 -6 -31 -18 -43s-27.333 -18 -46 -18c-20 0 -36.167 6 -48.5 18s-18.5 26.333 -18.5 43zM44 309v101h478v-101h-478z" />
    <glyph glyph-name="oslash" unicode="&#xf8;" horiz-adv-x="615" 
d="M29 261c0 78.667 25.834 143.502 77.501 194.502s118.5 76.5 200.5 76.5c48 0 91.667 -9.33301 131 -28l51 62l82 -66l-49 -60c42.667 -48.667 64 -108.334 64 -179.001c0 -78 -26 -142.5 -78 -193.5s-119 -76.5 -201 -76.5c-48.667 0 -91.334 9 -128.001 27l-52 -64
l-84 70l49 59c-42 49.333 -63 108.666 -63 177.999zM147.001 261.002c0 -32.667 7 -61 21 -85l197 240c-20 6.66699 -39.333 10 -58 10c-46.667 0 -85 -15 -115 -45s-45 -70 -45 -120zM468.001 261.002c0 31.333 -7 60 -21 86l-197 -241c18 -6 37 -9 57 -9
c48 0 86.833 15 116.5 45s44.5 69.667 44.5 119z" />
    <glyph glyph-name="ugrave" unicode="&#xf9;" horiz-adv-x="578" 
d="M525 523l0.000976562 -523h-114v55c-38 -42.667 -86.333 -64 -145 -64c-72.667 0 -126.834 19 -162.501 57s-53.5 96.667 -53.5 176v299h114v-288c0 -92 37.667 -138 113 -138c59.333 0 104 30 134 90v336h114zM304.001 598l-137 154l89 67l115 -167z" />
    <glyph glyph-name="uacute" unicode="&#xfa;" horiz-adv-x="578" 
d="M525 523l0.000976562 -523h-114v55c-38 -42.667 -86.333 -64 -145 -64c-72.667 0 -126.834 19 -162.501 57s-53.5 96.667 -53.5 176v299h114v-288c0 -92 37.667 -138 113 -138c59.333 0 104 30 134 90v336h114zM417.001 755l-127 -157l-77 54l118 167z" />
    <glyph glyph-name="ucircumflex" unicode="&#xfb;" horiz-adv-x="578" 
d="M525 523l0.000976562 -523h-114v55c-38 -42.667 -86.333 -64 -145 -64c-72.667 0 -126.834 19 -162.501 57s-53.5 96.667 -53.5 176v299h114v-288c0 -92 37.667 -138 113 -138c59.333 0 104 30 134 90v336h114zM291.001 790l157 -131l-57 -70l-102 88l-106 -85l-52 68
l156 130h4z" />
    <glyph glyph-name="udieresis" unicode="&#xfc;" horiz-adv-x="578" 
d="M525 523l0.000976562 -523h-114v55c-38 -42.667 -86.333 -64 -145 -64c-72.667 0 -126.834 19 -162.501 57s-53.5 96.667 -53.5 176v299h114v-288c0 -92 37.667 -138 113 -138c59.333 0 104 30 134 90v336h114zM113.001 672c0 16.667 6.33105 30.5 18.998 41.5
s27.334 16.5 44.001 16.5c16 0 30.667 -5.5 44 -16.5s20 -24.833 20 -41.5c0 -18 -6.5 -32.667 -19.5 -44s-27.833 -17 -44.5 -17c-17.333 0 -32.166 5.66699 -44.499 17s-18.5 26 -18.5 44zM329.999 672c0 16.667 6.5 30.5 19.5 41.5s28.5 16.5 46.5 16.5
c16.667 0 31.5 -5.5 44.5 -16.5s19.5 -24.833 19.5 -41.5c0 -18.667 -6.16699 -33.5 -18.5 -44.5s-27.5 -16.5 -45.5 -16.5s-33.5 5.5 -46.5 16.5s-19.5 25.833 -19.5 44.5z" />
    <glyph glyph-name="yacute" unicode="&#xfd;" horiz-adv-x="548" 
d="M75 -194l45 97c6.66699 -4 14.334 -6 23.001 -6c31.333 0 58.666 29 81.999 87l18 47l-256 489h132l179 -351l138 351h122l-204 -505c-34.667 -84.667 -67.167 -143.167 -97.5 -175.5s-66.833 -48.5 -109.5 -48.5c-28 0 -52 5 -72 15zM412 755l-127 -157l-77 54l118 167z
" />
    <glyph glyph-name="thorn" unicode="&#xfe;" horiz-adv-x="590" 
d="M53 -200l0.000976562 930h112v-257c15.333 19.333 36.166 34 62.499 44s53.5 15 81.5 15c77.333 0 138.666 -24.333 183.999 -73s68 -112 68 -190c0 -80.667 -24 -147.167 -72 -199.5s-110.667 -78.5 -188 -78.5c-67.333 0 -112.666 14.333 -135.999 43v-234h-112z
M297.001 426c-31.333 0 -58.333 -8 -81 -24s-39.667 -36.333 -51 -61v-180c25.333 -42.667 66.333 -64 123 -64c46.667 0 84.167 15 112.5 45s42.5 69.333 42.5 118c0 52 -13 92.667 -39 122s-61.667 44 -107 44z" />
    <glyph glyph-name="ydieresis" unicode="&#xff;" horiz-adv-x="548" 
d="M75 -194l45 97c6.66699 -4 14.334 -6 23.001 -6c31.333 0 58.666 29 81.999 87l18 47l-256 489h132l179 -351l138 351h122l-204 -505c-34.667 -84.667 -67.167 -143.167 -97.5 -175.5s-66.833 -48.5 -109.5 -48.5c-28 0 -52 5 -72 15zM101 672
c0 16.667 6.33105 30.5 18.998 41.5s27.334 16.5 44.001 16.5c16 0 30.667 -5.5 44 -16.5s20 -24.833 20 -41.5c0 -18 -6.5 -32.667 -19.5 -44s-27.833 -17 -44.5 -17c-17.333 0 -32.166 5.66699 -44.499 17s-18.5 26 -18.5 44zM317.998 672c0 16.667 6.5 30.5 19.5 41.5
s28.5 16.5 46.5 16.5c16.667 0 31.5 -5.5 44.5 -16.5s19.5 -24.833 19.5 -41.5c0 -18.667 -6.16699 -33.5 -18.5 -44.5s-27.5 -16.5 -45.5 -16.5s-33.5 5.5 -46.5 16.5s-19.5 25.833 -19.5 44.5z" />
    <glyph glyph-name="Amacron" unicode="&#x100;" horiz-adv-x="704" 
d="M-1 0l307 700h92l307 -700h-127l-68 155h-319l-67 -155h-125zM350 525l-115 -266h230zM198 780v95h307v-95h-307z" />
    <glyph glyph-name="amacron" unicode="&#x101;" horiz-adv-x="534" 
d="M109 371l-56.001 84.002c24.667 24 56.5 42.833 95.5 56.5s79.833 20.5 122.5 20.5c68 0 120.5 -18.667 157.5 -56s55.5 -90 55.5 -158v-318h-114v57c-38 -42 -91.667 -63 -161 -63c-57.333 0 -103.166 14.833 -137.499 44.5s-51.5 69.5 -51.5 119.5
c0 55.333 22.167 96.666 66.5 123.999s103.166 41 176.499 41c43.333 0 79 -4.66699 107 -14c0.666992 39.333 -7.66602 68.666 -24.999 87.999s-46.333 29 -87 29c-51.333 0 -101 -18.333 -149 -55zM233.999 93.002c59.333 0 104.668 23.668 136.001 71.001v50
c-28 9.33301 -59.667 14 -95 14c-91.333 0 -137 -23 -137 -69c0 -20.667 8.66699 -36.834 26 -48.501s40.666 -17.5 69.999 -17.5zM127.001 625.003v95h281v-95h-281z" />
    <glyph glyph-name="Abreve" unicode="&#x102;" horiz-adv-x="704" 
d="M-1 0l307 700h92l307 -700h-127l-68 155h-319l-67 -155h-125zM350 525l-115 -266h230zM161 865l51.999 58.999c37.333 -40.667 85 -61 143 -61s104.667 20.333 140 61l45 -58c-18 -29.333 -43.833 -54.166 -77.5 -74.499s-69.5 -30.5 -107.5 -30.5
c-43.333 0 -82.166 10.333 -116.499 31s-60.5 45 -78.5 73z" />
    <glyph glyph-name="abreve" unicode="&#x103;" horiz-adv-x="534" 
d="M109 371l-56.001 84.002c24.667 24 56.5 42.833 95.5 56.5s79.833 20.5 122.5 20.5c68 0 120.5 -18.667 157.5 -56s55.5 -90 55.5 -158v-318h-114v57c-38 -42 -91.667 -63 -161 -63c-57.333 0 -103.166 14.833 -137.499 44.5s-51.5 69.5 -51.5 119.5
c0 55.333 22.167 96.666 66.5 123.999s103.166 41 176.499 41c43.333 0 79 -4.66699 107 -14c0.666992 39.333 -7.66602 68.666 -24.999 87.999s-46.333 29 -87 29c-51.333 0 -101 -18.333 -149 -55zM233.999 93.002c59.333 0 104.668 23.668 136.001 71.001v50
c-28 9.33301 -59.667 14 -95 14c-91.333 0 -137 -23 -137 -69c0 -20.667 8.66699 -36.834 26 -48.501s40.666 -17.5 69.999 -17.5zM99.001 717.003l50.999 58c32 -36.667 69.333 -55 112 -55c46.667 0 85 17.667 115 53l40 -55c-42 -63.333 -95 -95 -159 -95
c-38 0 -70.667 10.167 -98 30.5s-47.666 41.5 -60.999 63.5z" />
    <glyph glyph-name="Aogonek" unicode="&#x104;" horiz-adv-x="704" 
d="M669 -97l30.999 -73.001c-21.333 -20 -55 -30 -101 -30c-37.333 -0.666992 -68.833 6.83301 -94.5 22.5s-38.5 39.167 -38.5 70.5c0 26.667 9.83301 49.5 29.5 68.5s46.167 33.5 79.5 43.5l-65 150h-319l-67 -155h-125l307 700h92l307 -700h-21
c-27.333 -0.666992 -51.666 -8.16699 -72.999 -22.5s-32 -30.166 -32 -47.499c0 -24.667 14.667 -37 44 -37c16.667 0 32 3.33301 46 10zM349.999 524.999l-115 -266h230z" />
    <glyph glyph-name="aogonek" unicode="&#x105;" horiz-adv-x="534" 
d="M462 -96l33.999 -72.9971c-22 -20.667 -55.667 -31 -101 -31c-36.667 0 -67.5 8.16699 -92.5 24.5s-37.5 40.166 -37.5 71.499c0 26 9.66699 48.333 29 67s44.666 33 75.999 43v47c-36 -39.333 -89.667 -59 -161 -59c-57.333 0 -103.166 14.833 -137.499 44.5
s-51.5 69.5 -51.5 119.5c0 55.333 22.167 96.666 66.5 123.999s103.166 41 176.499 41c43.333 0 79 -4.66699 107 -14c0.666992 39.333 -7.66602 68.666 -24.999 87.999s-46.333 29 -87 29c-51.333 0 -101 -18.333 -149 -55l-56 84c24.667 24 56.5 42.833 95.5 56.5
s79.833 20.5 122.5 20.5c68 0 120.5 -18.667 157.5 -56s55.5 -90 55.5 -158v-318h-3c-25.333 0 -48.166 -7 -68.499 -21s-30.5 -29.667 -30.5 -47c0 -11.333 3.5 -20.333 10.5 -27s15.833 -10 26.5 -10c16 0 30.333 3 43 9zM233.999 93.0029
c59.333 0 104.668 23.668 136.001 71.001v50c-28 9.33301 -59.667 14 -95 14c-91.333 0 -137 -23 -137 -69c0 -20.667 8.66699 -36.834 26 -48.501s40.666 -17.5 69.999 -17.5z" />
    <glyph glyph-name="Cacute" unicode="&#x106;" horiz-adv-x="692" 
d="M606 200l70.999 -78c-28.667 -40.667 -68.167 -72.5 -118.5 -95.5s-105.5 -34.5 -165.5 -34.5c-110 0 -197.5 32.5 -262.5 97.5s-97.5 151.833 -97.5 260.5c0 102 33 187.167 99 255.5s152.333 102.5 259 102.5c61.333 0 116.333 -11.167 165 -33.5
s85.334 -51.5 110.001 -87.5l-80 -76c-48.667 54 -111.667 81 -189 81c-72 0 -129.667 -22 -173 -66s-65 -102.667 -65 -176c0 -72.667 22.5 -131.167 67.5 -175.5s103.5 -66.5 175.5 -66.5c84.667 0 152.667 30.667 204 92zM564.999 849l-220 -104l-43 76l210 128z" />
    <glyph glyph-name="cacute" unicode="&#x107;" horiz-adv-x="538" 
d="M451 171l81.001 -51.998c-20.667 -40.667 -51.334 -72.167 -92.001 -94.5s-84.334 -33.5 -131.001 -33.5c-84 0 -151.667 24.667 -203 74s-77 114.666 -77 195.999c0 78 25.333 142.667 76 194s116.667 77 198 77c52 0 97.833 -10.833 137.5 -32.5
s68.167 -50.167 85.5 -85.5l-85 -56c-34 45.333 -78.333 68 -133 68c-47.333 0 -86 -15.333 -116 -46s-45 -70.334 -45 -119.001c0 -47.333 15.833 -86.5 47.5 -117.5s73.5 -46.5 125.5 -46.5c54.667 0 98.334 24.667 131.001 74zM447.001 755.002l-127 -157l-77 54l118 167
z" />
    <glyph glyph-name="Ccircumflex" unicode="&#x108;" horiz-adv-x="692" 
d="M606 200l70.999 -78c-28.667 -40.667 -68.167 -72.5 -118.5 -95.5s-105.5 -34.5 -165.5 -34.5c-110 0 -197.5 32.5 -262.5 97.5s-97.5 151.833 -97.5 260.5c0 102 33 187.167 99 255.5s152.333 102.5 259 102.5c61.333 0 116.333 -11.167 165 -33.5
s85.334 -51.5 110.001 -87.5l-80 -76c-48.667 54 -111.667 81 -189 81c-72 0 -129.667 -22 -173 -66s-65 -102.667 -65 -176c0 -72.667 22.5 -131.167 67.5 -175.5s103.5 -66.5 175.5 -66.5c84.667 0 152.667 30.667 204 92zM375.999 929l184 -111l-47 -69l-139 73l-138 -73
l-40 67l176 113h4z" />
    <glyph glyph-name="ccircumflex" unicode="&#x109;" horiz-adv-x="538" 
d="M451 171l81.001 -51.998c-20.667 -40.667 -51.334 -72.167 -92.001 -94.5s-84.334 -33.5 -131.001 -33.5c-84 0 -151.667 24.667 -203 74s-77 114.666 -77 195.999c0 78 25.333 142.667 76 194s116.667 77 198 77c52 0 97.833 -10.833 137.5 -32.5
s68.167 -50.167 85.5 -85.5l-85 -56c-34 45.333 -78.333 68 -133 68c-47.333 0 -86 -15.333 -116 -46s-45 -70.334 -45 -119.001c0 -47.333 15.833 -86.5 47.5 -117.5s73.5 -46.5 125.5 -46.5c54.667 0 98.334 24.667 131.001 74zM301.001 790.002l157 -131l-57 -70l-102 88
l-106 -85l-52 68l156 130h4z" />
    <glyph glyph-name="Cdotaccent" unicode="&#x10a;" horiz-adv-x="692" 
d="M606 200l70.999 -78c-28.667 -40.667 -68.167 -72.5 -118.5 -95.5s-105.5 -34.5 -165.5 -34.5c-110 0 -197.5 32.5 -262.5 97.5s-97.5 151.833 -97.5 260.5c0 102 33 187.167 99 255.5s152.333 102.5 259 102.5c61.333 0 116.333 -11.167 165 -33.5
s85.334 -51.5 110.001 -87.5l-80 -76c-48.667 54 -111.667 81 -189 81c-72 0 -129.667 -22 -173 -66s-65 -102.667 -65 -176c0 -72.667 22.5 -131.167 67.5 -175.5s103.5 -66.5 175.5 -66.5c84.667 0 152.667 30.667 204 92zM313.999 827c0 17.333 6.33301 31.668 19 43.001
s28.667 17 48 17c18.667 0 34.334 -5.83301 47.001 -17.5s19 -25.834 19 -42.501c0 -18 -6.33301 -32.833 -19 -44.5s-28.334 -17.5 -47.001 -17.5c-20 0 -36.167 5.83301 -48.5 17.5s-18.5 26.5 -18.5 44.5z" />
    <glyph glyph-name="cdotaccent" unicode="&#x10b;" horiz-adv-x="538" 
d="M451 171l81.001 -51.998c-20.667 -40.667 -51.334 -72.167 -92.001 -94.5s-84.334 -33.5 -131.001 -33.5c-84 0 -151.667 24.667 -203 74s-77 114.666 -77 195.999c0 78 25.333 142.667 76 194s116.667 77 198 77c52 0 97.833 -10.833 137.5 -32.5
s68.167 -50.167 85.5 -85.5l-85 -56c-34 45.333 -78.333 68 -133 68c-47.333 0 -86 -15.333 -116 -46s-45 -70.334 -45 -119.001c0 -47.333 15.833 -86.5 47.5 -117.5s73.5 -46.5 125.5 -46.5c54.667 0 98.334 24.667 131.001 74zM233.001 671.002
c0 16.667 6.33301 30.666 19 41.999s28.667 17 48 17c18.667 0 34.334 -5.66699 47.001 -17s19 -25.333 19 -42c0 -18 -6.33301 -33 -19 -45s-28.334 -18 -47.001 -18c-20 0 -36.167 5.83301 -48.5 17.5s-18.5 26.834 -18.5 45.501z" />
    <glyph glyph-name="Ccaron" unicode="&#x10c;" horiz-adv-x="692" 
d="M606 200l70.999 -78c-28.667 -40.667 -68.167 -72.5 -118.5 -95.5s-105.5 -34.5 -165.5 -34.5c-110 0 -197.5 32.5 -262.5 97.5s-97.5 151.833 -97.5 260.5c0 102 33 187.167 99 255.5s152.333 102.5 259 102.5c61.333 0 116.333 -11.167 165 -33.5
s85.334 -51.5 110.001 -87.5l-80 -76c-48.667 54 -111.667 81 -189 81c-72 0 -129.667 -22 -173 -66s-65 -102.667 -65 -176c0 -72.667 22.5 -131.167 67.5 -175.5s103.5 -66.5 175.5 -66.5c84.667 0 152.667 30.667 204 92zM374.999 750l-183 111l46 68l139 -79l138 79
l41 -67l-177 -112h-4z" />
    <glyph glyph-name="ccaron" unicode="&#x10d;" horiz-adv-x="538" 
d="M451 171l81.001 -51.998c-20.667 -40.667 -51.334 -72.167 -92.001 -94.5s-84.334 -33.5 -131.001 -33.5c-84 0 -151.667 24.667 -203 74s-77 114.666 -77 195.999c0 78 25.333 142.667 76 194s116.667 77 198 77c52 0 97.833 -10.833 137.5 -32.5
s68.167 -50.167 85.5 -85.5l-85 -56c-34 45.333 -78.333 68 -133 68c-47.333 0 -86 -15.333 -116 -46s-45 -70.334 -45 -119.001c0 -47.333 15.833 -86.5 47.5 -117.5s73.5 -46.5 125.5 -46.5c54.667 0 98.334 24.667 131.001 74zM301.001 609.002l-157 131l57 69l102 -87
l106 85l52 -68l-156 -130h-4z" />
    <glyph glyph-name="Dcaron" unicode="&#x10e;" horiz-adv-x="716" 
d="M70 0v699.999h219c70 0 131.167 -9 183.5 -27s93.5 -43.167 123.5 -75.5s52 -68.166 66 -107.499s21 -83 21 -131c0 -106.667 -34 -193.167 -102 -259.5s-169.667 -99.5 -305 -99.5h-206zM287 585.999h-96v-472h94c92.667 0 161.167 21.833 205.5 65.5
s66.5 103.5 66.5 179.5c0 151.333 -90 227 -270 227zM302 749.999l-183 111l46 68l139 -79l138 79l41 -67l-177 -112h-4z" />
    <glyph glyph-name="dcaron" unicode="&#x10f;" horiz-adv-x="633" 
d="M426 0l0.000976562 57.002c-11.333 -16 -29.833 -30.833 -55.5 -44.5s-55.834 -20.5 -90.501 -20.5c-75.333 0 -136 23.667 -182 71s-69 112.666 -69 195.999c0 79.333 25.167 144.666 75.5 195.999s111.5 77 183.5 77c62 0 108 -13 138 -39v237h114v-730h-114z
M301.001 98.002c28 0 53.501 8.16895 76.501 24.502s39.167 35.166 48.5 56.499v190c-26.667 38 -66.334 57 -119.001 57c-45.333 0 -83.333 -14.833 -114 -44.5s-46 -69.834 -46 -120.501c0 -50 14.167 -89.667 42.5 -119s65.5 -44 111.5 -44zM603.002 731.004h118.999
c8.66699 -15.333 13 -37.666 13 -66.999c0 -34.667 -10.667 -66.834 -32 -96.501s-46.666 -53.5 -75.999 -71.5l-49 44c16 14 28 31 36 51s12 38.333 12 55c0 36.667 -7.66699 65 -23 85z" />
    <glyph glyph-name="Dcroat" unicode="&#x110;" horiz-adv-x="778" 
d="M15 298v100.999h117v301h218c70.667 0 132 -9 184 -27s93 -43.167 123 -75.5s52 -68.166 66 -107.499s21 -83 21 -131c0 -106.667 -34 -193.167 -102 -259.5s-169.333 -99.5 -304 -99.5h-206v298h-117zM348 585.999h-95v-187h174v-101h-174v-184h94
c92.667 0 161 21.833 205 65.5s66 103.5 66 179.5c0 151.333 -90 227 -270 227z" />
    <glyph glyph-name="dcroat" unicode="&#x111;" horiz-adv-x="593" 
d="M314 566l0.000976562 101.002h112v63h114v-63h52v-101h-52v-566h-114v57c-11.333 -16 -29.833 -30.833 -55.5 -44.5s-55.834 -20.5 -90.501 -20.5c-75.333 0 -136 23.667 -182 71s-69 112.666 -69 195.999c0 79.333 25.167 144.666 75.5 195.999s111.5 77 183.5 77
c62 0 108 -13 138 -39v73h-112zM301.001 98.002c28 0 53.501 8.16895 76.501 24.502s39.167 35.166 48.5 56.499v190c-26.667 38 -66.334 57 -119.001 57c-45.333 0 -83.333 -14.833 -114 -44.5s-46 -69.834 -46 -120.501c0 -50 14.167 -89.667 42.5 -119
s65.5 -44 111.5 -44z" />
    <glyph glyph-name="Emacron" unicode="&#x112;" horiz-adv-x="645" 
d="M70 0v700h520v-114h-399v-176h373v-110h-373v-186h409v-114h-530zM173 780v95h307v-95h-307z" />
    <glyph glyph-name="emacron" unicode="&#x113;" horiz-adv-x="569" 
d="M449 166l70 -69.001c-52.667 -70.667 -123 -106 -211 -106c-84 0 -151.5 24.5 -202.5 73.5s-76.5 114.5 -76.5 196.5c0 79.333 23.5 144.333 70.5 195s112.5 76 196.5 76c70.667 0 129 -21.833 175 -65.5s69 -101.167 69 -172.5c0 -17.333 -2 -41.666 -6 -72.999h-386
c4.66699 -40 21.667 -70.667 51 -92s66.333 -32 111 -32c58.667 0 105 23 139 69zM291 428.999c-38 0 -69.332 -9.66699 -93.999 -29s-40.667 -46 -48 -80h273c-4.66699 35.333 -18.334 62.333 -41.001 81s-52.667 28 -90 28zM147.001 624.999v95h281v-95h-281z" />
    <glyph glyph-name="Edotaccent" unicode="&#x116;" horiz-adv-x="645" 
d="M70 0v700h520v-114h-399v-176h373v-110h-373v-186h409v-114h-530zM264 827c0 17.333 6.33301 31.668 19 43.001s28.667 17 48 17c18.667 0 34.334 -5.83301 47.001 -17.5s19 -25.834 19 -42.501c0 -18 -6.33301 -32.833 -19 -44.5s-28.334 -17.5 -47.001 -17.5
c-20 0 -36.167 5.83301 -48.5 17.5s-18.5 26.5 -18.5 44.5z" />
    <glyph glyph-name="edotaccent" unicode="&#x117;" horiz-adv-x="569" 
d="M449 166l70 -69.001c-52.667 -70.667 -123 -106 -211 -106c-84 0 -151.5 24.5 -202.5 73.5s-76.5 114.5 -76.5 196.5c0 79.333 23.5 144.333 70.5 195s112.5 76 196.5 76c70.667 0 129 -21.833 175 -65.5s69 -101.167 69 -172.5c0 -17.333 -2 -41.666 -6 -72.999h-386
c4.66699 -40 21.667 -70.667 51 -92s66.333 -32 111 -32c58.667 0 105 23 139 69zM291 428.999c-38 0 -69.332 -9.66699 -93.999 -29s-40.667 -46 -48 -80h273c-4.66699 35.333 -18.334 62.333 -41.001 81s-52.667 28 -90 28zM227.001 670.999
c0 16.667 6.33301 30.666 19 41.999s28.667 17 48 17c18.667 0 34.334 -5.66699 47.001 -17s19 -25.333 19 -42c0 -18 -6.33301 -33 -19 -45s-28.334 -18 -47.001 -18c-20 0 -36.167 5.83301 -48.5 17.5s-18.5 26.834 -18.5 45.501z" />
    <glyph glyph-name="Eogonek" unicode="&#x118;" horiz-adv-x="645" 
d="M70 0v700h520v-114h-399v-176h373v-110h-373v-186h409v-114h-5c-28 0 -53.167 -7.33301 -75.5 -22s-33.5 -30.667 -33.5 -48c0 -24.667 14.667 -37 44 -37c16.667 0 32 3.33301 46 10l31 -73c-21.333 -20 -55 -30 -101 -30c-37.333 -0.666992 -68.833 6.83301 -94.5 22.5
s-38.5 39.167 -38.5 70.5c0 47.333 31 83 93 107h-396z" />
    <glyph glyph-name="eogonek" unicode="&#x119;" horiz-adv-x="569" 
d="M449 166l70.001 -69c-24.667 -34 -54 -59.667 -88 -77c-46 -38.667 -69 -68 -69 -88c0 -11.333 3.5 -20.333 10.5 -27s15.833 -10 26.5 -10c15.333 0 29.333 3 42 9l35 -73c-22 -20.667 -55.667 -31 -101 -31c-36 0 -66.667 7.83301 -92 23.5s-38 38.5 -38 68.5
c0 21.333 6.66699 39.666 20 54.999s32.666 30.333 57.999 45c-3.33301 -0.666992 -8.33301 -1 -15 -1c-84 0 -151.5 24.5 -202.5 73.5s-76.5 114.5 -76.5 196.5c0 79.333 23.5 144.333 70.5 195s112.5 76 196.5 76c70.667 0 129 -21.833 175 -65.5s69 -101.167 69 -172.5
c0 -17.333 -2 -41.666 -6 -72.999h-386c4.66699 -40 21.667 -70.667 51 -92s66.333 -32 111 -32c58.667 0 105 23 139 69zM291.001 429c-38 0 -69.332 -9.66699 -93.999 -29s-40.667 -46 -48 -80h273c-4.66699 35.333 -18.334 62.333 -41.001 81s-52.667 28 -90 28z" />
    <glyph glyph-name="Ecaron" unicode="&#x11a;" horiz-adv-x="645" 
d="M70 0v700h520v-114h-399v-176h373v-110h-373v-186h409v-114h-530zM335 750l-183 111l46 68l139 -79l138 79l41 -67l-177 -112h-4z" />
    <glyph glyph-name="ecaron" unicode="&#x11b;" horiz-adv-x="569" 
d="M449 166l70 -69.001c-52.667 -70.667 -123 -106 -211 -106c-84 0 -151.5 24.5 -202.5 73.5s-76.5 114.5 -76.5 196.5c0 79.333 23.5 144.333 70.5 195s112.5 76 196.5 76c70.667 0 129 -21.833 175 -65.5s69 -101.167 69 -172.5c0 -17.333 -2 -41.666 -6 -72.999h-386
c4.66699 -40 21.667 -70.667 51 -92s66.333 -32 111 -32c58.667 0 105 23 139 69zM291 428.999c-38 0 -69.332 -9.66699 -93.999 -29s-40.667 -46 -48 -80h273c-4.66699 35.333 -18.334 62.333 -41.001 81s-52.667 28 -90 28zM283.001 608.999l-157 131l57 69l102 -87
l106 85l52 -68l-156 -130h-4z" />
    <glyph glyph-name="Gcircumflex" unicode="&#x11c;" horiz-adv-x="715" 
d="M380 264l0.00195312 109.999h302v-271c-32 -35.333 -72.5 -62.666 -121.5 -81.999s-100.5 -29 -154.5 -29c-109.333 0 -198.833 32.833 -268.5 98.5s-104.5 152.167 -104.5 259.5c0 101.333 34 186.333 102 255s154 103 258 103c59.333 0 113.166 -10 161.499 -30
s85.5 -47.667 111.5 -83l-81 -77c-44 49.333 -106 74 -186 74c-72.667 0 -130.834 -21.833 -174.501 -65.5s-65.5 -102.5 -65.5 -176.5c0 -75.333 23 -134.5 69 -177.5s106 -64.5 180 -64.5c63.333 0 116 16.333 158 49v107h-186zM376.002 928.999l184 -111l-47 -69l-139 73
l-138 -73l-40 67l176 113h4z" />
    <glyph glyph-name="gcircumflex" unicode="&#x11d;" horiz-adv-x="589" 
d="M536 520l0.00195312 -478.001c0 -84 -21.333 -146.833 -64 -188.5s-101.334 -62.5 -176.001 -62.5c-58.667 0 -108.834 11.833 -150.501 35.5s-70.167 56.5 -85.5 98.5l99 43c10.667 -20 26.834 -36.833 48.501 -50.5s48.167 -20.5 79.5 -20.5c90 0 135 41.333 135 124
v23c-22.667 -35.333 -68.667 -53 -138 -53c-76.667 0 -138.334 23.833 -185.001 71.5s-70 113.834 -70 198.501c0 81.333 24.833 146.333 74.5 195s110.167 73 181.5 73c61.333 0 107 -14.333 137 -43v34h114zM303.002 96.999c28.667 0 53.666 7.66602 74.999 22.999
s36 34 44 56v192c-24 36.667 -64 55 -120 55c-44 0 -80.833 -14.333 -110.5 -43s-44.5 -69 -44.5 -121c0 -51.333 13.833 -91.166 41.5 -119.499s65.834 -42.5 114.501 -42.5zM303.001 789.998l157 -131l-57 -70l-102 88l-106 -85l-52 68l156 130h4z" />
    <glyph glyph-name="Gbreve" unicode="&#x11e;" horiz-adv-x="715" 
d="M380 264l0.00195312 109.999h302v-271c-32 -35.333 -72.5 -62.666 -121.5 -81.999s-100.5 -29 -154.5 -29c-109.333 0 -198.833 32.833 -268.5 98.5s-104.5 152.167 -104.5 259.5c0 101.333 34 186.333 102 255s154 103 258 103c59.333 0 113.166 -10 161.499 -30
s85.5 -47.667 111.5 -83l-81 -77c-44 49.333 -106 74 -186 74c-72.667 0 -130.834 -21.833 -174.501 -65.5s-65.5 -102.5 -65.5 -176.5c0 -75.333 23 -134.5 69 -177.5s106 -64.5 180 -64.5c63.333 0 116 16.333 158 49v107h-186zM199.002 864.999l51.999 58.999
c37.333 -40.667 85 -61 143 -61s104.667 20.333 140 61l45 -58c-18 -29.333 -43.833 -54.166 -77.5 -74.499s-69.5 -30.5 -107.5 -30.5c-43.333 0 -82.166 10.333 -116.499 31s-60.5 45 -78.5 73z" />
    <glyph glyph-name="gbreve" unicode="&#x11f;" horiz-adv-x="589" 
d="M536 520l0.00195312 -478.001c0 -84 -21.333 -146.833 -64 -188.5s-101.334 -62.5 -176.001 -62.5c-58.667 0 -108.834 11.833 -150.501 35.5s-70.167 56.5 -85.5 98.5l99 43c10.667 -20 26.834 -36.833 48.501 -50.5s48.167 -20.5 79.5 -20.5c90 0 135 41.333 135 124
v23c-22.667 -35.333 -68.667 -53 -138 -53c-76.667 0 -138.334 23.833 -185.001 71.5s-70 113.834 -70 198.501c0 81.333 24.833 146.333 74.5 195s110.167 73 181.5 73c61.333 0 107 -14.333 137 -43v34h114zM303.002 96.999c28.667 0 53.666 7.66602 74.999 22.999
s36 34 44 56v192c-24 36.667 -64 55 -120 55c-44 0 -80.833 -14.333 -110.5 -43s-44.5 -69 -44.5 -121c0 -51.333 13.833 -91.166 41.5 -119.499s65.834 -42.5 114.501 -42.5zM136.001 716.998l50.999 58c32 -36.667 69.333 -55 112 -55c46.667 0 85 17.667 115 53l40 -55
c-42 -63.333 -95 -95 -159 -95c-38 0 -70.667 10.167 -98 30.5s-47.666 41.5 -60.999 63.5z" />
    <glyph glyph-name="Gdotaccent" unicode="&#x120;" horiz-adv-x="715" 
d="M380 264l0.00195312 109.999h302v-271c-32 -35.333 -72.5 -62.666 -121.5 -81.999s-100.5 -29 -154.5 -29c-109.333 0 -198.833 32.833 -268.5 98.5s-104.5 152.167 -104.5 259.5c0 101.333 34 186.333 102 255s154 103 258 103c59.333 0 113.166 -10 161.499 -30
s85.5 -47.667 111.5 -83l-81 -77c-44 49.333 -106 74 -186 74c-72.667 0 -130.834 -21.833 -174.501 -65.5s-65.5 -102.5 -65.5 -176.5c0 -75.333 23 -134.5 69 -177.5s106 -64.5 180 -64.5c63.333 0 116 16.333 158 49v107h-186zM317.002 826.999
c0 17.333 6.33301 31.668 19 43.001s28.667 17 48 17c18.667 0 34.334 -5.83301 47.001 -17.5s19 -25.834 19 -42.501c0 -18 -6.33301 -32.833 -19 -44.5s-28.334 -17.5 -47.001 -17.5c-20 0 -36.167 5.83301 -48.5 17.5s-18.5 26.5 -18.5 44.5z" />
    <glyph glyph-name="gdotaccent" unicode="&#x121;" horiz-adv-x="589" 
d="M536 520l0.00195312 -478.001c0 -84 -21.333 -146.833 -64 -188.5s-101.334 -62.5 -176.001 -62.5c-58.667 0 -108.834 11.833 -150.501 35.5s-70.167 56.5 -85.5 98.5l99 43c10.667 -20 26.834 -36.833 48.501 -50.5s48.167 -20.5 79.5 -20.5c90 0 135 41.333 135 124
v23c-22.667 -35.333 -68.667 -53 -138 -53c-76.667 0 -138.334 23.833 -185.001 71.5s-70 113.834 -70 198.501c0 81.333 24.833 146.333 74.5 195s110.167 73 181.5 73c61.333 0 107 -14.333 137 -43v34h114zM303.002 96.999c28.667 0 53.666 7.66602 74.999 22.999
s36 34 44 56v192c-24 36.667 -64 55 -120 55c-44 0 -80.833 -14.333 -110.5 -43s-44.5 -69 -44.5 -121c0 -51.333 13.833 -91.166 41.5 -119.499s65.834 -42.5 114.501 -42.5zM238.001 670.998c0 16.667 6.33301 30.666 19 41.999s28.667 17 48 17
c18.667 0 34.334 -5.66699 47.001 -17s19 -25.333 19 -42c0 -18 -6.33301 -33 -19 -45s-28.334 -18 -47.001 -18c-20 0 -36.167 5.83301 -48.5 17.5s-18.5 26.834 -18.5 45.501z" />
    <glyph glyph-name="Gcommaaccent" unicode="&#x122;" horiz-adv-x="715" 
d="M380 264l0.00195312 109.999h302v-271c-32 -35.333 -72.5 -62.666 -121.5 -81.999s-100.5 -29 -154.5 -29c-109.333 0 -198.833 32.833 -268.5 98.5s-104.5 152.167 -104.5 259.5c0 101.333 34 186.333 102 255s154 103 258 103c59.333 0 113.166 -10 161.499 -30
s85.5 -47.667 111.5 -83l-81 -77c-44 49.333 -106 74 -186 74c-72.667 0 -130.834 -21.833 -174.501 -65.5s-65.5 -102.5 -65.5 -176.5c0 -75.333 23 -134.5 69 -177.5s106 -64.5 180 -64.5c63.333 0 116 16.333 158 49v107h-186zM340.002 -100.001l94 61.999
c30 -24 45 -53 45 -87c0 -34.667 -9.33301 -65.167 -28 -91.5s-40 -46.833 -64 -61.5l-53 41c23.333 23.333 35 49.333 35 78c0 18.667 -9.66699 38.334 -29 59.001z" />
    <glyph glyph-name="gcommaaccent" unicode="&#x123;" horiz-adv-x="589" 
d="M377 633l-94 -61.0029c-30.667 24.667 -46 53.334 -46 86.001c0 34.667 9.33301 65.334 28 92.001s40 47.334 64 62.001l54 -41c-24 -25.333 -36 -51.333 -36 -78c0 -18.667 10 -38.667 30 -60zM536 519.997l0.00195312 -478.001c0 -84 -21.333 -146.833 -64 -188.5
s-101.334 -62.5 -176.001 -62.5c-58.667 0 -108.834 11.833 -150.501 35.5s-70.167 56.5 -85.5 98.5l99 43c10.667 -20 26.834 -36.833 48.501 -50.5s48.167 -20.5 79.5 -20.5c90 0 135 41.333 135 124v23c-22.667 -35.333 -68.667 -53 -138 -53
c-76.667 0 -138.334 23.833 -185.001 71.5s-70 113.834 -70 198.501c0 81.333 24.833 146.333 74.5 195s110.167 73 181.5 73c61.333 0 107 -14.333 137 -43v34h114zM303.002 96.9961c28.667 0 53.666 7.66602 74.999 22.999s36 34 44 56v192c-24 36.667 -64 55 -120 55
c-44 0 -80.833 -14.333 -110.5 -43s-44.5 -69 -44.5 -121c0 -51.333 13.833 -91.166 41.5 -119.499s65.834 -42.5 114.501 -42.5z" />
    <glyph glyph-name="Hcircumflex" unicode="&#x124;" horiz-adv-x="749" 
d="M558 0v297h-367v-297h-121v700h121v-289h367v289h121v-700h-121zM372 929l184 -111l-47 -69l-139 73l-138 -73l-40 67l176 113h4z" />
    <glyph glyph-name="hcircumflex" unicode="&#x125;" horiz-adv-x="584" 
d="M53 0l-0.000976562 730h114v-255c37.333 37.333 87.666 56 150.999 56c144 0 216 -79.333 216 -238v-293h-114v286c0 48.667 -10.167 84 -30.5 106s-52.166 33 -95.499 33c-27.333 0 -52.166 -7.66699 -74.499 -23s-39.833 -36.333 -52.5 -63v-339h-114zM116.999 919
l184 -111l-47 -69l-139 73l-138 -73l-40 67l176 113h4z" />
    <glyph glyph-name="Hbar" unicode="&#x126;" horiz-adv-x="749" 
d="M0 509v96h70v95h121v-95h367v95h121v-95h70v-96h-70v-509h-121v297h-367v-297h-121v509h-70zM191 411h367v98h-367v-98z" />
    <glyph glyph-name="hbar" unicode="&#x127;" horiz-adv-x="584" 
d="M0 566l-0.000976562 101h53v63h114v-63h111v-101h-111v-91c37.333 37.333 87.666 56 150.999 56c144 0 216 -79.333 216 -238v-293h-114v286c0 48.667 -10.167 84 -30.5 106s-52.166 33 -95.499 33c-27.333 0 -52.166 -7.66699 -74.499 -23s-39.833 -36.333 -52.5 -63
v-339h-114v566h-53z" />
    <glyph glyph-name="Imacron" unicode="&#x12a;" horiz-adv-x="261" 
d="M70 0v700h121v-700h-121zM-23 780v95h307v-95h-307z" />
    <glyph glyph-name="imacron" unicode="&#x12b;" horiz-adv-x="253" 
d="M70 0v520h114v-520h-114zM-13 625v95h281v-95h-281z" />
    <glyph glyph-name="Iogonek" unicode="&#x12e;" horiz-adv-x="275" 
d="M176 -97l30.999 -73.001c-21.333 -20 -55 -30 -101 -30c-37.333 -0.666992 -68.833 6.83301 -94.5 22.5s-38.5 39.167 -38.5 70.5c0 50.667 34.667 87.667 104 111v696h121v-700h-7c-27.333 -0.666992 -51.666 -8.16699 -72.999 -22.5s-32 -30.166 -32 -47.499
c0 -24.667 14.667 -37 44 -37c16.667 0 32 3.33301 46 10z" />
    <glyph glyph-name="iogonek" unicode="&#x12f;" horiz-adv-x="253" 
d="M161 -96l33.999 -72.999c-22 -20.667 -55.667 -31 -101 -31c-36.667 0 -67.5 8.16699 -92.5 24.5s-37.5 40.166 -37.5 71.499c0 26 9.83301 48.5 29.5 67.5s45.167 33.167 76.5 42.5v514h114v-520h-4c-25.333 0 -48.166 -7 -68.499 -21s-30.5 -29.667 -30.5 -47
c0 -11.333 3.5 -20.333 10.5 -27s15.833 -10 26.5 -10c16 0 30.333 3 43 9zM59.999 669.001c0 17.333 6.5 31.668 19.5 43.001s28.833 17 47.5 17s34.334 -5.83301 47.001 -17.5s19 -25.834 19 -42.501c0 -18 -6.33301 -32.833 -19 -44.5s-28.334 -17.5 -47.001 -17.5
c-20 0 -36.167 5.83301 -48.5 17.5s-18.5 26.5 -18.5 44.5z" />
    <glyph glyph-name="Idotaccent" unicode="&#x130;" horiz-adv-x="261" 
d="M70 0v700h121v-700h-121zM65 827c0 17.333 6.33301 31.668 19 43.001s28.667 17 48 17c18.667 0 34.334 -5.83301 47.001 -17.5s19 -25.834 19 -42.501c0 -18 -6.33301 -32.833 -19 -44.5s-28.334 -17.5 -47.001 -17.5c-20 0 -36.167 5.83301 -48.5 17.5
s-18.5 26.5 -18.5 44.5z" />
    <glyph glyph-name="dotlessi" unicode="&#x131;" horiz-adv-x="253" 
d="M70 0v520h114v-520h-114z" />
    <glyph glyph-name="Jcircumflex" unicode="&#x134;" horiz-adv-x="486" 
d="M419 700v-483.001c0 -72 -19 -127.5 -57 -166.5s-89 -58.5 -153 -58.5c-54 0 -98.833 12.333 -134.5 37s-62.834 55.667 -81.501 93l90 68c33.333 -56.667 72 -85 116 -85c34.667 0.666992 59.834 10.834 75.501 30.501s23.5 54.5 23.5 104.5v460h121zM348 928.999
l184 -111l-47 -69l-139 73l-138 -73l-40 67l176 113h4z" />
    <glyph glyph-name="jcircumflex" unicode="&#x135;" horiz-adv-x="254" 
d="M186 520v-521c0 -66.667 -14.333 -118 -43 -154s-71.667 -54 -129 -54c-82 0 -137.333 33.333 -166 100l97 43c15.333 -24.667 35.333 -37 60 -37c44.667 0 67 35 67 105v518h114zM128 790l157 -131l-57 -70l-102 88l-106 -85l-52 68l156 130h4z" />
    <glyph glyph-name="Kcommaaccent" unicode="&#x136;" horiz-adv-x="680" 
d="M70 0v700h121v-307l314 307h158l-318 -314l341 -386h-161l-271 305l-63 -61v-244h-121zM252 -100l94 61.999c30 -24 45 -53 45 -87c0 -34.667 -9.33301 -65.167 -28 -91.5s-40 -46.833 -64 -61.5l-53 41c23.333 23.333 35 49.333 35 78
c0 18.667 -9.66699 38.334 -29 59.001z" />
    <glyph glyph-name="kcommaaccent" unicode="&#x137;" horiz-adv-x="528" 
d="M53 0v730h114v-415l210 205h147l-237 -229l249 -291h-145l-191 216l-33 -26v-190h-114zM180 -100l95 62c30 -25.333 45 -54.333 45 -87c0 -34.667 -9.33301 -65.167 -28 -91.5s-40 -46.833 -64 -61.5l-53 41c23.333 23.333 35 49.333 35 78c0 18 -10 37.667 -30 59z" />
    <glyph glyph-name="Lacute" unicode="&#x139;" horiz-adv-x="598" 
d="M70 0v700h121v-586h397v-114h-518zM482 849l-220 -104l-43 76l210 128z" />
    <glyph glyph-name="lacute" unicode="&#x13a;" horiz-adv-x="220" 
d="M53 0v730h114v-730h-114zM315 862l-220 -104l-43 76l210 128z" />
    <glyph glyph-name="Lcommaaccent" unicode="&#x13b;" horiz-adv-x="598" 
d="M70 0v700h121v-586h397v-114h-518zM260 -100l94 61.999c30 -24 45 -53 45 -87c0 -34.667 -9.33301 -65.167 -28 -91.5s-40 -46.833 -64 -61.5l-53 41c23.333 23.333 35 49.333 35 78c0 18.667 -9.66699 38.334 -29 59.001z" />
    <glyph glyph-name="lcommaaccent" unicode="&#x13c;" horiz-adv-x="220" 
d="M53 0v730h114v-730h-114zM42 -100l95 62c30 -25.333 45 -54.333 45 -87c0 -34.667 -9.33301 -65.167 -28 -91.5s-40 -46.833 -64 -61.5l-53 41c23.333 23.333 35 49.333 35 78c0 18 -10 37.667 -30 59z" />
    <glyph glyph-name="Lcaron" unicode="&#x13d;" horiz-adv-x="598" 
d="M70 0v700h121v-586h397v-114h-518zM376 701h118.999c8.66699 -15.333 13 -37.666 13 -66.999c0 -34.667 -10.667 -66.834 -32 -96.501s-46.666 -53.5 -75.999 -71.5l-49 44c16 14 28 31 36 51s12 38.333 12 55c0 36.667 -7.66699 65 -23 85z" />
    <glyph glyph-name="lcaron" unicode="&#x13e;" horiz-adv-x="254" 
d="M53 0v730h114v-730h-114zM223 731h118.999c8.66699 -15.333 13 -37.666 13 -66.999c0 -34.667 -10.667 -66.834 -32 -96.501s-46.666 -53.5 -75.999 -71.5l-49 44c16 14 28 31 36 51s12 38.333 12 55c0 36.667 -7.66699 65 -23 85z" />
    <glyph glyph-name="Ldot" unicode="&#x13f;" horiz-adv-x="598" 
d="M70 0v700h121v-586h397v-114h-518zM353 389c0 15.333 6.66699 29.333 20 42s30 19 50 19c18 0 33.667 -6.33301 47 -19s20 -26.667 20 -42c0 -17.333 -6.5 -32.333 -19.5 -45s-28.833 -19 -47.5 -19c-20.667 0 -37.5 6.33301 -50.5 19s-19.5 27.667 -19.5 45z" />
    <glyph glyph-name="ldot" unicode="&#x140;" horiz-adv-x="319" 
d="M53 0v730h114v-730h-114zM203 352c0 15.333 6.66699 29.333 20 42s30 19 50 19c18 0 33.667 -6.33301 47 -19s20 -26.667 20 -42c0 -17.333 -6.5 -32.333 -19.5 -45s-28.833 -19 -47.5 -19c-20.667 0 -37.5 6.33301 -50.5 19s-19.5 27.667 -19.5 45z" />
    <glyph glyph-name="Lslash" unicode="&#x141;" horiz-adv-x="609" 
d="M0 127v124l81 59v390h121v-302l193 140v-123l-193 -141v-160h397v-114h-518v186z" />
    <glyph glyph-name="lslash" unicode="&#x142;" horiz-adv-x="312" 
d="M0 167v124l97 70v369h114v-286l101 74v-123l-101 -74v-321h-114v238z" />
    <glyph glyph-name="Nacute" unicode="&#x143;" horiz-adv-x="738" 
d="M668 0h-94l-386 477v-477h-118v700h94l386 -479v479h118v-700zM562 849l-220 -104l-43 76l210 128z" />
    <glyph glyph-name="nacute" unicode="&#x144;" horiz-adv-x="586" 
d="M53 0l0.000976562 520h114v-47c39.333 38.667 92.666 58 159.999 58c139.333 0 209 -79 209 -237v-294h-114v285c0 49.333 -10.333 85 -31 107s-53 33 -97 33c-28 0 -53.333 -7.83301 -76 -23.5s-39.667 -37.167 -51 -64.5v-337h-114zM427.001 755l-127 -157l-77 54
l118 167z" />
    <glyph glyph-name="Ncommaaccent" unicode="&#x145;" horiz-adv-x="738" 
d="M668 0h-94l-386 477v-477h-118v700h94l386 -479v479h118v-700zM313 -100l94 61.999c30 -24 45 -53 45 -87c0 -34.667 -9.33301 -65.167 -28 -91.5s-40 -46.833 -64 -61.5l-53 41c23.333 23.333 35 49.333 35 78c0 18.667 -9.66699 38.334 -29 59.001z" />
    <glyph glyph-name="ncommaaccent" unicode="&#x146;" horiz-adv-x="586" 
d="M53 0l0.000976562 520h114v-47c39.333 38.667 92.666 58 159.999 58c139.333 0 209 -79 209 -237v-294h-114v285c0 49.333 -10.333 85 -31 107s-53 33 -97 33c-28 0 -53.333 -7.83301 -76 -23.5s-39.667 -37.167 -51 -64.5v-337h-114zM216.001 -100l95 62
c30 -25.333 45 -54.333 45 -87c0 -34.667 -9.33301 -65.167 -28 -91.5s-40 -46.833 -64 -61.5l-53 41c23.333 23.333 35 49.333 35 78c0 18 -10 37.667 -30 59z" />
    <glyph glyph-name="Ncaron" unicode="&#x147;" horiz-adv-x="738" 
d="M668 0h-94l-386 477v-477h-118v700h94l386 -479v479h118v-700zM370 750l-183 111l46 68l139 -79l138 79l41 -67l-177 -112h-4z" />
    <glyph glyph-name="ncaron" unicode="&#x148;" horiz-adv-x="586" 
d="M53 0l0.000976562 520h114v-47c39.333 38.667 92.666 58 159.999 58c139.333 0 209 -79 209 -237v-294h-114v285c0 49.333 -10.333 85 -31 107s-53 33 -97 33c-28 0 -53.333 -7.83301 -76 -23.5s-39.667 -37.167 -51 -64.5v-337h-114zM292.001 609l-157 131l57 69
l102 -87l106 85l52 -68l-156 -130h-4z" />
    <glyph glyph-name="Omacron" unicode="&#x14c;" horiz-adv-x="782" 
d="M33 350c0 100.667 34.5 185.5 103.5 254.5s153.833 103.5 254.5 103.5s185.5 -34 254.5 -102s103.5 -153.333 103.5 -256c0 -102 -34.667 -187.167 -104 -255.5s-154 -102.5 -254 -102.5s-184.667 34 -254 102s-104 153.333 -104 256zM159 350
c0 -70.667 22.667 -128.667 68 -174s100 -68 164 -68c66 0 121.167 22.5 165.5 67.5s66.5 103.167 66.5 174.5c0 70.667 -22.833 128.667 -68.5 174s-100.167 68 -163.5 68c-64 0 -118.667 -22.5 -164 -67.5s-68 -103.167 -68 -174.5zM237 780v95h307v-95h-307z" />
    <glyph glyph-name="omacron" unicode="&#x14d;" horiz-adv-x="615" 
d="M29 261c0 78.667 25.833 143.5 77.5 194.5s118.5 76.5 200.5 76.5s149 -25.5 201 -76.5s78 -115.833 78 -194.5c0 -78 -26 -142.5 -78 -193.5s-119 -76.5 -201 -76.5c-80.667 0 -147.167 25.5 -199.5 76.5s-78.5 115.5 -78.5 193.5zM147 261
c0 -47.333 14.833 -86.499 44.5 -117.499s68.167 -46.5 115.5 -46.5c48 0 86.833 15 116.5 45s44.5 69.667 44.5 119s-15.333 89.166 -46 119.499s-69 45.5 -115 45.5c-46.667 0 -85 -15 -115 -45s-45 -70 -45 -120zM167 625.001v95h281v-95h-281z" />
    <glyph glyph-name="Ohungarumlaut" unicode="&#x150;" horiz-adv-x="782" 
d="M33 350c0 100.667 34.5 185.5 103.5 254.5s153.833 103.5 254.5 103.5s185.5 -34 254.5 -102s103.5 -153.333 103.5 -256c0 -102 -34.667 -187.167 -104 -255.5s-154 -102.5 -254 -102.5s-184.667 34 -254 102s-104 153.333 -104 256zM159 350
c0 -70.667 22.667 -128.667 68 -174s100 -68 164 -68c66 0 121.167 22.5 165.5 67.5s66.5 103.167 66.5 174.5c0 70.667 -22.833 128.667 -68.5 174s-100.167 68 -163.5 68c-64 0 -118.667 -22.5 -164 -67.5s-68 -103.167 -68 -174.5zM660 845l-187 -106l-47 53l157 129z
M457 864l-163 -125l-48 49l117 133z" />
    <glyph glyph-name="ohungarumlaut" unicode="&#x151;" horiz-adv-x="615" 
d="M29 261c0 78.667 25.833 143.5 77.5 194.5s118.5 76.5 200.5 76.5s149 -25.5 201 -76.5s78 -115.833 78 -194.5c0 -78 -26 -142.5 -78 -193.5s-119 -76.5 -201 -76.5c-80.667 0 -147.167 25.5 -199.5 76.5s-78.5 115.5 -78.5 193.5zM147 261
c0 -47.333 14.833 -86.499 44.5 -117.499s68.167 -46.5 115.5 -46.5c48 0 86.833 15 116.5 45s44.5 69.667 44.5 119s-15.333 89.166 -46 119.499s-69 45.5 -115 45.5c-46.667 0 -85 -15 -115 -45s-45 -70 -45 -120zM530 755.001l-138 -157l-61 45l124 170zM366 766.001
l-127 -168l-62 46l114 175z" />
    <glyph glyph-name="OE" unicode="&#x152;" horiz-adv-x="1156" 
d="M582 0v54c-57.333 -41.333 -121 -62 -191 -62c-100 0 -184.667 34 -254 102s-104 153.333 -104 256c0 100.667 34.5 185.5 103.5 254.5s153.833 103.5 254.5 103.5c72 0 135.667 -20 191 -60v52h520v-114h-399v-176h373v-110h-373v-186h409v-114h-530zM391 108
c40 0 76.501 8.66797 109.501 26.001s60.167 41.666 81.5 72.999v283c-21.333 32 -48.833 57 -82.5 75s-69.834 27 -108.501 27c-64 0 -118.667 -22.5 -164 -67.5s-68 -103.167 -68 -174.5c0 -70.667 22.667 -128.667 68 -174s100 -68 164 -68z" />
    <glyph glyph-name="oe" unicode="&#x153;" horiz-adv-x="957" 
d="M837 166l69.999 -69c-52.667 -70.667 -123 -106 -211 -106c-81.333 0 -146.666 22.667 -195.999 68c-51.333 -45.333 -115.666 -68 -192.999 -68c-80.667 0 -147.167 25.5 -199.5 76.5s-78.5 115.5 -78.5 193.5c0 78.667 25.833 143.5 77.5 194.5s118.5 76.5 200.5 76.5
c75.333 0 138.666 -22.333 189.999 -67c48 44.667 110.333 67 187 67c70.667 0 129 -21.833 175 -65.5s69 -101.167 69 -172.5c0 -24 -2 -48.333 -6 -73h-386c4.66699 -40 21.667 -70.667 51 -92s66.333 -32 111 -32c58.667 0 105 23 139 69zM313.999 97
c52 0 93.332 16.333 123.999 49c-14 34 -21 72.333 -21 115c0 38 6.33301 75 19 111c-29.333 36 -72.333 54 -129 54c-46.667 0 -85.167 -15 -115.5 -45s-45.5 -70 -45.5 -120c0 -47.333 15.333 -86.5 46 -117.5s71.334 -46.5 122.001 -46.5zM678.998 429
c-38 0 -69.167 -9.66699 -93.5 -29s-40.5 -46 -48.5 -80h273c-9.33301 72.667 -53 109 -131 109z" />
    <glyph glyph-name="Racute" unicode="&#x154;" horiz-adv-x="683" 
d="M191 0h-121.001v700h275c52.667 0 97.667 -6 135 -18s65.833 -28.5 85.5 -49.5s33.834 -43.833 42.501 -68.5s13 -52 13 -82c0 -48 -14 -90.333 -42 -127s-65.333 -61.667 -112 -75l210 -280h-147l-191 257h-148v-257zM341.999 586l-151 -0.000976562v-215h157
c46 0 82 9.83301 108 29.5s39 46.834 39 81.501c0 33.333 -11.5 59 -34.5 77s-62.5 27 -118.5 27zM491.999 848.999l-220 -104l-43 76l210 128z" />
    <glyph glyph-name="racute" unicode="&#x155;" horiz-adv-x="363" 
d="M53 0l0.000976562 520h114v-35c6.66699 13.333 19.167 24.333 37.5 33s37.166 13 56.499 13c44.667 0 79 -15.333 103 -46l-65 -83c-10 15.333 -27.333 23 -52 23c-18.667 0 -35.167 -6.33301 -49.5 -19s-24.5 -30.667 -30.5 -54v-352h-114zM322.001 755l-127 -157
l-77 54l118 167z" />
    <glyph glyph-name="Rcommaaccent" unicode="&#x156;" horiz-adv-x="683" 
d="M191 0h-121.001v700h275c52.667 0 97.667 -6 135 -18s65.833 -28.5 85.5 -49.5s33.834 -43.833 42.501 -68.5s13 -52 13 -82c0 -48 -14 -90.333 -42 -127s-65.333 -61.667 -112 -75l210 -280h-147l-191 257h-148v-257zM341.999 586l-151 -0.000976562v-215h157
c46 0 82 9.83301 108 29.5s39 46.834 39 81.501c0 33.333 -11.5 59 -34.5 77s-62.5 27 -118.5 27zM266.999 -100.001l94 61.999c30 -24 45 -53 45 -87c0 -34.667 -9.33301 -65.167 -28 -91.5s-40 -46.833 -64 -61.5l-53 41c23.333 23.333 35 49.333 35 78
c0 18.667 -9.66699 38.334 -29 59.001z" />
    <glyph glyph-name="rcommaaccent" unicode="&#x157;" horiz-adv-x="363" 
d="M53 0l0.000976562 520h114v-35c6.66699 13.333 19.167 24.333 37.5 33s37.166 13 56.499 13c44.667 0 79 -15.333 103 -46l-65 -83c-10 15.333 -27.333 23 -52 23c-18.667 0 -35.167 -6.33301 -49.5 -19s-24.5 -30.667 -30.5 -54v-352h-114zM71.001 -100l95 62
c30 -25.333 45 -54.333 45 -87c0 -34.667 -9.33301 -65.167 -28 -91.5s-40 -46.833 -64 -61.5l-53 41c23.333 23.333 35 49.333 35 78c0 18 -10 37.667 -30 59z" />
    <glyph glyph-name="Rcaron" unicode="&#x158;" horiz-adv-x="683" 
d="M191 0h-121.001v700h275c52.667 0 97.667 -6 135 -18s65.833 -28.5 85.5 -49.5s33.834 -43.833 42.501 -68.5s13 -52 13 -82c0 -48 -14 -90.333 -42 -127s-65.333 -61.667 -112 -75l210 -280h-147l-191 257h-148v-257zM341.999 586l-151 -0.000976562v-215h157
c46 0 82 9.83301 108 29.5s39 46.834 39 81.501c0 33.333 -11.5 59 -34.5 77s-62.5 27 -118.5 27zM311.999 749.999l-183 111l46 68l139 -79l138 79l41 -67l-177 -112h-4z" />
    <glyph glyph-name="rcaron" unicode="&#x159;" horiz-adv-x="363" 
d="M53 0l0.000976562 520h114v-35c6.66699 13.333 19.167 24.333 37.5 33s37.166 13 56.499 13c44.667 0 79 -15.333 103 -46l-65 -83c-10 15.333 -27.333 23 -52 23c-18.667 0 -35.167 -6.33301 -49.5 -19s-24.5 -30.667 -30.5 -54v-352h-114zM190.001 609l-157 131l57 69
l102 -87l106 85l52 -68l-156 -130h-4z" />
    <glyph glyph-name="Sacute" unicode="&#x15a;" horiz-adv-x="631" 
d="M476 190c0 21.333 -7.99609 39.335 -23.9961 54.002s-36.667 26.167 -62 34.5s-53.333 16 -84 23s-61.334 15.333 -92.001 25s-58.667 21.5 -84 35.5s-46 33.5 -62 58.5s-24 54.833 -24 89.5c0 55.333 25.833 102.166 77.5 140.499s117.167 57.5 196.5 57.5
c115.333 0 205.666 -33.333 270.999 -100l-66 -86c-58.667 48.667 -128 73 -208 73c-41.333 0 -76 -6.83301 -104 -20.5s-42 -34.167 -42 -61.5c0 -22 10.667 -40.167 32 -54.5s48 -25 80 -32s66.667 -16 104 -27s72 -23 104 -36s58.667 -33.667 80 -62s32 -62.5 32 -102.5
c0 -60.667 -26 -110.334 -78 -149.001s-115.667 -58 -191 -58c-61.333 0 -120.333 12.167 -177 36.5s-100.334 54.833 -131.001 91.5l72 85c63.333 -66.667 145.666 -100 246.999 -100c42 0 74.667 7.5 98 22.5s35 35.833 35 62.5zM513.004 849.002l-220 -104l-43 76
l210 128z" />
    <glyph glyph-name="sacute" unicode="&#x15b;" horiz-adv-x="496" 
d="M356 148c0 14 -10.833 26.0059 -32.5 36.0059s-47.834 19.167 -78.501 27.5s-61.5 18.166 -92.5 29.499s-57.333 28.666 -79 51.999s-32.5 51.333 -32.5 84c0 48 19 85.833 57 113.5s90.333 41.5 157 41.5c44.667 0 86.334 -9 125.001 -27s67 -39.667 85 -65l-78 -74
c-34.667 40 -85 60 -151 60c-51.333 0 -77 -15.667 -77 -47c0 -10.667 7.83301 -20.334 23.5 -29.001s35.167 -15.834 58.5 -21.501s48.5 -13.334 75.5 -23.001s52.167 -20.167 75.5 -31.5s42.833 -27.833 58.5 -49.5s23.5 -46.834 23.5 -75.501
c0 -52 -20.333 -91.333 -61 -118s-91.667 -40 -153 -40c-56 0 -105.333 11.667 -148 35s-73.667 53.333 -93 90l90 62c14.667 -23.333 37 -42.666 67 -57.999s61.667 -23 95 -23c24 0 44.167 4.16699 60.5 12.5s24.5 21.166 24.5 38.499zM389 755.006l-127 -157l-77 54
l118 167z" />
    <glyph glyph-name="Scircumflex" unicode="&#x15c;" horiz-adv-x="631" 
d="M476 190c0 21.333 -7.99609 39.335 -23.9961 54.002s-36.667 26.167 -62 34.5s-53.333 16 -84 23s-61.334 15.333 -92.001 25s-58.667 21.5 -84 35.5s-46 33.5 -62 58.5s-24 54.833 -24 89.5c0 55.333 25.833 102.166 77.5 140.499s117.167 57.5 196.5 57.5
c115.333 0 205.666 -33.333 270.999 -100l-66 -86c-58.667 48.667 -128 73 -208 73c-41.333 0 -76 -6.83301 -104 -20.5s-42 -34.167 -42 -61.5c0 -22 10.667 -40.167 32 -54.5s48 -25 80 -32s66.667 -16 104 -27s72 -23 104 -36s58.667 -33.667 80 -62s32 -62.5 32 -102.5
c0 -60.667 -26 -110.334 -78 -149.001s-115.667 -58 -191 -58c-61.333 0 -120.333 12.167 -177 36.5s-100.334 54.833 -131.001 91.5l72 85c63.333 -66.667 145.666 -100 246.999 -100c42 0 74.667 7.5 98 22.5s35 35.833 35 62.5zM320.004 929.002l184 -111l-47 -69
l-139 73l-138 -73l-40 67l176 113h4z" />
    <glyph glyph-name="scircumflex" unicode="&#x15d;" horiz-adv-x="496" 
d="M356 148c0 14 -10.833 26.0059 -32.5 36.0059s-47.834 19.167 -78.501 27.5s-61.5 18.166 -92.5 29.499s-57.333 28.666 -79 51.999s-32.5 51.333 -32.5 84c0 48 19 85.833 57 113.5s90.333 41.5 157 41.5c44.667 0 86.334 -9 125.001 -27s67 -39.667 85 -65l-78 -74
c-34.667 40 -85 60 -151 60c-51.333 0 -77 -15.667 -77 -47c0 -10.667 7.83301 -20.334 23.5 -29.001s35.167 -15.834 58.5 -21.501s48.5 -13.334 75.5 -23.001s52.167 -20.167 75.5 -31.5s42.833 -27.833 58.5 -49.5s23.5 -46.834 23.5 -75.501
c0 -52 -20.333 -91.333 -61 -118s-91.667 -40 -153 -40c-56 0 -105.333 11.667 -148 35s-73.667 53.333 -93 90l90 62c14.667 -23.333 37 -42.666 67 -57.999s61.667 -23 95 -23c24 0 44.167 4.16699 60.5 12.5s24.5 21.166 24.5 38.499zM257 790.006l157 -131l-57 -70
l-102 88l-106 -85l-52 68l156 130h4z" />
    <glyph glyph-name="Scedilla" unicode="&#x15e;" horiz-adv-x="611" 
d="M177 -163l40.9961 56.001c21.333 -16.667 47.666 -25 78.999 -25c26 0 39 7 39 21c0 15.333 -16.667 23 -50 23h-12v83c-52.667 6.66699 -101.667 22.667 -147 48s-78.666 54.666 -99.999 87.999l75 87c26.667 -34 60.167 -61.333 100.5 -82s83.833 -31 130.5 -31
c36 0 65.5 7.66699 88.5 23s34.5 36 34.5 62c0 26.667 -14.167 48 -42.5 64s-62.666 29 -102.999 39s-80.666 21.667 -120.999 35s-74.666 35.166 -102.999 65.499s-42.5 69.166 -42.5 116.499c0 55.333 24.333 102.166 73 140.499s112.334 57.5 191.001 57.5
c120 0 208 -37 264 -111l-80 -78c-48 50.667 -110.333 76 -187 76c-35.333 0 -66.833 -6.83301 -94.5 -20.5s-41.5 -34.167 -41.5 -61.5c0 -22 10.167 -40.5 30.5 -55.5s45.833 -26.333 76.5 -34s63.667 -17.167 99 -28.5s68.333 -23.666 99 -36.999
s56.167 -33.666 76.5 -60.999s30.5 -60 30.5 -98c0 -58.667 -23 -107 -69 -145s-104.333 -58.667 -175 -62v-24c72.667 -4 109 -32.333 109 -85c0 -27.333 -10.5 -49.166 -31.5 -65.499s-53.5 -24.5 -97.5 -24.5c-60 0 -106.667 14.667 -140 44z" />
    <glyph glyph-name="scedilla" unicode="&#x15f;" horiz-adv-x="496" 
d="M130 -166l35.001 59.0068c21.333 -16.667 47.333 -25 78 -25c26.667 0 40 7 40 21c0 15.333 -16.667 23 -50 23h-13v81c-46.667 5.33301 -87.667 19.166 -123 41.499s-61.333 49.5 -78 81.5l90 62c14.667 -23.333 37 -42.666 67 -57.999s61.667 -23 95 -23
c24 0 44.167 4.16699 60.5 12.5s24.5 21.166 24.5 38.499c0 14 -10.833 26 -32.5 36s-47.834 19.167 -78.501 27.5s-61.5 18.166 -92.5 29.499s-57.333 28.666 -79 51.999s-32.5 51.333 -32.5 84c0 48 19 85.833 57 113.5s90.333 41.5 157 41.5
c44.667 0 86.334 -9 125.001 -27s67 -39.667 85 -65l-78 -74c-34.667 40 -85 60 -151 60c-51.333 0 -77 -15.667 -77 -47c0 -10.667 7.83301 -20.334 23.5 -29.001s35.167 -15.834 58.5 -21.501s48.5 -13.334 75.5 -23.001s52.167 -20.167 75.5 -31.5
s42.833 -27.833 58.5 -49.5s23.5 -46.834 23.5 -75.501c0 -48.667 -17.833 -86.167 -53.5 -112.5s-81.5 -41.166 -137.5 -44.499v-24c33.333 -2 58.833 -10.5 76.5 -25.5s26.5 -34.833 26.5 -59.5c0 -26.667 -11.667 -48.334 -35 -65.001s-57.333 -25 -102 -25
s-84.334 13.667 -119.001 41z" />
    <glyph glyph-name="Scaron" unicode="&#x160;" horiz-adv-x="631" 
d="M476 190c0 21.333 -7.99609 39.335 -23.9961 54.002s-36.667 26.167 -62 34.5s-53.333 16 -84 23s-61.334 15.333 -92.001 25s-58.667 21.5 -84 35.5s-46 33.5 -62 58.5s-24 54.833 -24 89.5c0 55.333 25.833 102.166 77.5 140.499s117.167 57.5 196.5 57.5
c115.333 0 205.666 -33.333 270.999 -100l-66 -86c-58.667 48.667 -128 73 -208 73c-41.333 0 -76 -6.83301 -104 -20.5s-42 -34.167 -42 -61.5c0 -22 10.667 -40.167 32 -54.5s48 -25 80 -32s66.667 -16 104 -27s72 -23 104 -36s58.667 -33.667 80 -62s32 -62.5 32 -102.5
c0 -60.667 -26 -110.334 -78 -149.001s-115.667 -58 -191 -58c-61.333 0 -120.333 12.167 -177 36.5s-100.334 54.833 -131.001 91.5l72 85c63.333 -66.667 145.666 -100 246.999 -100c42 0 74.667 7.5 98 22.5s35 35.833 35 62.5zM316.004 750.002l-183 111l46 68l139 -79
l138 79l41 -67l-177 -112h-4z" />
    <glyph glyph-name="scaron" unicode="&#x161;" horiz-adv-x="496" 
d="M356 148c0 14 -10.833 26.0059 -32.5 36.0059s-47.834 19.167 -78.501 27.5s-61.5 18.166 -92.5 29.499s-57.333 28.666 -79 51.999s-32.5 51.333 -32.5 84c0 48 19 85.833 57 113.5s90.333 41.5 157 41.5c44.667 0 86.334 -9 125.001 -27s67 -39.667 85 -65l-78 -74
c-34.667 40 -85 60 -151 60c-51.333 0 -77 -15.667 -77 -47c0 -10.667 7.83301 -20.334 23.5 -29.001s35.167 -15.834 58.5 -21.501s48.5 -13.334 75.5 -23.001s52.167 -20.167 75.5 -31.5s42.833 -27.833 58.5 -49.5s23.5 -46.834 23.5 -75.501
c0 -52 -20.333 -91.333 -61 -118s-91.667 -40 -153 -40c-56 0 -105.333 11.667 -148 35s-73.667 53.333 -93 90l90 62c14.667 -23.333 37 -42.666 67 -57.999s61.667 -23 95 -23c24 0 44.167 4.16699 60.5 12.5s24.5 21.166 24.5 38.499zM247 609.006l-157 131l57 69
l102 -87l106 85l52 -68l-156 -130h-4z" />
    <glyph glyph-name="Tcedilla" unicode="&#x162;" horiz-adv-x="593" 
d="M1 586l0.000976562 113.999h591v-114h-235v-586h-29v-32c71.333 -4 107 -32.333 107 -85c0 -27.333 -10.5 -49.166 -31.5 -65.499s-53.5 -24.5 -97.5 -24.5c-60 0 -106.667 14.667 -140 44l41 56c21.333 -16.667 47.666 -25 78.999 -25c26 0 39 7 39 21
c0 15.333 -16.667 23 -50 23h-11v88h-28v586h-235z" />
    <glyph glyph-name="tcedilla" unicode="&#x163;" horiz-adv-x="413" 
d="M125 -166l35.001 59.0029c21.333 -16.667 47.333 -25 78 -25c26.667 0 40 7 40 21c0 15.333 -16.667 23 -50 23h-13v86c-38.667 8 -68.667 27.5 -90 58.5s-32 72.5 -32 124.5v233h-90v106h90v107h114v-107h168v-106h-168v-201c0 -41.333 5.16699 -70.5 15.5 -87.5
s27.5 -25.5 51.5 -25.5c26.667 0 51.334 14.667 74.001 44l68 -64c-12.667 -22.667 -31.334 -41.834 -56.001 -57.501s-52 -24.834 -82 -27.501v-27c33.333 -2 58.833 -10.5 76.5 -25.5s26.5 -34.833 26.5 -59.5c0 -26.667 -11.667 -48.334 -35 -65.001
s-57.333 -25 -102 -25s-84.334 13.667 -119.001 41z" />
    <glyph glyph-name="Tcaron" unicode="&#x164;" horiz-adv-x="593" 
d="M1 586v114h591v-114h-235v-586h-121v586h-235zM298 750l-183 111l46 68l139 -79l138 79l41 -67l-177 -112h-4z" />
    <glyph glyph-name="tcaron" unicode="&#x165;" horiz-adv-x="413" 
d="M3 414l-0.000976562 106h91v107h112v-414c0 -41.333 5.33301 -70.5 16 -87.5s28 -25.5 52 -25.5c26.667 0 51.334 14.667 74.001 44l68 -64c-14.667 -25.333 -36.167 -46 -64.5 -62s-59.833 -24 -94.5 -24c-50.667 0 -90.5 16 -119.5 48s-43.5 78.333 -43.5 139v233h-91z
M279.999 711h118.999c8.66699 -15.333 13 -37.666 13 -66.999c0 -34.667 -10.667 -66.834 -32 -96.501s-46.666 -53.5 -75.999 -71.5l-49 44c16 14 28 31 36 51s12 38.333 12 55c0 36.667 -7.66699 65 -23 85z" />
    <glyph glyph-name="Umacron" unicode="&#x16a;" horiz-adv-x="726" 
d="M662 700l-0.00195312 -402.001c0 -52.667 -8.16699 -99.167 -24.5 -139.5s-38.666 -72.166 -66.999 -95.499s-59.166 -40.833 -92.499 -52.5s-69 -17.5 -107 -17.5c-87.333 0 -160.5 27.167 -219.5 81.5s-88.5 130.833 -88.5 229.5v396h121v-381
c0 -64 17.333 -115.5 52 -154.5s79.667 -58.5 135 -58.5c56 0 98.333 19 127 57s43 88.667 43 152v385h121zM208.998 779.999v95h307v-95h-307z" />
    <glyph glyph-name="umacron" unicode="&#x16b;" horiz-adv-x="578" 
d="M525 523l0.000976562 -523h-114v55c-38 -42.667 -86.333 -64 -145 -64c-72.667 0 -126.834 19 -162.501 57s-53.5 96.667 -53.5 176v299h114v-288c0 -92 37.667 -138 113 -138c59.333 0 104 30 134 90v336h114zM149.001 625v95h281v-95h-281z" />
    <glyph glyph-name="Ubreve" unicode="&#x16c;" horiz-adv-x="726" 
d="M662 700l-0.00195312 -402.001c0 -52.667 -8.16699 -99.167 -24.5 -139.5s-38.666 -72.166 -66.999 -95.499s-59.166 -40.833 -92.499 -52.5s-69 -17.5 -107 -17.5c-87.333 0 -160.5 27.167 -219.5 81.5s-88.5 130.833 -88.5 229.5v396h121v-381
c0 -64 17.333 -115.5 52 -154.5s79.667 -58.5 135 -58.5c56 0 98.333 19 127 57s43 88.667 43 152v385h121zM172.998 864.999l51.999 58.999c37.333 -40.667 85 -61 143 -61s104.667 20.333 140 61l45 -58c-18 -29.333 -43.833 -54.166 -77.5 -74.499
s-69.5 -30.5 -107.5 -30.5c-43.333 0 -82.166 10.333 -116.499 31s-60.5 45 -78.5 73z" />
    <glyph glyph-name="ubreve" unicode="&#x16d;" horiz-adv-x="578" 
d="M525 523l0.000976562 -523h-114v55c-38 -42.667 -86.333 -64 -145 -64c-72.667 0 -126.834 19 -162.501 57s-53.5 96.667 -53.5 176v299h114v-288c0 -92 37.667 -138 113 -138c59.333 0 104 30 134 90v336h114zM127.001 717l50.999 58c32 -36.667 69.333 -55 112 -55
c46.667 0 85 17.667 115 53l40 -55c-42 -63.333 -95 -95 -159 -95c-38 0 -70.667 10.167 -98 30.5s-47.666 41.5 -60.999 63.5z" />
    <glyph glyph-name="Uring" unicode="&#x16e;" horiz-adv-x="726" 
d="M662 700l-0.00195312 -402.001c0 -52.667 -8.16699 -99.167 -24.5 -139.5s-38.666 -72.166 -66.999 -95.499s-59.166 -40.833 -92.499 -52.5s-69 -17.5 -107 -17.5c-87.333 0 -160.5 27.167 -219.5 81.5s-88.5 130.833 -88.5 229.5v396h121v-381
c0 -64 17.333 -115.5 52 -154.5s79.667 -58.5 135 -58.5c56 0 98.333 19 127 57s43 88.667 43 152v385h121zM223.998 837.999c0 35.333 13 62.335 39 81.002s58.667 28 98 28c41.333 0 75.333 -9.16699 102 -27.5s40 -45.5 40 -81.5c0 -34.667 -13.333 -61.834 -40 -81.501
s-60.667 -29.5 -102 -29.5c-40 0 -72.833 9.66699 -98.5 29s-38.5 46.666 -38.5 81.999zM310.998 838.001c0 -14 4.66699 -25 14 -33s22 -12 38 -12s28.833 4 38.5 12s14.5 19 14.5 33c0 28 -17.667 42 -53 42c-34.667 0 -52 -14 -52 -42z" />
    <glyph glyph-name="uring" unicode="&#x16f;" horiz-adv-x="578" 
d="M525 523l0.000976562 -523h-114v55c-38 -42.667 -86.333 -64 -145 -64c-72.667 0 -126.834 19 -162.501 57s-53.5 96.667 -53.5 176v299h114v-288c0 -92 37.667 -138 113 -138c59.333 0 104 30 134 90v336h114zM167.001 701c0 32.667 11.667 60.334 35 83.001
s52.333 34 87 34c35.333 0 64.833 -11.333 88.5 -34s35.5 -50.334 35.5 -83.001c0 -32 -11.833 -59.167 -35.5 -81.5s-53.167 -33.5 -88.5 -33.5c-34.667 0 -63.667 11.167 -87 33.5s-35 49.5 -35 81.5zM244.001 702c0 -13.333 4.16699 -24.333 12.5 -33s19.5 -13 33.5 -13
s25.167 4.16699 33.5 12.5s12.5 19.5 12.5 33.5c0 14.667 -4.16699 26 -12.5 34s-19.5 12 -33.5 12s-25.167 -4.16699 -33.5 -12.5s-12.5 -19.5 -12.5 -33.5z" />
    <glyph glyph-name="Uhungarumlaut" unicode="&#x170;" horiz-adv-x="726" 
d="M662 700l-0.00195312 -402.001c0 -52.667 -8.16699 -99.167 -24.5 -139.5s-38.666 -72.166 -66.999 -95.499s-59.166 -40.833 -92.499 -52.5s-69 -17.5 -107 -17.5c-87.333 0 -160.5 27.167 -219.5 81.5s-88.5 130.833 -88.5 229.5v396h121v-381
c0 -64 17.333 -115.5 52 -154.5s79.667 -58.5 135 -58.5c56 0 98.333 19 127 57s43 88.667 43 152v385h121zM625.998 844.999l-187 -106l-47 53l157 129zM422.998 863.999l-163 -125l-48 49l117 133z" />
    <glyph glyph-name="uhungarumlaut" unicode="&#x171;" horiz-adv-x="578" 
d="M525 523l0.000976562 -523h-114v55c-38 -42.667 -86.333 -64 -145 -64c-72.667 0 -126.834 19 -162.501 57s-53.5 96.667 -53.5 176v299h114v-288c0 -92 37.667 -138 113 -138c59.333 0 104 30 134 90v336h114zM506.001 755l-138 -157l-61 45l124 170zM342.001 766
l-127 -168l-62 46l114 175z" />
    <glyph glyph-name="Uogonek" unicode="&#x172;" horiz-adv-x="726" 
d="M662 700v-401.998c0 -87.333 -21.167 -155.833 -63.5 -205.5s-96.5 -80.834 -162.5 -93.501c-20.667 -17.333 -31 -37 -31 -59c0 -31.333 14.667 -47 44 -47c16.667 0 32 3.33301 46 10l31 -73c-21.333 -20 -55 -30 -101 -30
c-37.333 -0.666992 -68.833 6.83301 -94.5 22.5s-38.5 39.167 -38.5 70.5c0 37.333 23.333 70.666 70 99.999c-85.333 2 -156.5 30 -213.5 84s-85.5 129.667 -85.5 227v396h121v-381c0 -64 17.333 -115.5 52 -154.5s79.667 -58.5 135 -58.5c56 0 98.333 19 127 57
s43 88.667 43 152v385h121z" />
    <glyph glyph-name="uogonek" unicode="&#x173;" horiz-adv-x="578" 
d="M503 -96l34.002 -72.998c-22 -20.667 -55.667 -31 -101 -31c-36.667 0 -67.5 8.16699 -92.5 24.5s-37.5 40.166 -37.5 71.499c0 26 9.66699 48.333 29 67s44.666 33 75.999 43v49c-38 -42.667 -86.333 -64 -145 -64c-72.667 0 -126.834 19 -162.501 57
s-53.5 96.667 -53.5 176v299h114v-288c0 -92 37.667 -138 113 -138c59.333 0 104 30 134 90v336h114v-523h-11c-23.333 -1.33301 -44.333 -8.83301 -63 -22.5s-28 -28.834 -28 -45.501c0 -11.333 3.5 -20.333 10.5 -27s15.833 -10 26.5 -10c16 0 30.333 3 43 9z" />
    <glyph glyph-name="Ydieresis" unicode="&#x178;" horiz-adv-x="671" 
d="M678 700l-283 -397v-303h-121v303l-281 397h150l193 -279l197 279h145zM146 828c0 18 6.66504 32.833 19.998 44.5s30 17.5 50 17.5c16.667 0 31.834 -6 45.501 -18s20.5 -26.667 20.5 -44c0 -18 -6.66699 -32.833 -20 -44.5s-28.666 -17.5 -45.999 -17.5
c-20.667 0 -37.5 5.66699 -50.5 17s-19.5 26.333 -19.5 45zM388.998 828c0 18 6.83105 32.833 20.498 44.5s29.834 17.5 48.501 17.5c17.333 0 32.666 -5.83301 45.999 -17.5s20 -26.5 20 -44.5s-6.66699 -32.833 -20 -44.5s-28.666 -17.5 -45.999 -17.5
c-19.333 0 -35.666 5.66699 -48.999 17s-20 26.333 -20 45z" />
    <glyph glyph-name="Zacute" unicode="&#x179;" horiz-adv-x="633" 
d="M29 586v114h574v-81l-418 -505h428v-114h-601v81l416 505h-399zM495 849l-220 -104l-43 76l210 128z" />
    <glyph glyph-name="zacute" unicode="&#x17a;" horiz-adv-x="504" 
d="M36 414v106h448v-73l-292 -341h287v-106h-459v74l292 340h-276zM389 755l-127 -157l-77 54l118 167z" />
    <glyph glyph-name="Zdotaccent" unicode="&#x17b;" horiz-adv-x="633" 
d="M29 586v114h574v-81l-418 -505h428v-114h-601v81l416 505h-399zM250 827c0 17.333 6.33301 31.668 19 43.001s28.667 17 48 17c18.667 0 34.334 -5.83301 47.001 -17.5s19 -25.834 19 -42.501c0 -18 -6.33301 -32.833 -19 -44.5s-28.334 -17.5 -47.001 -17.5
c-20 0 -36.167 5.83301 -48.5 17.5s-18.5 26.5 -18.5 44.5z" />
    <glyph glyph-name="zdotaccent" unicode="&#x17c;" horiz-adv-x="504" 
d="M36 414v106h448v-73l-292 -341h287v-106h-459v74l292 340h-276zM185 671c0 16.667 6.33301 30.666 19 41.999s28.667 17 48 17c18.667 0 34.334 -5.66699 47.001 -17s19 -25.333 19 -42c0 -18 -6.33301 -33 -19 -45s-28.334 -18 -47.001 -18
c-20 0 -36.167 5.83301 -48.5 17.5s-18.5 26.834 -18.5 45.501z" />
    <glyph glyph-name="Zcaron" unicode="&#x17d;" horiz-adv-x="633" 
d="M29 586v114h574v-81l-418 -505h428v-114h-601v81l416 505h-399zM317 750l-183 111l46 68l139 -79l138 79l41 -67l-177 -112h-4z" />
    <glyph glyph-name="zcaron" unicode="&#x17e;" horiz-adv-x="504" 
d="M36 414v106h448v-73l-292 -341h287v-106h-459v74l292 340h-276zM251 609l-157 131l57 69l102 -87l106 85l52 -68l-156 -130h-4z" />
    <glyph glyph-name="uni018F" unicode="&#x18f;" horiz-adv-x="761" 
d="M27 312c0 36 5.33203 70.002 15.999 102.002h558c-9.33301 56 -34.666 100.167 -75.999 132.5s-94 48.5 -158 48.5c-38 0 -76.833 -8.33301 -116.5 -25s-72.167 -41.334 -97.5 -74.001l-81 78c32.667 44 76 77.333 130 100s111 34 171 34
c109.333 0 195.666 -32 258.999 -96s95 -150.333 95 -259c0 -106.667 -32 -193.5 -96 -260.5s-151.333 -100.5 -262 -100.5c-56.667 0 -107.667 9.83301 -153 29.5s-81.166 45.5 -107.499 77.5s-46.5 66.167 -60.5 102.5s-21 73.166 -21 110.499zM601.999 301.002h-453.998
c5.33301 -58.667 27.166 -106 65.499 -142s91.5 -54 159.5 -54c63.333 0 116.166 18 158.499 54s65.833 83.333 70.5 142z" />
    <glyph glyph-name="florin" unicode="&#x192;" horiz-adv-x="555" 
d="M335 481l-5.00098 -24h144v-105h-162l-61 -342c-6 -32 -12.667 -59.333 -20 -82s-17.666 -45.167 -30.999 -67.5s-31.166 -39.333 -53.499 -51s-48.833 -17.5 -79.5 -17.5c-50 0 -90.333 16 -121 48l38 88c20.667 -20 45 -30 73 -30c40 0 65.333 29.667 76 89l66 365
h-134v105h153l7 42c22 140 90 210 204 210c53.333 0 95.666 -13.333 126.999 -40l-41 -90c-23.333 16 -49.333 24 -78 24c-29.333 0 -51.333 -9.16699 -66 -27.5s-26.667 -49.833 -36 -94.5z" />
    <glyph glyph-name="uni01DD" unicode="&#x1dd;" horiz-adv-x="569" 
d="M120 357l-70 69.002c54.667 70.667 132.667 106 234 106c73.333 0 134.333 -24.833 183 -74.5s73 -114.834 73 -195.501c0 -79.333 -23.5 -144.333 -70.5 -195s-112.5 -76 -196.5 -76c-70.667 0 -129 22.167 -175 66.5s-69 102.166 -69 173.499c0 24 2 48.333 6 73h386
c-4.66699 38.667 -20.667 68.667 -48 90s-58 32 -92 32c-73.333 0 -127 -23 -161 -69zM278 94.002c38 0 69.5 10.001 94.5 30.001s40.833 47 47.5 81h-273c4 -34.667 17.5 -61.834 40.5 -81.501s53.167 -29.5 90.5 -29.5z" />
    <glyph glyph-name="Scommaaccent" unicode="&#x218;" horiz-adv-x="631" 
d="M476 190c0 21.333 -7.99609 39.335 -23.9961 54.002s-36.667 26.167 -62 34.5s-53.333 16 -84 23s-61.334 15.333 -92.001 25s-58.667 21.5 -84 35.5s-46 33.5 -62 58.5s-24 54.833 -24 89.5c0 55.333 25.833 102.166 77.5 140.499s117.167 57.5 196.5 57.5
c115.333 0 205.666 -33.333 270.999 -100l-66 -86c-58.667 48.667 -128 73 -208 73c-41.333 0 -76 -6.83301 -104 -20.5s-42 -34.167 -42 -61.5c0 -22 10.667 -40.167 32 -54.5s48 -25 80 -32s66.667 -16 104 -27s72 -23 104 -36s58.667 -33.667 80 -62s32 -62.5 32 -102.5
c0 -60.667 -26 -110.334 -78 -149.001s-115.667 -58 -191 -58c-61.333 0 -120.333 12.167 -177 36.5s-100.334 54.833 -131.001 91.5l72 85c63.333 -66.667 145.666 -100 246.999 -100c42 0 74.667 7.5 98 22.5s35 35.833 35 62.5zM249.004 -99.998l94 61.999
c30 -24 45 -53 45 -87c0 -34.667 -9.33301 -65.167 -28 -91.5s-40 -46.833 -64 -61.5l-53 41c23.333 23.333 35 49.333 35 78c0 18.667 -9.66699 38.334 -29 59.001z" />
    <glyph glyph-name="scommaaccent" unicode="&#x219;" horiz-adv-x="496" 
d="M356 148c0 14 -10.833 26.0059 -32.5 36.0059s-47.834 19.167 -78.501 27.5s-61.5 18.166 -92.5 29.499s-57.333 28.666 -79 51.999s-32.5 51.333 -32.5 84c0 48 19 85.833 57 113.5s90.333 41.5 157 41.5c44.667 0 86.334 -9 125.001 -27s67 -39.667 85 -65l-78 -74
c-34.667 40 -85 60 -151 60c-51.333 0 -77 -15.667 -77 -47c0 -10.667 7.83301 -20.334 23.5 -29.001s35.167 -15.834 58.5 -21.501s48.5 -13.334 75.5 -23.001s52.167 -20.167 75.5 -31.5s42.833 -27.833 58.5 -49.5s23.5 -46.834 23.5 -75.501
c0 -52 -20.333 -91.333 -61 -118s-91.667 -40 -153 -40c-56 0 -105.333 11.667 -148 35s-73.667 53.333 -93 90l90 62c14.667 -23.333 37 -42.666 67 -57.999s61.667 -23 95 -23c24 0 44.167 4.16699 60.5 12.5s24.5 21.166 24.5 38.499zM181 -99.9941l95 62
c30 -25.333 45 -54.333 45 -87c0 -34.667 -9.33301 -65.167 -28 -91.5s-40 -46.833 -64 -61.5l-53 41c23.333 23.333 35 49.333 35 78c0 18 -10 37.667 -30 59z" />
    <glyph glyph-name="Tcommaaccent" unicode="&#x21a;" horiz-adv-x="593" 
d="M1 586v114h591v-114h-235v-586h-121v586h-235zM230 -100l94 61.999c30 -24 45 -53 45 -87c0 -34.667 -9.33301 -65.167 -28 -91.5s-40 -46.833 -64 -61.5l-53 41c23.333 23.333 35 49.333 35 78c0 18.667 -9.66699 38.334 -29 59.001z" />
    <glyph glyph-name="tcommaaccent" unicode="&#x21b;" horiz-adv-x="413" 
d="M3 414l-0.000976562 106h90v107h114v-107h168v-106h-168v-201c0 -41.333 5.16699 -70.5 15.5 -87.5s27.5 -25.5 51.5 -25.5c26.667 0 51.334 14.667 74.001 44l68 -64c-14.667 -25.333 -36.167 -46 -64.5 -62s-59.833 -24 -94.5 -24c-50.667 0 -90.667 16 -120 48
s-44 78.333 -44 139v233h-90zM162.999 -100l95 62c30 -25.333 45 -54.333 45 -87c0 -34.667 -9.33301 -65.167 -28 -91.5s-40 -46.833 -64 -61.5l-53 41c23.333 23.333 35 49.333 35 78c0 18 -10 37.667 -30 59z" />
    <glyph glyph-name="uni0237" unicode="&#x237;" horiz-adv-x="254" 
d="M186 520v-521c0 -66.667 -14.333 -118 -43 -154s-71.667 -54 -129 -54c-82 0 -137.333 33.333 -166 100l97 43c15.333 -24.667 35.333 -37 60 -37c44.667 0 67 35 67 105v518h114z" />
    <glyph glyph-name="uni0259" unicode="&#x259;" horiz-adv-x="569" 
d="M120 357l-70 69.002c54.667 70.667 132.667 106 234 106c73.333 0 134.333 -24.833 183 -74.5s73 -114.834 73 -195.501c0 -79.333 -23.5 -144.333 -70.5 -195s-112.5 -76 -196.5 -76c-70.667 0 -129 22.167 -175 66.5s-69 102.166 -69 173.499c0 24 2 48.333 6 73h386
c-4.66699 38.667 -20.667 68.667 -48 90s-58 32 -92 32c-73.333 0 -127 -23 -161 -69zM278 94.002c38 0 69.5 10.001 94.5 30.001s40.833 47 47.5 81h-273c4 -34.667 17.5 -61.834 40.5 -81.501s53.167 -29.5 90.5 -29.5z" />
    <glyph glyph-name="afii57929" unicode="&#x2bc;" horiz-adv-x="198" 
d="M58 677l95 60c30 -25.333 45 -58.666 45 -99.999c0 -34 -10.5 -65.333 -31.5 -94s-46.5 -52.334 -76.5 -71.001l-49 45c31.333 26 47 55 47 87c0 24.667 -10 49 -30 73z" />
    <glyph glyph-name="circumflex" unicode="&#x2c6;" horiz-adv-x="461" 
d="M304 790l157 -131l-57 -70l-102 88l-106 -85l-52 68l156 130h4z" />
    <glyph glyph-name="caron" unicode="&#x2c7;" horiz-adv-x="458" 
d="M298 609l-157 131l57 69l102 -87l106 85l52 -68l-156 -130h-4z" />
    <glyph glyph-name="breve" unicode="&#x2d8;" horiz-adv-x="462" 
d="M144 717l50.999 58c32 -36.667 69.333 -55 112 -55c46.667 0 85 17.667 115 53l40 -55c-42 -63.333 -95 -95 -159 -95c-38 0 -70.667 10.167 -98 30.5s-47.666 41.5 -60.999 63.5z" />
    <glyph glyph-name="dotaccent" unicode="&#x2d9;" horiz-adv-x="250" 
d="M60 671c0 16.667 6.33301 30.666 19 41.999s28.667 17 48 17c18.667 0 34.334 -5.66699 47.001 -17s19 -25.333 19 -42c0 -18 -6.33301 -33 -19 -45s-28.334 -18 -47.001 -18c-20 0 -36.167 5.83301 -48.5 17.5s-18.5 26.834 -18.5 45.501z" />
    <glyph glyph-name="ring" unicode="&#x2da;" horiz-adv-x="430" 
d="M184 701c0 32.667 11.667 60.334 35 83.001s52.333 34 87 34c35.333 0 64.833 -11.333 88.5 -34s35.5 -50.334 35.5 -83.001c0 -32 -11.833 -59.167 -35.5 -81.5s-53.167 -33.5 -88.5 -33.5c-34.667 0 -63.667 11.167 -87 33.5s-35 49.5 -35 81.5zM261 702
c0 -13.333 4.16699 -24.333 12.5 -33s19.5 -13 33.5 -13s25.167 4.16699 33.5 12.5s12.5 19.5 12.5 33.5c0 14.667 -4.16699 26 -12.5 34s-19.5 12 -33.5 12s-25.167 -4.16699 -33.5 -12.5s-12.5 -19.5 -12.5 -33.5z" />
    <glyph glyph-name="ogonek" unicode="&#x2db;" horiz-adv-x="384" 
d="M350 -96l33.999 -72.998c-22 -20.667 -55.667 -31 -101 -31c-36.667 0 -67.5 8.16699 -92.5 24.5s-37.5 40.166 -37.5 71.499c0 27.333 11.667 51.166 35 71.499s51 34.833 83 43.5s64.667 12.667 98 12v-23c-25.333 0 -48.166 -7 -68.499 -21s-30.5 -29.667 -30.5 -47
c0 -11.333 3.5 -20.333 10.5 -27s15.833 -10 26.5 -10c16 0 30.333 3 43 9z" />
    <glyph glyph-name="tilde" unicode="&#x2dc;" horiz-adv-x="466" 
d="M167 612l-48.998 53c37.333 47.333 78 71 122 71c16 0 36.667 -7.33301 62 -22s44.666 -22 57.999 -22c22.667 0 44.667 10 66 30l40 -58c-36 -44 -74.667 -66 -116 -66c-16.667 0 -37.334 7.16699 -62.001 21.5s-43.667 21.5 -57 21.5c-20 0 -41.333 -9.66699 -64 -29z
" />
    <glyph glyph-name="hungarumlaut" unicode="&#x2dd;" horiz-adv-x="537" 
d="M537 755l-138 -157l-61 45l124 170zM373 766l-127 -168l-62 46l114 175z" />
    <glyph glyph-name="gravecomb" unicode="&#x300;" horiz-adv-x="0" 
d="M-275 598l-137 154l89 67l115 -167z" />
    <glyph glyph-name="acutecomb" unicode="&#x301;" horiz-adv-x="0" 
d="M-168 755l-127 -157l-77 54l118 167z" />
    <glyph glyph-name="uni0394" unicode="&#x394;" horiz-adv-x="726" 
d="M18 0l303 707h78l309 -707h-690zM360 509l-173 -406h350z" />
    <glyph glyph-name="uni0394" unicode="&#x2206;" horiz-adv-x="726" 
d="M18 0l303 707h78l309 -707h-690zM360 509l-173 -406h350z" />
    <glyph glyph-name="uni03A9" unicode="&#x3a9;" horiz-adv-x="821" 
d="M59 0l0.000976562 117h124c-28.667 11.333 -56 41.333 -82 90s-39 105 -39 169c0 100 32.833 180.667 98.5 242s149.167 92 250.5 92c102 0 185.5 -30.5 250.5 -91.5s97.5 -141.833 97.5 -242.5c0 -66.667 -13.5 -122.5 -40.5 -167.5s-56.5 -75.5 -88.5 -91.5h132v-117
h-312v117c50.667 15.333 94 45.833 130 91.5s54 98.167 54 157.5c0 60.667 -20.833 113.667 -62.5 159s-95.167 68 -160.5 68c-68.667 0 -123.167 -21.833 -163.5 -65.5s-60.5 -98.167 -60.5 -163.5c0 -59.333 18.167 -112.333 54.5 -159s79.166 -76 128.499 -88v-117h-311z
" />
    <glyph glyph-name="uni03A9" unicode="&#x2126;" horiz-adv-x="821" 
d="M59 0l0.000976562 117h124c-28.667 11.333 -56 41.333 -82 90s-39 105 -39 169c0 100 32.833 180.667 98.5 242s149.167 92 250.5 92c102 0 185.5 -30.5 250.5 -91.5s97.5 -141.833 97.5 -242.5c0 -66.667 -13.5 -122.5 -40.5 -167.5s-56.5 -75.5 -88.5 -91.5h132v-117
h-312v117c50.667 15.333 94 45.833 130 91.5s54 98.167 54 157.5c0 60.667 -20.833 113.667 -62.5 159s-95.167 68 -160.5 68c-68.667 0 -123.167 -21.833 -163.5 -65.5s-60.5 -98.167 -60.5 -163.5c0 -59.333 18.167 -112.333 54.5 -159s79.166 -76 128.499 -88v-117h-311z
" />
    <glyph glyph-name="pi" unicode="&#x3c0;" horiz-adv-x="667" 
d="M42 414l-0.00292969 106.001h583v-106h-94v-257c0 -22 3.33301 -37.667 10 -47s17 -14 31 -14c16.667 0 35.334 7.33301 56.001 22l26 -86c-34.667 -28 -74.667 -42 -120 -42c-77.333 0 -116 50.333 -116 151v273h-162v-63c0 -96.667 -7.83301 -171.167 -23.5 -223.5
s-39 -88.166 -70 -107.499s-74.5 -29 -130.5 -29l-9 109c16 0 29.333 1.5 40 4.5s21.334 9.16699 32.001 18.5s19.167 22.166 25.5 38.499s11.333 38.666 15 66.999s5.83398 62.833 6.50098 103.5l1 82h-101z" />
    <glyph glyph-name="afii10023" unicode="&#x401;" horiz-adv-x="645" 
d="M70 0v700h520v-114h-399v-176h373v-110h-373v-186h409v-114h-530zM136 828c0 18 6.66504 32.833 19.998 44.5s30 17.5 50 17.5c16.667 0 31.834 -6 45.501 -18s20.5 -26.667 20.5 -44c0 -18 -6.66699 -32.833 -20 -44.5s-28.666 -17.5 -45.999 -17.5
c-20.667 0 -37.5 5.66699 -50.5 17s-19.5 26.333 -19.5 45zM378.998 828c0 18 6.83105 32.833 20.498 44.5s29.834 17.5 48.501 17.5c17.333 0 32.666 -5.83301 45.999 -17.5s20 -26.5 20 -44.5s-6.66699 -32.833 -20 -44.5s-28.666 -17.5 -45.999 -17.5
c-19.333 0 -35.666 5.66699 -48.999 17s-20 26.333 -20 45z" />
    <glyph glyph-name="afii10051" unicode="&#x402;" horiz-adv-x="754" 
d="M598 203c0 41.333 -10.3311 73.167 -30.998 95.5s-49.334 33.833 -86.001 34.5c-26.667 0 -51.334 -6 -74.001 -18s-40.334 -28 -53.001 -48v-267h-121v587h-232v113h587v-113h-234v-190c35.333 32.667 85.333 49 150 49c62 0 113.5 -18.333 154.5 -55
s61.5 -93.667 61.5 -171c0 -76.667 -18.5 -134 -55.5 -172s-82.5 -57 -136.5 -57c-55.333 0 -96.333 19.333 -123 58l68 80c15.333 -16.667 33 -25 53 -25c22.667 0 40.334 8.5 53.001 25.5s19 41.5 19 73.5z" />
    <glyph glyph-name="afii10052" unicode="&#x403;" horiz-adv-x="580" 
d="M70 0v700h510v-114h-389v-586h-121zM502 849l-220 -104l-43 76l210 128z" />
    <glyph glyph-name="afii10053" unicode="&#x404;" horiz-adv-x="687" 
d="M483 413v-112.999h-326c8 -64 34.333 -112.5 79 -145.5s98.667 -49.5 162 -49.5c40 0 75.5 9.16699 106.5 27.5s55.833 42.166 74.5 71.499l93 -50c-22 -52 -59.167 -92 -111.5 -120s-103.833 -42 -154.5 -42c-112 0 -202.167 32.667 -270.5 98s-102.5 152 -102.5 260
c0 104.667 33.5 190.5 100.5 257.5s155.5 100.5 265.5 100.5c48.667 0 98 -10.5 148 -31.5s87.333 -52.167 112 -93.5l-89 -66c-38 52 -97.667 78 -179 78c-58.667 0 -109 -16.167 -151 -48.5s-69 -76.833 -81 -133.5h324z" />
    <glyph glyph-name="afii10054" unicode="&#x405;" horiz-adv-x="631" 
d="M476 190c0 21.333 -7.99609 39.335 -23.9961 54.002s-36.667 26.167 -62 34.5s-53.333 16 -84 23s-61.334 15.333 -92.001 25s-58.667 21.5 -84 35.5s-46 33.5 -62 58.5s-24 54.833 -24 89.5c0 55.333 25.833 102.166 77.5 140.499s117.167 57.5 196.5 57.5
c115.333 0 205.666 -33.333 270.999 -100l-66 -86c-58.667 48.667 -128 73 -208 73c-41.333 0 -76 -6.83301 -104 -20.5s-42 -34.167 -42 -61.5c0 -22 10.667 -40.167 32 -54.5s48 -25 80 -32s66.667 -16 104 -27s72 -23 104 -36s58.667 -33.667 80 -62s32 -62.5 32 -102.5
c0 -60.667 -26 -110.334 -78 -149.001s-115.667 -58 -191 -58c-61.333 0 -120.333 12.167 -177 36.5s-100.334 54.833 -131.001 91.5l72 85c63.333 -66.667 145.666 -100 246.999 -100c42 0 74.667 7.5 98 22.5s35 35.833 35 62.5z" />
    <glyph glyph-name="afii10055" unicode="&#x406;" horiz-adv-x="261" 
d="M70 0v700h121v-700h-121z" />
    <glyph glyph-name="afii10056" unicode="&#x407;" horiz-adv-x="275" 
d="M-12 805c0 16.667 6.16699 30.5 18.5 41.5s27.5 16.5 45.5 16.5c16.667 0 31.667 -5.66699 45 -17s20 -25 20 -41c0 -16.667 -6.5 -30.667 -19.5 -42s-28.167 -17 -45.5 -17c-18 0 -33.167 5.5 -45.5 16.5s-18.5 25.167 -18.5 42.5zM158 805
c0 16.667 6.50098 30.5 19.501 41.5s28.5 16.5 46.5 16.5c17.333 0 32.166 -5.66699 44.499 -17s18.5 -25 18.5 -41c0 -17.333 -6.16699 -31.5 -18.5 -42.5s-27.166 -16.5 -44.499 -16.5c-18.667 0 -34.334 5.5 -47.001 16.5s-19 25.167 -19 42.5zM77.001 0v700h121v-700
h-121z" />
    <glyph glyph-name="afii10057" unicode="&#x408;" horiz-adv-x="486" 
d="M419 700v-483.001c0 -72 -19 -127.5 -57 -166.5s-89 -58.5 -153 -58.5c-54 0 -98.833 12.333 -134.5 37s-62.834 55.667 -81.501 93l90 68c33.333 -56.667 72 -85 116 -85c34.667 0.666992 59.834 10.834 75.501 30.501s23.5 54.5 23.5 104.5v460h121z" />
    <glyph glyph-name="afii10058" unicode="&#x409;" horiz-adv-x="1046" 
d="M510 586l-250.002 -0.00195312v-94c0 -76 -4 -143.333 -12 -202s-18.833 -106.334 -32.5 -143.001s-30 -66.667 -49 -90s-38.667 -39.5 -59 -48.5s-42.166 -13.167 -65.499 -12.5c-2 0 -16 1 -42 3v117c17.333 -2 32.333 -1 45 3s25.334 14.333 38.001 31
s23.167 40.334 31.5 71.001s15 73.334 20 128.001s7.5 120 7.5 196v155h489v-250h118c182.667 0 274 -73 274 -219c0 -75.333 -25.5 -132.666 -76.5 -171.999s-120.833 -59 -209.5 -59h-227v586zM746.998 335.998l-116 0.000976562v-222h110c52 0 91 9.16699 117 27.5
s39 48.166 39 89.499c0 70 -50 105 -150 105z" />
    <glyph glyph-name="afii10059" unicode="&#x40a;" horiz-adv-x="1047" 
d="M637 432h118c179.333 0 269 -70.333 269 -211c0 -74.667 -24.333 -130.167 -73 -166.5s-117.667 -54.5 -207 -54.5h-228v318h-325v-318h-121v700h121v-268h325v268h121v-268zM754 318l-117 0.000976562v-204h111c51.333 0 89.166 8 113.499 24s36.5 43 36.5 81
c0 35.333 -11.667 60.666 -35 75.999s-59.666 23 -108.999 23z" />
    <glyph glyph-name="afii10060" unicode="&#x40b;" horiz-adv-x="735" 
d="M1 586l-0.00195312 114.001h587v-114h-234v-185c42 30 87 45 135 45c66.667 0 118.834 -19 156.501 -57s56.5 -97 56.5 -177v-212h-121v195c0 41.333 -8.83301 74.666 -26.5 99.999s-45.834 38 -84.501 38c-21.333 0 -42.666 -5.33301 -63.999 -16
s-38.666 -25 -51.999 -43v-274h-121v586h-232z" />
    <glyph glyph-name="afii10061" unicode="&#x40c;" horiz-adv-x="680" 
d="M70 0v700h121v-307l314 307h158l-318 -314l341 -386h-161l-271 305l-63 -61v-244h-121zM497 849l-220 -104l-43 76l210 128z" />
    <glyph glyph-name="afii10062" unicode="&#x40e;" horiz-adv-x="707" 
d="M196 14l47.001 101c8 -3.33301 15.667 -5 23 -5c22 0 44.333 23.333 67 70l-333 520h149l246 -393l185 393h127l-259 -538c-26.667 -56 -53.834 -97.5 -81.501 -124.5s-62.167 -40.5 -103.5 -40.5c-24 0 -46.333 5.66699 -67 17zM160.001 908h113.998
c14.667 -39.333 43.334 -59 86.001 -59c48.667 0 77.334 19.667 86.001 59h114c-3.33301 -45.333 -23.666 -83 -60.999 -113s-82.333 -45 -135 -45c-58 0 -104.333 14.333 -139 43s-56.334 67 -65.001 115z" />
    <glyph glyph-name="afii10145" unicode="&#x40f;" horiz-adv-x="733" 
d="M70 0v700h121v-587h351v587h121v-700h-238v-144h-117v144h-238z" />
    <glyph glyph-name="afii10017" unicode="&#x410;" horiz-adv-x="704" 
d="M-1 0l307 700h92l307 -700h-127l-68 155h-319l-67 -155h-125zM350 525l-115 -266h230z" />
    <glyph glyph-name="afii10018" unicode="&#x411;" horiz-adv-x="662" 
d="M582 700v-114h-391v-159h193c82 0 143.833 -18 185.5 -54s62.5 -87.333 62.5 -154c0 -146 -94.667 -219 -284 -219h-278v700h512zM360 313h-169.001v-199h163c102 0 153 34.667 153 104c0 32.667 -11.667 56.667 -35 72s-60.666 23 -111.999 23z" />
    <glyph glyph-name="afii10019" unicode="&#x412;" horiz-adv-x="675" 
d="M70 0v700h297c88 0 150.667 -15.5 188 -46.5s56 -74.167 56 -129.5c0 -70 -28 -122 -84 -156c72 -22.667 108 -77.334 108 -164.001c0 -69.333 -24.333 -120.666 -73 -153.999s-115.667 -50 -201 -50h-291zM361 302h-170.001v-188h162
c54.667 0 94.334 7.66699 119.001 23s37 40 37 74c0 31.333 -11.5 54.333 -34.5 69s-60.833 22 -113.5 22zM350.999 586h-160v-174h173c38.667 0 68.667 7.5 90 22.5s32 35.833 32 62.5c0 30.667 -10 53.167 -30 67.5s-55 21.5 -105 21.5z" />
    <glyph glyph-name="afii10020" unicode="&#x413;" horiz-adv-x="580" 
d="M70 0v700h510v-114h-389v-586h-121z" />
    <glyph glyph-name="afii10021" unicode="&#x414;" horiz-adv-x="743" 
d="M0 -123v236h75c26 38.667 45.5 93 58.5 163s19.5 177.333 19.5 322v102h495v-587h85v-236h-117v123h-499v-123h-117zM268 587v-44.001c0 -203.333 -22.333 -346.666 -67 -429.999h326v474h-259z" />
    <glyph glyph-name="afii10022" unicode="&#x415;" horiz-adv-x="645" 
d="M70 0v700h520v-114h-399v-176h373v-110h-373v-186h409v-114h-530z" />
    <glyph glyph-name="afii10024" unicode="&#x416;" horiz-adv-x="948" 
d="M288 381l-286 319h148l263 -291v291h121v-292l262 292h150l-289 -318l291 -382h-145l-239 315l-30 -31v-284h-121v284l-33 32l-241 -316h-139z" />
    <glyph glyph-name="afii10025" unicode="&#x417;" horiz-adv-x="650" 
d="M332 -10c-152.667 0 -261.001 49.6641 -325.001 148.997l94 66c52.667 -68 128.667 -102 228 -102c48.667 0 87.834 10.333 117.501 31s44.5 46.334 44.5 77.001c0 28 -14.333 49.833 -43 65.5s-68.667 23.5 -120 23.5h-117v114h111c42.667 0 77.5 8.33301 104.5 25
s40.5 38.334 40.5 65.001c0 32 -14.667 55.5 -44 70.5s-66.666 22.5 -111.999 22.5c-77.333 0 -140.333 -30 -189 -90l-94 65c66.667 92 166.667 138 300 138c75.333 0 137.666 -17.833 186.999 -53.5s74 -84.167 74 -145.5c0 -30 -8.66699 -57.5 -26 -82.5
s-41 -45.167 -71 -60.5c40 -13.333 70.167 -34.166 90.5 -62.499s30.5 -59.5 30.5 -93.5c0 -68 -26.667 -122 -80 -162s-120.333 -60 -201 -60z" />
    <glyph glyph-name="afii10026" unicode="&#x418;" horiz-adv-x="747" 
d="M171 0h-101v700h121v-485l384 485h102v-700h-121v485z" />
    <glyph glyph-name="afii10027" unicode="&#x419;" horiz-adv-x="747" 
d="M171 0h-101v700h121v-485l384 485h102v-700h-121v485zM174 908h113.998c14.667 -39.333 43.334 -59 86.001 -59c48.667 0 77.334 19.667 86.001 59h114c-3.33301 -45.333 -23.666 -83 -60.999 -113s-82.333 -45 -135 -45c-58 0 -104.333 14.333 -139 43
s-56.334 67 -65.001 115z" />
    <glyph glyph-name="afii10028" unicode="&#x41a;" horiz-adv-x="680" 
d="M70 0v700h121v-307l314 307h158l-318 -314l341 -386h-161l-271 305l-63 -61v-244h-121z" />
    <glyph glyph-name="afii10029" unicode="&#x41b;" horiz-adv-x="718" 
d="M527 0l-0.00195312 586.999h-267v-95c0 -76 -4 -143.333 -12 -202s-18.833 -106.334 -32.5 -143.001s-30 -66.667 -49 -90s-38.667 -39.5 -59 -48.5s-42.166 -13.167 -65.499 -12.5c-2 0 -16 1 -42 3v117c17.333 -2 32.333 -1 45 3s25.334 14.333 38.001 31
s23.167 40.334 31.5 71.001s15 73.334 20 128.001s7.5 120 7.5 196v155h506v-700h-121z" />
    <glyph glyph-name="afii10030" unicode="&#x41c;" horiz-adv-x="844" 
d="M70 0v700h107l250 -325l241 325h106v-700h-121v485l-213 -278h-31l-218 279v-486h-121z" />
    <glyph glyph-name="afii10031" unicode="&#x41d;" horiz-adv-x="749" 
d="M558 0v297h-367v-297h-121v700h121v-289h367v289h121v-700h-121z" />
    <glyph glyph-name="afii10032" unicode="&#x41e;" horiz-adv-x="782" 
d="M33 350c0 100.667 34.5 185.5 103.5 254.5s153.833 103.5 254.5 103.5s185.5 -34 254.5 -102s103.5 -153.333 103.5 -256c0 -102 -34.667 -187.167 -104 -255.5s-154 -102.5 -254 -102.5s-184.667 34 -254 102s-104 153.333 -104 256zM159 350
c0 -70.667 22.667 -128.667 68 -174s100 -68 164 -68c66 0 121.167 22.5 165.5 67.5s66.5 103.167 66.5 174.5c0 70.667 -22.833 128.667 -68.5 174s-100.167 68 -163.5 68c-64 0 -118.667 -22.5 -164 -67.5s-68 -103.167 -68 -174.5z" />
    <glyph glyph-name="afii10033" unicode="&#x41f;" horiz-adv-x="746" 
d="M555 0v586h-364v-586h-121v700h606v-700h-121z" />
    <glyph glyph-name="afii10034" unicode="&#x420;" horiz-adv-x="678" 
d="M191 0l-121.001 -0.000976562v700h283c56.667 0 104.834 -6.5 144.501 -19.5s69.667 -31.167 90 -54.5s34.833 -47.5 43.5 -72.5s13 -52.833 13 -83.5c0 -30 -5.16699 -58.167 -15.5 -84.5s-26.333 -50.666 -48 -72.999s-52 -40 -91 -53s-84.833 -19.5 -137.5 -19.5h-161
v-240zM356.999 586.999h-166v-234h159c112 0 168 39.333 168 118c0 77.333 -53.667 116 -161 116z" />
    <glyph glyph-name="afii10035" unicode="&#x421;" horiz-adv-x="692" 
d="M606 200l70.999 -78c-28.667 -40.667 -68.167 -72.5 -118.5 -95.5s-105.5 -34.5 -165.5 -34.5c-110 0 -197.5 32.5 -262.5 97.5s-97.5 151.833 -97.5 260.5c0 102 33 187.167 99 255.5s152.333 102.5 259 102.5c61.333 0 116.333 -11.167 165 -33.5
s85.334 -51.5 110.001 -87.5l-80 -76c-48.667 54 -111.667 81 -189 81c-72 0 -129.667 -22 -173 -66s-65 -102.667 -65 -176c0 -72.667 22.5 -131.167 67.5 -175.5s103.5 -66.5 175.5 -66.5c84.667 0 152.667 30.667 204 92z" />
    <glyph glyph-name="afii10036" unicode="&#x422;" horiz-adv-x="593" 
d="M1 586v114h591v-114h-235v-586h-121v586h-235z" />
    <glyph glyph-name="afii10037" unicode="&#x423;" horiz-adv-x="707" 
d="M196 14l47.001 101c8 -3.33301 15.667 -5 23 -5c22 0 44.333 23.333 67 70l-333 520h149l246 -393l185 393h127l-259 -538c-26.667 -56 -53.834 -97.5 -81.501 -124.5s-62.167 -40.5 -103.5 -40.5c-24 0 -46.333 5.66699 -67 17z" />
    <glyph glyph-name="afii10038" unicode="&#x424;" horiz-adv-x="877" 
d="M379 -15v83h-4c-104 0 -188 26.667 -252 80s-96 124 -96 212c0 92 32.667 163.667 98 215s150 77 254 77v63h120v-63c99.333 0 182.833 -25.333 250.5 -76s101.5 -122.667 101.5 -216c0 -88 -32 -158.667 -96 -212s-147.667 -80 -251 -80h-5v-83h-120zM501 539h-2v-358h5
c66.667 0 120.167 15.5 160.5 46.5s60.5 75.167 60.5 132.5s-19 101.5 -57 132.5s-93.667 46.5 -167 46.5zM153 360c0 -52.667 19.5 -95.667 58.5 -129s93.5 -50 163.5 -50h4v358c-68 0 -122.667 -15 -164 -45s-62 -74.667 -62 -134z" />
    <glyph glyph-name="afii10039" unicode="&#x425;" horiz-adv-x="682" 
d="M667 700l-253 -345l262 -355h-148l-187 257l-187 -257h-147l262 355l-251 345h145l179 -245l179 245h146z" />
    <glyph glyph-name="afii10040" unicode="&#x426;" horiz-adv-x="747" 
d="M70 0v700h121v-586h340v586h121v-586h85v-237h-117v123h-550z" />
    <glyph glyph-name="afii10041" unicode="&#x427;" horiz-adv-x="696" 
d="M627 700v-700h-121v281c-20.667 -12 -49.334 -22.333 -86.001 -31s-72.334 -13 -107.001 -13c-81.333 0 -146.666 19.167 -195.999 57.5s-74 97.5 -74 177.5v228h121v-159c0 -68.667 13.333 -117.667 40 -147s69.334 -44 128.001 -44c66 0 124 16.333 174 49v301h121z
" />
    <glyph glyph-name="afii10042" unicode="&#x428;" horiz-adv-x="925" 
d="M70 0v700h121v-586h211v586h121v-586h211v586h121v-700h-785z" />
    <glyph glyph-name="afii10043" unicode="&#x429;" horiz-adv-x="950" 
d="M70 0v700h121v-586h211v586h121v-586h211v586h121v-586h85v-237h-117v123h-753z" />
    <glyph glyph-name="afii10044" unicode="&#x42a;" horiz-adv-x="749" 
d="M0 587l-0.000976562 112.999h282v-247h156c192 0 288 -74 288 -222c0 -77.333 -25.667 -135.166 -77 -173.499s-124.666 -57.5 -219.999 -57.5h-268v587h-161zM435.999 339.999h-154v-226h151c56 0 97.833 9 125.5 27s41.5 48 41.5 90c0 72.667 -54.667 109 -164 109z
" />
    <glyph glyph-name="afii10045" unicode="&#x42b;" horiz-adv-x="865" 
d="M675 0v700h121v-700h-121zM318 340h-127v-226h125c56 0 97.833 9 125.5 27s41.5 48 41.5 90c0 72.667 -55 109 -165 109zM191 700v-247.002h130c94.667 0 166.334 -19.667 215.001 -59s73 -93.666 73 -162.999c0 -75.333 -25.833 -132.666 -77.5 -171.999
s-124.834 -59 -219.501 -59h-242v700h121z" />
    <glyph glyph-name="afii10046" unicode="&#x42c;" horiz-adv-x="661" 
d="M348 340h-157v-226h154c111.333 0 167 39 167 117c0 72.667 -54.667 109 -164 109zM191 700l0.000976562 -247.001h159c95.333 0 167.166 -19 215.499 -57s72.5 -93 72.5 -165c0 -75.333 -25.833 -132.666 -77.5 -171.999s-124.5 -59 -218.5 -59h-272v700h121z" />
    <glyph glyph-name="afii10047" unicode="&#x42d;" horiz-adv-x="701" 
d="M204 301l0.00195312 113.001h337c-9.33301 56 -34.5 100.167 -75.5 132.5s-93.833 48.5 -158.5 48.5c-38 0 -76.667 -8.33301 -116 -25s-72 -41.334 -98 -74.001l-80 78c32.667 44 76 77.333 130 100s110.667 34 170 34c109.333 0 195.833 -32 259.5 -96
s95.5 -150.333 95.5 -259c0 -106.667 -32.333 -193.5 -97 -260.5s-153.334 -100.5 -266.001 -100.5c-57.333 0 -112.5 11 -165.5 33s-97.167 58 -132.5 108l82 69c23.333 -32 55.166 -56.167 95.499 -72.5s82.166 -24.5 125.499 -24.5c64.667 0 117.834 17.833 159.501 53.5
s66.167 83.167 73.5 142.5h-339z" />
    <glyph glyph-name="afii10048" unicode="&#x42e;" horiz-adv-x="997" 
d="M70 0l0.00195312 700.001h121v-291h89c12.667 86.667 50.167 158.167 112.5 214.5s138.166 84.5 227.499 84.5c102.667 0 185.667 -33.5 249 -100.5s95 -152.833 95 -257.5c0 -103.333 -32.667 -188.833 -98 -256.5s-147.333 -101.5 -246 -101.5
c-93.333 0 -170.833 28.167 -232.5 84.5s-97.834 132.166 -108.501 227.499h-88v-304h-121zM400.002 350.001c0 -72 20.833 -130.833 62.5 -176.5s94.167 -68.5 157.5 -68.5c66 0 118.833 22.5 158.5 67.5s59.5 104.167 59.5 177.5c0 72.667 -20.167 131.667 -60.5 177
s-92.833 68 -157.5 68c-63.333 0 -115.833 -22.667 -157.5 -68s-62.5 -104.333 -62.5 -177z" />
    <glyph glyph-name="afii10049" unicode="&#x42f;" horiz-adv-x="691" 
d="M500 0l-0.000976562 245.999h-155l-197 -246h-145l217 267c-53.333 13.333 -94.666 37.833 -123.999 73.5s-44 79.5 -44 131.5c0 66.667 24.333 121.334 73 164.001s119 64 211 64h285v-700h-121zM314.999 358.999h185v228h-173c-99.333 0 -149 -38.333 -149 -115
c0 -31.333 12.333 -57.5 37 -78.5s58 -32.5 100 -34.5z" />
    <glyph glyph-name="afii10065" unicode="&#x430;" horiz-adv-x="534" 
d="M109 371l-56.001 84.002c24.667 24 56.5 42.833 95.5 56.5s79.833 20.5 122.5 20.5c68 0 120.5 -18.667 157.5 -56s55.5 -90 55.5 -158v-318h-114v57c-38 -42 -91.667 -63 -161 -63c-57.333 0 -103.166 14.833 -137.499 44.5s-51.5 69.5 -51.5 119.5
c0 55.333 22.167 96.666 66.5 123.999s103.166 41 176.499 41c43.333 0 79 -4.66699 107 -14c0.666992 39.333 -7.66602 68.666 -24.999 87.999s-46.333 29 -87 29c-51.333 0 -101 -18.333 -149 -55zM233.999 93.002c59.333 0 104.668 23.668 136.001 71.001v50
c-28 9.33301 -59.667 14 -95 14c-91.333 0 -137 -23 -137 -69c0 -20.667 8.66699 -36.834 26 -48.501s40.666 -17.5 69.999 -17.5z" />
    <glyph glyph-name="afii10066" unicode="&#x431;" horiz-adv-x="604" 
d="M508 743l19.001 -102.999c-29.333 -12 -77.833 -20.333 -145.5 -25s-114.167 -12.667 -139.5 -24c-59.333 -28 -91.666 -86 -96.999 -174c37.333 53.333 100.666 80 189.999 80c70 0 127.5 -21.167 172.5 -63.5s67.5 -101.5 67.5 -177.5c0 -77.333 -24.333 -141 -73 -191
s-112.334 -75 -191.001 -75c-85.333 0 -153.166 27.167 -203.499 81.5s-75.5 131.166 -75.5 230.499c0 102.667 12 185 36 247s68.333 109.333 133 142c34.667 17.333 88.167 28.333 160.5 33s121.166 11 146.499 19zM150.001 283.001v-11c0 -50 15 -91.833 45 -125.5
s68.333 -50.5 115 -50.5c46 0 82 14.167 108 42.5s39 65.166 39 110.499c0 43.333 -12.5 77.833 -37.5 103.5s-60.5 38.5 -106.5 38.5c-40 0 -74 -10.167 -102 -30.5s-48.333 -46.166 -61 -77.499z" />
    <glyph glyph-name="afii10067" unicode="&#x432;" horiz-adv-x="536" 
d="M53 0l0.000976562 519.999h222c74 0 129 -10.667 165 -32s54 -56.666 54 -105.999c0 -42 -19.333 -77.333 -58 -106c48.667 -18.667 73 -59 73 -121c0 -50.667 -18.333 -89.167 -55 -115.5s-88.334 -39.5 -155.001 -39.5h-246zM291.001 214.999h-124v-112h121
c68.667 0 103 18.333 103 55c0 20 -8 34.5 -24 43.5s-41.333 13.5 -76 13.5zM272.001 416.999h-105v-103h134c50 0 75 17.667 75 53c0 20 -8.33301 33.333 -25 40s-43 10 -79 10z" />
    <glyph glyph-name="afii10068" unicode="&#x433;" horiz-adv-x="449" 
d="M53 0v520h392v-106h-278v-414h-114z" />
    <glyph glyph-name="afii10069" unicode="&#x434;" horiz-adv-x="599" 
d="M5 -119v225h60c39.333 68.667 59 176.667 59 324v90h398v-414h73v-225h-106v119h-378v-119h-106zM232 414v-43c0 -110 -16.333 -198.333 -49 -265h225v308h-176z" />
    <glyph glyph-name="afii10070" unicode="&#x435;" horiz-adv-x="569" 
d="M449 166l70 -69.001c-52.667 -70.667 -123 -106 -211 -106c-84 0 -151.5 24.5 -202.5 73.5s-76.5 114.5 -76.5 196.5c0 79.333 23.5 144.333 70.5 195s112.5 76 196.5 76c70.667 0 129 -21.833 175 -65.5s69 -101.167 69 -172.5c0 -17.333 -2 -41.666 -6 -72.999h-386
c4.66699 -40 21.667 -70.667 51 -92s66.333 -32 111 -32c58.667 0 105 23 139 69zM291 428.999c-38 0 -69.332 -9.66699 -93.999 -29s-40.667 -46 -48 -80h273c-4.66699 35.333 -18.334 62.333 -41.001 81s-52.667 28 -90 28z" />
    <glyph glyph-name="afii10072" unicode="&#x436;" horiz-adv-x="761" 
d="M213 283l-214 237h142l182 -203v203h114v-204l186 204h138l-216 -236l221 -284h-139l-168 220l-22 -23v-197h-114v196l-24 25l-166 -221h-136z" />
    <glyph glyph-name="afii10073" unicode="&#x437;" horiz-adv-x="510" 
d="M248 -12c-110.667 0 -190.667 41.999 -240 125.999l86 60c32 -55.333 83.667 -83 155 -83c34.667 0 62.667 6.5 84 19.5s32 30.5 32 52.5c0 34.667 -27.667 52 -83 52h-115v99h109c21.333 0 38.5 5 51.5 15s19.5 23.333 19.5 40c0 20.667 -9.5 36.334 -28.5 47.001
s-42.5 16 -70.5 16c-35.333 0 -64.166 -6 -86.499 -18s-42.5 -29.333 -60.5 -52l-81 54c19.333 33.333 48.666 61.5 87.999 84.5s88 34.5 146 34.5c66.667 0 118.5 -13.667 155.5 -41s55.5 -63.666 55.5 -108.999c0 -42.667 -17 -77.334 -51 -104.001
c46 -26.667 69 -65.667 69 -117c0 -54 -22 -96.833 -66 -128.5s-100.333 -47.5 -169 -47.5z" />
    <glyph glyph-name="afii10074" unicode="&#x438;" horiz-adv-x="596" 
d="M152 0h-99v520h114v-339l276 339h99v-520h-114v338z" />
    <glyph glyph-name="afii10075" unicode="&#x439;" horiz-adv-x="596" 
d="M152 0h-99v520h114v-339l276 339h99v-520h-114v338zM132 741l105 0.000976562c0.666992 -20.667 7.16699 -37.167 19.5 -49.5s29.833 -18.5 52.5 -18.5c22 0 38.833 6.16699 50.5 18.5s17.5 28.833 17.5 49.5h104c-0.666992 -48.667 -17.5 -86.834 -50.5 -114.501
s-73.5 -41.5 -121.5 -41.5c-51.333 0 -93.5 13.5 -126.5 40.5s-49.833 65.5 -50.5 115.5z" />
    <glyph glyph-name="afii10076" unicode="&#x43a;" horiz-adv-x="545" 
d="M53 0v520h114v-211l225 211h149l-253 -235l262 -285h-146l-199 214l-38 -37v-177h-114z" />
    <glyph glyph-name="afii10077" unicode="&#x43b;" horiz-adv-x="580" 
d="M413 0l-0.00195312 413.996h-184v-81c0 -67.333 -5.16699 -124.166 -15.5 -170.499s-25.666 -81.666 -45.999 -105.999s-43.166 -41.166 -68.499 -50.499s-55 -12.666 -89 -9.99902l-9 106c12 -1.33301 23 -0.5 33 2.5s20.333 10 31 21s19.667 26.167 27 45.5
s13.333 46 18 80s7 74.333 7 121v148h410v-520h-114z" />
    <glyph glyph-name="afii10078" unicode="&#x43c;" horiz-adv-x="667" 
d="M53 0v520h102l182 -236l182 236h94v-520h-114v323l-161 -209l-171 212v-326h-114z" />
    <glyph glyph-name="afii10079" unicode="&#x43d;" horiz-adv-x="585" 
d="M417 0v211h-250v-211h-114v520h114v-204h250v204h114v-520h-114z" />
    <glyph glyph-name="afii10080" unicode="&#x43e;" horiz-adv-x="615" 
d="M29 261c0 78.667 25.833 143.5 77.5 194.5s118.5 76.5 200.5 76.5s149 -25.5 201 -76.5s78 -115.833 78 -194.5c0 -78 -26 -142.5 -78 -193.5s-119 -76.5 -201 -76.5c-80.667 0 -147.167 25.5 -199.5 76.5s-78.5 115.5 -78.5 193.5zM147 261
c0 -47.333 14.833 -86.499 44.5 -117.499s68.167 -46.5 115.5 -46.5c48 0 86.833 15 116.5 45s44.5 69.667 44.5 119s-15.333 89.166 -46 119.499s-69 45.5 -115 45.5c-46.667 0 -85 -15 -115 -45s-45 -70 -45 -120z" />
    <glyph glyph-name="afii10081" unicode="&#x43f;" horiz-adv-x="579" 
d="M411 0v414h-244v-414h-114v520h472v-520h-114z" />
    <glyph glyph-name="afii10082" unicode="&#x440;" horiz-adv-x="592" 
d="M53 -200l0.000976562 720h114v-47c15.333 19.333 36.166 34 62.499 44s53.5 15 81.5 15c77.333 0 138.666 -24.333 183.999 -73s68 -112 68 -190c0 -80.667 -24 -147.167 -72 -199.5s-110.667 -78.5 -188 -78.5c-67.333 0 -112.666 14.333 -135.999 43v-234h-114z
M299.001 426c-31.333 0 -58.333 -8 -81 -24s-39.667 -36.333 -51 -61v-180c25.333 -42.667 66.333 -64 123 -64c46.667 0 84.167 15 112.5 45s42.5 69.333 42.5 118c0 52 -13 92.667 -39 122s-61.667 44 -107 44z" />
    <glyph glyph-name="afii10083" unicode="&#x441;" horiz-adv-x="538" 
d="M451 171l81.001 -51.998c-20.667 -40.667 -51.334 -72.167 -92.001 -94.5s-84.334 -33.5 -131.001 -33.5c-84 0 -151.667 24.667 -203 74s-77 114.666 -77 195.999c0 78 25.333 142.667 76 194s116.667 77 198 77c52 0 97.833 -10.833 137.5 -32.5
s68.167 -50.167 85.5 -85.5l-85 -56c-34 45.333 -78.333 68 -133 68c-47.333 0 -86 -15.333 -116 -46s-45 -70.334 -45 -119.001c0 -47.333 15.833 -86.5 47.5 -117.5s73.5 -46.5 125.5 -46.5c54.667 0 98.334 24.667 131.001 74z" />
    <glyph glyph-name="afii10084" unicode="&#x442;" horiz-adv-x="496" 
d="M3 414v106h490v-106h-188v-414h-114v414h-188z" />
    <glyph glyph-name="afii10085" unicode="&#x443;" horiz-adv-x="548" 
d="M75 -194l45 97c6.66699 -4 14.334 -6 23.001 -6c31.333 0 58.666 29 81.999 87l18 47l-256 489h132l179 -351l138 351h122l-204 -505c-34.667 -84.667 -67.167 -143.167 -97.5 -175.5s-66.833 -48.5 -109.5 -48.5c-28 0 -52 5 -72 15z" />
    <glyph glyph-name="afii10086" unicode="&#x444;" horiz-adv-x="734" 
d="M310 -200l0.00195312 190h-6c-86.667 0 -154.834 25 -204.501 75s-74.5 114.667 -74.5 194c0 74.667 25 138.334 75 191.001s117.667 79 203 79h7v201h114v-201h8c83.333 0 150.333 -25.333 201 -76s76 -115.334 76 -194.001c0 -79.333 -24.833 -144 -74.5 -194
s-117.834 -75 -204.501 -75h-6v-190h-114zM143.002 259c0 -51.333 13.833 -91.333 41.5 -120s67.5 -43 119.5 -43h6v327h-7c-53.333 0 -93.333 -14.833 -120 -44.5s-40 -69.5 -40 -119.5zM430.002 423h-6v-327h6c107.333 0 161 54.333 161 163
c0 50 -13.5 89.833 -40.5 119.5s-67.167 44.5 -120.5 44.5z" />
    <glyph glyph-name="afii10087" unicode="&#x445;" horiz-adv-x="555" 
d="M548 520l-199 -251l209 -269h-141l-141 185l-144 -185h-135l208 267l-198 253h140l132 -167l132 167h137z" />
    <glyph glyph-name="afii10088" unicode="&#x446;" horiz-adv-x="598" 
d="M53 0v520h114v-414h241v414h114v-414h70v-225h-106v119h-433z" />
    <glyph glyph-name="afii10089" unicode="&#x447;" horiz-adv-x="546" 
d="M493 520l-0.000976562 -520h-114v204c-35.333 -32 -82 -48 -140 -48c-139.333 0 -209 69 -209 207v157h114v-118c0 -50.667 9.33301 -86.667 28 -108s49.334 -32 92.001 -32c22.667 0 44.5 5.5 65.5 16.5s37.5 24.5 49.5 40.5v201h114z" />
    <glyph glyph-name="afii10090" unicode="&#x448;" horiz-adv-x="748" 
d="M53 0v520h114v-414h150v414h114v-414h150v414h114v-520h-642z" />
    <glyph glyph-name="afii10091" unicode="&#x449;" horiz-adv-x="771" 
d="M53 0v520h114v-414h150v414h114v-414h150v414h114v-414h69v-225h-106v119h-605z" />
    <glyph glyph-name="afii10092" unicode="&#x44a;" horiz-adv-x="593" 
d="M3 414v106h241v-149h110c78 0 134 -17.167 168 -51.5s51 -78.833 51 -133.5c0 -54 -18 -98.5 -54 -133.5s-93.333 -52.5 -172 -52.5h-217v414h-127zM344 265h-100v-159h100c40 0 68.5 6.5 85.5 19.5s25.5 32.833 25.5 59.5c0 53.333 -37 80 -111 80z" />
    <glyph glyph-name="afii10093" unicode="&#x44b;" horiz-adv-x="696" 
d="M53 0l0.000976562 520h114v-151h90c78 0 134.167 -16.833 168.5 -50.5s51.5 -77.834 51.5 -132.501c0 -53.333 -18.333 -97.666 -55 -132.999s-94.334 -53 -173.001 -53h-196zM248.001 263h-81.001v-157h80c40 0 68.667 6.5 86 19.5s26 32.833 26 59.5
c0 26 -8.66699 45.5 -26 58.5s-45.666 19.5 -84.999 19.5zM529 0v520h114v-520h-114z" />
    <glyph glyph-name="afii10094" unicode="&#x44c;" horiz-adv-x="517" 
d="M53 0v520h114v-151h110c78 0 134.167 -16.833 168.5 -50.5s51.5 -77.834 51.5 -132.501c0 -53.333 -18.167 -97.666 -54.5 -132.999s-93.833 -53 -172.5 -53h-217zM267 263h-100v-157h99c40 0 68.833 6.5 86.5 19.5s26.5 32.833 26.5 59.5c0 52 -37.333 78 -112 78z" />
    <glyph glyph-name="afii10095" unicode="&#x44d;" horiz-adv-x="547" 
d="M155 216l-0.00292969 99.001h243c-16 74 -68.333 111 -157 111c-67.333 0 -118.333 -25.333 -153 -76l-83 61c58.667 80.667 140.334 121 245.001 121c82 0 147.333 -24.5 196 -73.5s73 -114.833 73 -197.5c0 -78.667 -24.5 -143.334 -73.5 -194.001
s-115.833 -76 -200.5 -76c-52 0 -99.667 9.33301 -143 28s-75.666 47.667 -96.999 87l83 60c33.333 -46 82.333 -69 147 -69c46 0 83.333 10.667 112 32s46.334 50.333 53.001 87h-245z" />
    <glyph glyph-name="afii10096" unicode="&#x44e;" horiz-adv-x="815" 
d="M53 0v520h114v-202h90c12 64.667 41.167 116.5 87.5 155.5s103.833 58.5 172.5 58.5c79.333 0 144 -25.5 194 -76.5s75 -115.833 75 -194.5c0 -78 -25.167 -142.5 -75.5 -193.5s-114.833 -76.5 -193.5 -76.5c-71.333 0 -130.333 20.5 -177 61.5s-75 95.167 -85 162.5h-88
v-215h-114zM370 261c0 -49.333 13.833 -89.001 41.5 -119.001s63.167 -45 106.5 -45c44.667 0 80.834 15 108.501 45s41.5 69.667 41.5 119c0 50 -13.833 90 -41.5 120s-63.834 45 -108.501 45c-42 0 -77.167 -15.167 -105.5 -45.5s-42.5 -70.166 -42.5 -119.499z" />
    <glyph glyph-name="afii10097" unicode="&#x44f;" horiz-adv-x="539" 
d="M272 520h214v-520h-114v171h-97l-132 -171h-133l150 190c-36.667 8.66699 -65.667 27.167 -87 55.5s-32 62.5 -32 102.5c0 50.667 18.5 92 55.5 124s95.5 48 175.5 48zM159 344c0 -20 8.66699 -36.167 26 -48.5s42 -18.5 74 -18.5h113v137h-110
c-68.667 0 -103 -23.333 -103 -70z" />
    <glyph glyph-name="afii10071" unicode="&#x451;" horiz-adv-x="569" 
d="M449 166l70 -69.001c-52.667 -70.667 -123 -106 -211 -106c-84 0 -151.5 24.5 -202.5 73.5s-76.5 114.5 -76.5 196.5c0 79.333 23.5 144.333 70.5 195s112.5 76 196.5 76c70.667 0 129 -21.833 175 -65.5s69 -101.167 69 -172.5c0 -17.333 -2 -41.666 -6 -72.999h-386
c4.66699 -40 21.667 -70.667 51 -92s66.333 -32 111 -32c58.667 0 105 23 139 69zM291 428.999c-38 0 -69.332 -9.66699 -93.999 -29s-40.667 -46 -48 -80h273c-4.66699 35.333 -18.334 62.333 -41.001 81s-52.667 28 -90 28zM122.001 671.999
c0 16.667 6.33105 30.5 18.998 41.5s27.334 16.5 44.001 16.5c16 0 30.667 -5.5 44 -16.5s20 -24.833 20 -41.5c0 -18 -6.5 -32.667 -19.5 -44s-27.833 -17 -44.5 -17c-17.333 0 -32.166 5.66699 -44.499 17s-18.5 26 -18.5 44zM338.999 671.999
c0 16.667 6.5 30.5 19.5 41.5s28.5 16.5 46.5 16.5c16.667 0 31.5 -5.5 44.5 -16.5s19.5 -24.833 19.5 -41.5c0 -18.667 -6.16699 -33.5 -18.5 -44.5s-27.5 -16.5 -45.5 -16.5s-33.5 5.5 -46.5 16.5s-19.5 25.833 -19.5 44.5z" />
    <glyph glyph-name="afii10099" unicode="&#x452;" horiz-adv-x="649" 
d="M0 520v103.001h128v107h114v-107h210v-103h-210v-156c39.333 38 89.333 57 150 57c71.333 0 126.5 -20.333 165.5 -61s58.5 -101.334 58.5 -182.001c0 -173.333 -75.667 -301.666 -227 -384.999l-66 79c64.667 38.667 110.167 81.167 136.5 127.5
s39.5 101.166 39.5 164.499c0 100.667 -42.667 151 -128 151c-25.333 0 -50.333 -8.16699 -75 -24.5s-42.667 -36.5 -54 -60.5v-230h-114v520h-128z" />
    <glyph glyph-name="afii10100" unicode="&#x453;" horiz-adv-x="449" 
d="M53 0v520h392v-106h-278v-414h-114zM398 755l-127 -157l-77 54l118 167z" />
    <glyph glyph-name="afii10101" unicode="&#x454;" horiz-adv-x="541" 
d="M371 315l0.000976562 -98.999h-224c15.333 -79.333 69.666 -119 162.999 -119c57.333 0 101.333 21.667 132 65l85 -48c-21.333 -41.333 -52.333 -72.166 -93 -92.499s-85 -30.5 -133 -30.5c-80 0 -145.333 25.167 -196 75.5s-76 115.166 -76 194.499
c0 82.667 25.667 148.5 77 197.5s119 73.5 203 73.5c45.333 0 87.166 -8.66699 125.499 -26s68.833 -44 91.5 -80l-86 -59c-30.667 39.333 -74.667 59 -132 59c-40 0 -74.167 -9.33301 -102.5 -28s-47.166 -46.334 -56.499 -83.001h222z" />
    <glyph glyph-name="afii10102" unicode="&#x455;" horiz-adv-x="496" 
d="M356 148c0 14 -10.833 26.0059 -32.5 36.0059s-47.834 19.167 -78.501 27.5s-61.5 18.166 -92.5 29.499s-57.333 28.666 -79 51.999s-32.5 51.333 -32.5 84c0 48 19 85.833 57 113.5s90.333 41.5 157 41.5c44.667 0 86.334 -9 125.001 -27s67 -39.667 85 -65l-78 -74
c-34.667 40 -85 60 -151 60c-51.333 0 -77 -15.667 -77 -47c0 -10.667 7.83301 -20.334 23.5 -29.001s35.167 -15.834 58.5 -21.501s48.5 -13.334 75.5 -23.001s52.167 -20.167 75.5 -31.5s42.833 -27.833 58.5 -49.5s23.5 -46.834 23.5 -75.501
c0 -52 -20.333 -91.333 -61 -118s-91.667 -40 -153 -40c-56 0 -105.333 11.667 -148 35s-73.667 53.333 -93 90l90 62c14.667 -23.333 37 -42.666 67 -57.999s61.667 -23 95 -23c24 0 44.167 4.16699 60.5 12.5s24.5 21.166 24.5 38.499z" />
    <glyph glyph-name="afii10103" unicode="&#x456;" horiz-adv-x="239" 
d="M63 0v520h114v-520h-114zM53 669c0 17.333 6.5 31.668 19.5 43.001s28.833 17 47.5 17s34.334 -5.83301 47.001 -17.5s19 -25.834 19 -42.501c0 -18 -6.33301 -32.833 -19 -44.5s-28.334 -17.5 -47.001 -17.5c-20 0 -36.167 5.83301 -48.5 17.5s-18.5 26.5 -18.5 44.5z
" />
    <glyph glyph-name="afii10104" unicode="&#x457;" horiz-adv-x="247" 
d="M66 0v520h114v-520h-114zM-17 669c0 16.667 5.83301 31 17.5 43s26.5 18 44.5 18c14 0 27.167 -6 39.5 -18s18.5 -26.333 18.5 -43c0 -18 -6.16699 -33 -18.5 -45s-25.5 -18 -39.5 -18c-18 0 -32.833 6 -44.5 18s-17.5 27 -17.5 45zM144 669c0 17.333 6 31.833 18 43.5
s26.333 17.5 43 17.5c16 0 30 -5.83301 42 -17.5s18 -26.167 18 -43.5c0 -18 -6 -33 -18 -45s-26 -18 -42 -18c-16.667 0 -31 6 -43 18s-18 27 -18 45z" />
    <glyph glyph-name="afii10105" unicode="&#x458;" horiz-adv-x="239" 
d="M178 520v-521c0 -66.667 -14.333 -118 -43 -154s-71.667 -54 -129 -54c-82 0 -137.333 33.333 -166 100l97 43c15.333 -24.667 35.333 -37 60 -37c44.667 0 67 35 67 105v518h114zM54 670c0 17.333 6.16699 31.666 18.5 42.999s28.5 17 48.5 17
c18.667 0 34.167 -5.66699 46.5 -17s18.5 -25.666 18.5 -42.999c0 -18.667 -6 -33.834 -18 -45.501s-27.667 -17.5 -47 -17.5c-20 0 -36.167 5.83301 -48.5 17.5s-18.5 26.834 -18.5 45.501z" />
    <glyph glyph-name="afii10106" unicode="&#x459;" horiz-adv-x="831" 
d="M411 414l-182.002 -0.00390625v-81c0 -67.333 -5.16699 -124.166 -15.5 -170.499s-25.666 -81.666 -45.999 -105.999s-43.166 -41.166 -68.499 -50.499s-55 -12.666 -89 -9.99902l-9 106c12 -1.33301 23 -0.5 33 2.5s20.333 10 31 21s19.667 26.167 27 45.5
s13.333 46 18 80s7 74.333 7 121v148h408v-157h63c146 0 219 -60.333 219 -181c0 -52.667 -18 -96.167 -54 -130.5s-93 -51.5 -171 -51.5h-171v414zM579.998 255.996l-55 -0.000976562v-150h62c38 0 64.5 6.33301 79.5 19s22.5 31.334 22.5 56.001c0 26 -8.33301 45 -25 57
s-44.667 18 -84 18z" />
    <glyph glyph-name="afii10107" unicode="&#x45a;" horiz-adv-x="835" 
d="M53 0v520h114v-184h249v184h114v-184h62c80 0 136.667 -14.5 170 -43.5s50 -69.833 50 -122.5c0 -113.333 -75.667 -170 -227 -170h-169v230h-249v-230h-114zM584 231h-54.001v-125h53c40.667 0 69.334 5 86.001 15s25 26 25 48c0 22.667 -8.33301 38.667 -25 48
s-45 14 -85 14z" />
    <glyph glyph-name="afii10108" unicode="&#x45b;" horiz-adv-x="647" 
d="M0 520v103h128v107h114v-107h210v-103h-210v-163c36.667 38.667 88 58 154 58c142.667 0 214 -79.333 214 -238v-177h-114v169c0 46.667 -9.5 81.667 -28.5 105s-51.167 35 -96.5 35c-26.667 0 -52 -7.5 -76 -22.5s-41.667 -35.5 -53 -61.5v-225h-114v520h-128z" />
    <glyph glyph-name="afii10109" unicode="&#x45c;" horiz-adv-x="545" 
d="M53 0v520h114v-211l225 211h149l-253 -235l262 -285h-146l-199 214l-38 -37v-177h-114zM409 755l-127 -157l-77 54l118 167z" />
    <glyph glyph-name="afii10110" unicode="&#x45e;" horiz-adv-x="548" 
d="M75 -193l45 97c6.66699 -4 14.334 -6 23.001 -6c31.333 0 58.666 29 81.999 87l18 47l-256 489h132l179 -351l138 351h122l-204 -505c-34.667 -84.667 -67.167 -143.167 -97.5 -175.5s-66.833 -48.5 -109.5 -48.5c-28 0 -52 5 -72 15zM108 741l105 0.000976562
c0.666992 -20.667 7.16699 -37.167 19.5 -49.5s29.833 -18.5 52.5 -18.5c22 0 38.833 6.16699 50.5 18.5s17.5 28.833 17.5 49.5h104c-0.666992 -48.667 -17.5 -86.834 -50.5 -114.501s-73.5 -41.5 -121.5 -41.5c-51.333 0 -93.5 13.5 -126.5 40.5s-49.833 65.5 -50.5 115.5
z" />
    <glyph glyph-name="afii10193" unicode="&#x45f;" horiz-adv-x="597" 
d="M62 0v520h114v-414h247v414h114v-520h-185v-138h-106v138h-184z" />
    <glyph glyph-name="afii10146" unicode="&#x462;" horiz-adv-x="717" 
d="M0 502l0.000976562 112.999h126v85h121v-85h227v-113h-227v-75h159c97.333 0 169.666 -17.167 216.999 -51.5s71 -87.166 71 -158.499c0 -144.667 -98.667 -217 -296 -217h-272v502h-126zM404.001 312.999l-157 0.000976562v-199h154c57.333 0 99.5 7.66699 126.5 23
s40.5 42 40.5 80c0 35.333 -13.333 60.166 -40 74.499s-68 21.5 -124 21.5z" />
    <glyph glyph-name="afii10194" unicode="&#x463;" horiz-adv-x="582" 
d="M402 419l-170 0.000976562v-76h110c78 0 134.167 -15.833 168.5 -47.5s51.5 -72.834 51.5 -123.501s-18.167 -92 -54.5 -124s-93.833 -48 -172.5 -48h-217v419h-115v101h115v210h114v-210h170v-101zM332 236.001h-100v-130h100c40.667 0 69.5 5.16699 86.5 15.5
s25.5 26.833 25.5 49.5c0 23.333 -8.5 40 -25.5 50s-45.833 15 -86.5 15z" />
    <glyph glyph-name="afii10147" unicode="&#x472;" horiz-adv-x="782" 
d="M33 350c0 100.667 34.5 185.5 103.5 254.5s153.833 103.5 254.5 103.5s185.5 -34 254.5 -102s103.5 -153.333 103.5 -256c0 -102 -34.667 -187.167 -104 -255.5s-154 -102.5 -254 -102.5s-184.667 34 -254 102s-104 153.333 -104 256zM391 108
c56.667 0 105.833 17 147.5 51s68.167 79.333 79.5 136h-454c12 -56 39.167 -101.167 81.5 -135.5s90.833 -51.5 145.5 -51.5zM390.999 592c-54 0 -102.001 -16.6689 -144.001 -50.002s-69.333 -77.666 -82 -132.999h451c-12 54.667 -39.167 98.834 -81.5 132.501
s-90.166 50.5 -143.499 50.5z" />
    <glyph glyph-name="afii10195" unicode="&#x473;" horiz-adv-x="615" 
d="M29 261c0 78.667 25.833 143.5 77.5 194.5s118.5 76.5 200.5 76.5s149 -25.5 201 -76.5s78 -115.833 78 -194.5c0 -78 -26 -142.5 -78 -193.5s-119 -76.5 -201 -76.5c-80.667 0 -147.167 25.5 -199.5 76.5s-78.5 115.5 -78.5 193.5zM307 97
c39.333 0 72.833 10.333 100.5 31s45.834 49 54.501 85h-309c9.33301 -35.333 27.666 -63.5 54.999 -84.5s60.333 -31.5 99 -31.5zM307 426c-37.333 0 -69.833 -10 -97.5 -30s-46.167 -47.333 -55.5 -82h307c-10 34.667 -29 62 -57 82s-60.333 30 -97 30z" />
    <glyph glyph-name="afii10148" unicode="&#x474;" horiz-adv-x="769" 
d="M645 514l-232.999 -514h-86l-333 700h131l246 -525l172 392c41.333 94 97.333 141 168 141c30 0 58.667 -9.66699 86 -29l-47 -98c-7.33301 6.66699 -17.333 10 -30 10c-26.667 -1.33301 -51.334 -27 -74.001 -77z" />
    <glyph glyph-name="afii10196" unicode="&#x475;" horiz-adv-x="568" 
d="M454 331l-147 -331.002h-84l-242 520h129l157 -347l103 237c33.333 78.667 80 117.334 140 116.001c37.333 -1.33301 67.666 -13.666 90.999 -36.999l-50 -86c-7.33301 7.33301 -16.666 11 -27.999 11c-21.333 0 -44.333 -27.667 -69 -83z" />
    <glyph glyph-name="afii10050" unicode="&#x490;" horiz-adv-x="582" 
d="M70 0v700h396v121h114v-234h-389v-587h-121z" />
    <glyph glyph-name="afii10098" unicode="&#x491;" horiz-adv-x="445" 
d="M53 0v520h286v100h106v-206h-278v-414h-114z" />
    <glyph glyph-name="uni1E9E" unicode="&#x1e9e;" horiz-adv-x="656" 
d="M345 708c66 0 119.333 -14.5 160 -43.5s68 -65.167 82 -108.5l-136 -160c60 -7.33301 103.167 -28.333 129.5 -63s39.166 -76.667 38.499 -126c0 -66 -21.5 -118.667 -64.5 -158s-100.833 -59 -173.5 -59c-45.333 0 -86 9 -122 27l37 107
c26.667 -13.333 53.667 -20 81 -20c34.667 0 63.334 8.66699 86.001 26s34 42.333 34 75c0 65.333 -45.333 98 -136 98h-44v91l133 153c-29.333 32 -67 48 -113 48c-99.333 0 -149 -55.333 -149 -166v-429h-121v448c0 92 25.167 158.333 75.5 199s117.833 61 202.5 61z" />
    <glyph glyph-name="uni2010" unicode="&#x2010;" horiz-adv-x="416" 
d="M69 227v101h278v-101h-278z" />
    <glyph glyph-name="uni2011" unicode="&#x2011;" horiz-adv-x="416" 
d="M69 227v101h278v-101h-278z" />
    <glyph glyph-name="figuredash" unicode="&#x2012;" horiz-adv-x="607" 
d="M85 311v99h437v-99h-437z" />
    <glyph glyph-name="endash" unicode="&#x2013;" horiz-adv-x="607" 
d="M85 227v99h437v-99h-437z" />
    <glyph glyph-name="emdash" unicode="&#x2014;" horiz-adv-x="796" 
d="M85 227v99h626v-99h-626z" />
    <glyph glyph-name="quoteleft" unicode="&#x2018;" horiz-adv-x="247" 
d="M189 530l-96 -59c-31.333 35.333 -47 68.333 -47 99c0 66.667 37 121.667 111 165l49 -44c-30.667 -25.333 -46 -56 -46 -92c0 -22.667 9.66699 -45.667 29 -69z" />
    <glyph glyph-name="quoteright" unicode="&#x2019;" horiz-adv-x="247" 
d="M58 677l95 59.9971c31.333 -35.333 47 -68.666 47 -99.999c0 -66 -36.667 -121 -110 -165l-49 45c30 24.667 45 55.334 45 92.001c0 22.667 -9.33301 45.334 -28 68.001z" />
    <glyph glyph-name="quotesinglbase" unicode="&#x201a;" horiz-adv-x="247" 
d="M58 71l95 59.998c31.333 -35.333 47 -68.666 47 -99.999c0 -66 -36.667 -121 -110 -165l-49 45c30 24 45 54.667 45 92c0 22.667 -9.33301 45.334 -28 68.001z" />
    <glyph glyph-name="quotedblleft" unicode="&#x201c;" horiz-adv-x="424" 
d="M189 530l-96 -59c-31.333 35.333 -47 68.333 -47 99c0 66.667 37 121.667 111 165l49 -44c-30.667 -25.333 -46 -56 -46 -92c0 -22.667 9.66699 -45.667 29 -69zM365 530l-95 -59c-31.333 35.333 -47 68.333 -47 99c0 66.667 37 121.667 111 165l49 -44
c-30.667 -25.333 -46 -56 -46 -92c0 -21.333 9.33301 -44.333 28 -69z" />
    <glyph glyph-name="quotedblright" unicode="&#x201d;" horiz-adv-x="424" 
d="M235 677l95 59.998c31.333 -35.333 47 -68.666 47 -99.999c0 -66 -36.667 -121 -110 -165l-50 45c30.667 25.333 46 56 46 92c0 20.667 -9.33301 43.334 -28 68.001zM58 676.998l95 59.9971c31.333 -35.333 47 -68.666 47 -99.999c0 -66 -36.667 -121 -110 -165l-49 45
c30 24.667 45 55.334 45 92.001c0 22.667 -9.33301 45.334 -28 68.001z" />
    <glyph glyph-name="quotedblbase" unicode="&#x201e;" horiz-adv-x="424" 
d="M235 71l95 59.9971c31.333 -35.333 47 -68.666 47 -99.999c0 -66 -36.667 -121 -110 -165l-50 45c30.667 24.667 46 55.334 46 92.001c0 20.667 -9.33301 43.334 -28 68.001zM58 70.9971l95 59.998c31.333 -35.333 47 -68.666 47 -99.999c0 -66 -36.667 -121 -110 -165
l-49 45c30 24 45 54.667 45 92c0 22.667 -9.33301 45.334 -28 68.001z" />
    <glyph glyph-name="dagger" unicode="&#x2020;" horiz-adv-x="458" 
d="M33 386v106h139v208h114v-208h139v-106h-139v-478h-114v478h-139z" />
    <glyph glyph-name="daggerdbl" unicode="&#x2021;" horiz-adv-x="458" 
d="M33 386v106h139v208h114v-208h139v-106h-139v-137h139v-106h-139v-235h-114v235h-139v106h139v137h-139z" />
    <glyph glyph-name="bullet" unicode="&#x2022;" horiz-adv-x="302" 
d="M51 361c0 22.667 8.66699 41.667 26 57s38 23 62 23c23.333 0 43.5 -7.83301 60.5 -23.5s25.5 -34.5 25.5 -56.5s-8.5 -41 -25.5 -57s-37.167 -24 -60.5 -24c-24 0 -44.667 8 -62 24s-26 35 -26 57z" />
    <glyph glyph-name="ellipsis" unicode="&#x2026;" horiz-adv-x="795" 
d="M604 62c0 16 6.66699 30.333 20 43s30 19 50 19c18.667 0 34.5 -6.5 47.5 -19.5s19.5 -27.167 19.5 -42.5c0 -16.667 -6.5 -31.5 -19.5 -44.5s-28.833 -19.5 -47.5 -19.5c-20.667 0 -37.5 6.33301 -50.5 19s-19.5 27.667 -19.5 45zM329 62c0 16 6.66699 30.333 20 43
s30 19 50 19c18.667 0 34.5 -6.33301 47.5 -19s19.5 -27 19.5 -43c0 -17.333 -6.33301 -32.333 -19 -45s-28.667 -19 -48 -19c-20.667 0 -37.5 6.33301 -50.5 19s-19.5 27.667 -19.5 45zM54 62c0 16 6.66699 30.333 20 43s30 19 50 19c18.667 0 34.667 -6.5 48 -19.5
s20 -27.167 20 -42.5c0 -16.667 -6.66699 -31.5 -20 -44.5s-29.333 -19.5 -48 -19.5c-20.667 0 -37.5 6.33301 -50.5 19s-19.5 27.667 -19.5 45z" />
    <glyph glyph-name="perthousand" unicode="&#x2030;" horiz-adv-x="1332" 
d="M37 525c0 52 18.1689 94.667 54.502 128s82.166 50 137.499 50c54.667 0 100.167 -16.667 136.5 -50s54.5 -76 54.5 -128c0 -51.333 -18.167 -93.666 -54.5 -126.999s-81.833 -50 -136.5 -50s-100.334 16.667 -137.001 50s-55 75.666 -55 126.999zM150.002 525
c0 -24 7.83203 -43.667 23.499 -59s34.167 -23 55.5 -23c22 0 40.5 7.5 55.5 22.5s22.5 34.833 22.5 59.5c0 24 -7.66699 43.5 -23 58.5s-33.666 22.5 -54.999 22.5c-22 0 -40.667 -7.5 -56 -22.5s-23 -34.5 -23 -58.5zM157.001 34l515 689l82 -58l-515 -688zM487.001 174
c0 52 18.1689 94.5 54.502 127.5s82.166 49.5 137.499 49.5c54.667 0 100.167 -16.5 136.5 -49.5s54.5 -75.5 54.5 -127.5c0 -51.333 -18.167 -93.833 -54.5 -127.5s-81.833 -50.5 -136.5 -50.5s-100.334 16.833 -137.001 50.5s-55 76.167 -55 127.5zM600.003 174
c0 -24 7.83301 -43.5 23.5 -58.5s34.167 -22.5 55.5 -22.5s39.666 7.5 54.999 22.5s23 34.5 23 58.5s-7.66699 43.667 -23 59s-33.666 23 -54.999 23c-22 0 -40.667 -7.66699 -56 -23s-23 -35 -23 -59zM912.003 174c0 52 18.1689 94.5 54.502 127.5
s82.166 49.5 137.499 49.5s101 -16.5 137 -49.5s54 -75.5 54 -127.5s-18.167 -94.667 -54.5 -128s-81.833 -50 -136.5 -50s-100.334 16.833 -137.001 50.5s-55 76.167 -55 127.5zM1025 174c0 -24 7.83203 -43.5 23.499 -58.5s34.167 -22.5 55.5 -22.5
c22 0 40.5 7.5 55.5 22.5s22.5 34.5 22.5 58.5s-7.66699 43.667 -23 59s-33.666 23 -54.999 23c-22 0 -40.667 -7.66699 -56 -23s-23 -35 -23 -59z" />
    <glyph glyph-name="guilsinglleft" unicode="&#x2039;" horiz-adv-x="342" 
d="M222 38l-185 218v6l185 212l78 -69l-127 -147l127 -148z" />
    <glyph glyph-name="guilsinglright" unicode="&#x203a;" horiz-adv-x="342" 
d="M301 256l-185 -218l-78 72l127 148l-127 147l77 69l186 -212v-6z" />
    <glyph glyph-name="fraction" unicode="&#x2044;" horiz-adv-x="332" 
d="M-150 48l549 672l83 -66l-547 -676z" />
    <glyph glyph-name="uni2070" unicode="&#x2070;" horiz-adv-x="483" 
d="M43 510c0 63.333 17.832 114.833 53.499 154.5s83.834 59.5 144.501 59.5s109 -20 145 -60s54 -91.333 54 -154c0 -63.333 -17.667 -114.833 -53 -154.5s-83.333 -59.5 -144 -59.5s-109.167 20 -145.5 60s-54.5 91.333 -54.5 154zM148.999 510
c0 -36 8.83301 -64.5 26.5 -85.5s40.167 -31.5 67.5 -31.5c28 0 50.167 10 66.5 30s24.5 49 24.5 87c0 78 -31 117 -93 117c-29.333 0 -52 -10 -68 -30s-24 -49 -24 -87z" />
    <glyph glyph-name="uni2074" unicode="&#x2074;" horiz-adv-x="453" 
d="M258 300v76h-246v73l258 271h87v-253h76v-91h-76v-76h-99zM133 467h125v126z" />
    </font>
</defs>
</svg>
