<?xml version="1.0" standalone="no"?>
<!DOCTYPE svg PUBLIC "-//W3C//DTD SVG 1.1//EN" "http://www.w3.org/Graphics/SVG/1.1/DTD/svg11.dtd" >
<svg xmlns="http://www.w3.org/2000/svg" xmlns:xlink="http://www.w3.org/1999/xlink" version="1.1">
<metadata>
Created by FontForge 20201107 at Wed Dec 10 15:18:02 2014
 By Jimmy Wärting
Copyright (c) 2014 ParaType, Inc., ParaType Ltd. All rights reserved.
</metadata>
<defs>
<font id="Stem-Hairline" horiz-adv-x="599" >
  <font-face 
    font-family="Stem-Hairline"
    font-weight="400"
    font-stretch="normal"
    units-per-em="1000"
    panose-1="2 11 2 3 2 2 3 2 2 4"
    ascent="778"
    descent="-222"
    x-height="519.999"
    cap-height="700"
    bbox="-499 -225.999 1179 884.002"
    underline-thickness="50"
    underline-position="-100"
    unicode-range="U+0020-FEFF"
  />
<missing-glyph horiz-adv-x="300" 
 />
    <glyph glyph-name="uniF350.var.accented" unicode="&#xf350;`" horiz-adv-x="552" 
d="M531 0l-87 186h-337l-86 -186h-15l262 563h14l264 -563h-15zM275 548l-162 -348h324zM391 761l-105 -138l-11 8l105 138z" />
    <glyph glyph-name="uniF355.var.accented" unicode="&#xf355;`" horiz-adv-x="536" 
d="M72 0v560h403v-14h-389v-254h364v-14h-364v-264h398v-14h-412zM387 761l-105 -138l-11 8l105 138z" />
    <glyph glyph-name="uniF358.var.accented" unicode="&#xf358;`" horiz-adv-x="618" 
d="M86 0h-14v560h14v-538l446 538h14v-560h-14v539zM403 761l-105 -138l-11 8l105 138z" />
    <glyph glyph-name="uniF35E.var.accented" unicode="&#xf35e;`" horiz-adv-x="668" 
d="M38 280c0 79.333 28.5 147 85.5 203s127.167 84 210.5 84s153.5 -28 210.5 -84s85.5 -123.667 85.5 -203s-28.5 -147 -85.5 -203s-127.167 -84 -210.5 -84s-153.5 28 -210.5 84s-85.5 123.667 -85.5 203zM52 280c0 -76 27 -140.5 81 -193.5s121 -79.5 201 -79.5
s147 26.5 201 79.5s81 117.5 81 193.5s-27 140.5 -81 193.5s-121 79.5 -201 79.5s-147 -26.5 -201 -79.5s-81 -117.5 -81 -193.5zM433 761l-105 -138l-11 8l105 138z" />
    <glyph glyph-name="uniF363.var.accented" unicode="&#xf363;`" horiz-adv-x="543" 
d="M526 560h16l-246 -468c-17.333 -32 -33.833 -55.333 -49.5 -70s-33.167 -22 -52.5 -22c-21.333 0 -39.666 9.66699 -54.999 29l11 8c13.333 -15.333 28.333 -23 45 -23c29.333 0 58.666 27.667 87.999 83l16 30l-299 433h17l290 -418zM389 761l-105 -138l-11 8l105 138z
" />
    <glyph glyph-name="uniF36B.var.accented" unicode="&#xf36b;`" horiz-adv-x="695" 
d="M609 0v560h14v-560h-14zM262 311h-176v-297h179c142 0 213 50.667 213 152c0 46 -19 81.667 -57 107s-91 38 -159 38zM86 560l-0.000976562 -234.999h178c74.667 0 131.334 -14.333 170.001 -43s58 -67.334 58 -116.001c0 -110.667 -76.667 -166 -230 -166h-190v560h14z
M432.999 761.001l-105 -138l-11 8l105 138z" />
    <glyph glyph-name="uniF36D.var.accented" unicode="&#xf36d;`" horiz-adv-x="581" 
d="M163 278l-0.000976562 14h366c-4 80.667 -30.167 144.334 -78.5 191.001s-114.166 70 -197.499 70c-41.333 0 -81.833 -9 -121.5 -27s-73.167 -43 -100.5 -75l-11 9c27.333 33.333 62.666 59.5 105.999 78.5s85.666 28.5 126.999 28.5c89.333 0 160 -25.833 212 -77.5
s78 -120.834 78 -207.501c0 -84 -27.167 -153.167 -81.5 -207.5s-126.166 -81.5 -215.499 -81.5c-94 0 -167.667 30.333 -221 91l11 9c22 -26.667 51.833 -47.667 89.5 -63s77.834 -23 120.501 -23c84 0 151.333 24.667 202 74s77.667 115 81 197h-366zM348.999 761
l-105 -138l-11 8l105 138z" />
    <glyph glyph-name="uniF36E.var.accented" unicode="&#xf36e;`" horiz-adv-x="830" 
d="M72 0l-0.000976562 560h14v-267h151c2.66699 78 29.334 143.167 80.001 195.5s116 78.5 196 78.5c82.667 0 150.167 -27.667 202.5 -83s78.5 -123.333 78.5 -204s-26.167 -148.667 -78.5 -204s-119.833 -83 -202.5 -83c-82 0 -148.5 27.5 -199.5 82.5
s-76.5 122.833 -76.5 203.5h-151v-279h-14zM250.999 280c0 -77.333 24 -142.166 72 -194.499s111.333 -78.5 190 -78.5s142.834 26.167 192.501 78.5s74.5 117.166 74.5 194.499s-24.833 142.166 -74.5 194.499s-113.834 78.5 -192.501 78.5s-142 -26.167 -190 -78.5
s-72 -117.166 -72 -194.499zM469.999 761l-105 -138l-11 8l105 138z" />
    <glyph glyph-name="uniF36F.var.accented" unicode="&#xf36f;`" horiz-adv-x="561" 
d="M475 0l0.000976562 233h-229l-216 -233h-18l216 234c-54.667 5.33301 -98.334 21.833 -131.001 49.5s-49 63.167 -49 106.5c0 51.333 18 92.5 54 123.5s90.667 46.5 164 46.5h223v-560h-14zM475.001 546h-217c-66 0 -115.167 -14.5 -147.5 -43.5
s-48.5 -66.5 -48.5 -112.5c0 -39.333 15 -71.5 45 -96.5s72.333 -40.5 127 -46.5h241v299zM407.001 761l-105 -138l-11 8l105 138z" />
    <glyph glyph-name="uniF371.var.accented" unicode="&#xf371;`" horiz-adv-x="536" 
d="M379 692c0 6 1.8291 11.167 5.49609 15.5s7.83398 6.5 12.501 6.5s8.83398 -2.16699 12.501 -6.5s5.5 -9.5 5.5 -15.5s-1.66699 -11 -5 -15s-7.66602 -6 -12.999 -6s-9.66602 2 -12.999 6s-5 9 -5 15zM157.996 692c0 6 1.8291 11.167 5.49609 15.5
s7.83398 6.5 12.501 6.5s8.83398 -2.16699 12.501 -6.5s5.5 -9.5 5.5 -15.5s-1.66699 -11 -5 -15s-7.66602 -6 -12.999 -6s-9.66602 2 -12.999 6s-5 9 -5 15zM71.9922 0v560h403v-14h-389v-254h364v-14h-364v-264h398v-14h-412zM352.992 761l-105 -138l-12 8l105 138z" />
    <glyph glyph-name="afii10017.var.accented" unicode="&#x410;`" horiz-adv-x="649" 
d="M7 0l311 704h13l311 -704h-15l-105 239h-396l-105 -239h-14zM324 689l-191 -436h383zM465 856l-152 -84l-6 12l151 84z" />
    <glyph glyph-name="afii10022.var.accented" unicode="&#x415;`" horiz-adv-x="631" 
d="M86 0v700h474v-14h-460v-323h430v-14h-430v-335h470v-14h-484zM445 856l-152 -84l-6 12l151 84z" />
    <glyph glyph-name="afii10026.var.accented" unicode="&#x418;`" horiz-adv-x="729" 
d="M100 0h-14v700h14v-677l529 677h14v-700h-14v677zM471 856l-152 -84l-6 12l151 84z" />
    <glyph glyph-name="afii10032.var.accented" unicode="&#x41e;`" horiz-adv-x="785" 
d="M44 350c0 101.333 33.501 186.5 100.501 255.5s149.5 103.5 247.5 103.5c98.667 0 181.5 -34 248.5 -102s100.5 -153.667 100.5 -257c0 -102 -34 -187.333 -102 -256s-150.333 -103 -247 -103s-178.834 34 -246.501 102s-101.5 153.667 -101.5 257zM58.001 350
c0 -96 32.667 -177.501 98 -244.501s144 -100.5 236 -100.5c95.333 0 175 33.333 239 100s96 148.334 96 245.001c0 97.333 -32.5 179.166 -97.5 245.499s-144.167 99.5 -237.5 99.5s-172.333 -33.167 -237 -99.5s-97 -148.166 -97 -245.499zM500.001 855.999l-152 -84
l-6 12l151 84z" />
    <glyph glyph-name="afii10037.var.accented" unicode="&#x423;`" horiz-adv-x="639" 
d="M185 15l11.9951 10.001c10.667 -7.33301 21.667 -11 33 -11c10 0 19.833 2.83301 29.5 8.5s17.834 11.834 24.501 18.501s14.167 16.667 22.5 30s14.333 23.333 18 30s9.16699 17.667 16.5 33s11.333 23.666 12 24.999l-343 541h16l335 -527l267 527h15l-276 -546
c-1.33301 -2 -6.16602 -11.5 -14.499 -28.5s-14.333 -29 -18 -36s-10.167 -17.5 -19.5 -31.5s-17.666 -24.333 -24.999 -31s-16.666 -12.834 -27.999 -18.501s-22.666 -8.5 -33.999 -8.5c-14.667 0 -29 5 -43 15zM429.995 856.001l-152 -84l-6 12l151 84z" />
    <glyph glyph-name="afii10045.var.accented" unicode="&#x42b;`" horiz-adv-x="820" 
d="M720 0v700h14v-700h-14zM86 0v700h14v-293h218c88 0 153.833 -17.167 197.5 -51.5s65.5 -81.5 65.5 -141.5c0 -68.667 -23.5 -121.5 -70.5 -158.5s-114.5 -55.5 -202.5 -55.5h-222zM316 393h-216v-379h210c82 0 145.333 17 190 51s67 83.667 67 149
c0 58 -21.667 102.333 -65 133s-105.333 46 -186 46zM517 856l-152 -84l-6 12l151 84z" />
    <glyph glyph-name="afii10047.var.accented" unicode="&#x42d;`" horiz-adv-x="682" 
d="M193 350l0.00292969 13.998h430c-2 100.667 -30.833 181 -86.5 241s-133.834 90 -234.501 90c-56 0 -107.167 -12 -153.5 -36s-83.5 -54.667 -111.5 -92l-13 8c31.333 41.333 71.5 74 120.5 98s101.5 36 157.5 36c106 0 188.5 -32 247.5 -96s88.5 -150.667 88.5 -260
c0 -102.667 -30.833 -188.667 -92.5 -258s-146.834 -104 -255.501 -104c-104 0 -190.667 38 -260 114l12 11c26.667 -31.333 61.5 -57.666 104.5 -78.999s90.833 -32 143.5 -32c98.667 0 178.167 31.333 238.5 94s92.166 146.334 95.499 251.001h-431zM415.003 855.998
l-152 -84l-6 12l151 84z" />
    <glyph glyph-name="afii10048.var.accented" unicode="&#x42e;`" horiz-adv-x="976" 
d="M86 0l-0.000976562 700.001h14v-336h179c2 97.333 34 179.166 96 245.499s139.333 99.5 232 99.5c94.667 0 172.667 -33.667 234 -101s92 -153.333 92 -258c0 -104 -30.333 -189.833 -91 -257.5s-139 -101.5 -235 -101.5c-94.667 0 -172.167 33.833 -232.5 101.5
s-92.166 153.5 -95.499 257.5h-179v-350h-14zM292.999 356.001c0 -98 29.668 -181.002 89.001 -249.002s134.666 -102 225.999 -102c92.667 0 167.667 32.833 225 98.5s86 147.834 86 246.501c0 98 -29.667 180 -89 246s-134 99 -224 99
c-89.333 0 -163.833 -32.667 -223.5 -98s-89.5 -145.666 -89.5 -240.999zM702 855.999l-152 -84l-6 12l151 84z" />
    <glyph glyph-name="afii10049.var.accented" unicode="&#x42f;`" horiz-adv-x="680" 
d="M580 0l0.000976562 290.999h-275l-252 -291h-19l254 293c-60.667 8 -111 30 -151 66s-60 81.667 -60 137c0 58.667 21.667 107.334 65 146.001s107.666 58 192.999 58h259v-700h-14zM580.001 304.999v380.998h-247c-80.667 0 -141.167 -17.833 -181.5 -53.5
s-60.5 -81.167 -60.5 -136.5c0 -49.333 18.5 -91.666 55.5 -126.999s86.833 -56.666 149.5 -63.999h284zM508.001 855.997l-152 -84l-6 12l151 84z" />
    <glyph glyph-name="afii10023.var.accented" unicode="&#x401;`" horiz-adv-x="631" 
d="M86 0v700h474v-14h-460v-323h430v-14h-430v-335h470v-14h-484zM436 818c0 10.667 5.66699 16 17 16c12 0 18 -5.33301 18 -16c0 -10 -6 -15 -18 -15c-11.333 0 -17 5 -17 15zM215 818c0 10.667 5.66699 16 17 16c12 0 18 -5.33301 18 -16c0 -10 -6 -15 -18 -15
c-11.333 0 -17 5 -17 15zM426 856l-152 -84l-6 12l151 84z" />
    <glyph glyph-name="afii10065.var.accented" unicode="&#x430;`" horiz-adv-x="532" 
d="M83 452l-12 11.002c22 20 50.667 36.833 86 50.5s67 20.5 95 20.5c143.333 0 215 -68.333 215 -205v-329h-14v131c-48 -92 -125.333 -138 -232 -138c-55.333 0 -100 13.667 -134 41s-51 64.666 -51 111.999s19.833 83.166 59.5 107.499s94.5 36.5 164.5 36.5
c30 0 65.833 -2.16699 107.5 -6.5s70.167 -8.83301 85.5 -13.5v51c0 132.667 -67.667 199 -203 199c-59.333 0 -115 -22.667 -167 -68zM224 7.00195c60.667 0 110.501 16.333 149.501 49s65.5 67 79.5 103v97c-50.667 13.333 -116 20 -196 20
c-64 0 -114.5 -10.667 -151.5 -32s-55.5 -54.333 -55.5 -99c0 -42 16.667 -75.5 50 -100.5s74.666 -37.5 123.999 -37.5zM355.001 769.002l-105 -138l-11 8l105 138z" />
    <glyph glyph-name="afii10070.var.accented" unicode="&#x435;`" horiz-adv-x="571" 
d="M506 94l7.99902 -9.99902c-17.333 -28 -45.5 -50.833 -84.5 -68.5s-79.167 -26.5 -120.5 -26.5c-81.333 0 -146.5 24.667 -195.5 74s-73.5 115.333 -73.5 198c0 79.333 23.667 144.666 71 195.999s112 77 194 77c66 0 120.167 -21.667 162.5 -65
s63.5 -99.666 63.5 -168.999c0 -16.667 -0.666992 -28.334 -2 -35.001h-475c0 -79.333 23.333 -142.833 70 -190.5s109.334 -71.5 188.001 -71.5c40 0 78 8.33301 114 25s62.667 38.667 80 66zM298.999 520.001c-72 0 -129.999 -23 -173.999 -69s-67.667 -103.333 -71 -172
h463c1.33301 74.667 -17.334 133.5 -56.001 176.5s-92.667 64.5 -162 64.5zM394 769.001l-105 -138l-11 8l105 138z" />
    <glyph glyph-name="afii10074.var.accented" unicode="&#x438;`" horiz-adv-x="612" 
d="M94 0h-14v520h14v-498l424 498h14v-520h-14v498zM398 769l-105 -138l-11 8l105 138z" />
    <glyph glyph-name="afii10080.var.accented" unicode="&#x43e;`" horiz-adv-x="618" 
d="M40 261c0 80.667 25 146.334 75 197.001s114.667 76 194 76s144 -25.333 194 -76s75 -116.334 75 -197.001s-25 -146.167 -75 -196.5s-114.667 -75.5 -194 -75.5s-144 25.167 -194 75.5s-75 115.833 -75 196.5zM54 260c0 -74.667 23.667 -136.167 71 -184.5
s108.666 -72.5 183.999 -72.5s136.666 24.167 183.999 72.5s71 109.833 71 184.5c0 76.667 -23.667 139.167 -71 187.5s-108.666 72.5 -183.999 72.5s-136.666 -24.167 -183.999 -72.5s-71 -110.833 -71 -187.5zM402 769l-105 -138l-11 8l105 138z" />
    <glyph glyph-name="afii10085.var.accented" unicode="&#x443;`" horiz-adv-x="521" 
d="M110 -209l4.99805 13.999c1.33301 0 3.33301 -0.166992 6 -0.5s4.66699 -0.5 6 -0.5c26 0 49.833 11.667 71.5 35s45.834 67 72.501 131l10 24l-274 526h16l266 -510l211 510h16l-221 -532c-18 -43.333 -34.5 -78.666 -49.5 -105.999s-29.5 -47.5 -43.5 -60.5
s-26.5 -21.5 -37.5 -25.5s-23.833 -6 -38.5 -6c-7.33301 0 -12.666 0.333008 -15.999 1zM374.998 768.999l-105 -138l-11 8l105 138z" />
    <glyph glyph-name="afii10093.var.accented" unicode="&#x44b;`" horiz-adv-x="677" 
d="M583 0v520h14v-520h-14zM80 0v520h14v-191h162c133.333 0 200 -53.667 200 -161c0 -50 -16 -90.5 -48 -121.5s-84.667 -46.5 -158 -46.5h-170zM256 315h-162v-301h154c129.333 0 194 51.333 194 154c0 98 -62 147 -186 147zM402 769l-105 -138l-11 8l105 138z" />
    <glyph glyph-name="afii10095.var.accented" unicode="&#x44d;`" horiz-adv-x="533" 
d="M178 260l0.000976562 14h301c-4.66699 76.667 -28.834 136.834 -72.501 180.501s-100.5 65.5 -170.5 65.5c-90.667 0 -160 -33.667 -208 -101l-12 8c53.333 71.333 126.666 107 219.999 107c77.333 0 139.5 -24.833 186.5 -74.5s70.5 -115.834 70.5 -198.501
c0 -78 -23.833 -142.833 -71.5 -194.5s-110.167 -77.5 -187.5 -77.5c-48 0 -88.667 7.66699 -122 23s-64.333 38.333 -93 69l10 11c15.333 -16 29.5 -29.333 42.5 -40s34.333 -21.5 64 -32.5s62.5 -16.5 98.5 -16.5c73.333 0 132.833 24.833 178.5 74.5
s67.834 110.5 66.501 182.5h-301zM342.001 769l-105 -138l-11 8l105 138z" />
    <glyph glyph-name="afii10096.var.accented" unicode="&#x44e;`" horiz-adv-x="826" 
d="M80 0l0.00195312 519.999h14v-245h161c5.33301 74.667 32.666 136.5 81.999 185.5s110.666 73.5 183.999 73.5c76.667 0 140 -25.667 190 -77s75 -116.666 75 -195.999c0 -78 -25.333 -142.833 -76 -194.5s-113.667 -77.5 -189 -77.5c-74.667 0 -137 25.833 -187 77.5
s-76.333 116.5 -79 194.5h-161v-261h-14zM269.002 262.999c0 -74 24.333 -135.833 73 -185.5s108.667 -74.5 180 -74.5s130.833 24.5 178.5 73.5s71.5 110.5 71.5 184.5s-23.667 135.667 -71 185s-107 74 -179 74s-132.167 -24.5 -180.5 -73.5s-72.5 -110.167 -72.5 -183.5z
M477.002 768.999l-105 -138l-11 8l105 138z" />
    <glyph glyph-name="afii10097.var.accented" unicode="&#x44f;`" horiz-adv-x="535" 
d="M248 520h207v-520h-14v216h-205l-206 -216h-20l209 218c-46.667 1.33301 -86.667 15 -120 41s-50 61.333 -50 106c0 45.333 16.167 82.5 48.5 111.5s82.5 43.5 150.5 43.5zM63 365c0 -46.667 18.168 -80.833 54.501 -102.5s80.833 -32.5 133.5 -32.5h190v276h-195
c-62.667 0 -108.834 -13 -138.501 -39s-44.5 -60 -44.5 -102zM414.001 769.001l-105 -138l-11 8l105 138z" />
    <glyph glyph-name="afii10071.var.accented" unicode="&#x451;`" horiz-adv-x="571" 
d="M386 707c0 6 1.8291 11.167 5.49609 15.5s7.83398 6.5 12.501 6.5s8.83398 -2.16699 12.501 -6.5s5.5 -9.5 5.5 -15.5s-1.66699 -11 -5 -15s-7.66602 -6 -12.999 -6s-9.66602 2 -12.999 6s-5 9 -5 15zM163.996 707c0 6 1.8291 11.167 5.49609 15.5
s7.83398 6.5 12.501 6.5s8.83398 -2.16699 12.501 -6.5s5.5 -9.5 5.5 -15.5s-1.66699 -11 -5 -15s-7.66602 -6 -12.999 -6s-9.66602 2 -12.999 6s-5 9 -5 15zM505.992 94l7.99902 -9.99902c-17.333 -28 -45.5 -50.833 -84.5 -68.5s-79.167 -26.5 -120.5 -26.5
c-81.333 0 -146.5 24.667 -195.5 74s-73.5 115.333 -73.5 198c0 79.333 23.667 144.666 71 195.999s112 77 194 77c66 0 120.167 -21.667 162.5 -65s63.5 -99.666 63.5 -168.999c0 -16.667 -0.666992 -28.334 -2 -35.001h-475c0 -79.333 23.333 -142.833 70 -190.5
s109.334 -71.5 188.001 -71.5c40 0 78 8.33301 114 25s62.667 38.667 80 66zM298.991 520.001c-72 0 -129.999 -23 -173.999 -69s-67.667 -103.333 -71 -172h463c1.33301 74.667 -17.334 133.5 -56.001 176.5s-92.667 64.5 -162 64.5zM356.992 761.001l-105 -138l-11 8
l105 138z" />
    <glyph glyph-name="fi" unicode="fi" horiz-adv-x="543" 
d="M-2 507v13h124v40c0 64.667 14.833 110.5 44.5 137.5s64.167 40.5 103.5 40.5c34.667 0 60.667 -8 78 -24l-8 -10c-18.667 13.333 -42 20 -70 20c-38.667 0 -70.667 -12.667 -96 -38s-38 -67 -38 -125v-41h197v-13h-197v-507h-14v507h-124zM425 0v520h14v-520h-14z
M412 702c0 6.66699 1.83301 12.334 5.5 17.001s8.16699 7 13.5 7s10 -2.33301 14 -7s6 -10.334 6 -17.001s-2 -12.167 -6 -16.5s-8.66699 -6.5 -14 -6.5s-9.83301 2.16699 -13.5 6.5s-5.5 9.83301 -5.5 16.5z" />
    <glyph glyph-name="fl" unicode="fl" horiz-adv-x="481" 
d="M-2 506v14h124v44c0 34 5.16699 63 15.5 87s23.833 42 40.5 54s33.5 20.5 50.5 25.5s34.5 7.5 52.5 7.5c37.333 0 69 -10 95 -30l14 19v-727h-14v688c-22.667 24 -55 36 -97 36c-39.333 0 -73 -12.5 -101 -37.5s-42 -66.167 -42 -123.5v-43h154v-14h-154v-506h-14v506
h-124z" />
    <glyph glyph-name=".notdef" horiz-adv-x="300" 
 />
    <glyph glyph-name="space" unicode=" " horiz-adv-x="300" 
 />
    <glyph glyph-name="exclam" unicode="!" horiz-adv-x="310" 
d="M148 189v511h14v-511h-14zM137 20c0 6 1.6709 11 5.00391 15s7.66602 6 12.999 6s9.66602 -2 12.999 -6s5 -9 5 -15s-1.83301 -11.167 -5.5 -15.5s-7.83398 -6.5 -12.501 -6.5s-8.83398 2.16699 -12.501 6.5s-5.5 9.5 -5.5 15.5z" />
    <glyph glyph-name="quotedbl" unicode="&#x22;" horiz-adv-x="377" 
d="M115 517v183h14v-183h-14zM248 517v183h14v-183h-14z" />
    <glyph glyph-name="numbersign" unicode="#" horiz-adv-x="674" 
d="M40 468v14h202l83 224l14 -4l-82 -220h255l83 224l14 -4l-82 -220h109v-14h-114l-87 -236h201v-14h-206l-83 -224l-13 5l81 219h-255l-83 -224l-13 5l81 219h-105v14h110l87 236h-197zM252 468l-87 -236h255l87 236h-255z" />
    <glyph glyph-name="dollar" unicode="$" horiz-adv-x="600" 
d="M300 -105l0.00292969 95.998c-54.667 1.33301 -104.834 13.5 -150.501 36.5s-80.5 51.833 -104.5 86.5l10 10c21.333 -32 54 -59.833 98 -83.5s97 -35.5 159 -35.5c59.333 0 112.166 15.667 158.499 47s69.5 72.666 69.5 123.999c0 33.333 -8.83301 61 -26.5 83
s-40.667 38.167 -69 48.5s-59.666 19 -93.999 26l-103 21c-34.333 7 -65.666 16 -93.999 27s-51.333 28.333 -69 52s-26.5 53.167 -26.5 88.5c0 48.667 22 91.334 66 128.001s102.667 56.334 176 59.001v85h14v-85c94 -0.666992 167.333 -27 220 -79l-7 -10
c-55.333 50 -127.666 75 -216.999 75c-61.333 0 -116.333 -15.5 -165 -46.5s-73 -73.167 -73 -126.5c0 -33.333 8.83301 -61 26.5 -83s40.667 -38.167 69 -48.5s59.666 -18.833 93.999 -25.5s68.666 -13.667 102.999 -21s65.666 -16.5 93.999 -27.5s51.333 -28.167 69 -51.5
s26.5 -52.666 26.5 -87.999c0 -53.333 -23.333 -97.5 -70 -132.5s-103.334 -52.833 -170.001 -53.5v-96h-14z" />
    <glyph glyph-name="percent" unicode="%" horiz-adv-x="813" 
d="M59 550c0 42.667 15.166 78.834 45.499 108.501s68.5 44.5 114.5 44.5s84 -14.833 114 -44.5s45 -65.834 45 -108.501s-15.167 -78.834 -45.5 -108.501s-68.166 -44.5 -113.499 -44.5c-46 0 -84.167 14.833 -114.5 44.5s-45.5 65.834 -45.5 108.501zM72.999 550
c0 -39.333 13.5 -72.333 40.5 -99s61.833 -40 104.5 -40s77.667 13.333 105 40s41 59.667 41 99s-13.667 72.333 -41 99s-62.333 40 -105 40c-42 0 -76.667 -13.333 -104 -40s-41 -59.667 -41 -99zM143.999 5l522 702l11 -8l-522 -703zM434.999 149
c0 42.667 15.166 78.834 45.499 108.501s68.5 44.5 114.5 44.5s84 -14.833 114 -44.5s45 -65.834 45 -108.501s-15.167 -78.834 -45.5 -108.501s-68.166 -44.5 -113.499 -44.5c-46 0 -84.167 14.833 -114.5 44.5s-45.5 65.834 -45.5 108.501zM448.998 149
c0 -39.333 13.5 -72.333 40.5 -99s61.833 -40 104.5 -40s77.667 13.333 105 40s41 59.667 41 99s-13.667 72.333 -41 99s-62.333 40 -105 40c-42 0 -76.667 -13.333 -104 -40s-41 -59.667 -41 -99z" />
    <glyph glyph-name="ampersand" unicode="&#x26;" horiz-adv-x="783" 
d="M726 0l-21.998 -0.00292969c-22.667 18 -61.667 54.667 -117 110c-26 -36 -60.833 -64.833 -104.5 -86.5s-92.167 -32.5 -145.5 -32.5c-69.333 0 -126.333 18.5 -171 55.5s-67 84.5 -67 142.5c0 25.333 4.33301 48.5 13 69.5s22.167 40.333 40.5 58
s34.666 31.834 48.999 42.501s34.166 23.667 59.499 39s42.333 26 51 32c-16 23.333 -27.5 41 -34.5 53s-14.833 29.333 -23.5 52s-13 44.334 -13 65.001c0 34.667 11 61.5 33 80.5s47.333 28.5 76 28.5c29.333 0 53.833 -9.33301 73.5 -28s29.5 -45 29.5 -79
c0 -36 -10.167 -67 -30.5 -93s-50.833 -53.333 -91.5 -82c38 -56 86 -116 144 -180l109 -115c50.667 76.667 75 176.334 73 299.001h14c-1.33301 -129.333 -27 -232.333 -77 -309c44 -44 88 -84.667 132 -122zM337.002 4.99707c44.667 0 88.498 9.33203 131.498 27.999
s78.833 47.667 107.5 87c-50.667 52 -87.667 91 -111 117c-59.333 66.667 -108 127 -146 181c-6 -4 -19.333 -12.167 -40 -24.5s-39.167 -24.166 -55.5 -35.499s-33.666 -25.333 -51.999 -42s-32.666 -36 -42.999 -58s-15.5 -45 -15.5 -69c0 -52.667 20.667 -96.5 62 -131.5
s95.333 -52.5 162 -52.5zM255 599.996c0 -43.333 23 -97.333 69 -162c37.333 24.667 65.833 50 85.5 76s29.5 55 29.5 87c0 27.333 -7.83301 49.833 -23.5 67.5s-37.5 26.5 -65.5 26.5c-26 0 -48.333 -8.33301 -67 -25s-28 -40 -28 -70z" />
    <glyph glyph-name="quotesingle" unicode="'" horiz-adv-x="244" 
d="M115 517v183h14v-183h-14z" />
    <glyph glyph-name="parenleft" unicode="(" horiz-adv-x="251" 
d="M245 -198l-10 -10.001c-127.333 122 -191 274.667 -191 458c0 180.667 64 333.667 192 459l9 -11c-124.667 -116.667 -187 -266 -187 -448c0 -87.333 16.333 -170.166 49 -248.499s78.667 -144.833 138 -199.5z" />
    <glyph glyph-name="parenright" unicode=")" horiz-adv-x="252" 
d="M7 699l10 10.001c127.333 -122 191 -274.667 191 -458c0 -180.667 -64 -333.667 -192 -459l-9 11c124.667 116.667 187 266 187 448c0 87.333 -16.333 170.166 -49 248.499s-78.667 144.833 -138 199.5z" />
    <glyph glyph-name="asterisk" unicode="*" horiz-adv-x="503" 
d="M259 700v-162l151 49l5 -13l-153 -49l96 -135l-11 -8l-95 133l-95 -133l-11 8l96 135l-153 49l5 13l151 -49v162h14z" />
    <glyph glyph-name="plus" unicode="+" horiz-adv-x="582" 
d="M76 354v14h208v208h14v-208h208v-14h-208v-208h-14v208h-208z" />
    <glyph glyph-name="comma" unicode="," horiz-adv-x="198" 
d="M80 16c0 6 2 11 6 15s9 6 15 6c12 0 22.667 -6.83301 32 -20.5s14 -33.5 14 -59.5c0 -24 -7.5 -45.833 -22.5 -65.5s-32.167 -33.5 -51.5 -41.5l-4 10c41.333 20.667 62.666 52.667 63.999 96c0.666992 27.333 -5.66602 46 -18.999 56
c-1.33301 -12 -6.66602 -18 -15.999 -18c-4.66699 0 -8.83398 2.16699 -12.501 6.5s-5.5 9.5 -5.5 15.5z" />
    <glyph glyph-name="hyphen" unicode="-" horiz-adv-x="391" 
d="M96 261v14h199v-14h-199z" />
    <glyph glyph-name="period" unicode="." horiz-adv-x="157" 
d="M59 20c0 6 1.66895 11 5.00195 15s7.66602 6 12.999 6s9.83301 -2 13.5 -6s5.5 -9 5.5 -15s-1.83301 -11.167 -5.5 -15.5s-8.16699 -6.5 -13.5 -6.5c-4.66699 0 -8.83398 2.16699 -12.501 6.5s-5.5 9.5 -5.5 15.5z" />
    <glyph glyph-name="slash" unicode="/" horiz-adv-x="292" 
d="M-29 -206l339 910l13 -4l-339 -911z" />
    <glyph glyph-name="zero" unicode="0" horiz-adv-x="675" 
d="M54 350c0 106.667 24.832 193 74.499 259s119.167 99 208.5 99c90 0 159.833 -33 209.5 -99s74.5 -152.333 74.5 -259s-24.5 -193 -73.5 -259s-118.5 -99 -208.5 -99c-89.333 0 -159.166 33.167 -209.499 99.5s-75.5 152.5 -75.5 258.5zM67.999 350
c0 -104.667 24.168 -188.167 72.501 -250.5s114.5 -93.5 198.5 -93.5c84.667 0 150.5 31 197.5 93s70.5 145.667 70.5 251s-23.833 189 -71.5 251s-113.834 93 -198.501 93s-150.667 -31.167 -198 -93.5s-71 -145.833 -71 -250.5z" />
    <glyph glyph-name="one" unicode="1" horiz-adv-x="440" 
d="M0 561l301 147h14v-708h-14v693l-296 -145z" />
    <glyph glyph-name="two" unicode="2" horiz-adv-x="577" 
d="M60 539l-14.999 3c12.667 46.667 41.167 86 85.5 118s96.833 48 157.5 48c70.667 0 126.167 -18.667 166.5 -56s60.5 -86.333 60.5 -147c0 -28.667 -4.5 -56.667 -13.5 -84s-23.5 -54.166 -43.5 -80.499s-40 -50 -60 -71s-47 -44.333 -81 -70
s-62.833 -46.834 -86.5 -63.501s-55.167 -38 -94.5 -64l-88 -58h493v-14h-517v14l116 77c45.333 30 82.333 55.167 111 75.5s60.5 45.333 95.5 75s62.5 57.167 82.5 82.5s37 53.833 51 85.5s21 63.5 21 95.5c0 56 -19.333 101.5 -58 136.5s-90.334 52.5 -155.001 52.5
c-57.333 0 -107.5 -15.667 -150.5 -47s-68.833 -67.333 -77.5 -108z" />
    <glyph glyph-name="three" unicode="3" horiz-adv-x="594" 
d="M66 566l-11.001 7.99707c19.333 38.667 50.833 70.834 94.5 96.501s92.834 38.5 147.501 38.5c71.333 0 127.333 -15.833 168 -47.5s61 -74.5 61 -128.5c0 -43.333 -13.833 -80.5 -41.5 -111.5s-67.167 -51.167 -118.5 -60.5
c23.333 -1.33301 45.166 -5.16602 65.499 -11.499s39.333 -15.666 57 -27.999s31.667 -29.666 42 -51.999s15.5 -48.166 15.5 -77.499c0 -62.667 -24.167 -111.834 -72.5 -147.501s-108.166 -53.5 -179.499 -53.5c-64.667 0 -120.167 14.167 -166.5 42.5
s-80.833 65.5 -103.5 111.5l12 7c24 -48 58.5 -84.5 103.5 -109.5s96.833 -37.5 155.5 -37.5c72 0 129.5 17.5 172.5 52.5s64.5 79.5 64.5 133.5c0 107.333 -74 161 -222 161h-98v14h96c58.667 0 107.334 15.5 146.001 46.5s58 71.167 58 120.5
c0 51.333 -20.333 91.166 -61 119.499s-92.334 42.5 -155.001 42.5c-51.333 0 -98 -12.5 -140 -37.5s-72 -55.5 -90 -91.5z" />
    <glyph glyph-name="four" unicode="4" horiz-adv-x="649" 
d="M481 0v169h-471v14l471 517h14v-517h146v-14h-146v-169h-14zM29 183h452v496z" />
    <glyph glyph-name="five" unicode="5" horiz-adv-x="566" 
d="M61 375l40.9971 325.001h404v-14h-392l-37 -298c56 34 117.667 51 185 51c176 0 264 -76.333 264 -229c0 -60 -24.667 -111.5 -74 -154.5s-114.333 -64.5 -195 -64.5c-45.333 0 -89.666 9.33301 -132.999 28s-76.666 45.667 -99.999 81l12 9
c50.667 -69.333 124.334 -104 221.001 -104c78 0 140 20.667 186 62s69 90.666 69 147.999c0 140 -83.667 210 -251 210c-60 0 -122.667 -17.667 -188 -53z" />
    <glyph glyph-name="six" unicode="6" horiz-adv-x="637" 
d="M54 326c0 120 28.8311 213.833 86.498 281.5s127.834 101.5 210.501 101.5c58.667 0 105.334 -9.33301 140.001 -28s59 -41.667 73 -69l-13 -5c-37.333 58.667 -104.333 88 -201 88c-82 0 -150.667 -34.5 -206 -103.5s-80.333 -167.833 -75 -296.5
c25.333 52.667 62.333 93.834 111 123.501s101 44.5 157 44.5c76 0 138.333 -21 187 -63s73 -99.333 73 -172s-24 -130.334 -72 -173.001s-108 -64 -180 -64c-38 0 -74 6.5 -108 19.5s-64.833 32.5 -92.5 58.5s-49.667 61 -66 105s-24.5 94.667 -24.5 152zM71.998 272
c4 -76.667 30.834 -140.333 80.501 -191s114.167 -76 193.5 -76c69.333 0 126.166 20.167 170.499 60.5s66.5 94.5 66.5 162.5c0 72 -23.5 126.833 -70.5 164.5s-105.833 56.5 -176.5 56.5c-62.667 0 -118 -18.5 -166 -55.5s-80.667 -77.5 -98 -121.5z" />
    <glyph glyph-name="seven" unicode="7" horiz-adv-x="535" 
d="M0 686v14h525v-12l-376 -688h-15l375 686h-509z" />
    <glyph glyph-name="eight" unicode="8" horiz-adv-x="672" 
d="M318 367l36.999 0.000976562c51.333 0 99.833 15.667 145.5 47s68.5 69 68.5 113c0 52 -20.667 93 -62 123s-98.666 45 -171.999 45c-68 0 -123.667 -15.333 -167 -46s-65 -71.334 -65 -122.001c0 -46.667 21.167 -85 63.5 -115s92.833 -45 151.5 -45zM350.999 353.001
h-27.002c-65.333 0 -122.666 -16.667 -171.999 -50s-74 -74.333 -74 -123c0 -51.333 23.833 -93.333 71.5 -126s110.167 -49 187.5 -49c80 0 142.833 16 188.5 48s68.5 74.667 68.5 128c0 51.333 -24.667 92.833 -74 124.5s-105.666 47.5 -168.999 47.5zM336.997 -8.99902
c-80.667 0 -146.334 16.832 -197.001 50.499s-76 78.834 -76 135.501c0 49.333 19.5 90 58.5 122s88.167 52.333 147.5 61c-54.667 3.33301 -98.5 22 -131.5 56s-49.5 72.333 -49.5 115c0 52.667 23 95.5 69 128.5s105.333 49.5 178 49.5c78 0 138.667 -16.167 182 -48.5
s65 -75.5 65 -129.5c0 -44 -17.667 -81.333 -53 -112s-79.666 -50.334 -132.999 -59.001c58.667 -3.33301 108.5 -22.166 149.5 -56.499s61.5 -76.5 61.5 -126.5c0 -58 -24.833 -103.5 -74.5 -136.5s-115.167 -49.5 -196.5 -49.5z" />
    <glyph glyph-name="nine" unicode="9" horiz-adv-x="640" 
d="M586 369c0 -122.667 -26 -216.333 -78 -281s-124 -97 -216 -97c-44 0 -86.333 10 -127 30s-70 46 -88 78l11 8c20 -33.333 48.5 -58.666 85.5 -75.999s76.5 -26 118.5 -26c38.667 0 74.167 6.33301 106.5 19s62.5 33.167 90.5 61.5s49.333 69.166 64 122.499
s21 117 19 191c-24 -48 -60.5 -87.167 -109.5 -117.5s-102.833 -45.5 -161.5 -45.5c-78.667 0 -141.834 22 -189.501 66s-71.5 101 -71.5 171c0 68.667 26 125.167 78 169.5s115 66.5 189 66.5c92.667 0 162.334 -30 209.001 -90s70 -143.333 70 -250zM569 424.001
c-1.33301 32.667 -6.66699 63.667 -16 93s-23.5 58 -42.5 86s-46.167 50.333 -81.5 67s-77 25 -125 25c-70 0 -129.167 -21.167 -177.5 -63.5s-72.5 -94.833 -72.5 -157.5c0 -70.667 24 -125.667 72 -165s107.333 -59 178 -59c62 0 117.167 17.5 165.5 52.5
s81.5 75.5 99.5 121.5z" />
    <glyph glyph-name="colon" unicode=":" horiz-adv-x="333" 
d="M148 20c0 6 1.66895 11 5.00195 15s7.66602 6 12.999 6s9.83301 -2 13.5 -6s5.5 -9 5.5 -15s-1.83301 -11.167 -5.5 -15.5s-8.16699 -6.5 -13.5 -6.5c-4.66699 0 -8.83398 2.16699 -12.501 6.5s-5.5 9.5 -5.5 15.5zM148.002 507c0 6 1.66895 11 5.00195 15
s7.66602 6 12.999 6s9.83301 -2 13.5 -6s5.5 -9 5.5 -15s-1.83301 -11.167 -5.5 -15.5s-8.16699 -6.5 -13.5 -6.5c-4.66699 0 -8.83398 2.16699 -12.501 6.5s-5.5 9.5 -5.5 15.5z" />
    <glyph glyph-name="semicolon" unicode=";" horiz-adv-x="339" 
d="M147 507c0 6 1.66895 11 5.00195 15s7.66602 6 12.999 6s9.83301 -2 13.5 -6s5.5 -9 5.5 -15s-1.83301 -11.167 -5.5 -15.5s-8.16699 -6.5 -13.5 -6.5c-4.66699 0 -8.83398 2.16699 -12.501 6.5s-5.5 9.5 -5.5 15.5zM147.002 16c0 6 2 11 6 15s9 6 15 6
c12 0 22.667 -6.83301 32 -20.5s14 -33.5 14 -59.5c0 -24 -7.5 -45.833 -22.5 -65.5s-32.167 -33.5 -51.5 -41.5l-4 10c41.333 20.667 62.666 52.667 63.999 96c0.666992 27.333 -5.66602 46 -18.999 56c-1.33301 -12 -6.66602 -18 -15.999 -18
c-4.66699 0 -8.83398 2.16699 -12.501 6.5s-5.5 9.5 -5.5 15.5z" />
    <glyph glyph-name="less" unicode="&#x3c;" horiz-adv-x="600" 
d="M477 114l-397 242v14l397 242v-17l-380 -232l380 -232v-17z" />
    <glyph glyph-name="equal" unicode="=" horiz-adv-x="600" 
d="M79 436v14h442v-14h-442zM79 271v14h442v-14h-442z" />
    <glyph glyph-name="greater" unicode="&#x3e;" horiz-adv-x="600" 
d="M520 356l-397 -242v17l380 232l-380 232v17l397 -242v-14z" />
    <glyph glyph-name="question" unicode="?" horiz-adv-x="577" 
d="M523 544c0 46.667 -18.834 83.498 -56.501 110.498s-88.5 40.5 -152.5 40.5c-67.333 0 -121.666 -13.333 -162.999 -40s-67.666 -59 -78.999 -97l-12 9c10.667 37.333 38.5 70.333 83.5 99s103.167 43 174.5 43c67.333 0 120.666 -15.333 159.999 -46
s59 -70.334 59 -119.001c0 -35.333 -9 -65.666 -27 -90.999s-39.833 -45 -65.5 -59s-51.167 -27.667 -76.5 -41s-47 -30.666 -65 -51.999s-27 -47.333 -27 -78c0 -12.667 1.33301 -24.667 4 -36h-14c-2.66699 13.333 -4 25.333 -4 36c0 32 9 59.333 27 82
s39.667 40.834 65 54.501s50.833 27.5 76.5 41.5s47.5 33 65.5 57s27 52.667 27 86zM254.999 19.998c0 6 1.6709 11 5.00391 15s7.66602 6 12.999 6s9.66602 -2 12.999 -6s5 -9 5 -15s-1.83301 -11.167 -5.5 -15.5s-7.83398 -6.5 -12.501 -6.5s-8.83398 2.16699 -12.501 6.5
s-5.5 9.5 -5.5 15.5z" />
    <glyph glyph-name="at" unicode="@" horiz-adv-x="1040" 
d="M693 0l-0.00292969 63.999c-19.333 -22 -44.666 -39.667 -75.999 -53s-63 -20 -95 -20c-68.667 0 -123 20.667 -163 62s-60 97.333 -60 168c0 63.333 23 117 69 161s103.333 66 172 66c61.333 0 117 -14.333 167 -43v-391c38.667 -1.33301 73.5 5.5 104.5 20.5
s55.667 35.5 74 61.5s32.333 54.667 42 86s14.5 63.666 14.5 96.999c0 110.667 -36 199.334 -108 266.001s-173.333 100 -304 100c-124.667 0 -227.834 -40.667 -309.501 -122s-122.5 -182.666 -122.5 -303.999c0 -119.333 41.333 -220.166 124 -302.499
s185.334 -123.5 308.001 -123.5c24.667 0 56.334 3.33301 95.001 10l3 -14c-38 -6.66699 -70.667 -10 -98 -10c-126 0 -231.833 42.333 -317.5 127s-128.5 189 -128.5 313c0 78.667 18.833 151.5 56.5 218.5s90.834 120.667 159.501 161s145.334 60.5 230.001 60.5
c131.333 0 235.166 -33.833 311.499 -101.5s114.5 -159.834 114.5 -276.501c0 -46 -8.33301 -89.833 -25 -131.5s-43.667 -77 -81 -106s-81.333 -43.5 -132 -43.5h-25zM521.997 4.99902c32.667 0 65.167 8 97.5 24s56.833 33.667 73.5 53v313c-48.667 26 -100 39 -154 39
c-64 0 -117.667 -20.833 -161 -62.5s-65 -92.167 -65 -151.5c0 -66 19.167 -118.333 57.5 -157s88.833 -58 151.5 -58z" />
    <glyph glyph-name="A" unicode="A" horiz-adv-x="649" 
d="M7 0l311 704h13l311 -704h-15l-105 239h-396l-105 -239h-14zM324 689l-191 -436h383z" />
    <glyph glyph-name="B" unicode="B" horiz-adv-x="667" 
d="M86 0l0.00195312 700.001h264c156 0 234 -56 234 -168c0 -43.333 -13.833 -80.833 -41.5 -112.5s-65.834 -51.834 -114.501 -60.501c55.333 -0.666992 99.666 -15.667 132.999 -45s50 -69.333 50 -120c0 -68 -22 -117.333 -66 -148s-109.667 -46 -197 -46h-262z
M368.002 351.001h-268v-337h248c166 0 249 59 249 177c0 106.667 -76.333 160 -229 160zM346.002 686.001l-246 0.000976562v-321h268c58 0 106.167 15.167 144.5 45.5s57.5 71.166 57.5 122.499c0 102 -74.667 153 -224 153z" />
    <glyph glyph-name="C" unicode="C" horiz-adv-x="679" 
d="M643 103l5.99902 -10.998c-22 -27.333 -55.333 -51 -100 -71s-92 -30 -142 -30c-111.333 0 -199.666 32.5 -264.999 97.5s-98 152.167 -98 261.5c0 103.333 30.833 189 92.5 257s145.5 102 251.5 102c110 0 193.667 -32.667 251 -98l-7 -10
c-32.667 31.333 -67.5 54.833 -104.5 70.5s-83.5 23.5 -139.5 23.5c-100 0 -180 -32.333 -240 -97s-90 -147.334 -90 -248.001c0 -104.667 31.333 -188.334 94 -251.001s147 -94 253 -94c50 0 95.5 9.5 136.5 28.5s74.833 42.167 101.5 69.5z" />
    <glyph glyph-name="D" unicode="D" horiz-adv-x="703" 
d="M86 0l-0.00195312 700.001h208c124.667 0 216.834 -31.5 276.501 -94.5s89.5 -144.833 89.5 -245.5c0 -106.667 -31.667 -193.334 -95 -260.001s-155.666 -100 -276.999 -100h-202zM288.998 686.001h-189.001v-672h183c120.667 0 211.334 32 272.001 96
s91 147.333 91 250c0 97.333 -29 176 -87 236s-148 90 -270 90z" />
    <glyph glyph-name="E" unicode="E" horiz-adv-x="631" 
d="M86 0v700h474v-14h-460v-323h430v-14h-430v-335h470v-14h-484z" />
    <glyph glyph-name="F" unicode="F" horiz-adv-x="591" 
d="M86 0v700h469v-14h-455v-343h423v-14h-423v-329h-14z" />
    <glyph glyph-name="G" unicode="G" horiz-adv-x="708" 
d="M438 304l0.000976562 13.999h226v-235c-26 -28 -63.667 -50.333 -113 -67s-97 -25 -143 -25c-104.667 0 -191.5 32.5 -260.5 97.5s-103.5 152.167 -103.5 261.5c0 106 31.5 192.333 94.5 259s148.5 100 256.5 100c103.333 0 184.666 -32.667 243.999 -98l-7 -10
c-62.667 62.667 -141.667 94 -237 94c-104 0 -186.167 -32 -246.5 -96s-90.5 -147 -90.5 -249c0 -105.333 33.333 -189.166 100 -251.499s150.667 -93.5 252 -93.5c96.667 0 176.667 28.333 240 85v214h-212z" />
    <glyph glyph-name="H" unicode="H" horiz-adv-x="743" 
d="M643 0v352h-543v-352h-14v700h14v-334h543v334h14v-700h-14z" />
    <glyph glyph-name="I" unicode="I" horiz-adv-x="198" 
d="M92 0v700h14v-700h-14z" />
    <glyph glyph-name="J" unicode="J" horiz-adv-x="483" 
d="M397 700v-501.999c0 -65.333 -18.5 -116.166 -55.5 -152.499s-84.833 -54.5 -143.5 -54.5c-45.333 0 -84.5 11.667 -117.5 35s-58.5 51 -76.5 83l12 7c18.667 -32.667 44 -59.334 76 -80.001s67.333 -31 106 -31c56.667 0 101.667 17.167 135 51.5s50 84.166 50 149.499
v494h14z" />
    <glyph glyph-name="K" unicode="K" horiz-adv-x="615" 
d="M86 0v700h14v-411l457 411h22l-363 -326l390 -374h-19l-381 365l-106 -95v-270h-14z" />
    <glyph glyph-name="L" unicode="L" horiz-adv-x="568" 
d="M86 0v700h14v-686h458v-14h-472z" />
    <glyph glyph-name="M" unicode="M" horiz-adv-x="821" 
d="M86 0v700h14l310 -422l312 422h13v-700h-14v677l-309 -419h-4l-308 418v-676h-14z" />
    <glyph glyph-name="N" unicode="N" horiz-adv-x="733" 
d="M647 0h-14l-533 678v-678h-14v700h14l533 -677v677h14v-700z" />
    <glyph glyph-name="O" unicode="O" horiz-adv-x="785" 
d="M44 350c0 101.333 33.501 186.5 100.501 255.5s149.5 103.5 247.5 103.5c98.667 0 181.5 -34 248.5 -102s100.5 -153.667 100.5 -257c0 -102 -34 -187.333 -102 -256s-150.333 -103 -247 -103s-178.834 34 -246.501 102s-101.5 153.667 -101.5 257zM58.001 350
c0 -96 32.667 -177.501 98 -244.501s144 -100.5 236 -100.5c95.333 0 175 33.333 239 100s96 148.334 96 245.001c0 97.333 -32.5 179.166 -97.5 245.499s-144.167 99.5 -237.5 99.5s-172.333 -33.167 -237 -99.5s-97 -148.166 -97 -245.499z" />
    <glyph glyph-name="P" unicode="P" horiz-adv-x="654" 
d="M100 0h-13.999v700h249c183.333 0 275 -65.333 275 -196c0 -60 -21.833 -108.667 -65.5 -146s-113.834 -56 -210.501 -56h-234v-302zM341.001 686h-241v-370h232c90 0 156.5 16.667 199.5 50s64.5 79.333 64.5 138c0 121.333 -85 182 -255 182z" />
    <glyph glyph-name="Q" unicode="Q" horiz-adv-x="785" 
d="M44 350c0 101.333 33.5 186.5 100.5 255.5s149.5 103.5 247.5 103.5c98.667 0 181.5 -34 248.5 -102s100.5 -153.667 100.5 -257c0 -55.333 -11.833 -107.833 -35.5 -157.5s-56.5 -91.5 -98.5 -125.5l87 -99l-11 -10l-87 100c-58 -44.667 -126 -67 -204 -67
c-96 0 -178 34.167 -246 102.5s-102 153.833 -102 256.5zM510 158l10 9.00195l78 -89c40 33.333 71.5 73.666 94.5 120.999s34.5 97.666 34.5 150.999c0 97.333 -32.833 179.166 -98.5 245.499s-144.5 99.5 -236.5 99.5s-170.667 -33.167 -236 -99.5
s-98 -148.166 -98 -245.499c0 -96 32.833 -177.5 98.5 -244.5s144.167 -100.5 235.5 -100.5c71.333 0 136 21.667 194 65z" />
    <glyph glyph-name="R" unicode="R" horiz-adv-x="666" 
d="M100 0h-14v700h250c170 0 255 -62.667 255 -188c0 -54.667 -19.667 -99.167 -59 -133.5s-90 -53.833 -152 -58.5l258 -320h-18l-255 316h-265v-316zM333 686l-233 -0.000976562v-356h239c74 0 132.167 16.667 174.5 50s63.5 77.333 63.5 132s-18.333 97.334 -55 128.001
s-99.667 46 -189 46z" />
    <glyph glyph-name="S" unicode="S" 
d="M540 176c0 33.333 -8.83105 61.001 -26.498 83.001s-40.667 38.167 -69 48.5s-59.666 19 -93.999 26l-103 21c-34.333 7 -65.666 16 -93.999 27s-51.333 28.333 -69 52s-26.5 53.167 -26.5 88.5c0 50.667 23.333 94.5 70 131.5s108 55.5 184 55.5
c95.333 0 169.333 -26.333 222 -79l-7 -10c-55.333 50 -127.666 75 -216.999 75c-61.333 0 -116.333 -15.5 -165 -46.5s-73 -73.167 -73 -126.5c0 -33.333 8.83301 -61 26.5 -83s40.667 -38.167 69 -48.5s59.666 -18.833 93.999 -25.5s68.666 -13.667 102.999 -21
s65.666 -16.5 93.999 -27.5s51.333 -28.167 69 -51.5s26.5 -52.666 26.5 -87.999c0 -54 -23.5 -98.5 -70.5 -133.5s-104.5 -52.5 -172.5 -52.5c-56.667 0 -108.834 11.667 -156.501 35s-84.167 52.666 -109.5 87.999l10 10c21.333 -32 54 -59.833 98 -83.5
s97 -35.5 159 -35.5c59.333 0 112.166 15.667 158.499 47s69.5 72.666 69.5 123.999z" />
    <glyph glyph-name="T" unicode="T" horiz-adv-x="560" 
d="M6 686v14h548v-14h-267v-686h-14v686h-267z" />
    <glyph glyph-name="U" unicode="U" horiz-adv-x="702" 
d="M633 700l-0.000976562 -409.999c0 -99.333 -26.833 -173.833 -80.5 -223.5s-119.5 -74.5 -197.5 -74.5c-82 0 -150.167 26.667 -204.5 80s-81.5 128.666 -81.5 225.999v402h14v-397c0 -52 7.83301 -97.833 23.5 -137.5s36.667 -70.667 63 -93s55 -39 86 -50
s64.167 -16.5 99.5 -16.5c80.667 0 144.834 25.167 192.501 75.5s71.5 121.5 71.5 213.5v405h14z" />
    <glyph glyph-name="V" unicode="V" horiz-adv-x="696" 
d="M692 700l-330 -700h-14l-344 700h16l335 -682l321 682h16z" />
    <glyph glyph-name="W" unicode="W" horiz-adv-x="977" 
d="M961 700l-218 -700h-14l-231 681l-250 -681h-14l-218 700h14l212 -678l249 678h14l231 -677l211 677h14z" />
    <glyph glyph-name="X" unicode="X" horiz-adv-x="605" 
d="M569 700l-257 -345l265 -355h-18l-256 343l-256 -343h-19l266 355l-257 345h18l248 -333l249 333h17z" />
    <glyph glyph-name="Y" unicode="Y" horiz-adv-x="582" 
d="M578 700l-280 -391v-309h-14v309l-280 391h18l269 -376l269 376h18z" />
    <glyph glyph-name="Z" unicode="Z" horiz-adv-x="625" 
d="M37 686v14h558v-12l-558 -674h568v-14h-588v12l558 674h-538z" />
    <glyph glyph-name="bracketleft" unicode="[" horiz-adv-x="264" 
d="M60 -209v919h199v-14h-185v-891h185v-14h-199z" />
    <glyph glyph-name="backslash" unicode="\" horiz-adv-x="292" 
d="M-18 704l339 -911l-13 -4l-339 910z" />
    <glyph glyph-name="bracketright" unicode="]" horiz-adv-x="264" 
d="M204 710v-919h-199v14h185v891h-185v14h199z" />
    <glyph glyph-name="asciicircum" unicode="^" horiz-adv-x="458" 
d="M64 471l158 237h14l158 -237h-17l-148 222l-148 -222h-17z" />
    <glyph glyph-name="underscore" unicode="_" horiz-adv-x="259" 
d="M0 -209v14h259v-14h-259z" />
    <glyph glyph-name="grave" unicode="`" horiz-adv-x="378" 
d="M367 634l-104 134l11 9l104 -134z" />
    <glyph glyph-name="a" unicode="a" horiz-adv-x="532" 
d="M83 452l-12 11.002c22 20 50.667 36.833 86 50.5s67 20.5 95 20.5c143.333 0 215 -68.333 215 -205v-329h-14v131c-48 -92 -125.333 -138 -232 -138c-55.333 0 -100 13.667 -134 41s-51 64.666 -51 111.999s19.833 83.166 59.5 107.499s94.5 36.5 164.5 36.5
c30 0 65.833 -2.16699 107.5 -6.5s70.167 -8.83301 85.5 -13.5v51c0 132.667 -67.667 199 -203 199c-59.333 0 -115 -22.667 -167 -68zM224 7.00195c60.667 0 110.501 16.333 149.501 49s65.5 67 79.5 103v97c-50.667 13.333 -116 20 -196 20
c-64 0 -114.5 -10.667 -151.5 -32s-55.5 -54.333 -55.5 -99c0 -42 16.667 -75.5 50 -100.5s74.666 -37.5 123.999 -37.5z" />
    <glyph glyph-name="b" unicode="b" horiz-adv-x="596" 
d="M79 83l0.000976562 646.999h14v-337c26.667 46 59.5 81 98.5 105s80.833 36 125.5 36c71.333 0 129 -24.5 173 -73.5s66 -112.167 66 -189.5c0 -87.333 -23 -156.166 -69 -206.499s-110 -75.5 -192 -75.5c-44.667 0 -86.334 9.33301 -125.001 28s-69 40.667 -91 66z
M314.001 519.999c-48 0 -91.332 -14.334 -129.999 -43.001s-69 -64.667 -91 -108v-281c24.667 -27.333 56 -48.333 94 -63s74.667 -22 110 -22c76 0 135.833 23.833 179.5 71.5s65.5 112.834 65.5 195.501c0 74 -21.333 134.167 -64 180.5s-97.334 69.5 -164.001 69.5z" />
    <glyph glyph-name="c" unicode="c" horiz-adv-x="524" 
d="M496 82l7.99902 -10c-18.667 -26 -45 -46.333 -79 -61s-71 -22 -111 -22c-82 0 -148.167 24.833 -198.5 74.5s-75.5 115.5 -75.5 197.5c0 78 24.833 143 74.5 195s115.167 78 196.5 78c80.667 0 140.334 -26 179.001 -78l-9 -10c-42.667 49.333 -100 74 -172 74
c-72.667 0 -133.334 -24.667 -182.001 -74s-73 -111 -73 -185c0 -80 23.833 -143 71.5 -189s109.834 -69 186.501 -69c37.333 0 73 7 107 21s59.667 33.333 77 58z" />
    <glyph glyph-name="d" unicode="d" 
d="M506 0l-0.00195312 105.999c-12.667 -26 -37.5 -51.667 -74.5 -77s-79.5 -38 -127.5 -38c-79.333 0 -143.166 24.667 -191.499 74s-72.5 114 -72.5 194c0 79.333 27 145 81 197s119.333 78 196 78c38 0 73.833 -9.16699 107.5 -27.5s60.834 -43.166 81.501 -74.499v298
h14v-730h-14zM299.998 4.99902c52.667 0 97.168 13.833 133.501 41.5s60.5 55.167 72.5 82.5v279c-21.333 36 -49.333 63.667 -84 83s-71.334 29 -110.001 29c-70 0 -130.5 -24.5 -181.5 -73.5s-76.5 -110.833 -76.5 -185.5c0 -78 23 -140.167 69 -186.5
s105 -69.5 177 -69.5z" />
    <glyph glyph-name="e" unicode="e" horiz-adv-x="571" 
d="M506 94l7.99902 -9.99902c-17.333 -28 -45.5 -50.833 -84.5 -68.5s-79.167 -26.5 -120.5 -26.5c-81.333 0 -146.5 24.667 -195.5 74s-73.5 115.333 -73.5 198c0 79.333 23.667 144.666 71 195.999s112 77 194 77c66 0 120.167 -21.667 162.5 -65
s63.5 -99.666 63.5 -168.999c0 -16.667 -0.666992 -28.334 -2 -35.001h-475c0 -79.333 23.333 -142.833 70 -190.5s109.334 -71.5 188.001 -71.5c40 0 78 8.33301 114 25s62.667 38.667 80 66zM298.999 520.001c-72 0 -129.999 -23 -173.999 -69s-67.667 -103.333 -71 -172
h463c1.33301 74.667 -17.334 133.5 -56.001 176.5s-92.667 64.5 -162 64.5z" />
    <glyph glyph-name="f" unicode="f" horiz-adv-x="327" 
d="M-2 506l0.00195312 14h124v44c0 34 4.83301 63 14.5 87s22.667 42 39 54s32.666 20.5 48.999 25.5s33.5 7.5 51.5 7.5c24 0 46.167 -5.5 66.5 -16.5s35.5 -24.167 45.5 -39.5l-10 -10c-24 34.667 -58.667 52 -104 52c-38.667 0 -71.334 -12.5 -98.001 -37.5
s-40 -66.167 -40 -123.5v-43h197v-14h-197v-506h-14v506h-124z" />
    <glyph glyph-name="g" unicode="g" horiz-adv-x="605" 
d="M525 520l-0.00195312 -495.998c0 -45.333 -6.5 -84 -19.5 -116s-30.833 -56 -53.5 -72s-46.167 -27.5 -70.5 -34.5s-50.833 -10.5 -79.5 -10.5c-102.667 0 -173.334 35.333 -212.001 106l11 10c36 -68 103 -102 201 -102c139.333 0 209 72.667 209 218v77
c-14 -24.667 -39.167 -49 -75.5 -73s-80.166 -36 -131.499 -36c-81.333 0 -145.666 24.667 -192.999 74s-71 114.666 -71 195.999c0 82 25.333 148.167 76 198.5s115.334 75.5 194.001 75.5c45.333 0 86 -10.333 122 -31s62.333 -46.334 79 -77.001v93h14zM303.998 5.00195
c50 0 92.5 11.334 127.5 34.001s61.5 50.667 79.5 84v278c-18 35.333 -44.5 64.166 -79.5 86.499s-76.833 33.5 -125.5 33.5c-70 0 -129.5 -23.333 -178.5 -70s-73.5 -110.667 -73.5 -192c0 -77.333 22.833 -139 68.5 -185s106.167 -69 181.5 -69z" />
    <glyph glyph-name="h" unicode="h" 
d="M80 0v730.001h14v-337c18 40.667 46.167 74.167 84.5 100.5s83.5 39.5 135.5 39.5c70 0 124.167 -19.333 162.5 -58s57.5 -97.334 57.5 -176.001v-299h-14v291c0 152 -68.667 228 -206 228c-98.667 0 -172 -50.667 -220 -152v-367h-14z" />
    <glyph glyph-name="i" unicode="i" horiz-adv-x="197" 
d="M92 0v520h14v-520h-14zM79 702c0 6.66699 1.83301 12.334 5.5 17.001s8.16699 7 13.5 7s10 -2.33301 14 -7s6 -10.334 6 -17.001s-2 -12.167 -6 -16.5s-8.66699 -6.5 -14 -6.5s-9.83301 2.16699 -13.5 6.5s-5.5 9.83301 -5.5 16.5z" />
    <glyph glyph-name="j" unicode="j" horiz-adv-x="206" 
d="M115 520l0.00195312 -540c0 -126 -44.667 -189 -134 -189c-42.667 0 -76.334 15.333 -101.001 46l11 12c23.333 -29.333 53.333 -44 90 -44c41.333 0 71.666 14.333 90.999 43s29 72.667 29 132v540h14zM88.002 701c0 6.66699 1.83301 12.334 5.5 17.001
s8.16699 7 13.5 7s10 -2.33301 14 -7s6 -10.334 6 -17.001s-2 -12.167 -6 -16.5s-8.66699 -6.5 -14 -6.5s-9.83301 2.16699 -13.5 6.5s-5.5 9.83301 -5.5 16.5z" />
    <glyph glyph-name="k" unicode="k" horiz-adv-x="515" 
d="M80 0v730h14v-506l359 296h22l-283 -233l311 -287h-20l-302 278l-87 -72v-206h-14z" />
    <glyph glyph-name="l" unicode="l" horiz-adv-x="172" 
d="M79 0v730h14v-730h-14z" />
    <glyph glyph-name="m" unicode="m" horiz-adv-x="916" 
d="M850 343l-0.00292969 -343h-14v341c0 54 -15 97.167 -45 129.5s-73 48.5 -129 48.5c-48.667 0 -89.167 -13.5 -121.5 -40.5s-55.166 -57.833 -68.499 -92.5v-386h-14v364c0 45.333 -15.333 82.5 -46 111.5s-70.334 43.5 -119.001 43.5
c-87.333 0 -153.666 -47.333 -198.999 -142v-377h-14v520h14v-117c18.667 38 45.334 69.167 80.001 93.5s74.334 36.5 119.001 36.5c43.333 0 81.166 -11.833 113.499 -35.5s52.833 -52.834 61.5 -87.501c17.333 36.667 43.5 66.334 78.5 89.001s73.167 34 114.5 34
c52.667 0 97.334 -15 134.001 -45s55 -78.333 55 -145z" />
    <glyph glyph-name="n" unicode="n" horiz-adv-x="598" 
d="M80 0v520h14v-120c18.667 40 48 72.167 88 96.5s81.667 36.5 125 36.5c71.333 0 126.666 -19.167 165.999 -57.5s59 -96.833 59 -175.5v-300h-14v290c0 152.667 -70.333 229 -211 229c-44 0 -85.167 -12.5 -123.5 -37.5s-68.166 -60.833 -89.499 -107.5v-374h-14z" />
    <glyph glyph-name="o" unicode="o" horiz-adv-x="618" 
d="M40 261c0 80.667 25 146.334 75 197.001s114.667 76 194 76s144 -25.333 194 -76s75 -116.334 75 -197.001s-25 -146.167 -75 -196.5s-114.667 -75.5 -194 -75.5s-144 25.167 -194 75.5s-75 115.833 -75 196.5zM54 260c0 -74.667 23.667 -136.167 71 -184.5
s108.666 -72.5 183.999 -72.5s136.666 24.167 183.999 72.5s71 109.833 71 184.5c0 76.667 -23.667 139.167 -71 187.5s-108.666 72.5 -183.999 72.5s-136.666 -24.167 -183.999 -72.5s-71 -110.833 -71 -187.5z" />
    <glyph glyph-name="p" unicode="p" horiz-adv-x="605" 
d="M80 -200v720.001h14v-120c22.667 45.333 53.834 79 93.501 101s83.167 33 130.5 33c72.667 0 132 -24.5 178 -73.5s69 -112.167 69 -189.5c0 -80.667 -24.5 -147.834 -73.5 -201.501s-110.833 -80.5 -185.5 -80.5c-88.667 0 -159.334 35 -212.001 105v-294h-14z
M318 520.001c-104.667 0 -179.333 -48.667 -224 -146v-256c24 -38 54.667 -66.667 92 -86s77.333 -29 120 -29c70.667 0 129.167 25.333 175.5 76s69.5 114.667 69.5 192c0 72 -21.667 131.5 -65 178.5s-99.333 70.5 -168 70.5z" />
    <glyph glyph-name="q" unicode="q" horiz-adv-x="605" 
d="M511 -200l-0.00195312 300.999c-17.333 -30.667 -44.666 -57 -81.999 -79s-80.666 -33 -129.999 -33c-76.667 0 -139 24.833 -187 74.5s-72 115.5 -72 197.5c0 74.667 26.667 138.834 80 192.501s118 80.5 194 80.5c46.667 0 87.667 -11 123 -33s60 -45.333 74 -70v89h14
v-720h-14zM298.998 2.99902c51.333 0 95.6699 12.334 133.003 37.001s63.666 53 78.999 85v283c-20.667 35.333 -48.334 62.833 -83.001 82.5s-73.334 29.5 -116.001 29.5c-70 0 -130.5 -25.333 -181.5 -76s-76.5 -112.334 -76.5 -185.001
c0 -75.333 22.833 -136.833 68.5 -184.5s104.5 -71.5 176.5 -71.5z" />
    <glyph glyph-name="r" unicode="r" horiz-adv-x="334" 
d="M80 0v520h14v-77c23.333 60 69.333 90 138 90c21.333 0 42 -4.5 62 -13.5s35.667 -20.833 47 -35.5l-11 -10c-22 30 -54.667 45 -98 45c-72 0 -118 -37.667 -138 -113v-406h-14z" />
    <glyph glyph-name="s" unicode="s" horiz-adv-x="497" 
d="M439 129c0 26.667 -9.50293 48.833 -28.5029 66.5s-42.667 30.667 -71 39s-59.166 17 -92.499 26s-64.166 17.833 -92.499 26.5s-52 22.5 -71 41.5s-28.5 42.5 -28.5 70.5c0 41.333 16 74.166 48 98.499s75.667 36.5 131 36.5c86.667 0 152.334 -25.667 197.001 -77
l-11 -9c-38 48 -99.667 72 -185 72c-45.333 0 -84.333 -9.83301 -117 -29.5s-49 -50.167 -49 -91.5c0 -30.667 13.167 -55.334 39.5 -74.001s58.333 -32.5 96 -41.5s75.334 -18.333 113.001 -28s69.667 -24.667 96 -45s39.5 -47.166 39.5 -80.499
c0 -45.333 -17.833 -80.166 -53.5 -104.499s-77.834 -36.5 -126.501 -36.5c-107.333 0 -184 36.333 -230 109l12 8c44 -68.667 116.333 -103 217 -103c25.333 0 50 3.5 74 10.5s45.5 20.5 64.5 40.5s28.5 45 28.5 75z" />
    <glyph glyph-name="t" unicode="t" horiz-adv-x="376" 
d="M0 506l-0.000976562 14.001h120v127h14v-127h202v-14h-202v-321c0 -68 11.667 -114.667 35 -140s56 -38 98 -38c26 0 48.333 4.83301 67 14.5s32 19.5 40 29.5l8 -13c-27.333 -30 -65.666 -45 -114.999 -45c-52 0 -89.5 15.667 -112.5 47s-34.5 79.666 -34.5 144.999v321
h-120z" />
    <glyph glyph-name="u" unicode="u" horiz-adv-x="589" 
d="M509 523v-523h-14v122c-18 -42.667 -46.167 -75.5 -84.5 -98.5s-82.5 -34.5 -132.5 -34.5c-66.667 0 -118.667 18.833 -156 56.5s-56 94.5 -56 170.5v307h14v-303c0 -144.667 66 -217 198 -217c108.667 0 181 50.333 217 151v369h14z" />
    <glyph glyph-name="v" unicode="v" horiz-adv-x="492" 
d="M492 520l-239 -520h-14l-239 520h15l231 -501l231 501h15z" />
    <glyph glyph-name="w" unicode="w" horiz-adv-x="780" 
d="M774 520l-175 -520h-14l-195 501l-195 -501h-14l-175 520h14l168 -499l195 499h14l195 -498l168 498h14z" />
    <glyph glyph-name="x" unicode="x" horiz-adv-x="488" 
d="M440 520h19l-206 -253l217 -267h-19l-207 255l-207 -255h-19l216 267l-205 253h19l196 -242z" />
    <glyph glyph-name="y" unicode="y" horiz-adv-x="521" 
d="M110 -209l4.99805 13.999c1.33301 0 3.33301 -0.166992 6 -0.5s4.66699 -0.5 6 -0.5c26 0 49.833 11.667 71.5 35s45.834 67 72.501 131l10 24l-274 526h16l266 -510l211 510h16l-221 -532c-18 -43.333 -34.5 -78.666 -49.5 -105.999s-29.5 -47.5 -43.5 -60.5
s-26.5 -21.5 -37.5 -25.5s-23.833 -6 -38.5 -6c-7.33301 0 -12.666 0.333008 -15.999 1z" />
    <glyph glyph-name="z" unicode="z" horiz-adv-x="474" 
d="M38 506v14h416v-10l-413 -496h407v-14h-428v12l412 494h-394z" />
    <glyph glyph-name="braceleft" unicode="{" horiz-adv-x="292" 
d="M118 -94v232.999c0 64.667 -31.333 99.667 -94 105v14c20 0 40.667 8.83301 62 26.5s32 45.834 32 84.501v228c0 75.333 34.333 113 103 113h47v-14h-47c-34.667 0 -58.167 -9.16699 -70.5 -27.5s-18.5 -43.5 -18.5 -75.5v-224c0 -34.667 -8.5 -62 -25.5 -82
s-37.5 -32 -61.5 -36c58 -4.66699 87 -42 87 -112v-222c0 -42.667 7.66699 -72 23 -88s40.333 -24 75 -24h38v-14h-43c-71.333 0 -107 38.333 -107 115z" />
    <glyph glyph-name="bar" unicode="|" horiz-adv-x="322" 
d="M154 0v700h14v-700h-14z" />
    <glyph glyph-name="braceright" unicode="}" horiz-adv-x="292" 
d="M174 139v-232.999c0 -76.667 -35.667 -115 -107 -115h-43v14h38c34.667 0 59.667 8 75 24s23 45.333 23 88v222c0 70 29 107.333 87 112c-24 4 -44.5 16 -61.5 36s-25.5 47.333 -25.5 82v224c0 32 -6.16699 57.167 -18.5 75.5s-35.833 27.5 -70.5 27.5h-47v14h47
c68.667 0 103 -37.667 103 -113v-228c0 -38.667 10.667 -66.834 32 -84.501s42 -26.5 62 -26.5v-14c-62.667 -5.33301 -94 -40.333 -94 -105z" />
    <glyph glyph-name="asciitilde" unicode="~" horiz-adv-x="600" 
d="M86 344l-9.00293 11c34.667 34.667 72.334 52 113.001 52c25.333 0 65.333 -12.833 120 -38.5s93.334 -38.5 116.001 -38.5c30.667 0 60 13.667 88 41l9 -11c-33.333 -29.333 -65.666 -44 -96.999 -44c-24.667 0 -63.667 12.833 -117 38.5s-94 38.5 -122 38.5
c-33.333 0 -67 -16.333 -101 -49z" />
    <glyph glyph-name="uni00A0" unicode="&#xa0;" horiz-adv-x="300" 
 />
    <glyph glyph-name="exclamdown" unicode="&#xa1;" horiz-adv-x="310" 
d="M148 -182v511h14v-511h-14zM137 498c0 6 1.8291 11.167 5.49609 15.5s7.83398 6.5 12.501 6.5s8.83398 -2.16699 12.501 -6.5s5.5 -9.5 5.5 -15.5s-1.66699 -11 -5 -15s-7.66602 -6 -12.999 -6s-9.66602 2 -12.999 6s-5 9 -5 15z" />
    <glyph glyph-name="cent" unicode="&#xa2;" horiz-adv-x="600" 
d="M318 -200v189.999c-76.667 4.66699 -138 31.334 -184 80.001s-69 112.334 -69 191.001c0 74.667 23.5 137.667 70.5 189s107.833 79 182.5 83v167h14v-166h4c36.667 0 70.834 -7.33301 102.501 -22s57.167 -33.334 76.5 -56.001l-11 -10c-38.667 48 -96 72.667 -172 74
v-517h5c74.667 0 135.667 29 183 87l7 -13c-24.667 -29.333 -53.834 -51.333 -87.501 -66s-67.167 -22 -100.5 -22h-7v-189h-14zM79 260.999c0 -76.667 22 -137.833 66 -183.5s101.667 -70.5 173 -74.5v517c-68 -3.33301 -124.833 -29.333 -170.5 -78s-68.5 -109 -68.5 -181
z" />
    <glyph glyph-name="sterling" unicode="&#xa3;" horiz-adv-x="600" 
d="M91 295l0.00390625 14h91c-4 10 -12.833 30.167 -26.5 60.5s-23.834 57.166 -30.501 80.499s-10 47.333 -10 72c0 52.667 19.5 96.834 58.5 132.501s87.167 53.5 144.5 53.5c66.667 0 122 -21 166 -63l-7 -12c-42 40.667 -95.333 61 -160 61
c-52.667 0 -97.167 -16.5 -133.5 -49.5s-54.5 -73.833 -54.5 -122.5c0 -24.667 3.33301 -48.334 10 -71.001s16.667 -48.5 30 -77.5s22.666 -50.5 27.999 -64.5h177v-14h-173c4.66699 -15.333 7 -33.666 7 -54.999c0 -66 -20 -125 -60 -177c34 4 79.667 -4.16699 137 -24.5
s100 -30.5 128 -30.5c41.333 0 77.666 16.333 108.999 49l8 -12c-36.667 -34 -77.334 -51 -122.001 -51c-23.333 0 -61.333 9.33301 -114 28s-94.667 28 -126 28c-35.333 0 -70.666 -18.667 -105.999 -56l-6 12c21.333 23.333 44.666 40 69.999 50
c45.333 58 68 119.667 68 185c0 17.333 -2.66699 35.333 -8 54h-95z" />
    <glyph glyph-name="currency" unicode="&#xa4;" horiz-adv-x="600" 
d="M562 96l-10.001 -9.99902l-99 99c-39.333 -39.333 -90.333 -59 -153 -59c-63.333 0 -114 19.667 -152 59l-99 -99l-10 10l99 99c-34.667 40.667 -52 91.334 -52 152.001c0 61.333 17.667 112.333 53 153l-96 95l10 10l95 -95c40 38.667 90.667 58 152 58
c60.667 0 111.334 -19.667 152.001 -59l96 96l10 -10l-96 -96c35.333 -40.667 53 -91.334 53 -152.001c0 -62.667 -17.333 -113.334 -52 -152.001zM99.999 347.001c0 -62 18.167 -112 54.5 -150s84.833 -57 145.5 -57s109.334 19 146.001 57s55 88 55 150
s-18.333 112 -55 150s-85.334 57 -146.001 57s-109.167 -19 -145.5 -57s-54.5 -88 -54.5 -150z" />
    <glyph glyph-name="yen" unicode="&#xa5;" horiz-adv-x="600" 
d="M587 700l-272 -380h207v-14h-215v-150h215v-14h-215v-142h-14v142h-213v14h213v150h-213v14h205l-272 380h18l269 -376l269 376h18z" />
    <glyph glyph-name="brokenbar" unicode="&#xa6;" horiz-adv-x="322" 
d="M168 461h-14v239h14v-239zM154 239h14v-239h-14v239z" />
    <glyph glyph-name="section" unicode="&#xa7;" horiz-adv-x="534" 
d="M88 244c0 46.667 15.332 85.834 45.999 117.501s69 49.834 115 54.501c-25.333 9.33301 -50 27 -74 53s-36 57 -36 93c0 40 13.667 73 41 99s60.333 39 99 39c46 0 84 -17 114 -51l-10 -9c-9.33301 9.33301 -16.833 16.333 -22.5 21s-16 10 -31 16s-31.833 9 -50.5 9
c-36 0 -66 -11.833 -90 -35.5s-36 -53.167 -36 -88.5c0 -62.667 40.667 -110.667 122 -144c51.333 -5.33301 92.666 -23.666 123.999 -54.999s47 -71 47 -119c0 -47.333 -15.5 -86.666 -46.5 -117.999s-70.167 -49.333 -117.5 -54c32.667 -12.667 59.334 -31.5 80.001 -56.5
s31 -53.833 31 -86.5c0 -40.667 -13.667 -73.834 -41 -99.501s-61.666 -38.5 -102.999 -38.5c-47.333 0 -84.333 14.333 -111 43l10 10c0.666992 -0.666992 3 -2.83398 7 -6.50098s7.33301 -6.5 10 -8.5s7 -4.83301 13 -8.5s12 -6.33398 18 -8.00098
s13.5 -3.33398 22.5 -5.00098s18.833 -2.5 29.5 -2.5c40 0 71.833 11.667 95.5 35s35.5 53 35.5 89c0 34.667 -12.333 64.334 -37 89.001s-54 42.334 -88 53.001c-50 5.33301 -90.167 23.666 -120.5 54.999s-45.5 70.666 -45.5 117.999zM101.999 244
c0 -45.333 15.6689 -83.333 47.002 -114s70 -46 116 -46c47.333 0 87 15.333 119 46s48 68.667 48 114c0 46 -15.833 84.167 -47.5 114.5s-70.834 45.5 -117.501 45.5s-85.834 -15.167 -117.501 -45.5s-47.5 -68.5 -47.5 -114.5z" />
    <glyph glyph-name="dieresis" unicode="&#xa8;" horiz-adv-x="454" 
d="M418 707c0 6 1.8291 11.167 5.49609 15.5s7.83398 6.5 12.501 6.5s8.83398 -2.16699 12.501 -6.5s5.5 -9.5 5.5 -15.5s-1.66699 -11 -5 -15s-7.66602 -6 -12.999 -6s-9.66602 2 -12.999 6s-5 9 -5 15zM158.996 707c0 6 1.8291 11.167 5.49609 15.5
s7.83398 6.5 12.501 6.5s8.83398 -2.16699 12.501 -6.5s5.5 -9.5 5.5 -15.5s-1.66699 -11 -5 -15s-7.66602 -6 -12.999 -6s-9.66602 2 -12.999 6s-5 9 -5 15z" />
    <glyph glyph-name="copyright" unicode="&#xa9;" horiz-adv-x="1047" 
d="M91 215c0 120.667 42.167 223.5 126.5 308.5s186.166 127.5 305.499 127.5s221.333 -42.5 306 -127.5s127 -187.833 127 -308.5s-42.333 -223.5 -127 -308.5s-186.667 -127.5 -306 -127.5s-221.166 42.5 -305.499 127.5s-126.5 187.833 -126.5 308.5zM105 215
c0 -116.667 40.833 -216.167 122.5 -298.5s180.167 -123.5 295.5 -123.5s214 41.167 296 123.5s123 181.833 123 298.5s-41 216.167 -123 298.5s-180.667 123.5 -296 123.5s-213.833 -41.167 -295.5 -123.5s-122.5 -181.833 -122.5 -298.5zM682 68l2.99805 -16.001
c-38.667 -40.667 -91 -61 -157 -61c-66.667 0 -121.5 20.833 -164.5 62.5s-64.5 96.834 -64.5 165.501c0 64 21.667 118.167 65 162.5s96 66.5 158 66.5c60 0 111.667 -17.667 155 -53l-5 -15c-38.667 36 -88.667 54 -150 54c-57.333 0 -106.5 -20.167 -147.5 -60.5
s-61.5 -91.833 -61.5 -154.5c0 -62 19.5 -113.167 58.5 -153.5s91.167 -60.5 156.5 -60.5c32.667 0 62.834 6 90.501 18s48.834 27 63.501 45z" />
    <glyph glyph-name="ordfeminine" unicode="&#xaa;" horiz-adv-x="425" 
d="M86 549l-8.00098 12c38 29.333 85 44 141 44c88.667 0 133 -39.333 133 -118v-186h-14v73c-37.333 -52.667 -89 -79 -155 -79c-38.667 0 -70.167 8 -94.5 24s-36.5 36.667 -36.5 62c0 63.333 54.667 95 164 95c43.333 0 84 -4.33301 122 -13v23
c0 70 -39.667 105 -119 105c-47.333 0 -91.666 -14 -132.999 -42zM183.999 309c68.667 0 120 30 154 90v50c-50 8.66699 -90.667 13 -122 13c-100 0 -150 -26.333 -150 -79c0 -21.333 10.5 -39 31.5 -53s49.833 -21 86.5 -21z" />
    <glyph glyph-name="guillemotleft" unicode="&#xab;" horiz-adv-x="475" 
d="M384 38l-178 205v4l178 205l11 -9l-171 -198l171 -197zM238 38l-178 205v4l178 205l11 -9l-171 -198l171 -197z" />
    <glyph glyph-name="logicalnot" unicode="&#xac;" horiz-adv-x="612" 
d="M83 353v14h446v-150h-14v136h-432z" />
    <glyph glyph-name="uni00AD" unicode="&#xad;" horiz-adv-x="391" 
d="M96 261v14h199v-14h-199z" />
    <glyph glyph-name="registered" unicode="&#xae;" horiz-adv-x="579" 
d="M233 370l-14 -0.000976562v275h66c30 0 52 -7.16699 66 -21.5s21 -32.5 21 -54.5s-7 -39.667 -21 -53s-31.667 -21.666 -53 -24.999l101 -121h-18l-98 118h-50v-118zM358 568.999c0 41.333 -24.667 62 -74 62h-51v-129h50c18 0 35 5.5 51 16.5s24 27.833 24 50.5z
M63 501.999c0 63.333 22 117.5 66 162.5s97.333 67.5 160 67.5s116.167 -22.5 160.5 -67.5s66.5 -99.167 66.5 -162.5s-22.167 -117.333 -66.5 -162s-97.833 -67 -160.5 -67s-116 22.333 -160 67s-66 98.667 -66 162zM77 501.999c0 -59.333 20.667 -110 62 -152
s91.333 -63 150 -63s108.834 21 150.501 63s62.5 92.667 62.5 152s-20.833 110.166 -62.5 152.499s-91.834 63.5 -150.501 63.5s-108.667 -21.167 -150 -63.5s-62 -93.166 -62 -152.499z" />
    <glyph glyph-name="macron" unicode="&#xaf;" horiz-adv-x="440" 
d="M201 674v14h239v-14h-239z" />
    <glyph glyph-name="degree" unicode="&#xb0;" horiz-adv-x="389" 
d="M63 580c0 37.333 12.833 69.166 38.5 95.499s56.5 39.5 92.5 39.5s66.833 -13.167 92.5 -39.5s38.5 -58.166 38.5 -95.499s-12.833 -69 -38.5 -95s-56.5 -39 -92.5 -39s-66.833 13 -92.5 39s-38.5 57.667 -38.5 95zM77 580c0 -33.333 11.333 -61.666 34 -84.999
s50.334 -35 83.001 -35s60.334 11.667 83.001 35s34 51.666 34 84.999s-11.333 61.833 -34 85.5s-50.334 35.5 -83.001 35.5s-60.334 -11.833 -83.001 -35.5s-34 -52.167 -34 -85.5z" />
    <glyph glyph-name="plusminus" unicode="&#xb1;" horiz-adv-x="608" 
d="M83 436v14h214v208h14v-208h214v-14h-214v-158h-14v158h-214zM83 193v14h442v-14h-442z" />
    <glyph glyph-name="twosuperior" unicode="&#xb2;" horiz-adv-x="408" 
d="M64 627l-12 7.00098c29.333 60.667 79.666 91 150.999 91c38.667 0 71 -10.667 97 -32s39 -51 39 -89c0 -26 -5.66699 -50.833 -17 -74.5s-28.666 -46 -51.999 -67s-43.5 -37.667 -60.5 -50s-40.167 -27.833 -69.5 -46.5l-80 -52h305v-14h-327v14l98 65
c62.667 41.333 105.667 73.666 129 96.999c40 41.333 60 84 60 128c0 32.667 -11.167 58.667 -33.5 78s-51.833 29 -88.5 29c-64.667 0 -111 -28 -139 -84z" />
    <glyph glyph-name="threesuperior" unicode="&#xb3;" horiz-adv-x="418" 
d="M79 648l-11.0039 7.99805c26.667 46 77 69 151 69c42.667 0 76.334 -9.33301 101.001 -28s37 -44.334 37 -77.001c0 -26.667 -7.83301 -49.167 -23.5 -67.5s-36.167 -30.166 -61.5 -35.499c28.667 -2 52.334 -10.667 71.001 -26s28 -39.666 28 -72.999
c0 -38.667 -14.667 -68.834 -44 -90.501s-66.666 -32.5 -111.999 -32.5c-82.667 0 -138.667 25.333 -168 76l13 8c24.667 -46.667 76.334 -70 155.001 -70c38.667 0 72 9 100 27s42 45.333 42 82c0 61.333 -42.667 92 -128 92h-77v14h76c32.667 0 60 8.33301 82 25
s33 40.334 33 71.001c0 27.333 -11.333 49.333 -34 66s-52.667 25 -90 25c-34.667 0 -62.667 -4.66699 -84 -14s-40 -25.666 -56 -48.999z" />
    <glyph glyph-name="acute" unicode="&#xb4;" horiz-adv-x="425" 
d="M410 769l-105 -138l-11 8l105 138z" />
    <glyph glyph-name="mu" unicode="&#xb5;" horiz-adv-x="602" 
d="M522 520l-0.000976562 -520h-14v100c-48.667 -74 -118.667 -111 -210 -111c-105.333 0 -173.666 39 -204.999 117v-306h-14v720h14v-317c0 -65.333 17.333 -115 52 -149s85.667 -51 153 -51c90.667 0 160.667 39.667 210 119v398h14z" />
    <glyph glyph-name="mu" unicode="&#x3bc;" horiz-adv-x="602" 
d="M522 520l-0.000976562 -520h-14v100c-48.667 -74 -118.667 -111 -210 -111c-105.333 0 -173.666 39 -204.999 117v-306h-14v720h14v-317c0 -65.333 17.333 -115 52 -149s85.667 -51 153 -51c90.667 0 160.667 39.667 210 119v398h14z" />
    <glyph glyph-name="paragraph" unicode="&#xb6;" horiz-adv-x="429" 
d="M63 487c0 66 17.6699 118 53.0029 156s83.333 57 144 57h128v-14h-98v-653c0 -80 -4.33301 -134.333 -13 -163c-18 -58.667 -57.667 -88 -119 -88c-28 0 -54.667 7.66699 -80 23l7 13c23.333 -14.667 47.666 -22 72.999 -22c55.333 0 90.666 26 105.999 78
c8 26.667 12 79.667 12 159v240c-60.667 -3.33301 -111.334 14.5 -152.001 53.5s-61 92.5 -61 160.5z" />
    <glyph glyph-name="periodcentered" unicode="&#xb7;" horiz-adv-x="236" 
d="M105 292c0 6 1.83301 11.167 5.5 15.5s7.83398 6.5 12.501 6.5c5.33301 0 9.83301 -2.16699 13.5 -6.5s5.5 -9.5 5.5 -15.5s-1.83301 -11.167 -5.5 -15.5s-8.16699 -6.5 -13.5 -6.5c-4.66699 0 -8.83398 2.16699 -12.501 6.5s-5.5 9.5 -5.5 15.5z" />
    <glyph glyph-name="cedilla" unicode="&#xb8;" horiz-adv-x="385" 
d="M218 -177l5 13c23.333 -12 46 -18 68 -18c53.333 0 80 18 80 54c0 34 -27.333 51 -82 51h-16v77h14v-63c65.333 0 98 -21.667 98 -65c0 -19.333 -7.83301 -35.5 -23.5 -48.5s-39.167 -19.5 -70.5 -19.5c-26.667 0 -51 6.33301 -73 19z" />
    <glyph glyph-name="onesuperior" unicode="&#xb9;" horiz-adv-x="269" 
d="M10 653l158 72h14v-425h-14v410l-153 -70z" />
    <glyph glyph-name="ordmasculine" unicode="&#xba;" horiz-adv-x="460" 
d="M67 450c0 42.667 15.833 79.167 47.5 109.5s70.167 45.5 115.5 45.5s83.833 -15.167 115.5 -45.5s47.5 -66.833 47.5 -109.5s-15.833 -79.167 -47.5 -109.5s-70.167 -45.5 -115.5 -45.5s-83.833 15.167 -115.5 45.5s-47.5 66.833 -47.5 109.5zM81 450
c0 -38.667 14.5 -71.834 43.5 -99.501s64.167 -41.5 105.5 -41.5s76.5 13.833 105.5 41.5s43.5 60.834 43.5 99.501s-14.5 71.834 -43.5 99.501s-64.167 41.5 -105.5 41.5s-76.5 -13.833 -105.5 -41.5s-43.5 -60.834 -43.5 -99.501z" />
    <glyph glyph-name="guillemotright" unicode="&#xbb;" horiz-adv-x="475" 
d="M249 243l-178 -205l-11 10l171 197l-171 198l11 9l178 -205v-4zM395 243l-178 -205l-11 10l171 197l-171 198l11 9l178 -205v-4z" />
    <glyph glyph-name="onequarter" unicode="&#xbc;" horiz-adv-x="847" 
d="M75 16l548 674l10 -8l-547 -675zM47 653l158 72h14v-425h-14v410l-153 -70zM682 0v113h-311v14l311 293h14v-293h102v-14h-102v-113h-14zM391 127h291v274z" />
    <glyph glyph-name="onehalf" unicode="&#xbd;" horiz-adv-x="852" 
d="M75 16l548 674l10 -8l-547 -675zM47 653l158 72h14v-425h-14v410l-153 -70zM484 327l-12 7.00098c29.333 60.667 79.666 91 150.999 91c38.667 0 71 -10.667 97 -32s39 -51 39 -89c0 -26 -5.66699 -50.833 -17 -74.5s-28.666 -46 -51.999 -67s-43.5 -37.667 -60.5 -50
s-40.167 -27.833 -69.5 -46.5l-80 -52h305v-14h-327v14l98 65c62.667 41.333 105.667 73.666 129 96.999c40 41.333 60 84 60 128c0 32.667 -11.167 58.667 -33.5 78s-51.833 29 -88.5 29c-64.667 0 -111 -28 -139 -84z" />
    <glyph glyph-name="threequarters" unicode="&#xbe;" horiz-adv-x="955" 
d="M183 16l548 674l10 -8l-547 -675zM790 0v113h-311v14l311 293h14v-293h102v-14h-102v-113h-14zM499 127h291v274zM79 648l-11.0039 7.99805c26.667 46 77 69 151 69c42.667 0 76.334 -9.33301 101.001 -28s37 -44.334 37 -77.001c0 -26.667 -7.83301 -49.167 -23.5 -67.5
s-36.167 -30.166 -61.5 -35.499c28.667 -2 52.334 -10.667 71.001 -26s28 -39.666 28 -72.999c0 -38.667 -14.667 -68.834 -44 -90.501s-66.666 -32.5 -111.999 -32.5c-82.667 0 -138.667 25.333 -168 76l13 8c24.667 -46.667 76.334 -70 155.001 -70c38.667 0 72 9 100 27
s42 45.333 42 82c0 61.333 -42.667 92 -128 92h-77v14h76c32.667 0 60 8.33301 82 25s33 40.334 33 71.001c0 27.333 -11.333 49.333 -34 66s-52.667 25 -90 25c-34.667 0 -62.667 -4.66699 -84 -14s-40 -25.666 -56 -48.999z" />
    <glyph glyph-name="questiondown" unicode="&#xbf;" horiz-adv-x="577" 
d="M54 -26c0 -46.667 18.834 -83.498 56.501 -110.498s88.5 -40.5 152.5 -40.5c67.333 0 121.666 13.333 162.999 40s67.666 59 78.999 97l12 -9c-10.667 -37.333 -38.5 -70.333 -83.5 -99s-103.167 -43 -174.5 -43c-67.333 0 -120.666 15.333 -159.999 46
s-59 70.334 -59 119.001c0 35.333 9 65.666 27 90.999s39.667 45 65 59s50.833 27.667 76.5 41s47.5 30.666 65.5 51.999s27 47.333 27 78c0 12.667 -1.33301 24.667 -4 36h14c2.66699 -13.333 4 -25.333 4 -36c0 -32 -9 -59.333 -27 -82s-39.833 -40.834 -65.5 -54.501
s-51.167 -27.5 -76.5 -41.5s-47 -33 -65 -57s-27 -52.667 -27 -86zM322.001 498.002c0 -6 -1.6709 -11 -5.00391 -15s-7.66602 -6 -12.999 -6s-9.66602 2 -12.999 6s-5 9 -5 15s1.83301 11.167 5.5 15.5s7.83398 6.5 12.501 6.5s8.83398 -2.16699 12.501 -6.5
s5.5 -9.5 5.5 -15.5z" />
    <glyph glyph-name="Agrave" unicode="&#xc0;" horiz-adv-x="649" 
d="M7 0l311 704h13l311 -704h-15l-105 239h-396l-105 -239h-14zM324 689l-191 -436h383zM341 772l-152 84l7 12l151 -84z" />
    <glyph glyph-name="Aacute" unicode="&#xc1;" horiz-adv-x="649" 
d="M7 0l311 704h13l311 -704h-15l-105 239h-396l-105 -239h-14zM324 689l-191 -436h383zM455 856l-152 -84l-6 12l151 84z" />
    <glyph glyph-name="Acircumflex" unicode="&#xc2;" horiz-adv-x="649" 
d="M7 0l311 704h13l311 -704h-15l-105 239h-396l-105 -239h-14zM324 689l-191 -436h383zM145 785l179 94l179 -94l-7 -12l-172 90l-172 -90z" />
    <glyph glyph-name="Atilde" unicode="&#xc3;" horiz-adv-x="649" 
d="M7 0l311 704h13l311 -704h-15l-105 239h-396l-105 -239h-14zM324 689l-191 -436h383zM162 812l-7.99805 11c29.333 24 57.666 36 84.999 36c20.667 0 49.5 -9.66699 86.5 -29s64.167 -29 81.5 -29c26.667 0 52.667 14 78 42l10 -9
c-27.333 -31.333 -56.666 -47 -87.999 -47c-20 0 -48.333 9.66699 -85 29s-64.334 29 -83.001 29c-24.667 0 -50.334 -11 -77.001 -33z" />
    <glyph glyph-name="Adieresis" unicode="&#xc4;" horiz-adv-x="649" 
d="M7 0l311 704h13l311 -704h-15l-105 239h-396l-105 -239h-14zM324 689l-191 -436h383zM417 818c0 10.667 5.66699 16 17 16c12 0 18 -5.33301 18 -16c0 -10 -6 -15 -18 -15c-11.333 0 -17 5 -17 15zM196 818c0 10.667 5.66699 16 17 16c12 0 18 -5.33301 18 -16
c0 -10 -6 -15 -18 -15c-11.333 0 -17 5 -17 15z" />
    <glyph glyph-name="Aring" unicode="&#xc5;" horiz-adv-x="649" 
d="M7 0l311 704h13l311 -704h-15l-105 239h-396l-105 -239h-14zM324 689l-191 -436h383zM243 803c0 22.667 7.83301 41.834 23.5 57.501s34.834 23.5 57.501 23.5s42 -7.83301 58 -23.5s24 -34.834 24 -57.501s-8 -41.834 -24 -57.501s-35.333 -23.5 -58 -23.5
s-41.834 7.83301 -57.501 23.5s-23.5 34.834 -23.5 57.501zM257 803c0 -18.667 6.5 -34.5 19.5 -47.5s28.833 -19.5 47.5 -19.5s34.667 6.5 48 19.5s20 28.833 20 47.5s-6.66699 34.5 -20 47.5s-29.333 19.5 -48 19.5s-34.5 -6.5 -47.5 -19.5s-19.5 -28.833 -19.5 -47.5z
" />
    <glyph glyph-name="AE" unicode="&#xc6;" horiz-adv-x="1067" 
d="M522 0v239h-328l-176 -239h-18l515 700h481v-14h-460v-323h430v-14h-430v-335h470v-14h-484zM204 253h318v432z" />
    <glyph glyph-name="Ccedilla" unicode="&#xc7;" horiz-adv-x="679" 
d="M314 -177l5 13.002c23.333 -12 46 -18 68 -18c53.333 0 80 18 80 54c0 34 -27.333 51 -82 51h-16v70c-100.667 6.66699 -180 42 -238 106s-87 147.667 -87 251s30.833 189 92.5 257s145.5 102 251.5 102c110 0 193.667 -32.667 251 -98l-7 -10
c-32.667 31.333 -67.5 54.833 -104.5 70.5s-83.5 23.5 -139.5 23.5c-100 0 -180 -32.333 -240 -97s-90 -147.334 -90 -248.001c0 -104.667 31.333 -188.334 94 -251.001s147 -94 253 -94c50 0 95.5 9.5 136.5 28.5s74.833 42.167 101.5 69.5l6 -11
c-22 -27.333 -55.333 -51 -100 -71s-92 -30 -142 -30c-10.667 0 -18.667 0.333008 -24 1v-55c65.333 0 98 -21.667 98 -65c0 -19.333 -7.83301 -35.5 -23.5 -48.5s-39.167 -19.5 -70.5 -19.5c-26.667 0 -51 6.33301 -73 19z" />
    <glyph glyph-name="Egrave" unicode="&#xc8;" horiz-adv-x="631" 
d="M86 0v700h474v-14h-460v-323h430v-14h-430v-335h470v-14h-484zM361 772l-152 84l7 12l151 -84z" />
    <glyph glyph-name="Eacute" unicode="&#xc9;" horiz-adv-x="631" 
d="M86 0v700h474v-14h-460v-323h430v-14h-430v-335h470v-14h-484zM445 856l-152 -84l-6 12l151 84z" />
    <glyph glyph-name="Ecircumflex" unicode="&#xca;" horiz-adv-x="631" 
d="M86 0v700h474v-14h-460v-323h430v-14h-430v-335h470v-14h-484zM153 785l179 94l179 -94l-7 -12l-172 90l-172 -90z" />
    <glyph glyph-name="Edieresis" unicode="&#xcb;" horiz-adv-x="631" 
d="M86 0v700h474v-14h-460v-323h430v-14h-430v-335h470v-14h-484zM419 818c0 10.667 5.66699 16 17 16c12 0 18 -5.33301 18 -16c0 -10 -6 -15 -18 -15c-11.333 0 -17 5 -17 15zM198 818c0 10.667 5.66699 16 17 16c12 0 18 -5.33301 18 -16c0 -10 -6 -15 -18 -15
c-11.333 0 -17 5 -17 15z" />
    <glyph glyph-name="Igrave" unicode="&#xcc;" horiz-adv-x="198" 
d="M92 0v700h14v-700h-14zM142 772l-152 84l7 12l151 -84z" />
    <glyph glyph-name="Iacute" unicode="&#xcd;" horiz-adv-x="198" 
d="M92 0v700h14v-700h-14zM206 856l-152 -84l-6 12l151 84z" />
    <glyph glyph-name="Icircumflex" unicode="&#xce;" horiz-adv-x="198" 
d="M92 0v700h14v-700h-14zM-80 785l179 94l179 -94l-7 -12l-172 90l-172 -90z" />
    <glyph glyph-name="Idieresis" unicode="&#xcf;" horiz-adv-x="198" 
d="M92 0v700h14v-700h-14zM192 818c0 10.667 5.66699 16 17 16c12 0 18 -5.33301 18 -16c0 -10 -6 -15 -18 -15c-11.333 0 -17 5 -17 15zM-29 818c0 10.667 5.66699 16 17 16c12 0 18 -5.33301 18 -16c0 -10 -6 -15 -18 -15c-11.333 0 -17 5 -17 15z" />
    <glyph glyph-name="Eth" unicode="&#xd0;" horiz-adv-x="751" 
d="M1 338l-0.00195312 14.001h133v348h208c124.667 0 216.834 -31.5 276.501 -94.5s89.5 -144.833 89.5 -245.5c0 -106.667 -31.667 -193.334 -95 -260.001s-155.666 -100 -276.999 -100h-202v338h-133zM336.998 686.001h-189.001v-334h227v-14h-227v-324h183
c120.667 0 211.334 32 272.001 96s91 147.333 91 250c0 97.333 -29 176 -87 236s-148 90 -270 90z" />
    <glyph glyph-name="Ntilde" unicode="&#xd1;" horiz-adv-x="733" 
d="M647 0h-14l-533 678v-678h-14v700h14l533 -677v677h14v-700zM204 812l-7.99805 11c29.333 24 57.666 36 84.999 36c20.667 0 49.5 -9.66699 86.5 -29s64.167 -29 81.5 -29c26.667 0 52.667 14 78 42l10 -9c-27.333 -31.333 -56.666 -47 -87.999 -47
c-20 0 -48.333 9.66699 -85 29s-64.334 29 -83.001 29c-24.667 0 -50.334 -11 -77.001 -33z" />
    <glyph glyph-name="Ograve" unicode="&#xd2;" horiz-adv-x="785" 
d="M44 350c0 101.333 33.501 186.5 100.501 255.5s149.5 103.5 247.5 103.5c98.667 0 181.5 -34 248.5 -102s100.5 -153.667 100.5 -257c0 -102 -34 -187.333 -102 -256s-150.333 -103 -247 -103s-178.834 34 -246.501 102s-101.5 153.667 -101.5 257zM58.001 350
c0 -96 32.667 -177.501 98 -244.501s144 -100.5 236 -100.5c95.333 0 175 33.333 239 100s96 148.334 96 245.001c0 97.333 -32.5 179.166 -97.5 245.499s-144.167 99.5 -237.5 99.5s-172.333 -33.167 -237 -99.5s-97 -148.166 -97 -245.499zM411.001 771.999l-152 84l7 12
l151 -84z" />
    <glyph glyph-name="Oacute" unicode="&#xd3;" horiz-adv-x="785" 
d="M44 350c0 101.333 33.501 186.5 100.501 255.5s149.5 103.5 247.5 103.5c98.667 0 181.5 -34 248.5 -102s100.5 -153.667 100.5 -257c0 -102 -34 -187.333 -102 -256s-150.333 -103 -247 -103s-178.834 34 -246.501 102s-101.5 153.667 -101.5 257zM58.001 350
c0 -96 32.667 -177.501 98 -244.501s144 -100.5 236 -100.5c95.333 0 175 33.333 239 100s96 148.334 96 245.001c0 97.333 -32.5 179.166 -97.5 245.499s-144.167 99.5 -237.5 99.5s-172.333 -33.167 -237 -99.5s-97 -148.166 -97 -245.499zM517.001 855.999l-152 -84
l-6 12l151 84z" />
    <glyph glyph-name="Ocircumflex" unicode="&#xd4;" horiz-adv-x="785" 
d="M44 350c0 101.333 33.501 186.5 100.501 255.5s149.5 103.5 247.5 103.5c98.667 0 181.5 -34 248.5 -102s100.5 -153.667 100.5 -257c0 -102 -34 -187.333 -102 -256s-150.333 -103 -247 -103s-178.834 34 -246.501 102s-101.5 153.667 -101.5 257zM58.001 350
c0 -96 32.667 -177.501 98 -244.501s144 -100.5 236 -100.5c95.333 0 175 33.333 239 100s96 148.334 96 245.001c0 97.333 -32.5 179.166 -97.5 245.499s-144.167 99.5 -237.5 99.5s-172.333 -33.167 -237 -99.5s-97 -148.166 -97 -245.499zM213.001 784.999l179 94
l179 -94l-7 -12l-172 90l-172 -90z" />
    <glyph glyph-name="Otilde" unicode="&#xd5;" horiz-adv-x="785" 
d="M44 350c0 101.333 33.501 186.5 100.501 255.5s149.5 103.5 247.5 103.5c98.667 0 181.5 -34 248.5 -102s100.5 -153.667 100.5 -257c0 -102 -34 -187.333 -102 -256s-150.333 -103 -247 -103s-178.834 34 -246.501 102s-101.5 153.667 -101.5 257zM58.001 350
c0 -96 32.667 -177.501 98 -244.501s144 -100.5 236 -100.5c95.333 0 175 33.333 239 100s96 148.334 96 245.001c0 97.333 -32.5 179.166 -97.5 245.499s-144.167 99.5 -237.5 99.5s-172.333 -33.167 -237 -99.5s-97 -148.166 -97 -245.499zM231.001 811.999l-7.99805 11
c29.333 24 57.666 36 84.999 36c20.667 0 49.5 -9.66699 86.5 -29s64.167 -29 81.5 -29c26.667 0 52.667 14 78 42l10 -9c-27.333 -31.333 -56.666 -47 -87.999 -47c-20 0 -48.333 9.66699 -85 29s-64.334 29 -83.001 29c-24.667 0 -50.334 -11 -77.001 -33z" />
    <glyph glyph-name="Odieresis" unicode="&#xd6;" horiz-adv-x="785" 
d="M44 350c0 101.333 33.501 186.5 100.501 255.5s149.5 103.5 247.5 103.5c98.667 0 181.5 -34 248.5 -102s100.5 -153.667 100.5 -257c0 -102 -34 -187.333 -102 -256s-150.333 -103 -247 -103s-178.834 34 -246.501 102s-101.5 153.667 -101.5 257zM58.001 350
c0 -96 32.667 -177.501 98 -244.501s144 -100.5 236 -100.5c95.333 0 175 33.333 239 100s96 148.334 96 245.001c0 97.333 -32.5 179.166 -97.5 245.499s-144.167 99.5 -237.5 99.5s-172.333 -33.167 -237 -99.5s-97 -148.166 -97 -245.499zM485.001 817.999
c0 10.667 5.66699 16 17 16c12 0 18 -5.33301 18 -16c0 -10 -6 -15 -18 -15c-11.333 0 -17 5 -17 15zM264.001 817.999c0 10.667 5.66699 16 17 16c12 0 18 -5.33301 18 -16c0 -10 -6 -15 -18 -15c-11.333 0 -17 5 -17 15z" />
    <glyph glyph-name="multiply" unicode="&#xd7;" horiz-adv-x="582" 
d="M144 516l147 -148l148 148l10 -10l-148 -148l148 -147l-10 -10l-148 147l-147 -147l-10 10l147 147l-147 148z" />
    <glyph glyph-name="Oslash" unicode="&#xd8;" horiz-adv-x="785" 
d="M111 14l51 63c-78.667 70 -118 161 -118 273c0 101.333 33.5 186.5 100.5 255.5s149.5 103.5 247.5 103.5c83.333 0 157 -26 221 -78l46 57l10 -8l-46 -57c78.667 -70 118 -161 118 -273c0 -102 -34 -187.333 -102 -256s-150.333 -103 -247 -103
c-83.333 0 -156.333 25.667 -219 77l-51 -63zM58 350c0 -105.333 38 -192.334 114 -261.001l431 530c-60 50.667 -130.333 76 -211 76c-93.333 0 -172.333 -33.167 -237 -99.5s-97 -148.166 -97 -245.499zM727 349.999c0 106.667 -38.001 193.666 -114.001 260.999
l-430 -531c60.667 -50 130.334 -75 209.001 -75c95.333 0 175 33.333 239 100s96 148.334 96 245.001z" />
    <glyph glyph-name="Ugrave" unicode="&#xd9;" horiz-adv-x="702" 
d="M633 700l-0.000976562 -409.999c0 -99.333 -26.833 -173.833 -80.5 -223.5s-119.5 -74.5 -197.5 -74.5c-82 0 -150.167 26.667 -204.5 80s-81.5 128.666 -81.5 225.999v402h14v-397c0 -52 7.83301 -97.833 23.5 -137.5s36.667 -70.667 63 -93s55 -39 86 -50
s64.167 -16.5 99.5 -16.5c80.667 0 144.834 25.167 192.501 75.5s71.5 121.5 71.5 213.5v405h14zM373.999 772.001l-152 84l7 12l151 -84z" />
    <glyph glyph-name="Uacute" unicode="&#xda;" horiz-adv-x="702" 
d="M633 700l-0.000976562 -409.999c0 -99.333 -26.833 -173.833 -80.5 -223.5s-119.5 -74.5 -197.5 -74.5c-82 0 -150.167 26.667 -204.5 80s-81.5 128.666 -81.5 225.999v402h14v-397c0 -52 7.83301 -97.833 23.5 -137.5s36.667 -70.667 63 -93s55 -39 86 -50
s64.167 -16.5 99.5 -16.5c80.667 0 144.834 25.167 192.501 75.5s71.5 121.5 71.5 213.5v405h14zM479.999 856.001l-152 -84l-6 12l151 84z" />
    <glyph glyph-name="Ucircumflex" unicode="&#xdb;" horiz-adv-x="702" 
d="M633 700l-0.000976562 -409.999c0 -99.333 -26.833 -173.833 -80.5 -223.5s-119.5 -74.5 -197.5 -74.5c-82 0 -150.167 26.667 -204.5 80s-81.5 128.666 -81.5 225.999v402h14v-397c0 -52 7.83301 -97.833 23.5 -137.5s36.667 -70.667 63 -93s55 -39 86 -50
s64.167 -16.5 99.5 -16.5c80.667 0 144.834 25.167 192.501 75.5s71.5 121.5 71.5 213.5v405h14zM170.999 785.001l179 94l179 -94l-7 -12l-172 90l-172 -90z" />
    <glyph glyph-name="Udieresis" unicode="&#xdc;" horiz-adv-x="702" 
d="M633 700l-0.000976562 -409.999c0 -99.333 -26.833 -173.833 -80.5 -223.5s-119.5 -74.5 -197.5 -74.5c-82 0 -150.167 26.667 -204.5 80s-81.5 128.666 -81.5 225.999v402h14v-397c0 -52 7.83301 -97.833 23.5 -137.5s36.667 -70.667 63 -93s55 -39 86 -50
s64.167 -16.5 99.5 -16.5c80.667 0 144.834 25.167 192.501 75.5s71.5 121.5 71.5 213.5v405h14zM442.999 818.001c0 10.667 5.66699 16 17 16c12 0 18 -5.33301 18 -16c0 -10 -6 -15 -18 -15c-11.333 0 -17 5 -17 15zM221.999 818.001c0 10.667 5.66699 16 17 16
c12 0 18 -5.33301 18 -16c0 -10 -6 -15 -18 -15c-11.333 0 -17 5 -17 15z" />
    <glyph glyph-name="Yacute" unicode="&#xdd;" horiz-adv-x="582" 
d="M578 700l-280 -391v-309h-14v309l-280 391h18l269 -376l269 376h18zM423 856l-152 -84l-6 12l151 84z" />
    <glyph glyph-name="Thorn" unicode="&#xde;" horiz-adv-x="644" 
d="M100 0l-14.001 -0.00195312v700h14v-128h225c55.333 0 101.833 -5.16699 139.5 -15.5s66 -25.166 85 -44.499s32.167 -39.5 39.5 -60.5s11 -45.167 11 -72.5c0 -61.333 -21.667 -110.666 -65 -147.999s-113.666 -56 -210.999 -56h-224v-175zM330.999 557.998h-231.001
v-369h222c176 0 264 63.667 264 191c0 58 -19.667 102.167 -59 132.5s-104.666 45.5 -195.999 45.5z" />
    <glyph glyph-name="germandbls" unicode="&#xdf;" horiz-adv-x="544" 
d="M270 738c57.333 0 103.5 -17 138.5 -51s52.5 -79.667 52.5 -137c0 -49.333 -12.667 -90.833 -38 -124.5s-61.666 -56.5 -108.999 -68.5c55.333 -2 99.833 -17.833 133.5 -47.5s50.5 -71.5 50.5 -125.5c0 -55.333 -19.5 -101.166 -58.5 -137.499
s-92.833 -54.5 -161.5 -54.5c-55.333 0 -98.333 8.66699 -129 26l6 15c28.667 -18 69.667 -27 123 -27c60 0 109.333 15.833 148 47.5s58 75.167 58 130.5c0 109.333 -72.667 164 -218 164h-77v14h67c56.667 0 102.667 17.5 138 52.5s53 80.167 53 135.5
c0 50 -15.333 91.5 -46 124.5s-74.334 49.5 -131.001 49.5c-118 0 -177 -67 -177 -201v-523h-14v524c0 41.333 5.5 76.666 16.5 105.999s26 51.5 45 66.5s39 25.667 60 32s44.167 9.5 69.5 9.5z" />
    <glyph glyph-name="agrave" unicode="&#xe0;" horiz-adv-x="532" 
d="M83 452l-12 11.002c22 20 50.667 36.833 86 50.5s67 20.5 95 20.5c143.333 0 215 -68.333 215 -205v-329h-14v131c-48 -92 -125.333 -138 -232 -138c-55.333 0 -100 13.667 -134 41s-51 64.666 -51 111.999s19.833 83.166 59.5 107.499s94.5 36.5 164.5 36.5
c30 0 65.833 -2.16699 107.5 -6.5s70.167 -8.83301 85.5 -13.5v51c0 132.667 -67.667 199 -203 199c-59.333 0 -115 -22.667 -167 -68zM224 7.00195c60.667 0 110.501 16.333 149.501 49s65.5 67 79.5 103v97c-50.667 13.333 -116 20 -196 20
c-64 0 -114.5 -10.667 -151.5 -32s-55.5 -54.333 -55.5 -99c0 -42 16.667 -75.5 50 -100.5s74.666 -37.5 123.999 -37.5zM269.001 631.002l-104 138l11 8l104 -138z" />
    <glyph glyph-name="aacute" unicode="&#xe1;" horiz-adv-x="532" 
d="M83 452l-12 11.002c22 20 50.667 36.833 86 50.5s67 20.5 95 20.5c143.333 0 215 -68.333 215 -205v-329h-14v131c-48 -92 -125.333 -138 -232 -138c-55.333 0 -100 13.667 -134 41s-51 64.666 -51 111.999s19.833 83.166 59.5 107.499s94.5 36.5 164.5 36.5
c30 0 65.833 -2.16699 107.5 -6.5s70.167 -8.83301 85.5 -13.5v51c0 132.667 -67.667 199 -203 199c-59.333 0 -115 -22.667 -167 -68zM224 7.00195c60.667 0 110.501 16.333 149.501 49s65.5 67 79.5 103v97c-50.667 13.333 -116 20 -196 20
c-64 0 -114.5 -10.667 -151.5 -32s-55.5 -54.333 -55.5 -99c0 -42 16.667 -75.5 50 -100.5s74.666 -37.5 123.999 -37.5zM367.001 769.002l-104 -138l-11 8l104 138z" />
    <glyph glyph-name="acircumflex" unicode="&#xe2;" horiz-adv-x="532" 
d="M83 452l-12 11.002c22 20 50.667 36.833 86 50.5s67 20.5 95 20.5c143.333 0 215 -68.333 215 -205v-329h-14v131c-48 -92 -125.333 -138 -232 -138c-55.333 0 -100 13.667 -134 41s-51 64.666 -51 111.999s19.833 83.166 59.5 107.499s94.5 36.5 164.5 36.5
c30 0 65.833 -2.16699 107.5 -6.5s70.167 -8.83301 85.5 -13.5v51c0 132.667 -67.667 199 -203 199c-59.333 0 -115 -22.667 -167 -68zM224 7.00195c60.667 0 110.501 16.333 149.501 49s65.5 67 79.5 103v97c-50.667 13.333 -116 20 -196 20
c-64 0 -114.5 -10.667 -151.5 -32s-55.5 -54.333 -55.5 -99c0 -42 16.667 -75.5 50 -100.5s74.666 -37.5 123.999 -37.5zM148.001 646.002l-10 10l126 117l126 -117l-10 -10l-116 107z" />
    <glyph glyph-name="atilde" unicode="&#xe3;" horiz-adv-x="532" 
d="M83 452l-12 11.002c22 20 50.667 36.833 86 50.5s67 20.5 95 20.5c143.333 0 215 -68.333 215 -205v-329h-14v131c-48 -92 -125.333 -138 -232 -138c-55.333 0 -100 13.667 -134 41s-51 64.666 -51 111.999s19.833 83.166 59.5 107.499s94.5 36.5 164.5 36.5
c30 0 65.833 -2.16699 107.5 -6.5s70.167 -8.83301 85.5 -13.5v51c0 132.667 -67.667 199 -203 199c-59.333 0 -115 -22.667 -167 -68zM224 7.00195c60.667 0 110.501 16.333 149.501 49s65.5 67 79.5 103v97c-50.667 13.333 -116 20 -196 20
c-64 0 -114.5 -10.667 -151.5 -32s-55.5 -54.333 -55.5 -99c0 -42 16.667 -75.5 50 -100.5s74.666 -37.5 123.999 -37.5zM127.001 654.002l-7.99902 9.00098c32.667 31.333 62.334 47 89.001 47c14.667 0 36.334 -9.33301 65.001 -28s50 -28 64 -28
c23.333 0 45 13.667 65 41l10 -8c-24 -31.333 -49.333 -47 -76 -47c-14.667 0 -36.334 9.33301 -65.001 28s-50 28 -64 28c-10 0 -19.833 -2 -29.5 -6s-17.334 -8.33301 -23.001 -13s-14.834 -12.334 -27.501 -23.001z" />
    <glyph glyph-name="adieresis" unicode="&#xe4;" horiz-adv-x="532" 
d="M83 452l-12 11.002c22 20 50.667 36.833 86 50.5s67 20.5 95 20.5c143.333 0 215 -68.333 215 -205v-329h-14v131c-48 -92 -125.333 -138 -232 -138c-55.333 0 -100 13.667 -134 41s-51 64.666 -51 111.999s19.833 83.166 59.5 107.499s94.5 36.5 164.5 36.5
c30 0 65.833 -2.16699 107.5 -6.5s70.167 -8.83301 85.5 -13.5v51c0 132.667 -67.667 199 -203 199c-59.333 0 -115 -22.667 -167 -68zM224 7.00195c60.667 0 110.501 16.333 149.501 49s65.5 67 79.5 103v97c-50.667 13.333 -116 20 -196 20
c-64 0 -114.5 -10.667 -151.5 -32s-55.5 -54.333 -55.5 -99c0 -42 16.667 -75.5 50 -100.5s74.666 -37.5 123.999 -37.5zM364.001 707.002c0 6 1.8291 11.167 5.49609 15.5s7.83398 6.5 12.501 6.5s8.83398 -2.16699 12.501 -6.5s5.5 -9.5 5.5 -15.5s-1.66699 -11 -5 -15
s-7.66602 -6 -12.999 -6s-9.66602 2 -12.999 6s-5 9 -5 15zM104.997 707.002c0 6 1.8291 11.167 5.49609 15.5s7.83398 6.5 12.501 6.5s8.83398 -2.16699 12.501 -6.5s5.5 -9.5 5.5 -15.5s-1.66699 -11 -5 -15s-7.66602 -6 -12.999 -6s-9.66602 2 -12.999 6s-5 9 -5 15z" />
    <glyph glyph-name="aring" unicode="&#xe5;" horiz-adv-x="532" 
d="M83 452l-12 11.002c22 20 50.667 36.833 86 50.5s67 20.5 95 20.5c143.333 0 215 -68.333 215 -205v-329h-14v131c-48 -92 -125.333 -138 -232 -138c-55.333 0 -100 13.667 -134 41s-51 64.666 -51 111.999s19.833 83.166 59.5 107.499s94.5 36.5 164.5 36.5
c30 0 65.833 -2.16699 107.5 -6.5s70.167 -8.83301 85.5 -13.5v51c0 132.667 -67.667 199 -203 199c-59.333 0 -115 -22.667 -167 -68zM224 7.00195c60.667 0 110.501 16.333 149.501 49s65.5 67 79.5 103v97c-50.667 13.333 -116 20 -196 20
c-64 0 -114.5 -10.667 -151.5 -32s-55.5 -54.333 -55.5 -99c0 -42 16.667 -75.5 50 -100.5s74.666 -37.5 123.999 -37.5zM190.001 701.002c0 22 7.33301 40.667 22 56s32.334 23 53.001 23c21.333 0 39.333 -7.66699 54 -23s22 -34 22 -56s-7.33301 -40.667 -22 -56
s-32.667 -23 -54 -23c-20.667 0 -38.334 7.66699 -53.001 23s-22 34 -22 56zM204.001 701.002c0 -18 6 -33.333 18 -46s26.333 -19 43 -19c17.333 0 32 6.33301 44 19s18 28 18 46s-6 33.333 -18 46s-26.667 19 -44 19c-16.667 0 -31 -6.33301 -43 -19s-18 -28 -18 -46z" />
    <glyph glyph-name="ae" unicode="&#xe6;" horiz-adv-x="986" 
d="M911 94l7.99805 -9.99902c-17.333 -28.667 -44 -51.667 -80 -69s-74.333 -26 -115 -26c-64 0 -118.5 15.667 -163.5 47s-75.833 74.666 -92.5 129.999c-16.667 -51.333 -47.167 -93 -91.5 -125s-97.5 -48 -159.5 -48c-51.333 0 -94 14 -128 42s-51 63.667 -51 107
c0 96.667 87.333 145 262 145c64.667 0 116.334 -5 155.001 -15v50c0 40 -6.16699 74 -18.5 102s-29 48.5 -50 61.5s-41.5 22 -61.5 27s-41.333 7.5 -64 7.5c-64.667 0 -123.334 -22.667 -176.001 -68l-12 11c58 47.333 121 71 189 71c61.333 0 109.833 -15.167 145.5 -45.5
s55.834 -75.5 60.501 -135.5c16 55.333 45.833 99.333 89.5 132s97.834 49 162.501 49c66 0 120.167 -21.667 162.5 -65s63.5 -99.666 63.5 -168.999c0 -16.667 -0.666992 -28.334 -2 -35.001h-475v-24c2.66699 -73.333 27.5 -131.333 74.5 -174s108.167 -64 183.5 -64
c38 0 73.5 8.66699 106.5 26s58.833 39 77.5 65zM713.998 520.001c-72 0 -129.999 -23 -173.999 -69s-67.667 -103.333 -71 -172h463c1.33301 74.667 -17.334 133.5 -56.001 176.5s-92.667 64.5 -162 64.5zM216.999 7.00098c66 0 120 17.668 162 53.001
s67.333 75.666 76 120.999v75c-43.333 11.333 -95 17 -155 17c-165.333 0 -248 -44.333 -248 -133c0 -38 15.5 -69.667 46.5 -95s70.5 -38 118.5 -38z" />
    <glyph glyph-name="ccedilla" unicode="&#xe7;" horiz-adv-x="524" 
d="M236 -177l4.99902 13c23.333 -12 46 -18 68 -18c53.333 0 80 18 80 54c0 34 -27.333 51 -82 51h-16v67c-76 5.33301 -136.833 32.333 -182.5 81s-68.5 112 -68.5 190s24.833 143 74.5 195s115.167 78 196.5 78c80.667 0 140.334 -26 179.001 -78l-9 -10
c-42.667 49.333 -100 74 -172 74c-72.667 0 -133.334 -24.667 -182.001 -74s-73 -111 -73 -185c0 -80 23.833 -143 71.5 -189s109.834 -69 186.501 -69c37.333 0 73 7 107 21s59.667 33.333 77 58l8 -10c-18.667 -26 -45 -46.333 -79 -61s-71 -22 -111 -22h-9v-52
c65.333 0 98 -21.667 98 -65c0 -19.333 -7.83301 -35.5 -23.5 -48.5s-39.167 -19.5 -70.5 -19.5c-26.667 0 -51 6.33301 -73 19z" />
    <glyph glyph-name="egrave" unicode="&#xe8;" horiz-adv-x="571" 
d="M506 94l7.99902 -9.99902c-17.333 -28 -45.5 -50.833 -84.5 -68.5s-79.167 -26.5 -120.5 -26.5c-81.333 0 -146.5 24.667 -195.5 74s-73.5 115.333 -73.5 198c0 79.333 23.667 144.666 71 195.999s112 77 194 77c66 0 120.167 -21.667 162.5 -65
s63.5 -99.666 63.5 -168.999c0 -16.667 -0.666992 -28.334 -2 -35.001h-475c0 -79.333 23.333 -142.833 70 -190.5s109.334 -71.5 188.001 -71.5c40 0 78 8.33301 114 25s62.667 38.667 80 66zM298.999 520.001c-72 0 -129.999 -23 -173.999 -69s-67.667 -103.333 -71 -172
h463c1.33301 74.667 -17.334 133.5 -56.001 176.5s-92.667 64.5 -162 64.5zM311 631.001l-104 138l11 8l104 -138z" />
    <glyph glyph-name="eacute" unicode="&#xe9;" horiz-adv-x="571" 
d="M506 94l7.99902 -9.99902c-17.333 -28 -45.5 -50.833 -84.5 -68.5s-79.167 -26.5 -120.5 -26.5c-81.333 0 -146.5 24.667 -195.5 74s-73.5 115.333 -73.5 198c0 79.333 23.667 144.666 71 195.999s112 77 194 77c66 0 120.167 -21.667 162.5 -65
s63.5 -99.666 63.5 -168.999c0 -16.667 -0.666992 -28.334 -2 -35.001h-475c0 -79.333 23.333 -142.833 70 -190.5s109.334 -71.5 188.001 -71.5c40 0 78 8.33301 114 25s62.667 38.667 80 66zM298.999 520.001c-72 0 -129.999 -23 -173.999 -69s-67.667 -103.333 -71 -172
h463c1.33301 74.667 -17.334 133.5 -56.001 176.5s-92.667 64.5 -162 64.5zM386 769.001l-104 -138l-11 8l104 138z" />
    <glyph glyph-name="ecircumflex" unicode="&#xea;" horiz-adv-x="571" 
d="M506 94l7.99902 -9.99902c-17.333 -28 -45.5 -50.833 -84.5 -68.5s-79.167 -26.5 -120.5 -26.5c-81.333 0 -146.5 24.667 -195.5 74s-73.5 115.333 -73.5 198c0 79.333 23.667 144.666 71 195.999s112 77 194 77c66 0 120.167 -21.667 162.5 -65
s63.5 -99.666 63.5 -168.999c0 -16.667 -0.666992 -28.334 -2 -35.001h-475c0 -79.333 23.333 -142.833 70 -190.5s109.334 -71.5 188.001 -71.5c40 0 78 8.33301 114 25s62.667 38.667 80 66zM298.999 520.001c-72 0 -129.999 -23 -173.999 -69s-67.667 -103.333 -71 -172
h463c1.33301 74.667 -17.334 133.5 -56.001 176.5s-92.667 64.5 -162 64.5zM192 646.001l-10 10l126 117l126 -117l-10 -10l-116 107z" />
    <glyph glyph-name="edieresis" unicode="&#xeb;" horiz-adv-x="571" 
d="M506 94l7.99902 -9.99902c-17.333 -28 -45.5 -50.833 -84.5 -68.5s-79.167 -26.5 -120.5 -26.5c-81.333 0 -146.5 24.667 -195.5 74s-73.5 115.333 -73.5 198c0 79.333 23.667 144.666 71 195.999s112 77 194 77c66 0 120.167 -21.667 162.5 -65
s63.5 -99.666 63.5 -168.999c0 -16.667 -0.666992 -28.334 -2 -35.001h-475c0 -79.333 23.333 -142.833 70 -190.5s109.334 -71.5 188.001 -71.5c40 0 78 8.33301 114 25s62.667 38.667 80 66zM298.999 520.001c-72 0 -129.999 -23 -173.999 -69s-67.667 -103.333 -71 -172
h463c1.33301 74.667 -17.334 133.5 -56.001 176.5s-92.667 64.5 -162 64.5zM397 707.001c0 6 1.8291 11.167 5.49609 15.5s7.83398 6.5 12.501 6.5s8.83398 -2.16699 12.501 -6.5s5.5 -9.5 5.5 -15.5s-1.66699 -11 -5 -15s-7.66602 -6 -12.999 -6s-9.66602 2 -12.999 6
s-5 9 -5 15zM137.996 707.001c0 6 1.8291 11.167 5.49609 15.5s7.83398 6.5 12.501 6.5s8.83398 -2.16699 12.501 -6.5s5.5 -9.5 5.5 -15.5s-1.66699 -11 -5 -15s-7.66602 -6 -12.999 -6s-9.66602 2 -12.999 6s-5 9 -5 15z" />
    <glyph glyph-name="igrave" unicode="&#xec;" horiz-adv-x="208" 
d="M97 0v520h14v-520h-14zM117 631l-104 138l11 8l104 -138z" />
    <glyph glyph-name="iacute" unicode="&#xed;" horiz-adv-x="208" 
d="M97 0v520h14v-520h-14zM195 769l-104 -138l-11 8l104 138z" />
    <glyph glyph-name="icircumflex" unicode="&#xee;" horiz-adv-x="208" 
d="M97 0v520h14v-520h-14zM-14 646l-10 10l126 117l126 -117l-10 -10l-116 107z" />
    <glyph glyph-name="idieresis" unicode="&#xef;" horiz-adv-x="208" 
d="M97 0v520h14v-520h-14zM216 707c0 6 1.8291 11.167 5.49609 15.5s7.83398 6.5 12.501 6.5s8.83398 -2.16699 12.501 -6.5s5.5 -9.5 5.5 -15.5s-1.66699 -11 -5 -15s-7.66602 -6 -12.999 -6s-9.66602 2 -12.999 6s-5 9 -5 15zM-43.0039 707
c0 6 1.8291 11.167 5.49609 15.5s7.83398 6.5 12.501 6.5s8.83398 -2.16699 12.501 -6.5s5.5 -9.5 5.5 -15.5s-1.66699 -11 -5 -15s-7.66602 -6 -12.999 -6s-9.66602 2 -12.999 6s-5 9 -5 15z" />
    <glyph glyph-name="eth" unicode="&#xf0;" horiz-adv-x="618" 
d="M247 603l43.999 95.999c-44.667 14 -91 22.333 -139 25l4 14c55.333 -5.33301 102.333 -14 141 -26l36 79l13 -6l-36 -77c50.667 -16.667 94 -39.667 130 -69c92 -73.333 138 -189.666 138 -348.999c0 -86.667 -25 -158.5 -75 -215.5s-114.667 -85.5 -194 -85.5
c-80.667 0 -145.667 25.5 -195 76.5s-74 116.167 -74 195.5c0 78 25.667 141.333 77 190s116.333 73 195 73c46.667 0 91.834 -10.333 135.501 -31s79.5 -49.667 107.5 -87c-6 44 -20.667 86.333 -44 127s-52.333 74.334 -87 101.001c-34 25.333 -74 45.666 -120 60.999
l-44 -97zM53.999 260.999c0 -76 23.8311 -137.999 71.498 -185.999s108.5 -72 182.5 -72c78.667 0 141 27.833 187 83.5s69 124.5 69 206.5c0 42.667 -3.66699 74 -11 94c-24.667 35.333 -57.667 64.666 -99 87.999s-88.666 35 -141.999 35
c-75.333 0 -137.166 -23 -185.499 -69s-72.5 -106 -72.5 -180z" />
    <glyph glyph-name="ntilde" unicode="&#xf1;" horiz-adv-x="598" 
d="M80 0v520h14v-120c18.667 40 48 72.167 88 96.5s81.667 36.5 125 36.5c71.333 0 126.666 -19.167 165.999 -57.5s59 -96.833 59 -175.5v-300h-14v290c0 152.667 -70.333 229 -211 229c-44 0 -85.167 -12.5 -123.5 -37.5s-68.166 -60.833 -89.499 -107.5v-374h-14z
M161 654l-7.99902 9.00098c32.667 31.333 62.334 47 89.001 47c14.667 0 36.334 -9.33301 65.001 -28s50 -28 64 -28c23.333 0 45 13.667 65 41l10 -8c-24 -31.333 -49.333 -47 -76 -47c-14.667 0 -36.334 9.33301 -65.001 28s-50 28 -64 28c-10 0 -19.833 -2 -29.5 -6
s-17.334 -8.33301 -23.001 -13s-14.834 -12.334 -27.501 -23.001z" />
    <glyph glyph-name="ograve" unicode="&#xf2;" horiz-adv-x="618" 
d="M40 261c0 80.667 25 146.334 75 197.001s114.667 76 194 76s144 -25.333 194 -76s75 -116.334 75 -197.001s-25 -146.167 -75 -196.5s-114.667 -75.5 -194 -75.5s-144 25.167 -194 75.5s-75 115.833 -75 196.5zM54 260c0 -74.667 23.667 -136.167 71 -184.5
s108.666 -72.5 183.999 -72.5s136.666 24.167 183.999 72.5s71 109.833 71 184.5c0 76.667 -23.667 139.167 -71 187.5s-108.666 72.5 -183.999 72.5s-136.666 -24.167 -183.999 -72.5s-71 -110.833 -71 -187.5zM342 631l-104 138l11 8l104 -138z" />
    <glyph glyph-name="oacute" unicode="&#xf3;" horiz-adv-x="618" 
d="M40 261c0 80.667 25 146.334 75 197.001s114.667 76 194 76s144 -25.333 194 -76s75 -116.334 75 -197.001s-25 -146.167 -75 -196.5s-114.667 -75.5 -194 -75.5s-144 25.167 -194 75.5s-75 115.833 -75 196.5zM54 260c0 -74.667 23.667 -136.167 71 -184.5
s108.666 -72.5 183.999 -72.5s136.666 24.167 183.999 72.5s71 109.833 71 184.5c0 76.667 -23.667 139.167 -71 187.5s-108.666 72.5 -183.999 72.5s-136.666 -24.167 -183.999 -72.5s-71 -110.833 -71 -187.5zM383 769l-104 -138l-11 8l104 138z" />
    <glyph glyph-name="ocircumflex" unicode="&#xf4;" horiz-adv-x="618" 
d="M40 261c0 80.667 25 146.334 75 197.001s114.667 76 194 76s144 -25.333 194 -76s75 -116.334 75 -197.001s-25 -146.167 -75 -196.5s-114.667 -75.5 -194 -75.5s-144 25.167 -194 75.5s-75 115.833 -75 196.5zM54 260c0 -74.667 23.667 -136.167 71 -184.5
s108.666 -72.5 183.999 -72.5s136.666 24.167 183.999 72.5s71 109.833 71 184.5c0 76.667 -23.667 139.167 -71 187.5s-108.666 72.5 -183.999 72.5s-136.666 -24.167 -183.999 -72.5s-71 -110.833 -71 -187.5zM191 646l-10 10l126 117l126 -117l-10 -10l-116 107z" />
    <glyph glyph-name="otilde" unicode="&#xf5;" horiz-adv-x="618" 
d="M40 261c0 80.667 25 146.334 75 197.001s114.667 76 194 76s144 -25.333 194 -76s75 -116.334 75 -197.001s-25 -146.167 -75 -196.5s-114.667 -75.5 -194 -75.5s-144 25.167 -194 75.5s-75 115.833 -75 196.5zM54 260c0 -74.667 23.667 -136.167 71 -184.5
s108.666 -72.5 183.999 -72.5s136.666 24.167 183.999 72.5s71 109.833 71 184.5c0 76.667 -23.667 139.167 -71 187.5s-108.666 72.5 -183.999 72.5s-136.666 -24.167 -183.999 -72.5s-71 -110.833 -71 -187.5zM170 654l-7.99902 9.00098
c32.667 31.333 62.334 47 89.001 47c14 0 35.333 -9.33301 64 -28s50.334 -28 65.001 -28c23.333 0 45 13.667 65 41l10 -8c-24 -31.333 -49.333 -47 -76 -47c-14.667 0 -36.334 9.33301 -65.001 28s-50 28 -64 28c-10 0 -19.833 -2 -29.5 -6s-17.334 -8.33301 -23.001 -13
s-14.834 -12.334 -27.501 -23.001z" />
    <glyph glyph-name="odieresis" unicode="&#xf6;" horiz-adv-x="618" 
d="M40 261c0 80.667 25 146.334 75 197.001s114.667 76 194 76s144 -25.333 194 -76s75 -116.334 75 -197.001s-25 -146.167 -75 -196.5s-114.667 -75.5 -194 -75.5s-144 25.167 -194 75.5s-75 115.833 -75 196.5zM54 260c0 -74.667 23.667 -136.167 71 -184.5
s108.666 -72.5 183.999 -72.5s136.666 24.167 183.999 72.5s71 109.833 71 184.5c0 76.667 -23.667 139.167 -71 187.5s-108.666 72.5 -183.999 72.5s-136.666 -24.167 -183.999 -72.5s-71 -110.833 -71 -187.5zM420 707c0 6 1.8291 11.167 5.49609 15.5
s7.83398 6.5 12.501 6.5s8.83398 -2.16699 12.501 -6.5s5.5 -9.5 5.5 -15.5s-1.66699 -11 -5 -15s-7.66602 -6 -12.999 -6s-9.66602 2 -12.999 6s-5 9 -5 15zM160.996 707c0 6 1.8291 11.167 5.49609 15.5s7.83398 6.5 12.501 6.5s8.83398 -2.16699 12.501 -6.5
s5.5 -9.5 5.5 -15.5s-1.66699 -11 -5 -15s-7.66602 -6 -12.999 -6s-9.66602 2 -12.999 6s-5 9 -5 15z" />
    <glyph glyph-name="divide" unicode="&#xf7;" horiz-adv-x="600" 
d="M88 353v14h426v-14h-426zM285 560c0 4.66699 1.5 8.83398 4.5 12.501s6.5 5.5 10.5 5.5s7.5 -1.83301 10.5 -5.5s4.5 -7.83398 4.5 -12.501s-1.5 -8.83398 -4.5 -12.501s-6.5 -5.5 -10.5 -5.5s-7.5 1.83301 -10.5 5.5s-4.5 7.83398 -4.5 12.501zM285 160
c0 4.66699 1.5 8.83398 4.5 12.501s6.5 5.5 10.5 5.5s7.5 -1.83301 10.5 -5.5s4.5 -7.83398 4.5 -12.501s-1.5 -8.83398 -4.5 -12.501s-6.5 -5.5 -10.5 -5.5s-7.5 1.83301 -10.5 5.5s-4.5 7.83398 -4.5 12.501z" />
    <glyph glyph-name="oslash" unicode="&#xf8;" horiz-adv-x="618" 
d="M40 261c0 80.667 25 146.333 75 197s114.667 76 194 76c64.667 0 120 -17.333 166 -52l76 93l11 -9l-76 -93c61.333 -52 92 -122.667 92 -212c0 -80.667 -25 -146.167 -75 -196.5s-114.667 -75.5 -194 -75.5c-66.667 0 -123.667 18.333 -171 55l-61 -76l-11 9l61 76
c-58 50.667 -87 120 -87 208zM564 259.999c0 86 -28.999 153.333 -86.999 202l-329 -407c44 -34.667 97.667 -52 161 -52c75.333 0 136.666 24.167 183.999 72.5s71 109.833 71 184.5zM54.001 259.999c0 -82 27.666 -147.333 82.999 -196l329 407
c-44 32.667 -96.333 49 -157 49c-75.333 0 -136.666 -24.167 -183.999 -72.5s-71 -110.833 -71 -187.5z" />
    <glyph glyph-name="ugrave" unicode="&#xf9;" horiz-adv-x="589" 
d="M509 523v-523h-14v122c-18 -42.667 -46.167 -75.5 -84.5 -98.5s-82.5 -34.5 -132.5 -34.5c-66.667 0 -118.667 18.833 -156 56.5s-56 94.5 -56 170.5v307h14v-303c0 -144.667 66 -217 198 -217c108.667 0 181 50.333 217 151v369h14zM321 631l-104 138l11 8l104 -138z
" />
    <glyph glyph-name="uacute" unicode="&#xfa;" horiz-adv-x="589" 
d="M509 523v-523h-14v122c-18 -42.667 -46.167 -75.5 -84.5 -98.5s-82.5 -34.5 -132.5 -34.5c-66.667 0 -118.667 18.833 -156 56.5s-56 94.5 -56 170.5v307h14v-303c0 -144.667 66 -217 198 -217c108.667 0 181 50.333 217 151v369h14zM372 769l-104 -138l-11 8l104 138z
" />
    <glyph glyph-name="ucircumflex" unicode="&#xfb;" horiz-adv-x="589" 
d="M509 523v-523h-14v122c-18 -42.667 -46.167 -75.5 -84.5 -98.5s-82.5 -34.5 -132.5 -34.5c-66.667 0 -118.667 18.833 -156 56.5s-56 94.5 -56 170.5v307h14v-303c0 -144.667 66 -217 198 -217c108.667 0 181 50.333 217 151v369h14zM176 646l-10 10l126 117l126 -117
l-10 -10l-116 107z" />
    <glyph glyph-name="udieresis" unicode="&#xfc;" horiz-adv-x="589" 
d="M509 523v-523h-14v122c-18 -42.667 -46.167 -75.5 -84.5 -98.5s-82.5 -34.5 -132.5 -34.5c-66.667 0 -118.667 18.833 -156 56.5s-56 94.5 -56 170.5v307h14v-303c0 -144.667 66 -217 198 -217c108.667 0 181 50.333 217 151v369h14zM392 707
c0 6 1.8291 11.167 5.49609 15.5s7.83398 6.5 12.501 6.5s8.83398 -2.16699 12.501 -6.5s5.5 -9.5 5.5 -15.5s-1.66699 -11 -5 -15s-7.66602 -6 -12.999 -6s-9.66602 2 -12.999 6s-5 9 -5 15zM132.996 707c0 6 1.8291 11.167 5.49609 15.5s7.83398 6.5 12.501 6.5
s8.83398 -2.16699 12.501 -6.5s5.5 -9.5 5.5 -15.5s-1.66699 -11 -5 -15s-7.66602 -6 -12.999 -6s-9.66602 2 -12.999 6s-5 9 -5 15z" />
    <glyph glyph-name="yacute" unicode="&#xfd;" horiz-adv-x="521" 
d="M110 -209l4.99805 13.999c1.33301 0 3.33301 -0.166992 6 -0.5s4.66699 -0.5 6 -0.5c26 0 49.833 11.667 71.5 35s45.834 67 72.501 131l10 24l-274 526h16l266 -510l211 510h16l-221 -532c-18 -43.333 -34.5 -78.666 -49.5 -105.999s-29.5 -47.5 -43.5 -60.5
s-26.5 -21.5 -37.5 -25.5s-23.833 -6 -38.5 -6c-7.33301 0 -12.666 0.333008 -15.999 1zM343.998 768.999l-104 -138l-11 8l104 138z" />
    <glyph glyph-name="thorn" unicode="&#xfe;" horiz-adv-x="604" 
d="M79 -200v930.001h14v-330c22 44.667 53 78.167 93 100.5s83.333 33.5 130 33.5c74 0 133.833 -24.5 179.5 -73.5s68.5 -112.167 68.5 -189.5c0 -80.667 -24.5 -147.834 -73.5 -201.501s-110.833 -80.5 -185.5 -80.5c-87.333 0 -158 35 -212 105v-294h-14zM317 520.001
c-105.333 0 -180.001 -48.667 -224.001 -146v-256c50 -76.667 122.333 -115 217 -115c66.667 0 123.334 25.5 170.001 76.5s70 114.833 70 191.5c0 72 -21.667 131.5 -65 178.5s-99.333 70.5 -168 70.5z" />
    <glyph glyph-name="ydieresis" unicode="&#xff;" horiz-adv-x="521" 
d="M110 -209l4.99805 13.999c1.33301 0 3.33301 -0.166992 6 -0.5s4.66699 -0.5 6 -0.5c26 0 49.833 11.667 71.5 35s45.834 67 72.501 131l10 24l-274 526h16l266 -510l211 510h16l-221 -532c-18 -43.333 -34.5 -78.666 -49.5 -105.999s-29.5 -47.5 -43.5 -60.5
s-26.5 -21.5 -37.5 -25.5s-23.833 -6 -38.5 -6c-7.33301 0 -12.666 0.333008 -15.999 1zM374.998 706.999c0 6 1.8291 11.167 5.49609 15.5s7.83398 6.5 12.501 6.5s8.83398 -2.16699 12.501 -6.5s5.5 -9.5 5.5 -15.5s-1.66699 -11 -5 -15s-7.66602 -6 -12.999 -6
s-9.66602 2 -12.999 6s-5 9 -5 15zM115.994 706.999c0 6 1.8291 11.167 5.49609 15.5s7.83398 6.5 12.501 6.5s8.83398 -2.16699 12.501 -6.5s5.5 -9.5 5.5 -15.5s-1.66699 -11 -5 -15s-7.66602 -6 -12.999 -6s-9.66602 2 -12.999 6s-5 9 -5 15z" />
    <glyph glyph-name="Amacron" unicode="&#x100;" horiz-adv-x="649" 
d="M7 0l311 704h13l311 -704h-15l-105 239h-396l-105 -239h-14zM324 689l-191 -436h383zM181 813v14h286v-14h-286z" />
    <glyph glyph-name="amacron" unicode="&#x101;" horiz-adv-x="532" 
d="M83 452l-12 11.002c22 20 50.667 36.833 86 50.5s67 20.5 95 20.5c143.333 0 215 -68.333 215 -205v-329h-14v131c-48 -92 -125.333 -138 -232 -138c-55.333 0 -100 13.667 -134 41s-51 64.666 -51 111.999s19.833 83.166 59.5 107.499s94.5 36.5 164.5 36.5
c30 0 65.833 -2.16699 107.5 -6.5s70.167 -8.83301 85.5 -13.5v51c0 132.667 -67.667 199 -203 199c-59.333 0 -115 -22.667 -167 -68zM224 7.00195c60.667 0 110.501 16.333 149.501 49s65.5 67 79.5 103v97c-50.667 13.333 -116 20 -196 20
c-64 0 -114.5 -10.667 -151.5 -32s-55.5 -54.333 -55.5 -99c0 -42 16.667 -75.5 50 -100.5s74.666 -37.5 123.999 -37.5zM147.001 674.002v14h239v-14h-239z" />
    <glyph glyph-name="Abreve" unicode="&#x102;" horiz-adv-x="649" 
d="M7 0l311 704h13l311 -704h-15l-105 239h-396l-105 -239h-14zM324 689l-191 -436h383zM170 866l10 8c32.667 -43.333 80 -65 142 -65s109.333 21.667 142 65l10 -8c-14 -20.667 -34.667 -37.667 -62 -51s-57.333 -20 -90 -20s-62.667 6.66699 -90 20s-48 30.333 -62 51z
" />
    <glyph glyph-name="abreve" unicode="&#x103;" horiz-adv-x="532" 
d="M83 452l-12 11.002c22 20 50.667 36.833 86 50.5s67 20.5 95 20.5c143.333 0 215 -68.333 215 -205v-329h-14v131c-48 -92 -125.333 -138 -232 -138c-55.333 0 -100 13.667 -134 41s-51 64.666 -51 111.999s19.833 83.166 59.5 107.499s94.5 36.5 164.5 36.5
c30 0 65.833 -2.16699 107.5 -6.5s70.167 -8.83301 85.5 -13.5v51c0 132.667 -67.667 199 -203 199c-59.333 0 -115 -22.667 -167 -68zM224 7.00195c60.667 0 110.501 16.333 149.501 49s65.5 67 79.5 103v97c-50.667 13.333 -116 20 -196 20
c-64 0 -114.5 -10.667 -151.5 -32s-55.5 -54.333 -55.5 -99c0 -42 16.667 -75.5 50 -100.5s74.666 -37.5 123.999 -37.5zM120.001 749.002l12 7c34 -48 75.333 -72 124 -72s90 24 124 72l12 -7c-34 -52.667 -79.333 -79 -136 -79s-102 26.333 -136 79z" />
    <glyph glyph-name="Aogonek" unicode="&#x104;" horiz-adv-x="649" 
d="M634 -176l1 -14.998c-10 -6 -24.667 -9 -44 -9c-22.667 -2 -44 3.83301 -64 17.5s-30 35.5 -30 65.5c0 31.333 12.333 58.666 37 81.999s54 38.666 88 45.999l-100 228h-396l-105 -239h-14l311 704h13l305 -690l6 -14h-6c-29.333 -2 -57.5 -14.333 -84.5 -37
s-40.5 -49.334 -40.5 -80.001c0 -23.333 7.5 -40.666 22.5 -51.999s33.833 -17 56.5 -17c18 0 32.667 3.33301 44 10zM324 689.002l-191 -436h383z" />
    <glyph glyph-name="aogonek" unicode="&#x105;" horiz-adv-x="532" 
d="M476 -177l3 -13.9971c-12 -6 -25.667 -9 -41 -9c-22 0 -41.333 7 -58 21s-25 36 -25 66c0 28 10 53 30 75s42.667 37.667 68 47v122c-48 -92 -125.333 -138 -232 -138c-55.333 0 -100 13.667 -134 41s-51 64.666 -51 111.999s19.833 83.166 59.5 107.499
s94.5 36.5 164.5 36.5c30 0 65.833 -2.16699 107.5 -6.5s70.167 -8.83301 85.5 -13.5v51c0 132.667 -67.667 199 -203 199c-59.333 0 -115 -22.667 -167 -68l-12 11c22 20 50.667 36.833 86 50.5s67 20.5 95 20.5c143.333 0 215 -68.333 215 -205v-329
c-22 -5.33301 -43.833 -18 -65.5 -38s-32.5 -45.333 -32.5 -76c0 -20.667 6 -37.834 18 -51.501s29.667 -20.5 53 -20.5c14 0 26 3 36 9zM224 7.00293c60.667 0 110.501 16.333 149.501 49s65.5 67 79.5 103v97c-50.667 13.333 -116 20 -196 20
c-64 0 -114.5 -10.667 -151.5 -32s-55.5 -54.333 -55.5 -99c0 -42 16.667 -75.5 50 -100.5s74.666 -37.5 123.999 -37.5z" />
    <glyph glyph-name="Cacute" unicode="&#x106;" horiz-adv-x="679" 
d="M643 103l5.99902 -10.998c-22 -27.333 -55.333 -51 -100 -71s-92 -30 -142 -30c-111.333 0 -199.666 32.5 -264.999 97.5s-98 152.167 -98 261.5c0 103.333 30.833 189 92.5 257s145.5 102 251.5 102c110 0 193.667 -32.667 251 -98l-7 -10
c-32.667 31.333 -67.5 54.833 -104.5 70.5s-83.5 23.5 -139.5 23.5c-100 0 -180 -32.333 -240 -97s-90 -147.334 -90 -248.001c0 -104.667 31.333 -188.334 94 -251.001s147 -94 253 -94c50 0 95.5 9.5 136.5 28.5s74.833 42.167 101.5 69.5zM494.999 856.002l-152 -84
l-6 12l151 84z" />
    <glyph glyph-name="cacute" unicode="&#x107;" horiz-adv-x="524" 
d="M496 82l7.99902 -10c-18.667 -26 -45 -46.333 -79 -61s-71 -22 -111 -22c-82 0 -148.167 24.833 -198.5 74.5s-75.5 115.5 -75.5 197.5c0 78 24.833 143 74.5 195s115.167 78 196.5 78c80.667 0 140.334 -26 179.001 -78l-9 -10c-42.667 49.333 -100 74 -172 74
c-72.667 0 -133.334 -24.667 -182.001 -74s-73 -111 -73 -185c0 -80 23.833 -143 71.5 -189s109.834 -69 186.501 -69c37.333 0 73 7 107 21s59.667 33.333 77 58zM385.999 769l-104 -138l-11 8l104 138z" />
    <glyph glyph-name="Ccircumflex" unicode="&#x108;" horiz-adv-x="679" 
d="M643 103l5.99902 -10.998c-22 -27.333 -55.333 -51 -100 -71s-92 -30 -142 -30c-111.333 0 -199.666 32.5 -264.999 97.5s-98 152.167 -98 261.5c0 103.333 30.833 189 92.5 257s145.5 102 251.5 102c110 0 193.667 -32.667 251 -98l-7 -10
c-32.667 31.333 -67.5 54.833 -104.5 70.5s-83.5 23.5 -139.5 23.5c-100 0 -180 -32.333 -240 -97s-90 -147.334 -90 -248.001c0 -104.667 31.333 -188.334 94 -251.001s147 -94 253 -94c50 0 95.5 9.5 136.5 28.5s74.833 42.167 101.5 69.5zM202.999 785.002l179 94
l179 -94l-7 -12l-172 90l-172 -90z" />
    <glyph glyph-name="ccircumflex" unicode="&#x109;" horiz-adv-x="524" 
d="M496 82l7.99902 -10c-18.667 -26 -45 -46.333 -79 -61s-71 -22 -111 -22c-82 0 -148.167 24.833 -198.5 74.5s-75.5 115.5 -75.5 197.5c0 78 24.833 143 74.5 195s115.167 78 196.5 78c80.667 0 140.334 -26 179.001 -78l-9 -10c-42.667 49.333 -100 74 -172 74
c-72.667 0 -133.334 -24.667 -182.001 -74s-73 -111 -73 -185c0 -80 23.833 -143 71.5 -189s109.834 -69 186.501 -69c37.333 0 73 7 107 21s59.667 33.333 77 58zM170.999 646l-10 10l126 117l126 -117l-10 -10l-116 107z" />
    <glyph glyph-name="Cdotaccent" unicode="&#x10a;" horiz-adv-x="679" 
d="M643 103l5.99902 -10.998c-22 -27.333 -55.333 -51 -100 -71s-92 -30 -142 -30c-111.333 0 -199.666 32.5 -264.999 97.5s-98 152.167 -98 261.5c0 103.333 30.833 189 92.5 257s145.5 102 251.5 102c110 0 193.667 -32.667 251 -98l-7 -10
c-32.667 31.333 -67.5 54.833 -104.5 70.5s-83.5 23.5 -139.5 23.5c-100 0 -180 -32.333 -240 -97s-90 -147.334 -90 -248.001c0 -104.667 31.333 -188.334 94 -251.001s147 -94 253 -94c50 0 95.5 9.5 136.5 28.5s74.833 42.167 101.5 69.5zM374.999 822.002
c0 6.66699 1.83301 12.334 5.5 17.001s8.16699 7 13.5 7s10 -2.33301 14 -7s6 -10.334 6 -17.001s-2 -12.167 -6 -16.5s-8.66699 -6.5 -14 -6.5s-9.83301 2.16699 -13.5 6.5s-5.5 9.83301 -5.5 16.5z" />
    <glyph glyph-name="cdotaccent" unicode="&#x10b;" horiz-adv-x="524" 
d="M496 82l7.99902 -10c-18.667 -26 -45 -46.333 -79 -61s-71 -22 -111 -22c-82 0 -148.167 24.833 -198.5 74.5s-75.5 115.5 -75.5 197.5c0 78 24.833 143 74.5 195s115.167 78 196.5 78c80.667 0 140.334 -26 179.001 -78l-9 -10c-42.667 49.333 -100 74 -172 74
c-72.667 0 -133.334 -24.667 -182.001 -74s-73 -111 -73 -185c0 -80 23.833 -143 71.5 -189s109.834 -69 186.501 -69c37.333 0 73 7 107 21s59.667 33.333 77 58zM288.999 702c0 6.66699 1.83301 12.334 5.5 17.001s8.16699 7 13.5 7s10 -2.33301 14 -7
s6 -10.334 6 -17.001s-2 -12.167 -6 -16.5s-8.66699 -6.5 -14 -6.5s-9.83301 2.16699 -13.5 6.5s-5.5 9.83301 -5.5 16.5z" />
    <glyph glyph-name="Ccaron" unicode="&#x10c;" horiz-adv-x="679" 
d="M643 103l5.99902 -10.998c-22 -27.333 -55.333 -51 -100 -71s-92 -30 -142 -30c-111.333 0 -199.666 32.5 -264.999 97.5s-98 152.167 -98 261.5c0 103.333 30.833 189 92.5 257s145.5 102 251.5 102c110 0 193.667 -32.667 251 -98l-7 -10
c-32.667 31.333 -67.5 54.833 -104.5 70.5s-83.5 23.5 -139.5 23.5c-100 0 -180 -32.333 -240 -97s-90 -147.334 -90 -248.001c0 -104.667 31.333 -188.334 94 -251.001s147 -94 253 -94c50 0 95.5 9.5 136.5 28.5s74.833 42.167 101.5 69.5zM371.999 773.002l-179 94l7 12
l172 -90l172 90l7 -12z" />
    <glyph glyph-name="ccaron" unicode="&#x10d;" horiz-adv-x="524" 
d="M496 82l7.99902 -10c-18.667 -26 -45 -46.333 -79 -61s-71 -22 -111 -22c-82 0 -148.167 24.833 -198.5 74.5s-75.5 115.5 -75.5 197.5c0 78 24.833 143 74.5 195s115.167 78 196.5 78c80.667 0 140.334 -26 179.001 -78l-9 -10c-42.667 49.333 -100 74 -172 74
c-72.667 0 -133.334 -24.667 -182.001 -74s-73 -111 -73 -185c0 -80 23.833 -143 71.5 -189s109.834 -69 186.501 -69c37.333 0 73 7 107 21s59.667 33.333 77 58zM177.999 760l10 10l116 -107l116 107l10 -10l-126 -117z" />
    <glyph glyph-name="Dcaron" unicode="&#x10e;" horiz-adv-x="703" 
d="M86 0l-0.00195312 700.001h208c124.667 0 216.834 -31.5 276.501 -94.5s89.5 -144.833 89.5 -245.5c0 -106.667 -31.667 -193.334 -95 -260.001s-155.666 -100 -276.999 -100h-202zM288.998 686.001h-189.001v-672h183c120.667 0 211.334 32 272.001 96
s91 147.333 91 250c0 97.333 -29 176 -87 236s-148 90 -270 90zM288.997 773.001l-179 94l7 12l172 -90l172 90l7 -12z" />
    <glyph glyph-name="dcaron" unicode="&#x10f;" 
d="M506 0l-0.00195312 105.999c-12.667 -26 -37.5 -51.667 -74.5 -77s-79.5 -38 -127.5 -38c-79.333 0 -143.166 24.667 -191.499 74s-72.5 114 -72.5 194c0 79.333 27 145 81 197s119.333 78 196 78c38 0 73.833 -9.16699 107.5 -27.5s60.834 -43.166 81.501 -74.499v298
h14v-730h-14zM299.998 4.99902c52.667 0 97.168 13.833 133.501 41.5s60.5 55.167 72.5 82.5v279c-21.333 36 -49.333 63.667 -84 83s-71.334 29 -110.001 29c-70 0 -130.5 -24.5 -181.5 -73.5s-76.5 -110.833 -76.5 -185.5c0 -78 23 -140.167 69 -186.5
s105 -69.5 177 -69.5zM608.999 729.999l15 -0.000976562c8.66699 -19.333 13 -38.666 13 -57.999c0 -24 -6 -46 -18 -66s-26.333 -35.667 -43 -47l-8 11c17.333 11.333 30.833 26.5 40.5 45.5s14.5 38.167 14.5 57.5c0 20 -4.66699 39 -14 57z" />
    <glyph glyph-name="Dcroat" unicode="&#x110;" horiz-adv-x="751" 
d="M1 338l-0.00195312 14.001h133v348h208c124.667 0 216.834 -31.5 276.501 -94.5s89.5 -144.833 89.5 -245.5c0 -106.667 -31.667 -193.334 -95 -260.001s-155.666 -100 -276.999 -100h-202v338h-133zM336.998 686.001h-189.001v-334h227v-14h-227v-324h183
c120.667 0 211.334 32 272.001 96s91 147.333 91 250c0 97.333 -29 176 -87 236s-148 90 -270 90z" />
    <glyph glyph-name="dcroat" unicode="&#x111;" 
d="M400 619l-0.00195312 13.999h106v97h14v-97h79v-14h-79v-619h-14v106c-12.667 -26 -37.5 -51.667 -74.5 -77s-79.5 -38 -127.5 -38c-79.333 0 -143.166 24.667 -191.499 74s-72.5 114 -72.5 194c0 79.333 27 145 81 197s119.333 78 196 78
c38 0 73.833 -9.16699 107.5 -27.5s60.834 -43.166 81.501 -74.499v187h-106zM299.998 4.99902c52.667 0 97.168 13.833 133.501 41.5s60.5 55.167 72.5 82.5v279c-21.333 36 -49.333 63.667 -84 83s-71.334 29 -110.001 29c-70 0 -130.5 -24.5 -181.5 -73.5
s-76.5 -110.833 -76.5 -185.5c0 -78 23 -140.167 69 -186.5s105 -69.5 177 -69.5z" />
    <glyph glyph-name="Emacron" unicode="&#x112;" horiz-adv-x="631" 
d="M86 0v700h474v-14h-460v-323h430v-14h-430v-335h470v-14h-484zM184 813v14h286v-14h-286z" />
    <glyph glyph-name="emacron" unicode="&#x113;" horiz-adv-x="571" 
d="M506 94l7.99902 -9.99902c-17.333 -28 -45.5 -50.833 -84.5 -68.5s-79.167 -26.5 -120.5 -26.5c-81.333 0 -146.5 24.667 -195.5 74s-73.5 115.333 -73.5 198c0 79.333 23.667 144.666 71 195.999s112 77 194 77c66 0 120.167 -21.667 162.5 -65
s63.5 -99.666 63.5 -168.999c0 -16.667 -0.666992 -28.334 -2 -35.001h-475c0 -79.333 23.333 -142.833 70 -190.5s109.334 -71.5 188.001 -71.5c40 0 78 8.33301 114 25s62.667 38.667 80 66zM298.999 520.001c-72 0 -129.999 -23 -173.999 -69s-67.667 -103.333 -71 -172
h463c1.33301 74.667 -17.334 133.5 -56.001 176.5s-92.667 64.5 -162 64.5zM179 674.001v14h239v-14h-239z" />
    <glyph glyph-name="Edotaccent" unicode="&#x116;" horiz-adv-x="631" 
d="M86 0v700h474v-14h-460v-323h430v-14h-430v-335h470v-14h-484zM305 822c0 6.66699 1.83301 12.334 5.5 17.001s8.16699 7 13.5 7s10 -2.33301 14 -7s6 -10.334 6 -17.001s-2 -12.167 -6 -16.5s-8.66699 -6.5 -14 -6.5s-9.83301 2.16699 -13.5 6.5s-5.5 9.83301 -5.5 16.5
z" />
    <glyph glyph-name="edotaccent" unicode="&#x117;" horiz-adv-x="571" 
d="M506 94l7.99902 -9.99902c-17.333 -28 -45.5 -50.833 -84.5 -68.5s-79.167 -26.5 -120.5 -26.5c-81.333 0 -146.5 24.667 -195.5 74s-73.5 115.333 -73.5 198c0 79.333 23.667 144.666 71 195.999s112 77 194 77c66 0 120.167 -21.667 162.5 -65
s63.5 -99.666 63.5 -168.999c0 -16.667 -0.666992 -28.334 -2 -35.001h-475c0 -79.333 23.333 -142.833 70 -190.5s109.334 -71.5 188.001 -71.5c40 0 78 8.33301 114 25s62.667 38.667 80 66zM298.999 520.001c-72 0 -129.999 -23 -173.999 -69s-67.667 -103.333 -71 -172
h463c1.33301 74.667 -17.334 133.5 -56.001 176.5s-92.667 64.5 -162 64.5zM275 702.001c0 6.66699 1.83301 12.334 5.5 17.001s8.16699 7 13.5 7s10 -2.33301 14 -7s6 -10.334 6 -17.001s-2 -12.167 -6 -16.5s-8.66699 -6.5 -14 -6.5s-9.83301 2.16699 -13.5 6.5
s-5.5 9.83301 -5.5 16.5z" />
    <glyph glyph-name="Eogonek" unicode="&#x118;" horiz-adv-x="631" 
d="M86 0v700h474v-14h-460v-323h430v-14h-430v-335h470v-14c-29.333 -2 -57.5 -14.333 -84.5 -37s-40.5 -49.334 -40.5 -80.001c0 -23.333 7.5 -40.666 22.5 -51.999s33.833 -17 56.5 -17c18 0 32.667 3.33301 44 10l1 -15c-10 -6 -24.667 -9 -44 -9
c-22.667 -2 -44 3.83301 -64 17.5s-30 35.5 -30 65.5c0 26.667 9.83301 51 29.5 73s43.167 36.667 70.5 44h-445z" />
    <glyph glyph-name="eogonek" unicode="&#x119;" horiz-adv-x="571" 
d="M496 94l8 -9.99707c-12 -19.333 -29.667 -36.833 -53 -52.5s-48.666 -26.834 -75.999 -33.501c-22 -8 -42.333 -21.5 -61 -40.5s-28 -42.833 -28 -71.5c0 -20.667 6 -37.834 18 -51.501s29.667 -20.5 53 -20.5c14 0 26 3 36 9l3 -14c-12 -6 -25.667 -9 -41 -9
c-22 0 -41.333 7 -58 21s-25 36 -25 66c0 21.333 6 41.333 18 60c10.667 17.333 26 32 46 44c-10.667 -1.33301 -19.667 -2 -27 -2c-81.333 0 -146.5 24.667 -195.5 74s-73.5 115.333 -73.5 198c0 79.333 23.667 144.666 71 195.999s112 77 194 77
c66 0 120.167 -21.667 162.5 -65s63.5 -99.666 63.5 -168.999c0 -16.667 -0.666992 -28.334 -2 -35.001h-475c-2.66699 -80 19.666 -143.667 66.999 -191s111 -71 191 -71c38 0 73.5 8.66699 106.5 26s58.833 39 77.5 65zM299 520.003c-72 0 -129.999 -23 -173.999 -69
s-67.667 -103.333 -71 -172h463c1.33301 74.667 -17.334 133.5 -56.001 176.5s-92.667 64.5 -162 64.5z" />
    <glyph glyph-name="Ecaron" unicode="&#x11a;" horiz-adv-x="631" 
d="M86 0v700h474v-14h-460v-323h430v-14h-430v-335h470v-14h-484zM332 773l-179 94l7 12l172 -90l172 90l7 -12z" />
    <glyph glyph-name="ecaron" unicode="&#x11b;" horiz-adv-x="571" 
d="M506 94l7.99902 -9.99902c-17.333 -28 -45.5 -50.833 -84.5 -68.5s-79.167 -26.5 -120.5 -26.5c-81.333 0 -146.5 24.667 -195.5 74s-73.5 115.333 -73.5 198c0 79.333 23.667 144.666 71 195.999s112 77 194 77c66 0 120.167 -21.667 162.5 -65
s63.5 -99.666 63.5 -168.999c0 -16.667 -0.666992 -28.334 -2 -35.001h-475c0 -79.333 23.333 -142.833 70 -190.5s109.334 -71.5 188.001 -71.5c40 0 78 8.33301 114 25s62.667 38.667 80 66zM298.999 520.001c-72 0 -129.999 -23 -173.999 -69s-67.667 -103.333 -71 -172
h463c1.33301 74.667 -17.334 133.5 -56.001 176.5s-92.667 64.5 -162 64.5zM161 760.001l10 10l116 -107l116 107l10 -10l-126 -117z" />
    <glyph glyph-name="Gcircumflex" unicode="&#x11c;" horiz-adv-x="708" 
d="M438 304l0.000976562 13.999h226v-235c-26 -28 -63.667 -50.333 -113 -67s-97 -25 -143 -25c-104.667 0 -191.5 32.5 -260.5 97.5s-103.5 152.167 -103.5 261.5c0 106 31.5 192.333 94.5 259s148.5 100 256.5 100c103.333 0 184.666 -32.667 243.999 -98l-7 -10
c-62.667 62.667 -141.667 94 -237 94c-104 0 -186.167 -32 -246.5 -96s-90.5 -147 -90.5 -249c0 -105.333 33.333 -189.166 100 -251.499s150.667 -93.5 252 -93.5c96.667 0 176.667 28.333 240 85v214h-212zM213.001 784.999l179 94l179 -94l-7 -12l-172 90l-172 -90z" />
    <glyph glyph-name="gcircumflex" unicode="&#x11d;" horiz-adv-x="605" 
d="M525 520l-0.00195312 -495.998c0 -45.333 -6.5 -84 -19.5 -116s-30.833 -56 -53.5 -72s-46.167 -27.5 -70.5 -34.5s-50.833 -10.5 -79.5 -10.5c-102.667 0 -173.334 35.333 -212.001 106l11 10c36 -68 103 -102 201 -102c139.333 0 209 72.667 209 218v77
c-14 -24.667 -39.167 -49 -75.5 -73s-80.166 -36 -131.499 -36c-81.333 0 -145.666 24.667 -192.999 74s-71 114.666 -71 195.999c0 82 25.333 148.167 76 198.5s115.334 75.5 194.001 75.5c45.333 0 86 -10.333 122 -31s62.333 -46.334 79 -77.001v93h14zM303.998 5.00195
c50 0 92.5 11.334 127.5 34.001s61.5 50.667 79.5 84v278c-18 35.333 -44.5 64.166 -79.5 86.499s-76.833 33.5 -125.5 33.5c-70 0 -129.5 -23.333 -178.5 -70s-73.5 -110.667 -73.5 -192c0 -77.333 22.833 -139 68.5 -185s106.167 -69 181.5 -69zM179.998 646.003l-10 10
l126 117l126 -117l-10 -10l-116 107z" />
    <glyph glyph-name="Gbreve" unicode="&#x11e;" horiz-adv-x="708" 
d="M438 304l0.000976562 13.999h226v-235c-26 -28 -63.667 -50.333 -113 -67s-97 -25 -143 -25c-104.667 0 -191.5 32.5 -260.5 97.5s-103.5 152.167 -103.5 261.5c0 106 31.5 192.333 94.5 259s148.5 100 256.5 100c103.333 0 184.666 -32.667 243.999 -98l-7 -10
c-62.667 62.667 -141.667 94 -237 94c-104 0 -186.167 -32 -246.5 -96s-90.5 -147 -90.5 -249c0 -105.333 33.333 -189.166 100 -251.499s150.667 -93.5 252 -93.5c96.667 0 176.667 28.333 240 85v214h-212zM248.001 865.999l10 8c32.667 -43.333 80 -65 142 -65
s109.333 21.667 142 65l10 -8c-14 -20.667 -34.667 -37.667 -62 -51s-57.333 -20 -90 -20s-62.667 6.66699 -90 20s-48 30.333 -62 51z" />
    <glyph glyph-name="gbreve" unicode="&#x11f;" horiz-adv-x="605" 
d="M525 520l-0.00195312 -495.998c0 -45.333 -6.5 -84 -19.5 -116s-30.833 -56 -53.5 -72s-46.167 -27.5 -70.5 -34.5s-50.833 -10.5 -79.5 -10.5c-102.667 0 -173.334 35.333 -212.001 106l11 10c36 -68 103 -102 201 -102c139.333 0 209 72.667 209 218v77
c-14 -24.667 -39.167 -49 -75.5 -73s-80.166 -36 -131.499 -36c-81.333 0 -145.666 24.667 -192.999 74s-71 114.666 -71 195.999c0 82 25.333 148.167 76 198.5s115.334 75.5 194.001 75.5c45.333 0 86 -10.333 122 -31s62.333 -46.334 79 -77.001v93h14zM303.998 5.00195
c50 0 92.5 11.334 127.5 34.001s61.5 50.667 79.5 84v278c-18 35.333 -44.5 64.166 -79.5 86.499s-76.833 33.5 -125.5 33.5c-70 0 -129.5 -23.333 -178.5 -70s-73.5 -110.667 -73.5 -192c0 -77.333 22.833 -139 68.5 -185s106.167 -69 181.5 -69zM165.998 749.003l12 7
c34 -48 75.333 -72 124 -72s90 24 124 72l12 -7c-34 -52.667 -79.333 -79 -136 -79s-102 26.333 -136 79z" />
    <glyph glyph-name="Gdotaccent" unicode="&#x120;" horiz-adv-x="708" 
d="M438 304l0.000976562 13.999h226v-235c-26 -28 -63.667 -50.333 -113 -67s-97 -25 -143 -25c-104.667 0 -191.5 32.5 -260.5 97.5s-103.5 152.167 -103.5 261.5c0 106 31.5 192.333 94.5 259s148.5 100 256.5 100c103.333 0 184.666 -32.667 243.999 -98l-7 -10
c-62.667 62.667 -141.667 94 -237 94c-104 0 -186.167 -32 -246.5 -96s-90.5 -147 -90.5 -249c0 -105.333 33.333 -189.166 100 -251.499s150.667 -93.5 252 -93.5c96.667 0 176.667 28.333 240 85v214h-212zM379.001 821.999c0 6.66699 1.83301 12.334 5.5 17.001
s8.16699 7 13.5 7s10 -2.33301 14 -7s6 -10.334 6 -17.001s-2 -12.167 -6 -16.5s-8.66699 -6.5 -14 -6.5s-9.83301 2.16699 -13.5 6.5s-5.5 9.83301 -5.5 16.5z" />
    <glyph glyph-name="gdotaccent" unicode="&#x121;" horiz-adv-x="605" 
d="M525 520l-0.00195312 -495.998c0 -45.333 -6.5 -84 -19.5 -116s-30.833 -56 -53.5 -72s-46.167 -27.5 -70.5 -34.5s-50.833 -10.5 -79.5 -10.5c-102.667 0 -173.334 35.333 -212.001 106l11 10c36 -68 103 -102 201 -102c139.333 0 209 72.667 209 218v77
c-14 -24.667 -39.167 -49 -75.5 -73s-80.166 -36 -131.499 -36c-81.333 0 -145.666 24.667 -192.999 74s-71 114.666 -71 195.999c0 82 25.333 148.167 76 198.5s115.334 75.5 194.001 75.5c45.333 0 86 -10.333 122 -31s62.333 -46.334 79 -77.001v93h14zM303.998 5.00195
c50 0 92.5 11.334 127.5 34.001s61.5 50.667 79.5 84v278c-18 35.333 -44.5 64.166 -79.5 86.499s-76.833 33.5 -125.5 33.5c-70 0 -129.5 -23.333 -178.5 -70s-73.5 -110.667 -73.5 -192c0 -77.333 22.833 -139 68.5 -185s106.167 -69 181.5 -69zM292.998 702.003
c0 6.66699 1.83301 12.334 5.5 17.001s8.16699 7 13.5 7s10 -2.33301 14 -7s6 -10.334 6 -17.001s-2 -12.167 -6 -16.5s-8.66699 -6.5 -14 -6.5s-9.83301 2.16699 -13.5 6.5s-5.5 9.83301 -5.5 16.5z" />
    <glyph glyph-name="Gcommaaccent" unicode="&#x122;" horiz-adv-x="708" 
d="M438 304l0.000976562 13.999h226v-235c-26 -28 -63.667 -50.333 -113 -67s-97 -25 -143 -25c-104.667 0 -191.5 32.5 -260.5 97.5s-103.5 152.167 -103.5 261.5c0 106 31.5 192.333 94.5 259s148.5 100 256.5 100c103.333 0 184.666 -32.667 243.999 -98l-7 -10
c-62.667 62.667 -141.667 94 -237 94c-104 0 -186.167 -32 -246.5 -96s-90.5 -147 -90.5 -249c0 -105.333 33.333 -189.166 100 -251.499s150.667 -93.5 252 -93.5c96.667 0 176.667 28.333 240 85v214h-212zM420.001 -69.001l11 8.00098c16.667 -16.667 25 -37.667 25 -63
c0 -38.667 -18.333 -71.334 -55 -98.001l-7 12c32 23.333 48 52 48 86c0 22 -7.33301 40.333 -22 55z" />
    <glyph glyph-name="gcommaaccent" unicode="&#x123;" horiz-adv-x="605" 
d="M304 635l-12 -7c-14.667 21.333 -22 42.333 -22 63c0 39.333 19.333 72 58 98l7 -12c-34 -22 -51 -50.667 -51 -86c0 -19.333 6.66699 -38 20 -56zM525 520l-0.00195312 -495.998c0 -45.333 -6.5 -84 -19.5 -116s-30.833 -56 -53.5 -72s-46.167 -27.5 -70.5 -34.5
s-50.833 -10.5 -79.5 -10.5c-102.667 0 -173.334 35.333 -212.001 106l11 10c36 -68 103 -102 201 -102c139.333 0 209 72.667 209 218v77c-14 -24.667 -39.167 -49 -75.5 -73s-80.166 -36 -131.499 -36c-81.333 0 -145.666 24.667 -192.999 74s-71 114.666 -71 195.999
c0 82 25.333 148.167 76 198.5s115.334 75.5 194.001 75.5c45.333 0 86 -10.333 122 -31s62.333 -46.334 79 -77.001v93h14zM303.998 5.00195c50 0 92.5 11.334 127.5 34.001s61.5 50.667 79.5 84v278c-18 35.333 -44.5 64.166 -79.5 86.499s-76.833 33.5 -125.5 33.5
c-70 0 -129.5 -23.333 -178.5 -70s-73.5 -110.667 -73.5 -192c0 -77.333 22.833 -139 68.5 -185s106.167 -69 181.5 -69z" />
    <glyph glyph-name="Hcircumflex" unicode="&#x124;" horiz-adv-x="743" 
d="M643 0v352h-543v-352h-14v700h14v-334h543v334h14v-700h-14zM192 785l179 94l179 -94l-7 -12l-172 90l-172 -90z" />
    <glyph glyph-name="hcircumflex" unicode="&#x125;" 
d="M80 0v730.001h14v-337c18 40.667 46.167 74.167 84.5 100.5s83.5 39.5 135.5 39.5c70 0 124.167 -19.333 162.5 -58s57.5 -97.334 57.5 -176.001v-299h-14v291c0 152 -68.667 228 -206 228c-98.667 0 -172 -50.667 -220 -152v-367h-14zM-91 742.001l179 94l179 -94
l-7 -12l-172 90l-172 -90z" />
    <glyph glyph-name="Hbar" unicode="&#x126;" horiz-adv-x="743" 
d="M0 559v14h86v127h14v-127h543v127h14v-127h86v-14h-86v-559h-14v352h-543v-352h-14v559h-86zM100 366h543v193h-543v-193z" />
    <glyph glyph-name="hbar" unicode="&#x127;" 
d="M1 619v14.001h79v97h14v-97h106v-14h-106v-226c18 40.667 46.167 74.167 84.5 100.5s83.5 39.5 135.5 39.5c70 0 124.167 -19.333 162.5 -58s57.5 -97.334 57.5 -176.001v-299h-14v291c0 152 -68.667 228 -206 228c-98.667 0 -172 -50.667 -220 -152v-367h-14v619h-79z
" />
    <glyph glyph-name="Imacron" unicode="&#x12a;" horiz-adv-x="198" 
d="M92 0v700h14v-700h-14zM-44 813v14h286v-14h-286z" />
    <glyph glyph-name="imacron" unicode="&#x12b;" horiz-adv-x="208" 
d="M97 0v520h14v-520h-14zM-15 674v14h239v-14h-239z" />
    <glyph glyph-name="Iogonek" unicode="&#x12e;" horiz-adv-x="198" 
d="M104 -176l1 -14.998c-10 -6 -24.667 -9 -44 -9c-22.667 -2 -44 3.83301 -64 17.5s-30 35.5 -30 65.5c0 31.333 12.333 58.666 37 81.999s54 38.666 88 45.999v689h14v-700c-29.333 -2 -57.5 -14.333 -84.5 -37s-40.5 -49.334 -40.5 -80.001
c0 -23.333 7.5 -40.666 22.5 -51.999s33.833 -17 56.5 -17c18 0 32.667 3.33301 44 10z" />
    <glyph glyph-name="iogonek" unicode="&#x12f;" horiz-adv-x="209" 
d="M121 -177l3 -13.999c-12 -6 -25.667 -9 -41 -9c-22 0 -41.333 7 -58 21s-25 36 -25 66c0 28 10 53 30 75s42.667 37.667 68 47v511h14v-520c-22 -5.33301 -43.833 -18 -65.5 -38s-32.5 -45.333 -32.5 -76c0 -20.667 6 -37.834 18 -51.501s29.667 -20.5 53 -20.5
c14 0 26 3 36 9zM85 702.001c0 6.66699 1.83301 12.334 5.5 17.001s8.16699 7 13.5 7s10 -2.33301 14 -7s6 -10.334 6 -17.001s-2 -12.167 -6 -16.5s-8.66699 -6.5 -14 -6.5s-9.83301 2.16699 -13.5 6.5s-5.5 9.83301 -5.5 16.5z" />
    <glyph glyph-name="Idotaccent" unicode="&#x130;" horiz-adv-x="198" 
d="M92 0v700h14v-700h-14zM80 822c0 6.66699 1.83301 12.334 5.5 17.001s8.16699 7 13.5 7s10 -2.33301 14 -7s6 -10.334 6 -17.001s-2 -12.167 -6 -16.5s-8.66699 -6.5 -14 -6.5s-9.83301 2.16699 -13.5 6.5s-5.5 9.83301 -5.5 16.5z" />
    <glyph glyph-name="dotlessi" unicode="&#x131;" horiz-adv-x="208" 
d="M97 0v520h14v-520h-14z" />
    <glyph glyph-name="Jcircumflex" unicode="&#x134;" horiz-adv-x="483" 
d="M397 700v-501.999c0 -65.333 -18.5 -116.166 -55.5 -152.499s-84.833 -54.5 -143.5 -54.5c-45.333 0 -84.5 11.667 -117.5 35s-58.5 51 -76.5 83l12 7c18.667 -32.667 44 -59.334 76 -80.001s67.333 -31 106 -31c56.667 0 101.667 17.167 135 51.5s50 84.166 50 149.499
v494h14zM204 785.001l179 94l179 -94l-7 -12l-172 90l-172 -90z" />
    <glyph glyph-name="jcircumflex" unicode="&#x135;" horiz-adv-x="224" 
d="M121 520l0.00195312 -540c0 -126 -44.667 -189 -134 -189c-42.667 0 -76.334 15.333 -101.001 46l11 12c23.333 -29.333 53.333 -44 90 -44c41.333 0 71.666 14.333 90.999 43s29 72.667 29 132v540h14zM-5.99805 646l-10 10l126 117l126 -117l-10 -10l-116 107z" />
    <glyph glyph-name="Kcommaaccent" unicode="&#x136;" horiz-adv-x="615" 
d="M86 0v700h14v-411l457 411h22l-363 -326l390 -374h-19l-381 365l-106 -95v-270h-14zM312 -69l11 8.00098c16.667 -16.667 25 -37.667 25 -63c0 -38.667 -18.333 -71.334 -55 -98.001l-7 12c32 23.333 48 52 48 86c0 22 -7.33301 40.333 -22 55z" />
    <glyph glyph-name="kcommaaccent" unicode="&#x137;" horiz-adv-x="515" 
d="M80 0v730h14v-506l359 296h22l-283 -233l311 -287h-20l-302 278l-87 -72v-206h-14zM275 -69l11 8.00098c16.667 -16.667 25 -37.667 25 -63c0 -38.667 -18.333 -71.334 -55 -98.001l-7 12c32 23.333 48 52 48 86c0 22 -7.33301 40.333 -22 55z" />
    <glyph glyph-name="Lacute" unicode="&#x139;" horiz-adv-x="568" 
d="M86 0v700h14v-686h458v-14h-472zM401 856l-152 -84l-6 12l151 84z" />
    <glyph glyph-name="lacute" unicode="&#x13a;" horiz-adv-x="172" 
d="M79 0v730h14v-730h-14zM229 848l-152 -84l-6 12l151 84z" />
    <glyph glyph-name="Lcommaaccent" unicode="&#x13b;" horiz-adv-x="568" 
d="M86 0v700h14v-686h458v-14h-472zM299 -69l11 8.00098c16.667 -16.667 25 -37.667 25 -63c0 -38.667 -18.333 -71.334 -55 -98.001l-7 12c32 23.333 48 52 48 86c0 22 -7.33301 40.333 -22 55z" />
    <glyph glyph-name="lcommaaccent" unicode="&#x13c;" horiz-adv-x="172" 
d="M79 0v730h14v-730h-14zM80 -69l11 8.00098c16.667 -16.667 25 -37.667 25 -63c0 -38.667 -18.333 -71.334 -55 -98.001l-7 12c32 23.333 48 52 48 86c0 22 -7.33301 40.333 -22 55z" />
    <glyph glyph-name="Lcaron" unicode="&#x13d;" horiz-adv-x="568" 
d="M86 0v700h14v-686h458v-14h-472zM393 700l15 -0.000976562c8.66699 -19.333 13 -38.666 13 -57.999c0 -24 -6 -46 -18 -66s-26.333 -35.667 -43 -47l-8 11c17.333 11.333 30.833 26.5 40.5 45.5s14.5 38.167 14.5 57.5c0 20 -4.66699 39 -14 57z" />
    <glyph glyph-name="lcaron" unicode="&#x13e;" horiz-adv-x="172" 
d="M79 0v730h14v-730h-14zM182 730l15 -0.000976562c8.66699 -19.333 13 -38.666 13 -57.999c0 -24 -6 -46 -18 -66s-26.333 -35.667 -43 -47l-8 11c17.333 11.333 30.833 26.5 40.5 45.5s14.5 38.167 14.5 57.5c0 20 -4.66699 39 -14 57z" />
    <glyph glyph-name="Ldot" unicode="&#x13f;" horiz-adv-x="568" 
d="M86 0v700h14v-686h458v-14h-472zM361 359c0 6 1.83301 11.167 5.5 15.5s7.83398 6.5 12.501 6.5c5.33301 0 9.83301 -2.16699 13.5 -6.5s5.5 -9.5 5.5 -15.5s-1.83301 -11.167 -5.5 -15.5s-8.16699 -6.5 -13.5 -6.5c-4.66699 0 -8.83398 2.16699 -12.501 6.5
s-5.5 9.5 -5.5 15.5z" />
    <glyph glyph-name="ldot" unicode="&#x140;" horiz-adv-x="172" 
d="M79 0v730h14v-730h-14zM183 372c0 6 1.83301 11.167 5.5 15.5s7.83398 6.5 12.501 6.5c5.33301 0 9.83301 -2.16699 13.5 -6.5s5.5 -9.5 5.5 -15.5s-1.83301 -11.167 -5.5 -15.5s-8.16699 -6.5 -13.5 -6.5c-4.66699 0 -8.83398 2.16699 -12.501 6.5s-5.5 9.5 -5.5 15.5z
" />
    <glyph glyph-name="Lslash" unicode="&#x141;" horiz-adv-x="570" 
d="M0 188v17l88 66v429h14v-418l227 171v-17l-227 -171v-251h458v-14h-472v254z" />
    <glyph glyph-name="lslash" unicode="&#x142;" horiz-adv-x="234" 
d="M0 250v17l108 81v382h14v-371l112 85v-17l-112 -85v-342h-14v331z" />
    <glyph glyph-name="Nacute" unicode="&#x143;" horiz-adv-x="733" 
d="M647 0h-14l-533 678v-678h-14v700h14l533 -677v677h14v-700zM502 856l-152 -84l-6 12l151 84z" />
    <glyph glyph-name="nacute" unicode="&#x144;" horiz-adv-x="598" 
d="M80 0v520h14v-120c18.667 40 48 72.167 88 96.5s81.667 36.5 125 36.5c71.333 0 126.666 -19.167 165.999 -57.5s59 -96.833 59 -175.5v-300h-14v290c0 152.667 -70.333 229 -211 229c-44 0 -85.167 -12.5 -123.5 -37.5s-68.166 -60.833 -89.499 -107.5v-374h-14z
M405 769l-104 -138l-11 8l104 138z" />
    <glyph glyph-name="Ncommaaccent" unicode="&#x145;" horiz-adv-x="733" 
d="M647 0h-14l-533 678v-678h-14v700h14l533 -677v677h14v-700zM352 -69l11 8.00098c16.667 -16.667 25 -37.667 25 -63c0 -38.667 -18.333 -71.334 -55 -98.001l-7 12c32 23.333 48 52 48 86c0 22 -7.33301 40.333 -22 55z" />
    <glyph glyph-name="ncommaaccent" unicode="&#x146;" horiz-adv-x="598" 
d="M80 0v520h14v-120c18.667 40 48 72.167 88 96.5s81.667 36.5 125 36.5c71.333 0 126.666 -19.167 165.999 -57.5s59 -96.833 59 -175.5v-300h-14v290c0 152.667 -70.333 229 -211 229c-44 0 -85.167 -12.5 -123.5 -37.5s-68.166 -60.833 -89.499 -107.5v-374h-14z
M302 -69l11 8.00098c16.667 -16.667 25 -37.667 25 -63c0 -38.667 -18.333 -71.334 -55 -98.001l-7 12c32 23.333 48 52 48 86c0 22 -7.33301 40.333 -22 55z" />
    <glyph glyph-name="Ncaron" unicode="&#x147;" horiz-adv-x="733" 
d="M647 0h-14l-533 678v-678h-14v700h14l533 -677v677h14v-700zM366 773l-179 94l7 12l172 -90l172 90l7 -12z" />
    <glyph glyph-name="ncaron" unicode="&#x148;" horiz-adv-x="598" 
d="M80 0v520h14v-120c18.667 40 48 72.167 88 96.5s81.667 36.5 125 36.5c71.333 0 126.666 -19.167 165.999 -57.5s59 -96.833 59 -175.5v-300h-14v290c0 152.667 -70.333 229 -211 229c-44 0 -85.167 -12.5 -123.5 -37.5s-68.166 -60.833 -89.499 -107.5v-374h-14z
M174 760l10 10l116 -107l116 107l10 -10l-126 -117z" />
    <glyph glyph-name="Omacron" unicode="&#x14c;" horiz-adv-x="785" 
d="M44 350c0 101.333 33.501 186.5 100.501 255.5s149.5 103.5 247.5 103.5c98.667 0 181.5 -34 248.5 -102s100.5 -153.667 100.5 -257c0 -102 -34 -187.333 -102 -256s-150.333 -103 -247 -103s-178.834 34 -246.501 102s-101.5 153.667 -101.5 257zM58.001 350
c0 -96 32.667 -177.501 98 -244.501s144 -100.5 236 -100.5c95.333 0 175 33.333 239 100s96 148.334 96 245.001c0 97.333 -32.5 179.166 -97.5 245.499s-144.167 99.5 -237.5 99.5s-172.333 -33.167 -237 -99.5s-97 -148.166 -97 -245.499zM249.001 812.999v14h286v-14
h-286z" />
    <glyph glyph-name="omacron" unicode="&#x14d;" horiz-adv-x="618" 
d="M40 261c0 80.667 25 146.334 75 197.001s114.667 76 194 76s144 -25.333 194 -76s75 -116.334 75 -197.001s-25 -146.167 -75 -196.5s-114.667 -75.5 -194 -75.5s-144 25.167 -194 75.5s-75 115.833 -75 196.5zM54 260c0 -74.667 23.667 -136.167 71 -184.5
s108.666 -72.5 183.999 -72.5s136.666 24.167 183.999 72.5s71 109.833 71 184.5c0 76.667 -23.667 139.167 -71 187.5s-108.666 72.5 -183.999 72.5s-136.666 -24.167 -183.999 -72.5s-71 -110.833 -71 -187.5zM190 674v14h239v-14h-239z" />
    <glyph glyph-name="Ohungarumlaut" unicode="&#x150;" horiz-adv-x="785" 
d="M44 350c0 101.333 33.501 186.5 100.501 255.5s149.5 103.5 247.5 103.5c98.667 0 181.5 -34 248.5 -102s100.5 -153.667 100.5 -257c0 -102 -34 -187.333 -102 -256s-150.333 -103 -247 -103s-178.834 34 -246.501 102s-101.5 153.667 -101.5 257zM58.001 350
c0 -96 32.667 -177.501 98 -244.501s144 -100.5 236 -100.5c95.333 0 175 33.333 239 100s96 148.334 96 245.001c0 97.333 -32.5 179.166 -97.5 245.499s-144.167 99.5 -237.5 99.5s-172.333 -33.167 -237 -99.5s-97 -148.166 -97 -245.499zM561.001 855.999l-152 -84
l-6 12l151 84zM433.001 855.999l-152 -84l-6 12l151 84z" />
    <glyph glyph-name="ohungarumlaut" unicode="&#x151;" horiz-adv-x="618" 
d="M40 261c0 80.667 25 146.334 75 197.001s114.667 76 194 76s144 -25.333 194 -76s75 -116.334 75 -197.001s-25 -146.167 -75 -196.5s-114.667 -75.5 -194 -75.5s-144 25.167 -194 75.5s-75 115.833 -75 196.5zM54 260c0 -74.667 23.667 -136.167 71 -184.5
s108.666 -72.5 183.999 -72.5s136.666 24.167 183.999 72.5s71 109.833 71 184.5c0 76.667 -23.667 139.167 -71 187.5s-108.666 72.5 -183.999 72.5s-136.666 -24.167 -183.999 -72.5s-71 -110.833 -71 -187.5zM481 800l-128 -169l-11 8l128 169zM349 800l-128 -169l-11 8
l128 169z" />
    <glyph glyph-name="OE" unicode="&#x152;" horiz-adv-x="1240" 
d="M695 0l0.000976562 178.001c-28.667 -56.667 -70 -102 -124 -136s-113.667 -51 -179 -51c-98 0 -180.5 34 -247.5 102s-100.5 153.667 -100.5 257c0 101.333 33.5 186.5 100.5 255.5s149.5 103.5 247.5 103.5c63.333 0 121.166 -15.333 173.499 -46
s95.5 -75.334 129.5 -134.001v171h474v-14h-460v-323h430v-14h-430v-335h470v-14h-484zM392.001 5.00098c66 0 126.332 17.999 180.999 53.999s95.334 85.667 122.001 149v291c-64.667 130.667 -165.667 196 -303 196c-93.333 0 -172.333 -33.167 -237 -99.5
s-97 -148.166 -97 -245.499c0 -96 32.667 -177.5 98 -244.5s144 -100.5 236 -100.5z" />
    <glyph glyph-name="oe" unicode="&#x153;" horiz-adv-x="1004" 
d="M929 94l7.99902 -10.001c-17.333 -28.667 -44 -51.667 -80 -69s-74.333 -26 -115 -26c-94.667 0 -167 33 -217 99c-56 -66 -127 -99 -213 -99c-78.667 0 -143.667 25.667 -195 77s-77 116.333 -77 195s26.333 143.834 79 195.501s118 77.5 196 77.5
c40.667 0 79.334 -9.16699 116.001 -27.5s68 -42.833 94 -73.5c22 31.333 51.333 56 88 74s78.334 27 125.001 27c66 0 120.167 -21.667 162.5 -65s63.5 -99.666 63.5 -168.999c0 -16.667 -0.666992 -28.334 -2 -35.001h-475c-2.66699 -80 19.666 -143.667 66.999 -191
s111 -71 191 -71c38 0 73.5 8.66699 106.5 26s58.833 39 77.5 65zM517.999 422.999c-58.667 64.667 -126.332 96.999 -202.999 96.999c-74.667 0 -136.834 -24.333 -186.501 -73s-74.5 -110.667 -74.5 -186s24.333 -137.166 73 -185.499s110 -72.5 184 -72.5
c87.333 0 156 32 206 96c-29.333 44.667 -44 98.667 -44 162c0 60 15 114 45 162zM732.001 519.998c-72 0 -129.999 -23 -173.999 -69s-67.667 -103.333 -71 -172h463c1.33301 74.667 -17.334 133.5 -56.001 176.5s-92.667 64.5 -162 64.5z" />
    <glyph glyph-name="Racute" unicode="&#x154;" horiz-adv-x="666" 
d="M100 0h-14v700h250c170 0 255 -62.667 255 -188c0 -54.667 -19.667 -99.167 -59 -133.5s-90 -53.833 -152 -58.5l258 -320h-18l-255 316h-265v-316zM333 686l-233 -0.000976562v-356h239c74 0 132.167 16.667 174.5 50s63.5 77.333 63.5 132s-18.333 97.334 -55 128.001
s-99.667 46 -189 46zM421 855.999l-152 -84l-6 12l151 84z" />
    <glyph glyph-name="racute" unicode="&#x155;" horiz-adv-x="334" 
d="M80 0v520h14v-77c23.333 60 69.333 90 138 90c21.333 0 42 -4.5 62 -13.5s35.667 -20.833 47 -35.5l-11 -10c-22 30 -54.667 45 -98 45c-72 0 -118 -37.667 -138 -113v-406h-14zM300 769l-104 -138l-11 8l104 138z" />
    <glyph glyph-name="Rcommaaccent" unicode="&#x156;" horiz-adv-x="666" 
d="M100 0h-14v700h250c170 0 255 -62.667 255 -188c0 -54.667 -19.667 -99.167 -59 -133.5s-90 -53.833 -152 -58.5l258 -320h-18l-255 316h-265v-316zM333 686l-233 -0.000976562v-356h239c74 0 132.167 16.667 174.5 50s63.5 77.333 63.5 132s-18.333 97.334 -55 128.001
s-99.667 46 -189 46zM326 -69.001l11 8.00098c16.667 -16.667 25 -37.667 25 -63c0 -38.667 -18.333 -71.334 -55 -98.001l-7 12c32 23.333 48 52 48 86c0 22 -7.33301 40.333 -22 55z" />
    <glyph glyph-name="rcommaaccent" unicode="&#x157;" horiz-adv-x="334" 
d="M80 0v520h14v-77c23.333 60 69.333 90 138 90c21.333 0 42 -4.5 62 -13.5s35.667 -20.833 47 -35.5l-11 -10c-22 30 -54.667 45 -98 45c-72 0 -118 -37.667 -138 -113v-406h-14zM117 -69l11 8.00098c16.667 -16.667 25 -37.667 25 -63
c0 -38.667 -18.333 -71.334 -55 -98.001l-7 12c32 23.333 48 52 48 86c0 22 -7.33301 40.333 -22 55z" />
    <glyph glyph-name="Rcaron" unicode="&#x158;" horiz-adv-x="666" 
d="M100 0h-14v700h250c170 0 255 -62.667 255 -188c0 -54.667 -19.667 -99.167 -59 -133.5s-90 -53.833 -152 -58.5l258 -320h-18l-255 316h-265v-316zM333 686l-233 -0.000976562v-356h239c74 0 132.167 16.667 174.5 50s63.5 77.333 63.5 132s-18.333 97.334 -55 128.001
s-99.667 46 -189 46zM309 772.999l-179 94l7 12l172 -90l172 90l7 -12z" />
    <glyph glyph-name="rcaron" unicode="&#x159;" horiz-adv-x="334" 
d="M80 0v520h14v-77c23.333 60 69.333 90 138 90c21.333 0 42 -4.5 62 -13.5s35.667 -20.833 47 -35.5l-11 -10c-22 30 -54.667 45 -98 45c-72 0 -118 -37.667 -138 -113v-406h-14zM85 760l10 10l116 -107l116 107l10 -10l-126 -117z" />
    <glyph glyph-name="Sacute" unicode="&#x15a;" 
d="M540 176c0 33.333 -8.83105 61.001 -26.498 83.001s-40.667 38.167 -69 48.5s-59.666 19 -93.999 26l-103 21c-34.333 7 -65.666 16 -93.999 27s-51.333 28.333 -69 52s-26.5 53.167 -26.5 88.5c0 50.667 23.333 94.5 70 131.5s108 55.5 184 55.5
c95.333 0 169.333 -26.333 222 -79l-7 -10c-55.333 50 -127.666 75 -216.999 75c-61.333 0 -116.333 -15.5 -165 -46.5s-73 -73.167 -73 -126.5c0 -33.333 8.83301 -61 26.5 -83s40.667 -38.167 69 -48.5s59.666 -18.833 93.999 -25.5s68.666 -13.667 102.999 -21
s65.666 -16.5 93.999 -27.5s51.333 -28.167 69 -51.5s26.5 -52.666 26.5 -87.999c0 -54 -23.5 -98.5 -70.5 -133.5s-104.5 -52.5 -172.5 -52.5c-56.667 0 -108.834 11.667 -156.501 35s-84.167 52.666 -109.5 87.999l10 10c21.333 -32 54 -59.833 98 -83.5
s97 -35.5 159 -35.5c59.333 0 112.166 15.667 158.499 47s69.5 72.666 69.5 123.999zM424.002 856.001l-152 -84l-6 12l151 84z" />
    <glyph glyph-name="sacute" unicode="&#x15b;" horiz-adv-x="497" 
d="M439 129c0 26.667 -9.50293 48.833 -28.5029 66.5s-42.667 30.667 -71 39s-59.166 17 -92.499 26s-64.166 17.833 -92.499 26.5s-52 22.5 -71 41.5s-28.5 42.5 -28.5 70.5c0 41.333 16 74.166 48 98.499s75.667 36.5 131 36.5c86.667 0 152.334 -25.667 197.001 -77
l-11 -9c-38 48 -99.667 72 -185 72c-45.333 0 -84.333 -9.83301 -117 -29.5s-49 -50.167 -49 -91.5c0 -30.667 13.167 -55.334 39.5 -74.001s58.333 -32.5 96 -41.5s75.334 -18.333 113.001 -28s69.667 -24.667 96 -45s39.5 -47.166 39.5 -80.499
c0 -45.333 -17.833 -80.166 -53.5 -104.499s-77.834 -36.5 -126.501 -36.5c-107.333 0 -184 36.333 -230 109l12 8c44 -68.667 116.333 -103 217 -103c25.333 0 50 3.5 74 10.5s45.5 20.5 64.5 40.5s28.5 45 28.5 75zM349.997 768.999l-104 -138l-11 8l104 138z" />
    <glyph glyph-name="Scircumflex" unicode="&#x15c;" 
d="M540 176c0 33.333 -8.83105 61.001 -26.498 83.001s-40.667 38.167 -69 48.5s-59.666 19 -93.999 26l-103 21c-34.333 7 -65.666 16 -93.999 27s-51.333 28.333 -69 52s-26.5 53.167 -26.5 88.5c0 50.667 23.333 94.5 70 131.5s108 55.5 184 55.5
c95.333 0 169.333 -26.333 222 -79l-7 -10c-55.333 50 -127.666 75 -216.999 75c-61.333 0 -116.333 -15.5 -165 -46.5s-73 -73.167 -73 -126.5c0 -33.333 8.83301 -61 26.5 -83s40.667 -38.167 69 -48.5s59.666 -18.833 93.999 -25.5s68.666 -13.667 102.999 -21
s65.666 -16.5 93.999 -27.5s51.333 -28.167 69 -51.5s26.5 -52.666 26.5 -87.999c0 -54 -23.5 -98.5 -70.5 -133.5s-104.5 -52.5 -172.5 -52.5c-56.667 0 -108.834 11.667 -156.501 35s-84.167 52.666 -109.5 87.999l10 10c21.333 -32 54 -59.833 98 -83.5
s97 -35.5 159 -35.5c59.333 0 112.166 15.667 158.499 47s69.5 72.666 69.5 123.999zM133.002 785.001l179 94l179 -94l-7 -12l-172 90l-172 -90z" />
    <glyph glyph-name="scircumflex" unicode="&#x15d;" horiz-adv-x="497" 
d="M439 129c0 26.667 -9.50293 48.833 -28.5029 66.5s-42.667 30.667 -71 39s-59.166 17 -92.499 26s-64.166 17.833 -92.499 26.5s-52 22.5 -71 41.5s-28.5 42.5 -28.5 70.5c0 41.333 16 74.166 48 98.499s75.667 36.5 131 36.5c86.667 0 152.334 -25.667 197.001 -77
l-11 -9c-38 48 -99.667 72 -185 72c-45.333 0 -84.333 -9.83301 -117 -29.5s-49 -50.167 -49 -91.5c0 -30.667 13.167 -55.334 39.5 -74.001s58.333 -32.5 96 -41.5s75.334 -18.333 113.001 -28s69.667 -24.667 96 -45s39.5 -47.166 39.5 -80.499
c0 -45.333 -17.833 -80.166 -53.5 -104.499s-77.834 -36.5 -126.501 -36.5c-107.333 0 -184 36.333 -230 109l12 8c44 -68.667 116.333 -103 217 -103c25.333 0 50 3.5 74 10.5s45.5 20.5 64.5 40.5s28.5 45 28.5 75zM136.997 645.999l-10 10l126 117l126 -117l-10 -10
l-116 107z" />
    <glyph glyph-name="Scedilla" unicode="&#x15e;" 
d="M223 -177l5.00098 13c23.333 -12 46 -18 68 -18c53.333 0 80 18 80 54c0 34 -27.333 51 -82 51h-16v70c-50 4 -95.667 17.167 -137 39.5s-73.333 49.5 -96 81.5l10 10c21.333 -32 54 -59.833 98 -83.5s97 -35.5 159 -35.5c59.333 0 112.166 15.667 158.499 47
s69.5 72.666 69.5 123.999c0 33.333 -8.83301 61 -26.5 83s-40.667 38.167 -69 48.5s-59.666 19 -93.999 26l-103 21c-34.333 7 -65.666 16 -93.999 27s-51.333 28.333 -69 52s-26.5 53.167 -26.5 88.5c0 50.667 23.333 94.5 70 131.5s108 55.5 184 55.5
c95.333 0 169.333 -26.333 222 -79l-7 -10c-55.333 50 -127.666 75 -216.999 75c-61.333 0 -116.333 -15.5 -165 -46.5s-73 -73.167 -73 -126.5c0 -33.333 8.83301 -61 26.5 -83s40.667 -38.167 69 -48.5s59.666 -18.833 93.999 -25.5s68.666 -13.667 102.999 -21
s65.666 -16.5 93.999 -27.5s51.333 -28.167 69 -51.5s26.5 -52.666 26.5 -87.999c0 -54 -23.5 -98.5 -70.5 -133.5s-104.5 -52.5 -172.5 -52.5c-8.66699 0 -15 0.333008 -19 1v-55c65.333 0 98 -21.667 98 -65c0 -19.333 -7.83301 -35.5 -23.5 -48.5
s-39.167 -19.5 -70.5 -19.5c-26.667 0 -51 6.33301 -73 19z" />
    <glyph glyph-name="scedilla" unicode="&#x15f;" horiz-adv-x="497" 
d="M175 -177l4.99707 12.998c23.333 -12 46 -18 68 -18c53.333 0 80 18 80 54c0 34 -27.333 51 -82 51h-16v68c-85.333 8.66699 -147.666 44.334 -186.999 107.001l12 8c44 -68.667 116.333 -103 217 -103c25.333 0 50 3.5 74 10.5s45.5 20.5 64.5 40.5s28.5 45 28.5 75
c0 26.667 -9.5 48.834 -28.5 66.501s-42.667 30.667 -71 39s-59.166 17 -92.499 26s-64.166 17.833 -92.499 26.5s-52 22.5 -71 41.5s-28.5 42.5 -28.5 70.5c0 41.333 16 74.166 48 98.499s75.667 36.5 131 36.5c86.667 0 152.334 -25.667 197.001 -77l-11 -9
c-38 48 -99.667 72 -185 72c-45.333 0 -84.333 -9.83301 -117 -29.5s-49 -50.167 -49 -91.5c0 -30.667 13.167 -55.334 39.5 -74.001s58.333 -32.5 96 -41.5s75.334 -18.333 113.001 -28s69.667 -24.667 96 -45s39.5 -47.166 39.5 -80.499
c0 -45.333 -17.833 -80.166 -53.5 -104.499s-77.834 -36.5 -126.501 -36.5c-3.33301 0 -8.33301 0.166992 -15 0.5s-11.334 0.5 -14.001 0.5v-53c65.333 0 98 -21.667 98 -65c0 -19.333 -7.83301 -35.5 -23.5 -48.5s-39.167 -19.5 -70.5 -19.5c-26.667 0 -51 6.33301 -73 19
z" />
    <glyph glyph-name="Scaron" unicode="&#x160;" 
d="M540 176c0 33.333 -8.83105 61.001 -26.498 83.001s-40.667 38.167 -69 48.5s-59.666 19 -93.999 26l-103 21c-34.333 7 -65.666 16 -93.999 27s-51.333 28.333 -69 52s-26.5 53.167 -26.5 88.5c0 50.667 23.333 94.5 70 131.5s108 55.5 184 55.5
c95.333 0 169.333 -26.333 222 -79l-7 -10c-55.333 50 -127.666 75 -216.999 75c-61.333 0 -116.333 -15.5 -165 -46.5s-73 -73.167 -73 -126.5c0 -33.333 8.83301 -61 26.5 -83s40.667 -38.167 69 -48.5s59.666 -18.833 93.999 -25.5s68.666 -13.667 102.999 -21
s65.666 -16.5 93.999 -27.5s51.333 -28.167 69 -51.5s26.5 -52.666 26.5 -87.999c0 -54 -23.5 -98.5 -70.5 -133.5s-104.5 -52.5 -172.5 -52.5c-56.667 0 -108.834 11.667 -156.501 35s-84.167 52.666 -109.5 87.999l10 10c21.333 -32 54 -59.833 98 -83.5
s97 -35.5 159 -35.5c59.333 0 112.166 15.667 158.499 47s69.5 72.666 69.5 123.999zM306.002 773.001l-179 94l7 12l172 -90l172 90l7 -12z" />
    <glyph glyph-name="scaron" unicode="&#x161;" horiz-adv-x="497" 
d="M439 129c0 26.667 -9.50293 48.833 -28.5029 66.5s-42.667 30.667 -71 39s-59.166 17 -92.499 26s-64.166 17.833 -92.499 26.5s-52 22.5 -71 41.5s-28.5 42.5 -28.5 70.5c0 41.333 16 74.166 48 98.499s75.667 36.5 131 36.5c86.667 0 152.334 -25.667 197.001 -77
l-11 -9c-38 48 -99.667 72 -185 72c-45.333 0 -84.333 -9.83301 -117 -29.5s-49 -50.167 -49 -91.5c0 -30.667 13.167 -55.334 39.5 -74.001s58.333 -32.5 96 -41.5s75.334 -18.333 113.001 -28s69.667 -24.667 96 -45s39.5 -47.166 39.5 -80.499
c0 -45.333 -17.833 -80.166 -53.5 -104.499s-77.834 -36.5 -126.501 -36.5c-107.333 0 -184 36.333 -230 109l12 8c44 -68.667 116.333 -103 217 -103c25.333 0 50 3.5 74 10.5s45.5 20.5 64.5 40.5s28.5 45 28.5 75zM123.997 759.999l10 10l116 -107l116 107l10 -10
l-126 -117z" />
    <glyph glyph-name="Tcedilla" unicode="&#x162;" horiz-adv-x="560" 
d="M218 -177l5 13c23.333 -12 46 -18 68 -18c53.333 0 80 18 80 54c0 34 -27.333 51 -82 51h-16v763h-267v14h548v-14h-267v-749c65.333 0 98 -21.667 98 -65c0 -19.333 -7.83301 -35.5 -23.5 -48.5s-39.167 -19.5 -70.5 -19.5c-26.667 0 -51 6.33301 -73 19z" />
    <glyph glyph-name="tcedilla" unicode="&#x163;" horiz-adv-x="376" 
d="M173 -177l4.99902 13c23.333 -12 46 -18 68 -18c53.333 0 80 18 80 54c0 34 -27.333 51 -82 51h-16v74c-38 6.66699 -65.5 25.5 -82.5 56.5s-25.5 74.833 -25.5 131.5v321h-120v14h120v127h14v-127h202v-14h-202v-321c0 -68 11.667 -114.667 35 -140s56 -38 98 -38
c26 0 48.333 4.83301 67 14.5s32 19.5 40 29.5l8 -13c-27.333 -30 -65.666 -45 -114.999 -45c-6 0 -14.333 0.666992 -25 2v-58c65.333 0 98 -21.667 98 -65c0 -19.333 -7.83301 -35.5 -23.5 -48.5s-39.167 -19.5 -70.5 -19.5c-26.667 0 -51 6.33301 -73 19z" />
    <glyph glyph-name="Tcaron" unicode="&#x164;" horiz-adv-x="560" 
d="M6 686v14h548v-14h-267v-686h-14v686h-267zM280 773l-179 94l7 12l172 -90l172 90l7 -12z" />
    <glyph glyph-name="tcaron" unicode="&#x165;" horiz-adv-x="376" 
d="M0 506l-0.000976562 14h120v127h14v-450c0 -72 10.833 -121.667 32.5 -149s56.5 -41 104.5 -41c22 0 42.667 4.66699 62 14s33 19.333 41 30l8 -13c-10.667 -12 -26.667 -22.5 -48 -31.5s-43.666 -13.5 -66.999 -13.5c-54 0 -92 16.167 -114 48.5s-33 83.833 -33 154.5
v310h-120zM245.999 741l15 -0.000976562c8.66699 -19.333 13 -38.666 13 -57.999c0 -24 -6 -46 -18 -66s-26.333 -35.667 -43 -47l-8 11c17.333 11.333 30.833 26.5 40.5 45.5s14.5 38.167 14.5 57.5c0 20 -4.66699 39 -14 57z" />
    <glyph glyph-name="Umacron" unicode="&#x16a;" horiz-adv-x="702" 
d="M633 700l-0.000976562 -409.999c0 -99.333 -26.833 -173.833 -80.5 -223.5s-119.5 -74.5 -197.5 -74.5c-82 0 -150.167 26.667 -204.5 80s-81.5 128.666 -81.5 225.999v402h14v-397c0 -52 7.83301 -97.833 23.5 -137.5s36.667 -70.667 63 -93s55 -39 86 -50
s64.167 -16.5 99.5 -16.5c80.667 0 144.834 25.167 192.501 75.5s71.5 121.5 71.5 213.5v405h14zM206.999 813.001v14h286v-14h-286z" />
    <glyph glyph-name="umacron" unicode="&#x16b;" horiz-adv-x="589" 
d="M509 523v-523h-14v122c-18 -42.667 -46.167 -75.5 -84.5 -98.5s-82.5 -34.5 -132.5 -34.5c-66.667 0 -118.667 18.833 -156 56.5s-56 94.5 -56 170.5v307h14v-303c0 -144.667 66 -217 198 -217c108.667 0 181 50.333 217 151v369h14zM175 674v14h239v-14h-239z" />
    <glyph glyph-name="Ubreve" unicode="&#x16c;" horiz-adv-x="702" 
d="M633 700l-0.000976562 -409.999c0 -99.333 -26.833 -173.833 -80.5 -223.5s-119.5 -74.5 -197.5 -74.5c-82 0 -150.167 26.667 -204.5 80s-81.5 128.666 -81.5 225.999v402h14v-397c0 -52 7.83301 -97.833 23.5 -137.5s36.667 -70.667 63 -93s55 -39 86 -50
s64.167 -16.5 99.5 -16.5c80.667 0 144.834 25.167 192.501 75.5s71.5 121.5 71.5 213.5v405h14zM196.999 866.001l10 8c32.667 -43.333 80 -65 142 -65s109.333 21.667 142 65l10 -8c-14 -20.667 -34.667 -37.667 -62 -51s-57.333 -20 -90 -20s-62.667 6.66699 -90 20
s-48 30.333 -62 51z" />
    <glyph glyph-name="ubreve" unicode="&#x16d;" horiz-adv-x="589" 
d="M509 523v-523h-14v122c-18 -42.667 -46.167 -75.5 -84.5 -98.5s-82.5 -34.5 -132.5 -34.5c-66.667 0 -118.667 18.833 -156 56.5s-56 94.5 -56 170.5v307h14v-303c0 -144.667 66 -217 198 -217c108.667 0 181 50.333 217 151v369h14zM144 749l12 7
c34 -48 75.333 -72 124 -72s90 24 124 72l12 -7c-34 -52.667 -79.333 -79 -136 -79s-102 26.333 -136 79z" />
    <glyph glyph-name="Uring" unicode="&#x16e;" horiz-adv-x="702" 
d="M633 700l-0.000976562 -409.999c0 -99.333 -26.833 -173.833 -80.5 -223.5s-119.5 -74.5 -197.5 -74.5c-82 0 -150.167 26.667 -204.5 80s-81.5 128.666 -81.5 225.999v402h14v-397c0 -52 7.83301 -97.833 23.5 -137.5s36.667 -70.667 63 -93s55 -39 86 -50
s64.167 -16.5 99.5 -16.5c80.667 0 144.834 25.167 192.501 75.5s71.5 121.5 71.5 213.5v405h14zM268.999 803.001c0 22.667 7.83301 41.834 23.5 57.501s34.834 23.5 57.501 23.5s42 -7.83301 58 -23.5s24 -34.834 24 -57.501s-8 -41.834 -24 -57.501
s-35.333 -23.5 -58 -23.5s-41.834 7.83301 -57.501 23.5s-23.5 34.834 -23.5 57.501zM282.999 803.001c0 -18.667 6.5 -34.5 19.5 -47.5s28.833 -19.5 47.5 -19.5s34.667 6.5 48 19.5s20 28.833 20 47.5s-6.66699 34.5 -20 47.5s-29.333 19.5 -48 19.5
s-34.5 -6.5 -47.5 -19.5s-19.5 -28.833 -19.5 -47.5z" />
    <glyph glyph-name="uring" unicode="&#x16f;" horiz-adv-x="589" 
d="M509 523v-523h-14v122c-18 -42.667 -46.167 -75.5 -84.5 -98.5s-82.5 -34.5 -132.5 -34.5c-66.667 0 -118.667 18.833 -156 56.5s-56 94.5 -56 170.5v307h14v-303c0 -144.667 66 -217 198 -217c108.667 0 181 50.333 217 151v369h14zM219 701c0 22 7.33301 40.667 22 56
s32.334 23 53.001 23c21.333 0 39.333 -7.66699 54 -23s22 -34 22 -56s-7.33301 -40.667 -22 -56s-32.667 -23 -54 -23c-20.667 0 -38.334 7.66699 -53.001 23s-22 34 -22 56zM233 701c0 -18 6 -33.333 18 -46s26.333 -19 43 -19c17.333 0 32 6.33301 44 19s18 28 18 46
s-6 33.333 -18 46s-26.667 19 -44 19c-16.667 0 -31 -6.33301 -43 -19s-18 -28 -18 -46z" />
    <glyph glyph-name="Uhungarumlaut" unicode="&#x170;" horiz-adv-x="702" 
d="M633 700l-0.000976562 -409.999c0 -99.333 -26.833 -173.833 -80.5 -223.5s-119.5 -74.5 -197.5 -74.5c-82 0 -150.167 26.667 -204.5 80s-81.5 128.666 -81.5 225.999v402h14v-397c0 -52 7.83301 -97.833 23.5 -137.5s36.667 -70.667 63 -93s55 -39 86 -50
s64.167 -16.5 99.5 -16.5c80.667 0 144.834 25.167 192.501 75.5s71.5 121.5 71.5 213.5v405h14zM516.999 856.001l-152 -84l-6 12l151 84zM388.999 856.001l-152 -84l-6 12l151 84z" />
    <glyph glyph-name="uhungarumlaut" unicode="&#x171;" horiz-adv-x="589" 
d="M509 523v-523h-14v122c-18 -42.667 -46.167 -75.5 -84.5 -98.5s-82.5 -34.5 -132.5 -34.5c-66.667 0 -118.667 18.833 -156 56.5s-56 94.5 -56 170.5v307h14v-303c0 -144.667 66 -217 198 -217c108.667 0 181 50.333 217 151v369h14zM470 800l-128 -169l-11 8l128 169z
M338 800l-128 -169l-11 8l128 169z" />
    <glyph glyph-name="Uogonek" unicode="&#x172;" horiz-adv-x="712" 
d="M638 700l-0.000976562 -410c0 -90 -22.167 -159.667 -66.5 -209s-100.5 -78 -168.5 -86c-26 -8 -48.667 -22.167 -68 -42.5s-29 -43.5 -29 -69.5c0 -23.333 7.5 -40.666 22.5 -51.999s33.833 -17 56.5 -17c18 0 32.667 3.33301 44 10l1 -15c-10 -6 -24.667 -9 -44 -9
c-22.667 -2 -44 3.83301 -64 17.5s-30 35.5 -30 65.5c0 23.333 7.5 45 22.5 65s33.167 34.667 54.5 44h-9c-82 0 -150.167 26.667 -204.5 80s-81.5 128.666 -81.5 225.999v402h14v-397c0 -52 7.83301 -97.833 23.5 -137.5s36.667 -70.667 63 -93s55 -39 86 -50
s64.167 -16.5 99.5 -16.5c80.667 0 144.834 25.167 192.501 75.5s71.5 121.5 71.5 213.5v405h14z" />
    <glyph glyph-name="uogonek" unicode="&#x173;" horiz-adv-x="589" 
d="M518 -177l3 -13.999c-12 -6 -25.667 -9 -41 -9c-22 0 -41.333 7 -58 21s-25 36 -25 66c0 28 10 53 30 75s42.667 37.667 68 47v113c-18 -42.667 -46.167 -75.5 -84.5 -98.5s-82.5 -34.5 -132.5 -34.5c-66.667 0 -118.667 18.833 -156 56.5s-56 94.5 -56 170.5v307h14
v-303c0 -144.667 66 -217 198 -217c108.667 0 181 50.333 217 151v369h14v-523c-22 -5.33301 -43.833 -18 -65.5 -38s-32.5 -45.333 -32.5 -76c0 -20.667 6 -37.834 18 -51.501s29.667 -20.5 53 -20.5c14 0 26 3 36 9z" />
    <glyph glyph-name="Ydieresis" unicode="&#x178;" horiz-adv-x="582" 
d="M578 700l-280 -391v-309h-14v309l-280 391h18l269 -376l269 376h18zM385 818c0 10.667 5.66699 16 17 16c12 0 18 -5.33301 18 -16c0 -10 -6 -15 -18 -15c-11.333 0 -17 5 -17 15zM164 818c0 10.667 5.66699 16 17 16c12 0 18 -5.33301 18 -16c0 -10 -6 -15 -18 -15
c-11.333 0 -17 5 -17 15z" />
    <glyph glyph-name="Zacute" unicode="&#x179;" horiz-adv-x="625" 
d="M37 686v14h558v-12l-558 -674h568v-14h-588v12l558 674h-538zM426 856l-152 -84l-6 12l151 84z" />
    <glyph glyph-name="zacute" unicode="&#x17a;" horiz-adv-x="474" 
d="M38 506v14h416v-10l-413 -496h407v-14h-428v12l412 494h-394zM325 769l-104 -138l-11 8l104 138z" />
    <glyph glyph-name="Zdotaccent" unicode="&#x17b;" horiz-adv-x="625" 
d="M37 686v14h558v-12l-558 -674h568v-14h-588v12l558 674h-538zM294 822c0 6.66699 1.83301 12.334 5.5 17.001s8.16699 7 13.5 7s10 -2.33301 14 -7s6 -10.334 6 -17.001s-2 -12.167 -6 -16.5s-8.66699 -6.5 -14 -6.5s-9.83301 2.16699 -13.5 6.5s-5.5 9.83301 -5.5 16.5z
" />
    <glyph glyph-name="zdotaccent" unicode="&#x17c;" horiz-adv-x="474" 
d="M38 506v14h416v-10l-413 -496h407v-14h-428v12l412 494h-394zM217 702c0 6.66699 1.83301 12.334 5.5 17.001s8.16699 7 13.5 7s10 -2.33301 14 -7s6 -10.334 6 -17.001s-2 -12.167 -6 -16.5s-8.66699 -6.5 -14 -6.5s-9.83301 2.16699 -13.5 6.5s-5.5 9.83301 -5.5 16.5z
" />
    <glyph glyph-name="Zcaron" unicode="&#x17d;" horiz-adv-x="625" 
d="M37 686v14h558v-12l-558 -674h568v-14h-588v12l558 674h-538zM313 773l-179 94l7 12l172 -90l172 90l7 -12z" />
    <glyph glyph-name="zcaron" unicode="&#x17e;" horiz-adv-x="474" 
d="M38 506v14h416v-10l-413 -496h407v-14h-428v12l412 494h-394zM130 760l10 10l116 -107l116 107l10 -10l-126 -117z" />
    <glyph glyph-name="uni018F" unicode="&#x18f;" horiz-adv-x="744" 
d="M35 364h651c-5.33301 103.333 -38 184.333 -98 243s-138 88 -234 88c-50.667 0 -99 -12.167 -145 -36.5s-83 -54.833 -111 -91.5l-12 8c30.667 40 71 72.333 121 97s99 37 147 37c102.667 0 186 -32.667 250 -98s96 -151.333 96 -258
c0 -106 -29.833 -192.833 -89.5 -260.5s-139.834 -101.5 -240.501 -101.5c-56 0 -106.167 10.333 -150.5 31s-79.666 47.667 -105.999 81s-46.333 69.5 -60 108.5s-20.5 78.833 -20.5 119.5c0 7.33301 0.666992 18.333 2 33zM686 350l-638.001 -0.000976562
c0 -2 -0.166992 -5.16699 -0.5 -9.5s-0.5 -8.16602 -0.5 -11.499c-0.666992 -88 28.833 -164 88.5 -228s137.834 -96 234.501 -96c94 0 170.167 32 228.5 96s87.5 147 87.5 249z" />
    <glyph glyph-name="florin" unicode="&#x192;" horiz-adv-x="600" 
d="M341 532l-15.0029 -86h179v-14h-182l-77 -432c-14 -76.667 -29 -126.667 -45 -150c-26 -38.667 -63.333 -58 -112 -58c-29.333 0 -53.666 5.66699 -72.999 17l6 13c18 -10.667 40 -16 66 -16c44.667 0 78.334 18 101.001 54c16 26.667 30 72.667 42 138l78 434h-172v14
h174l16 90c20.667 115.333 74.667 173 162 173c35.333 0 68 -12 98 -36l-9 -12c-26.667 22.667 -56.667 34 -90 34c-39.333 0 -71.166 -13 -95.499 -39s-41.5 -67.333 -51.5 -124z" />
    <glyph glyph-name="uni01DD" unicode="&#x1dd;" horiz-adv-x="571" 
d="M72 415l-11.998 6.99902c50 74.667 122.333 112 217 112c73.333 0 134 -25 182 -75s72 -115.667 72 -197c0 -78 -22.833 -143 -68.5 -195s-106.167 -78 -181.5 -78c-66 0 -122.667 24 -170 72s-71 105 -71 171c0 7.33301 0.166992 15.333 0.5 24s0.5 13.334 0.5 14.001
h476c-2.66699 76.667 -26.334 137.5 -71.001 182.5s-101.334 67.5 -170.001 67.5c-86.667 0 -154.667 -35 -204 -105zM283.002 2.99902c70.667 0 127.334 24.667 170.001 74s64 109 64 179h-463c-4.66699 -68 15.166 -127.167 59.499 -177.5s100.833 -75.5 169.5 -75.5z" />
    <glyph glyph-name="Scommaaccent" unicode="&#x218;" 
d="M540 176c0 33.333 -8.83105 61.001 -26.498 83.001s-40.667 38.167 -69 48.5s-59.666 19 -93.999 26l-103 21c-34.333 7 -65.666 16 -93.999 27s-51.333 28.333 -69 52s-26.5 53.167 -26.5 88.5c0 50.667 23.333 94.5 70 131.5s108 55.5 184 55.5
c95.333 0 169.333 -26.333 222 -79l-7 -10c-55.333 50 -127.666 75 -216.999 75c-61.333 0 -116.333 -15.5 -165 -46.5s-73 -73.167 -73 -126.5c0 -33.333 8.83301 -61 26.5 -83s40.667 -38.167 69 -48.5s59.666 -18.833 93.999 -25.5s68.666 -13.667 102.999 -21
s65.666 -16.5 93.999 -27.5s51.333 -28.167 69 -51.5s26.5 -52.666 26.5 -87.999c0 -54 -23.5 -98.5 -70.5 -133.5s-104.5 -52.5 -172.5 -52.5c-56.667 0 -108.834 11.667 -156.501 35s-84.167 52.666 -109.5 87.999l10 10c21.333 -32 54 -59.833 98 -83.5
s97 -35.5 159 -35.5c59.333 0 112.166 15.667 158.499 47s69.5 72.666 69.5 123.999zM299.002 -68.999l11 8.00098c16.667 -16.667 25 -37.667 25 -63c0 -38.667 -18.333 -71.334 -55 -98.001l-7 12c32 23.333 48 52 48 86c0 22 -7.33301 40.333 -22 55z" />
    <glyph glyph-name="scommaaccent" unicode="&#x219;" horiz-adv-x="497" 
d="M439 129c0 26.667 -9.50293 48.833 -28.5029 66.5s-42.667 30.667 -71 39s-59.166 17 -92.499 26s-64.166 17.833 -92.499 26.5s-52 22.5 -71 41.5s-28.5 42.5 -28.5 70.5c0 41.333 16 74.166 48 98.499s75.667 36.5 131 36.5c86.667 0 152.334 -25.667 197.001 -77
l-11 -9c-38 48 -99.667 72 -185 72c-45.333 0 -84.333 -9.83301 -117 -29.5s-49 -50.167 -49 -91.5c0 -30.667 13.167 -55.334 39.5 -74.001s58.333 -32.5 96 -41.5s75.334 -18.333 113.001 -28s69.667 -24.667 96 -45s39.5 -47.166 39.5 -80.499
c0 -45.333 -17.833 -80.166 -53.5 -104.499s-77.834 -36.5 -126.501 -36.5c-107.333 0 -184 36.333 -230 109l12 8c44 -68.667 116.333 -103 217 -103c25.333 0 50 3.5 74 10.5s45.5 20.5 64.5 40.5s28.5 45 28.5 75zM241.997 -69.001l11 8.00098
c16.667 -16.667 25 -37.667 25 -63c0 -38.667 -18.333 -71.334 -55 -98.001l-7 12c32 23.333 48 52 48 86c0 22 -7.33301 40.333 -22 55z" />
    <glyph glyph-name="Tcommaaccent" unicode="&#x21a;" horiz-adv-x="560" 
d="M6 686v14h548v-14h-267v-686h-14v686h-267zM273 -69l11 8.00098c16.667 -16.667 25 -37.667 25 -63c0 -38.667 -18.333 -71.334 -55 -98.001l-7 12c32 23.333 48 52 48 86c0 22 -7.33301 40.333 -22 55z" />
    <glyph glyph-name="tcommaaccent" unicode="&#x21b;" horiz-adv-x="376" 
d="M0 506l-0.000976562 14.001h120v127h14v-127h202v-14h-202v-321c0 -68 11.667 -114.667 35 -140s56 -38 98 -38c26 0 48.333 4.83301 67 14.5s32 19.5 40 29.5l8 -13c-27.333 -30 -65.666 -45 -114.999 -45c-52 0 -89.5 15.667 -112.5 47s-34.5 79.666 -34.5 144.999v321
h-120zM215.999 -68.999l11 8.00098c16.667 -16.667 25 -37.667 25 -63c0 -38.667 -18.333 -71.334 -55 -98.001l-7 12c32 23.333 48 52 48 86c0 22 -7.33301 40.333 -22 55z" />
    <glyph glyph-name="uni0237" unicode="&#x237;" horiz-adv-x="224" 
d="M121 520l0.00195312 -540c0 -126 -44.667 -189 -134 -189c-42.667 0 -76.334 15.333 -101.001 46l11 12c23.333 -29.333 53.333 -44 90 -44c41.333 0 71.666 14.333 90.999 43s29 72.667 29 132v540h14z" />
    <glyph glyph-name="uni0259" unicode="&#x259;" horiz-adv-x="571" 
d="M72 415l-11.998 6.99902c50 74.667 122.333 112 217 112c73.333 0 134 -25 182 -75s72 -115.667 72 -197c0 -78 -22.833 -143 -68.5 -195s-106.167 -78 -181.5 -78c-66 0 -122.667 24 -170 72s-71 105 -71 171c0 7.33301 0.166992 15.333 0.5 24s0.5 13.334 0.5 14.001
h476c-2.66699 76.667 -26.334 137.5 -71.001 182.5s-101.334 67.5 -170.001 67.5c-86.667 0 -154.667 -35 -204 -105zM283.002 2.99902c70.667 0 127.334 24.667 170.001 74s64 109 64 179h-463c-4.66699 -68 15.166 -127.167 59.499 -177.5s100.833 -75.5 169.5 -75.5z" />
    <glyph glyph-name="afii57929" unicode="&#x2bc;" horiz-adv-x="142" 
d="M108 716l12 6.99805c14.667 -21.333 22 -43.666 22 -66.999c0 -41.333 -20.333 -74.666 -61 -99.999l-7 12c36 22.667 54 52 54 88c0 22 -6.66699 42 -20 60z" />
    <glyph glyph-name="circumflex" unicode="&#x2c6;" horiz-adv-x="441" 
d="M194 646l-10 10l126 117l126 -117l-10 -10l-116 107z" />
    <glyph glyph-name="caron" unicode="&#x2c7;" horiz-adv-x="438" 
d="M184 760l10 10l116 -107l116 107l10 -10l-126 -117z" />
    <glyph glyph-name="breve" unicode="&#x2d8;" horiz-adv-x="432" 
d="M160 749l12 7c34 -48 75.333 -72 124 -72s90 24 124 72l12 -7c-34 -52.667 -79.333 -79 -136 -79s-102 26.333 -136 79z" />
    <glyph glyph-name="dotaccent" unicode="&#x2d9;" horiz-adv-x="250" 
d="M91 702c0 6.66699 1.83301 12.334 5.5 17.001s8.16699 7 13.5 7s10 -2.33301 14 -7s6 -10.334 6 -17.001s-2 -12.167 -6 -16.5s-8.66699 -6.5 -14 -6.5s-9.83301 2.16699 -13.5 6.5s-5.5 9.83301 -5.5 16.5z" />
    <glyph glyph-name="ring" unicode="&#x2da;" horiz-adv-x="388" 
d="M237 701c0 22 7.33301 40.667 22 56s32.334 23 53.001 23c21.333 0 39.333 -7.66699 54 -23s22 -34 22 -56s-7.33301 -40.667 -22 -56s-32.667 -23 -54 -23c-20.667 0 -38.334 7.66699 -53.001 23s-22 34 -22 56zM251 701c0 -18 6 -33.333 18 -46s26.333 -19 43 -19
c17.333 0 32 6.33301 44 19s18 28 18 46s-6 33.333 -18 46s-26.667 19 -44 19c-16.667 0 -31 -6.33301 -43 -19s-18 -28 -18 -46z" />
    <glyph glyph-name="ogonek" unicode="&#x2db;" horiz-adv-x="350" 
d="M347 -177l3 -13.998c-12 -6 -25.667 -9 -41 -9c-22 0 -41.333 7 -58 21s-25 36 -25 66c0 30.667 12 57.667 36 81s49.333 38.666 76 45.999v-14c-22 -5.33301 -43.833 -18 -65.5 -38s-32.5 -45.333 -32.5 -76c0 -20.667 6 -37.834 18 -51.501s29.667 -20.5 53 -20.5
c14 0 26 3 36 9z" />
    <glyph glyph-name="tilde" unicode="&#x2dc;" horiz-adv-x="453" 
d="M168 654l-7.99902 9.00098c32.667 31.333 62.334 47 89.001 47c14 0 35.333 -9.33301 64 -28s50.334 -28 65.001 -28c23.333 0 45 13.667 65 41l10 -8c-24 -31.333 -49.333 -47 -76 -47c-14.667 0 -36.334 9.33301 -65.001 28s-50 28 -64 28c-10 0 -19.833 -2 -29.5 -6
s-17.334 -8.33301 -23.001 -13s-14.834 -12.334 -27.501 -23.001z" />
    <glyph glyph-name="hungarumlaut" unicode="&#x2dd;" horiz-adv-x="515" 
d="M515 800l-128 -169l-11 8l128 169zM383 800l-128 -169l-11 8l128 169z" />
    <glyph glyph-name="gravecomb" unicode="&#x300;" horiz-adv-x="0" 
d="M-263 631l-104 138l11 8l104 -138z" />
    <glyph glyph-name="acutecomb" unicode="&#x301;" horiz-adv-x="0" 
d="M-192 769l-104 -138l-11 8l104 138z" />
    <glyph glyph-name="uni0394" unicode="&#x394;" horiz-adv-x="705" 
d="M43 0l303 708h5l310 -708h-618zM349 678l-284 -664h574z" />
    <glyph glyph-name="uni0394" unicode="&#x2206;" horiz-adv-x="705" 
d="M43 0l303 708h5l310 -708h-618zM349 678l-284 -664h574z" />
    <glyph glyph-name="uni03A9" unicode="&#x3a9;" horiz-adv-x="796" 
d="M74 335c0 -47.333 8.66406 -91.167 25.9971 -131.5s39.5 -73.333 66.5 -99s55.167 -46.167 84.5 -61.5s58 -25 86 -29v-14h-217v14h171c-62 18 -116 56 -162 114s-69 127 -69 207c0 102 33 189.333 99 262s145.667 109 239 109s173 -36.333 239 -109s99 -160 99 -262
c0 -80 -23.167 -149.167 -69.5 -207.5s-100.166 -96.166 -161.499 -113.499h171v-14h-217v14c28 4 56.667 13.667 86 29s57.5 35.833 84.5 61.5s49.167 58.667 66.5 99s26 84.166 26 131.499c0 67.333 -15.667 128.833 -47 184.5s-71.666 98.334 -120.999 128.001
s-101.333 44.5 -156 44.5s-106.667 -14.833 -156 -44.5s-89.666 -72.334 -120.999 -128.001s-47 -117.167 -47 -184.5z" />
    <glyph glyph-name="uni03A9" unicode="&#x2126;" horiz-adv-x="796" 
d="M74 335c0 -47.333 8.66406 -91.167 25.9971 -131.5s39.5 -73.333 66.5 -99s55.167 -46.167 84.5 -61.5s58 -25 86 -29v-14h-217v14h171c-62 18 -116 56 -162 114s-69 127 -69 207c0 102 33 189.333 99 262s145.667 109 239 109s173 -36.333 239 -109s99 -160 99 -262
c0 -80 -23.167 -149.167 -69.5 -207.5s-100.166 -96.166 -161.499 -113.499h171v-14h-217v14c28 4 56.667 13.667 86 29s57.5 35.833 84.5 61.5s49.167 58.667 66.5 99s26 84.166 26 131.499c0 67.333 -15.667 128.833 -47 184.5s-71.666 98.334 -120.999 128.001
s-101.333 44.5 -156 44.5s-106.667 -14.833 -156 -44.5s-89.666 -72.334 -120.999 -128.001s-47 -117.167 -47 -184.5z" />
    <glyph glyph-name="pi" unicode="&#x3c0;" horiz-adv-x="738" 
d="M53 506l0.000976562 14h648v-14h-154v-388c0 -69.333 28.667 -104 86 -104c30 0 55.667 8.66699 77 26l5 -15c-26 -16.667 -53.667 -25 -83 -25c-66 0 -99 39 -99 117v389h-315v-104c0 -91.333 -3.16699 -161.5 -9.5 -210.5s-18.833 -88.167 -37.5 -117.5
c-30.667 -48 -76.334 -72.667 -137.001 -74v14c54.667 1.33301 96 23 124 65c14.667 22 25.5 52.333 32.5 91s11 72 12 100s1.5 72 1.5 132v104h-151z" />
    <glyph glyph-name="afii10023" unicode="&#x401;" horiz-adv-x="631" 
d="M86 0v700h474v-14h-460v-323h430v-14h-430v-335h470v-14h-484zM424 818c0 10.667 5.66699 16 17 16c12 0 18 -5.33301 18 -16c0 -10 -6 -15 -18 -15c-11.333 0 -17 5 -17 15zM203 818c0 10.667 5.66699 16 17 16c12 0 18 -5.33301 18 -16c0 -10 -6 -15 -18 -15
c-11.333 0 -17 5 -17 15z" />
    <glyph glyph-name="afii10051" unicode="&#x402;" horiz-adv-x="712" 
d="M654 196c0 57.333 -16 105.001 -48 143.001s-76.333 57 -133 57c-78 0 -139.667 -33 -185 -99v-297h-14v686h-269v14h550v-14h-267v-369c18 25.333 43.5 47.166 76.5 65.499s69.5 27.5 109.5 27.5c53.333 0 99 -18.333 137 -55s57 -90 57 -160
c0 -68 -14.833 -119 -44.5 -153s-65.167 -51 -106.5 -51c-35.333 0 -62.333 13 -81 39l13 10c13.333 -23.333 36 -35 68 -35c38.667 0 71.167 15.667 97.5 47s39.5 79.333 39.5 144z" />
    <glyph glyph-name="afii10052" unicode="&#x403;" horiz-adv-x="550" 
d="M86 0v700h464v-14h-450v-686h-14zM449 856l-152 -84l-6 12l151 84z" />
    <glyph glyph-name="afii10053" unicode="&#x404;" horiz-adv-x="678" 
d="M470 364l0.00195312 -13.999h-412c1.33301 -108.667 33.666 -193.334 96.999 -254.001s147.666 -91 252.999 -91c39.333 0 80 7.83301 122 23.5s79.667 40.5 113 74.5l6 -11c-25.333 -30.667 -60.333 -55.167 -105 -73.5s-89.667 -27.5 -135 -27.5
c-110 0 -198.333 32.333 -265 97s-100 152 -100 262c0 106.667 31.333 193.167 94 259.5s149.667 99.5 261 99.5c46 0 90.5 -8.16699 133.5 -24.5s78.5 -40.833 106.5 -73.5l-7 -10c-63.333 62.667 -141 94 -233 94c-105.333 0 -187.5 -30.667 -246.5 -92
s-90.5 -141 -94.5 -239h412z" />
    <glyph glyph-name="afii10054" unicode="&#x405;" 
d="M540 176c0 33.333 -8.83105 61.001 -26.498 83.001s-40.667 38.167 -69 48.5s-59.666 19 -93.999 26l-103 21c-34.333 7 -65.666 16 -93.999 27s-51.333 28.333 -69 52s-26.5 53.167 -26.5 88.5c0 50.667 23.333 94.5 70 131.5s108 55.5 184 55.5
c95.333 0 169.333 -26.333 222 -79l-7 -10c-55.333 50 -127.666 75 -216.999 75c-61.333 0 -116.333 -15.5 -165 -46.5s-73 -73.167 -73 -126.5c0 -33.333 8.83301 -61 26.5 -83s40.667 -38.167 69 -48.5s59.666 -18.833 93.999 -25.5s68.666 -13.667 102.999 -21
s65.666 -16.5 93.999 -27.5s51.333 -28.167 69 -51.5s26.5 -52.666 26.5 -87.999c0 -54 -23.5 -98.5 -70.5 -133.5s-104.5 -52.5 -172.5 -52.5c-56.667 0 -108.834 11.667 -156.501 35s-84.167 52.666 -109.5 87.999l10 10c21.333 -32 54 -59.833 98 -83.5
s97 -35.5 159 -35.5c59.333 0 112.166 15.667 158.499 47s69.5 72.666 69.5 123.999z" />
    <glyph glyph-name="afii10055" unicode="&#x406;" horiz-adv-x="198" 
d="M92 0v700h14v-700h-14z" />
    <glyph glyph-name="afii10056" unicode="&#x407;" horiz-adv-x="198" 
d="M22 816c0 12 4.66699 18 14 18s14 -6 14 -18c0 -11.333 -4.66699 -17 -14 -17s-14 5.66699 -14 17zM149 816c0 12 4.66699 18 14 18s14 -6 14 -18c0 -11.333 -4.66699 -17 -14 -17s-14 5.66699 -14 17zM92 0v700h14v-700h-14z" />
    <glyph glyph-name="afii10057" unicode="&#x408;" horiz-adv-x="483" 
d="M397 700v-501.999c0 -65.333 -18.5 -116.166 -55.5 -152.499s-84.833 -54.5 -143.5 -54.5c-45.333 0 -84.5 11.667 -117.5 35s-58.5 51 -76.5 83l12 7c18.667 -32.667 44 -59.334 76 -80.001s67.333 -31 106 -31c56.667 0 101.667 17.167 135 51.5s50 84.166 50 149.499
v494h14z" />
    <glyph glyph-name="afii10058" unicode="&#x409;" horiz-adv-x="1007" 
d="M715 383h-161v-369h155c166.667 0 250 61.333 250 184c0 60 -21.5 105.833 -64.5 137.5s-102.833 47.5 -179.5 47.5zM189 700l365 0.000976562v-303h163c82 0 145.167 -17.167 189.5 -51.5s66.5 -83.5 66.5 -147.5c0 -132 -88.333 -198 -265 -198h-168v686h-337
c0 -55.333 -0.5 -104.833 -1.5 -148.5s-3.16699 -90.167 -6.5 -139.5s-7.83301 -92.5 -13.5 -129.5s-13.5 -73 -23.5 -108s-21.667 -63.833 -35 -86.5s-29.666 -40.834 -48.999 -54.501s-41 -20.5 -65 -20.5c-3.33301 0 -6.33301 0.333008 -9 1v14
c38 -3.33301 70.167 12 96.5 46s46.166 84 59.499 150s22.5 138.667 27.5 218s6.83301 170 5.5 272z" />
    <glyph glyph-name="afii10059" unicode="&#x40a;" horiz-adv-x="1045" 
d="M592 397h172c80 0 141.167 -18.167 183.5 -54.5s63.5 -83.833 63.5 -142.5c0 -133.333 -86.333 -200 -259 -200h-174v383h-478v-383h-14v700h14v-303h478v303h14v-303zM762 383h-170v-369h158c164.667 0 247 62.333 247 187c0 55.333 -20.833 99.5 -62.5 132.5
s-99.167 49.5 -172.5 49.5z" />
    <glyph glyph-name="afii10060" unicode="&#x40b;" horiz-adv-x="724" 
d="M5 686v14h550v-14h-267v-371c54 63.333 119 95 195 95c131.333 0 197 -72.667 197 -218v-192h-14v192c0 136 -61 204 -183 204c-76 0 -141 -33.667 -195 -101v-295h-14v686h-269z" />
    <glyph glyph-name="afii10061" unicode="&#x40c;" horiz-adv-x="615" 
d="M86 0v700h14v-411l457 411h22l-363 -326l390 -374h-19l-381 365l-106 -95v-270h-14zM421 856l-152 -84l-6 12l151 84z" />
    <glyph glyph-name="afii10062" unicode="&#x40e;" horiz-adv-x="639" 
d="M185 15l11.9951 10.001c10.667 -7.33301 21.667 -11 33 -11c10 0 19.833 2.83301 29.5 8.5s17.834 11.834 24.501 18.501s14.167 16.667 22.5 30s14.333 23.333 18 30s9.16699 17.667 16.5 33s11.333 23.666 12 24.999l-343 541h16l335 -527l267 527h15l-276 -546
c-1.33301 -2 -6.16602 -11.5 -14.499 -28.5s-14.333 -29 -18 -36s-10.167 -17.5 -19.5 -31.5s-17.666 -24.333 -24.999 -31s-16.666 -12.834 -27.999 -18.501s-22.666 -8.5 -33.999 -8.5c-14.667 0 -29 5 -43 15zM185.995 836.001h14.002c19.333 -45.333 66.333 -68 141 -68
s121.667 22.667 141 68h14c-8.66699 -25.333 -26.834 -45.333 -54.501 -60s-61.167 -22 -100.5 -22s-72.833 7.33301 -100.5 22s-45.834 34.667 -54.501 60z" />
    <glyph glyph-name="afii10145" unicode="&#x40f;" horiz-adv-x="698" 
d="M86 0v700h14v-686h498v686h14v-700h-256v-165h-14v165h-256z" />
    <glyph glyph-name="afii10017" unicode="&#x410;" horiz-adv-x="649" 
d="M7 0l311 704h13l311 -704h-15l-105 239h-396l-105 -239h-14zM324 689l-191 -436h383z" />
    <glyph glyph-name="afii10018" unicode="&#x411;" horiz-adv-x="654" 
d="M552 700v-14h-452v-304h252c170.667 0 256 -61.667 256 -185c0 -131.333 -85.333 -197 -256 -197h-266v700h466zM352 368h-252v-354h251c162 0 243 61 243 183c0 114 -80.667 171 -242 171z" />
    <glyph glyph-name="afii10019" unicode="&#x412;" horiz-adv-x="667" 
d="M86 0l0.00195312 700.001h264c156 0 234 -56 234 -168c0 -43.333 -13.833 -80.833 -41.5 -112.5s-65.834 -51.834 -114.501 -60.501c55.333 -0.666992 99.666 -15.667 132.999 -45s50 -69.333 50 -120c0 -68 -22 -117.333 -66 -148s-109.667 -46 -197 -46h-262z
M368.002 351.001h-268v-337h248c166 0 249 59 249 177c0 106.667 -76.333 160 -229 160zM346.002 686.001l-246 0.000976562v-321h268c58 0 106.167 15.167 144.5 45.5s57.5 71.166 57.5 122.499c0 102 -74.667 153 -224 153z" />
    <glyph glyph-name="afii10020" unicode="&#x413;" horiz-adv-x="550" 
d="M86 0v700h464v-14h-450v-686h-14z" />
    <glyph glyph-name="afii10021" unicode="&#x414;" horiz-adv-x="726" 
d="M0 -140l0.00195312 154h72c33.333 34.667 63.666 96.5 90.999 185.5s42.666 204.5 45.999 346.5l4 154h405v-686h98v-154h-14v140h-688v-140h-14zM227.002 686l-5.00098 -160.002c-3.33301 -111.333 -16.666 -214.166 -39.999 -308.499s-54 -162.166 -92 -203.499h514
v672h-377z" />
    <glyph glyph-name="afii10022" unicode="&#x415;" horiz-adv-x="631" 
d="M86 0v700h474v-14h-460v-323h430v-14h-430v-335h470v-14h-484z" />
    <glyph glyph-name="afii10024" unicode="&#x416;" horiz-adv-x="884" 
d="M435 324v376h14v-376l393 376h20l-335 -321l351 -379h-19l-342 369l-68 -65v-304h-14v304l-68 65l-342 -369h-19l351 379l-335 321h20z" />
    <glyph glyph-name="afii10025" unicode="&#x417;" horiz-adv-x="624" 
d="M312 -8c-129.333 0 -224.333 42.666 -285 127.999l11 9c60.667 -82 152 -123 274 -123c72 0 131.833 16.5 179.5 49.5s71.5 78.5 71.5 136.5c0 48.667 -20 87.334 -60 116.001s-91.667 43 -155 43h-145v14h146c49.333 0 92.833 14 130.5 42s56.5 65.667 56.5 113
c0 56 -22.667 99 -68 129s-101.333 45 -168 45c-105.333 0 -189.333 -43 -252 -129l-11 9c25.333 34.667 59.5 65.667 102.5 93s96.5 41 160.5 41c75.333 0 135.833 -16 181.5 -48s68.5 -78.667 68.5 -140c0 -42 -13.833 -77.167 -41.5 -105.5s-61.167 -46.833 -100.5 -55.5
c53.333 -8 94.833 -27.333 124.5 -58s44.5 -67 44.5 -109c0 -62 -25.167 -110.833 -75.5 -146.5s-113.5 -53.5 -189.5 -53.5z" />
    <glyph glyph-name="afii10026" unicode="&#x418;" horiz-adv-x="729" 
d="M100 0h-14v700h14v-677l529 677h14v-700h-14v677z" />
    <glyph glyph-name="afii10027" unicode="&#x419;" horiz-adv-x="729" 
d="M100 0h-14v700h14v-677l529 677h14v-700h-14v677zM208 836h14.002c19.333 -45.333 66.333 -68 141 -68s121.667 22.667 141 68h14c-8.66699 -25.333 -26.834 -45.333 -54.501 -60s-61.167 -22 -100.5 -22s-72.833 7.33301 -100.5 22s-45.834 34.667 -54.501 60z" />
    <glyph glyph-name="afii10028" unicode="&#x41a;" horiz-adv-x="615" 
d="M86 0v700h14v-411l457 411h22l-363 -326l390 -374h-19l-381 365l-106 -95v-270h-14z" />
    <glyph glyph-name="afii10029" unicode="&#x41b;" horiz-adv-x="689" 
d="M589 0v686.001h-386c0 -55.333 -0.5 -104.833 -1.5 -148.5s-3.16699 -90.167 -6.5 -139.5s-7.83301 -92.5 -13.5 -129.5s-13.5 -73 -23.5 -108s-21.667 -63.833 -35 -86.5s-29.666 -40.834 -48.999 -54.501s-41 -20.5 -65 -20.5c-3.33301 0 -6.33301 0.333008 -9 1v14
c38 -3.33301 70.167 12 96.5 46s46.166 84 59.499 150s22.5 138.667 27.5 218s6.83301 170 5.5 272h414v-700h-14z" />
    <glyph glyph-name="afii10030" unicode="&#x41c;" horiz-adv-x="821" 
d="M86 0v700h14l310 -422l312 422h13v-700h-14v677l-309 -419h-4l-308 418v-676h-14z" />
    <glyph glyph-name="afii10031" unicode="&#x41d;" horiz-adv-x="743" 
d="M643 0v352h-543v-352h-14v700h14v-334h543v334h14v-700h-14z" />
    <glyph glyph-name="afii10032" unicode="&#x41e;" horiz-adv-x="785" 
d="M44 350c0 101.333 33.501 186.5 100.501 255.5s149.5 103.5 247.5 103.5c98.667 0 181.5 -34 248.5 -102s100.5 -153.667 100.5 -257c0 -102 -34 -187.333 -102 -256s-150.333 -103 -247 -103s-178.834 34 -246.501 102s-101.5 153.667 -101.5 257zM58.001 350
c0 -96 32.667 -177.501 98 -244.501s144 -100.5 236 -100.5c95.333 0 175 33.333 239 100s96 148.334 96 245.001c0 97.333 -32.5 179.166 -97.5 245.499s-144.167 99.5 -237.5 99.5s-172.333 -33.167 -237 -99.5s-97 -148.166 -97 -245.499z" />
    <glyph glyph-name="afii10033" unicode="&#x41f;" horiz-adv-x="735" 
d="M635 0v686h-535v-686h-14v700h563v-700h-14z" />
    <glyph glyph-name="afii10034" unicode="&#x420;" horiz-adv-x="654" 
d="M100 0h-13.999v700h249c183.333 0 275 -65.333 275 -196c0 -60 -21.833 -108.667 -65.5 -146s-113.834 -56 -210.501 -56h-234v-302zM341.001 686h-241v-370h232c90 0 156.5 16.667 199.5 50s64.5 79.333 64.5 138c0 121.333 -85 182 -255 182z" />
    <glyph glyph-name="afii10035" unicode="&#x421;" horiz-adv-x="679" 
d="M643 103l5.99902 -10.998c-22 -27.333 -55.333 -51 -100 -71s-92 -30 -142 -30c-111.333 0 -199.666 32.5 -264.999 97.5s-98 152.167 -98 261.5c0 103.333 30.833 189 92.5 257s145.5 102 251.5 102c110 0 193.667 -32.667 251 -98l-7 -10
c-32.667 31.333 -67.5 54.833 -104.5 70.5s-83.5 23.5 -139.5 23.5c-100 0 -180 -32.333 -240 -97s-90 -147.334 -90 -248.001c0 -104.667 31.333 -188.334 94 -251.001s147 -94 253 -94c50 0 95.5 9.5 136.5 28.5s74.833 42.167 101.5 69.5z" />
    <glyph glyph-name="afii10036" unicode="&#x422;" horiz-adv-x="560" 
d="M6 686v14h548v-14h-267v-686h-14v686h-267z" />
    <glyph glyph-name="afii10037" unicode="&#x423;" horiz-adv-x="639" 
d="M185 15l11.9951 10.001c10.667 -7.33301 21.667 -11 33 -11c10 0 19.833 2.83301 29.5 8.5s17.834 11.834 24.501 18.501s14.167 16.667 22.5 30s14.333 23.333 18 30s9.16699 17.667 16.5 33s11.333 23.666 12 24.999l-343 541h16l335 -527l267 527h15l-276 -546
c-1.33301 -2 -6.16602 -11.5 -14.499 -28.5s-14.333 -29 -18 -36s-10.167 -17.5 -19.5 -31.5s-17.666 -24.333 -24.999 -31s-16.666 -12.834 -27.999 -18.501s-22.666 -8.5 -33.999 -8.5c-14.667 0 -29 5 -43 15z" />
    <glyph glyph-name="afii10038" unicode="&#x424;" horiz-adv-x="822" 
d="M404 -15l0.00292969 61.0049c-114 0 -204.5 27 -271.5 81s-100.5 131.667 -100.5 233c0 51.333 9.5 96.666 28.5 135.999s45.5 71.166 79.5 95.499s73.167 42.5 117.5 54.5s93.166 18 146.499 18v51h14v-51c49.333 0 95.166 -5.33301 137.499 -16
s81.5 -27.334 117.5 -50.001s64.5 -54.334 85.5 -95.001s31.5 -88.334 31.5 -143.001c0 -100.667 -33.833 -178.167 -101.5 -232.5s-157.834 -81.5 -270.501 -81.5v-61h-14zM418.003 650.005v-590.001c104.667 0 190.5 25.833 257.5 77.5s100.5 125.834 100.5 222.501
c0 96 -32.833 168.333 -98.5 217s-152.167 73 -259.5 73zM46.0029 360.004c0 -66.667 16.499 -123 49.499 -169s75.833 -79.333 128.5 -100s112.667 -31 180 -31v590c-46 0 -89.167 -5 -129.5 -15s-78.166 -25.667 -113.499 -47s-63.333 -51.5 -84 -90.5
s-31 -84.833 -31 -137.5z" />
    <glyph glyph-name="afii10039" unicode="&#x425;" horiz-adv-x="605" 
d="M569 700l-257 -345l265 -355h-18l-256 343l-256 -343h-19l266 355l-257 345h18l248 -333l249 333h17z" />
    <glyph glyph-name="afii10040" unicode="&#x426;" horiz-adv-x="739" 
d="M86 0v700h14v-686h518v686h14v-686h97v-154h-14v140h-629z" />
    <glyph glyph-name="afii10041" unicode="&#x427;" horiz-adv-x="657" 
d="M571 700l-0.000976562 -699.999h-14v342c-22 -14.667 -58.5 -29.334 -109.5 -44.001s-97.167 -22 -138.5 -22c-76 0 -137.5 17.167 -184.5 51.5s-70.5 87.833 -70.5 160.5v212h14v-213c0 -62 20.333 -110.333 61 -145s100.667 -52 180 -52
c88.667 0 171.334 22.333 248.001 67v343h14z" />
    <glyph glyph-name="afii10042" unicode="&#x428;" horiz-adv-x="910" 
d="M86 0v700h14v-686h348v686h14v-686h348v686h14v-700h-738z" />
    <glyph glyph-name="afii10043" unicode="&#x429;" horiz-adv-x="932" 
d="M86 0v700h14v-686h348v686h14v-686h348v686h14v-686h98v-154h-14v140h-822z" />
    <glyph glyph-name="afii10044" unicode="&#x42a;" horiz-adv-x="744" 
d="M0 686v14h199v-293h248c88 0 153.833 -17.167 197.5 -51.5s65.5 -81.5 65.5 -141.5c0 -68.667 -23.5 -121.5 -70.5 -158.5s-114.5 -55.5 -202.5 -55.5h-252v686h-185zM445 393h-246v-379h240c82 0 145.333 17 190 51s67 83.667 67 149c0 58 -21.667 102.333 -65 133
s-105.333 46 -186 46z" />
    <glyph glyph-name="afii10045" unicode="&#x42b;" horiz-adv-x="820" 
d="M720 0v700h14v-700h-14zM86 0v700h14v-293h218c88 0 153.833 -17.167 197.5 -51.5s65.5 -81.5 65.5 -141.5c0 -68.667 -23.5 -121.5 -70.5 -158.5s-114.5 -55.5 -202.5 -55.5h-222zM316 393h-216v-379h210c82 0 145.333 17 190 51s67 83.667 67 149
c0 58 -21.667 102.333 -65 133s-105.333 46 -186 46z" />
    <glyph glyph-name="afii10046" unicode="&#x42c;" horiz-adv-x="643" 
d="M86 0v700h14v-293h248c88 0 153.833 -17.167 197.5 -51.5s65.5 -81.5 65.5 -141.5c0 -68.667 -23.5 -121.5 -70.5 -158.5s-114.5 -55.5 -202.5 -55.5h-252zM346 393h-246v-379h240c82 0 145.333 17 190 51s67 83.667 67 149c0 58 -21.667 102.333 -65 133
s-105.333 46 -186 46z" />
    <glyph glyph-name="afii10047" unicode="&#x42d;" horiz-adv-x="682" 
d="M193 350l0.00292969 13.998h430c-2 100.667 -30.833 181 -86.5 241s-133.834 90 -234.501 90c-56 0 -107.167 -12 -153.5 -36s-83.5 -54.667 -111.5 -92l-13 8c31.333 41.333 71.5 74 120.5 98s101.5 36 157.5 36c106 0 188.5 -32 247.5 -96s88.5 -150.667 88.5 -260
c0 -102.667 -30.833 -188.667 -92.5 -258s-146.834 -104 -255.501 -104c-104 0 -190.667 38 -260 114l12 11c26.667 -31.333 61.5 -57.666 104.5 -78.999s90.833 -32 143.5 -32c98.667 0 178.167 31.333 238.5 94s92.166 146.334 95.499 251.001h-431z" />
    <glyph glyph-name="afii10048" unicode="&#x42e;" horiz-adv-x="976" 
d="M86 0l-0.000976562 700.001h14v-336h179c2 97.333 34 179.166 96 245.499s139.333 99.5 232 99.5c94.667 0 172.667 -33.667 234 -101s92 -153.333 92 -258c0 -104 -30.333 -189.833 -91 -257.5s-139 -101.5 -235 -101.5c-94.667 0 -172.167 33.833 -232.5 101.5
s-92.166 153.5 -95.499 257.5h-179v-350h-14zM292.999 356.001c0 -98 29.668 -181.002 89.001 -249.002s134.666 -102 225.999 -102c92.667 0 167.667 32.833 225 98.5s86 147.834 86 246.501c0 98 -29.667 180 -89 246s-134 99 -224 99
c-89.333 0 -163.833 -32.667 -223.5 -98s-89.5 -145.666 -89.5 -240.999z" />
    <glyph glyph-name="afii10049" unicode="&#x42f;" horiz-adv-x="680" 
d="M580 0l0.000976562 290.999h-275l-252 -291h-19l254 293c-60.667 8 -111 30 -151 66s-60 81.667 -60 137c0 58.667 21.667 107.334 65 146.001s107.666 58 192.999 58h259v-700h-14zM580.001 304.999v380.998h-247c-80.667 0 -141.167 -17.833 -181.5 -53.5
s-60.5 -81.167 -60.5 -136.5c0 -49.333 18.5 -91.666 55.5 -126.999s86.833 -56.666 149.5 -63.999h284z" />
    <glyph glyph-name="afii10065" unicode="&#x430;" horiz-adv-x="532" 
d="M83 452l-12 11.002c22 20 50.667 36.833 86 50.5s67 20.5 95 20.5c143.333 0 215 -68.333 215 -205v-329h-14v131c-48 -92 -125.333 -138 -232 -138c-55.333 0 -100 13.667 -134 41s-51 64.666 -51 111.999s19.833 83.166 59.5 107.499s94.5 36.5 164.5 36.5
c30 0 65.833 -2.16699 107.5 -6.5s70.167 -8.83301 85.5 -13.5v51c0 132.667 -67.667 199 -203 199c-59.333 0 -115 -22.667 -167 -68zM224 7.00195c60.667 0 110.501 16.333 149.501 49s65.5 67 79.5 103v97c-50.667 13.333 -116 20 -196 20
c-64 0 -114.5 -10.667 -151.5 -32s-55.5 -54.333 -55.5 -99c0 -42 16.667 -75.5 50 -100.5s74.666 -37.5 123.999 -37.5z" />
    <glyph glyph-name="afii10066" unicode="&#x431;" horiz-adv-x="616" 
d="M509 743l0.999023 -13.002c-29.333 -10 -74.666 -19.667 -135.999 -29s-106 -20.333 -134 -33c-108 -48.667 -167.333 -154.667 -178 -318h3c22 54.667 56.5 96.167 103.5 124.5s97.167 42.5 150.5 42.5c80 0 142.833 -23 188.5 -69s68.5 -108.667 68.5 -188
c0 -74 -24 -137.5 -72 -190.5s-110.667 -79.5 -188 -79.5c-81.333 0 -146.333 27.5 -195 82.5s-73 127.5 -73 217.5c0 104.667 15.667 189.334 47 254.001s80.666 111 147.999 139c30.667 12.667 75.334 23.334 134.001 32.001s102.667 18 132 28zM61.999 303.998
c-2.66699 -86.667 18.8311 -158.333 64.498 -215s108.834 -85 189.501 -85c72 0 131 24.833 177 74.5s69 110.5 69 182.5c0 75.333 -21.833 134.5 -65.5 177.5s-103.167 64.5 -178.5 64.5c-68.667 0 -125.167 -19.833 -169.5 -59.5s-73.166 -86.167 -86.499 -139.5z" />
    <glyph glyph-name="afii10067" unicode="&#x432;" horiz-adv-x="551" 
d="M80 0v520h204c68 0 117.833 -10 149.5 -30s47.5 -52.333 47.5 -97c0 -34.667 -11 -62.667 -33 -84s-48.333 -35.333 -79 -42c90 -11.333 135 -54.333 135 -129c0 -46 -17.333 -80.5 -52 -103.5s-90 -34.5 -166 -34.5h-206zM309 259h-215v-245h191
c70.667 0 122.5 9.5 155.5 28.5s49.5 50.5 49.5 94.5c0 81.333 -60.333 122 -181 122zM284 506l-190.001 -0.00195312v-233h214c48.667 0 87.334 10.5 116.001 31.5s43 50.5 43 88.5c0 23.333 -5 42.833 -15 58.5s-24.333 27.334 -43 35.001s-37.667 12.834 -57 15.501
s-42 4 -68 4z" />
    <glyph glyph-name="afii10068" unicode="&#x433;" horiz-adv-x="429" 
d="M80 0v520h349v-14h-335v-506h-14z" />
    <glyph glyph-name="afii10069" unicode="&#x434;" horiz-adv-x="606" 
d="M4 -142l0.000976562 156h54c36.667 48 61.667 104.833 75 170.5s21.666 142.167 24.999 229.5l4 106h341v-506h81v-156h-14v142h-552v-142h-14zM176.001 506l-4 -95c-8 -194 -40.333 -326.333 -97 -397h414v492h-313z" />
    <glyph glyph-name="afii10070" unicode="&#x435;" horiz-adv-x="571" 
d="M506 94l7.99902 -9.99902c-17.333 -28 -45.5 -50.833 -84.5 -68.5s-79.167 -26.5 -120.5 -26.5c-81.333 0 -146.5 24.667 -195.5 74s-73.5 115.333 -73.5 198c0 79.333 23.667 144.666 71 195.999s112 77 194 77c66 0 120.167 -21.667 162.5 -65
s63.5 -99.666 63.5 -168.999c0 -16.667 -0.666992 -28.334 -2 -35.001h-475c0 -79.333 23.333 -142.833 70 -190.5s109.334 -71.5 188.001 -71.5c40 0 78 8.33301 114 25s62.667 38.667 80 66zM298.999 520.001c-72 0 -129.999 -23 -173.999 -69s-67.667 -103.333 -71 -172
h463c1.33301 74.667 -17.334 133.5 -56.001 176.5s-92.667 64.5 -162 64.5z" />
    <glyph glyph-name="afii10072" unicode="&#x436;" horiz-adv-x="742" 
d="M364 237v283h14v-283l316 283h20l-273 -245l293 -275h-21l-283 266l-52 -47v-219h-14v219l-52 47l-283 -266h-21l293 275l-273 245h20z" />
    <glyph glyph-name="afii10073" unicode="&#x437;" horiz-adv-x="524" 
d="M268 -10c-104 0 -182.666 35 -235.999 105l12 9c45.333 -66.667 120 -100 224 -100c60 0 107.5 12.5 142.5 37.5s52.5 60.167 52.5 105.5c0 36 -13.833 63.667 -41.5 83s-66.834 29 -117.501 29h-138v14h138c36 0 68 11.167 96 33.5s42 50.833 42 85.5
c0 40.667 -15.833 72 -47.5 94s-76.5 33 -134.5 33c-82 0 -146 -29 -192 -87l-12 9c48 61.333 116 92 204 92c60 0 107.667 -12.167 143 -36.5s53 -57.833 53 -100.5c0 -30.667 -9.83301 -57.5 -29.5 -80.5s-43.5 -38.833 -71.5 -47.5
c42.667 -6.66699 73.667 -20.667 93 -42s29 -47.333 29 -78c0 -50.667 -18.833 -89.667 -56.5 -117s-88.5 -41 -152.5 -41z" />
    <glyph glyph-name="afii10074" unicode="&#x438;" horiz-adv-x="612" 
d="M94 0h-14v520h14v-498l424 498h14v-520h-14v498z" />
    <glyph glyph-name="afii10075" unicode="&#x439;" horiz-adv-x="612" 
d="M94 0h-14v520h14v-498l424 498h14v-520h-14v498zM163 712h14c1.33301 -34 14.333 -62.167 39 -84.5s56 -33.5 94 -33.5s69.333 11.167 94 33.5s37.667 50.5 39 84.5h14c-1.33301 -36 -15.333 -67 -42 -93s-61.667 -39 -105 -39s-78.333 13 -105 39s-40.667 57 -42 93z
" />
    <glyph glyph-name="afii10076" unicode="&#x43a;" horiz-adv-x="506" 
d="M80 0v520h14v-288l358 288h22l-308 -248l331 -272h-22l-320 263l-61 -49v-214h-14z" />
    <glyph glyph-name="afii10077" unicode="&#x43b;" horiz-adv-x="586" 
d="M492 0l0.000976562 505.999h-325v-22c0 -73.333 -2.5 -137.833 -7.5 -193.5s-13.167 -106.667 -24.5 -153s-27.833 -81.5 -49.5 -105.5s-48.167 -35.667 -79.5 -35v14c51.333 0.666992 88.666 40.334 111.999 119.001s35 198 35 358v32h353v-520h-14z" />
    <glyph glyph-name="afii10078" unicode="&#x43c;" horiz-adv-x="680" 
d="M80 0v520h14l250 -319l242 319h14v-520h-14v498l-242 -320l-250 320v-498h-14z" />
    <glyph glyph-name="afii10079" unicode="&#x43d;" horiz-adv-x="604" 
d="M510 0v260h-416v-260h-14v520h14v-246h416v246h14v-520h-14z" />
    <glyph glyph-name="afii10080" unicode="&#x43e;" horiz-adv-x="618" 
d="M40 261c0 80.667 25 146.334 75 197.001s114.667 76 194 76s144 -25.333 194 -76s75 -116.334 75 -197.001s-25 -146.167 -75 -196.5s-114.667 -75.5 -194 -75.5s-144 25.167 -194 75.5s-75 115.833 -75 196.5zM54 260c0 -74.667 23.667 -136.167 71 -184.5
s108.666 -72.5 183.999 -72.5s136.666 24.167 183.999 72.5s71 109.833 71 184.5c0 76.667 -23.667 139.167 -71 187.5s-108.666 72.5 -183.999 72.5s-136.666 -24.167 -183.999 -72.5s-71 -110.833 -71 -187.5z" />
    <glyph glyph-name="afii10081" unicode="&#x43f;" horiz-adv-x="598" 
d="M504 0v506h-410v-506h-14v520h438v-520h-14z" />
    <glyph glyph-name="afii10082" unicode="&#x440;" horiz-adv-x="605" 
d="M80 -200v720.001h14v-120c22.667 45.333 53.834 79 93.501 101s83.167 33 130.5 33c72.667 0 132 -24.5 178 -73.5s69 -112.167 69 -189.5c0 -80.667 -24.5 -147.834 -73.5 -201.501s-110.833 -80.5 -185.5 -80.5c-88.667 0 -159.334 35 -212.001 105v-294h-14z
M318 520.001c-104.667 0 -179.333 -48.667 -224 -146v-256c24 -38 54.667 -66.667 92 -86s77.333 -29 120 -29c70.667 0 129.167 25.333 175.5 76s69.5 114.667 69.5 192c0 72 -21.667 131.5 -65 178.5s-99.333 70.5 -168 70.5z" />
    <glyph glyph-name="afii10083" unicode="&#x441;" horiz-adv-x="524" 
d="M496 82l7.99902 -10c-18.667 -26 -45 -46.333 -79 -61s-71 -22 -111 -22c-82 0 -148.167 24.833 -198.5 74.5s-75.5 115.5 -75.5 197.5c0 78 24.833 143 74.5 195s115.167 78 196.5 78c80.667 0 140.334 -26 179.001 -78l-9 -10c-42.667 49.333 -100 74 -172 74
c-72.667 0 -133.334 -24.667 -182.001 -74s-73 -111 -73 -185c0 -80 23.833 -143 71.5 -189s109.834 -69 186.501 -69c37.333 0 73 7 107 21s59.667 33.333 77 58z" />
    <glyph glyph-name="afii10084" unicode="&#x442;" horiz-adv-x="462" 
d="M0 506v14h462v-14h-224v-506h-14v506h-224z" />
    <glyph glyph-name="afii10085" unicode="&#x443;" horiz-adv-x="521" 
d="M110 -209l4.99805 13.999c1.33301 0 3.33301 -0.166992 6 -0.5s4.66699 -0.5 6 -0.5c26 0 49.833 11.667 71.5 35s45.834 67 72.501 131l10 24l-274 526h16l266 -510l211 510h16l-221 -532c-18 -43.333 -34.5 -78.666 -49.5 -105.999s-29.5 -47.5 -43.5 -60.5
s-26.5 -21.5 -37.5 -25.5s-23.833 -6 -38.5 -6c-7.33301 0 -12.666 0.333008 -15.999 1z" />
    <glyph glyph-name="afii10086" unicode="&#x444;" horiz-adv-x="690" 
d="M338 -200v190.001c-94 0 -166.833 24.833 -218.5 74.5s-77.5 114.5 -77.5 194.5c0 75.333 26 139.166 78 191.499s124.667 78.5 218 78.5v201h14v-201c91.333 0 163.5 -25.5 216.5 -76.5s79.5 -115.5 79.5 -193.5c0 -80 -25.833 -144.833 -77.5 -194.5
s-124.5 -74.5 -218.5 -74.5v-190h-14zM56 259.001c0 -75.333 23.999 -136.667 71.999 -184s118 -71 210 -71v511c-87.333 0 -156.166 -24.333 -206.499 -73s-75.5 -109.667 -75.5 -183zM351.999 515l0.000976562 -511.001c89.333 0 158.666 23.833 207.999 71.5
s74 108.834 74 183.501c0 74 -25 135.167 -75 183.5s-119 72.5 -207 72.5z" />
    <glyph glyph-name="afii10087" unicode="&#x445;" horiz-adv-x="488" 
d="M440 520h19l-206 -253l217 -267h-19l-207 255l-207 -255h-19l216 267l-205 253h19l196 -242z" />
    <glyph glyph-name="afii10088" unicode="&#x446;" horiz-adv-x="620" 
d="M80 0v520h14v-506h407v506h14v-506h83v-156h-14v142h-504z" />
    <glyph glyph-name="afii10089" unicode="&#x447;" horiz-adv-x="565" 
d="M485 520v-520h-14v241c-55.333 -34 -124.333 -51 -207 -51c-132 0 -198 55 -198 165v165h14v-156c0 -56 16 -96.667 48 -122s80.333 -38 145 -38c82.667 0 148.667 17.667 198 53v263h14z" />
    <glyph glyph-name="afii10090" unicode="&#x448;" horiz-adv-x="750" 
d="M80 0v520h14v-506h274v506h14v-506h274v506h14v-520h-590z" />
    <glyph glyph-name="afii10091" unicode="&#x449;" horiz-adv-x="774" 
d="M80 0v520h14v-506h274v506h14v-506h274v506h14v-506h82v-156h-14v142h-658z" />
    <glyph glyph-name="afii10092" unicode="&#x44a;" horiz-adv-x="588" 
d="M-2 506v14h169v-191h185c133.333 0 200 -53.667 200 -161c0 -50 -16 -90.5 -48 -121.5s-84.667 -46.5 -158 -46.5h-193v506h-155zM352 315h-184.999v-301h177c129.333 0 194 51.333 194 154c0 48 -14.333 84.5 -43 109.5s-76.334 37.5 -143.001 37.5z" />
    <glyph glyph-name="afii10093" unicode="&#x44b;" horiz-adv-x="677" 
d="M583 0v520h14v-520h-14zM80 0v520h14v-191h162c133.333 0 200 -53.667 200 -161c0 -50 -16 -90.5 -48 -121.5s-84.667 -46.5 -158 -46.5h-170zM256 315h-162v-301h154c129.333 0 194 51.333 194 154c0 98 -62 147 -186 147z" />
    <glyph glyph-name="afii10094" unicode="&#x44c;" horiz-adv-x="515" 
d="M80 0v520h14v-191h185c133.333 0 200 -53.667 200 -161c0 -50 -16 -90.5 -48 -121.5s-84.667 -46.5 -158 -46.5h-193zM279 315h-185v-301h177c129.333 0 194 51.333 194 154c0 98 -62 147 -186 147z" />
    <glyph glyph-name="afii10095" unicode="&#x44d;" horiz-adv-x="533" 
d="M178 260l0.000976562 14h301c-4.66699 76.667 -28.834 136.834 -72.501 180.501s-100.5 65.5 -170.5 65.5c-90.667 0 -160 -33.667 -208 -101l-12 8c53.333 71.333 126.666 107 219.999 107c77.333 0 139.5 -24.833 186.5 -74.5s70.5 -115.834 70.5 -198.501
c0 -78 -23.833 -142.833 -71.5 -194.5s-110.167 -77.5 -187.5 -77.5c-48 0 -88.667 7.66699 -122 23s-64.333 38.333 -93 69l10 11c15.333 -16 29.5 -29.333 42.5 -40s34.333 -21.5 64 -32.5s62.5 -16.5 98.5 -16.5c73.333 0 132.833 24.833 178.5 74.5
s67.834 110.5 66.501 182.5h-301z" />
    <glyph glyph-name="afii10096" unicode="&#x44e;" horiz-adv-x="826" 
d="M80 0l0.00195312 519.999h14v-245h161c5.33301 74.667 32.666 136.5 81.999 185.5s110.666 73.5 183.999 73.5c76.667 0 140 -25.667 190 -77s75 -116.666 75 -195.999c0 -78 -25.333 -142.833 -76 -194.5s-113.667 -77.5 -189 -77.5c-74.667 0 -137 25.833 -187 77.5
s-76.333 116.5 -79 194.5h-161v-261h-14zM269.002 262.999c0 -74 24.333 -135.833 73 -185.5s108.667 -74.5 180 -74.5s130.833 24.5 178.5 73.5s71.5 110.5 71.5 184.5s-23.667 135.667 -71 185s-107 74 -179 74s-132.167 -24.5 -180.5 -73.5s-72.5 -110.167 -72.5 -183.5z
" />
    <glyph glyph-name="afii10097" unicode="&#x44f;" horiz-adv-x="535" 
d="M248 520h207v-520h-14v216h-205l-206 -216h-20l209 218c-46.667 1.33301 -86.667 15 -120 41s-50 61.333 -50 106c0 45.333 16.167 82.5 48.5 111.5s82.5 43.5 150.5 43.5zM63 365c0 -46.667 18.168 -80.833 54.501 -102.5s80.833 -32.5 133.5 -32.5h190v276h-195
c-62.667 0 -108.834 -13 -138.501 -39s-44.5 -60 -44.5 -102z" />
    <glyph glyph-name="afii10071" unicode="&#x451;" horiz-adv-x="571" 
d="M506 94l7.99902 -9.99902c-17.333 -28 -45.5 -50.833 -84.5 -68.5s-79.167 -26.5 -120.5 -26.5c-81.333 0 -146.5 24.667 -195.5 74s-73.5 115.333 -73.5 198c0 79.333 23.667 144.666 71 195.999s112 77 194 77c66 0 120.167 -21.667 162.5 -65
s63.5 -99.666 63.5 -168.999c0 -16.667 -0.666992 -28.334 -2 -35.001h-475c0 -79.333 23.333 -142.833 70 -190.5s109.334 -71.5 188.001 -71.5c40 0 78 8.33301 114 25s62.667 38.667 80 66zM298.999 520.001c-72 0 -129.999 -23 -173.999 -69s-67.667 -103.333 -71 -172
h463c1.33301 74.667 -17.334 133.5 -56.001 176.5s-92.667 64.5 -162 64.5zM414 707.001c0 6 1.8291 11.167 5.49609 15.5s7.83398 6.5 12.501 6.5s8.83398 -2.16699 12.501 -6.5s5.5 -9.5 5.5 -15.5s-1.66699 -11 -5 -15s-7.66602 -6 -12.999 -6s-9.66602 2 -12.999 6
s-5 9 -5 15zM154.996 707.001c0 6 1.8291 11.167 5.49609 15.5s7.83398 6.5 12.501 6.5s8.83398 -2.16699 12.501 -6.5s5.5 -9.5 5.5 -15.5s-1.66699 -11 -5 -15s-7.66602 -6 -12.999 -6s-9.66602 2 -12.999 6s-5 9 -5 15z" />
    <glyph glyph-name="afii10099" unicode="&#x452;" horiz-adv-x="649" 
d="M0 522l0.000976562 13.999h156v194h14v-194h249v-14h-249v-248c27.333 38 60.166 67 98.499 87s77.833 30 118.5 30c62.667 0 114.667 -19.833 156 -59.5s62 -97.834 62 -174.501c0 -85.333 -18.333 -156.666 -55 -213.999s-93.334 -104.666 -170.001 -141.999l-7 14
c145.333 60.667 218 174.667 218 342c0 60.667 -16.667 112.5 -50 155.5s-84.666 64.5 -153.999 64.5c-88.667 0 -161 -41 -217 -123v-254h-14v522h-156z" />
    <glyph glyph-name="afii10100" unicode="&#x453;" horiz-adv-x="429" 
d="M80 0v520h349v-14h-335v-506h-14zM358 769l-105 -138l-11 8l105 138z" />
    <glyph glyph-name="afii10101" unicode="&#x454;" horiz-adv-x="542" 
d="M365 274l0.00195312 -13.998h-311c0.666992 -79.333 24.667 -142 72 -188s107.666 -69 180.999 -69c80.667 0 143.667 30.333 189 91l8 -10c-18 -28.667 -44.167 -51.667 -78.5 -69s-73.5 -26 -117.5 -26c-78.667 0 -143 25.167 -193 75.5s-75 115.833 -75 196.5
c0 81.333 25.5 147.166 76.5 197.499s116.167 75.5 195.5 75.5s138.666 -26 177.999 -78l-9 -10c-44 49.333 -100 74 -168 74c-71.333 0 -130.833 -21.833 -178.5 -65.5s-74.5 -103.834 -80.5 -180.501h311z" />
    <glyph glyph-name="afii10102" unicode="&#x455;" horiz-adv-x="497" 
d="M439 129c0 26.667 -9.50293 48.833 -28.5029 66.5s-42.667 30.667 -71 39s-59.166 17 -92.499 26s-64.166 17.833 -92.499 26.5s-52 22.5 -71 41.5s-28.5 42.5 -28.5 70.5c0 41.333 16 74.166 48 98.499s75.667 36.5 131 36.5c86.667 0 152.334 -25.667 197.001 -77
l-11 -9c-38 48 -99.667 72 -185 72c-45.333 0 -84.333 -9.83301 -117 -29.5s-49 -50.167 -49 -91.5c0 -30.667 13.167 -55.334 39.5 -74.001s58.333 -32.5 96 -41.5s75.334 -18.333 113.001 -28s69.667 -24.667 96 -45s39.5 -47.166 39.5 -80.499
c0 -45.333 -17.833 -80.166 -53.5 -104.499s-77.834 -36.5 -126.501 -36.5c-107.333 0 -184 36.333 -230 109l12 8c44 -68.667 116.333 -103 217 -103c25.333 0 50 3.5 74 10.5s45.5 20.5 64.5 40.5s28.5 45 28.5 75z" />
    <glyph glyph-name="afii10103" unicode="&#x456;" horiz-adv-x="197" 
d="M92 0v520h14v-520h-14zM79 702c0 6.66699 1.83301 12.334 5.5 17.001s8.16699 7 13.5 7s10 -2.33301 14 -7s6 -10.334 6 -17.001s-2 -12.167 -6 -16.5s-8.66699 -6.5 -14 -6.5s-9.83301 2.16699 -13.5 6.5s-5.5 9.83301 -5.5 16.5z" />
    <glyph glyph-name="afii10104" unicode="&#x457;" horiz-adv-x="283" 
d="M135 0v520h14v-520h-14zM56 706c0 6.66699 1.5 12.167 4.5 16.5s6.5 6.5 10.5 6.5s7.5 -2.16699 10.5 -6.5s4.5 -9.83301 4.5 -16.5c0 -14.667 -5 -22 -15 -22s-15 7.33301 -15 22zM196 706c0 6.66699 1.5 12.167 4.5 16.5s6.5 6.5 10.5 6.5s7.5 -2.16699 10.5 -6.5
s4.5 -9.83301 4.5 -16.5c0 -14.667 -5 -22 -15 -22s-15 7.33301 -15 22z" />
    <glyph glyph-name="afii10105" unicode="&#x458;" horiz-adv-x="206" 
d="M115 520l0.00195312 -540c0 -126 -44.667 -189 -134 -189c-42.667 0 -76.334 15.333 -101.001 46l11 12c23.333 -29.333 53.333 -44 90 -44c41.333 0 71.666 14.333 90.999 43s29 72.667 29 132v540h14zM88.002 701c0 6.66699 1.83301 12.334 5.5 17.001
s8.16699 7 13.5 7s10 -2.33301 14 -7s6 -10.334 6 -17.001s-2 -12.167 -6 -16.5s-8.66699 -6.5 -14 -6.5s-9.83301 2.16699 -13.5 6.5s-5.5 9.83301 -5.5 16.5z" />
    <glyph glyph-name="afii10106" unicode="&#x459;" horiz-adv-x="839" 
d="M606 315h-106v-301h93c132 0 198 51.333 198 154c0 48 -14.333 84.5 -43 109.5s-76 37.5 -142 37.5zM153 520l347.001 -0.000976562v-191h104c134 0 201 -53.667 201 -161c0 -50 -16 -90.5 -48 -121.5s-84.333 -46.5 -157 -46.5h-114v506h-319v-22
c0 -73.333 -2.5 -137.833 -7.5 -193.5s-13.167 -106.667 -24.5 -153s-27.833 -81.5 -49.5 -105.5s-48.167 -35.667 -79.5 -35v14c51.333 0.666992 88.666 40.334 111.999 119.001s35 198 35 358v32z" />
    <glyph glyph-name="afii10107" unicode="&#x45a;" horiz-adv-x="865" 
d="M79 0l-0.000976562 520h14v-231h417v231h14v-231h109c72.667 0 123.5 -12 152.5 -36s43.5 -59.667 43.5 -107c0 -46 -15.167 -81.833 -45.5 -107.5s-82.166 -38.5 -155.499 -38.5h-118v275h-417v-275h-14zM632.999 275l-109.001 -0.000976562v-261h102
c68.667 0 117.334 11 146.001 33s43 55 43 99c0 46.667 -14.167 79.834 -42.5 99.501s-74.833 29.5 -139.5 29.5z" />
    <glyph glyph-name="afii10108" unicode="&#x45b;" horiz-adv-x="650" 
d="M0 522v14h156v194h14v-194h249v-14h-249v-266c20 42 48.667 75.667 86 101s81.333 38 132 38c146.667 0 220 -78 220 -234v-161h-14v152c0 78 -17.333 135.667 -52 173s-87.667 56 -159 56c-93.333 0 -164.333 -50.333 -213 -151v-230h-14v522h-156z" />
    <glyph glyph-name="afii10109" unicode="&#x45c;" horiz-adv-x="506" 
d="M80 0v520h14v-288l358 288h22l-308 -248l331 -272h-22l-320 263l-61 -49v-214h-14zM369 769l-105 -138l-11 8l105 138z" />
    <glyph glyph-name="afii10110" unicode="&#x45e;" horiz-adv-x="521" 
d="M110 -209l4.99805 13.999c1.33301 0 3.33301 -0.166992 6 -0.5s4.66699 -0.5 6 -0.5c26 0 49.833 11.667 71.5 35s45.834 67 72.501 131l10 24l-274 526h16l266 -510l211 510h16l-221 -532c-18 -43.333 -34.5 -78.666 -49.5 -105.999s-29.5 -47.5 -43.5 -60.5
s-26.5 -21.5 -37.5 -25.5s-23.833 -6 -38.5 -6c-7.33301 0 -12.666 0.333008 -15.999 1zM121.998 711.999h14c1.33301 -34 14.333 -62.167 39 -84.5s56 -33.5 94 -33.5s69.333 11.167 94 33.5s37.667 50.5 39 84.5h14c-1.33301 -36 -15.333 -67 -42 -93
s-61.667 -39 -105 -39s-78.333 13 -105 39s-40.667 57 -42 93z" />
    <glyph glyph-name="afii10193" unicode="&#x45f;" horiz-adv-x="642" 
d="M112 0v520h14v-506h390v506h14v-520h-202v-164h-14v164h-202z" />
    <glyph glyph-name="afii10146" unicode="&#x462;" horiz-adv-x="718" 
d="M1 555l-1 14h160v131h14v-131h264v-14h-264v-148h248c88 0 153.833 -17.167 197.5 -51.5s65.5 -81.5 65.5 -141.5c0 -68.667 -23.5 -121.5 -70.5 -158.5s-114.5 -55.5 -202.5 -55.5h-252v555h-159zM420 393h-246v-379h240c82 0 145.333 17 190 51s67 83.667 67 149
c0 58 -21.667 102.333 -65 133s-105.333 46 -186 46z" />
    <glyph glyph-name="afii10194" unicode="&#x463;" horiz-adv-x="566" 
d="M130 0v506h-132v14h132v210h14v-210h210v-14h-210v-177h185c133.333 0 200 -53.667 200 -161c0 -50 -16 -90.5 -48 -121.5s-84.667 -46.5 -158 -46.5h-193zM329 315h-184.999v-301h177c129.333 0 194 51.333 194 154c0 48 -14.333 84.5 -43 109.5
s-76.334 37.5 -143.001 37.5z" />
    <glyph glyph-name="afii10147" unicode="&#x472;" horiz-adv-x="785" 
d="M44 350c0 101.333 33.501 186.5 100.501 255.5s149.5 103.5 247.5 103.5c98.667 0 181.5 -34 248.5 -102s100.5 -153.667 100.5 -257c0 -102 -34 -187.333 -102 -256s-150.333 -103 -247 -103s-178.834 34 -246.501 102s-101.5 153.667 -101.5 257zM392.001 5
c94.667 0 173.833 32.8311 237.5 98.498s96.167 146.834 97.5 243.501h-669c0.666992 -95.333 33.5 -176.166 98.5 -242.499s143.5 -99.5 235.5 -99.5zM392 694.998c-91.333 0 -169.168 -32 -233.501 -96s-97.833 -143.333 -100.5 -238h668
c-2.66699 94.667 -36.167 174 -100.5 238s-142.166 96 -233.499 96z" />
    <glyph glyph-name="afii10195" unicode="&#x473;" horiz-adv-x="618" 
d="M40 261c0 80.667 25 146.334 75 197.001s114.667 76 194 76s144 -25.333 194 -76s75 -116.334 75 -197.001s-25 -146.167 -75 -196.5s-114.667 -75.5 -194 -75.5s-144 25.167 -194 75.5s-75 115.833 -75 196.5zM309 3c74.667 0 135.667 23.833 183 71.5
s71.333 108.834 72 183.501h-510c0.666992 -74.667 24.5 -135.834 71.5 -183.501s108.167 -71.5 183.5 -71.5zM309 520c-73.333 0 -133.5 -23 -180.5 -69s-71.833 -105.667 -74.5 -179h510c-3.33301 74 -28.333 133.833 -75 179.5s-106.667 68.5 -180 68.5z" />
    <glyph glyph-name="afii10148" unicode="&#x474;" horiz-adv-x="769" 
d="M632 573l-270 -573.002h-14l-344 700h16l335 -682l268 570c24 50 44.333 83 61 99c14.667 14.667 33 22 55 22c15.333 0 29.666 -5 42.999 -15l-9 -11c-8 8 -19.333 12 -34 12c-17.333 0 -32.666 -6.33301 -45.999 -19c-4 -4 -8 -8.66699 -12 -14
s-7.5 -10.166 -10.5 -14.499s-6.5 -10.333 -10.5 -18s-7 -13.5 -9 -17.5l-10 -20c-4.66699 -9.33301 -7.66699 -15.666 -9 -18.999z" />
    <glyph glyph-name="afii10196" unicode="&#x475;" horiz-adv-x="560" 
d="M443 409l-183.999 -408.999h-14l-244 520h16l235 -501l170 378c21.333 47.333 41 80.666 59 99.999c15.333 15.333 32.666 23 51.999 23c14.667 0 27 -5 37 -15l-10 -10c-6.66699 7.33301 -16 11 -28 11c-16 0 -30.667 -7 -44 -21c-13.333 -14.667 -28.333 -40 -45 -76z
" />
    <glyph glyph-name="afii10050" unicode="&#x490;" horiz-adv-x="556" 
d="M86 0v700h450v138h14v-152h-450v-686h-14z" />
    <glyph glyph-name="afii10098" unicode="&#x491;" horiz-adv-x="428" 
d="M79 0v520h335v119h14v-133h-335v-506h-14z" />
    <glyph glyph-name="uni1E9E" unicode="&#x1e9e;" horiz-adv-x="654" 
d="M320 708c112.667 0 188.665 -43.333 227.998 -130l-205 -218c168 0.666992 252 -59 252 -179c0 -56.667 -18.833 -102.334 -56.5 -137.001s-90.5 -52 -158.5 -52c-50.667 0 -91 8.33301 -121 25l7 14c32 -16.667 70 -25 114 -25c60.667 0 109.334 15 146.001 45
s55 73.333 55 130c0 110.667 -79.333 166 -238 166h-22v11l210 222c-38.667 76 -109 114 -211 114c-25.333 0 -49.666 -3.5 -72.999 -10.5s-46.5 -18.167 -69.5 -33.5s-41.5 -38.5 -55.5 -69.5s-21 -67.833 -21 -110.5v-470h-14v477c0 42.667 7.5 79.667 22.5 111
s34.5 55.333 58.5 72s48.833 28.834 74.5 36.501s51.5 11.5 77.5 11.5z" />
    <glyph glyph-name="uni2010" unicode="&#x2010;" horiz-adv-x="400" 
d="M96 261v14h199v-14h-199z" />
    <glyph glyph-name="uni2011" unicode="&#x2011;" horiz-adv-x="400" 
d="M96 261v14h199v-14h-199z" />
    <glyph glyph-name="figuredash" unicode="&#x2012;" horiz-adv-x="590" 
d="M99 343v14h381v-14h-381z" />
    <glyph glyph-name="endash" unicode="&#x2013;" horiz-adv-x="580" 
d="M99 259v14h381v-14h-381z" />
    <glyph glyph-name="emdash" unicode="&#x2014;" horiz-adv-x="795" 
d="M99 259v14h596v-14h-596z" />
    <glyph glyph-name="quoteleft" unicode="&#x2018;" horiz-adv-x="233" 
d="M124 564l-11 -8c-12.667 18.667 -19 39 -19 61c0 46 19.333 81.333 58 106l6 -12c-33.333 -19.333 -50 -50.666 -50 -93.999c0 -22.667 5.33301 -40.334 16 -53.001z" />
    <glyph glyph-name="quoteright" unicode="&#x2019;" horiz-adv-x="233" 
d="M109 716l11 6.99902c12 -17.333 18 -36.666 18 -57.999c0 -46 -19 -82.333 -57 -109l-7 11c33.333 22 50 54.667 50 98c0 21.333 -5 38.333 -15 51z" />
    <glyph glyph-name="quotesinglbase" unicode="&#x201a;" horiz-adv-x="233" 
d="M109 18l11 7c12.667 -12.667 19 -31.667 19 -57c0 -46 -19.333 -82.667 -58 -110l-7 11c34 22 51 54.333 51 97c0 20 -5.33301 37.333 -16 52z" />
    <glyph glyph-name="quotedblleft" unicode="&#x201c;" horiz-adv-x="337" 
d="M124 564l-11 -8c-12.667 18.667 -19 38 -19 58c0 48 19.333 84.333 58 109l6 -12c-33.333 -19.333 -50 -51.666 -50 -96.999c0 -20.667 5.33301 -37.334 16 -50.001zM228 564l-11 -8c-12.667 18.667 -19 38 -19 58c0 48 19.333 84.333 58 109l6 -12
c-33.333 -19.333 -50 -51.666 -50 -96.999c0 -20.667 5.33301 -37.334 16 -50.001z" />
    <glyph glyph-name="quotedblright" unicode="&#x201d;" horiz-adv-x="337" 
d="M110 716l11 6.99902c12 -17.333 18 -36.666 18 -57.999c0 -46 -19 -82.333 -57 -109l-7 11c33.333 22 50 54.667 50 98c0 21.333 -5 38.333 -15 51zM214 715.999l11 6.99902c12 -17.333 18 -36.666 18 -57.999c0 -46 -19 -82.333 -57 -109l-7 11
c33.333 22 50 54.667 50 98c0 21.333 -5 38.333 -15 51z" />
    <glyph glyph-name="quotedblbase" unicode="&#x201e;" horiz-adv-x="337" 
d="M109 18l11 7c12.667 -12.667 19 -31.667 19 -57c0 -46 -19.333 -82.667 -58 -110l-7 11c34 22 51 54.333 51 97c0 20 -5.33301 37.333 -16 52zM213 18l11 7c12.667 -12.667 19 -31.667 19 -57c0 -46 -19.333 -82.667 -58 -110l-7 11c34 22 51 54.333 51 97
c0 20 -5.33301 37.333 -16 52z" />
    <glyph glyph-name="dagger" unicode="&#x2020;" horiz-adv-x="418" 
d="M47 446v14h155v240h14v-240h155v-14h-155v-551h-14v551h-155z" />
    <glyph glyph-name="daggerdbl" unicode="&#x2021;" horiz-adv-x="414" 
d="M44 441v14h156v245h14v-245h156v-14h-156v-255h156v-14h-156v-277h-14v277h-156v14h156v255h-156z" />
    <glyph glyph-name="bullet" unicode="&#x2022;" horiz-adv-x="230" 
d="M24 362c0 12 3.83301 22.167 11.5 30.5s16.834 12.5 27.501 12.5c11.333 0 20.833 -4.16699 28.5 -12.5s11.5 -18.5 11.5 -30.5s-3.83301 -22.167 -11.5 -30.5s-17.167 -12.5 -28.5 -12.5c-10.667 0 -19.834 4.16699 -27.501 12.5s-11.5 18.5 -11.5 30.5z" />
    <glyph glyph-name="ellipsis" unicode="&#x2026;" horiz-adv-x="863" 
d="M99 20c0 6 1.66895 11 5.00195 15s7.66602 6 12.999 6s9.83301 -2 13.5 -6s5.5 -9 5.5 -15s-1.83301 -11.167 -5.5 -15.5s-8.16699 -6.5 -13.5 -6.5c-4.66699 0 -8.83398 2.16699 -12.501 6.5s-5.5 9.5 -5.5 15.5zM727.002 20c0 6 1.66895 11 5.00195 15
s7.66602 6 12.999 6s9.83301 -2 13.5 -6s5.5 -9 5.5 -15s-1.83301 -11.167 -5.5 -15.5s-8.16699 -6.5 -13.5 -6.5c-4.66699 0 -8.83398 2.16699 -12.501 6.5s-5.5 9.5 -5.5 15.5zM413.004 20c0 6 1.66895 11 5.00195 15s7.66602 6 12.999 6s9.83301 -2 13.5 -6
s5.5 -9 5.5 -15s-1.83301 -11.167 -5.5 -15.5s-8.16699 -6.5 -13.5 -6.5c-4.66699 0 -8.83398 2.16699 -12.501 6.5s-5.5 9.5 -5.5 15.5z" />
    <glyph glyph-name="perthousand" unicode="&#x2030;" horiz-adv-x="1219" 
d="M57 550c0 44.667 15.5 81.667 46.5 111s69.167 44 114.5 44s83.666 -14.667 114.999 -44s47 -66.333 47 -111s-15.667 -81.667 -47 -111s-69.666 -44 -114.999 -44s-83.5 14.667 -114.5 44s-46.5 66.333 -46.5 111zM71 550c0 -41.333 14.501 -75.167 43.501 -101.5
s63.5 -39.5 103.5 -39.5c41.333 0 76.333 13 105 39s43 60 43 102s-14.333 76 -43 102s-63.667 39 -105 39c-40.667 0 -75.334 -13 -104.001 -39s-43 -60 -43 -102zM142.001 4.99902l522 702l11 -8l-522 -703zM431.001 148.999c0 44.667 15.5 81.667 46.5 111
s69.167 44 114.5 44s83.666 -14.667 114.999 -44s47 -66.333 47 -111s-15.667 -81.667 -47 -111s-69.666 -44 -114.999 -44s-83.5 14.667 -114.5 44s-46.5 66.333 -46.5 111zM445.001 148.999c0 -41.333 14.501 -75.167 43.501 -101.5s63.5 -39.5 103.5 -39.5
c41.333 0 76.333 13 105 39s43 60 43 102s-14.333 76 -43 102s-63.667 39 -105 39c-40.667 0 -75.334 -13 -104.001 -39s-43 -60 -43 -102zM838.002 148.998c0 44.667 15.5 81.667 46.5 111s69.167 44 114.5 44s83.666 -14.667 114.999 -44s47 -66.333 47 -111
s-15.667 -81.667 -47 -111s-69.666 -44 -114.999 -44s-83.5 14.667 -114.5 44s-46.5 66.333 -46.5 111zM852.002 148.998c0 -41.333 14.501 -75.167 43.501 -101.5s63.5 -39.5 103.5 -39.5c41.333 0 76.333 13 105 39s43 60 43 102s-14.333 76 -43 102s-63.667 39 -105 39
c-40.667 0 -75.334 -13 -104.001 -39s-43 -60 -43 -102z" />
    <glyph glyph-name="guilsinglleft" unicode="&#x2039;" horiz-adv-x="329" 
d="M238 38l-178 205v4l178 205l11 -9l-171 -198l171 -197z" />
    <glyph glyph-name="guilsinglright" unicode="&#x203a;" horiz-adv-x="329" 
d="M249 243l-178 -205l-11 10l171 197l-171 198l11 9l178 -205v-4z" />
    <glyph glyph-name="fraction" unicode="&#x2044;" horiz-adv-x="249" 
d="M-154 16l548 674l10 -8l-547 -675z" />
    <glyph glyph-name="uni2070" unicode="&#x2070;" horiz-adv-x="477" 
d="M54 510c0 63.333 16.833 115 50.5 155s78.167 60 133.5 60s100 -20 134 -60s51 -91.667 51 -155s-17 -115 -51 -155s-78.667 -60 -134 -60c-54.667 0 -99 20.667 -133 62s-51 92.333 -51 153zM68 510c0 -59.333 15.5 -107.67 46.5 -145.003s72.167 -56 123.5 -56
s92.666 18.833 123.999 56.5s47 85.834 47 144.501s-15.667 106.834 -47 144.501s-72.666 56.5 -123.999 56.5s-92.5 -18.667 -123.5 -56s-46.5 -85.666 -46.5 -144.999z" />
    <glyph glyph-name="uni2074" unicode="&#x2074;" horiz-adv-x="465" 
d="M328 300v113h-311v14l311 293h14v-293h102v-14h-102v-113h-14zM37 427h291v274z" />
    </font>
</defs>
</svg>
